G04 Layer: BottomSilkscreenLayer*
G04 EasyEDA v6.5.34, 2023-08-24 10:08:58*
G04 37586862595d49128824a1d9db5d89c9,5a6b42c53f6a479593ecc07194224c93,10*
G04 Gerber Generator version 0.2*
G04 Scale: 100 percent, Rotated: No, Reflected: No *
G04 Dimensions in millimeters *
G04 leading zeros omitted , absolute positions ,4 integer and 5 decimal *
%FSLAX45Y45*%
%MOMM*%

%ADD10C,0.2032*%
%ADD11C,0.1520*%
%ADD12C,0.1524*%
%ADD13C,0.2540*%

%LPD*%
D10*
X24320804Y463989D02*
G01*
X24320804Y349445D01*
X24320804Y463989D02*
G01*
X24271714Y463989D01*
X24255351Y458536D01*
X24249895Y453082D01*
X24244442Y442173D01*
X24244442Y425808D01*
X24249895Y414898D01*
X24255351Y409445D01*
X24271714Y403989D01*
X24320804Y403989D01*
X24164805Y463989D02*
G01*
X24208440Y349445D01*
X24164805Y463989D02*
G01*
X24121168Y349445D01*
X24192077Y387626D02*
G01*
X24137533Y387626D01*
X24085168Y463989D02*
G01*
X24085168Y349445D01*
X24085168Y463989D02*
G01*
X24036078Y463989D01*
X24019715Y458536D01*
X24014259Y453082D01*
X24008806Y442173D01*
X24008806Y431264D01*
X24014259Y420354D01*
X24019715Y414898D01*
X24036078Y409445D01*
X24085168Y409445D01*
X24046987Y409445D02*
G01*
X24008806Y349445D01*
X23934623Y463989D02*
G01*
X23934623Y349445D01*
X23972804Y463989D02*
G01*
X23896441Y463989D01*
X23776442Y463989D02*
G01*
X23776442Y349445D01*
X23776442Y463989D02*
G01*
X23700079Y349445D01*
X23700079Y463989D02*
G01*
X23700079Y349445D01*
X23664077Y463989D02*
G01*
X23664077Y382173D01*
X23658624Y365808D01*
X23647714Y354898D01*
X23631352Y349445D01*
X23620442Y349445D01*
X23604077Y354898D01*
X23593170Y365808D01*
X23587715Y382173D01*
X23587715Y463989D01*
X23551715Y463989D02*
G01*
X23551715Y349445D01*
X23551715Y463989D02*
G01*
X23508078Y349445D01*
X23464443Y463989D02*
G01*
X23508078Y349445D01*
X23464443Y463989D02*
G01*
X23464443Y349445D01*
X23428441Y463989D02*
G01*
X23428441Y349445D01*
X23428441Y463989D02*
G01*
X23379351Y463989D01*
X23362988Y458536D01*
X23357535Y453082D01*
X23352079Y442173D01*
X23352079Y431264D01*
X23357535Y420354D01*
X23362988Y414898D01*
X23379351Y409445D01*
X23428441Y409445D02*
G01*
X23379351Y409445D01*
X23362988Y403989D01*
X23357535Y398536D01*
X23352079Y387626D01*
X23352079Y371264D01*
X23357535Y360354D01*
X23362988Y354898D01*
X23379351Y349445D01*
X23428441Y349445D01*
X23316079Y463989D02*
G01*
X23316079Y349445D01*
X23316079Y463989D02*
G01*
X23245170Y463989D01*
X23316079Y409445D02*
G01*
X23272442Y409445D01*
X23316079Y349445D02*
G01*
X23245170Y349445D01*
X23209171Y463989D02*
G01*
X23209171Y349445D01*
X23209171Y463989D02*
G01*
X23160080Y463989D01*
X23143715Y458536D01*
X23138262Y453082D01*
X23132806Y442173D01*
X23132806Y431264D01*
X23138262Y420354D01*
X23143715Y414898D01*
X23160080Y409445D01*
X23209171Y409445D01*
X23170989Y409445D02*
G01*
X23132806Y349445D01*
X23012806Y442173D02*
G01*
X23001897Y447626D01*
X22985534Y463989D01*
X22985534Y349445D01*
X22922263Y463989D02*
G01*
X22938625Y458536D01*
X22944079Y447626D01*
X22944079Y436717D01*
X22938625Y425808D01*
X22927716Y420354D01*
X22905897Y414898D01*
X22889535Y409445D01*
X22878625Y398536D01*
X22873172Y387626D01*
X22873172Y371264D01*
X22878625Y360354D01*
X22884079Y354898D01*
X22900444Y349445D01*
X22922263Y349445D01*
X22938625Y354898D01*
X22944079Y360354D01*
X22949534Y371264D01*
X22949534Y387626D01*
X22944079Y398536D01*
X22933172Y409445D01*
X22916807Y414898D01*
X22894988Y420354D01*
X22884079Y425808D01*
X22878625Y436717D01*
X22878625Y447626D01*
X22884079Y458536D01*
X22900444Y463989D01*
X22922263Y463989D01*
X22771717Y463989D02*
G01*
X22826261Y463989D01*
X22831717Y414898D01*
X22826261Y420354D01*
X22809898Y425808D01*
X22793535Y425808D01*
X22777170Y420354D01*
X22766261Y409445D01*
X22760807Y393082D01*
X22760807Y382173D01*
X22766261Y365808D01*
X22777170Y354898D01*
X22793535Y349445D01*
X22809898Y349445D01*
X22826261Y354898D01*
X22831717Y360354D01*
X22837170Y371264D01*
X22692080Y463989D02*
G01*
X22708443Y458536D01*
X22719352Y442173D01*
X22724808Y414898D01*
X22724808Y398536D01*
X22719352Y371264D01*
X22708443Y354898D01*
X22692080Y349445D01*
X22681171Y349445D01*
X22664808Y354898D01*
X22653899Y371264D01*
X22648443Y398536D01*
X22648443Y414898D01*
X22653899Y442173D01*
X22664808Y458536D01*
X22681171Y463989D01*
X22692080Y463989D01*
X22612443Y398536D02*
G01*
X22514262Y398536D01*
X22445535Y463989D02*
G01*
X22461898Y458536D01*
X22472807Y442173D01*
X22478263Y414898D01*
X22478263Y398536D01*
X22472807Y371264D01*
X22461898Y354898D01*
X22445535Y349445D01*
X22434626Y349445D01*
X22418263Y354898D01*
X22407354Y371264D01*
X22401898Y398536D01*
X22401898Y414898D01*
X22407354Y442173D01*
X22418263Y458536D01*
X22434626Y463989D01*
X22445535Y463989D01*
X22360445Y436717D02*
G01*
X22360445Y442173D01*
X22354989Y453082D01*
X22349536Y458536D01*
X22338626Y463989D01*
X22316808Y463989D01*
X22305899Y458536D01*
X22300445Y453082D01*
X22294989Y442173D01*
X22294989Y431264D01*
X22300445Y420354D01*
X22311354Y403989D01*
X22365898Y349445D01*
X22289536Y349445D01*
X22220809Y463989D02*
G01*
X22237171Y458536D01*
X22248080Y442173D01*
X22253536Y414898D01*
X22253536Y398536D01*
X22248080Y371264D01*
X22237171Y354898D01*
X22220809Y349445D01*
X22209899Y349445D01*
X22193537Y354898D01*
X22182627Y371264D01*
X22177171Y398536D01*
X22177171Y414898D01*
X22182627Y442173D01*
X22193537Y458536D01*
X22209899Y463989D01*
X22220809Y463989D01*
X22141172Y442173D02*
G01*
X22130263Y447626D01*
X22113900Y463989D01*
X22113900Y349445D01*
X25222037Y244426D02*
G01*
X25232946Y255336D01*
X25249309Y260789D01*
X25271128Y260789D01*
X25287490Y255336D01*
X25298400Y244426D01*
X25298400Y233517D01*
X25292946Y222608D01*
X25287490Y217154D01*
X25276581Y211698D01*
X25243853Y200789D01*
X25232946Y195336D01*
X25227490Y189882D01*
X25222037Y178973D01*
X25222037Y162608D01*
X25232946Y151698D01*
X25249309Y146245D01*
X25271128Y146245D01*
X25287490Y151698D01*
X25298400Y162608D01*
X25186035Y260789D02*
G01*
X25186035Y178973D01*
X25180582Y162608D01*
X25169672Y151698D01*
X25153310Y146245D01*
X25142400Y146245D01*
X25126035Y151698D01*
X25115128Y162608D01*
X25109672Y178973D01*
X25109672Y260789D01*
X25073673Y260789D02*
G01*
X25073673Y146245D01*
X25073673Y260789D02*
G01*
X25024582Y260789D01*
X25008217Y255336D01*
X25002764Y249882D01*
X24997310Y238973D01*
X24997310Y228064D01*
X25002764Y217154D01*
X25008217Y211698D01*
X25024582Y206245D01*
X25073673Y206245D02*
G01*
X25024582Y206245D01*
X25008217Y200789D01*
X25002764Y195336D01*
X24997310Y184426D01*
X24997310Y168064D01*
X25002764Y157154D01*
X25008217Y151698D01*
X25024582Y146245D01*
X25073673Y146245D01*
X24884946Y244426D02*
G01*
X24895855Y255336D01*
X24912218Y260789D01*
X24934036Y260789D01*
X24950399Y255336D01*
X24961308Y244426D01*
X24961308Y233517D01*
X24955855Y222608D01*
X24950399Y217154D01*
X24939490Y211698D01*
X24906765Y200789D01*
X24895855Y195336D01*
X24890399Y189882D01*
X24884946Y178973D01*
X24884946Y162608D01*
X24895855Y151698D01*
X24912218Y146245D01*
X24934036Y146245D01*
X24950399Y151698D01*
X24961308Y162608D01*
X24810765Y260789D02*
G01*
X24810765Y146245D01*
X24848947Y260789D02*
G01*
X24772581Y260789D01*
X24692947Y260789D02*
G01*
X24736582Y146245D01*
X24692947Y260789D02*
G01*
X24649310Y146245D01*
X24720219Y184426D02*
G01*
X24665673Y184426D01*
X24575129Y260789D02*
G01*
X24575129Y146245D01*
X24613311Y260789D02*
G01*
X24536946Y260789D01*
X24500946Y260789D02*
G01*
X24500946Y146245D01*
X24432219Y260789D02*
G01*
X24443128Y255336D01*
X24454037Y244426D01*
X24459491Y233517D01*
X24464947Y217154D01*
X24464947Y189882D01*
X24459491Y173517D01*
X24454037Y162608D01*
X24443128Y151698D01*
X24432219Y146245D01*
X24410400Y146245D01*
X24399491Y151698D01*
X24388584Y162608D01*
X24383128Y173517D01*
X24377675Y189882D01*
X24377675Y217154D01*
X24383128Y233517D01*
X24388584Y244426D01*
X24399491Y255336D01*
X24410400Y260789D01*
X24432219Y260789D01*
X24341673Y260789D02*
G01*
X24341673Y146245D01*
X24341673Y260789D02*
G01*
X24265310Y146245D01*
X24265310Y260789D02*
G01*
X24265310Y146245D01*
X24068948Y244426D02*
G01*
X24079857Y255336D01*
X24096220Y260789D01*
X24118039Y260789D01*
X24134401Y255336D01*
X24145311Y244426D01*
X24145311Y233517D01*
X24139857Y222608D01*
X24134401Y217154D01*
X24123492Y211698D01*
X24090767Y200789D01*
X24079857Y195336D01*
X24074401Y189882D01*
X24068948Y178973D01*
X24068948Y162608D01*
X24079857Y151698D01*
X24096220Y146245D01*
X24118039Y146245D01*
X24134401Y151698D01*
X24145311Y162608D01*
X24032949Y260789D02*
G01*
X24032949Y146245D01*
X23996947Y260789D02*
G01*
X23996947Y146245D01*
X23996947Y260789D02*
G01*
X23953312Y146245D01*
X23909675Y260789D02*
G01*
X23953312Y146245D01*
X23909675Y260789D02*
G01*
X23909675Y146245D01*
X23873675Y260789D02*
G01*
X23873675Y178973D01*
X23868219Y162608D01*
X23857313Y151698D01*
X23840948Y146245D01*
X23830038Y146245D01*
X23813676Y151698D01*
X23802766Y162608D01*
X23797313Y178973D01*
X23797313Y260789D01*
X23761311Y260789D02*
G01*
X23761311Y146245D01*
X23761311Y146245D02*
G01*
X23695858Y146245D01*
X23616221Y260789D02*
G01*
X23659858Y146245D01*
X23616221Y260789D02*
G01*
X23572584Y146245D01*
X23643493Y184426D02*
G01*
X23588949Y184426D01*
X23498403Y260789D02*
G01*
X23498403Y146245D01*
X23536584Y260789D02*
G01*
X23460222Y260789D01*
X23391495Y260789D02*
G01*
X23402404Y255336D01*
X23413313Y244426D01*
X23418766Y233517D01*
X23424222Y217154D01*
X23424222Y189882D01*
X23418766Y173517D01*
X23413313Y162608D01*
X23402404Y151698D01*
X23391495Y146245D01*
X23369676Y146245D01*
X23358767Y151698D01*
X23347857Y162608D01*
X23342404Y173517D01*
X23336948Y189882D01*
X23336948Y217154D01*
X23342404Y233517D01*
X23347857Y244426D01*
X23358767Y255336D01*
X23369676Y260789D01*
X23391495Y260789D01*
X23300949Y260789D02*
G01*
X23300949Y146245D01*
X23300949Y260789D02*
G01*
X23251858Y260789D01*
X23235495Y255336D01*
X23230039Y249882D01*
X23224586Y238973D01*
X23224586Y228064D01*
X23230039Y217154D01*
X23235495Y211698D01*
X23251858Y206245D01*
X23300949Y206245D01*
X23262767Y206245D02*
G01*
X23224586Y146245D01*
X23104586Y260789D02*
G01*
X23104586Y146245D01*
X23104586Y146245D02*
G01*
X23039130Y146245D01*
X23003131Y260789D02*
G01*
X23003131Y146245D01*
X23003131Y260789D02*
G01*
X22932222Y260789D01*
X23003131Y206245D02*
G01*
X22959494Y206245D01*
X23003131Y146245D02*
G01*
X22932222Y146245D01*
X22896222Y260789D02*
G01*
X22896222Y146245D01*
X22896222Y260789D02*
G01*
X22858041Y260789D01*
X22841676Y255336D01*
X22830769Y244426D01*
X22825313Y233517D01*
X22819860Y217154D01*
X22819860Y189882D01*
X22825313Y173517D01*
X22830769Y162608D01*
X22841676Y151698D01*
X22858041Y146245D01*
X22896222Y146245D01*
X22699860Y260789D02*
G01*
X22699860Y146245D01*
X22699860Y260789D02*
G01*
X22650770Y260789D01*
X22634404Y255336D01*
X22628951Y249882D01*
X22623495Y238973D01*
X22623495Y228064D01*
X22628951Y217154D01*
X22634404Y211698D01*
X22650770Y206245D01*
X22699860Y206245D02*
G01*
X22650770Y206245D01*
X22634404Y200789D01*
X22628951Y195336D01*
X22623495Y184426D01*
X22623495Y168064D01*
X22628951Y157154D01*
X22634404Y151698D01*
X22650770Y146245D01*
X22699860Y146245D01*
X22554768Y260789D02*
G01*
X22565677Y255336D01*
X22576586Y244426D01*
X22582042Y233517D01*
X22587496Y217154D01*
X22587496Y189882D01*
X22582042Y173517D01*
X22576586Y162608D01*
X22565677Y151698D01*
X22554768Y146245D01*
X22532952Y146245D01*
X22522042Y151698D01*
X22511133Y162608D01*
X22505677Y173517D01*
X22500224Y189882D01*
X22500224Y217154D01*
X22505677Y233517D01*
X22511133Y244426D01*
X22522042Y255336D01*
X22532952Y260789D01*
X22554768Y260789D01*
X22420587Y260789D02*
G01*
X22464224Y146245D01*
X22420587Y260789D02*
G01*
X22376950Y146245D01*
X22447859Y184426D02*
G01*
X22393315Y184426D01*
X22340950Y260789D02*
G01*
X22340950Y146245D01*
X22340950Y260789D02*
G01*
X22291860Y260789D01*
X22275497Y255336D01*
X22270041Y249882D01*
X22264588Y238973D01*
X22264588Y228064D01*
X22270041Y217154D01*
X22275497Y211698D01*
X22291860Y206245D01*
X22340950Y206245D01*
X22302769Y206245D02*
G01*
X22264588Y146245D01*
X22228589Y260789D02*
G01*
X22228589Y146245D01*
X22228589Y260789D02*
G01*
X22190405Y260789D01*
X22174042Y255336D01*
X22163133Y244426D01*
X22157679Y233517D01*
X22152223Y217154D01*
X22152223Y189882D01*
X22157679Y173517D01*
X22163133Y162608D01*
X22174042Y151698D01*
X22190405Y146245D01*
X22228589Y146245D01*
X22032224Y260789D02*
G01*
X21988589Y146245D01*
X21944952Y260789D02*
G01*
X21988589Y146245D01*
X21908952Y238973D02*
G01*
X21898043Y244426D01*
X21881678Y260789D01*
X21881678Y146245D01*
X21761678Y195336D02*
G01*
X21663497Y195336D01*
X21543497Y260789D02*
G01*
X21543497Y146245D01*
X21543497Y260789D02*
G01*
X21494407Y260789D01*
X21478044Y255336D01*
X21472588Y249882D01*
X21467135Y238973D01*
X21467135Y228064D01*
X21472588Y217154D01*
X21478044Y211698D01*
X21494407Y206245D01*
X21543497Y206245D01*
X21505316Y206245D02*
G01*
X21467135Y146245D01*
X21431135Y260789D02*
G01*
X21431135Y146245D01*
X21431135Y260789D02*
G01*
X21360226Y260789D01*
X21431135Y206245D02*
G01*
X21387498Y206245D01*
X21431135Y146245D02*
G01*
X21360226Y146245D01*
X21280589Y260789D02*
G01*
X21324227Y146245D01*
X21280589Y260789D02*
G01*
X21236952Y146245D01*
X21307861Y184426D02*
G01*
X21253317Y184426D01*
X21200953Y260789D02*
G01*
X21200953Y146245D01*
X21200953Y260789D02*
G01*
X21151862Y260789D01*
X21135500Y255336D01*
X21130044Y249882D01*
X21124590Y238973D01*
X21124590Y228064D01*
X21130044Y217154D01*
X21135500Y211698D01*
X21151862Y206245D01*
X21200953Y206245D01*
X21162772Y206245D02*
G01*
X21124590Y146245D01*
D11*
X39876846Y267751D02*
G01*
X39876846Y184624D01*
X39882043Y169037D01*
X39887237Y163842D01*
X39897629Y158648D01*
X39908020Y158648D01*
X39918411Y163842D01*
X39923608Y169037D01*
X39928802Y184624D01*
X39928802Y195016D01*
X39842556Y267751D02*
G01*
X39842556Y158648D01*
X39842556Y158648D02*
G01*
X39780212Y158648D01*
X39667990Y241774D02*
G01*
X39673187Y252166D01*
X39683578Y262557D01*
X39693966Y267751D01*
X39714749Y267751D01*
X39725140Y262557D01*
X39735531Y252166D01*
X39740728Y241774D01*
X39745922Y226187D01*
X39745922Y200210D01*
X39740728Y184624D01*
X39735531Y174233D01*
X39725140Y163842D01*
X39714749Y158648D01*
X39693966Y158648D01*
X39683578Y163842D01*
X39673187Y174233D01*
X39667990Y184624D01*
X39581747Y267751D02*
G01*
X39581747Y184624D01*
X39586941Y169037D01*
X39592138Y163842D01*
X39602526Y158648D01*
X39612917Y158648D01*
X39623309Y163842D01*
X39628505Y169037D01*
X39633700Y184624D01*
X39633700Y195016D01*
X39547457Y267751D02*
G01*
X39547457Y158648D01*
X39547457Y158648D02*
G01*
X39485110Y158648D01*
X39372887Y241774D02*
G01*
X39378084Y252166D01*
X39388475Y262557D01*
X39398867Y267751D01*
X39419646Y267751D01*
X39430037Y262557D01*
X39440429Y252166D01*
X39445625Y241774D01*
X39450820Y226187D01*
X39450820Y200210D01*
X39445625Y184624D01*
X39440429Y174233D01*
X39430037Y163842D01*
X39419646Y158648D01*
X39398867Y158648D01*
X39388475Y163842D01*
X39378084Y174233D01*
X39372887Y184624D01*
X39286644Y267751D02*
G01*
X39286644Y184624D01*
X39291839Y169037D01*
X39297035Y163842D01*
X39307427Y158648D01*
X39317818Y158648D01*
X39328206Y163842D01*
X39333403Y169037D01*
X39338597Y184624D01*
X39338597Y195016D01*
X39252354Y267751D02*
G01*
X39252354Y158648D01*
X39252354Y158648D02*
G01*
X39190007Y158648D01*
X39077788Y241774D02*
G01*
X39082982Y252166D01*
X39093373Y262557D01*
X39103764Y267751D01*
X39124547Y267751D01*
X39134938Y262557D01*
X39145326Y252166D01*
X39150523Y241774D01*
X39155717Y226187D01*
X39155717Y200210D01*
X39150523Y184624D01*
X39145326Y174233D01*
X39134938Y163842D01*
X39124547Y158648D01*
X39103764Y158648D01*
X39093373Y163842D01*
X39082982Y174233D01*
X39077788Y184624D01*
X38991542Y267751D02*
G01*
X38991542Y184624D01*
X38996736Y169037D01*
X39001933Y163842D01*
X39012324Y158648D01*
X39022715Y158648D01*
X39033107Y163842D01*
X39038301Y169037D01*
X39043498Y184624D01*
X39043498Y195016D01*
X38957252Y267751D02*
G01*
X38957252Y158648D01*
X38957252Y158648D02*
G01*
X38894908Y158648D01*
X38782685Y241774D02*
G01*
X38787880Y252166D01*
X38798271Y262557D01*
X38808662Y267751D01*
X38829444Y267751D01*
X38839835Y262557D01*
X38850227Y252166D01*
X38855421Y241774D01*
X38860618Y226187D01*
X38860618Y200210D01*
X38855421Y184624D01*
X38850227Y174233D01*
X38839835Y163842D01*
X38829444Y158648D01*
X38808662Y158648D01*
X38798271Y163842D01*
X38787880Y174233D01*
X38782685Y184624D01*
D12*
X39850867Y444962D02*
G01*
X39856064Y455353D01*
X39866455Y465744D01*
X39876844Y470938D01*
X39897626Y470938D01*
X39908017Y465744D01*
X39918408Y455353D01*
X39923605Y444962D01*
X39928800Y429374D01*
X39928800Y403397D01*
X39923605Y387812D01*
X39918408Y377421D01*
X39908017Y367029D01*
X39897626Y361835D01*
X39876844Y361835D01*
X39866455Y367029D01*
X39856064Y377421D01*
X39850867Y387812D01*
X39785404Y470938D02*
G01*
X39795795Y465744D01*
X39806186Y455353D01*
X39811383Y444962D01*
X39816577Y429374D01*
X39816577Y403397D01*
X39811383Y387812D01*
X39806186Y377421D01*
X39795795Y367029D01*
X39785404Y361835D01*
X39764624Y361835D01*
X39754233Y367029D01*
X39743842Y377421D01*
X39738645Y387812D01*
X39733451Y403397D01*
X39733451Y429374D01*
X39738645Y444962D01*
X39743842Y455353D01*
X39754233Y465744D01*
X39764624Y470938D01*
X39785404Y470938D01*
X39699161Y470938D02*
G01*
X39699161Y361835D01*
X39699161Y470938D02*
G01*
X39652402Y470938D01*
X39636814Y465744D01*
X39631620Y460547D01*
X39626425Y450156D01*
X39626425Y434571D01*
X39631620Y424179D01*
X39636814Y418985D01*
X39652402Y413788D01*
X39699161Y413788D01*
X39592135Y470938D02*
G01*
X39550571Y418985D01*
X39550571Y361835D01*
X39509006Y470938D02*
G01*
X39550571Y418985D01*
X39474716Y470938D02*
G01*
X39474716Y361835D01*
X39474716Y470938D02*
G01*
X39427957Y470938D01*
X39412372Y465744D01*
X39407175Y460547D01*
X39401981Y450156D01*
X39401981Y439765D01*
X39407175Y429374D01*
X39412372Y424179D01*
X39427957Y418985D01*
X39474716Y418985D01*
X39438348Y418985D02*
G01*
X39401981Y361835D01*
X39367691Y470938D02*
G01*
X39367691Y361835D01*
X39255468Y444962D02*
G01*
X39260665Y455353D01*
X39271054Y465744D01*
X39281445Y470938D01*
X39302227Y470938D01*
X39312618Y465744D01*
X39323009Y455353D01*
X39328204Y444962D01*
X39333401Y429374D01*
X39333401Y403397D01*
X39328204Y387812D01*
X39323009Y377421D01*
X39312618Y367029D01*
X39302227Y361835D01*
X39281445Y361835D01*
X39271054Y367029D01*
X39260665Y377421D01*
X39255468Y387812D01*
X39255468Y403397D01*
X39281445Y403397D02*
G01*
X39255468Y403397D01*
X39221178Y470938D02*
G01*
X39221178Y361835D01*
X39148443Y470938D02*
G01*
X39148443Y361835D01*
X39221178Y418985D02*
G01*
X39148443Y418985D01*
X39077785Y470938D02*
G01*
X39077785Y361835D01*
X39114153Y470938D02*
G01*
X39041415Y470938D01*
X38921921Y444962D02*
G01*
X38921921Y450156D01*
X38916724Y460547D01*
X38911529Y465744D01*
X38901138Y470938D01*
X38880356Y470938D01*
X38869965Y465744D01*
X38864771Y460547D01*
X38859574Y450156D01*
X38859574Y439765D01*
X38864771Y429374D01*
X38875162Y413788D01*
X38927115Y361835D01*
X38854379Y361835D01*
X38788916Y470938D02*
G01*
X38804504Y465744D01*
X38814895Y450156D01*
X38820090Y424179D01*
X38820090Y408594D01*
X38814895Y382615D01*
X38804504Y367029D01*
X38788916Y361835D01*
X38778525Y361835D01*
X38762940Y367029D01*
X38752548Y382615D01*
X38747354Y408594D01*
X38747354Y424179D01*
X38752548Y450156D01*
X38762940Y465744D01*
X38778525Y470938D01*
X38788916Y470938D01*
X38707867Y444962D02*
G01*
X38707867Y450156D01*
X38702673Y460547D01*
X38697476Y465744D01*
X38687085Y470938D01*
X38666305Y470938D01*
X38655914Y465744D01*
X38650717Y460547D01*
X38645523Y450156D01*
X38645523Y439765D01*
X38650717Y429374D01*
X38661108Y413788D01*
X38713064Y361835D01*
X38640326Y361835D01*
X38595645Y470938D02*
G01*
X38538495Y470938D01*
X38569668Y429374D01*
X38554083Y429374D01*
X38543692Y424179D01*
X38538495Y418985D01*
X38533301Y403397D01*
X38533301Y393006D01*
X38538495Y377421D01*
X38548886Y367029D01*
X38564474Y361835D01*
X38580059Y361835D01*
X38595645Y367029D01*
X38600842Y372224D01*
X38606036Y382615D01*
X38419001Y470938D02*
G01*
X38377436Y361835D01*
X38335874Y470938D02*
G01*
X38377436Y361835D01*
X38301584Y470938D02*
G01*
X38301584Y361835D01*
X38301584Y470938D02*
G01*
X38234043Y470938D01*
X38301584Y418985D02*
G01*
X38260020Y418985D01*
X38301584Y361835D02*
G01*
X38234043Y361835D01*
X38127015Y470938D02*
G01*
X38178971Y361835D01*
X38199753Y470938D02*
G01*
X38127015Y470938D01*
X38092725Y470938D02*
G01*
X38092725Y361835D01*
X38092725Y470938D02*
G01*
X38025184Y470938D01*
X38092725Y418985D02*
G01*
X38051163Y418985D01*
X37990894Y470938D02*
G01*
X37990894Y361835D01*
X37956604Y470938D02*
G01*
X37956604Y361835D01*
X37956604Y470938D02*
G01*
X37915042Y361835D01*
X37873477Y470938D02*
G01*
X37915042Y361835D01*
X37873477Y470938D02*
G01*
X37873477Y361835D01*
X41984467Y6718762D02*
G01*
X41989664Y6729153D01*
X42000055Y6739544D01*
X42010444Y6744738D01*
X42031226Y6744738D01*
X42041617Y6739544D01*
X42052008Y6729153D01*
X42057205Y6718762D01*
X42062400Y6703174D01*
X42062400Y6677197D01*
X42057205Y6661612D01*
X42052008Y6651221D01*
X42041617Y6640829D01*
X42031226Y6635635D01*
X42010444Y6635635D01*
X42000055Y6640829D01*
X41989664Y6651221D01*
X41984467Y6661612D01*
X41984467Y6677197D01*
X42010444Y6677197D02*
G01*
X41984467Y6677197D01*
X41950177Y6744738D02*
G01*
X41950177Y6635635D01*
X41950177Y6744738D02*
G01*
X41877442Y6635635D01*
X41877442Y6744738D02*
G01*
X41877442Y6635635D01*
X41843152Y6744738D02*
G01*
X41843152Y6635635D01*
X41843152Y6744738D02*
G01*
X41806784Y6744738D01*
X41791196Y6739544D01*
X41780805Y6729153D01*
X41775611Y6718762D01*
X41770414Y6703174D01*
X41770414Y6677197D01*
X41775611Y6661612D01*
X41780805Y6651221D01*
X41791196Y6640829D01*
X41806784Y6635635D01*
X41843152Y6635635D01*
X42354500Y6287538D02*
G01*
X42354500Y6178435D01*
X42320209Y6287538D02*
G01*
X42320209Y6178435D01*
X42320209Y6287538D02*
G01*
X42247474Y6178435D01*
X42247474Y6287538D02*
G01*
X42247474Y6178435D01*
X42965255Y6744738D02*
G01*
X43017208Y6744738D01*
X43022405Y6697979D01*
X43017208Y6703174D01*
X43001623Y6708371D01*
X42986035Y6708371D01*
X42970450Y6703174D01*
X42960058Y6692785D01*
X42954864Y6677197D01*
X42954864Y6666806D01*
X42960058Y6651221D01*
X42970450Y6640829D01*
X42986035Y6635635D01*
X43001623Y6635635D01*
X43017208Y6640829D01*
X43022405Y6646024D01*
X43027600Y6656415D01*
X42920574Y6744738D02*
G01*
X42879009Y6635635D01*
X42837445Y6744738D02*
G01*
X42879009Y6635635D01*
X43331244Y6516138D02*
G01*
X43331244Y6433012D01*
X43336441Y6417424D01*
X43341635Y6412229D01*
X43352026Y6407035D01*
X43362417Y6407035D01*
X43372808Y6412229D01*
X43378005Y6417424D01*
X43383200Y6433012D01*
X43383200Y6443403D01*
X43296954Y6495356D02*
G01*
X43286565Y6500553D01*
X43270977Y6516138D01*
X43270977Y6407035D01*
D13*
X43213700Y6337300D02*
G01*
X43213700Y6591300D01*
X41647699Y6337300D02*
G01*
X43213700Y6337300D01*
X41647699Y6591300D02*
G01*
X43213700Y6591300D01*
X41925052Y6337300D02*
G01*
X41925052Y6591300D01*
X41647699Y6337300D02*
G01*
X41647699Y6591300D01*
M02*
