M48
METRIC,LZ,000.000
;FILE_FORMAT=3:3
;TYPE=PLATED
;Layer: PTH_Through
;EasyEDA v6.5.29, 2023-07-20 14:59:44
;987ae69db31144c28cf86215047d26b3,5a6b42c53f6a479593ecc07194224c93,10
;Gerber Generator version 0.2
;Holesize 1 = 0.305 mm
T01C0.305
;Holesize 2 = 1.000 mm
T02C1.000
;Holesize 3 = 1.091 mm
T03C1.091
;Holesize 4 = 3.200 mm
T04C3.200
%
G05
G90
T01
X062992Y042672
X061722Y031242
X055626Y030480
X060960Y077597
X042926Y072009
X042799Y069215
X040513Y074676
X041148Y074168
X042291Y073406
X042291Y072517
X051054Y067183
X049911Y076835
X050038Y072390
X053213Y076835
X045593Y067437
X053594Y069215
X051816Y071882
X052070Y069920
X052451Y080899
X051054Y076835
X050800Y072390
X045085Y079375
X045085Y078613
X049276Y079629
X050038Y079248
X046355Y079248
X045085Y077851
X048133Y076835
X049022Y076835
X046482Y078070
X043942Y076073
X045085Y072517
X053213Y074676
X051816Y073279
X049530Y073279
X049530Y074676
X051816Y074676
X050038Y080137
X044069Y080772
X055880Y074295
X043688Y069723
X055880Y069215
X054102Y077724
X052832Y072136
X047173Y070922
X048387Y075311
X040513Y048260
X052324Y048260
X041148Y048895
X053594Y048895
X037973Y073406
X037973Y072517
X042291Y071374
X037338Y071374
X042926Y075819
X038608Y075819
X056515Y072644
X056515Y071882
X058801Y072644
X058166Y071882
X057531Y075184
X042799Y086360
X037973Y086360
X038608Y085725
X045321Y085707
X039243Y085090
X047879Y085090
X037338Y086995
X040241Y086977
X050419Y085725
X052959Y086360
X058166Y085725
X058801Y086360
X057531Y085090
X055481Y087122
X060960Y087122
X042799Y084328
X056896Y076835
X056261Y076200
X055880Y075184
X035306Y066548
X041783Y078613
X035306Y078613
X035941Y065913
X042799Y077978
X035941Y077978
X055880Y042672
X059944Y053975
X060960Y053975
X061976Y053975
X053594Y056388
X060960Y056388
X044642Y056388
X050399Y009124
X058166Y009144
X052936Y008354
X058801Y008382
X057531Y056388
X055478Y007620
X057531Y007620
X042779Y008402
X040132Y008382
X045319Y009164
X040767Y009164
X047859Y009906
X041402Y009906
X054610Y081153
X056261Y081153
X056896Y074295
X056896Y062357
X047517Y062357
X054356Y070993
X055499Y084328
X042799Y081915
X055499Y081915
T02
X042437Y064643
X044977Y064643
X047517Y064643
X050057Y064643
X052597Y064643
X055137Y064643
X058021Y088574
X055481Y088574
X052941Y088574
X050401Y088574
X047861Y088574
X045321Y088574
X042781Y088574
X040241Y088574
X058018Y006062
X055478Y006062
X052938Y006062
X050398Y006062
X047858Y006062
X045318Y006062
X042778Y006062
X040238Y006062
X043180Y013208
X043180Y015748
T03
X049148Y027963
X043608Y027963
X046378Y027963
X051918Y027963
X054689Y027963
X044993Y025123
X047763Y025123
X050533Y025123
X053303Y025123
T04
X036649Y026543
X061649Y026543
M30
