G04 Layer: BottomSilkscreenLayer*
G04 EasyEDA v6.5.29, 2023-07-20 14:59:44*
G04 987ae69db31144c28cf86215047d26b3,5a6b42c53f6a479593ecc07194224c93,10*
G04 Gerber Generator version 0.2*
G04 Scale: 100 percent, Rotated: No, Reflected: No *
G04 Dimensions in millimeters *
G04 leading zeros omitted , absolute positions ,4 integer and 5 decimal *
%FSLAX45Y45*%
%MOMM*%

%ADD10C,0.1524*%
%ADD11C,0.2032*%
%ADD12C,0.2540*%

%LPD*%
D10*
X4355843Y9561367D02*
G01*
X4364987Y9570511D01*
X4378703Y9575083D01*
X4396991Y9575083D01*
X4410453Y9570511D01*
X4419597Y9561367D01*
X4419597Y9552477D01*
X4415025Y9543333D01*
X4410453Y9538761D01*
X4401309Y9534189D01*
X4374131Y9525045D01*
X4364987Y9520473D01*
X4360415Y9515901D01*
X4355843Y9507011D01*
X4355843Y9493295D01*
X4364987Y9484151D01*
X4378703Y9479579D01*
X4396991Y9479579D01*
X4410453Y9484151D01*
X4419597Y9493295D01*
X4325871Y9575083D02*
G01*
X4303265Y9479579D01*
X4280405Y9575083D02*
G01*
X4303265Y9479579D01*
X4280405Y9575083D02*
G01*
X4257799Y9479579D01*
X4234939Y9575083D02*
G01*
X4257799Y9479579D01*
X4204967Y9575083D02*
G01*
X4204967Y9479579D01*
X4204967Y9575083D02*
G01*
X4173217Y9575083D01*
X4159501Y9570511D01*
X4150611Y9561367D01*
X4146039Y9552477D01*
X4141467Y9538761D01*
X4141467Y9515901D01*
X4146039Y9502439D01*
X4150611Y9493295D01*
X4159501Y9484151D01*
X4173217Y9479579D01*
X4204967Y9479579D01*
X5969000Y9575037D02*
G01*
X5969000Y9479534D01*
X5969000Y9575037D02*
G01*
X5937250Y9575037D01*
X5923534Y9570465D01*
X5914390Y9561576D01*
X5909818Y9552431D01*
X5905245Y9538715D01*
X5905245Y9516110D01*
X5909818Y9502394D01*
X5914390Y9493250D01*
X5923534Y9484105D01*
X5937250Y9479534D01*
X5969000Y9479534D01*
X5875274Y9575037D02*
G01*
X5875274Y9479534D01*
X5875274Y9575037D02*
G01*
X5816345Y9575037D01*
X5875274Y9529571D02*
G01*
X5838952Y9529571D01*
X5875274Y9479534D02*
G01*
X5816345Y9479534D01*
X5786374Y9575037D02*
G01*
X5786374Y9479534D01*
X5786374Y9575037D02*
G01*
X5745479Y9575037D01*
X5731763Y9570465D01*
X5727191Y9565894D01*
X5722620Y9557004D01*
X5722620Y9547860D01*
X5727191Y9538715D01*
X5731763Y9534144D01*
X5745479Y9529571D01*
X5786374Y9529571D02*
G01*
X5745479Y9529571D01*
X5731763Y9525000D01*
X5727191Y9520681D01*
X5722620Y9511537D01*
X5722620Y9497821D01*
X5727191Y9488678D01*
X5731763Y9484105D01*
X5745479Y9479534D01*
X5786374Y9479534D01*
X5692647Y9575037D02*
G01*
X5692647Y9506965D01*
X5688075Y9493250D01*
X5678931Y9484105D01*
X5665470Y9479534D01*
X5656325Y9479534D01*
X5642609Y9484105D01*
X5633465Y9493250D01*
X5628893Y9506965D01*
X5628893Y9575037D01*
X5530850Y9552431D02*
G01*
X5535422Y9561576D01*
X5544565Y9570465D01*
X5553456Y9575037D01*
X5571743Y9575037D01*
X5580888Y9570465D01*
X5590031Y9561576D01*
X5594350Y9552431D01*
X5598922Y9538715D01*
X5598922Y9516110D01*
X5594350Y9502394D01*
X5590031Y9493250D01*
X5580888Y9484105D01*
X5571743Y9479534D01*
X5553456Y9479534D01*
X5544565Y9484105D01*
X5535422Y9493250D01*
X5530850Y9502394D01*
X5530850Y9516110D01*
X5553456Y9516110D02*
G01*
X5530850Y9516110D01*
X5430774Y9575037D02*
G01*
X5430774Y9506965D01*
X5426202Y9493250D01*
X5417058Y9484105D01*
X5403595Y9479534D01*
X5394452Y9479534D01*
X5380736Y9484105D01*
X5371845Y9493250D01*
X5367274Y9506965D01*
X5367274Y9575037D01*
X5300725Y9575037D02*
G01*
X5337302Y9479534D01*
X5300725Y9575037D02*
G01*
X5264404Y9479534D01*
X5323586Y9511537D02*
G01*
X5278120Y9511537D01*
X5234431Y9575037D02*
G01*
X5234431Y9479534D01*
X5234431Y9575037D02*
G01*
X5193538Y9575037D01*
X5179822Y9570465D01*
X5175250Y9565894D01*
X5170931Y9557004D01*
X5170931Y9547860D01*
X5175250Y9538715D01*
X5179822Y9534144D01*
X5193538Y9529571D01*
X5234431Y9529571D01*
X5202681Y9529571D02*
G01*
X5170931Y9479534D01*
X5108956Y9575037D02*
G01*
X5108956Y9479534D01*
X5140706Y9575037D02*
G01*
X5077206Y9575037D01*
X4342244Y1867938D02*
G01*
X4342244Y1784812D01*
X4347441Y1769224D01*
X4352635Y1764029D01*
X4363026Y1758835D01*
X4373417Y1758835D01*
X4383808Y1764029D01*
X4389005Y1769224D01*
X4394200Y1784812D01*
X4394200Y1795203D01*
X4245609Y1852353D02*
G01*
X4250804Y1862744D01*
X4266392Y1867938D01*
X4276783Y1867938D01*
X4292368Y1862744D01*
X4302759Y1847156D01*
X4307954Y1821179D01*
X4307954Y1795203D01*
X4302759Y1774421D01*
X4292368Y1764029D01*
X4276783Y1758835D01*
X4271586Y1758835D01*
X4256001Y1764029D01*
X4245609Y1774421D01*
X4240415Y1790006D01*
X4240415Y1795203D01*
X4245609Y1810788D01*
X4256001Y1821179D01*
X4271586Y1826374D01*
X4276783Y1826374D01*
X4292368Y1821179D01*
X4302759Y1810788D01*
X4307954Y1795203D01*
X4072890Y1624837D02*
G01*
X4118356Y1624837D01*
X4122927Y1583944D01*
X4118356Y1588515D01*
X4104893Y1593087D01*
X4091177Y1593087D01*
X4077461Y1588515D01*
X4068318Y1579371D01*
X4063745Y1565910D01*
X4063745Y1556765D01*
X4068318Y1543050D01*
X4077461Y1533905D01*
X4091177Y1529334D01*
X4104893Y1529334D01*
X4118356Y1533905D01*
X4122927Y1538478D01*
X4127500Y1547621D01*
X4033774Y1624837D02*
G01*
X3997452Y1529334D01*
X3961129Y1624837D02*
G01*
X3997452Y1529334D01*
X4059427Y1348231D02*
G01*
X4063745Y1357376D01*
X4072890Y1366265D01*
X4082034Y1370837D01*
X4100322Y1370837D01*
X4109211Y1366265D01*
X4118356Y1357376D01*
X4122927Y1348231D01*
X4127500Y1334515D01*
X4127500Y1311910D01*
X4122927Y1298194D01*
X4118356Y1289050D01*
X4109211Y1279905D01*
X4100322Y1275334D01*
X4082034Y1275334D01*
X4072890Y1279905D01*
X4063745Y1289050D01*
X4059427Y1298194D01*
X4059427Y1311910D01*
X4082034Y1311910D02*
G01*
X4059427Y1311910D01*
X4029202Y1370837D02*
G01*
X4029202Y1275334D01*
X4029202Y1370837D02*
G01*
X3965702Y1275334D01*
X3965702Y1370837D02*
G01*
X3965702Y1275334D01*
X3935729Y1370837D02*
G01*
X3935729Y1275334D01*
X3935729Y1370837D02*
G01*
X3903979Y1370837D01*
X3890263Y1366265D01*
X3881120Y1357376D01*
X3876547Y1348231D01*
X3871975Y1334515D01*
X3871975Y1311910D01*
X3876547Y1298194D01*
X3881120Y1289050D01*
X3890263Y1279905D01*
X3903979Y1275334D01*
X3935729Y1275334D01*
D11*
X6146800Y438589D02*
G01*
X6146800Y324045D01*
X6146800Y438589D02*
G01*
X6097709Y438589D01*
X6081346Y433136D01*
X6075890Y427682D01*
X6070437Y416773D01*
X6070437Y400408D01*
X6075890Y389498D01*
X6081346Y384045D01*
X6097709Y378589D01*
X6146800Y378589D01*
X6001710Y438589D02*
G01*
X6012619Y433136D01*
X6023528Y422226D01*
X6028982Y411317D01*
X6034435Y394954D01*
X6034435Y367682D01*
X6028982Y351317D01*
X6023528Y340408D01*
X6012619Y329498D01*
X6001710Y324045D01*
X5979891Y324045D01*
X5968982Y329498D01*
X5958072Y340408D01*
X5952619Y351317D01*
X5947163Y367682D01*
X5947163Y394954D01*
X5952619Y411317D01*
X5958072Y422226D01*
X5968982Y433136D01*
X5979891Y438589D01*
X6001710Y438589D01*
X5911164Y438589D02*
G01*
X5883892Y324045D01*
X5856617Y438589D02*
G01*
X5883892Y324045D01*
X5856617Y438589D02*
G01*
X5829345Y324045D01*
X5802073Y438589D02*
G01*
X5829345Y324045D01*
X5766074Y438589D02*
G01*
X5766074Y324045D01*
X5766074Y438589D02*
G01*
X5695165Y438589D01*
X5766074Y384045D02*
G01*
X5722437Y384045D01*
X5766074Y324045D02*
G01*
X5695165Y324045D01*
X5659165Y438589D02*
G01*
X5659165Y324045D01*
X5659165Y438589D02*
G01*
X5610072Y438589D01*
X5593709Y433136D01*
X5588256Y427682D01*
X5582800Y416773D01*
X5582800Y405864D01*
X5588256Y394954D01*
X5593709Y389498D01*
X5610072Y384045D01*
X5659165Y384045D01*
X5620981Y384045D02*
G01*
X5582800Y324045D01*
X5470438Y422226D02*
G01*
X5481347Y433136D01*
X5497710Y438589D01*
X5519529Y438589D01*
X5535891Y433136D01*
X5546801Y422226D01*
X5546801Y411317D01*
X5541347Y400408D01*
X5535891Y394954D01*
X5524982Y389498D01*
X5492254Y378589D01*
X5481347Y373136D01*
X5475892Y367682D01*
X5470438Y356773D01*
X5470438Y340408D01*
X5481347Y329498D01*
X5497710Y324045D01*
X5519529Y324045D01*
X5535891Y329498D01*
X5546801Y340408D01*
X5434436Y438589D02*
G01*
X5434436Y324045D01*
X5398437Y438589D02*
G01*
X5398437Y324045D01*
X5398437Y438589D02*
G01*
X5354802Y324045D01*
X5311165Y438589D02*
G01*
X5354802Y324045D01*
X5311165Y438589D02*
G01*
X5311165Y324045D01*
X5191165Y438589D02*
G01*
X5191165Y324045D01*
X5191165Y438589D02*
G01*
X5120256Y438589D01*
X5191165Y384045D02*
G01*
X5147528Y384045D01*
X5191165Y324045D02*
G01*
X5120256Y324045D01*
X5084257Y438589D02*
G01*
X5084257Y324045D01*
X5084257Y438589D02*
G01*
X5007891Y324045D01*
X5007891Y438589D02*
G01*
X5007891Y324045D01*
X4971892Y438589D02*
G01*
X4971892Y324045D01*
X4971892Y438589D02*
G01*
X4933711Y438589D01*
X4917348Y433136D01*
X4906439Y422226D01*
X4900983Y411317D01*
X4895529Y394954D01*
X4895529Y367682D01*
X4900983Y351317D01*
X4906439Y340408D01*
X4917348Y329498D01*
X4933711Y324045D01*
X4971892Y324045D01*
X4693711Y411317D02*
G01*
X4699167Y422226D01*
X4710074Y433136D01*
X4720983Y438589D01*
X4742802Y438589D01*
X4753711Y433136D01*
X4764620Y422226D01*
X4770074Y411317D01*
X4775530Y394954D01*
X4775530Y367682D01*
X4770074Y351317D01*
X4764620Y340408D01*
X4753711Y329498D01*
X4742802Y324045D01*
X4720983Y324045D01*
X4710074Y329498D01*
X4699167Y340408D01*
X4693711Y351317D01*
X4624984Y438589D02*
G01*
X4635893Y433136D01*
X4646802Y422226D01*
X4652256Y411317D01*
X4657712Y394954D01*
X4657712Y367682D01*
X4652256Y351317D01*
X4646802Y340408D01*
X4635893Y329498D01*
X4624984Y324045D01*
X4603165Y324045D01*
X4592256Y329498D01*
X4581349Y340408D01*
X4575893Y351317D01*
X4570440Y367682D01*
X4570440Y394954D01*
X4575893Y411317D01*
X4581349Y422226D01*
X4592256Y433136D01*
X4603165Y438589D01*
X4624984Y438589D01*
X4534438Y438589D02*
G01*
X4534438Y324045D01*
X4534438Y438589D02*
G01*
X4458075Y324045D01*
X4458075Y438589D02*
G01*
X4458075Y324045D01*
X4383895Y438589D02*
G01*
X4383895Y324045D01*
X4422076Y438589D02*
G01*
X4345713Y438589D01*
X4309711Y438589D02*
G01*
X4309711Y324045D01*
X4309711Y438589D02*
G01*
X4260621Y438589D01*
X4244258Y433136D01*
X4238802Y427682D01*
X4233349Y416773D01*
X4233349Y405864D01*
X4238802Y394954D01*
X4244258Y389498D01*
X4260621Y384045D01*
X4309711Y384045D01*
X4271530Y384045D02*
G01*
X4233349Y324045D01*
X4164622Y438589D02*
G01*
X4175531Y433136D01*
X4186440Y422226D01*
X4191894Y411317D01*
X4197350Y394954D01*
X4197350Y367682D01*
X4191894Y351317D01*
X4186440Y340408D01*
X4175531Y329498D01*
X4164622Y324045D01*
X4142803Y324045D01*
X4131894Y329498D01*
X4120984Y340408D01*
X4115531Y351317D01*
X4110075Y367682D01*
X4110075Y394954D01*
X4115531Y411317D01*
X4120984Y422226D01*
X4131894Y433136D01*
X4142803Y438589D01*
X4164622Y438589D01*
X4074076Y438589D02*
G01*
X4074076Y324045D01*
X4074076Y324045D02*
G01*
X4008622Y324045D01*
X3972623Y438589D02*
G01*
X3972623Y324045D01*
X3972623Y324045D02*
G01*
X3907167Y324045D01*
X3871168Y438589D02*
G01*
X3871168Y324045D01*
X3871168Y438589D02*
G01*
X3800259Y438589D01*
X3871168Y384045D02*
G01*
X3827531Y384045D01*
X3871168Y324045D02*
G01*
X3800259Y324045D01*
X3764259Y438589D02*
G01*
X3764259Y324045D01*
X3764259Y438589D02*
G01*
X3715169Y438589D01*
X3698803Y433136D01*
X3693350Y427682D01*
X3687894Y416773D01*
X3687894Y405864D01*
X3693350Y394954D01*
X3698803Y389498D01*
X3715169Y384045D01*
X3764259Y384045D01*
X3726078Y384045D02*
G01*
X3687894Y324045D01*
X6121400Y1111689D02*
G01*
X6121400Y997145D01*
X6121400Y1111689D02*
G01*
X6072309Y1111689D01*
X6055946Y1106236D01*
X6050490Y1100782D01*
X6045037Y1089873D01*
X6045037Y1073508D01*
X6050490Y1062598D01*
X6055946Y1057145D01*
X6072309Y1051689D01*
X6121400Y1051689D01*
X5965400Y1111689D02*
G01*
X6009035Y997145D01*
X5965400Y1111689D02*
G01*
X5921763Y997145D01*
X5992672Y1035326D02*
G01*
X5938128Y1035326D01*
X5885764Y1111689D02*
G01*
X5885764Y997145D01*
X5885764Y1111689D02*
G01*
X5836673Y1111689D01*
X5820310Y1106236D01*
X5814855Y1100782D01*
X5809401Y1089873D01*
X5809401Y1078964D01*
X5814855Y1068054D01*
X5820310Y1062598D01*
X5836673Y1057145D01*
X5885764Y1057145D01*
X5847582Y1057145D02*
G01*
X5809401Y997145D01*
X5735218Y1111689D02*
G01*
X5735218Y997145D01*
X5773399Y1111689D02*
G01*
X5697037Y1111689D01*
X5577037Y1111689D02*
G01*
X5577037Y997145D01*
X5577037Y1111689D02*
G01*
X5500674Y997145D01*
X5500674Y1111689D02*
G01*
X5500674Y997145D01*
X5464672Y1111689D02*
G01*
X5464672Y1029873D01*
X5459219Y1013508D01*
X5448310Y1002598D01*
X5431947Y997145D01*
X5421038Y997145D01*
X5404672Y1002598D01*
X5393766Y1013508D01*
X5388310Y1029873D01*
X5388310Y1111689D01*
X5352310Y1111689D02*
G01*
X5352310Y997145D01*
X5352310Y1111689D02*
G01*
X5308673Y997145D01*
X5265038Y1111689D02*
G01*
X5308673Y997145D01*
X5265038Y1111689D02*
G01*
X5265038Y997145D01*
X5229037Y1111689D02*
G01*
X5229037Y997145D01*
X5229037Y1111689D02*
G01*
X5179946Y1111689D01*
X5163583Y1106236D01*
X5158130Y1100782D01*
X5152674Y1089873D01*
X5152674Y1078964D01*
X5158130Y1068054D01*
X5163583Y1062598D01*
X5179946Y1057145D01*
X5229037Y1057145D02*
G01*
X5179946Y1057145D01*
X5163583Y1051689D01*
X5158130Y1046236D01*
X5152674Y1035326D01*
X5152674Y1018964D01*
X5158130Y1008054D01*
X5163583Y1002598D01*
X5179946Y997145D01*
X5229037Y997145D01*
X5116675Y1111689D02*
G01*
X5116675Y997145D01*
X5116675Y1111689D02*
G01*
X5045765Y1111689D01*
X5116675Y1057145D02*
G01*
X5073037Y1057145D01*
X5116675Y997145D02*
G01*
X5045765Y997145D01*
X5009766Y1111689D02*
G01*
X5009766Y997145D01*
X5009766Y1111689D02*
G01*
X4960675Y1111689D01*
X4944310Y1106236D01*
X4938857Y1100782D01*
X4933401Y1089873D01*
X4933401Y1078964D01*
X4938857Y1068054D01*
X4944310Y1062598D01*
X4960675Y1057145D01*
X5009766Y1057145D01*
X4971585Y1057145D02*
G01*
X4933401Y997145D01*
X4813401Y1089873D02*
G01*
X4802492Y1095326D01*
X4786129Y1111689D01*
X4786129Y997145D01*
X4722858Y1111689D02*
G01*
X4739220Y1106236D01*
X4744674Y1095326D01*
X4744674Y1084417D01*
X4739220Y1073508D01*
X4728311Y1068054D01*
X4706493Y1062598D01*
X4690130Y1057145D01*
X4679221Y1046236D01*
X4673767Y1035326D01*
X4673767Y1018964D01*
X4679221Y1008054D01*
X4684674Y1002598D01*
X4701039Y997145D01*
X4722858Y997145D01*
X4739220Y1002598D01*
X4744674Y1008054D01*
X4750130Y1018964D01*
X4750130Y1035326D01*
X4744674Y1046236D01*
X4733767Y1057145D01*
X4717402Y1062598D01*
X4695583Y1068054D01*
X4684674Y1073508D01*
X4679221Y1084417D01*
X4679221Y1095326D01*
X4684674Y1106236D01*
X4701039Y1111689D01*
X4722858Y1111689D01*
X4583221Y1111689D02*
G01*
X4637765Y1035326D01*
X4555949Y1035326D01*
X4583221Y1111689D02*
G01*
X4583221Y997145D01*
X4487222Y1111689D02*
G01*
X4503585Y1106236D01*
X4514494Y1089873D01*
X4519947Y1062598D01*
X4519947Y1046236D01*
X4514494Y1018964D01*
X4503585Y1002598D01*
X4487222Y997145D01*
X4476313Y997145D01*
X4459947Y1002598D01*
X4449038Y1018964D01*
X4443585Y1046236D01*
X4443585Y1062598D01*
X4449038Y1089873D01*
X4459947Y1106236D01*
X4476313Y1111689D01*
X4487222Y1111689D01*
X4407585Y1046236D02*
G01*
X4309404Y1046236D01*
X4240677Y1111689D02*
G01*
X4257040Y1106236D01*
X4267949Y1089873D01*
X4273402Y1062598D01*
X4273402Y1046236D01*
X4267949Y1018964D01*
X4257040Y1002598D01*
X4240677Y997145D01*
X4229768Y997145D01*
X4213402Y1002598D01*
X4202493Y1018964D01*
X4197040Y1046236D01*
X4197040Y1062598D01*
X4202493Y1089873D01*
X4213402Y1106236D01*
X4229768Y1111689D01*
X4240677Y1111689D01*
X4161040Y1089873D02*
G01*
X4150131Y1095326D01*
X4133768Y1111689D01*
X4133768Y997145D01*
X4065041Y1111689D02*
G01*
X4081404Y1106236D01*
X4092313Y1089873D01*
X4097766Y1062598D01*
X4097766Y1046236D01*
X4092313Y1018964D01*
X4081404Y1002598D01*
X4065041Y997145D01*
X4054132Y997145D01*
X4037766Y1002598D01*
X4026857Y1018964D01*
X4021404Y1046236D01*
X4021404Y1062598D01*
X4026857Y1089873D01*
X4037766Y1106236D01*
X4054132Y1111689D01*
X4065041Y1111689D01*
X3985404Y1089873D02*
G01*
X3974495Y1095326D01*
X3958132Y1111689D01*
X3958132Y997145D01*
X3838133Y1111689D02*
G01*
X3794495Y997145D01*
X3750858Y1111689D02*
G01*
X3794495Y997145D01*
X3714859Y1089873D02*
G01*
X3703949Y1095326D01*
X3687587Y1111689D01*
X3687587Y997145D01*
D10*
X5891067Y2184862D02*
G01*
X5896264Y2195253D01*
X5906655Y2205644D01*
X5917044Y2210838D01*
X5937826Y2210838D01*
X5948217Y2205644D01*
X5958608Y2195253D01*
X5963805Y2184862D01*
X5969000Y2169274D01*
X5969000Y2143297D01*
X5963805Y2127712D01*
X5958608Y2117321D01*
X5948217Y2106929D01*
X5937826Y2101735D01*
X5917044Y2101735D01*
X5906655Y2106929D01*
X5896264Y2117321D01*
X5891067Y2127712D01*
X5825604Y2210838D02*
G01*
X5835995Y2205644D01*
X5846386Y2195253D01*
X5851583Y2184862D01*
X5856777Y2169274D01*
X5856777Y2143297D01*
X5851583Y2127712D01*
X5846386Y2117321D01*
X5835995Y2106929D01*
X5825604Y2101735D01*
X5804824Y2101735D01*
X5794433Y2106929D01*
X5784042Y2117321D01*
X5778845Y2127712D01*
X5773651Y2143297D01*
X5773651Y2169274D01*
X5778845Y2184862D01*
X5784042Y2195253D01*
X5794433Y2205644D01*
X5804824Y2210838D01*
X5825604Y2210838D01*
X5739361Y2210838D02*
G01*
X5739361Y2101735D01*
X5739361Y2210838D02*
G01*
X5692602Y2210838D01*
X5677014Y2205644D01*
X5671820Y2200447D01*
X5666625Y2190056D01*
X5666625Y2174471D01*
X5671820Y2164079D01*
X5677014Y2158885D01*
X5692602Y2153688D01*
X5739361Y2153688D01*
X5632335Y2210838D02*
G01*
X5590771Y2158885D01*
X5590771Y2101735D01*
X5549206Y2210838D02*
G01*
X5590771Y2158885D01*
X5514916Y2210838D02*
G01*
X5514916Y2101735D01*
X5514916Y2210838D02*
G01*
X5468157Y2210838D01*
X5452572Y2205644D01*
X5447375Y2200447D01*
X5442181Y2190056D01*
X5442181Y2179665D01*
X5447375Y2169274D01*
X5452572Y2164079D01*
X5468157Y2158885D01*
X5514916Y2158885D01*
X5478548Y2158885D02*
G01*
X5442181Y2101735D01*
X5407891Y2210838D02*
G01*
X5407891Y2101735D01*
X5295668Y2184862D02*
G01*
X5300865Y2195253D01*
X5311254Y2205644D01*
X5321645Y2210838D01*
X5342427Y2210838D01*
X5352818Y2205644D01*
X5363209Y2195253D01*
X5368404Y2184862D01*
X5373601Y2169274D01*
X5373601Y2143297D01*
X5368404Y2127712D01*
X5363209Y2117321D01*
X5352818Y2106929D01*
X5342427Y2101735D01*
X5321645Y2101735D01*
X5311254Y2106929D01*
X5300865Y2117321D01*
X5295668Y2127712D01*
X5295668Y2143297D01*
X5321645Y2143297D02*
G01*
X5295668Y2143297D01*
X5261378Y2210838D02*
G01*
X5261378Y2101735D01*
X5188643Y2210838D02*
G01*
X5188643Y2101735D01*
X5261378Y2158885D02*
G01*
X5188643Y2158885D01*
X5117985Y2210838D02*
G01*
X5117985Y2101735D01*
X5154353Y2210838D02*
G01*
X5081615Y2210838D01*
X4962121Y2184862D02*
G01*
X4962121Y2190056D01*
X4956924Y2200447D01*
X4951729Y2205644D01*
X4941338Y2210838D01*
X4920556Y2210838D01*
X4910165Y2205644D01*
X4904971Y2200447D01*
X4899774Y2190056D01*
X4899774Y2179665D01*
X4904971Y2169274D01*
X4915362Y2153688D01*
X4967315Y2101735D01*
X4894579Y2101735D01*
X4829116Y2210838D02*
G01*
X4844704Y2205644D01*
X4855095Y2190056D01*
X4860290Y2164079D01*
X4860290Y2148494D01*
X4855095Y2122515D01*
X4844704Y2106929D01*
X4829116Y2101735D01*
X4818725Y2101735D01*
X4803140Y2106929D01*
X4792748Y2122515D01*
X4787554Y2148494D01*
X4787554Y2164079D01*
X4792748Y2190056D01*
X4803140Y2205644D01*
X4818725Y2210838D01*
X4829116Y2210838D01*
X4748067Y2184862D02*
G01*
X4748067Y2190056D01*
X4742873Y2200447D01*
X4737676Y2205644D01*
X4727285Y2210838D01*
X4706505Y2210838D01*
X4696114Y2205644D01*
X4690917Y2200447D01*
X4685723Y2190056D01*
X4685723Y2179665D01*
X4690917Y2169274D01*
X4701308Y2153688D01*
X4753264Y2101735D01*
X4680526Y2101735D01*
X4635845Y2210838D02*
G01*
X4578695Y2210838D01*
X4609868Y2169274D01*
X4594283Y2169274D01*
X4583892Y2164079D01*
X4578695Y2158885D01*
X4573501Y2143297D01*
X4573501Y2132906D01*
X4578695Y2117321D01*
X4589086Y2106929D01*
X4604674Y2101735D01*
X4620259Y2101735D01*
X4635845Y2106929D01*
X4641042Y2112124D01*
X4646236Y2122515D01*
X4459201Y2210838D02*
G01*
X4417636Y2101735D01*
X4376074Y2210838D02*
G01*
X4417636Y2101735D01*
X4341784Y2210838D02*
G01*
X4341784Y2101735D01*
X4341784Y2210838D02*
G01*
X4274243Y2210838D01*
X4341784Y2158885D02*
G01*
X4300220Y2158885D01*
X4341784Y2101735D02*
G01*
X4274243Y2101735D01*
X4167215Y2210838D02*
G01*
X4219171Y2101735D01*
X4239953Y2210838D02*
G01*
X4167215Y2210838D01*
X4132925Y2210838D02*
G01*
X4132925Y2101735D01*
X4132925Y2210838D02*
G01*
X4065384Y2210838D01*
X4132925Y2158885D02*
G01*
X4091363Y2158885D01*
X4031094Y2210838D02*
G01*
X4031094Y2101735D01*
X3996804Y2210838D02*
G01*
X3996804Y2101735D01*
X3996804Y2210838D02*
G01*
X3955242Y2101735D01*
X3913677Y2210838D02*
G01*
X3955242Y2101735D01*
X3913677Y2210838D02*
G01*
X3913677Y2101735D01*
D11*
X5232400Y921189D02*
G01*
X5232400Y806645D01*
X5232400Y921189D02*
G01*
X5183309Y921189D01*
X5166946Y915736D01*
X5161490Y910282D01*
X5156037Y899373D01*
X5156037Y888464D01*
X5161490Y877554D01*
X5166946Y872098D01*
X5183309Y866645D01*
X5232400Y866645D02*
G01*
X5183309Y866645D01*
X5166946Y861189D01*
X5161490Y855736D01*
X5156037Y844826D01*
X5156037Y828464D01*
X5161490Y817554D01*
X5166946Y812098D01*
X5183309Y806645D01*
X5232400Y806645D01*
X5087310Y921189D02*
G01*
X5098219Y915736D01*
X5109128Y904826D01*
X5114582Y893917D01*
X5120035Y877554D01*
X5120035Y850282D01*
X5114582Y833917D01*
X5109128Y823008D01*
X5098219Y812098D01*
X5087310Y806645D01*
X5065491Y806645D01*
X5054582Y812098D01*
X5043672Y823008D01*
X5038219Y833917D01*
X5032763Y850282D01*
X5032763Y877554D01*
X5038219Y893917D01*
X5043672Y904826D01*
X5054582Y915736D01*
X5065491Y921189D01*
X5087310Y921189D01*
X4958582Y921189D02*
G01*
X4958582Y806645D01*
X4996764Y921189D02*
G01*
X4920401Y921189D01*
X4846218Y921189D02*
G01*
X4846218Y806645D01*
X4884399Y921189D02*
G01*
X4808037Y921189D01*
X4739309Y921189D02*
G01*
X4750219Y915736D01*
X4761128Y904826D01*
X4766581Y893917D01*
X4772037Y877554D01*
X4772037Y850282D01*
X4766581Y833917D01*
X4761128Y823008D01*
X4750219Y812098D01*
X4739309Y806645D01*
X4717491Y806645D01*
X4706581Y812098D01*
X4695672Y823008D01*
X4690219Y833917D01*
X4684765Y850282D01*
X4684765Y877554D01*
X4690219Y893917D01*
X4695672Y904826D01*
X4706581Y915736D01*
X4717491Y921189D01*
X4739309Y921189D01*
X4648763Y921189D02*
G01*
X4648763Y806645D01*
X4648763Y921189D02*
G01*
X4605129Y806645D01*
X4561492Y921189D02*
G01*
X4605129Y806645D01*
X4561492Y921189D02*
G01*
X4561492Y806645D01*
D10*
X6399618Y3455428D02*
G01*
X6399618Y3372302D01*
X6404815Y3356714D01*
X6410010Y3351519D01*
X6420401Y3346325D01*
X6430792Y3346325D01*
X6441183Y3351519D01*
X6446380Y3356714D01*
X6451574Y3372302D01*
X6451574Y3382693D01*
X6302984Y3455428D02*
G01*
X6354940Y3455428D01*
X6360134Y3408669D01*
X6354940Y3413864D01*
X6339352Y3419060D01*
X6323766Y3419060D01*
X6308178Y3413864D01*
X6297790Y3403475D01*
X6292593Y3387887D01*
X6292593Y3377496D01*
X6297790Y3361910D01*
X6308178Y3351519D01*
X6323766Y3346325D01*
X6339352Y3346325D01*
X6354940Y3351519D01*
X6360134Y3356714D01*
X6365328Y3367105D01*
D12*
X4445000Y1193800D02*
G01*
X4191000Y1193800D01*
X4191000Y1701800D01*
X4445000Y1701800D01*
X4445000Y1193800D01*
X4191000Y1193800D01*
X5695927Y3016234D02*
G01*
X5683216Y3016237D01*
X4133816Y3016237D01*
X4133816Y2292337D01*
X5695916Y2292337D01*
X5695916Y3016237D01*
X6464272Y2019287D02*
G01*
X6464272Y3276587D01*
X3365472Y3276587D01*
X3365472Y2019287D01*
X6464272Y2019287D01*
G75*
G01
X5414899Y4889500D02*
G03X5414899Y4889500I-499999J0D01*
M02*
