G04 Layer: TopSolderMaskLayer*
G04 EasyEDA v6.5.29, 2023-07-20 14:59:44*
G04 987ae69db31144c28cf86215047d26b3,5a6b42c53f6a479593ecc07194224c93,10*
G04 Gerber Generator version 0.2*
G04 Scale: 100 percent, Rotated: No, Reflected: No *
G04 Dimensions in millimeters *
G04 leading zeros omitted , absolute positions ,4 integer and 5 decimal *
%FSLAX45Y45*%
%MOMM*%

%AMMACRO1*1,1,$1,$2,$3*1,1,$1,$4,$5*1,1,$1,0-$2,0-$3*1,1,$1,0-$4,0-$5*20,1,$1,$2,$3,$4,$5,0*20,1,$1,$4,$5,0-$2,0-$3,0*20,1,$1,0-$2,0-$3,0-$4,0-$5,0*20,1,$1,0-$4,0-$5,$2,$3,0*4,1,4,$2,$3,$4,$5,0-$2,0-$3,0-$4,0-$5,$2,$3,0*%
%ADD10MACRO1,0.1016X1.296X-1.1038X-1.296X-1.1038*%
%ADD11MACRO1,0.1016X1.296X1.1038X-1.296X1.1038*%
%ADD12MACRO1,0.1016X0.4032X0.432X0.4032X-0.432*%
%ADD13MACRO1,0.1016X-0.4032X0.432X-0.4032X-0.432*%
%ADD14MACRO1,0.1016X0.432X-0.4032X-0.432X-0.4032*%
%ADD15MACRO1,0.1016X0.432X0.4032X-0.432X0.4032*%
%ADD16MACRO1,0.1016X0.45X0.4X0.45X-0.4*%
%ADD17MACRO1,0.1016X-0.4X0.45X0.4X0.45*%
%ADD18MACRO1,0.1016X-0.266X0.536X0.266X0.536*%
%ADD19MACRO1,0.1016X-0.85X0.85X0.85X0.85*%
%ADD20C,1.8016*%
%ADD21MACRO1,0.1016X-0.525X-1.2325X0.525X-1.2325*%
%ADD22MACRO1,0.1016X1.77X-1.2325X-1.77X-1.2325*%
%ADD23MACRO1,0.1016X0.3X-0.775X-0.3X-0.775*%
%ADD24MACRO1,0.1016X0.75X-1X-0.75X-1*%
%ADD25MACRO1,0.1016X0.6885X-0.5663X-0.6885X-0.5663*%
%ADD26MACRO1,0.1016X0.6885X0.5663X-0.6885X0.5663*%
%ADD27MACRO1,0.1016X-0.9X-1X-0.9X1*%
%ADD28O,0.7036053999999999X2.0725892000000004*%
%ADD29MACRO1,0.1016X1.7496X-0.7033X-1.7496X-0.7033*%
%ADD30MACRO1,0.1016X1.7496X0.7033X-1.7496X0.7033*%
%ADD31MACRO1,0.1016X0.475X0.6X0.475X-0.6*%
%ADD32MACRO1,0.1016X-0.4X0.4X0.4X0.4*%
%ADD33MACRO1,0.1016X0.275X-0.275X-0.275X-0.275*%
%ADD34MACRO1,0.1016X-0.395X-0.27X-0.395X0.27*%
%ADD35MACRO1,0.1016X0.395X-0.27X0.395X0.27*%
%ADD36MACRO1,0.1016X0.27X-0.395X-0.27X-0.395*%
%ADD37MACRO1,0.1016X0.27X0.395X-0.27X0.395*%
%ADD38MACRO1,0.1016X-0.3X0.14X0.3X0.14*%
%ADD39MACRO1,0.1016X0.15X-0.85X-0.15X-0.85*%
%ADD40MACRO1,0.1016X0.395X0.27X0.395X-0.27*%
%ADD41MACRO1,0.1016X-0.395X0.27X-0.395X-0.27*%
%ADD42MACRO1,0.1X-0.55X0.1X0.55X0.1*%
%ADD43MACRO1,0.1X-0.1X-0.55X-0.1X0.55*%
%ADD44MACRO1,0.1X0.55X-0.1X-0.55X-0.1*%
%ADD45MACRO1,0.1X0.1X0.55X0.1X-0.55*%
%ADD46MACRO1,0.1X-1.55X1.55X1.55X1.55*%
%ADD47MACRO1,0.1016X0.7X-0.6X0.7X0.6*%
%ADD48MACRO1,0.1016X-0.7X-0.6X-0.7X0.6*%
%ADD49MACRO1,0.1016X-0.7X0.6X-0.7X-0.6*%
%ADD50MACRO1,0.1016X0.7X0.6X0.7X-0.6*%
%ADD51MACRO1,0.1016X-0.27X0.395X0.27X0.395*%
%ADD52MACRO1,0.1016X-0.27X-0.395X0.27X-0.395*%
%ADD53MACRO1,0.1016X-0.85X-0.85X0.85X-0.85*%
%ADD54C,1.9016*%
%ADD55C,5.1016*%
%ADD56MACRO1,0.1016X-0.9X0.9X0.9X0.9*%
%ADD57MACRO1,0.1016X0.9X0.9X-0.9X0.9*%
%ADD58C,3.0000*%
%ADD59C,0.0133*%

%LPD*%
D10*
G01*
X6096000Y5926424D03*
D11*
G01*
X6096000Y5224175D03*
D12*
G01*
X3442575Y8623300D03*
D13*
G01*
X3593224Y8623300D03*
D14*
G01*
X4622800Y6006224D03*
D15*
G01*
X4622800Y5855575D03*
D16*
G01*
X4305300Y3689200D03*
G01*
X4305300Y3829199D03*
D17*
G01*
X4464199Y4292600D03*
G01*
X4324200Y4292600D03*
D16*
G01*
X5524500Y3689200D03*
G01*
X5524500Y3829199D03*
D17*
G01*
X4667399Y3251200D03*
G01*
X4527400Y3251200D03*
G01*
X4984899Y3251200D03*
G01*
X4844900Y3251200D03*
D18*
G01*
X5454904Y8292490D03*
G01*
X5549900Y8292490D03*
G01*
X5644895Y8292490D03*
G01*
X5644895Y8522309D03*
G01*
X5549900Y8522309D03*
G01*
X5454904Y8522309D03*
D19*
G01*
X4243689Y6464287D03*
D20*
G01*
X4497679Y6464274D03*
G01*
X4751679Y6464274D03*
G01*
X5005679Y6464274D03*
G01*
X5259679Y6464274D03*
G01*
X5513679Y6464274D03*
D21*
G01*
X5129400Y5353050D03*
G01*
X5359400Y5353050D03*
G01*
X5589399Y5353050D03*
D22*
G01*
X5359400Y5924550D03*
D23*
G01*
X5649899Y9166148D03*
G01*
X5549900Y9166148D03*
G01*
X5449900Y9166148D03*
D24*
G01*
X5319899Y9553648D03*
G01*
X5779898Y9553648D03*
D25*
G01*
X5410200Y3249604D03*
D26*
G01*
X5410200Y3049595D03*
D25*
G01*
X5194300Y3249604D03*
D26*
G01*
X5194300Y3049595D03*
D27*
G01*
X5092700Y1717700D03*
G01*
X5092700Y2117699D03*
G01*
X4724400Y1717700D03*
G01*
X4724400Y2117699D03*
D28*
G01*
X4470400Y3485642D03*
G01*
X4597400Y3485642D03*
G01*
X4724400Y3485642D03*
G01*
X4851400Y3485642D03*
G01*
X4978400Y3485642D03*
G01*
X5105400Y3485642D03*
G01*
X5232400Y3485642D03*
G01*
X5359400Y3485642D03*
G01*
X4470400Y4032757D03*
G01*
X4597400Y4032757D03*
G01*
X4724400Y4032757D03*
G01*
X4851400Y4032757D03*
G01*
X4978400Y4032757D03*
G01*
X5105400Y4032757D03*
G01*
X5232400Y4032757D03*
G01*
X5359400Y4032757D03*
D29*
G01*
X6172200Y3601633D03*
D30*
G01*
X6172200Y3230966D03*
D31*
G01*
X6299200Y3792397D03*
G01*
X6299200Y4132402D03*
D26*
G01*
X6032496Y3853073D03*
D25*
G01*
X6032496Y4046326D03*
D32*
G01*
X4813297Y5845812D03*
G01*
X4813297Y6015992D03*
D33*
G01*
X4581401Y6950176D03*
G01*
X4581401Y7045192D03*
G01*
X4486379Y7045197D03*
G01*
X4486380Y6950176D03*
D34*
G01*
X4359803Y7048502D03*
D35*
G01*
X4250791Y7048502D03*
D34*
G01*
X4563003Y7327902D03*
D35*
G01*
X4453991Y7327902D03*
D36*
G01*
X4470400Y7712603D03*
D37*
G01*
X4470400Y7603591D03*
D36*
G01*
X4572000Y7712603D03*
D37*
G01*
X4572000Y7603591D03*
D38*
G01*
X4722738Y7849798D03*
G01*
X4722738Y7899811D03*
G01*
X4722738Y7949798D03*
G01*
X4722738Y7999811D03*
G01*
X4421256Y7849798D03*
G01*
X4421256Y7899811D03*
G01*
X4421256Y7949798D03*
G01*
X4421256Y7999811D03*
D39*
G01*
X4571994Y7924802D03*
D40*
G01*
X5584291Y7340602D03*
D41*
G01*
X5693303Y7340602D03*
D40*
G01*
X5406491Y7010402D03*
D41*
G01*
X5515503Y7010402D03*
D34*
G01*
X5210703Y8013702D03*
D35*
G01*
X5101691Y8013702D03*
D42*
G01*
X4712290Y7702207D03*
G01*
X4712290Y7662202D03*
G01*
X4712290Y7622197D03*
G01*
X4712290Y7582192D03*
G01*
X4712290Y7542212D03*
G01*
X4712290Y7502207D03*
G01*
X4712290Y7462202D03*
G01*
X4712290Y7422197D03*
G01*
X4712290Y7382192D03*
G01*
X4712290Y7342212D03*
G01*
X4712290Y7302207D03*
G01*
X4712290Y7262202D03*
G01*
X4712290Y7222197D03*
G01*
X4712290Y7182192D03*
D43*
G01*
X4807305Y7087204D03*
G01*
X4847285Y7087204D03*
G01*
X4887290Y7087204D03*
G01*
X4927295Y7087204D03*
G01*
X4967300Y7087204D03*
G01*
X5007305Y7087204D03*
G01*
X5047284Y7087204D03*
G01*
X5087289Y7087204D03*
G01*
X5127294Y7087204D03*
G01*
X5167299Y7087204D03*
G01*
X5207304Y7087204D03*
G01*
X5247284Y7087204D03*
G01*
X5287289Y7087204D03*
G01*
X5327294Y7087204D03*
D44*
G01*
X5422308Y7182192D03*
G01*
X5422308Y7222197D03*
G01*
X5422308Y7262202D03*
G01*
X5422308Y7302207D03*
G01*
X5422308Y7342212D03*
G01*
X5422308Y7382192D03*
G01*
X5422308Y7422197D03*
G01*
X5422308Y7462202D03*
G01*
X5422308Y7502207D03*
G01*
X5422308Y7542212D03*
G01*
X5422308Y7582192D03*
G01*
X5422308Y7622197D03*
G01*
X5422308Y7662202D03*
G01*
X5422308Y7702207D03*
D45*
G01*
X5327294Y7797195D03*
G01*
X5287289Y7797195D03*
G01*
X5247284Y7797195D03*
G01*
X5207304Y7797195D03*
G01*
X5167299Y7797195D03*
G01*
X5127294Y7797195D03*
G01*
X5087289Y7797195D03*
G01*
X5047284Y7797195D03*
G01*
X5007305Y7797195D03*
G01*
X4967300Y7797195D03*
G01*
X4927295Y7797195D03*
G01*
X4887290Y7797195D03*
G01*
X4847285Y7797195D03*
G01*
X4807305Y7797195D03*
D46*
G01*
X5067294Y7442205D03*
D40*
G01*
X5165191Y6908802D03*
D41*
G01*
X5274203Y6908802D03*
D40*
G01*
X5165191Y6807202D03*
D41*
G01*
X5274203Y6807202D03*
D40*
G01*
X4441294Y6819900D03*
D41*
G01*
X4550305Y6819900D03*
D47*
G01*
X4754100Y6760311D03*
D48*
G01*
X4974099Y6760311D03*
D49*
G01*
X4974099Y6930313D03*
D50*
G01*
X4754100Y6930313D03*
D51*
G01*
X5511797Y7895696D03*
D52*
G01*
X5511797Y8004708D03*
D40*
G01*
X5101691Y7912102D03*
D41*
G01*
X5210703Y7912102D03*
D36*
G01*
X5410197Y8004708D03*
D37*
G01*
X5410197Y7895696D03*
D23*
G01*
X4379899Y9166148D03*
G01*
X4279900Y9166148D03*
G01*
X4179900Y9166148D03*
D24*
G01*
X4049899Y9553648D03*
G01*
X4509898Y9553648D03*
D18*
G01*
X4184904Y8292490D03*
G01*
X4279900Y8292490D03*
G01*
X4374895Y8292490D03*
G01*
X4374895Y8522309D03*
G01*
X4279900Y8522309D03*
G01*
X4184904Y8522309D03*
D53*
G01*
X5802088Y8857381D03*
D20*
G01*
X5548096Y8857386D03*
G01*
X5294096Y8857386D03*
G01*
X5040096Y8857386D03*
G01*
X4786096Y8857386D03*
G01*
X4532096Y8857386D03*
G01*
X4278096Y8857386D03*
G01*
X4024096Y8857386D03*
D53*
G01*
X5801789Y606198D03*
D20*
G01*
X5547791Y606196D03*
G01*
X5293791Y606196D03*
G01*
X5039791Y606196D03*
G01*
X4785791Y606196D03*
G01*
X4531791Y606196D03*
G01*
X4277791Y606196D03*
G01*
X4023791Y606196D03*
D54*
G01*
X4914849Y2796286D03*
D55*
G01*
X3664889Y2654325D03*
D56*
G01*
X4360849Y2796285D03*
D54*
G01*
X4637836Y2796286D03*
G01*
X5191836Y2796286D03*
D57*
G01*
X5468851Y2796298D03*
D54*
G01*
X4499356Y2512288D03*
G01*
X4776343Y2512288D03*
G01*
X5053355Y2512288D03*
G01*
X5330342Y2512288D03*
D55*
G01*
X6164884Y2654325D03*
D20*
G01*
X4318000Y1320800D03*
G01*
X4318000Y1574800D03*
D58*
G01*
X4301998Y10451998D03*
G01*
X20830997Y10451998D03*
G01*
X4801997Y-545998D03*
G01*
X20330998Y-545998D03*
M02*
