M48
METRIC,LZ,000.000
;FILE_FORMAT=3:3
;TYPE=NON_PLATED
;Layer: NPTH_Through
;EasyEDA v6.5.34, 2023-08-21 18:11:39
;86e5507150654a709470a211b8b9a7fc,5a6b42c53f6a479593ecc07194224c93,10
;Gerber Generator version 0.2
;Holesize 1 = 2.000 mm
T01C2.000
;Holesize 2 = 3.000 mm
T02C3.000
;Holesize 3 = 3.501 mm
T03C3.501
%
G05
G90
T01
X026652Y089370
X053802Y089370
X092234Y089370
X065084Y089370
X130666Y089370
X103516Y089370
X169098Y089370
X141948Y089370
X207530Y089370
X180380Y089370
X245962Y089370
X218812Y089370
X284394Y089370
X257244Y089370
X322826Y089370
X295676Y089370
X361258Y089370
X334108Y089370
X399690Y089370
X372540Y089370
X438122Y089370
X410972Y089370
X053799Y045758
X026649Y045758
X410969Y045758
X438119Y045758
X097856Y045758
X136288Y045758
X174720Y045758
X213152Y045758
X251584Y045758
X290016Y045758
X328448Y045758
X366880Y045758
X026652Y128270
X053802Y128270
X092234Y128270
X065084Y128270
X130666Y128270
X103516Y128270
X169098Y128270
X141948Y128270
X207530Y128270
X180380Y128270
X245962Y128270
X218812Y128270
X284394Y128270
X257244Y128270
X322826Y128270
X295676Y128270
X361258Y128270
X334108Y128270
X399690Y128270
X372540Y128270
X438122Y128270
X410972Y128270
X053799Y006858
X026649Y006858
X438119Y006858
X410969Y006858
X366880Y006858
X328448Y006858
X290016Y006858
X251584Y006858
X213152Y006858
X136288Y006858
X097856Y006858
X174720Y006858
T02
X032512Y077343
X032512Y054483
X063246Y059055
X077216Y059055
X088392Y060071
X094869Y060071
X101346Y059055
X115697Y059055
X129794Y059055
X136144Y060071
X142748Y060071
X154178Y059055
X178308Y059055
X192659Y059055
X203708Y060071
X210185Y060071
X216662Y059055
X231013Y059055
X245110Y059055
X251460Y060071
X257937Y060071
X269494Y059055
X283845Y059055
X307975Y059055
X319024Y060071
X325501Y060071
X331978Y059055
X346329Y059055
X360426Y059055
X366776Y060071
X373380Y060071
X384810Y059055
X399161Y059055
X416814Y054483
X416814Y077343
T03
X032512Y073279
X042164Y073279
X051689Y073279
X032512Y050419
X042164Y050419
X064770Y054737
X051689Y050419
X064770Y064008
X064770Y073279
X078105Y080137
X078740Y073279
X078740Y064008
X078740Y054737
X089916Y074295
X089916Y065151
X089916Y055753
X096393Y074295
X096393Y065151
X096393Y055753
X102870Y073279
X102870Y064008
X102870Y054737
X116586Y080137
X117221Y073279
X117221Y064008
X117221Y054737
X131318Y073279
X131318Y064008
X131318Y054737
X137668Y074295
X137668Y065151
X137668Y055753
X144272Y074295
X144272Y065151
X144272Y055753
X155067Y080137
X155702Y073279
X155702Y064008
X155702Y054737
X179832Y073279
X179832Y064008
X179832Y054737
X193499Y080137
X194134Y073279
X194134Y064008
X194134Y054737
X205212Y074295
X205212Y065151
X205212Y055753
X211689Y074295
X211689Y065151
X211689Y055753
X218166Y073279
X218166Y064008
X218166Y054737
X231931Y080137
X232566Y073279
X232566Y064008
X232566Y054737
X246614Y073279
X246614Y064008
X246614Y054737
X252964Y074295
X252964Y065151
X252964Y055753
X259568Y074295
X259568Y065151
X259568Y055753
X270363Y080137
X270998Y073279
X270998Y064008
X270998Y054737
X285340Y073279
X285340Y064008
X285340Y054737
X308795Y080137
X309430Y073279
X309430Y064008
X309430Y054737
X320508Y074295
X320508Y065151
X320508Y055753
X326985Y074295
X326985Y065151
X326985Y055753
X333462Y073279
X333462Y064008
X333462Y054737
X347227Y080137
X347862Y073279
X347862Y064008
X347862Y054737
X361910Y073279
X361910Y064008
X361910Y054737
X368260Y074295
X368260Y065151
X368260Y055753
X374864Y074295
X374864Y065151
X374864Y055753
X385659Y080137
X386294Y073279
X386294Y064008
X386294Y054737
X400636Y073279
X400636Y064008
X400636Y054737
X416832Y073279
X426484Y073279
X436009Y073279
X416832Y050419
X426484Y050419
X436009Y050419
M30
