G04 Layer: BoardOutlineLayer*
G04 EasyEDA v6.5.34, 2023-08-21 18:11:39*
G04 86e5507150654a709470a211b8b9a7fc,5a6b42c53f6a479593ecc07194224c93,10*
G04 Gerber Generator version 0.2*
G04 Scale: 100 percent, Rotated: No, Reflected: No *
G04 Dimensions in millimeters *
G04 leading zeros omitted , absolute positions ,4 integer and 5 decimal *
%FSLAX45Y45*%
%MOMM*%

%ADD10C,0.2540*%
D10*
X2120900Y12865100D02*
G01*
X2374900Y13119100D01*
X44107100Y13119100D01*
X44361100Y12865100D01*
X44361100Y292100D01*
X44107100Y38100D01*
X2374900Y38100D01*
X2120900Y279400D01*
X2120900Y12865100D01*
X2438704Y12658115D02*
G01*
X2438704Y9114815D01*
X2438704Y9114815D02*
G01*
X2832404Y9114815D01*
X2832404Y9114815D02*
G01*
X2832404Y8721115D01*
X2832404Y8721115D02*
G01*
X5220004Y8721115D01*
X5220004Y8721115D02*
G01*
X5220004Y9114815D01*
X5220004Y9114815D02*
G01*
X5613704Y9114815D01*
X5613704Y9114815D02*
G01*
X5613704Y12658115D01*
X5613704Y12658115D02*
G01*
X2438704Y12658115D01*
X6281902Y12658115D02*
G01*
X6281902Y9114815D01*
X6281902Y9114815D02*
G01*
X6675602Y9114815D01*
X6675602Y9114815D02*
G01*
X6675602Y8721115D01*
X6675602Y8721115D02*
G01*
X9063202Y8721115D01*
X9063202Y8721115D02*
G01*
X9063202Y9114815D01*
X9063202Y9114815D02*
G01*
X9456902Y9114815D01*
X9456902Y9114815D02*
G01*
X9456902Y12658115D01*
X9456902Y12658115D02*
G01*
X6281902Y12658115D01*
X10125100Y12658115D02*
G01*
X10125100Y9114815D01*
X10125100Y9114815D02*
G01*
X10518800Y9114815D01*
X10518800Y9114815D02*
G01*
X10518800Y8721115D01*
X10518800Y8721115D02*
G01*
X12906400Y8721115D01*
X12906400Y8721115D02*
G01*
X12906400Y9114815D01*
X12906400Y9114815D02*
G01*
X13300100Y9114815D01*
X13300100Y9114815D02*
G01*
X13300100Y12658115D01*
X13300100Y12658115D02*
G01*
X10125100Y12658115D01*
X13968298Y12658115D02*
G01*
X13968298Y9114815D01*
X13968298Y9114815D02*
G01*
X14361998Y9114815D01*
X14361998Y9114815D02*
G01*
X14361998Y8721115D01*
X14361998Y8721115D02*
G01*
X16749598Y8721115D01*
X16749598Y8721115D02*
G01*
X16749598Y9114815D01*
X16749598Y9114815D02*
G01*
X17143298Y9114815D01*
X17143298Y9114815D02*
G01*
X17143298Y12658115D01*
X17143298Y12658115D02*
G01*
X13968298Y12658115D01*
X17811495Y12658115D02*
G01*
X17811495Y9114815D01*
X17811495Y9114815D02*
G01*
X18205195Y9114815D01*
X18205195Y9114815D02*
G01*
X18205195Y8721115D01*
X18205195Y8721115D02*
G01*
X20592795Y8721115D01*
X20592795Y8721115D02*
G01*
X20592795Y9114815D01*
X20592795Y9114815D02*
G01*
X20986495Y9114815D01*
X20986495Y9114815D02*
G01*
X20986495Y12658115D01*
X20986495Y12658115D02*
G01*
X17811495Y12658115D01*
X21654719Y12658115D02*
G01*
X21654719Y9114815D01*
X21654719Y9114815D02*
G01*
X22048419Y9114815D01*
X22048419Y9114815D02*
G01*
X22048419Y8721115D01*
X22048419Y8721115D02*
G01*
X24436019Y8721115D01*
X24436019Y8721115D02*
G01*
X24436019Y9114815D01*
X24436019Y9114815D02*
G01*
X24829719Y9114815D01*
X24829719Y9114815D02*
G01*
X24829719Y12658115D01*
X24829719Y12658115D02*
G01*
X21654719Y12658115D01*
X25497916Y12658115D02*
G01*
X25497916Y9114815D01*
X25497916Y9114815D02*
G01*
X25891616Y9114815D01*
X25891616Y9114815D02*
G01*
X25891616Y8721115D01*
X25891616Y8721115D02*
G01*
X28279216Y8721115D01*
X28279216Y8721115D02*
G01*
X28279216Y9114815D01*
X28279216Y9114815D02*
G01*
X28672916Y9114815D01*
X28672916Y9114815D02*
G01*
X28672916Y12658115D01*
X28672916Y12658115D02*
G01*
X25497916Y12658115D01*
X29341114Y12658115D02*
G01*
X29341114Y9114815D01*
X29341114Y9114815D02*
G01*
X29734814Y9114815D01*
X29734814Y9114815D02*
G01*
X29734814Y8721115D01*
X29734814Y8721115D02*
G01*
X32122414Y8721115D01*
X32122414Y8721115D02*
G01*
X32122414Y9114815D01*
X32122414Y9114815D02*
G01*
X32516114Y9114815D01*
X32516114Y9114815D02*
G01*
X32516114Y12658115D01*
X32516114Y12658115D02*
G01*
X29341114Y12658115D01*
X33184312Y12658115D02*
G01*
X33184312Y9114815D01*
X33184312Y9114815D02*
G01*
X33578012Y9114815D01*
X33578012Y9114815D02*
G01*
X33578012Y8721115D01*
X33578012Y8721115D02*
G01*
X35965612Y8721115D01*
X35965612Y8721115D02*
G01*
X35965612Y9114815D01*
X35965612Y9114815D02*
G01*
X36359312Y9114815D01*
X36359312Y9114815D02*
G01*
X36359312Y12658115D01*
X36359312Y12658115D02*
G01*
X33184312Y12658115D01*
X37027510Y12658115D02*
G01*
X37027510Y9114815D01*
X37027510Y9114815D02*
G01*
X37421210Y9114815D01*
X37421210Y9114815D02*
G01*
X37421210Y8721115D01*
X37421210Y8721115D02*
G01*
X39808810Y8721115D01*
X39808810Y8721115D02*
G01*
X39808810Y9114815D01*
X39808810Y9114815D02*
G01*
X40202510Y9114815D01*
X40202510Y9114815D02*
G01*
X40202510Y12658115D01*
X40202510Y12658115D02*
G01*
X37027510Y12658115D01*
X40870708Y12658115D02*
G01*
X40870708Y9114815D01*
X40870708Y9114815D02*
G01*
X41264408Y9114815D01*
X41264408Y9114815D02*
G01*
X41264408Y8721115D01*
X41264408Y8721115D02*
G01*
X43652008Y8721115D01*
X43652008Y8721115D02*
G01*
X43652008Y9114815D01*
X43652008Y9114815D02*
G01*
X44045708Y9114815D01*
X44045708Y9114815D02*
G01*
X44045708Y12658115D01*
X44045708Y12658115D02*
G01*
X40870708Y12658115D01*
X2438400Y4406900D02*
G01*
X2438400Y863600D01*
X2438400Y863600D02*
G01*
X2832100Y863600D01*
X2832100Y863600D02*
G01*
X2832100Y469900D01*
X2832100Y469900D02*
G01*
X5219700Y469900D01*
X5219700Y469900D02*
G01*
X5219700Y863600D01*
X5219700Y863600D02*
G01*
X5613400Y863600D01*
X5613400Y863600D02*
G01*
X5613400Y4406900D01*
X5613400Y4406900D02*
G01*
X2438400Y4406900D01*
X40870403Y4406900D02*
G01*
X40870403Y863600D01*
X40870403Y863600D02*
G01*
X41264103Y863600D01*
X41264103Y863600D02*
G01*
X41264103Y469900D01*
X41264103Y469900D02*
G01*
X43651703Y469900D01*
X43651703Y469900D02*
G01*
X43651703Y863600D01*
X43651703Y863600D02*
G01*
X44045403Y863600D01*
X44045403Y863600D02*
G01*
X44045403Y4406900D01*
X44045403Y4406900D02*
G01*
X40870403Y4406900D01*
X41643300Y6591300D02*
G01*
X41643300Y6337300D01*
X41643300Y6337300D02*
G01*
X43218100Y6337300D01*
X43218100Y6337300D02*
G01*
X43218100Y6591300D01*
X43218100Y6591300D02*
G01*
X41643300Y6591300D01*
X6426200Y3886200D02*
G01*
X6426200Y2794000D01*
X6426200Y2794000D02*
G01*
X7518400Y2794000D01*
X7518400Y2794000D02*
G01*
X7518400Y3886200D01*
X7518400Y3886200D02*
G01*
X6426200Y3886200D01*
X6426200Y2108200D02*
G01*
X6426200Y1016000D01*
X6426200Y1016000D02*
G01*
X7518400Y1016000D01*
X7518400Y1016000D02*
G01*
X7518400Y2108200D01*
X7518400Y2108200D02*
G01*
X6426200Y2108200D01*
X8205292Y3886200D02*
G01*
X8205292Y2794000D01*
X8205292Y2794000D02*
G01*
X9297492Y2794000D01*
X9297492Y2794000D02*
G01*
X9297492Y3886200D01*
X9297492Y3886200D02*
G01*
X8205292Y3886200D01*
X8205292Y2108200D02*
G01*
X8205292Y1016000D01*
X8205292Y1016000D02*
G01*
X9297492Y1016000D01*
X9297492Y1016000D02*
G01*
X9297492Y2108200D01*
X9297492Y2108200D02*
G01*
X8205292Y2108200D01*
X10269397Y3886200D02*
G01*
X10269397Y2794000D01*
X10269397Y2794000D02*
G01*
X11361597Y2794000D01*
X11361597Y2794000D02*
G01*
X11361597Y3886200D01*
X11361597Y3886200D02*
G01*
X10269397Y3886200D01*
X10269397Y2108200D02*
G01*
X10269397Y1016000D01*
X10269397Y1016000D02*
G01*
X11361597Y1016000D01*
X11361597Y1016000D02*
G01*
X11361597Y2108200D01*
X11361597Y2108200D02*
G01*
X10269397Y2108200D01*
X12048490Y3886200D02*
G01*
X12048490Y2794000D01*
X12048490Y2794000D02*
G01*
X13140690Y2794000D01*
X13140690Y2794000D02*
G01*
X13140690Y3886200D01*
X13140690Y3886200D02*
G01*
X12048490Y3886200D01*
X12048490Y2108200D02*
G01*
X12048490Y1016000D01*
X12048490Y1016000D02*
G01*
X13140690Y1016000D01*
X13140690Y1016000D02*
G01*
X13140690Y2108200D01*
X13140690Y2108200D02*
G01*
X12048490Y2108200D01*
X14112595Y3886200D02*
G01*
X14112595Y2794000D01*
X14112595Y2794000D02*
G01*
X15204795Y2794000D01*
X15204795Y2794000D02*
G01*
X15204795Y3886200D01*
X15204795Y3886200D02*
G01*
X14112595Y3886200D01*
X14112595Y2108200D02*
G01*
X14112595Y1016000D01*
X14112595Y1016000D02*
G01*
X15204795Y1016000D01*
X15204795Y1016000D02*
G01*
X15204795Y2108200D01*
X15204795Y2108200D02*
G01*
X14112595Y2108200D01*
X15891687Y3886200D02*
G01*
X15891687Y2794000D01*
X15891687Y2794000D02*
G01*
X16983887Y2794000D01*
X16983887Y2794000D02*
G01*
X16983887Y3886200D01*
X16983887Y3886200D02*
G01*
X15891687Y3886200D01*
X15891687Y2108200D02*
G01*
X15891687Y1016000D01*
X15891687Y1016000D02*
G01*
X16983887Y1016000D01*
X16983887Y1016000D02*
G01*
X16983887Y2108200D01*
X16983887Y2108200D02*
G01*
X15891687Y2108200D01*
X17955793Y3886200D02*
G01*
X17955793Y2794000D01*
X17955793Y2794000D02*
G01*
X19047993Y2794000D01*
X19047993Y2794000D02*
G01*
X19047993Y3886200D01*
X19047993Y3886200D02*
G01*
X17955793Y3886200D01*
X17955793Y2108200D02*
G01*
X17955793Y1016000D01*
X17955793Y1016000D02*
G01*
X19047993Y1016000D01*
X19047993Y1016000D02*
G01*
X19047993Y2108200D01*
X19047993Y2108200D02*
G01*
X17955793Y2108200D01*
X19734885Y3886200D02*
G01*
X19734885Y2794000D01*
X19734885Y2794000D02*
G01*
X20827085Y2794000D01*
X20827085Y2794000D02*
G01*
X20827085Y3886200D01*
X20827085Y3886200D02*
G01*
X19734885Y3886200D01*
X19734885Y2108200D02*
G01*
X19734885Y1016000D01*
X19734885Y1016000D02*
G01*
X20827085Y1016000D01*
X20827085Y1016000D02*
G01*
X20827085Y2108200D01*
X20827085Y2108200D02*
G01*
X19734885Y2108200D01*
X21799016Y3886200D02*
G01*
X21799016Y2794000D01*
X21799016Y2794000D02*
G01*
X22891216Y2794000D01*
X22891216Y2794000D02*
G01*
X22891216Y3886200D01*
X22891216Y3886200D02*
G01*
X21799016Y3886200D01*
X21799016Y2108200D02*
G01*
X21799016Y1016000D01*
X21799016Y1016000D02*
G01*
X22891216Y1016000D01*
X22891216Y1016000D02*
G01*
X22891216Y2108200D01*
X22891216Y2108200D02*
G01*
X21799016Y2108200D01*
X23578083Y3886200D02*
G01*
X23578083Y2794000D01*
X23578083Y2794000D02*
G01*
X24670283Y2794000D01*
X24670283Y2794000D02*
G01*
X24670283Y3886200D01*
X24670283Y3886200D02*
G01*
X23578083Y3886200D01*
X23578083Y2108200D02*
G01*
X23578083Y1016000D01*
X23578083Y1016000D02*
G01*
X24670283Y1016000D01*
X24670283Y1016000D02*
G01*
X24670283Y2108200D01*
X24670283Y2108200D02*
G01*
X23578083Y2108200D01*
X25642214Y3886200D02*
G01*
X25642214Y2794000D01*
X25642214Y2794000D02*
G01*
X26734414Y2794000D01*
X26734414Y2794000D02*
G01*
X26734414Y3886200D01*
X26734414Y3886200D02*
G01*
X25642214Y3886200D01*
X25642214Y2108200D02*
G01*
X25642214Y1016000D01*
X25642214Y1016000D02*
G01*
X26734414Y1016000D01*
X26734414Y1016000D02*
G01*
X26734414Y2108200D01*
X26734414Y2108200D02*
G01*
X25642214Y2108200D01*
X27421306Y3886200D02*
G01*
X27421306Y2794000D01*
X27421306Y2794000D02*
G01*
X28513506Y2794000D01*
X28513506Y2794000D02*
G01*
X28513506Y3886200D01*
X28513506Y3886200D02*
G01*
X27421306Y3886200D01*
X27421306Y2108200D02*
G01*
X27421306Y1016000D01*
X27421306Y1016000D02*
G01*
X28513506Y1016000D01*
X28513506Y1016000D02*
G01*
X28513506Y2108200D01*
X28513506Y2108200D02*
G01*
X27421306Y2108200D01*
X29485412Y3886200D02*
G01*
X29485412Y2794000D01*
X29485412Y2794000D02*
G01*
X30577612Y2794000D01*
X30577612Y2794000D02*
G01*
X30577612Y3886200D01*
X30577612Y3886200D02*
G01*
X29485412Y3886200D01*
X29485412Y2108200D02*
G01*
X29485412Y1016000D01*
X29485412Y1016000D02*
G01*
X30577612Y1016000D01*
X30577612Y1016000D02*
G01*
X30577612Y2108200D01*
X30577612Y2108200D02*
G01*
X29485412Y2108200D01*
X31264504Y3886200D02*
G01*
X31264504Y2794000D01*
X31264504Y2794000D02*
G01*
X32356704Y2794000D01*
X32356704Y2794000D02*
G01*
X32356704Y3886200D01*
X32356704Y3886200D02*
G01*
X31264504Y3886200D01*
X31264504Y2108200D02*
G01*
X31264504Y1016000D01*
X31264504Y1016000D02*
G01*
X32356704Y1016000D01*
X32356704Y1016000D02*
G01*
X32356704Y2108200D01*
X32356704Y2108200D02*
G01*
X31264504Y2108200D01*
X33328609Y3886200D02*
G01*
X33328609Y2794000D01*
X33328609Y2794000D02*
G01*
X34420809Y2794000D01*
X34420809Y2794000D02*
G01*
X34420809Y3886200D01*
X34420809Y3886200D02*
G01*
X33328609Y3886200D01*
X33328609Y2108200D02*
G01*
X33328609Y1016000D01*
X33328609Y1016000D02*
G01*
X34420809Y1016000D01*
X34420809Y1016000D02*
G01*
X34420809Y2108200D01*
X34420809Y2108200D02*
G01*
X33328609Y2108200D01*
X35107702Y3886200D02*
G01*
X35107702Y2794000D01*
X35107702Y2794000D02*
G01*
X36199902Y2794000D01*
X36199902Y2794000D02*
G01*
X36199902Y3886200D01*
X36199902Y3886200D02*
G01*
X35107702Y3886200D01*
X35107702Y2108200D02*
G01*
X35107702Y1016000D01*
X35107702Y1016000D02*
G01*
X36199902Y1016000D01*
X36199902Y1016000D02*
G01*
X36199902Y2108200D01*
X36199902Y2108200D02*
G01*
X35107702Y2108200D01*
X37171807Y3886200D02*
G01*
X37171807Y2794000D01*
X37171807Y2794000D02*
G01*
X38264007Y2794000D01*
X38264007Y2794000D02*
G01*
X38264007Y3886200D01*
X38264007Y3886200D02*
G01*
X37171807Y3886200D01*
X37171807Y2108200D02*
G01*
X37171807Y1016000D01*
X37171807Y1016000D02*
G01*
X38264007Y1016000D01*
X38264007Y1016000D02*
G01*
X38264007Y2108200D01*
X38264007Y2108200D02*
G01*
X37171807Y2108200D01*
X38950900Y3886200D02*
G01*
X38950900Y2794000D01*
X38950900Y2794000D02*
G01*
X40043100Y2794000D01*
X40043100Y2794000D02*
G01*
X40043100Y3886200D01*
X40043100Y3886200D02*
G01*
X38950900Y3886200D01*
X38950900Y2108200D02*
G01*
X38950900Y1016000D01*
X38950900Y1016000D02*
G01*
X40043100Y1016000D01*
X40043100Y1016000D02*
G01*
X40043100Y2108200D01*
X40043100Y2108200D02*
G01*
X38950900Y2108200D01*

%LPD*%
M02*
