G04 Layer: TopSilkscreenLayer*
G04 EasyEDA v6.5.34, 2023-08-21 18:11:39*
G04 cedbefc2bb4b41dc9234c798fc5412df,5a6b42c53f6a479593ecc07194224c93,10*
G04 Gerber Generator version 0.2*
G04 Scale: 100 percent, Rotated: No, Reflected: No *
G04 Dimensions in millimeters *
G04 leading zeros omitted , absolute positions ,4 integer and 5 decimal *
%FSLAX45Y45*%
%MOMM*%

%ADD10C,0.2032*%

%LPD*%
D10*
X40005000Y409447D02*
G01*
X39994077Y420370D01*
X39977822Y425957D01*
X39955977Y425957D01*
X39939722Y420370D01*
X39928800Y409447D01*
X39928800Y398526D01*
X39934134Y387604D01*
X39939722Y382270D01*
X39950643Y376681D01*
X39983156Y366013D01*
X39994077Y360426D01*
X39999666Y355092D01*
X40005000Y344170D01*
X40005000Y327660D01*
X39994077Y316737D01*
X39977822Y311404D01*
X39955977Y311404D01*
X39939722Y316737D01*
X39928800Y327660D01*
X40041068Y425957D02*
G01*
X40041068Y344170D01*
X40046656Y327660D01*
X40057324Y316737D01*
X40073834Y311404D01*
X40084756Y311404D01*
X40101011Y316737D01*
X40111934Y327660D01*
X40117522Y344170D01*
X40117522Y425957D01*
X40153336Y425957D02*
G01*
X40153336Y311404D01*
X40153336Y425957D02*
G01*
X40202611Y425957D01*
X40218868Y420370D01*
X40224456Y415036D01*
X40229790Y404113D01*
X40229790Y393192D01*
X40224456Y382270D01*
X40218868Y376681D01*
X40202611Y371347D01*
X40153336Y371347D02*
G01*
X40202611Y371347D01*
X40218868Y366013D01*
X40224456Y360426D01*
X40229790Y349504D01*
X40229790Y333247D01*
X40224456Y322326D01*
X40218868Y316737D01*
X40202611Y311404D01*
X40153336Y311404D01*
X40342058Y409447D02*
G01*
X40331390Y420370D01*
X40314879Y425957D01*
X40293036Y425957D01*
X40276779Y420370D01*
X40265858Y409447D01*
X40265858Y398526D01*
X40271191Y387604D01*
X40276779Y382270D01*
X40287702Y376681D01*
X40320468Y366013D01*
X40331390Y360426D01*
X40336724Y355092D01*
X40342058Y344170D01*
X40342058Y327660D01*
X40331390Y316737D01*
X40314879Y311404D01*
X40293036Y311404D01*
X40276779Y316737D01*
X40265858Y327660D01*
X40416479Y425957D02*
G01*
X40416479Y311404D01*
X40378125Y425957D02*
G01*
X40454579Y425957D01*
X40534082Y425957D02*
G01*
X40490648Y311404D01*
X40534082Y425957D02*
G01*
X40577770Y311404D01*
X40506904Y349504D02*
G01*
X40561513Y349504D01*
X40651938Y425957D02*
G01*
X40651938Y311404D01*
X40613838Y425957D02*
G01*
X40690291Y425957D01*
X40726106Y425957D02*
G01*
X40726106Y311404D01*
X40794940Y425957D02*
G01*
X40784018Y420370D01*
X40773096Y409447D01*
X40767508Y398526D01*
X40762174Y382270D01*
X40762174Y355092D01*
X40767508Y338581D01*
X40773096Y327660D01*
X40784018Y316737D01*
X40794940Y311404D01*
X40816784Y311404D01*
X40827706Y316737D01*
X40838627Y327660D01*
X40843961Y338581D01*
X40849550Y355092D01*
X40849550Y382270D01*
X40843961Y398526D01*
X40838627Y409447D01*
X40827706Y420370D01*
X40816784Y425957D01*
X40794940Y425957D01*
X40885363Y425957D02*
G01*
X40885363Y311404D01*
X40885363Y425957D02*
G01*
X40961818Y311404D01*
X40961818Y425957D02*
G01*
X40961818Y311404D01*
X41092627Y425957D02*
G01*
X41152825Y425957D01*
X41120059Y382270D01*
X41136316Y382270D01*
X41147238Y376681D01*
X41152825Y371347D01*
X41158159Y355092D01*
X41158159Y344170D01*
X41152825Y327660D01*
X41141904Y316737D01*
X41125393Y311404D01*
X41109138Y311404D01*
X41092627Y316737D01*
X41087293Y322326D01*
X41081706Y333247D01*
X41194227Y425957D02*
G01*
X41194227Y344170D01*
X41199561Y327660D01*
X41210484Y316737D01*
X41226993Y311404D01*
X41237916Y311404D01*
X41254172Y316737D01*
X41265093Y327660D01*
X41270427Y344170D01*
X41270427Y425957D01*
X41434258Y425957D02*
G01*
X41390570Y311404D01*
X41434258Y425957D02*
G01*
X41477691Y311404D01*
X41406825Y349504D02*
G01*
X41461436Y349504D01*
X41513759Y425957D02*
G01*
X41513759Y311404D01*
X41513759Y425957D02*
G01*
X41590213Y311404D01*
X41590213Y425957D02*
G01*
X41590213Y311404D01*
X41626282Y425957D02*
G01*
X41626282Y311404D01*
X41626282Y425957D02*
G01*
X41702482Y311404D01*
X41702482Y425957D02*
G01*
X41702482Y311404D01*
X41738550Y425957D02*
G01*
X41738550Y344170D01*
X41743884Y327660D01*
X41754806Y316737D01*
X41771316Y311404D01*
X41782238Y311404D01*
X41798493Y316737D01*
X41809416Y327660D01*
X41815004Y344170D01*
X41815004Y425957D01*
X41850818Y425957D02*
G01*
X41850818Y311404D01*
X41850818Y425957D02*
G01*
X41927272Y311404D01*
X41927272Y425957D02*
G01*
X41927272Y311404D01*
X42045127Y398526D02*
G01*
X42039540Y409447D01*
X42028618Y420370D01*
X42017696Y425957D01*
X41996106Y425957D01*
X41985184Y420370D01*
X41974261Y409447D01*
X41968674Y398526D01*
X41963340Y382270D01*
X41963340Y355092D01*
X41968674Y338581D01*
X41974261Y327660D01*
X41985184Y316737D01*
X41996106Y311404D01*
X42017696Y311404D01*
X42028618Y316737D01*
X42039540Y327660D01*
X42045127Y338581D01*
X42081196Y425957D02*
G01*
X42081196Y311404D01*
X42160698Y425957D02*
G01*
X42117009Y311404D01*
X42160698Y425957D02*
G01*
X42204386Y311404D01*
X42133520Y349504D02*
G01*
X42187875Y349504D01*
X42278554Y425957D02*
G01*
X42278554Y311404D01*
X42240454Y425957D02*
G01*
X42316654Y425957D01*
X42385488Y425957D02*
G01*
X42374566Y420370D01*
X42363643Y409447D01*
X42358056Y398526D01*
X42352722Y382270D01*
X42352722Y355092D01*
X42358056Y338581D01*
X42363643Y327660D01*
X42374566Y316737D01*
X42385488Y311404D01*
X42407332Y311404D01*
X42418254Y316737D01*
X42429175Y327660D01*
X42434509Y338581D01*
X42440098Y355092D01*
X42440098Y382270D01*
X42434509Y398526D01*
X42429175Y409447D01*
X42418254Y420370D01*
X42407332Y425957D01*
X42385488Y425957D01*
X42475911Y425957D02*
G01*
X42475911Y311404D01*
X42475911Y425957D02*
G01*
X42525188Y425957D01*
X42541443Y420370D01*
X42546777Y415036D01*
X42552366Y404113D01*
X42552366Y393192D01*
X42546777Y382270D01*
X42541443Y376681D01*
X42525188Y371347D01*
X42475911Y371347D01*
X42514266Y371347D02*
G01*
X42552366Y311404D01*
X42748708Y409447D02*
G01*
X42737786Y420370D01*
X42721529Y425957D01*
X42699686Y425957D01*
X42683175Y420370D01*
X42672254Y409447D01*
X42672254Y398526D01*
X42677841Y387604D01*
X42683175Y382270D01*
X42694098Y376681D01*
X42726863Y366013D01*
X42737786Y360426D01*
X42743374Y355092D01*
X42748708Y344170D01*
X42748708Y327660D01*
X42737786Y316737D01*
X42721529Y311404D01*
X42699686Y311404D01*
X42683175Y316737D01*
X42672254Y327660D01*
X42784775Y425957D02*
G01*
X42784775Y311404D01*
X42784775Y425957D02*
G01*
X42833798Y425957D01*
X42850054Y420370D01*
X42855641Y415036D01*
X42860975Y404113D01*
X42860975Y387604D01*
X42855641Y376681D01*
X42850054Y371347D01*
X42833798Y366013D01*
X42784775Y366013D01*
X42940732Y425957D02*
G01*
X42897043Y311404D01*
X42940732Y425957D02*
G01*
X42984420Y311404D01*
X42913554Y349504D02*
G01*
X42967909Y349504D01*
X43102275Y398526D02*
G01*
X43096688Y409447D01*
X43085766Y420370D01*
X43074843Y425957D01*
X43053000Y425957D01*
X43042077Y420370D01*
X43031156Y409447D01*
X43025822Y398526D01*
X43020234Y382270D01*
X43020234Y355092D01*
X43025822Y338581D01*
X43031156Y327660D01*
X43042077Y316737D01*
X43053000Y311404D01*
X43074843Y311404D01*
X43085766Y316737D01*
X43096688Y327660D01*
X43102275Y338581D01*
X43138090Y425957D02*
G01*
X43138090Y311404D01*
X43138090Y425957D02*
G01*
X43208956Y425957D01*
X43138090Y371347D02*
G01*
X43181777Y371347D01*
X43138090Y311404D02*
G01*
X43208956Y311404D01*
X43245024Y425957D02*
G01*
X43245024Y311404D01*
X43245024Y425957D02*
G01*
X43294046Y425957D01*
X43310556Y420370D01*
X43315890Y415036D01*
X43321477Y404113D01*
X43321477Y393192D01*
X43315890Y382270D01*
X43310556Y376681D01*
X43294046Y371347D01*
X43245024Y371347D01*
X43283377Y371347D02*
G01*
X43321477Y311404D01*
X43441366Y360426D02*
G01*
X43539663Y360426D01*
X43697906Y425957D02*
G01*
X43697906Y311404D01*
X43659552Y425957D02*
G01*
X43736006Y425957D01*
X43804586Y425957D02*
G01*
X43793918Y420370D01*
X43782996Y409447D01*
X43777408Y398526D01*
X43772074Y382270D01*
X43772074Y355092D01*
X43777408Y338581D01*
X43782996Y327660D01*
X43793918Y316737D01*
X43804586Y311404D01*
X43826429Y311404D01*
X43837352Y316737D01*
X43848274Y327660D01*
X43853861Y338581D01*
X43859196Y355092D01*
X43859196Y382270D01*
X43853861Y398526D01*
X43848274Y409447D01*
X43837352Y420370D01*
X43826429Y425957D01*
X43804586Y425957D01*
X43895263Y425957D02*
G01*
X43895263Y311404D01*
X43895263Y425957D02*
G01*
X43944286Y425957D01*
X43960796Y420370D01*
X43966129Y415036D01*
X43971718Y404113D01*
X43971718Y387604D01*
X43966129Y376681D01*
X43960796Y371347D01*
X43944286Y366013D01*
X43895263Y366013D01*
X41274997Y222757D02*
G01*
X41274997Y108204D01*
X41274997Y222757D02*
G01*
X41324019Y222757D01*
X41340275Y217170D01*
X41345863Y211836D01*
X41351197Y200913D01*
X41351197Y184404D01*
X41345863Y173481D01*
X41340275Y168147D01*
X41324019Y162813D01*
X41274997Y162813D01*
X41430953Y222757D02*
G01*
X41387265Y108204D01*
X41430953Y222757D02*
G01*
X41474641Y108204D01*
X41403521Y146304D02*
G01*
X41458131Y146304D01*
X41510455Y222757D02*
G01*
X41510455Y108204D01*
X41510455Y222757D02*
G01*
X41559731Y222757D01*
X41575987Y217170D01*
X41581575Y211836D01*
X41586909Y200913D01*
X41586909Y189992D01*
X41581575Y179070D01*
X41575987Y173481D01*
X41559731Y168147D01*
X41510455Y168147D01*
X41548809Y168147D02*
G01*
X41586909Y108204D01*
X41661077Y222757D02*
G01*
X41661077Y108204D01*
X41622977Y222757D02*
G01*
X41699177Y222757D01*
X41819319Y222757D02*
G01*
X41819319Y108204D01*
X41819319Y222757D02*
G01*
X41895519Y108204D01*
X41895519Y222757D02*
G01*
X41895519Y108204D01*
X41931587Y222757D02*
G01*
X41931587Y140970D01*
X41937175Y124460D01*
X41948097Y113537D01*
X41964353Y108204D01*
X41975275Y108204D01*
X41991531Y113537D01*
X42002453Y124460D01*
X42008041Y140970D01*
X42008041Y222757D01*
X42044109Y222757D02*
G01*
X42044109Y108204D01*
X42044109Y222757D02*
G01*
X42087543Y108204D01*
X42131231Y222757D02*
G01*
X42087543Y108204D01*
X42131231Y222757D02*
G01*
X42131231Y108204D01*
X42167299Y222757D02*
G01*
X42167299Y108204D01*
X42167299Y222757D02*
G01*
X42216321Y222757D01*
X42232831Y217170D01*
X42238165Y211836D01*
X42243753Y200913D01*
X42243753Y189992D01*
X42238165Y179070D01*
X42232831Y173481D01*
X42216321Y168147D01*
X42167299Y168147D02*
G01*
X42216321Y168147D01*
X42232831Y162813D01*
X42238165Y157226D01*
X42243753Y146304D01*
X42243753Y130047D01*
X42238165Y119126D01*
X42232831Y113537D01*
X42216321Y108204D01*
X42167299Y108204D01*
X42279567Y222757D02*
G01*
X42279567Y108204D01*
X42279567Y222757D02*
G01*
X42350433Y222757D01*
X42279567Y168147D02*
G01*
X42323255Y168147D01*
X42279567Y108204D02*
G01*
X42350433Y108204D01*
X42386501Y222757D02*
G01*
X42386501Y108204D01*
X42386501Y222757D02*
G01*
X42435523Y222757D01*
X42452033Y217170D01*
X42457367Y211836D01*
X42462955Y200913D01*
X42462955Y189992D01*
X42457367Y179070D01*
X42452033Y173481D01*
X42435523Y168147D01*
X42386501Y168147D01*
X42424855Y168147D02*
G01*
X42462955Y108204D01*
X42582843Y200913D02*
G01*
X42593765Y206247D01*
X42610275Y222757D01*
X42610275Y108204D01*
X42673521Y222757D02*
G01*
X42657011Y217170D01*
X42651677Y206247D01*
X42651677Y195326D01*
X42657011Y184404D01*
X42667933Y179070D01*
X42689777Y173481D01*
X42706287Y168147D01*
X42717209Y157226D01*
X42722543Y146304D01*
X42722543Y130047D01*
X42717209Y119126D01*
X42711621Y113537D01*
X42695365Y108204D01*
X42673521Y108204D01*
X42657011Y113537D01*
X42651677Y119126D01*
X42646089Y130047D01*
X42646089Y146304D01*
X42651677Y157226D01*
X42662599Y168147D01*
X42678855Y173481D01*
X42700699Y179070D01*
X42711621Y184404D01*
X42717209Y195326D01*
X42717209Y206247D01*
X42711621Y217170D01*
X42695365Y222757D01*
X42673521Y222757D01*
X42834811Y222757D02*
G01*
X42780455Y108204D01*
X42758611Y222757D02*
G01*
X42834811Y222757D01*
X42903645Y222757D02*
G01*
X42887389Y217170D01*
X42876467Y200913D01*
X42870879Y173481D01*
X42870879Y157226D01*
X42876467Y130047D01*
X42887389Y113537D01*
X42903645Y108204D01*
X42914567Y108204D01*
X42930823Y113537D01*
X42941745Y130047D01*
X42947333Y157226D01*
X42947333Y173481D01*
X42941745Y200913D01*
X42930823Y217170D01*
X42914567Y222757D01*
X42903645Y222757D01*
X42983401Y157226D02*
G01*
X43081445Y157226D01*
X43150279Y222757D02*
G01*
X43133769Y217170D01*
X43122847Y200913D01*
X43117513Y173481D01*
X43117513Y157226D01*
X43122847Y130047D01*
X43133769Y113537D01*
X43150279Y108204D01*
X43161201Y108204D01*
X43177457Y113537D01*
X43188379Y130047D01*
X43193713Y157226D01*
X43193713Y173481D01*
X43188379Y200913D01*
X43177457Y217170D01*
X43161201Y222757D01*
X43150279Y222757D01*
X43235369Y195326D02*
G01*
X43235369Y200913D01*
X43240703Y211836D01*
X43246291Y217170D01*
X43257213Y222757D01*
X43278803Y222757D01*
X43289725Y217170D01*
X43295313Y211836D01*
X43300647Y200913D01*
X43300647Y189992D01*
X43295313Y179070D01*
X43284391Y162813D01*
X43229781Y108204D01*
X43306235Y108204D01*
X43374815Y222757D02*
G01*
X43358559Y217170D01*
X43347637Y200913D01*
X43342303Y173481D01*
X43342303Y157226D01*
X43347637Y130047D01*
X43358559Y113537D01*
X43374815Y108204D01*
X43385737Y108204D01*
X43402247Y113537D01*
X43413169Y130047D01*
X43418503Y157226D01*
X43418503Y173481D01*
X43413169Y200913D01*
X43402247Y217170D01*
X43385737Y222757D01*
X43374815Y222757D01*
X43459905Y195326D02*
G01*
X43459905Y200913D01*
X43465493Y211836D01*
X43470827Y217170D01*
X43481749Y222757D01*
X43503593Y222757D01*
X43514515Y217170D01*
X43520103Y211836D01*
X43525437Y200913D01*
X43525437Y189992D01*
X43520103Y179070D01*
X43509181Y162813D01*
X43454571Y108204D01*
X43531025Y108204D01*
X43650913Y222757D02*
G01*
X43694601Y108204D01*
X43738289Y222757D02*
G01*
X43694601Y108204D01*
X43806869Y222757D02*
G01*
X43790613Y217170D01*
X43779691Y200913D01*
X43774103Y173481D01*
X43774103Y157226D01*
X43779691Y130047D01*
X43790613Y113537D01*
X43806869Y108204D01*
X43817791Y108204D01*
X43834301Y113537D01*
X43844969Y130047D01*
X43850557Y157226D01*
X43850557Y173481D01*
X43844969Y200913D01*
X43834301Y217170D01*
X43817791Y222757D01*
X43806869Y222757D01*
X43891959Y135381D02*
G01*
X43886625Y130047D01*
X43891959Y124460D01*
X43897547Y130047D01*
X43891959Y135381D01*
X43933361Y200913D02*
G01*
X43944283Y206247D01*
X43960793Y222757D01*
X43960793Y108204D01*
M02*
