G04 Layer: BottomLayer*
G04 EasyEDA v6.5.34, 2023-08-21 18:11:39*
G04 cedbefc2bb4b41dc9234c798fc5412df,5a6b42c53f6a479593ecc07194224c93,10*
G04 Gerber Generator version 0.2*
G04 Scale: 100 percent, Rotated: No, Reflected: No *
G04 Dimensions in millimeters *
G04 leading zeros omitted , absolute positions ,4 integer and 5 decimal *
%FSLAX45Y45*%
%MOMM*%

%ADD10C,3.0000*%

%LPD*%
G36*
X2068068Y25908D02*
G01*
X2064156Y26670D01*
X2060854Y28905D01*
X2058670Y32156D01*
X2057907Y36068D01*
X2057907Y13260832D01*
X2058670Y13264743D01*
X2060905Y13267994D01*
X2064156Y13270230D01*
X2068068Y13270992D01*
X46191932Y13270992D01*
X46195843Y13270230D01*
X46199094Y13267994D01*
X46201330Y13264743D01*
X46202092Y13260832D01*
X46201990Y36068D01*
X46201228Y32156D01*
X46199044Y28905D01*
X46195742Y26670D01*
X46191830Y25908D01*
G37*

%LPC*%
G36*
X4039158Y482092D02*
G01*
X44220739Y482092D01*
X44227038Y482803D01*
X44232525Y484733D01*
X44237402Y487781D01*
X44241516Y491896D01*
X44244615Y496773D01*
X44246495Y502259D01*
X44247206Y508558D01*
X44247206Y12699390D01*
X44246495Y12705740D01*
X44244615Y12711176D01*
X44241516Y12716103D01*
X44237402Y12720167D01*
X44232525Y12723266D01*
X44227038Y12725146D01*
X44220739Y12725857D01*
X4039158Y12725857D01*
X4032859Y12725146D01*
X4027373Y12723266D01*
X4022496Y12720167D01*
X4018381Y12716103D01*
X4015282Y12711176D01*
X4013403Y12705740D01*
X4012692Y12699390D01*
X4012692Y508558D01*
X4013403Y502259D01*
X4015282Y496773D01*
X4018381Y491896D01*
X4022496Y487781D01*
X4027373Y484733D01*
X4032859Y482803D01*
G37*
G36*
X45314057Y5498592D02*
G01*
X45617739Y5498592D01*
X45624038Y5499303D01*
X45629525Y5501182D01*
X45634402Y5504281D01*
X45638516Y5508396D01*
X45641615Y5513273D01*
X45643495Y5518759D01*
X45644206Y5525058D01*
X45644206Y7682941D01*
X45643495Y7689240D01*
X45641615Y7694726D01*
X45638516Y7699603D01*
X45634402Y7703718D01*
X45629525Y7706766D01*
X45624038Y7708696D01*
X45617739Y7709408D01*
X45314057Y7709408D01*
X45307758Y7708696D01*
X45302271Y7706766D01*
X45297394Y7703718D01*
X45293280Y7699603D01*
X45290232Y7694726D01*
X45288301Y7689240D01*
X45287590Y7682941D01*
X45287590Y5525058D01*
X45288301Y5518759D01*
X45290232Y5513273D01*
X45293280Y5508396D01*
X45297394Y5504281D01*
X45302271Y5501182D01*
X45307758Y5499303D01*
G37*

%LPD*%
D10*
G01*
X2794000Y279400D03*
G01*
X2794000Y13004774D03*
G01*
X45466000Y279400D03*
G01*
X45466000Y13004774D03*
G01*
X24129949Y13004774D03*
G01*
X24129949Y279400D03*
G01*
X45465898Y8191500D03*
G01*
X45465898Y5016500D03*
G01*
X2793898Y5016500D03*
G01*
X2793898Y8191500D03*
M02*
