G04 Layer: BottomSilkscreenLayer*
G04 EasyEDA v6.5.34, 2023-08-21 18:11:39*
G04 81c3e6301e7a49a49ac37a2379715e3f,5a6b42c53f6a479593ecc07194224c93,10*
G04 Gerber Generator version 0.2*
G04 Scale: 100 percent, Rotated: No, Reflected: No *
G04 Dimensions in millimeters *
G04 leading zeros omitted , absolute positions ,4 integer and 5 decimal *
%FSLAX45Y45*%
%MOMM*%

%ADD10C,0.2032*%
%ADD11C,0.1520*%

%LPD*%
D10*
X43967311Y451289D02*
G01*
X43967311Y336745D01*
X43967311Y451289D02*
G01*
X43918220Y451289D01*
X43901857Y445836D01*
X43896401Y440382D01*
X43890948Y429473D01*
X43890948Y413108D01*
X43896401Y402198D01*
X43901857Y396745D01*
X43918220Y391289D01*
X43967311Y391289D01*
X43811311Y451289D02*
G01*
X43854946Y336745D01*
X43811311Y451289D02*
G01*
X43767674Y336745D01*
X43838583Y374926D02*
G01*
X43784039Y374926D01*
X43731675Y451289D02*
G01*
X43731675Y336745D01*
X43731675Y451289D02*
G01*
X43682584Y451289D01*
X43666222Y445836D01*
X43660766Y440382D01*
X43655312Y429473D01*
X43655312Y418564D01*
X43660766Y407654D01*
X43666222Y402198D01*
X43682584Y396745D01*
X43731675Y396745D01*
X43693494Y396745D02*
G01*
X43655312Y336745D01*
X43581129Y451289D02*
G01*
X43581129Y336745D01*
X43619310Y451289D02*
G01*
X43542948Y451289D01*
X43422948Y451289D02*
G01*
X43422948Y336745D01*
X43422948Y451289D02*
G01*
X43346585Y336745D01*
X43346585Y451289D02*
G01*
X43346585Y336745D01*
X43310583Y451289D02*
G01*
X43310583Y369473D01*
X43305130Y353108D01*
X43294221Y342198D01*
X43277858Y336745D01*
X43266949Y336745D01*
X43250584Y342198D01*
X43239677Y353108D01*
X43234221Y369473D01*
X43234221Y451289D01*
X43198221Y451289D02*
G01*
X43198221Y336745D01*
X43198221Y451289D02*
G01*
X43154584Y336745D01*
X43110950Y451289D02*
G01*
X43154584Y336745D01*
X43110950Y451289D02*
G01*
X43110950Y336745D01*
X43074948Y451289D02*
G01*
X43074948Y336745D01*
X43074948Y451289D02*
G01*
X43025857Y451289D01*
X43009494Y445836D01*
X43004041Y440382D01*
X42998585Y429473D01*
X42998585Y418564D01*
X43004041Y407654D01*
X43009494Y402198D01*
X43025857Y396745D01*
X43074948Y396745D02*
G01*
X43025857Y396745D01*
X43009494Y391289D01*
X43004041Y385836D01*
X42998585Y374926D01*
X42998585Y358564D01*
X43004041Y347654D01*
X43009494Y342198D01*
X43025857Y336745D01*
X43074948Y336745D01*
X42962586Y451289D02*
G01*
X42962586Y336745D01*
X42962586Y451289D02*
G01*
X42891676Y451289D01*
X42962586Y396745D02*
G01*
X42918948Y396745D01*
X42962586Y336745D02*
G01*
X42891676Y336745D01*
X42855677Y451289D02*
G01*
X42855677Y336745D01*
X42855677Y451289D02*
G01*
X42806586Y451289D01*
X42790221Y445836D01*
X42784768Y440382D01*
X42779312Y429473D01*
X42779312Y418564D01*
X42784768Y407654D01*
X42790221Y402198D01*
X42806586Y396745D01*
X42855677Y396745D01*
X42817496Y396745D02*
G01*
X42779312Y336745D01*
X42659312Y429473D02*
G01*
X42648403Y434926D01*
X42632040Y451289D01*
X42632040Y336745D01*
X42568769Y451289D02*
G01*
X42585132Y445836D01*
X42590585Y434926D01*
X42590585Y424017D01*
X42585132Y413108D01*
X42574222Y407654D01*
X42552404Y402198D01*
X42536041Y396745D01*
X42525132Y385836D01*
X42519678Y374926D01*
X42519678Y358564D01*
X42525132Y347654D01*
X42530585Y342198D01*
X42546950Y336745D01*
X42568769Y336745D01*
X42585132Y342198D01*
X42590585Y347654D01*
X42596041Y358564D01*
X42596041Y374926D01*
X42590585Y385836D01*
X42579678Y396745D01*
X42563313Y402198D01*
X42541494Y407654D01*
X42530585Y413108D01*
X42525132Y424017D01*
X42525132Y434926D01*
X42530585Y445836D01*
X42546950Y451289D01*
X42568769Y451289D01*
X42407314Y451289D02*
G01*
X42461860Y336745D01*
X42483676Y451289D02*
G01*
X42407314Y451289D01*
X42338586Y451289D02*
G01*
X42354949Y445836D01*
X42365858Y429473D01*
X42371314Y402198D01*
X42371314Y385836D01*
X42365858Y358564D01*
X42354949Y342198D01*
X42338586Y336745D01*
X42327677Y336745D01*
X42311314Y342198D01*
X42300405Y358564D01*
X42294949Y385836D01*
X42294949Y402198D01*
X42300405Y429473D01*
X42311314Y445836D01*
X42327677Y451289D01*
X42338586Y451289D01*
X42258950Y385836D02*
G01*
X42160769Y385836D01*
X42092041Y451289D02*
G01*
X42108404Y445836D01*
X42119313Y429473D01*
X42124769Y402198D01*
X42124769Y385836D01*
X42119313Y358564D01*
X42108404Y342198D01*
X42092041Y336745D01*
X42081132Y336745D01*
X42064769Y342198D01*
X42053860Y358564D01*
X42048404Y385836D01*
X42048404Y402198D01*
X42053860Y429473D01*
X42064769Y445836D01*
X42081132Y451289D01*
X42092041Y451289D01*
X42006951Y424017D02*
G01*
X42006951Y429473D01*
X42001495Y440382D01*
X41996042Y445836D01*
X41985133Y451289D01*
X41963314Y451289D01*
X41952405Y445836D01*
X41946951Y440382D01*
X41941496Y429473D01*
X41941496Y418564D01*
X41946951Y407654D01*
X41957861Y391289D01*
X42012405Y336745D01*
X41936042Y336745D01*
X41867315Y451289D02*
G01*
X41883677Y445836D01*
X41894587Y429473D01*
X41900043Y402198D01*
X41900043Y385836D01*
X41894587Y358564D01*
X41883677Y342198D01*
X41867315Y336745D01*
X41856406Y336745D01*
X41840043Y342198D01*
X41829134Y358564D01*
X41823678Y385836D01*
X41823678Y402198D01*
X41829134Y429473D01*
X41840043Y445836D01*
X41856406Y451289D01*
X41867315Y451289D01*
X41787678Y429473D02*
G01*
X41776769Y434926D01*
X41760406Y451289D01*
X41760406Y336745D01*
X41640406Y451289D02*
G01*
X41596769Y336745D01*
X41553135Y451289D02*
G01*
X41596769Y336745D01*
X41484407Y451289D02*
G01*
X41500770Y445836D01*
X41511679Y429473D01*
X41517133Y402198D01*
X41517133Y385836D01*
X41511679Y358564D01*
X41500770Y342198D01*
X41484407Y336745D01*
X41473498Y336745D01*
X41457133Y342198D01*
X41446226Y358564D01*
X41440770Y385836D01*
X41440770Y402198D01*
X41446226Y429473D01*
X41457133Y445836D01*
X41473498Y451289D01*
X41484407Y451289D01*
X41399315Y364017D02*
G01*
X41404771Y358564D01*
X41399315Y353108D01*
X41393861Y358564D01*
X41399315Y364017D01*
X41357862Y429473D02*
G01*
X41346953Y434926D01*
X41330587Y451289D01*
X41330587Y336745D01*
X43890948Y663526D02*
G01*
X43901857Y674436D01*
X43918220Y679889D01*
X43940039Y679889D01*
X43956401Y674436D01*
X43967311Y663526D01*
X43967311Y652617D01*
X43961857Y641708D01*
X43956401Y636254D01*
X43945492Y630799D01*
X43912764Y619889D01*
X43901857Y614436D01*
X43896401Y608982D01*
X43890948Y598073D01*
X43890948Y581708D01*
X43901857Y570799D01*
X43918220Y565345D01*
X43940039Y565345D01*
X43956401Y570799D01*
X43967311Y581708D01*
X43854946Y679889D02*
G01*
X43854946Y598073D01*
X43849493Y581708D01*
X43838583Y570799D01*
X43822221Y565345D01*
X43811311Y565345D01*
X43794946Y570799D01*
X43784039Y581708D01*
X43778584Y598073D01*
X43778584Y679889D01*
X43742584Y679889D02*
G01*
X43742584Y565345D01*
X43742584Y679889D02*
G01*
X43693494Y679889D01*
X43677128Y674436D01*
X43671675Y668982D01*
X43666222Y658073D01*
X43666222Y647164D01*
X43671675Y636254D01*
X43677128Y630799D01*
X43693494Y625345D01*
X43742584Y625345D02*
G01*
X43693494Y625345D01*
X43677128Y619889D01*
X43671675Y614436D01*
X43666222Y603526D01*
X43666222Y587164D01*
X43671675Y576254D01*
X43677128Y570799D01*
X43693494Y565345D01*
X43742584Y565345D01*
X43553857Y663526D02*
G01*
X43564766Y674436D01*
X43581129Y679889D01*
X43602948Y679889D01*
X43619310Y674436D01*
X43630220Y663526D01*
X43630220Y652617D01*
X43624766Y641708D01*
X43619310Y636254D01*
X43608401Y630799D01*
X43575676Y619889D01*
X43564766Y614436D01*
X43559310Y608982D01*
X43553857Y598073D01*
X43553857Y581708D01*
X43564766Y570799D01*
X43581129Y565345D01*
X43602948Y565345D01*
X43619310Y570799D01*
X43630220Y581708D01*
X43479676Y679889D02*
G01*
X43479676Y565345D01*
X43517858Y679889D02*
G01*
X43441493Y679889D01*
X43361858Y679889D02*
G01*
X43405493Y565345D01*
X43361858Y679889D02*
G01*
X43318221Y565345D01*
X43389130Y603526D02*
G01*
X43334584Y603526D01*
X43244041Y679889D02*
G01*
X43244041Y565345D01*
X43282222Y679889D02*
G01*
X43205857Y679889D01*
X43169857Y679889D02*
G01*
X43169857Y565345D01*
X43101130Y679889D02*
G01*
X43112039Y674436D01*
X43122949Y663526D01*
X43128402Y652617D01*
X43133858Y636254D01*
X43133858Y608982D01*
X43128402Y592617D01*
X43122949Y581708D01*
X43112039Y570799D01*
X43101130Y565345D01*
X43079311Y565345D01*
X43068402Y570799D01*
X43057495Y581708D01*
X43052039Y592617D01*
X43046586Y608982D01*
X43046586Y636254D01*
X43052039Y652617D01*
X43057495Y663526D01*
X43068402Y674436D01*
X43079311Y679889D01*
X43101130Y679889D01*
X43010584Y679889D02*
G01*
X43010584Y565345D01*
X43010584Y679889D02*
G01*
X42934221Y565345D01*
X42934221Y679889D02*
G01*
X42934221Y565345D01*
X42803312Y679889D02*
G01*
X42743313Y679889D01*
X42776040Y636254D01*
X42759678Y636254D01*
X42748768Y630799D01*
X42743313Y625345D01*
X42737859Y608982D01*
X42737859Y598073D01*
X42743313Y581708D01*
X42754222Y570799D01*
X42770585Y565345D01*
X42786950Y565345D01*
X42803312Y570799D01*
X42808768Y576254D01*
X42814222Y587164D01*
X42701860Y679889D02*
G01*
X42701860Y598073D01*
X42696404Y581708D01*
X42685495Y570799D01*
X42669132Y565345D01*
X42658223Y565345D01*
X42641860Y570799D01*
X42630951Y581708D01*
X42625495Y598073D01*
X42625495Y679889D01*
X42461860Y679889D02*
G01*
X42505495Y565345D01*
X42461860Y679889D02*
G01*
X42418223Y565345D01*
X42489132Y603526D02*
G01*
X42434586Y603526D01*
X42382224Y679889D02*
G01*
X42382224Y565345D01*
X42382224Y679889D02*
G01*
X42305859Y565345D01*
X42305859Y679889D02*
G01*
X42305859Y565345D01*
X42269859Y679889D02*
G01*
X42269859Y565345D01*
X42269859Y679889D02*
G01*
X42193497Y565345D01*
X42193497Y679889D02*
G01*
X42193497Y565345D01*
X42157497Y679889D02*
G01*
X42157497Y598073D01*
X42152041Y581708D01*
X42141132Y570799D01*
X42124769Y565345D01*
X42113860Y565345D01*
X42097497Y570799D01*
X42086588Y581708D01*
X42081132Y598073D01*
X42081132Y679889D01*
X42045133Y679889D02*
G01*
X42045133Y565345D01*
X42045133Y679889D02*
G01*
X41968770Y565345D01*
X41968770Y679889D02*
G01*
X41968770Y565345D01*
X41850952Y652617D02*
G01*
X41856406Y663526D01*
X41867315Y674436D01*
X41878224Y679889D01*
X41900043Y679889D01*
X41910952Y674436D01*
X41921861Y663526D01*
X41927315Y652617D01*
X41932768Y636254D01*
X41932768Y608982D01*
X41927315Y592617D01*
X41921861Y581708D01*
X41910952Y570799D01*
X41900043Y565345D01*
X41878224Y565345D01*
X41867315Y570799D01*
X41856406Y581708D01*
X41850952Y592617D01*
X41814950Y679889D02*
G01*
X41814950Y565345D01*
X41735316Y679889D02*
G01*
X41778951Y565345D01*
X41735316Y679889D02*
G01*
X41691679Y565345D01*
X41762588Y603526D02*
G01*
X41708042Y603526D01*
X41617498Y679889D02*
G01*
X41617498Y565345D01*
X41655679Y679889D02*
G01*
X41579314Y679889D01*
X41510587Y679889D02*
G01*
X41521496Y674436D01*
X41532406Y663526D01*
X41537862Y652617D01*
X41543315Y636254D01*
X41543315Y608982D01*
X41537862Y592617D01*
X41532406Y581708D01*
X41521496Y570799D01*
X41510587Y565345D01*
X41488771Y565345D01*
X41477862Y570799D01*
X41466952Y581708D01*
X41461496Y592617D01*
X41456043Y608982D01*
X41456043Y636254D01*
X41461496Y652617D01*
X41466952Y663526D01*
X41477862Y674436D01*
X41488771Y679889D01*
X41510587Y679889D01*
X41420044Y679889D02*
G01*
X41420044Y565345D01*
X41420044Y679889D02*
G01*
X41370953Y679889D01*
X41354588Y674436D01*
X41349134Y668982D01*
X41343679Y658073D01*
X41343679Y647164D01*
X41349134Y636254D01*
X41354588Y630799D01*
X41370953Y625345D01*
X41420044Y625345D01*
X41381862Y625345D02*
G01*
X41343679Y565345D01*
X41147316Y663526D02*
G01*
X41158226Y674436D01*
X41174588Y679889D01*
X41196407Y679889D01*
X41212770Y674436D01*
X41223679Y663526D01*
X41223679Y652617D01*
X41218225Y641708D01*
X41212770Y636254D01*
X41201863Y630799D01*
X41169135Y619889D01*
X41158226Y614436D01*
X41152770Y608982D01*
X41147316Y598073D01*
X41147316Y581708D01*
X41158226Y570799D01*
X41174588Y565345D01*
X41196407Y565345D01*
X41212770Y570799D01*
X41223679Y581708D01*
X41111317Y679889D02*
G01*
X41111317Y565345D01*
X41111317Y679889D02*
G01*
X41062226Y679889D01*
X41045861Y674436D01*
X41040408Y668982D01*
X41034952Y658073D01*
X41034952Y641708D01*
X41040408Y630799D01*
X41045861Y625345D01*
X41062226Y619889D01*
X41111317Y619889D01*
X40955318Y679889D02*
G01*
X40998952Y565345D01*
X40955318Y679889D02*
G01*
X40911680Y565345D01*
X40982590Y603526D02*
G01*
X40928043Y603526D01*
X40793863Y652617D02*
G01*
X40799316Y663526D01*
X40810225Y674436D01*
X40821135Y679889D01*
X40842953Y679889D01*
X40853862Y674436D01*
X40864772Y663526D01*
X40870225Y652617D01*
X40875681Y636254D01*
X40875681Y608982D01*
X40870225Y592617D01*
X40864772Y581708D01*
X40853862Y570799D01*
X40842953Y565345D01*
X40821135Y565345D01*
X40810225Y570799D01*
X40799316Y581708D01*
X40793863Y592617D01*
X40757863Y679889D02*
G01*
X40757863Y565345D01*
X40757863Y679889D02*
G01*
X40686954Y679889D01*
X40757863Y625345D02*
G01*
X40714226Y625345D01*
X40757863Y565345D02*
G01*
X40686954Y565345D01*
X40650955Y679889D02*
G01*
X40650955Y565345D01*
X40650955Y679889D02*
G01*
X40601864Y679889D01*
X40585499Y674436D01*
X40580045Y668982D01*
X40574589Y658073D01*
X40574589Y647164D01*
X40580045Y636254D01*
X40585499Y630799D01*
X40601864Y625345D01*
X40650955Y625345D01*
X40612771Y625345D02*
G01*
X40574589Y565345D01*
X40454590Y614436D02*
G01*
X40356409Y614436D01*
X40236409Y679889D02*
G01*
X40236409Y565345D01*
X40236409Y679889D02*
G01*
X40187318Y679889D01*
X40170955Y674436D01*
X40165500Y668982D01*
X40160046Y658073D01*
X40160046Y647164D01*
X40165500Y636254D01*
X40170955Y630799D01*
X40187318Y625345D01*
X40236409Y625345D02*
G01*
X40187318Y625345D01*
X40170955Y619889D01*
X40165500Y614436D01*
X40160046Y603526D01*
X40160046Y587164D01*
X40165500Y576254D01*
X40170955Y570799D01*
X40187318Y565345D01*
X40236409Y565345D01*
X40091319Y679889D02*
G01*
X40102228Y674436D01*
X40113137Y663526D01*
X40118591Y652617D01*
X40124047Y636254D01*
X40124047Y608982D01*
X40118591Y592617D01*
X40113137Y581708D01*
X40102228Y570799D01*
X40091319Y565345D01*
X40069500Y565345D01*
X40058591Y570799D01*
X40047682Y581708D01*
X40042228Y592617D01*
X40036772Y608982D01*
X40036772Y636254D01*
X40042228Y652617D01*
X40047682Y663526D01*
X40058591Y674436D01*
X40069500Y679889D01*
X40091319Y679889D01*
X39962592Y679889D02*
G01*
X39962592Y565345D01*
X40000773Y679889D02*
G01*
X39924410Y679889D01*
X39850227Y679889D02*
G01*
X39850227Y565345D01*
X39888408Y679889D02*
G01*
X39812046Y679889D01*
X39743319Y679889D02*
G01*
X39754228Y674436D01*
X39765137Y663526D01*
X39770591Y652617D01*
X39776046Y636254D01*
X39776046Y608982D01*
X39770591Y592617D01*
X39765137Y581708D01*
X39754228Y570799D01*
X39743319Y565345D01*
X39721500Y565345D01*
X39710591Y570799D01*
X39699684Y581708D01*
X39694228Y592617D01*
X39688775Y608982D01*
X39688775Y636254D01*
X39694228Y652617D01*
X39699684Y663526D01*
X39710591Y674436D01*
X39721500Y679889D01*
X39743319Y679889D01*
X39652773Y679889D02*
G01*
X39652773Y565345D01*
X39652773Y679889D02*
G01*
X39609138Y565345D01*
X39565501Y679889D02*
G01*
X39609138Y565345D01*
X39565501Y679889D02*
G01*
X39565501Y565345D01*
D11*
X38779350Y699546D02*
G01*
X38779350Y616419D01*
X38784547Y600831D01*
X38789742Y595637D01*
X38800133Y590443D01*
X38810524Y590443D01*
X38820915Y595637D01*
X38826112Y600831D01*
X38831306Y616419D01*
X38831306Y626811D01*
X38745060Y699546D02*
G01*
X38745060Y590443D01*
X38745060Y590443D02*
G01*
X38682716Y590443D01*
X38570494Y673569D02*
G01*
X38575691Y683961D01*
X38586082Y694352D01*
X38596470Y699546D01*
X38617253Y699546D01*
X38627644Y694352D01*
X38638035Y683961D01*
X38643232Y673569D01*
X38648426Y657981D01*
X38648426Y632005D01*
X38643232Y616419D01*
X38638035Y606028D01*
X38627644Y595637D01*
X38617253Y590443D01*
X38596470Y590443D01*
X38586082Y595637D01*
X38575691Y606028D01*
X38570494Y616419D01*
X38484251Y699546D02*
G01*
X38484251Y616419D01*
X38489445Y600831D01*
X38494642Y595637D01*
X38505030Y590443D01*
X38515422Y590443D01*
X38525813Y595637D01*
X38531010Y600831D01*
X38536204Y616419D01*
X38536204Y626811D01*
X38449961Y699546D02*
G01*
X38449961Y590443D01*
X38449961Y590443D02*
G01*
X38387614Y590443D01*
X38275392Y673569D02*
G01*
X38280588Y683961D01*
X38290980Y694352D01*
X38301371Y699546D01*
X38322150Y699546D01*
X38332542Y694352D01*
X38342933Y683961D01*
X38348130Y673569D01*
X38353324Y657981D01*
X38353324Y632005D01*
X38348130Y616419D01*
X38342933Y606028D01*
X38332542Y595637D01*
X38322150Y590443D01*
X38301371Y590443D01*
X38290980Y595637D01*
X38280588Y606028D01*
X38275392Y616419D01*
X38189148Y699546D02*
G01*
X38189148Y616419D01*
X38194343Y600831D01*
X38199540Y595637D01*
X38209931Y590443D01*
X38220322Y590443D01*
X38230710Y595637D01*
X38235907Y600831D01*
X38241102Y616419D01*
X38241102Y626811D01*
X38154858Y699546D02*
G01*
X38154858Y590443D01*
X38154858Y590443D02*
G01*
X38092512Y590443D01*
X37980292Y673569D02*
G01*
X37985486Y683961D01*
X37995877Y694352D01*
X38006268Y699546D01*
X38027051Y699546D01*
X38037442Y694352D01*
X38047830Y683961D01*
X38053027Y673569D01*
X38058222Y657981D01*
X38058222Y632005D01*
X38053027Y616419D01*
X38047830Y606028D01*
X38037442Y595637D01*
X38027051Y590443D01*
X38006268Y590443D01*
X37995877Y595637D01*
X37985486Y606028D01*
X37980292Y616419D01*
X37894046Y699546D02*
G01*
X37894046Y616419D01*
X37899240Y600831D01*
X37904437Y595637D01*
X37914828Y590443D01*
X37925220Y590443D01*
X37935611Y595637D01*
X37940805Y600831D01*
X37946002Y616419D01*
X37946002Y626811D01*
X37859756Y699546D02*
G01*
X37859756Y590443D01*
X37859756Y590443D02*
G01*
X37797412Y590443D01*
X37685190Y673569D02*
G01*
X37690384Y683961D01*
X37700775Y694352D01*
X37711166Y699546D01*
X37731948Y699546D01*
X37742340Y694352D01*
X37752731Y683961D01*
X37757925Y673569D01*
X37763122Y657981D01*
X37763122Y632005D01*
X37757925Y616419D01*
X37752731Y606028D01*
X37742340Y595637D01*
X37731948Y590443D01*
X37711166Y590443D01*
X37700775Y595637D01*
X37690384Y606028D01*
X37685190Y616419D01*
M02*
