G04 Layer: TopSilkscreenLayer*
G04 EasyEDA v6.5.34, 2023-08-21 18:11:39*
G04 81c3e6301e7a49a49ac37a2379715e3f,5a6b42c53f6a479593ecc07194224c93,10*
G04 Gerber Generator version 0.2*
G04 Scale: 100 percent, Rotated: No, Reflected: No *
G04 Dimensions in millimeters *
G04 leading zeros omitted , absolute positions ,4 integer and 5 decimal *
%FSLAX45Y45*%
%MOMM*%

%ADD10C,0.2032*%

%LPD*%
D10*
X40005002Y663447D02*
G01*
X39994080Y674370D01*
X39977824Y679957D01*
X39955980Y679957D01*
X39939724Y674370D01*
X39928802Y663447D01*
X39928802Y652526D01*
X39934136Y641604D01*
X39939724Y636270D01*
X39950646Y630681D01*
X39983158Y620013D01*
X39994080Y614426D01*
X39999668Y609092D01*
X40005002Y598170D01*
X40005002Y581660D01*
X39994080Y570737D01*
X39977824Y565404D01*
X39955980Y565404D01*
X39939724Y570737D01*
X39928802Y581660D01*
X40041070Y679957D02*
G01*
X40041070Y598170D01*
X40046658Y581660D01*
X40057326Y570737D01*
X40073836Y565404D01*
X40084758Y565404D01*
X40101014Y570737D01*
X40111936Y581660D01*
X40117524Y598170D01*
X40117524Y679957D01*
X40153338Y679957D02*
G01*
X40153338Y565404D01*
X40153338Y679957D02*
G01*
X40202614Y679957D01*
X40218870Y674370D01*
X40224458Y669036D01*
X40229792Y658113D01*
X40229792Y647192D01*
X40224458Y636270D01*
X40218870Y630681D01*
X40202614Y625347D01*
X40153338Y625347D02*
G01*
X40202614Y625347D01*
X40218870Y620013D01*
X40224458Y614426D01*
X40229792Y603504D01*
X40229792Y587247D01*
X40224458Y576326D01*
X40218870Y570737D01*
X40202614Y565404D01*
X40153338Y565404D01*
X40342060Y663447D02*
G01*
X40331392Y674370D01*
X40314882Y679957D01*
X40293038Y679957D01*
X40276782Y674370D01*
X40265860Y663447D01*
X40265860Y652526D01*
X40271194Y641604D01*
X40276782Y636270D01*
X40287704Y630681D01*
X40320470Y620013D01*
X40331392Y614426D01*
X40336726Y609092D01*
X40342060Y598170D01*
X40342060Y581660D01*
X40331392Y570737D01*
X40314882Y565404D01*
X40293038Y565404D01*
X40276782Y570737D01*
X40265860Y581660D01*
X40416482Y679957D02*
G01*
X40416482Y565404D01*
X40378128Y679957D02*
G01*
X40454582Y679957D01*
X40534084Y679957D02*
G01*
X40490650Y565404D01*
X40534084Y679957D02*
G01*
X40577772Y565404D01*
X40506906Y603504D02*
G01*
X40561516Y603504D01*
X40651940Y679957D02*
G01*
X40651940Y565404D01*
X40613840Y679957D02*
G01*
X40690294Y679957D01*
X40726108Y679957D02*
G01*
X40726108Y565404D01*
X40794942Y679957D02*
G01*
X40784020Y674370D01*
X40773098Y663447D01*
X40767510Y652526D01*
X40762176Y636270D01*
X40762176Y609092D01*
X40767510Y592581D01*
X40773098Y581660D01*
X40784020Y570737D01*
X40794942Y565404D01*
X40816786Y565404D01*
X40827708Y570737D01*
X40838630Y581660D01*
X40843964Y592581D01*
X40849552Y609092D01*
X40849552Y636270D01*
X40843964Y652526D01*
X40838630Y663447D01*
X40827708Y674370D01*
X40816786Y679957D01*
X40794942Y679957D01*
X40885366Y679957D02*
G01*
X40885366Y565404D01*
X40885366Y679957D02*
G01*
X40961820Y565404D01*
X40961820Y679957D02*
G01*
X40961820Y565404D01*
X41092630Y679957D02*
G01*
X41152828Y679957D01*
X41120062Y636270D01*
X41136318Y636270D01*
X41147240Y630681D01*
X41152828Y625347D01*
X41158162Y609092D01*
X41158162Y598170D01*
X41152828Y581660D01*
X41141906Y570737D01*
X41125396Y565404D01*
X41109140Y565404D01*
X41092630Y570737D01*
X41087296Y576326D01*
X41081708Y587247D01*
X41194230Y679957D02*
G01*
X41194230Y598170D01*
X41199564Y581660D01*
X41210486Y570737D01*
X41226996Y565404D01*
X41237918Y565404D01*
X41254174Y570737D01*
X41265096Y581660D01*
X41270430Y598170D01*
X41270430Y679957D01*
X41434260Y679957D02*
G01*
X41390572Y565404D01*
X41434260Y679957D02*
G01*
X41477694Y565404D01*
X41406828Y603504D02*
G01*
X41461438Y603504D01*
X41513762Y679957D02*
G01*
X41513762Y565404D01*
X41513762Y679957D02*
G01*
X41590216Y565404D01*
X41590216Y679957D02*
G01*
X41590216Y565404D01*
X41626284Y679957D02*
G01*
X41626284Y565404D01*
X41626284Y679957D02*
G01*
X41702484Y565404D01*
X41702484Y679957D02*
G01*
X41702484Y565404D01*
X41738552Y679957D02*
G01*
X41738552Y598170D01*
X41743886Y581660D01*
X41754808Y570737D01*
X41771318Y565404D01*
X41782240Y565404D01*
X41798496Y570737D01*
X41809418Y581660D01*
X41815006Y598170D01*
X41815006Y679957D01*
X41850820Y679957D02*
G01*
X41850820Y565404D01*
X41850820Y679957D02*
G01*
X41927274Y565404D01*
X41927274Y679957D02*
G01*
X41927274Y565404D01*
X42045130Y652526D02*
G01*
X42039542Y663447D01*
X42028620Y674370D01*
X42017698Y679957D01*
X41996108Y679957D01*
X41985186Y674370D01*
X41974264Y663447D01*
X41968676Y652526D01*
X41963342Y636270D01*
X41963342Y609092D01*
X41968676Y592581D01*
X41974264Y581660D01*
X41985186Y570737D01*
X41996108Y565404D01*
X42017698Y565404D01*
X42028620Y570737D01*
X42039542Y581660D01*
X42045130Y592581D01*
X42081198Y679957D02*
G01*
X42081198Y565404D01*
X42160700Y679957D02*
G01*
X42117012Y565404D01*
X42160700Y679957D02*
G01*
X42204388Y565404D01*
X42133522Y603504D02*
G01*
X42187878Y603504D01*
X42278556Y679957D02*
G01*
X42278556Y565404D01*
X42240456Y679957D02*
G01*
X42316656Y679957D01*
X42385490Y679957D02*
G01*
X42374568Y674370D01*
X42363646Y663447D01*
X42358058Y652526D01*
X42352724Y636270D01*
X42352724Y609092D01*
X42358058Y592581D01*
X42363646Y581660D01*
X42374568Y570737D01*
X42385490Y565404D01*
X42407334Y565404D01*
X42418256Y570737D01*
X42429178Y581660D01*
X42434512Y592581D01*
X42440100Y609092D01*
X42440100Y636270D01*
X42434512Y652526D01*
X42429178Y663447D01*
X42418256Y674370D01*
X42407334Y679957D01*
X42385490Y679957D01*
X42475914Y679957D02*
G01*
X42475914Y565404D01*
X42475914Y679957D02*
G01*
X42525190Y679957D01*
X42541446Y674370D01*
X42546780Y669036D01*
X42552368Y658113D01*
X42552368Y647192D01*
X42546780Y636270D01*
X42541446Y630681D01*
X42525190Y625347D01*
X42475914Y625347D01*
X42514268Y625347D02*
G01*
X42552368Y565404D01*
X42748710Y663447D02*
G01*
X42737788Y674370D01*
X42721532Y679957D01*
X42699688Y679957D01*
X42683178Y674370D01*
X42672256Y663447D01*
X42672256Y652526D01*
X42677844Y641604D01*
X42683178Y636270D01*
X42694100Y630681D01*
X42726866Y620013D01*
X42737788Y614426D01*
X42743376Y609092D01*
X42748710Y598170D01*
X42748710Y581660D01*
X42737788Y570737D01*
X42721532Y565404D01*
X42699688Y565404D01*
X42683178Y570737D01*
X42672256Y581660D01*
X42784778Y679957D02*
G01*
X42784778Y565404D01*
X42784778Y679957D02*
G01*
X42833800Y679957D01*
X42850056Y674370D01*
X42855644Y669036D01*
X42860978Y658113D01*
X42860978Y641604D01*
X42855644Y630681D01*
X42850056Y625347D01*
X42833800Y620013D01*
X42784778Y620013D01*
X42940734Y679957D02*
G01*
X42897046Y565404D01*
X42940734Y679957D02*
G01*
X42984422Y565404D01*
X42913556Y603504D02*
G01*
X42967912Y603504D01*
X43102278Y652526D02*
G01*
X43096690Y663447D01*
X43085768Y674370D01*
X43074846Y679957D01*
X43053002Y679957D01*
X43042080Y674370D01*
X43031158Y663447D01*
X43025824Y652526D01*
X43020236Y636270D01*
X43020236Y609092D01*
X43025824Y592581D01*
X43031158Y581660D01*
X43042080Y570737D01*
X43053002Y565404D01*
X43074846Y565404D01*
X43085768Y570737D01*
X43096690Y581660D01*
X43102278Y592581D01*
X43138092Y679957D02*
G01*
X43138092Y565404D01*
X43138092Y679957D02*
G01*
X43208958Y679957D01*
X43138092Y625347D02*
G01*
X43181780Y625347D01*
X43138092Y565404D02*
G01*
X43208958Y565404D01*
X43245026Y679957D02*
G01*
X43245026Y565404D01*
X43245026Y679957D02*
G01*
X43294048Y679957D01*
X43310558Y674370D01*
X43315892Y669036D01*
X43321480Y658113D01*
X43321480Y647192D01*
X43315892Y636270D01*
X43310558Y630681D01*
X43294048Y625347D01*
X43245026Y625347D01*
X43283380Y625347D02*
G01*
X43321480Y565404D01*
X43441368Y614426D02*
G01*
X43539666Y614426D01*
X43697908Y679957D02*
G01*
X43697908Y565404D01*
X43659554Y679957D02*
G01*
X43736008Y679957D01*
X43804588Y679957D02*
G01*
X43793920Y674370D01*
X43782998Y663447D01*
X43777410Y652526D01*
X43772076Y636270D01*
X43772076Y609092D01*
X43777410Y592581D01*
X43782998Y581660D01*
X43793920Y570737D01*
X43804588Y565404D01*
X43826432Y565404D01*
X43837354Y570737D01*
X43848276Y581660D01*
X43853864Y592581D01*
X43859198Y609092D01*
X43859198Y636270D01*
X43853864Y652526D01*
X43848276Y663447D01*
X43837354Y674370D01*
X43826432Y679957D01*
X43804588Y679957D01*
X43895266Y679957D02*
G01*
X43895266Y565404D01*
X43895266Y679957D02*
G01*
X43944288Y679957D01*
X43960798Y674370D01*
X43966132Y669036D01*
X43971720Y658113D01*
X43971720Y641604D01*
X43966132Y630681D01*
X43960798Y625347D01*
X43944288Y620013D01*
X43895266Y620013D01*
X41325716Y451289D02*
G01*
X41325716Y336745D01*
X41325716Y451289D02*
G01*
X41374806Y451289D01*
X41391169Y445836D01*
X41396625Y440382D01*
X41402078Y429473D01*
X41402078Y413108D01*
X41396625Y402198D01*
X41391169Y396745D01*
X41374806Y391289D01*
X41325716Y391289D01*
X41481715Y451289D02*
G01*
X41438080Y336745D01*
X41481715Y451289D02*
G01*
X41525352Y336745D01*
X41454443Y374926D02*
G01*
X41508987Y374926D01*
X41561351Y451289D02*
G01*
X41561351Y336745D01*
X41561351Y451289D02*
G01*
X41610442Y451289D01*
X41626805Y445836D01*
X41632261Y440382D01*
X41637714Y429473D01*
X41637714Y418564D01*
X41632261Y407654D01*
X41626805Y402198D01*
X41610442Y396745D01*
X41561351Y396745D01*
X41599533Y396745D02*
G01*
X41637714Y336745D01*
X41711897Y451289D02*
G01*
X41711897Y336745D01*
X41673716Y451289D02*
G01*
X41750079Y451289D01*
X41870078Y451289D02*
G01*
X41870078Y336745D01*
X41870078Y451289D02*
G01*
X41946441Y336745D01*
X41946441Y451289D02*
G01*
X41946441Y336745D01*
X41982443Y451289D02*
G01*
X41982443Y369473D01*
X41987896Y353108D01*
X41998806Y342198D01*
X42015168Y336745D01*
X42026077Y336745D01*
X42042443Y342198D01*
X42053349Y353108D01*
X42058805Y369473D01*
X42058805Y451289D01*
X42094805Y451289D02*
G01*
X42094805Y336745D01*
X42094805Y451289D02*
G01*
X42138442Y336745D01*
X42182077Y451289D02*
G01*
X42138442Y336745D01*
X42182077Y451289D02*
G01*
X42182077Y336745D01*
X42218079Y451289D02*
G01*
X42218079Y336745D01*
X42218079Y451289D02*
G01*
X42267169Y451289D01*
X42283532Y445836D01*
X42288985Y440382D01*
X42294441Y429473D01*
X42294441Y418564D01*
X42288985Y407654D01*
X42283532Y402198D01*
X42267169Y396745D01*
X42218079Y396745D02*
G01*
X42267169Y396745D01*
X42283532Y391289D01*
X42288985Y385836D01*
X42294441Y374926D01*
X42294441Y358564D01*
X42288985Y347654D01*
X42283532Y342198D01*
X42267169Y336745D01*
X42218079Y336745D01*
X42330441Y451289D02*
G01*
X42330441Y336745D01*
X42330441Y451289D02*
G01*
X42401350Y451289D01*
X42330441Y396745D02*
G01*
X42374078Y396745D01*
X42330441Y336745D02*
G01*
X42401350Y336745D01*
X42437349Y451289D02*
G01*
X42437349Y336745D01*
X42437349Y451289D02*
G01*
X42486440Y451289D01*
X42502805Y445836D01*
X42508258Y440382D01*
X42513714Y429473D01*
X42513714Y418564D01*
X42508258Y407654D01*
X42502805Y402198D01*
X42486440Y396745D01*
X42437349Y396745D01*
X42475531Y396745D02*
G01*
X42513714Y336745D01*
X42633714Y429473D02*
G01*
X42644623Y434926D01*
X42660986Y451289D01*
X42660986Y336745D01*
X42724257Y451289D02*
G01*
X42707895Y445836D01*
X42702441Y434926D01*
X42702441Y424017D01*
X42707895Y413108D01*
X42718804Y407654D01*
X42740623Y402198D01*
X42756985Y396745D01*
X42767895Y385836D01*
X42773348Y374926D01*
X42773348Y358564D01*
X42767895Y347654D01*
X42762441Y342198D01*
X42746076Y336745D01*
X42724257Y336745D01*
X42707895Y342198D01*
X42702441Y347654D01*
X42696985Y358564D01*
X42696985Y374926D01*
X42702441Y385836D01*
X42713348Y396745D01*
X42729713Y402198D01*
X42751532Y407654D01*
X42762441Y413108D01*
X42767895Y424017D01*
X42767895Y434926D01*
X42762441Y445836D01*
X42746076Y451289D01*
X42724257Y451289D01*
X42885713Y451289D02*
G01*
X42831166Y336745D01*
X42809350Y451289D02*
G01*
X42885713Y451289D01*
X42954440Y451289D02*
G01*
X42938077Y445836D01*
X42927168Y429473D01*
X42921712Y402198D01*
X42921712Y385836D01*
X42927168Y358564D01*
X42938077Y342198D01*
X42954440Y336745D01*
X42965349Y336745D01*
X42981712Y342198D01*
X42992621Y358564D01*
X42998077Y385836D01*
X42998077Y402198D01*
X42992621Y429473D01*
X42981712Y445836D01*
X42965349Y451289D01*
X42954440Y451289D01*
X43034077Y385836D02*
G01*
X43132258Y385836D01*
X43200985Y451289D02*
G01*
X43184622Y445836D01*
X43173713Y429473D01*
X43168257Y402198D01*
X43168257Y385836D01*
X43173713Y358564D01*
X43184622Y342198D01*
X43200985Y336745D01*
X43211894Y336745D01*
X43228257Y342198D01*
X43239166Y358564D01*
X43244622Y385836D01*
X43244622Y402198D01*
X43239166Y429473D01*
X43228257Y445836D01*
X43211894Y451289D01*
X43200985Y451289D01*
X43286075Y424017D02*
G01*
X43286075Y429473D01*
X43291531Y440382D01*
X43296984Y445836D01*
X43307894Y451289D01*
X43329712Y451289D01*
X43340621Y445836D01*
X43346075Y440382D01*
X43351531Y429473D01*
X43351531Y418564D01*
X43346075Y407654D01*
X43335166Y391289D01*
X43280622Y336745D01*
X43356984Y336745D01*
X43425711Y451289D02*
G01*
X43409349Y445836D01*
X43398440Y429473D01*
X43392984Y402198D01*
X43392984Y385836D01*
X43398440Y358564D01*
X43409349Y342198D01*
X43425711Y336745D01*
X43436621Y336745D01*
X43452983Y342198D01*
X43463893Y358564D01*
X43469349Y385836D01*
X43469349Y402198D01*
X43463893Y429473D01*
X43452983Y445836D01*
X43436621Y451289D01*
X43425711Y451289D01*
X43505348Y429473D02*
G01*
X43516257Y434926D01*
X43532620Y451289D01*
X43532620Y336745D01*
X43652620Y451289D02*
G01*
X43696257Y336745D01*
X43739892Y451289D02*
G01*
X43696257Y336745D01*
X43808619Y451289D02*
G01*
X43792256Y445836D01*
X43781347Y429473D01*
X43775894Y402198D01*
X43775894Y385836D01*
X43781347Y358564D01*
X43792256Y342198D01*
X43808619Y336745D01*
X43819528Y336745D01*
X43835894Y342198D01*
X43846800Y358564D01*
X43852256Y385836D01*
X43852256Y402198D01*
X43846800Y429473D01*
X43835894Y445836D01*
X43819528Y451289D01*
X43808619Y451289D01*
X43893712Y364017D02*
G01*
X43888256Y358564D01*
X43893712Y353108D01*
X43899165Y358564D01*
X43893712Y364017D01*
X43935164Y429473D02*
G01*
X43946074Y434926D01*
X43962439Y451289D01*
X43962439Y336745D01*
M02*
