G04 Layer: BoardOutlineLayer*
G04 EasyEDA v6.5.34, 2023-08-21 18:11:39*
G04 81c3e6301e7a49a49ac37a2379715e3f,5a6b42c53f6a479593ecc07194224c93,10*
G04 Gerber Generator version 0.2*
G04 Scale: 100 percent, Rotated: No, Reflected: No *
G04 Dimensions in millimeters *
G04 leading zeros omitted , absolute positions ,4 integer and 5 decimal *
%FSLAX45Y45*%
%MOMM*%

%ADD10C,0.2540*%
D10*
X2031994Y12953974D02*
G01*
X46227908Y12953974D01*
X46227908Y254000D01*
X2031994Y254000D01*
X2031994Y12953974D01*
X4292600Y12446000D02*
G01*
X4292600Y8890000D01*
X4292600Y8890000D02*
G01*
X7848600Y8890000D01*
X7848600Y8890000D02*
G01*
X7848600Y12446000D01*
X7848600Y12446000D02*
G01*
X4292600Y12446000D01*
X8305800Y12446000D02*
G01*
X8305800Y8890000D01*
X8305800Y8890000D02*
G01*
X11861800Y8890000D01*
X11861800Y8890000D02*
G01*
X11861800Y12446000D01*
X11861800Y12446000D02*
G01*
X8305800Y12446000D01*
X12319000Y12446000D02*
G01*
X12319000Y8890000D01*
X12319000Y8890000D02*
G01*
X15875000Y8890000D01*
X15875000Y8890000D02*
G01*
X15875000Y12446000D01*
X15875000Y12446000D02*
G01*
X12319000Y12446000D01*
X16332200Y12446000D02*
G01*
X16332200Y8890000D01*
X16332200Y8890000D02*
G01*
X19888200Y8890000D01*
X19888200Y8890000D02*
G01*
X19888200Y12446000D01*
X19888200Y12446000D02*
G01*
X16332200Y12446000D01*
X20345400Y12446000D02*
G01*
X20345400Y8890000D01*
X20345400Y8890000D02*
G01*
X23901400Y8890000D01*
X23901400Y8890000D02*
G01*
X23901400Y12446000D01*
X23901400Y12446000D02*
G01*
X20345400Y12446000D01*
X24358600Y12446000D02*
G01*
X24358600Y8890000D01*
X24358600Y8890000D02*
G01*
X27914600Y8890000D01*
X27914600Y8890000D02*
G01*
X27914600Y12446000D01*
X27914600Y12446000D02*
G01*
X24358600Y12446000D01*
X28371800Y12446000D02*
G01*
X28371800Y8890000D01*
X28371800Y8890000D02*
G01*
X31927800Y8890000D01*
X31927800Y8890000D02*
G01*
X31927800Y12446000D01*
X31927800Y12446000D02*
G01*
X28371800Y12446000D01*
X32385000Y12446000D02*
G01*
X32385000Y8890000D01*
X32385000Y8890000D02*
G01*
X35941000Y8890000D01*
X35941000Y8890000D02*
G01*
X35941000Y12446000D01*
X35941000Y12446000D02*
G01*
X32385000Y12446000D01*
X36398200Y12446000D02*
G01*
X36398200Y8890000D01*
X36398200Y8890000D02*
G01*
X39954200Y8890000D01*
X39954200Y8890000D02*
G01*
X39954200Y12446000D01*
X39954200Y12446000D02*
G01*
X36398200Y12446000D01*
X40411400Y12446000D02*
G01*
X40411400Y8890000D01*
X40411400Y8890000D02*
G01*
X43967400Y8890000D01*
X43967400Y8890000D02*
G01*
X43967400Y12446000D01*
X43967400Y12446000D02*
G01*
X40411400Y12446000D01*
X4292600Y8382000D02*
G01*
X4292600Y4826000D01*
X4292600Y4826000D02*
G01*
X7848600Y4826000D01*
X7848600Y4826000D02*
G01*
X7848600Y8382000D01*
X7848600Y8382000D02*
G01*
X4292600Y8382000D01*
X8305800Y8382000D02*
G01*
X8305800Y4826000D01*
X8305800Y4826000D02*
G01*
X11861800Y4826000D01*
X11861800Y4826000D02*
G01*
X11861800Y8382000D01*
X11861800Y8382000D02*
G01*
X8305800Y8382000D01*
X12319000Y8382000D02*
G01*
X12319000Y4826000D01*
X12319000Y4826000D02*
G01*
X15875000Y4826000D01*
X15875000Y4826000D02*
G01*
X15875000Y8382000D01*
X15875000Y8382000D02*
G01*
X12319000Y8382000D01*
X16332200Y8382000D02*
G01*
X16332200Y4826000D01*
X16332200Y4826000D02*
G01*
X19888200Y4826000D01*
X19888200Y4826000D02*
G01*
X19888200Y8382000D01*
X19888200Y8382000D02*
G01*
X16332200Y8382000D01*
X20345400Y8382000D02*
G01*
X20345400Y4826000D01*
X20345400Y4826000D02*
G01*
X23901400Y4826000D01*
X23901400Y4826000D02*
G01*
X23901400Y8382000D01*
X23901400Y8382000D02*
G01*
X20345400Y8382000D01*
X24358600Y8382000D02*
G01*
X24358600Y4826000D01*
X24358600Y4826000D02*
G01*
X27914600Y4826000D01*
X27914600Y4826000D02*
G01*
X27914600Y8382000D01*
X27914600Y8382000D02*
G01*
X24358600Y8382000D01*
X28371800Y8382000D02*
G01*
X28371800Y4826000D01*
X28371800Y4826000D02*
G01*
X31927800Y4826000D01*
X31927800Y4826000D02*
G01*
X31927800Y8382000D01*
X31927800Y8382000D02*
G01*
X28371800Y8382000D01*
X32385000Y8382000D02*
G01*
X32385000Y4826000D01*
X32385000Y4826000D02*
G01*
X35941000Y4826000D01*
X35941000Y4826000D02*
G01*
X35941000Y8382000D01*
X35941000Y8382000D02*
G01*
X32385000Y8382000D01*
X36398200Y8382000D02*
G01*
X36398200Y4826000D01*
X36398200Y4826000D02*
G01*
X39954200Y4826000D01*
X39954200Y4826000D02*
G01*
X39954200Y8382000D01*
X39954200Y8382000D02*
G01*
X36398200Y8382000D01*
X40411400Y8382000D02*
G01*
X40411400Y4826000D01*
X40411400Y4826000D02*
G01*
X43967400Y4826000D01*
X43967400Y4826000D02*
G01*
X43967400Y8382000D01*
X43967400Y8382000D02*
G01*
X40411400Y8382000D01*
X4292600Y4318000D02*
G01*
X4292600Y762000D01*
X4292600Y762000D02*
G01*
X7848600Y762000D01*
X7848600Y762000D02*
G01*
X7848600Y4318000D01*
X7848600Y4318000D02*
G01*
X4292600Y4318000D01*
X8305800Y4318000D02*
G01*
X8305800Y762000D01*
X8305800Y762000D02*
G01*
X11861800Y762000D01*
X11861800Y762000D02*
G01*
X11861800Y4318000D01*
X11861800Y4318000D02*
G01*
X8305800Y4318000D01*
X12319000Y4318000D02*
G01*
X12319000Y762000D01*
X12319000Y762000D02*
G01*
X15875000Y762000D01*
X15875000Y762000D02*
G01*
X15875000Y4318000D01*
X15875000Y4318000D02*
G01*
X12319000Y4318000D01*
X16332200Y4318000D02*
G01*
X16332200Y762000D01*
X16332200Y762000D02*
G01*
X19888200Y762000D01*
X19888200Y762000D02*
G01*
X19888200Y4318000D01*
X19888200Y4318000D02*
G01*
X16332200Y4318000D01*
X20345400Y4318000D02*
G01*
X20345400Y762000D01*
X20345400Y762000D02*
G01*
X23901400Y762000D01*
X23901400Y762000D02*
G01*
X23901400Y4318000D01*
X23901400Y4318000D02*
G01*
X20345400Y4318000D01*
X24358600Y4318000D02*
G01*
X24358600Y762000D01*
X24358600Y762000D02*
G01*
X27914600Y762000D01*
X27914600Y762000D02*
G01*
X27914600Y4318000D01*
X27914600Y4318000D02*
G01*
X24358600Y4318000D01*
X28371800Y4318000D02*
G01*
X28371800Y762000D01*
X28371800Y762000D02*
G01*
X31927800Y762000D01*
X31927800Y762000D02*
G01*
X31927800Y4318000D01*
X31927800Y4318000D02*
G01*
X28371800Y4318000D01*
X32385000Y4318000D02*
G01*
X32385000Y762000D01*
X32385000Y762000D02*
G01*
X35941000Y762000D01*
X35941000Y762000D02*
G01*
X35941000Y4318000D01*
X35941000Y4318000D02*
G01*
X32385000Y4318000D01*
X36398200Y4318000D02*
G01*
X36398200Y762000D01*
X36398200Y762000D02*
G01*
X39954200Y762000D01*
X39954200Y762000D02*
G01*
X39954200Y4318000D01*
X39954200Y4318000D02*
G01*
X36398200Y4318000D01*
X40411400Y4318000D02*
G01*
X40411400Y762000D01*
X40411400Y762000D02*
G01*
X43967400Y762000D01*
X43967400Y762000D02*
G01*
X43967400Y4318000D01*
X43967400Y4318000D02*
G01*
X40411400Y4318000D01*
X45313600Y3302000D02*
G01*
X45313600Y1143000D01*
X45313600Y1143000D02*
G01*
X45618400Y1143000D01*
X45618400Y1143000D02*
G01*
X45618400Y3302000D01*
X45618400Y3302000D02*
G01*
X45313600Y3302000D01*

%LPD*%
M02*
