M48
METRIC,LZ,000.000
;FILE_FORMAT=3:3
;TYPE=NON_PLATED
;Layer: NPTH_Through
;EasyEDA v6.5.29, 2023-07-19 22:01:03
;8eb2f2613b91424b8de75a29ec9d0e09,5a6b42c53f6a479593ecc07194224c93,10
;Gerber Generator version 0.2
;Holesize 1 = 0.551 mm
T01C0.551
;Holesize 2 = 2.000 mm
T02C2.000
%
G05
G90
T01
X095450Y-003368
X096300Y-003368
X097150Y-003368
X098000Y-003368
X098850Y-003368
X099700Y-003368
X100550Y-003368
X101400Y-003368
X122755Y-003368
X123605Y-003368
X124455Y-003368
X125305Y-003368
X126155Y-003368
X127005Y-003368
X127855Y-003368
X128705Y-003368
X150060Y-003368
X150910Y-003368
X151760Y-003368
X152610Y-003368
X153460Y-003368
X154310Y-003368
X155160Y-003368
X156010Y-003368
X095450Y002448
X096300Y002448
X097150Y002448
X098000Y002448
X098850Y002448
X099700Y002448
X100550Y002448
X101400Y002448
X122755Y002448
X123605Y002448
X124455Y002448
X125305Y002448
X126155Y002448
X127005Y002448
X127855Y002448
X128705Y002448
X150060Y002448
X150910Y002448
X151760Y002448
X152610Y002448
X153460Y002448
X154310Y002448
X155160Y002448
X156010Y002448
X210670Y-003368
X211520Y-003368
X212370Y-003368
X213220Y-003368
X214070Y-003368
X214920Y-003368
X215770Y-003368
X216620Y-003368
X237975Y-003368
X238825Y-003368
X239675Y-003368
X240525Y-003368
X241375Y-003368
X242225Y-003368
X243075Y-003368
X243925Y-003368
X265280Y-003368
X266130Y-003368
X266980Y-003368
X267830Y-003368
X268680Y-003368
X269530Y-003368
X270380Y-003368
X271230Y-003368
X210670Y002448
X211520Y002448
X212370Y002448
X213220Y002448
X214070Y002448
X214920Y002448
X215770Y002448
X216620Y002448
X237975Y002448
X238825Y002448
X239675Y002448
X240525Y002448
X241375Y002448
X242225Y002448
X243075Y002448
X243925Y002448
X265280Y002448
X266130Y002448
X266980Y002448
X267830Y002448
X268680Y002448
X269530Y002448
X270380Y002448
X271230Y002448
X186248Y052505
X186248Y051655
X186248Y050805
X186248Y049955
X186248Y049105
X186248Y048255
X186248Y047405
X186248Y046555
X180432Y052505
X180432Y051655
X180432Y050805
X180432Y049955
X180432Y049105
X180432Y048255
X180432Y047405
X180432Y046555
X186248Y-047475
X186248Y-048325
X186248Y-049175
X186248Y-050025
X186248Y-050875
X186248Y-051725
X186248Y-052575
X186248Y-053425
X180432Y-047475
X180432Y-048325
X180432Y-049175
X180432Y-050025
X180432Y-050875
X180432Y-051725
X180432Y-052575
X180432Y-053425
X095450Y096612
X096300Y096612
X097150Y096612
X098000Y096612
X098850Y096612
X099700Y096612
X100550Y096612
X101400Y096612
X122755Y096612
X123605Y096612
X124455Y096612
X125305Y096612
X126155Y096612
X127005Y096612
X127855Y096612
X128705Y096612
X150060Y096612
X150910Y096612
X151760Y096612
X152610Y096612
X153460Y096612
X154310Y096612
X155160Y096612
X156010Y096612
X095450Y-097532
X096300Y-097532
X097150Y-097532
X098000Y-097532
X098850Y-097532
X099700Y-097532
X100550Y-097532
X101400Y-097532
X122755Y-097532
X123605Y-097532
X124455Y-097532
X125305Y-097532
X126155Y-097532
X127005Y-097532
X127855Y-097532
X128705Y-097532
X150060Y-097532
X150910Y-097532
X151760Y-097532
X152610Y-097532
X153460Y-097532
X154310Y-097532
X155160Y-097532
X156010Y-097532
X210670Y096612
X211520Y096612
X212370Y096612
X213220Y096612
X214070Y096612
X214920Y096612
X215770Y096612
X216620Y096612
X237975Y096612
X238825Y096612
X239675Y096612
X240525Y096612
X241375Y096612
X242225Y096612
X243075Y096612
X243925Y096612
X265280Y096612
X266130Y096612
X266980Y096612
X267830Y096612
X268680Y096612
X269530Y096612
X270380Y096612
X271230Y096612
X210670Y-097532
X211520Y-097532
X212370Y-097532
X213220Y-097532
X214070Y-097532
X214920Y-097532
X215770Y-097532
X216620Y-097532
X237975Y-097532
X238825Y-097532
X239675Y-097532
X240525Y-097532
X241375Y-097532
X242225Y-097532
X243075Y-097532
X243925Y-097532
X265280Y-097532
X266130Y-097532
X266980Y-097532
X267830Y-097532
X268680Y-097532
X269530Y-097532
X270380Y-097532
X271230Y-097532
T02
X101034Y089370
X073884Y089370
X139466Y089370
X112316Y089370
X177898Y089370
X150748Y089370
X106656Y045758
X145088Y045758
X145088Y006858
X106656Y006858
X076120Y104520
X290560Y104520
X081120Y-105440
X285560Y-105440
M30
