M48
METRIC,LZ,000.000
;FILE_FORMAT=3:3
;TYPE=PLATED
;Layer: PTH_Through_Via
;EasyEDA v6.5.29, 2023-07-19 22:01:03
;8eb2f2613b91424b8de75a29ec9d0e09,5a6b42c53f6a479593ecc07194224c93,10
;Gerber Generator version 0.2
;Holesize 1 = 0.305 mm
T01C0.305
%
G05
G90
T01
X080518Y063500
X090678Y063500
X079629Y064262
X089408Y064262
X078105Y065024
X088138Y065024
X077216Y065786
X086868Y065786
X094996Y063500
X091948Y063500
X095885Y064262
X093218Y064262
X097409Y065024
X094488Y065024
X098298Y065786
X095758Y065786
X082423Y075311
X091948Y075311
X083693Y074676
X093218Y074676
X092586Y073406
X095758Y073406
X091313Y074041
X094488Y074041
X083058Y071374
X118110Y027178
X109728Y027178
X116586Y026543
X109093Y026543
X108458Y017835
X110363Y035615
X141351Y035615
X134366Y027178
X141986Y027178
X135890Y026543
X142621Y026543
X143256Y017835
X159893Y071374
X171323Y074041
X168148Y074041
X172593Y073406
X169421Y073406
X170053Y074676
X160528Y074676
X168783Y075311
X159258Y075311
X172593Y065786
X175133Y065786
X171323Y065024
X174244Y065024
X170053Y064262
X172720Y064262
X168783Y063500
X171831Y063500
X163703Y065786
X154051Y065786
X164973Y065024
X154940Y065024
X166243Y064262
X156464Y064262
X167513Y063500
X157353Y063500
X148590Y076200
X149860Y076200
X170777Y092710
X132345Y092710
X093913Y092710
X078740Y094107
X117094Y094107
X083753Y086360
X122185Y086360
X155575Y094107
X160617Y086360
X079883Y071374
X124714Y085725
X086233Y085725
X163157Y085725
X127264Y085090
X165697Y085090
X129804Y084455
X168237Y084455
X088833Y085090
X091373Y084455
X148463Y085090
X149987Y084455
X132334Y049530
X105791Y073914
X104577Y070160
X110236Y071374
X111506Y076962
X113284Y068453
X101092Y068961
X113665Y073406
X101092Y080010
X107442Y079375
X109220Y073914
X106934Y073914
X106934Y072517
X109220Y072517
X110617Y073914
X102489Y071755
X101346Y075311
X103886Y077308
X106426Y076073
X105537Y076073
X102489Y077089
X103759Y078486
X107442Y078486
X106680Y078867
X102489Y077851
X102489Y078613
X108204Y071628
X108458Y076073
X109982Y080010
X109474Y069158
X109220Y071120
X110998Y068453
X102997Y066675
X110617Y076073
X107442Y071628
X107315Y076073
X108458Y066421
X138430Y050419
X144145Y074930
X146177Y075565
X129032Y057277
X099695Y057277
X130302Y057912
X100330Y057912
X100838Y072644
X099695Y072644
X098933Y073406
X098044Y073406
X109728Y063500
X118110Y064262
X116586Y065024
X109093Y065786
X126619Y065024
X127889Y064262
X129159Y063500
X125349Y065786
X135128Y065024
X133604Y064262
X142621Y065786
X134239Y065786
X132969Y065024
X131699Y064262
X141986Y063500
X130429Y063500
X141351Y073025
X134239Y073025
X143256Y073660
X132969Y073660
X110363Y062738
X129794Y062738
X108458Y061976
X131064Y061976
X158623Y083820
X120269Y083820
X157353Y083185
X118999Y083185
X081788Y083820
X080518Y083185
X079883Y085725
X121539Y071374
X118364Y085725
X118364Y071374
X156718Y085725
X156718Y071374
X141732Y076200
X140462Y076200
X141859Y083820
X140335Y083185
X163068Y082550
X086233Y082550
X124714Y082550
X085028Y092710
X161863Y092710
X123509Y092710
X157353Y076200
X162433Y076200
X117729Y076327
X124079Y076327
X080518Y072644
X081788Y072009
X100203Y068453
X115189Y084455
X115189Y072136
X115824Y071501
X115824Y085090
X116459Y067818
X117094Y067183
X106807Y089408
X105918Y080645
X117094Y080645
X107696Y081280
X116459Y081280
X125349Y071374
X129159Y076200
X134366Y061976
X134366Y044323
X120904Y076327
X159893Y066929
X159639Y039370
X139700Y061849
X150509Y061863
X153416Y092710
X148209Y067183
X153416Y067183
X100330Y071247
X103251Y071247
X114427Y076962
X114427Y092710
X148209Y050419
X108585Y091694
X105029Y091694
X115189Y070866
X115824Y070231
X124079Y070745
X098044Y094107
X098044Y075184
X105791Y074803
X098933Y075184
X098933Y086360
X112776Y081915
X113665Y081915
X081153Y081915
X114427Y074295
X119634Y081915
X151765Y081915
X157988Y081915
X151765Y074295
X114554Y073406
X122174Y067183
X145161Y089408
M30
