G04 Layer: BoardOutlineLayer*
G04 EasyEDA v6.5.29, 2023-07-19 22:01:03*
G04 8eb2f2613b91424b8de75a29ec9d0e09,5a6b42c53f6a479593ecc07194224c93,10*
G04 Gerber Generator version 0.2*
G04 Scale: 100 percent, Rotated: No, Reflected: No *
G04 Dimensions in millimeters *
G04 leading zeros omitted , absolute positions ,4 integer and 5 decimal *
%FSLAX45Y45*%
%MOMM*%

%ADD10C,0.2540*%
D10*
X7112000Y9652000D02*
G01*
X18034000Y9652000D01*
X18034000Y254000D01*
X7112000Y254000D01*
X7112000Y9652000D01*
X18633998Y9652000D02*
G01*
X29555998Y9652000D01*
X29555998Y254000D01*
X18633998Y254000D01*
X18633998Y9652000D01*
X7112000Y-345998D02*
G01*
X18034000Y-345998D01*
X18034000Y-9743998D01*
X7112000Y-9743998D01*
X7112000Y-345998D01*
X18633998Y-345998D02*
G01*
X29555998Y-345998D01*
X29555998Y-9743998D01*
X18633998Y-9743998D01*
X18633998Y-345998D01*
X7112000Y10851997D02*
G01*
X29555998Y10851997D01*
X29555998Y-10943996D01*
X7112000Y-10943996D01*
X7112000Y10851997D01*
X9500496Y10251998D02*
G01*
X7112000Y10251998D01*
X9500496Y-10343997D02*
G01*
X7112000Y-10343997D01*
X12230996Y10251998D02*
G01*
X10184505Y10251998D01*
X12230996Y-10343997D02*
G01*
X10184505Y-10343997D01*
X14961496Y10251998D02*
G01*
X12915005Y10251998D01*
X14961496Y-10343997D02*
G01*
X12915005Y-10343997D01*
X21022495Y10251998D02*
G01*
X15645505Y10251998D01*
X21022495Y-10343997D02*
G01*
X15645505Y-10343997D01*
X23752995Y10251998D02*
G01*
X21706504Y10251998D01*
X23752995Y-10343997D02*
G01*
X21706504Y-10343997D01*
X26483495Y10251998D02*
G01*
X24437004Y10251998D01*
X26483495Y-10343997D02*
G01*
X24437004Y-10343997D01*
X29555998Y10251998D02*
G01*
X27167504Y10251998D01*
X29555998Y-10343997D02*
G01*
X27167504Y-10343997D01*
X9500496Y-336831D02*
G01*
X9500496Y244833D01*
X10184505Y-336831D02*
G01*
X10184505Y244833D01*
X12230996Y-336831D02*
G01*
X12230996Y244833D01*
X12915005Y-336831D02*
G01*
X12915005Y244833D01*
X14961496Y-336831D02*
G01*
X14961496Y244833D01*
X15645505Y-336831D02*
G01*
X15645505Y244833D01*
X21022495Y-336831D02*
G01*
X21022495Y244833D01*
X21706504Y-336831D02*
G01*
X21706504Y244833D01*
X23752995Y-336831D02*
G01*
X23752995Y244833D01*
X24437004Y-336831D02*
G01*
X24437004Y244833D01*
X26483495Y-336831D02*
G01*
X26483495Y244833D01*
X27167504Y-336831D02*
G01*
X27167504Y244833D01*
X18624831Y5295003D02*
G01*
X18043166Y5295003D01*
X18624831Y4610994D02*
G01*
X18043166Y4610994D01*
X18624831Y-4702995D02*
G01*
X18043166Y-4702995D01*
X18624831Y-5387004D02*
G01*
X18043166Y-5387004D01*
X9500496Y9661166D02*
G01*
X9500496Y10251998D01*
X9500496Y-10343997D02*
G01*
X9500496Y-9753165D01*
X10184505Y9661166D02*
G01*
X10184505Y10251998D01*
X10184505Y-10343997D02*
G01*
X10184505Y-9753165D01*
X12230996Y9661166D02*
G01*
X12230996Y10251998D01*
X12230996Y-10343997D02*
G01*
X12230996Y-9753165D01*
X12915005Y9661166D02*
G01*
X12915005Y10251998D01*
X12915005Y-10343997D02*
G01*
X12915005Y-9753165D01*
X14961496Y9661166D02*
G01*
X14961496Y10251998D01*
X14961496Y-10343997D02*
G01*
X14961496Y-9753165D01*
X15645505Y9661166D02*
G01*
X15645505Y10251998D01*
X15645505Y-10343997D02*
G01*
X15645505Y-9753165D01*
X21022495Y9661166D02*
G01*
X21022495Y10251998D01*
X21022495Y-10343997D02*
G01*
X21022495Y-9753165D01*
X21706504Y9661166D02*
G01*
X21706504Y10251998D01*
X21706504Y-10343997D02*
G01*
X21706504Y-9753165D01*
X23752995Y9661166D02*
G01*
X23752995Y10251998D01*
X23752995Y-10343997D02*
G01*
X23752995Y-9753165D01*
X24437004Y9661166D02*
G01*
X24437004Y10251998D01*
X24437004Y-10343997D02*
G01*
X24437004Y-9753165D01*
X26483495Y9661166D02*
G01*
X26483495Y10251998D01*
X26483495Y-10343997D02*
G01*
X26483495Y-9753165D01*
X27167504Y9661166D02*
G01*
X27167504Y10251998D01*
X27167504Y-10343997D02*
G01*
X27167504Y-9753165D01*

%LPD*%
M02*
