M48
METRIC,LZ,000.000
;FILE_FORMAT=3:3
;TYPE=NON_PLATED
;Layer: NPTH_Through
;EasyEDA v6.5.34, 2023-08-24 10:08:58
;37586862595d49128824a1d9db5d89c9,5a6b42c53f6a479593ecc07194224c93,10
;Gerber Generator version 0.2
;Holesize 1 = 2.000 mm
T01C2.000
%
G05
G90
T01
X026652Y089370
X053802Y089370
X092234Y089370
X065084Y089370
X130666Y089370
X103516Y089370
X169098Y089370
X141948Y089370
X207530Y089370
X180380Y089370
X245962Y089370
X218812Y089370
X284394Y089370
X257244Y089370
X322826Y089370
X295676Y089370
X361258Y089370
X334108Y089370
X399690Y089370
X372540Y089370
X438122Y089370
X410972Y089370
X053799Y045758
X026649Y045758
X410969Y045758
X438119Y045758
X097856Y045758
X136288Y045758
X174720Y045758
X213152Y045758
X251584Y045758
X290016Y045758
X328448Y045758
X366880Y045758
X026652Y128270
X053802Y128270
X092234Y128270
X065084Y128270
X130666Y128270
X103516Y128270
X169098Y128270
X141948Y128270
X207530Y128270
X180380Y128270
X245962Y128270
X218812Y128270
X284394Y128270
X257244Y128270
X322826Y128270
X295676Y128270
X361258Y128270
X334108Y128270
X399690Y128270
X372540Y128270
X438122Y128270
X410972Y128270
X053799Y006858
X026649Y006858
X438119Y006858
X410969Y006858
X366880Y006858
X328448Y006858
X290016Y006858
X251584Y006858
X213152Y006858
X136288Y006858
X097856Y006858
X174720Y006858
M30
