G04 Layer: TopPasteMaskLayer*
G04 EasyEDA v6.5.34, 2023-08-24 10:08:58*
G04 37586862595d49128824a1d9db5d89c9,5a6b42c53f6a479593ecc07194224c93,10*
G04 Gerber Generator version 0.2*
G04 Scale: 100 percent, Rotated: No, Reflected: No *
G04 Dimensions in millimeters *
G04 leading zeros omitted , absolute positions ,4 integer and 5 decimal *
%FSLAX45Y45*%
%MOMM*%

%ADD10R,0.8000X0.9000*%
%ADD11R,0.7000X0.9000*%

%LPD*%
D10*
G01*
X13684402Y6007100D03*
G01*
X13544397Y6007100D03*
G01*
X14344802Y6007100D03*
G01*
X14204797Y6007100D03*
G01*
X15487802Y5905500D03*
G01*
X15347797Y5905500D03*
D11*
G01*
X15515209Y6492316D03*
G01*
X15515209Y6309309D03*
G01*
X15625216Y6309309D03*
G01*
X15625216Y6492316D03*
G01*
X15515209Y7419416D03*
G01*
X15515209Y7236409D03*
G01*
X15625216Y7236409D03*
G01*
X15625216Y7419416D03*
G01*
X15451709Y8105216D03*
G01*
X15451709Y7922209D03*
G01*
X15561716Y7922209D03*
G01*
X15561716Y8105216D03*
G01*
X15515209Y5565216D03*
G01*
X15515209Y5382209D03*
G01*
X15625216Y5382209D03*
G01*
X15625216Y5565216D03*
D10*
G01*
X19331000Y5905500D03*
G01*
X19190995Y5905500D03*
D11*
G01*
X19358406Y6492316D03*
G01*
X19358406Y6309309D03*
G01*
X19468414Y6309309D03*
G01*
X19468414Y6492316D03*
G01*
X19358406Y7419416D03*
G01*
X19358406Y7236409D03*
G01*
X19468414Y7236409D03*
G01*
X19468414Y7419416D03*
G01*
X19294906Y8105216D03*
G01*
X19294906Y7922209D03*
G01*
X19404914Y7922209D03*
G01*
X19404914Y8105216D03*
G01*
X19358406Y5565216D03*
G01*
X19358406Y5382209D03*
G01*
X19468414Y5382209D03*
G01*
X19468414Y5565216D03*
G01*
X17928209Y7419416D03*
G01*
X17928209Y7236409D03*
G01*
X18038216Y7236409D03*
G01*
X18038216Y7419416D03*
G01*
X17928209Y6492316D03*
G01*
X17928209Y6309309D03*
G01*
X18038216Y6309309D03*
G01*
X18038216Y6492316D03*
G01*
X17928209Y5565216D03*
G01*
X17928209Y5382209D03*
G01*
X18038216Y5382209D03*
G01*
X18038216Y5565216D03*
D10*
G01*
X17900802Y5905500D03*
G01*
X17760797Y5905500D03*
D11*
G01*
X21761602Y5565216D03*
G01*
X21761602Y5382209D03*
G01*
X21871609Y5382209D03*
G01*
X21871609Y5565216D03*
G01*
X21761602Y6492316D03*
G01*
X21761602Y6309309D03*
G01*
X21871609Y6309309D03*
G01*
X21871609Y6492316D03*
G01*
X21761602Y7419416D03*
G01*
X21761602Y7236409D03*
G01*
X21871609Y7236409D03*
G01*
X21871609Y7419416D03*
D10*
G01*
X21734195Y5905500D03*
G01*
X21594191Y5905500D03*
G01*
X21086495Y6007100D03*
G01*
X20946491Y6007100D03*
G01*
X20438795Y6007100D03*
G01*
X20298791Y6007100D03*
D11*
G01*
X21113902Y7521016D03*
G01*
X21113902Y7338009D03*
G01*
X21223909Y7338009D03*
G01*
X21223909Y7521016D03*
G01*
X21113902Y6606616D03*
G01*
X21113902Y6423609D03*
G01*
X21223909Y6423609D03*
G01*
X21223909Y6606616D03*
G01*
X21113902Y5666816D03*
G01*
X21113902Y5483809D03*
G01*
X21223909Y5483809D03*
G01*
X21223909Y5666816D03*
G01*
X20466202Y7521016D03*
G01*
X20466202Y7338009D03*
G01*
X20576209Y7338009D03*
G01*
X20576209Y7521016D03*
G01*
X20466202Y6606616D03*
G01*
X20466202Y6423609D03*
G01*
X20576209Y6423609D03*
G01*
X20576209Y6606616D03*
G01*
X20466202Y5666816D03*
G01*
X20466202Y5483809D03*
G01*
X20576209Y5483809D03*
G01*
X20576209Y5666816D03*
G01*
X23201629Y5565216D03*
G01*
X23201629Y5382209D03*
G01*
X23311637Y5382209D03*
G01*
X23311637Y5565216D03*
G01*
X23138129Y8105216D03*
G01*
X23138129Y7922209D03*
G01*
X23248137Y7922209D03*
G01*
X23248137Y8105216D03*
G01*
X23201629Y7419416D03*
G01*
X23201629Y7236409D03*
G01*
X23311637Y7236409D03*
G01*
X23311637Y7419416D03*
G01*
X23201629Y6492316D03*
G01*
X23201629Y6309309D03*
G01*
X23311637Y6309309D03*
G01*
X23311637Y6492316D03*
D10*
G01*
X23174223Y5905500D03*
G01*
X23034218Y5905500D03*
D11*
G01*
X27044827Y5565216D03*
G01*
X27044827Y5382209D03*
G01*
X27154835Y5382209D03*
G01*
X27154835Y5565216D03*
G01*
X26981327Y8105216D03*
G01*
X26981327Y7922209D03*
G01*
X27091335Y7922209D03*
G01*
X27091335Y8105216D03*
G01*
X27044827Y7419416D03*
G01*
X27044827Y7236409D03*
G01*
X27154835Y7236409D03*
G01*
X27154835Y7419416D03*
G01*
X27044827Y6492316D03*
G01*
X27044827Y6309309D03*
G01*
X27154835Y6309309D03*
G01*
X27154835Y6492316D03*
D10*
G01*
X27017421Y5905500D03*
G01*
X26877416Y5905500D03*
G01*
X24579021Y5905500D03*
G01*
X24439016Y5905500D03*
D11*
G01*
X24606427Y7419416D03*
G01*
X24606427Y7236409D03*
G01*
X24716435Y7236409D03*
G01*
X24716435Y7419416D03*
G01*
X24606427Y6492316D03*
G01*
X24606427Y6309309D03*
G01*
X24716435Y6309309D03*
G01*
X24716435Y6492316D03*
G01*
X24606427Y5565216D03*
G01*
X24606427Y5382209D03*
G01*
X24716435Y5382209D03*
G01*
X24716435Y5565216D03*
G01*
X25901827Y5666816D03*
G01*
X25901827Y5483809D03*
G01*
X26011835Y5483809D03*
G01*
X26011835Y5666816D03*
G01*
X25901827Y6606616D03*
G01*
X25901827Y6423609D03*
G01*
X26011835Y6423609D03*
G01*
X26011835Y6606616D03*
G01*
X25901827Y7521016D03*
G01*
X25901827Y7338009D03*
G01*
X26011835Y7338009D03*
G01*
X26011835Y7521016D03*
G01*
X25241427Y5666816D03*
G01*
X25241427Y5483809D03*
G01*
X25351435Y5483809D03*
G01*
X25351435Y5666816D03*
G01*
X25241427Y6606616D03*
G01*
X25241427Y6423609D03*
G01*
X25351435Y6423609D03*
G01*
X25351435Y6606616D03*
G01*
X25241427Y7521016D03*
G01*
X25241427Y7338009D03*
G01*
X25351435Y7338009D03*
G01*
X25351435Y7521016D03*
D10*
G01*
X25874421Y6007100D03*
G01*
X25734416Y6007100D03*
G01*
X25214021Y6007100D03*
G01*
X25074016Y6007100D03*
G01*
X28451606Y5905500D03*
G01*
X28311602Y5905500D03*
D11*
G01*
X28479013Y5565216D03*
G01*
X28479013Y5382209D03*
G01*
X28589020Y5382209D03*
G01*
X28589020Y5565216D03*
G01*
X28479013Y6492316D03*
G01*
X28479013Y6309309D03*
G01*
X28589020Y6309309D03*
G01*
X28589020Y6492316D03*
G01*
X28479013Y7419416D03*
G01*
X28479013Y7236409D03*
G01*
X28589020Y7236409D03*
G01*
X28589020Y7419416D03*
G01*
X30888025Y5565216D03*
G01*
X30888025Y5382209D03*
G01*
X30998033Y5382209D03*
G01*
X30998033Y5565216D03*
G01*
X30824525Y8105216D03*
G01*
X30824525Y7922209D03*
G01*
X30934533Y7922209D03*
G01*
X30934533Y8105216D03*
G01*
X30888025Y7419416D03*
G01*
X30888025Y7236409D03*
G01*
X30998033Y7236409D03*
G01*
X30998033Y7419416D03*
G01*
X30888025Y6492316D03*
G01*
X30888025Y6309309D03*
G01*
X30998033Y6309309D03*
G01*
X30998033Y6492316D03*
D10*
G01*
X30860618Y5905500D03*
G01*
X30720614Y5905500D03*
D11*
G01*
X31995821Y5666816D03*
G01*
X31995821Y5483809D03*
G01*
X32105828Y5483809D03*
G01*
X32105828Y5666816D03*
G01*
X31995821Y6606616D03*
G01*
X31995821Y6423609D03*
G01*
X32105828Y6423609D03*
G01*
X32105828Y6606616D03*
G01*
X31995821Y7521016D03*
G01*
X31995821Y7338009D03*
G01*
X32105828Y7338009D03*
G01*
X32105828Y7521016D03*
G01*
X32643521Y5666816D03*
G01*
X32643521Y5483809D03*
G01*
X32753528Y5483809D03*
G01*
X32753528Y5666816D03*
G01*
X32643521Y6606616D03*
G01*
X32643521Y6423609D03*
G01*
X32753528Y6423609D03*
G01*
X32753528Y6606616D03*
G01*
X32643521Y7521016D03*
G01*
X32643521Y7338009D03*
G01*
X32753528Y7338009D03*
G01*
X32753528Y7521016D03*
D10*
G01*
X31968414Y6007100D03*
G01*
X31828409Y6007100D03*
G01*
X32616114Y6007100D03*
G01*
X32476109Y6007100D03*
G01*
X33263814Y5905500D03*
G01*
X33123809Y5905500D03*
D11*
G01*
X33291221Y7419416D03*
G01*
X33291221Y7236409D03*
G01*
X33401228Y7236409D03*
G01*
X33401228Y7419416D03*
G01*
X33291221Y6492316D03*
G01*
X33291221Y6309309D03*
G01*
X33401228Y6309309D03*
G01*
X33401228Y6492316D03*
G01*
X33291221Y5565216D03*
G01*
X33291221Y5382209D03*
G01*
X33401228Y5382209D03*
G01*
X33401228Y5565216D03*
D10*
G01*
X34703816Y5905500D03*
G01*
X34563811Y5905500D03*
D11*
G01*
X34731223Y6492316D03*
G01*
X34731223Y6309309D03*
G01*
X34841230Y6309309D03*
G01*
X34841230Y6492316D03*
G01*
X34731223Y7419416D03*
G01*
X34731223Y7236409D03*
G01*
X34841230Y7236409D03*
G01*
X34841230Y7419416D03*
G01*
X34667723Y8105216D03*
G01*
X34667723Y7922209D03*
G01*
X34777730Y7922209D03*
G01*
X34777730Y8105216D03*
G01*
X34731223Y5565216D03*
G01*
X34731223Y5382209D03*
G01*
X34841230Y5382209D03*
G01*
X34841230Y5565216D03*
G01*
X36136021Y5565216D03*
G01*
X36136021Y5382209D03*
G01*
X36246028Y5382209D03*
G01*
X36246028Y5565216D03*
G01*
X36136021Y6492316D03*
G01*
X36136021Y6309309D03*
G01*
X36246028Y6309309D03*
G01*
X36246028Y6492316D03*
G01*
X36136021Y7419416D03*
G01*
X36136021Y7236409D03*
G01*
X36246028Y7236409D03*
G01*
X36246028Y7419416D03*
D10*
G01*
X36108614Y5905500D03*
G01*
X35968609Y5905500D03*
G01*
X36743614Y6007100D03*
G01*
X36603609Y6007100D03*
G01*
X37404014Y6007100D03*
G01*
X37264009Y6007100D03*
D11*
G01*
X36771021Y7521016D03*
G01*
X36771021Y7338009D03*
G01*
X36881028Y7338009D03*
G01*
X36881028Y7521016D03*
G01*
X36771021Y6606616D03*
G01*
X36771021Y6423609D03*
G01*
X36881028Y6423609D03*
G01*
X36881028Y6606616D03*
G01*
X36771021Y5666816D03*
G01*
X36771021Y5483809D03*
G01*
X36881028Y5483809D03*
G01*
X36881028Y5666816D03*
G01*
X37431421Y7521016D03*
G01*
X37431421Y7338009D03*
G01*
X37541428Y7338009D03*
G01*
X37541428Y7521016D03*
G01*
X37431421Y6606616D03*
G01*
X37431421Y6423609D03*
G01*
X37541428Y6423609D03*
G01*
X37541428Y6606616D03*
G01*
X37431421Y5666816D03*
G01*
X37431421Y5483809D03*
G01*
X37541428Y5483809D03*
G01*
X37541428Y5666816D03*
G01*
X38574421Y5565216D03*
G01*
X38574421Y5382209D03*
G01*
X38684428Y5382209D03*
G01*
X38684428Y5565216D03*
G01*
X38510921Y8105216D03*
G01*
X38510921Y7922209D03*
G01*
X38620928Y7922209D03*
G01*
X38620928Y8105216D03*
G01*
X38574421Y7419416D03*
G01*
X38574421Y7236409D03*
G01*
X38684428Y7236409D03*
G01*
X38684428Y7419416D03*
G01*
X38574421Y6492316D03*
G01*
X38574421Y6309309D03*
G01*
X38684428Y6309309D03*
G01*
X38684428Y6492316D03*
D10*
G01*
X38547014Y5905500D03*
G01*
X38407009Y5905500D03*
G01*
X39981200Y5905500D03*
G01*
X39841195Y5905500D03*
D11*
G01*
X40008606Y5565216D03*
G01*
X40008606Y5382209D03*
G01*
X40118614Y5382209D03*
G01*
X40118614Y5565216D03*
G01*
X40008606Y6492316D03*
G01*
X40008606Y6309309D03*
G01*
X40118614Y6309309D03*
G01*
X40118614Y6492316D03*
G01*
X40008606Y7419416D03*
G01*
X40008606Y7236409D03*
G01*
X40118614Y7236409D03*
G01*
X40118614Y7419416D03*
G01*
X43545912Y5133416D03*
G01*
X43545912Y4950409D03*
G01*
X43655919Y4950409D03*
G01*
X43655919Y5133416D03*
G01*
X42593412Y5133416D03*
G01*
X42593412Y4950409D03*
G01*
X42703419Y4950409D03*
G01*
X42703419Y5133416D03*
D10*
G01*
X41753205Y5448300D03*
G01*
X41613200Y5448300D03*
D11*
G01*
X41628212Y5133416D03*
G01*
X41628212Y4950409D03*
G01*
X41738219Y4950409D03*
G01*
X41738219Y5133416D03*
D10*
G01*
X41753205Y7734300D03*
G01*
X41613200Y7734300D03*
D11*
G01*
X43545912Y7419416D03*
G01*
X43545912Y7236409D03*
G01*
X43655919Y7236409D03*
G01*
X43655919Y7419416D03*
G01*
X42593412Y7419416D03*
G01*
X42593412Y7236409D03*
G01*
X42703419Y7236409D03*
G01*
X42703419Y7419416D03*
G01*
X41628212Y7419416D03*
G01*
X41628212Y7236409D03*
G01*
X41738219Y7236409D03*
G01*
X41738219Y7419416D03*
G01*
X13076809Y5565216D03*
G01*
X13076809Y5382209D03*
G01*
X13186816Y5382209D03*
G01*
X13186816Y5565216D03*
G01*
X13076809Y6492316D03*
G01*
X13076809Y6309309D03*
G01*
X13186816Y6309309D03*
G01*
X13186816Y6492316D03*
G01*
X13076809Y7419416D03*
G01*
X13076809Y7236409D03*
G01*
X13186816Y7236409D03*
G01*
X13186816Y7419416D03*
D10*
G01*
X13049402Y5905500D03*
G01*
X12909397Y5905500D03*
D11*
G01*
X13711809Y7521016D03*
G01*
X13711809Y7338009D03*
G01*
X13821816Y7338009D03*
G01*
X13821816Y7521016D03*
G01*
X13711809Y6606616D03*
G01*
X13711809Y6423609D03*
G01*
X13821816Y6423609D03*
G01*
X13821816Y6606616D03*
G01*
X13711809Y5666816D03*
G01*
X13711809Y5483809D03*
G01*
X13821816Y5483809D03*
G01*
X13821816Y5666816D03*
G01*
X14372209Y7521016D03*
G01*
X14372209Y7338009D03*
G01*
X14482216Y7338009D03*
G01*
X14482216Y7521016D03*
G01*
X14372209Y6606616D03*
G01*
X14372209Y6423609D03*
G01*
X14482216Y6423609D03*
G01*
X14482216Y6606616D03*
G01*
X14372209Y5666816D03*
G01*
X14372209Y5483809D03*
G01*
X14482216Y5483809D03*
G01*
X14482216Y5666816D03*
G01*
X11667109Y5565216D03*
G01*
X11667109Y5382209D03*
G01*
X11777116Y5382209D03*
G01*
X11777116Y5565216D03*
G01*
X11603609Y8105216D03*
G01*
X11603609Y7922209D03*
G01*
X11713616Y7922209D03*
G01*
X11713616Y8105216D03*
G01*
X11667109Y7419416D03*
G01*
X11667109Y7236409D03*
G01*
X11777116Y7236409D03*
G01*
X11777116Y7419416D03*
G01*
X11667109Y6492316D03*
G01*
X11667109Y6309309D03*
G01*
X11777116Y6309309D03*
G01*
X11777116Y6492316D03*
D10*
G01*
X11639702Y5905500D03*
G01*
X11499697Y5905500D03*
D11*
G01*
X8936609Y5666816D03*
G01*
X8936609Y5483809D03*
G01*
X9046616Y5483809D03*
G01*
X9046616Y5666816D03*
G01*
X8936609Y6606616D03*
G01*
X8936609Y6423609D03*
G01*
X9046616Y6423609D03*
G01*
X9046616Y6606616D03*
G01*
X8936609Y7521016D03*
G01*
X8936609Y7338009D03*
G01*
X9046616Y7338009D03*
G01*
X9046616Y7521016D03*
G01*
X9584309Y5666816D03*
G01*
X9584309Y5483809D03*
G01*
X9694316Y5483809D03*
G01*
X9694316Y5666816D03*
G01*
X9584309Y6606616D03*
G01*
X9584309Y6423609D03*
G01*
X9694316Y6423609D03*
G01*
X9694316Y6606616D03*
G01*
X9584309Y7521016D03*
G01*
X9584309Y7338009D03*
G01*
X9694316Y7338009D03*
G01*
X9694316Y7521016D03*
D10*
G01*
X8909202Y6007100D03*
G01*
X8769197Y6007100D03*
G01*
X9556902Y6007100D03*
G01*
X9416897Y6007100D03*
G01*
X7791602Y5905500D03*
G01*
X7651597Y5905500D03*
D11*
G01*
X7819009Y6492316D03*
G01*
X7819009Y6309309D03*
G01*
X7929016Y6309309D03*
G01*
X7929016Y6492316D03*
G01*
X7819009Y7419416D03*
G01*
X7819009Y7236409D03*
G01*
X7929016Y7236409D03*
G01*
X7929016Y7419416D03*
G01*
X7755509Y8105216D03*
G01*
X7755509Y7922209D03*
G01*
X7865516Y7922209D03*
G01*
X7865516Y8105216D03*
D10*
G01*
X10204602Y5905500D03*
G01*
X10064597Y5905500D03*
D11*
G01*
X10232009Y7419416D03*
G01*
X10232009Y7236409D03*
G01*
X10342016Y7236409D03*
G01*
X10342016Y7419416D03*
G01*
X10232009Y6492316D03*
G01*
X10232009Y6309309D03*
G01*
X10342016Y6309309D03*
G01*
X10342016Y6492316D03*
G01*
X10232009Y5565216D03*
G01*
X10232009Y5382209D03*
G01*
X10342016Y5382209D03*
G01*
X10342016Y5565216D03*
G01*
X7819009Y5565216D03*
G01*
X7819009Y5382209D03*
G01*
X7929016Y5382209D03*
G01*
X7929016Y5565216D03*
G01*
X6422009Y5565216D03*
G01*
X6422009Y5382209D03*
G01*
X6532016Y5382209D03*
G01*
X6532016Y5565216D03*
G01*
X6422009Y6492316D03*
G01*
X6422009Y6309309D03*
G01*
X6532016Y6309309D03*
G01*
X6532016Y6492316D03*
G01*
X6422009Y7419416D03*
G01*
X6422009Y7236409D03*
G01*
X6532016Y7236409D03*
G01*
X6532016Y7419416D03*
G01*
X3196209Y7419416D03*
G01*
X3196209Y7236409D03*
G01*
X3306216Y7236409D03*
G01*
X3306216Y7419416D03*
G01*
X4161409Y7419416D03*
G01*
X4161409Y7236409D03*
G01*
X4271416Y7236409D03*
G01*
X4271416Y7419416D03*
G01*
X5113909Y7419416D03*
G01*
X5113909Y7236409D03*
G01*
X5223916Y7236409D03*
G01*
X5223916Y7419416D03*
G01*
X3196209Y5133416D03*
G01*
X3196209Y4950409D03*
G01*
X3306216Y4950409D03*
G01*
X3306216Y5133416D03*
D10*
G01*
X3321202Y5448300D03*
G01*
X3181197Y5448300D03*
D11*
G01*
X4161409Y5133416D03*
G01*
X4161409Y4950409D03*
G01*
X4271416Y4950409D03*
G01*
X4271416Y5133416D03*
G01*
X5113909Y5133416D03*
G01*
X5113909Y4950409D03*
G01*
X5223916Y4950409D03*
G01*
X5223916Y5133416D03*
D10*
G01*
X3321202Y7734300D03*
G01*
X3181197Y7734300D03*
G01*
X6394602Y5905500D03*
G01*
X6254597Y5905500D03*
M02*
