G04 Layer: TopSilkscreenLayer*
G04 EasyEDA v6.5.34, 2023-10-02 19:34:43*
G04 56d437602cc94884939750fcd72203e9,5a6b42c53f6a479593ecc07194224c93,10*
G04 Gerber Generator version 0.2*
G04 Scale: 100 percent, Rotated: No, Reflected: No *
G04 Dimensions in millimeters *
G04 leading zeros omitted , absolute positions ,4 integer and 5 decimal *
%FSLAX45Y45*%
%MOMM*%

%ADD10C,0.2032*%

%LPD*%
D10*
X40005000Y409447D02*
G01*
X39994077Y420370D01*
X39977822Y425957D01*
X39955977Y425957D01*
X39939722Y420370D01*
X39928800Y409447D01*
X39928800Y398526D01*
X39934134Y387604D01*
X39939722Y382270D01*
X39950643Y376681D01*
X39983156Y366013D01*
X39994077Y360426D01*
X39999666Y355092D01*
X40005000Y344170D01*
X40005000Y327660D01*
X39994077Y316737D01*
X39977822Y311404D01*
X39955977Y311404D01*
X39939722Y316737D01*
X39928800Y327660D01*
X40041068Y425957D02*
G01*
X40041068Y344170D01*
X40046656Y327660D01*
X40057324Y316737D01*
X40073834Y311404D01*
X40084756Y311404D01*
X40101011Y316737D01*
X40111934Y327660D01*
X40117522Y344170D01*
X40117522Y425957D01*
X40153336Y425957D02*
G01*
X40153336Y311404D01*
X40153336Y425957D02*
G01*
X40202611Y425957D01*
X40218868Y420370D01*
X40224456Y415036D01*
X40229790Y404113D01*
X40229790Y393192D01*
X40224456Y382270D01*
X40218868Y376681D01*
X40202611Y371347D01*
X40153336Y371347D02*
G01*
X40202611Y371347D01*
X40218868Y366013D01*
X40224456Y360426D01*
X40229790Y349504D01*
X40229790Y333247D01*
X40224456Y322326D01*
X40218868Y316737D01*
X40202611Y311404D01*
X40153336Y311404D01*
X40342058Y409447D02*
G01*
X40331390Y420370D01*
X40314879Y425957D01*
X40293036Y425957D01*
X40276779Y420370D01*
X40265858Y409447D01*
X40265858Y398526D01*
X40271191Y387604D01*
X40276779Y382270D01*
X40287702Y376681D01*
X40320468Y366013D01*
X40331390Y360426D01*
X40336724Y355092D01*
X40342058Y344170D01*
X40342058Y327660D01*
X40331390Y316737D01*
X40314879Y311404D01*
X40293036Y311404D01*
X40276779Y316737D01*
X40265858Y327660D01*
X40416479Y425957D02*
G01*
X40416479Y311404D01*
X40378125Y425957D02*
G01*
X40454579Y425957D01*
X40534082Y425957D02*
G01*
X40490648Y311404D01*
X40534082Y425957D02*
G01*
X40577770Y311404D01*
X40506904Y349504D02*
G01*
X40561513Y349504D01*
X40651938Y425957D02*
G01*
X40651938Y311404D01*
X40613838Y425957D02*
G01*
X40690291Y425957D01*
X40726106Y425957D02*
G01*
X40726106Y311404D01*
X40794940Y425957D02*
G01*
X40784018Y420370D01*
X40773096Y409447D01*
X40767508Y398526D01*
X40762174Y382270D01*
X40762174Y355092D01*
X40767508Y338581D01*
X40773096Y327660D01*
X40784018Y316737D01*
X40794940Y311404D01*
X40816784Y311404D01*
X40827706Y316737D01*
X40838627Y327660D01*
X40843961Y338581D01*
X40849550Y355092D01*
X40849550Y382270D01*
X40843961Y398526D01*
X40838627Y409447D01*
X40827706Y420370D01*
X40816784Y425957D01*
X40794940Y425957D01*
X40885363Y425957D02*
G01*
X40885363Y311404D01*
X40885363Y425957D02*
G01*
X40961818Y311404D01*
X40961818Y425957D02*
G01*
X40961818Y311404D01*
X41092627Y425957D02*
G01*
X41152825Y425957D01*
X41120059Y382270D01*
X41136316Y382270D01*
X41147238Y376681D01*
X41152825Y371347D01*
X41158159Y355092D01*
X41158159Y344170D01*
X41152825Y327660D01*
X41141904Y316737D01*
X41125393Y311404D01*
X41109138Y311404D01*
X41092627Y316737D01*
X41087293Y322326D01*
X41081706Y333247D01*
X41194227Y425957D02*
G01*
X41194227Y344170D01*
X41199561Y327660D01*
X41210484Y316737D01*
X41226993Y311404D01*
X41237916Y311404D01*
X41254172Y316737D01*
X41265093Y327660D01*
X41270427Y344170D01*
X41270427Y425957D01*
X41434258Y425957D02*
G01*
X41390570Y311404D01*
X41434258Y425957D02*
G01*
X41477691Y311404D01*
X41406825Y349504D02*
G01*
X41461436Y349504D01*
X41513759Y425957D02*
G01*
X41513759Y311404D01*
X41513759Y425957D02*
G01*
X41590213Y311404D01*
X41590213Y425957D02*
G01*
X41590213Y311404D01*
X41626282Y425957D02*
G01*
X41626282Y311404D01*
X41626282Y425957D02*
G01*
X41702482Y311404D01*
X41702482Y425957D02*
G01*
X41702482Y311404D01*
X41738550Y425957D02*
G01*
X41738550Y344170D01*
X41743884Y327660D01*
X41754806Y316737D01*
X41771316Y311404D01*
X41782238Y311404D01*
X41798493Y316737D01*
X41809416Y327660D01*
X41815004Y344170D01*
X41815004Y425957D01*
X41850818Y425957D02*
G01*
X41850818Y311404D01*
X41850818Y425957D02*
G01*
X41927272Y311404D01*
X41927272Y425957D02*
G01*
X41927272Y311404D01*
X42045127Y398526D02*
G01*
X42039540Y409447D01*
X42028618Y420370D01*
X42017696Y425957D01*
X41996106Y425957D01*
X41985184Y420370D01*
X41974261Y409447D01*
X41968674Y398526D01*
X41963340Y382270D01*
X41963340Y355092D01*
X41968674Y338581D01*
X41974261Y327660D01*
X41985184Y316737D01*
X41996106Y311404D01*
X42017696Y311404D01*
X42028618Y316737D01*
X42039540Y327660D01*
X42045127Y338581D01*
X42081196Y425957D02*
G01*
X42081196Y311404D01*
X42160698Y425957D02*
G01*
X42117009Y311404D01*
X42160698Y425957D02*
G01*
X42204386Y311404D01*
X42133520Y349504D02*
G01*
X42187875Y349504D01*
X42278554Y425957D02*
G01*
X42278554Y311404D01*
X42240454Y425957D02*
G01*
X42316654Y425957D01*
X42385488Y425957D02*
G01*
X42374566Y420370D01*
X42363643Y409447D01*
X42358056Y398526D01*
X42352722Y382270D01*
X42352722Y355092D01*
X42358056Y338581D01*
X42363643Y327660D01*
X42374566Y316737D01*
X42385488Y311404D01*
X42407332Y311404D01*
X42418254Y316737D01*
X42429175Y327660D01*
X42434509Y338581D01*
X42440098Y355092D01*
X42440098Y382270D01*
X42434509Y398526D01*
X42429175Y409447D01*
X42418254Y420370D01*
X42407332Y425957D01*
X42385488Y425957D01*
X42475911Y425957D02*
G01*
X42475911Y311404D01*
X42475911Y425957D02*
G01*
X42525188Y425957D01*
X42541443Y420370D01*
X42546777Y415036D01*
X42552366Y404113D01*
X42552366Y393192D01*
X42546777Y382270D01*
X42541443Y376681D01*
X42525188Y371347D01*
X42475911Y371347D01*
X42514266Y371347D02*
G01*
X42552366Y311404D01*
X42748708Y409447D02*
G01*
X42737786Y420370D01*
X42721529Y425957D01*
X42699686Y425957D01*
X42683175Y420370D01*
X42672254Y409447D01*
X42672254Y398526D01*
X42677841Y387604D01*
X42683175Y382270D01*
X42694098Y376681D01*
X42726863Y366013D01*
X42737786Y360426D01*
X42743374Y355092D01*
X42748708Y344170D01*
X42748708Y327660D01*
X42737786Y316737D01*
X42721529Y311404D01*
X42699686Y311404D01*
X42683175Y316737D01*
X42672254Y327660D01*
X42784775Y425957D02*
G01*
X42784775Y311404D01*
X42784775Y425957D02*
G01*
X42833798Y425957D01*
X42850054Y420370D01*
X42855641Y415036D01*
X42860975Y404113D01*
X42860975Y387604D01*
X42855641Y376681D01*
X42850054Y371347D01*
X42833798Y366013D01*
X42784775Y366013D01*
X42940732Y425957D02*
G01*
X42897043Y311404D01*
X42940732Y425957D02*
G01*
X42984420Y311404D01*
X42913554Y349504D02*
G01*
X42967909Y349504D01*
X43102275Y398526D02*
G01*
X43096688Y409447D01*
X43085766Y420370D01*
X43074843Y425957D01*
X43053000Y425957D01*
X43042077Y420370D01*
X43031156Y409447D01*
X43025822Y398526D01*
X43020234Y382270D01*
X43020234Y355092D01*
X43025822Y338581D01*
X43031156Y327660D01*
X43042077Y316737D01*
X43053000Y311404D01*
X43074843Y311404D01*
X43085766Y316737D01*
X43096688Y327660D01*
X43102275Y338581D01*
X43138090Y425957D02*
G01*
X43138090Y311404D01*
X43138090Y425957D02*
G01*
X43208956Y425957D01*
X43138090Y371347D02*
G01*
X43181777Y371347D01*
X43138090Y311404D02*
G01*
X43208956Y311404D01*
X43245024Y425957D02*
G01*
X43245024Y311404D01*
X43245024Y425957D02*
G01*
X43294046Y425957D01*
X43310556Y420370D01*
X43315890Y415036D01*
X43321477Y404113D01*
X43321477Y393192D01*
X43315890Y382270D01*
X43310556Y376681D01*
X43294046Y371347D01*
X43245024Y371347D01*
X43283377Y371347D02*
G01*
X43321477Y311404D01*
X43441366Y360426D02*
G01*
X43539663Y360426D01*
X43697906Y425957D02*
G01*
X43697906Y311404D01*
X43659552Y425957D02*
G01*
X43736006Y425957D01*
X43804586Y425957D02*
G01*
X43793918Y420370D01*
X43782996Y409447D01*
X43777408Y398526D01*
X43772074Y382270D01*
X43772074Y355092D01*
X43777408Y338581D01*
X43782996Y327660D01*
X43793918Y316737D01*
X43804586Y311404D01*
X43826429Y311404D01*
X43837352Y316737D01*
X43848274Y327660D01*
X43853861Y338581D01*
X43859196Y355092D01*
X43859196Y382270D01*
X43853861Y398526D01*
X43848274Y409447D01*
X43837352Y420370D01*
X43826429Y425957D01*
X43804586Y425957D01*
X43895263Y425957D02*
G01*
X43895263Y311404D01*
X43895263Y425957D02*
G01*
X43944286Y425957D01*
X43960796Y420370D01*
X43966129Y415036D01*
X43971718Y404113D01*
X43971718Y387604D01*
X43966129Y376681D01*
X43960796Y371347D01*
X43944286Y366013D01*
X43895263Y366013D01*
X41224194Y222757D02*
G01*
X41224194Y108204D01*
X41224194Y222757D02*
G01*
X41273216Y222757D01*
X41289472Y217170D01*
X41295060Y211836D01*
X41300394Y200913D01*
X41300394Y184404D01*
X41295060Y173481D01*
X41289472Y168147D01*
X41273216Y162813D01*
X41224194Y162813D01*
X41380150Y222757D02*
G01*
X41336462Y108204D01*
X41380150Y222757D02*
G01*
X41423838Y108204D01*
X41352718Y146304D02*
G01*
X41407328Y146304D01*
X41459652Y222757D02*
G01*
X41459652Y108204D01*
X41459652Y222757D02*
G01*
X41508928Y222757D01*
X41525184Y217170D01*
X41530772Y211836D01*
X41536106Y200913D01*
X41536106Y189992D01*
X41530772Y179070D01*
X41525184Y173481D01*
X41508928Y168147D01*
X41459652Y168147D01*
X41498006Y168147D02*
G01*
X41536106Y108204D01*
X41610274Y222757D02*
G01*
X41610274Y108204D01*
X41572174Y222757D02*
G01*
X41648374Y222757D01*
X41768516Y222757D02*
G01*
X41768516Y108204D01*
X41768516Y222757D02*
G01*
X41844970Y108204D01*
X41844970Y222757D02*
G01*
X41844970Y108204D01*
X41880784Y222757D02*
G01*
X41880784Y140970D01*
X41886372Y124460D01*
X41897294Y113537D01*
X41913550Y108204D01*
X41924472Y108204D01*
X41940728Y113537D01*
X41951650Y124460D01*
X41957238Y140970D01*
X41957238Y222757D01*
X41993306Y222757D02*
G01*
X41993306Y108204D01*
X41993306Y222757D02*
G01*
X42036740Y108204D01*
X42080428Y222757D02*
G01*
X42036740Y108204D01*
X42080428Y222757D02*
G01*
X42080428Y108204D01*
X42116496Y222757D02*
G01*
X42116496Y108204D01*
X42116496Y222757D02*
G01*
X42165518Y222757D01*
X42182028Y217170D01*
X42187362Y211836D01*
X42192950Y200913D01*
X42192950Y189992D01*
X42187362Y179070D01*
X42182028Y173481D01*
X42165518Y168147D01*
X42116496Y168147D02*
G01*
X42165518Y168147D01*
X42182028Y162813D01*
X42187362Y157226D01*
X42192950Y146304D01*
X42192950Y130047D01*
X42187362Y119126D01*
X42182028Y113537D01*
X42165518Y108204D01*
X42116496Y108204D01*
X42228764Y222757D02*
G01*
X42228764Y108204D01*
X42228764Y222757D02*
G01*
X42299630Y222757D01*
X42228764Y168147D02*
G01*
X42272452Y168147D01*
X42228764Y108204D02*
G01*
X42299630Y108204D01*
X42335698Y222757D02*
G01*
X42335698Y108204D01*
X42335698Y222757D02*
G01*
X42384720Y222757D01*
X42401230Y217170D01*
X42406564Y211836D01*
X42412152Y200913D01*
X42412152Y189992D01*
X42406564Y179070D01*
X42401230Y173481D01*
X42384720Y168147D01*
X42335698Y168147D01*
X42374052Y168147D02*
G01*
X42412152Y108204D01*
X42532040Y200913D02*
G01*
X42542962Y206247D01*
X42559472Y222757D01*
X42559472Y108204D01*
X42622718Y222757D02*
G01*
X42606208Y217170D01*
X42600874Y206247D01*
X42600874Y195326D01*
X42606208Y184404D01*
X42617130Y179070D01*
X42638974Y173481D01*
X42655484Y168147D01*
X42666406Y157226D01*
X42671740Y146304D01*
X42671740Y130047D01*
X42666406Y119126D01*
X42660818Y113537D01*
X42644562Y108204D01*
X42622718Y108204D01*
X42606208Y113537D01*
X42600874Y119126D01*
X42595286Y130047D01*
X42595286Y146304D01*
X42600874Y157226D01*
X42611796Y168147D01*
X42628052Y173481D01*
X42649896Y179070D01*
X42660818Y184404D01*
X42666406Y195326D01*
X42666406Y206247D01*
X42660818Y217170D01*
X42644562Y222757D01*
X42622718Y222757D01*
X42784008Y222757D02*
G01*
X42729652Y108204D01*
X42707808Y222757D02*
G01*
X42784008Y222757D01*
X42852842Y222757D02*
G01*
X42836586Y217170D01*
X42825664Y200913D01*
X42820076Y173481D01*
X42820076Y157226D01*
X42825664Y130047D01*
X42836586Y113537D01*
X42852842Y108204D01*
X42863764Y108204D01*
X42880020Y113537D01*
X42890942Y130047D01*
X42896530Y157226D01*
X42896530Y173481D01*
X42890942Y200913D01*
X42880020Y217170D01*
X42863764Y222757D01*
X42852842Y222757D01*
X42932598Y157226D02*
G01*
X43030642Y157226D01*
X43099476Y222757D02*
G01*
X43082966Y217170D01*
X43072044Y200913D01*
X43066710Y173481D01*
X43066710Y157226D01*
X43072044Y130047D01*
X43082966Y113537D01*
X43099476Y108204D01*
X43110398Y108204D01*
X43126654Y113537D01*
X43137576Y130047D01*
X43142910Y157226D01*
X43142910Y173481D01*
X43137576Y200913D01*
X43126654Y217170D01*
X43110398Y222757D01*
X43099476Y222757D01*
X43184566Y195326D02*
G01*
X43184566Y200913D01*
X43189900Y211836D01*
X43195488Y217170D01*
X43206410Y222757D01*
X43228000Y222757D01*
X43238922Y217170D01*
X43244510Y211836D01*
X43249844Y200913D01*
X43249844Y189992D01*
X43244510Y179070D01*
X43233588Y162813D01*
X43178978Y108204D01*
X43255432Y108204D01*
X43324012Y222757D02*
G01*
X43307756Y217170D01*
X43296834Y200913D01*
X43291500Y173481D01*
X43291500Y157226D01*
X43296834Y130047D01*
X43307756Y113537D01*
X43324012Y108204D01*
X43334934Y108204D01*
X43351444Y113537D01*
X43362366Y130047D01*
X43367700Y157226D01*
X43367700Y173481D01*
X43362366Y200913D01*
X43351444Y217170D01*
X43334934Y222757D01*
X43324012Y222757D01*
X43409102Y195326D02*
G01*
X43409102Y200913D01*
X43414690Y211836D01*
X43420024Y217170D01*
X43430946Y222757D01*
X43452790Y222757D01*
X43463712Y217170D01*
X43469300Y211836D01*
X43474634Y200913D01*
X43474634Y189992D01*
X43469300Y179070D01*
X43458378Y162813D01*
X43403768Y108204D01*
X43480222Y108204D01*
X43600110Y222757D02*
G01*
X43643798Y108204D01*
X43687486Y222757D02*
G01*
X43643798Y108204D01*
X43756066Y222757D02*
G01*
X43739810Y217170D01*
X43728888Y200913D01*
X43723300Y173481D01*
X43723300Y157226D01*
X43728888Y130047D01*
X43739810Y113537D01*
X43756066Y108204D01*
X43766988Y108204D01*
X43783498Y113537D01*
X43794420Y130047D01*
X43799754Y157226D01*
X43799754Y173481D01*
X43794420Y200913D01*
X43783498Y217170D01*
X43766988Y222757D01*
X43756066Y222757D01*
X43841156Y135381D02*
G01*
X43835822Y130047D01*
X43841156Y124460D01*
X43846744Y130047D01*
X43841156Y135381D01*
X43888146Y195326D02*
G01*
X43888146Y200913D01*
X43893480Y211836D01*
X43899068Y217170D01*
X43909990Y222757D01*
X43931834Y222757D01*
X43942756Y217170D01*
X43948090Y211836D01*
X43953678Y200913D01*
X43953678Y189992D01*
X43948090Y179070D01*
X43937168Y162813D01*
X43882558Y108204D01*
X43959012Y108204D01*
M02*
