G04 Layer: BottomSilkscreenLayer*
G04 EasyEDA v6.5.34, 2023-08-21 18:11:39*
G04 edb4cfad772943f9a9c9805ee4eed470,5a6b42c53f6a479593ecc07194224c93,10*
G04 Gerber Generator version 0.2*
G04 Scale: 100 percent, Rotated: No, Reflected: No *
G04 Dimensions in millimeters *
G04 leading zeros omitted , absolute positions ,4 integer and 5 decimal *
%FSLAX45Y45*%
%MOMM*%

%ADD10C,0.2032*%
%ADD11C,0.1520*%
%ADD12C,0.2540*%

%LPD*%
D10*
X40872308Y197289D02*
G01*
X40872308Y82745D01*
X40872308Y197289D02*
G01*
X40823217Y197289D01*
X40806855Y191836D01*
X40801399Y186382D01*
X40795945Y175473D01*
X40795945Y159108D01*
X40801399Y148199D01*
X40806855Y142745D01*
X40823217Y137289D01*
X40872308Y137289D01*
X40716308Y197289D02*
G01*
X40759943Y82745D01*
X40716308Y197289D02*
G01*
X40672672Y82745D01*
X40743581Y120926D02*
G01*
X40689037Y120926D01*
X40636672Y197289D02*
G01*
X40636672Y82745D01*
X40636672Y197289D02*
G01*
X40587582Y197289D01*
X40571219Y191836D01*
X40565763Y186382D01*
X40560309Y175473D01*
X40560309Y164564D01*
X40565763Y153654D01*
X40571219Y148199D01*
X40587582Y142745D01*
X40636672Y142745D01*
X40598491Y142745D02*
G01*
X40560309Y82745D01*
X40486126Y197289D02*
G01*
X40486126Y82745D01*
X40524309Y197289D02*
G01*
X40447945Y197289D01*
X40327945Y197289D02*
G01*
X40327945Y82745D01*
X40327945Y197289D02*
G01*
X40251583Y82745D01*
X40251583Y197289D02*
G01*
X40251583Y82745D01*
X40215581Y197289D02*
G01*
X40215581Y115473D01*
X40210127Y99108D01*
X40199218Y88199D01*
X40182855Y82745D01*
X40171946Y82745D01*
X40155581Y88199D01*
X40144674Y99108D01*
X40139218Y115473D01*
X40139218Y197289D01*
X40103219Y197289D02*
G01*
X40103219Y82745D01*
X40103219Y197289D02*
G01*
X40059582Y82745D01*
X40015947Y197289D02*
G01*
X40059582Y82745D01*
X40015947Y197289D02*
G01*
X40015947Y82745D01*
X39979945Y197289D02*
G01*
X39979945Y82745D01*
X39979945Y197289D02*
G01*
X39930854Y197289D01*
X39914492Y191836D01*
X39909038Y186382D01*
X39903582Y175473D01*
X39903582Y164564D01*
X39909038Y153654D01*
X39914492Y148199D01*
X39930854Y142745D01*
X39979945Y142745D02*
G01*
X39930854Y142745D01*
X39914492Y137289D01*
X39909038Y131836D01*
X39903582Y120926D01*
X39903582Y104564D01*
X39909038Y93654D01*
X39914492Y88199D01*
X39930854Y82745D01*
X39979945Y82745D01*
X39867583Y197289D02*
G01*
X39867583Y82745D01*
X39867583Y197289D02*
G01*
X39796674Y197289D01*
X39867583Y142745D02*
G01*
X39823946Y142745D01*
X39867583Y82745D02*
G01*
X39796674Y82745D01*
X39760674Y197289D02*
G01*
X39760674Y82745D01*
X39760674Y197289D02*
G01*
X39711584Y197289D01*
X39695219Y191836D01*
X39689765Y186382D01*
X39684309Y175473D01*
X39684309Y164564D01*
X39689765Y153654D01*
X39695219Y148199D01*
X39711584Y142745D01*
X39760674Y142745D01*
X39722493Y142745D02*
G01*
X39684309Y82745D01*
X39564309Y175473D02*
G01*
X39553400Y180926D01*
X39537038Y197289D01*
X39537038Y82745D01*
X39473766Y197289D02*
G01*
X39490129Y191836D01*
X39495582Y180926D01*
X39495582Y170017D01*
X39490129Y159108D01*
X39479220Y153654D01*
X39457401Y148199D01*
X39441038Y142745D01*
X39430129Y131836D01*
X39424676Y120926D01*
X39424676Y104564D01*
X39430129Y93654D01*
X39435582Y88199D01*
X39451948Y82745D01*
X39473766Y82745D01*
X39490129Y88199D01*
X39495582Y93654D01*
X39501038Y104564D01*
X39501038Y120926D01*
X39495582Y131836D01*
X39484675Y142745D01*
X39468310Y148199D01*
X39446492Y153654D01*
X39435582Y159108D01*
X39430129Y170017D01*
X39430129Y180926D01*
X39435582Y191836D01*
X39451948Y197289D01*
X39473766Y197289D01*
X39323220Y197289D02*
G01*
X39377764Y197289D01*
X39383220Y148199D01*
X39377764Y153654D01*
X39361402Y159108D01*
X39345039Y159108D01*
X39328674Y153654D01*
X39317764Y142745D01*
X39312311Y126382D01*
X39312311Y115473D01*
X39317764Y99108D01*
X39328674Y88199D01*
X39345039Y82745D01*
X39361402Y82745D01*
X39377764Y88199D01*
X39383220Y93654D01*
X39388674Y104564D01*
X39265402Y197289D02*
G01*
X39205402Y197289D01*
X39238130Y153654D01*
X39221765Y153654D01*
X39210856Y148199D01*
X39205402Y142745D01*
X39199947Y126382D01*
X39199947Y115473D01*
X39205402Y99108D01*
X39216312Y88199D01*
X39232674Y82745D01*
X39249040Y82745D01*
X39265402Y88199D01*
X39270856Y93654D01*
X39276312Y104564D01*
X39163947Y131836D02*
G01*
X39065766Y131836D01*
X38997039Y197289D02*
G01*
X39013401Y191836D01*
X39024311Y175473D01*
X39029766Y148199D01*
X39029766Y131836D01*
X39024311Y104564D01*
X39013401Y88199D01*
X38997039Y82745D01*
X38986129Y82745D01*
X38969767Y88199D01*
X38958857Y104564D01*
X38953401Y131836D01*
X38953401Y148199D01*
X38958857Y175473D01*
X38969767Y191836D01*
X38986129Y197289D01*
X38997039Y197289D01*
X38917402Y175473D02*
G01*
X38906493Y180926D01*
X38890130Y197289D01*
X38890130Y82745D01*
X38821403Y197289D02*
G01*
X38837765Y191836D01*
X38848675Y175473D01*
X38854131Y148199D01*
X38854131Y131836D01*
X38848675Y104564D01*
X38837765Y88199D01*
X38821403Y82745D01*
X38810493Y82745D01*
X38794131Y88199D01*
X38783221Y104564D01*
X38777765Y131836D01*
X38777765Y148199D01*
X38783221Y175473D01*
X38794131Y191836D01*
X38810493Y197289D01*
X38821403Y197289D01*
X38741766Y175473D02*
G01*
X38730857Y180926D01*
X38714494Y197289D01*
X38714494Y82745D01*
X40795945Y384126D02*
G01*
X40806855Y395036D01*
X40823217Y400489D01*
X40845036Y400489D01*
X40861399Y395036D01*
X40872308Y384126D01*
X40872308Y373217D01*
X40866855Y362308D01*
X40861399Y356854D01*
X40850489Y351399D01*
X40817761Y340489D01*
X40806855Y335036D01*
X40801399Y329582D01*
X40795945Y318673D01*
X40795945Y302308D01*
X40806855Y291399D01*
X40823217Y285945D01*
X40845036Y285945D01*
X40861399Y291399D01*
X40872308Y302308D01*
X40759943Y400489D02*
G01*
X40759943Y285945D01*
X40683581Y400489D02*
G01*
X40683581Y285945D01*
X40759943Y345945D02*
G01*
X40683581Y345945D01*
X40647581Y400489D02*
G01*
X40647581Y318673D01*
X40642125Y302308D01*
X40631219Y291399D01*
X40614854Y285945D01*
X40603944Y285945D01*
X40587582Y291399D01*
X40576672Y302308D01*
X40571219Y318673D01*
X40571219Y400489D01*
X40535217Y400489D02*
G01*
X40535217Y285945D01*
X40535217Y400489D02*
G01*
X40458854Y285945D01*
X40458854Y400489D02*
G01*
X40458854Y285945D01*
X40384674Y400489D02*
G01*
X40384674Y285945D01*
X40422855Y400489D02*
G01*
X40346490Y400489D01*
X40226490Y400489D02*
G01*
X40226490Y285945D01*
X40226490Y400489D02*
G01*
X40177399Y400489D01*
X40161037Y395036D01*
X40155581Y389582D01*
X40150127Y378673D01*
X40150127Y367764D01*
X40155581Y356854D01*
X40161037Y351399D01*
X40177399Y345945D01*
X40226490Y345945D01*
X40188309Y345945D02*
G01*
X40150127Y285945D01*
X40114128Y400489D02*
G01*
X40114128Y285945D01*
X40114128Y400489D02*
G01*
X40043219Y400489D01*
X40114128Y345945D02*
G01*
X40070491Y345945D01*
X40114128Y285945D02*
G01*
X40043219Y285945D01*
X39963582Y400489D02*
G01*
X40007219Y285945D01*
X39963582Y400489D02*
G01*
X39919945Y285945D01*
X39990854Y324126D02*
G01*
X39936310Y324126D01*
X39802127Y373217D02*
G01*
X39807583Y384126D01*
X39818492Y395036D01*
X39829402Y400489D01*
X39851220Y400489D01*
X39862127Y395036D01*
X39873036Y384126D01*
X39878492Y373217D01*
X39883946Y356854D01*
X39883946Y329582D01*
X39878492Y313217D01*
X39873036Y302308D01*
X39862127Y291399D01*
X39851220Y285945D01*
X39829402Y285945D01*
X39818492Y291399D01*
X39807583Y302308D01*
X39802127Y313217D01*
X39727946Y400489D02*
G01*
X39727946Y285945D01*
X39766128Y400489D02*
G01*
X39689765Y400489D01*
X39621038Y400489D02*
G01*
X39631947Y395036D01*
X39642856Y384126D01*
X39648310Y373217D01*
X39653766Y356854D01*
X39653766Y329582D01*
X39648310Y313217D01*
X39642856Y302308D01*
X39631947Y291399D01*
X39621038Y285945D01*
X39599219Y285945D01*
X39588310Y291399D01*
X39577401Y302308D01*
X39571947Y313217D01*
X39566491Y329582D01*
X39566491Y356854D01*
X39571947Y373217D01*
X39577401Y384126D01*
X39588310Y395036D01*
X39599219Y400489D01*
X39621038Y400489D01*
X39530492Y400489D02*
G01*
X39530492Y285945D01*
X39530492Y400489D02*
G01*
X39481401Y400489D01*
X39465039Y395036D01*
X39459583Y389582D01*
X39454129Y378673D01*
X39454129Y367764D01*
X39459583Y356854D01*
X39465039Y351399D01*
X39481401Y345945D01*
X39530492Y345945D01*
X39492311Y345945D02*
G01*
X39454129Y285945D01*
X39334130Y400489D02*
G01*
X39334130Y285945D01*
X39334130Y400489D02*
G01*
X39263220Y400489D01*
X39334130Y345945D02*
G01*
X39290492Y345945D01*
X39227221Y400489D02*
G01*
X39227221Y285945D01*
X39227221Y400489D02*
G01*
X39178130Y400489D01*
X39161765Y395036D01*
X39156312Y389582D01*
X39150856Y378673D01*
X39150856Y367764D01*
X39156312Y356854D01*
X39161765Y351399D01*
X39178130Y345945D01*
X39227221Y345945D01*
X39189040Y345945D02*
G01*
X39150856Y285945D01*
X39082129Y400489D02*
G01*
X39093038Y395036D01*
X39103947Y384126D01*
X39109403Y373217D01*
X39114857Y356854D01*
X39114857Y329582D01*
X39109403Y313217D01*
X39103947Y302308D01*
X39093038Y291399D01*
X39082129Y285945D01*
X39060313Y285945D01*
X39049403Y291399D01*
X39038494Y302308D01*
X39033038Y313217D01*
X39027585Y329582D01*
X39027585Y356854D01*
X39033038Y373217D01*
X39038494Y384126D01*
X39049403Y395036D01*
X39060313Y400489D01*
X39082129Y400489D01*
X38991585Y400489D02*
G01*
X38991585Y285945D01*
X38991585Y400489D02*
G01*
X38915220Y285945D01*
X38915220Y400489D02*
G01*
X38915220Y285945D01*
X38757039Y400489D02*
G01*
X38757039Y285945D01*
X38795220Y400489D02*
G01*
X38718858Y400489D01*
X38682858Y400489D02*
G01*
X38682858Y285945D01*
X38682858Y400489D02*
G01*
X38633768Y400489D01*
X38617403Y395036D01*
X38611949Y389582D01*
X38606493Y378673D01*
X38606493Y362308D01*
X38611949Y351399D01*
X38617403Y345945D01*
X38633768Y340489D01*
X38682858Y340489D01*
X38526859Y400489D02*
G01*
X38570494Y285945D01*
X38526859Y400489D02*
G01*
X38483222Y285945D01*
X38554131Y324126D02*
G01*
X38499585Y324126D01*
X38447223Y400489D02*
G01*
X38447223Y285945D01*
X38447223Y400489D02*
G01*
X38370857Y285945D01*
X38370857Y400489D02*
G01*
X38370857Y285945D01*
X38334858Y400489D02*
G01*
X38334858Y285945D01*
X38334858Y400489D02*
G01*
X38263949Y400489D01*
X38334858Y345945D02*
G01*
X38291223Y345945D01*
X38334858Y285945D02*
G01*
X38263949Y285945D01*
X38227949Y400489D02*
G01*
X38227949Y285945D01*
X38227949Y285945D02*
G01*
X38162496Y285945D01*
X38042496Y400489D02*
G01*
X37998859Y285945D01*
X37955222Y400489D02*
G01*
X37998859Y285945D01*
X37886495Y400489D02*
G01*
X37902860Y395036D01*
X37913769Y378673D01*
X37919223Y351399D01*
X37919223Y335036D01*
X37913769Y307764D01*
X37902860Y291399D01*
X37886495Y285945D01*
X37875585Y285945D01*
X37859223Y291399D01*
X37848313Y307764D01*
X37842860Y335036D01*
X37842860Y351399D01*
X37848313Y378673D01*
X37859223Y395036D01*
X37875585Y400489D01*
X37886495Y400489D01*
X37801405Y313217D02*
G01*
X37806861Y307764D01*
X37801405Y302308D01*
X37795951Y307764D01*
X37801405Y313217D01*
X37759949Y378673D02*
G01*
X37749043Y384126D01*
X37732677Y400489D01*
X37732677Y285945D01*
D11*
X47974143Y191551D02*
G01*
X47974143Y108424D01*
X47979340Y92837D01*
X47984534Y87642D01*
X47994925Y82448D01*
X48005316Y82448D01*
X48015707Y87642D01*
X48020904Y92837D01*
X48026099Y108424D01*
X48026099Y118816D01*
X47939853Y191551D02*
G01*
X47939853Y82448D01*
X47939853Y82448D02*
G01*
X47877509Y82448D01*
X47765286Y165574D02*
G01*
X47770483Y175966D01*
X47780874Y186357D01*
X47791263Y191551D01*
X47812045Y191551D01*
X47822436Y186357D01*
X47832827Y175966D01*
X47838024Y165574D01*
X47843219Y149987D01*
X47843219Y124010D01*
X47838024Y108424D01*
X47832827Y98033D01*
X47822436Y87642D01*
X47812045Y82448D01*
X47791263Y82448D01*
X47780874Y87642D01*
X47770483Y98033D01*
X47765286Y108424D01*
X47679043Y191551D02*
G01*
X47679043Y108424D01*
X47684237Y92837D01*
X47689434Y87642D01*
X47699823Y82448D01*
X47710214Y82448D01*
X47720605Y87642D01*
X47725802Y92837D01*
X47730996Y108424D01*
X47730996Y118816D01*
X47644753Y191551D02*
G01*
X47644753Y82448D01*
X47644753Y82448D02*
G01*
X47582406Y82448D01*
X47470184Y165574D02*
G01*
X47475381Y175966D01*
X47485772Y186357D01*
X47496163Y191551D01*
X47516943Y191551D01*
X47527334Y186357D01*
X47537725Y175966D01*
X47542922Y165574D01*
X47548116Y149987D01*
X47548116Y124010D01*
X47542922Y108424D01*
X47537725Y98033D01*
X47527334Y87642D01*
X47516943Y82448D01*
X47496163Y82448D01*
X47485772Y87642D01*
X47475381Y98033D01*
X47470184Y108424D01*
X47383941Y191551D02*
G01*
X47383941Y108424D01*
X47389135Y92837D01*
X47394332Y87642D01*
X47404723Y82448D01*
X47415114Y82448D01*
X47425503Y87642D01*
X47430700Y92837D01*
X47435894Y108424D01*
X47435894Y118816D01*
X47349651Y191551D02*
G01*
X47349651Y82448D01*
X47349651Y82448D02*
G01*
X47287304Y82448D01*
X47175084Y165574D02*
G01*
X47180279Y175966D01*
X47190670Y186357D01*
X47201061Y191551D01*
X47221843Y191551D01*
X47232234Y186357D01*
X47242623Y175966D01*
X47247820Y165574D01*
X47253014Y149987D01*
X47253014Y124010D01*
X47247820Y108424D01*
X47242623Y98033D01*
X47232234Y87642D01*
X47221843Y82448D01*
X47201061Y82448D01*
X47190670Y87642D01*
X47180279Y98033D01*
X47175084Y108424D01*
X47088839Y191551D02*
G01*
X47088839Y108424D01*
X47094033Y92837D01*
X47099230Y87642D01*
X47109621Y82448D01*
X47120012Y82448D01*
X47130403Y87642D01*
X47135597Y92837D01*
X47140794Y108424D01*
X47140794Y118816D01*
X47054549Y191551D02*
G01*
X47054549Y82448D01*
X47054549Y82448D02*
G01*
X46992204Y82448D01*
X46879982Y165574D02*
G01*
X46885176Y175966D01*
X46895567Y186357D01*
X46905959Y191551D01*
X46926741Y191551D01*
X46937132Y186357D01*
X46947523Y175966D01*
X46952717Y165574D01*
X46957914Y149987D01*
X46957914Y124010D01*
X46952717Y108424D01*
X46947523Y98033D01*
X46937132Y87642D01*
X46926741Y82448D01*
X46905959Y82448D01*
X46895567Y87642D01*
X46885176Y98033D01*
X46879982Y108424D01*
D12*
X18627996Y13115317D02*
G01*
X21929996Y13115317D01*
X22183996Y12861317D01*
X22183996Y8543317D01*
X21929996Y8289317D01*
X18627996Y8289317D01*
X18373996Y8543317D01*
X18373996Y12861317D01*
X18627996Y13115317D01*
X10941596Y13115317D02*
G01*
X14243596Y13115317D01*
X14497596Y12861317D01*
X14497596Y8543317D01*
X14243596Y8289317D01*
X10941596Y8289317D01*
X10687596Y8543317D01*
X10687596Y12861317D01*
X10941596Y13115317D01*
X7098393Y13115317D02*
G01*
X10400393Y13115317D01*
X10654393Y12861317D01*
X10654393Y8543317D01*
X10400393Y8289317D01*
X7098393Y8289317D01*
X6844393Y8543317D01*
X6844393Y12861317D01*
X7098393Y13115317D01*
X7149211Y13102615D02*
G01*
X10349204Y13102615D01*
X10349204Y8702624D01*
X7149211Y8702624D01*
X7149211Y13102615D01*
X10992408Y13102615D02*
G01*
X14192402Y13102615D01*
X14192402Y8702624D01*
X10992408Y8702624D01*
X10992408Y13102615D01*
X18678804Y13102615D02*
G01*
X21878798Y13102615D01*
X21878798Y8702624D01*
X18678804Y8702624D01*
X18678804Y13102615D01*
X0Y13299973D02*
G01*
X1799996Y13299973D01*
X1799996Y0D01*
X0Y0D01*
X0Y13299973D01*
X46463991Y13296900D02*
G01*
X48263987Y13296900D01*
X48263987Y-3073D01*
X46463991Y-3073D01*
X46463991Y13296900D01*
M02*
