G04 Layer: TopSilkscreenLayer*
G04 EasyEDA v6.5.34, 2023-08-21 18:11:39*
G04 edb4cfad772943f9a9c9805ee4eed470,5a6b42c53f6a479593ecc07194224c93,10*
G04 Gerber Generator version 0.2*
G04 Scale: 100 percent, Rotated: No, Reflected: No *
G04 Dimensions in millimeters *
G04 leading zeros omitted , absolute positions ,4 integer and 5 decimal *
%FSLAX45Y45*%
%MOMM*%

%ADD10C,0.2032*%
%ADD11C,0.2540*%
%ADD12C,0.5000*%
%ADD13C,1.0000*%

%LPD*%
D10*
X7542679Y890831D02*
G01*
X7524137Y881687D01*
X7505595Y863145D01*
X7496451Y844603D01*
X7487307Y816917D01*
X7487307Y770689D01*
X7496451Y743003D01*
X7505595Y724715D01*
X7524137Y706173D01*
X7542679Y696775D01*
X7579509Y696775D01*
X7598051Y706173D01*
X7616593Y724715D01*
X7625737Y743003D01*
X7634881Y770689D01*
X7634881Y816917D01*
X7625737Y844603D01*
X7616593Y863145D01*
X7598051Y881687D01*
X7579509Y890831D01*
X7542679Y890831D01*
X7695841Y890831D02*
G01*
X7695841Y696775D01*
X7695841Y890831D02*
G01*
X7779153Y890831D01*
X7806839Y881687D01*
X7815983Y872289D01*
X7825127Y854001D01*
X7825127Y826315D01*
X7815983Y807773D01*
X7806839Y798375D01*
X7779153Y789231D01*
X7695841Y789231D01*
X7886087Y890831D02*
G01*
X7886087Y696775D01*
X7886087Y890831D02*
G01*
X8006229Y890831D01*
X7886087Y798375D02*
G01*
X7960001Y798375D01*
X7886087Y696775D02*
G01*
X8006229Y696775D01*
X8067189Y890831D02*
G01*
X8067189Y696775D01*
X8067189Y890831D02*
G01*
X8196475Y696775D01*
X8196475Y890831D02*
G01*
X8196475Y696775D01*
X9508512Y2622382D02*
G01*
X9499368Y2640924D01*
X9480826Y2659466D01*
X9462538Y2668610D01*
X9425454Y2668610D01*
X9406912Y2659466D01*
X9388624Y2640924D01*
X9379226Y2622382D01*
X9370082Y2594696D01*
X9370082Y2548722D01*
X9379226Y2520782D01*
X9388624Y2502494D01*
X9406912Y2483952D01*
X9425454Y2474808D01*
X9462538Y2474808D01*
X9480826Y2483952D01*
X9499368Y2502494D01*
X9508512Y2520782D01*
X9508512Y2548722D01*
X9462538Y2548722D02*
G01*
X9508512Y2548722D01*
X9569472Y2668610D02*
G01*
X9569472Y2474808D01*
X9569472Y2668610D02*
G01*
X9699012Y2474808D01*
X9699012Y2668610D02*
G01*
X9699012Y2474808D01*
X9759972Y2668610D02*
G01*
X9759972Y2474808D01*
X9759972Y2668610D02*
G01*
X9824488Y2668610D01*
X9852174Y2659466D01*
X9870716Y2640924D01*
X9879860Y2622382D01*
X9889258Y2594696D01*
X9889258Y2548722D01*
X9879860Y2520782D01*
X9870716Y2502494D01*
X9852174Y2483952D01*
X9824488Y2474808D01*
X9759972Y2474808D01*
X7730109Y2622550D02*
G01*
X7720965Y2641092D01*
X7702422Y2659634D01*
X7684134Y2668778D01*
X7647050Y2668778D01*
X7628509Y2659634D01*
X7610220Y2641092D01*
X7600822Y2622550D01*
X7591679Y2594863D01*
X7591679Y2548889D01*
X7600822Y2520950D01*
X7610220Y2502662D01*
X7628509Y2484120D01*
X7647050Y2474976D01*
X7684134Y2474976D01*
X7702422Y2484120D01*
X7720965Y2502662D01*
X7730109Y2520950D01*
X7730109Y2548889D01*
X7684134Y2548889D02*
G01*
X7730109Y2548889D01*
X7791068Y2668778D02*
G01*
X7791068Y2474976D01*
X7791068Y2668778D02*
G01*
X7920609Y2474976D01*
X7920609Y2668778D02*
G01*
X7920609Y2474976D01*
X7981568Y2668778D02*
G01*
X7981568Y2474976D01*
X7981568Y2668778D02*
G01*
X8046084Y2668778D01*
X8073770Y2659634D01*
X8092313Y2641092D01*
X8101456Y2622550D01*
X8110854Y2594863D01*
X8110854Y2548889D01*
X8101456Y2520950D01*
X8092313Y2502662D01*
X8073770Y2484120D01*
X8046084Y2474976D01*
X7981568Y2474976D01*
X11385877Y890831D02*
G01*
X11367335Y881687D01*
X11348793Y863145D01*
X11339649Y844603D01*
X11330505Y816917D01*
X11330505Y770689D01*
X11339649Y743003D01*
X11348793Y724715D01*
X11367335Y706173D01*
X11385877Y696775D01*
X11422707Y696775D01*
X11441249Y706173D01*
X11459791Y724715D01*
X11468935Y743003D01*
X11478079Y770689D01*
X11478079Y816917D01*
X11468935Y844603D01*
X11459791Y863145D01*
X11441249Y881687D01*
X11422707Y890831D01*
X11385877Y890831D01*
X11539039Y890831D02*
G01*
X11539039Y696775D01*
X11539039Y890831D02*
G01*
X11622351Y890831D01*
X11650037Y881687D01*
X11659181Y872289D01*
X11668325Y854001D01*
X11668325Y826315D01*
X11659181Y807773D01*
X11650037Y798375D01*
X11622351Y789231D01*
X11539039Y789231D01*
X11729285Y890831D02*
G01*
X11729285Y696775D01*
X11729285Y890831D02*
G01*
X11849427Y890831D01*
X11729285Y798375D02*
G01*
X11803199Y798375D01*
X11729285Y696775D02*
G01*
X11849427Y696775D01*
X11910387Y890831D02*
G01*
X11910387Y696775D01*
X11910387Y890831D02*
G01*
X12039673Y696775D01*
X12039673Y890831D02*
G01*
X12039673Y696775D01*
X13082983Y2668945D02*
G01*
X13082983Y2474889D01*
X13082983Y2668945D02*
G01*
X13156897Y2474889D01*
X13230811Y2668945D02*
G01*
X13156897Y2474889D01*
X13230811Y2668945D02*
G01*
X13230811Y2474889D01*
X13365685Y2668945D02*
G01*
X13291771Y2474889D01*
X13365685Y2668945D02*
G01*
X13439599Y2474889D01*
X13319457Y2539659D02*
G01*
X13411913Y2539659D01*
X13500559Y2668945D02*
G01*
X13500559Y2474889D01*
X13561519Y2668945D02*
G01*
X13561519Y2474889D01*
X13561519Y2668945D02*
G01*
X13690805Y2474889D01*
X13690805Y2668945D02*
G01*
X13690805Y2474889D01*
X13816281Y2668945D02*
G01*
X13816281Y2474889D01*
X13751765Y2668945D02*
G01*
X13881051Y2668945D01*
X11471249Y2668778D02*
G01*
X11471249Y2474976D01*
X11406479Y2668778D02*
G01*
X11535765Y2668778D01*
X11596725Y2668778D02*
G01*
X11596725Y2474976D01*
X11596725Y2668778D02*
G01*
X11680037Y2668778D01*
X11707723Y2659634D01*
X11716867Y2650489D01*
X11726265Y2631947D01*
X11726265Y2613405D01*
X11716867Y2594863D01*
X11707723Y2585720D01*
X11680037Y2576576D01*
X11596725Y2576576D01*
X11661495Y2576576D02*
G01*
X11726265Y2474976D01*
X11787225Y2668778D02*
G01*
X11787225Y2474976D01*
X11848185Y2668778D02*
G01*
X11848185Y2474976D01*
X11848185Y2668778D02*
G01*
X11931243Y2668778D01*
X11958929Y2659634D01*
X11968073Y2650489D01*
X11977471Y2631947D01*
X11977471Y2604262D01*
X11968073Y2585720D01*
X11958929Y2576576D01*
X11931243Y2567178D01*
X11848185Y2567178D01*
X7827327Y4586478D02*
G01*
X7735125Y4586478D01*
X7725727Y4503420D01*
X7735125Y4512563D01*
X7762811Y4521962D01*
X7790497Y4521962D01*
X7818183Y4512563D01*
X7836725Y4494276D01*
X7845869Y4466589D01*
X7845869Y4448047D01*
X7836725Y4420362D01*
X7818183Y4401820D01*
X7790497Y4392676D01*
X7762811Y4392676D01*
X7735125Y4401820D01*
X7725727Y4410963D01*
X7716583Y4429505D01*
X8036115Y4586478D02*
G01*
X7943913Y4392676D01*
X7906829Y4586478D02*
G01*
X8036115Y4586478D01*
X9618027Y4586478D02*
G01*
X9525825Y4586478D01*
X9516427Y4503420D01*
X9525825Y4512563D01*
X9553511Y4521962D01*
X9581197Y4521962D01*
X9608883Y4512563D01*
X9627425Y4494276D01*
X9636569Y4466589D01*
X9636569Y4448047D01*
X9627425Y4420362D01*
X9608883Y4401820D01*
X9581197Y4392676D01*
X9553511Y4392676D01*
X9525825Y4401820D01*
X9516427Y4410963D01*
X9507283Y4429505D01*
X9826815Y4586478D02*
G01*
X9734613Y4392676D01*
X9697529Y4586478D02*
G01*
X9826815Y4586478D01*
X12551727Y4586478D02*
G01*
X12459525Y4586478D01*
X12450127Y4503420D01*
X12459525Y4512563D01*
X12487211Y4521962D01*
X12514897Y4521962D01*
X12542583Y4512563D01*
X12561125Y4494276D01*
X12570269Y4466589D01*
X12570269Y4448047D01*
X12561125Y4420362D01*
X12542583Y4401820D01*
X12514897Y4392676D01*
X12487211Y4392676D01*
X12459525Y4401820D01*
X12450127Y4410963D01*
X12440983Y4429505D01*
X12640373Y4540250D02*
G01*
X12640373Y4549647D01*
X12649771Y4568189D01*
X12658915Y4577334D01*
X12677457Y4586478D01*
X12714287Y4586478D01*
X12732829Y4577334D01*
X12741973Y4568189D01*
X12751371Y4549647D01*
X12751371Y4531105D01*
X12741973Y4512563D01*
X12723685Y4484878D01*
X12631229Y4392676D01*
X12760515Y4392676D01*
X8602027Y4540250D02*
G01*
X8602027Y4549647D01*
X8611425Y4568189D01*
X8620569Y4577334D01*
X8639111Y4586478D01*
X8675941Y4586478D01*
X8694483Y4577334D01*
X8703627Y4568189D01*
X8713025Y4549647D01*
X8713025Y4531105D01*
X8703627Y4512563D01*
X8685339Y4484878D01*
X8592883Y4392676D01*
X8722169Y4392676D01*
X8903271Y4521962D02*
G01*
X8893873Y4494276D01*
X8875585Y4475734D01*
X8847899Y4466589D01*
X8838501Y4466589D01*
X8810815Y4475734D01*
X8792273Y4494276D01*
X8783129Y4521962D01*
X8783129Y4531105D01*
X8792273Y4558792D01*
X8810815Y4577334D01*
X8838501Y4586478D01*
X8847899Y4586478D01*
X8875585Y4577334D01*
X8893873Y4558792D01*
X8903271Y4521962D01*
X8903271Y4475734D01*
X8893873Y4429505D01*
X8875585Y4401820D01*
X8847899Y4392676D01*
X8829357Y4392676D01*
X8801671Y4401820D01*
X8792273Y4420362D01*
X19357086Y4586478D02*
G01*
X19264629Y4586478D01*
X19255486Y4503420D01*
X19264629Y4512563D01*
X19292316Y4521962D01*
X19320002Y4521962D01*
X19347688Y4512563D01*
X19366229Y4494276D01*
X19375374Y4466589D01*
X19375374Y4448047D01*
X19366229Y4420362D01*
X19347688Y4401820D01*
X19320002Y4392676D01*
X19292316Y4392676D01*
X19264629Y4401820D01*
X19255486Y4410963D01*
X19246088Y4429505D01*
X19565874Y4586478D02*
G01*
X19473418Y4392676D01*
X19436334Y4586478D02*
G01*
X19565874Y4586478D01*
X9327454Y844603D02*
G01*
X9318310Y863145D01*
X9299768Y881687D01*
X9281226Y890831D01*
X9244396Y890831D01*
X9225854Y881687D01*
X9207566Y863145D01*
X9198168Y844603D01*
X9189024Y816917D01*
X9189024Y770689D01*
X9198168Y743003D01*
X9207566Y724715D01*
X9225854Y706173D01*
X9244396Y696775D01*
X9281226Y696775D01*
X9299768Y706173D01*
X9318310Y724715D01*
X9327454Y743003D01*
X9388414Y890831D02*
G01*
X9388414Y696775D01*
X9388414Y696775D02*
G01*
X9499412Y696775D01*
X9615744Y890831D02*
G01*
X9597202Y881687D01*
X9578660Y863145D01*
X9569516Y844603D01*
X9560372Y816917D01*
X9560372Y770689D01*
X9569516Y743003D01*
X9578660Y724715D01*
X9597202Y706173D01*
X9615744Y696775D01*
X9652574Y696775D01*
X9671116Y706173D01*
X9689658Y724715D01*
X9698802Y743003D01*
X9707946Y770689D01*
X9707946Y816917D01*
X9698802Y844603D01*
X9689658Y863145D01*
X9671116Y881687D01*
X9652574Y890831D01*
X9615744Y890831D01*
X9898446Y863145D02*
G01*
X9879904Y881687D01*
X9852218Y890831D01*
X9815134Y890831D01*
X9787448Y881687D01*
X9768906Y863145D01*
X9768906Y844603D01*
X9778304Y826315D01*
X9787448Y816917D01*
X9805990Y807773D01*
X9861362Y789231D01*
X9879904Y780087D01*
X9889048Y770689D01*
X9898446Y752401D01*
X9898446Y724715D01*
X9879904Y706173D01*
X9852218Y696775D01*
X9815134Y696775D01*
X9787448Y706173D01*
X9768906Y724715D01*
X9959406Y890831D02*
G01*
X9959406Y696775D01*
X9959406Y890831D02*
G01*
X10079294Y890831D01*
X9959406Y798375D02*
G01*
X10033066Y798375D01*
X9959406Y696775D02*
G01*
X10079294Y696775D01*
X13170651Y844603D02*
G01*
X13161507Y863145D01*
X13142965Y881687D01*
X13124423Y890831D01*
X13087593Y890831D01*
X13069051Y881687D01*
X13050763Y863145D01*
X13041365Y844603D01*
X13032221Y816917D01*
X13032221Y770689D01*
X13041365Y743003D01*
X13050763Y724715D01*
X13069051Y706173D01*
X13087593Y696775D01*
X13124423Y696775D01*
X13142965Y706173D01*
X13161507Y724715D01*
X13170651Y743003D01*
X13231611Y890831D02*
G01*
X13231611Y696775D01*
X13231611Y696775D02*
G01*
X13342609Y696775D01*
X13458941Y890831D02*
G01*
X13440399Y881687D01*
X13421857Y863145D01*
X13412713Y844603D01*
X13403569Y816917D01*
X13403569Y770689D01*
X13412713Y743003D01*
X13421857Y724715D01*
X13440399Y706173D01*
X13458941Y696775D01*
X13495771Y696775D01*
X13514313Y706173D01*
X13532855Y724715D01*
X13541999Y743003D01*
X13551143Y770689D01*
X13551143Y816917D01*
X13541999Y844603D01*
X13532855Y863145D01*
X13514313Y881687D01*
X13495771Y890831D01*
X13458941Y890831D01*
X13741643Y863145D02*
G01*
X13723101Y881687D01*
X13695415Y890831D01*
X13658331Y890831D01*
X13630645Y881687D01*
X13612103Y863145D01*
X13612103Y844603D01*
X13621501Y826315D01*
X13630645Y816917D01*
X13649187Y807773D01*
X13704559Y789231D01*
X13723101Y780087D01*
X13732245Y770689D01*
X13741643Y752401D01*
X13741643Y724715D01*
X13723101Y706173D01*
X13695415Y696775D01*
X13658331Y696775D01*
X13630645Y706173D01*
X13612103Y724715D01*
X13802603Y890831D02*
G01*
X13802603Y696775D01*
X13802603Y890831D02*
G01*
X13922491Y890831D01*
X13802603Y798375D02*
G01*
X13876263Y798375D01*
X13802603Y696775D02*
G01*
X13922491Y696775D01*
X939800Y4958334D02*
G01*
X1106170Y4958334D01*
X1167129Y5069078D02*
G01*
X1213104Y4875276D01*
X1259331Y5069078D02*
G01*
X1213104Y4875276D01*
X1259331Y5069078D02*
G01*
X1305560Y4875276D01*
X1351787Y5069078D02*
G01*
X1305560Y4875276D01*
X1412747Y5032247D02*
G01*
X1431289Y5041392D01*
X1458976Y5069078D01*
X1458976Y4875276D01*
X1519936Y5032247D02*
G01*
X1538223Y5041392D01*
X1565910Y5069078D01*
X1565910Y4875276D01*
X19259702Y2622550D02*
G01*
X19250558Y2641092D01*
X19232016Y2659634D01*
X19213728Y2668778D01*
X19176644Y2668778D01*
X19158102Y2659634D01*
X19139814Y2641092D01*
X19130416Y2622550D01*
X19121272Y2594863D01*
X19121272Y2548889D01*
X19130416Y2520950D01*
X19139814Y2502662D01*
X19158102Y2484120D01*
X19176644Y2474976D01*
X19213728Y2474976D01*
X19232016Y2484120D01*
X19250558Y2502662D01*
X19259702Y2520950D01*
X19259702Y2548889D01*
X19213728Y2548889D02*
G01*
X19259702Y2548889D01*
X19320662Y2668778D02*
G01*
X19320662Y2474976D01*
X19320662Y2668778D02*
G01*
X19450202Y2474976D01*
X19450202Y2668778D02*
G01*
X19450202Y2474976D01*
X19511162Y2668778D02*
G01*
X19511162Y2474976D01*
X19511162Y2668778D02*
G01*
X19575678Y2668778D01*
X19603364Y2659634D01*
X19621906Y2641092D01*
X19631050Y2622550D01*
X19640448Y2594863D01*
X19640448Y2548889D01*
X19631050Y2520950D01*
X19621906Y2502662D01*
X19603364Y2484120D01*
X19575678Y2474976D01*
X19511162Y2474976D01*
G36*
X581050Y5772150D02*
G01*
X460400Y5638800D01*
X581050Y5505450D01*
X606450Y5530850D01*
X511200Y5638800D01*
X606450Y5746750D01*
G37*
G36*
X581050Y7626350D02*
G01*
X460400Y7493000D01*
X581050Y7359650D01*
X606450Y7385050D01*
X511200Y7493000D01*
X606450Y7600950D01*
G37*
G36*
X584200Y6718300D02*
G01*
X463550Y6584950D01*
X584200Y6451600D01*
X609600Y6477000D01*
X514350Y6584950D01*
X609600Y6692900D01*
G37*
D11*
X24295100Y5003800D02*
G01*
X24295100Y5676900D01*
X23545800Y5003800D02*
G01*
X24295100Y5003800D01*
X23012400Y5003800D02*
G01*
X23545800Y5003800D01*
X23126700Y12573000D02*
G01*
X23126700Y12446000D01*
X23126700Y355600D02*
G01*
X23126700Y228600D01*
X2734195Y355600D02*
G01*
X2734195Y228600D01*
X3724795Y228600D01*
X3724795Y228600D02*
G01*
X23124756Y228600D01*
X3724795Y12573000D02*
G01*
X23124751Y12573000D01*
X2734195Y12446000D02*
G01*
X2734195Y12573000D01*
X3724795Y12573000D01*
D12*
X22606000Y4737100D02*
G01*
X23105999Y4737100D01*
X22707600Y4635500D02*
G01*
X23007599Y4635500D01*
X22809200Y4533900D02*
G01*
X22909199Y4533900D01*
X19151600Y6172200D02*
G01*
X20104100Y6172200D01*
X20104100Y7366000D01*
D13*
X3860800Y7124700D02*
G01*
X3492500Y7493000D01*
X3860800Y6197600D02*
G01*
X3479800Y6578600D01*
X3860800Y5257800D02*
G01*
X3492500Y5626100D01*
D12*
X12398895Y7962900D02*
G01*
X12297295Y8064500D01*
X12297295Y7962900D02*
G01*
X12398895Y8064500D01*
X12851196Y8013700D02*
G01*
X13359196Y8013700D01*
X11835196Y8013700D02*
G01*
X12343196Y8013700D01*
X12851196Y8013700D02*
G01*
X12457496Y7759700D01*
X9007995Y8013700D02*
G01*
X9515995Y8013700D01*
X7991995Y8013700D02*
G01*
X8499995Y8013700D01*
X9007995Y8013700D02*
G01*
X8614295Y7759700D01*
X8499995Y8140700D02*
G01*
X8499995Y7874000D01*
D11*
X21540886Y5410200D02*
G01*
X21540886Y5943600D01*
X21540886Y6350000D02*
G01*
X21540886Y6883400D01*
X21540886Y7264400D02*
G01*
X21540886Y7797800D01*
X10303395Y5499100D02*
G01*
X10303395Y5295900D01*
X10303395Y6438900D02*
G01*
X10303395Y6235700D01*
X10303395Y7353300D02*
G01*
X10303395Y7150100D01*
X10303395Y6591300D02*
G01*
X10303395Y6883400D01*
X10303395Y5651500D02*
G01*
X10303395Y5943600D01*
X10303395Y7505700D02*
G01*
X10303395Y7797800D01*
X10011295Y5410200D02*
G01*
X10011295Y5943600D01*
X10011295Y6350000D02*
G01*
X10011295Y6883400D01*
X10011295Y7264400D02*
G01*
X10011295Y7797800D01*
G75*
G01*
X9909696Y5410200D02*
G03*
X10009696Y5410200I50000J0D01*
G75*
G01*
X10011296Y5410200D02*
G03*
X10111296Y5410200I50000J0D01*
G75*
G01*
X9909696Y6350000D02*
G03*
X10009696Y6350000I50000J0D01*
G75*
G01*
X10011296Y6350000D02*
G03*
X10111296Y6350000I50000J0D01*
G75*
G01*
X10011296Y7264400D02*
G03*
X10111296Y7264400I50000J0D01*
G75*
G01*
X9909696Y7264400D02*
G03*
X10009696Y7264400I50000J0D01*
G75*
G01*
X10201796Y5651500D02*
G03*
X10301796Y5651500I50000J0D01*
G75*
G01*
X10404996Y5499100D02*
G03*
X10304996Y5499100I-50000J0D01*
G75*
G01*
X10303396Y5499100D02*
G03*
X10203396Y5499100I-50000J0D01*
G75*
G01*
X10201796Y6591300D02*
G03*
X10301796Y6591300I50000J0D01*
G75*
G01*
X10404996Y6438900D02*
G03*
X10304996Y6438900I-50000J0D01*
G75*
G01*
X10303396Y6438900D02*
G03*
X10203396Y6438900I-50000J0D01*
G75*
G01*
X10303396Y7353300D02*
G03*
X10203396Y7353300I-50000J0D01*
G75*
G01*
X10404996Y7353300D02*
G03*
X10304996Y7353300I-50000J0D01*
G75*
G01*
X10201796Y7505700D02*
G03*
X10301796Y7505700I50000J0D01*
G75*
G01*
X21439289Y7264400D02*
G03*
X21539289Y7264400I50000J0D01*
G75*
G01*
X21540889Y7264400D02*
G03*
X21640889Y7264400I50000J0D01*
G75*
G01*
X21540889Y6350000D02*
G03*
X21640889Y6350000I50000J0D01*
G75*
G01*
X21439289Y6350000D02*
G03*
X21539289Y6350000I50000J0D01*
G75*
G01*
X21540889Y5410200D02*
G03*
X21640889Y5410200I50000J0D01*
G75*
G01*
X21439289Y5410200D02*
G03*
X21539289Y5410200I50000J0D01*
G75*
G01*
X10303396Y6591300D02*
G03*
X10403396Y6591300I50000J0D01*
G75*
G01*
X10303396Y5651500D02*
G03*
X10403396Y5651500I50000J0D01*
G75*
G01*
X10303396Y7505700D02*
G03*
X10403396Y7505700I50000J0D01*
D12*
G75*
G01*
X19151600Y6172200D02*
G02*
X19429847Y5500449I949998J-2D01*
D11*
G75*
G01*
X23012400Y5105397D02*
G03*
X23012400Y5005398I0J-49999D01*
G75*
G01*
X23012400Y5003797D02*
G03*
X23012400Y4903798I0J-49999D01*
G75*
G01
X8186496Y4483100D02*
G03X8186496Y4483100I-317500J0D01*
G75*
G01
X9977196Y4483100D02*
G03X9977196Y4483100I-317500J0D01*
G75*
G01
X12910896Y4483100D02*
G03X12910896Y4483100I-317500J0D01*
G75*
G01
X9062796Y4483100D02*
G03X9062796Y4483100I-317500J0D01*
G75*
G01
X19716090Y4483100D02*
G03X19716090Y4483100I-317500J0D01*
D12*
X7814208Y7493000D02*
G01*
X9693808Y7493000D01*
X9693808Y5003800D01*
X7814208Y5003800D01*
X7814208Y7493000D01*
X11657406Y7493000D02*
G01*
X13537006Y7493000D01*
X13537006Y5003800D01*
X11657406Y5003800D01*
X11657406Y7493000D01*
G36*
X508000Y5679998D02*
G01*
X3507993Y5679998D01*
X3507993Y5591098D01*
X508000Y5591098D01*
G37*
G36*
X508000Y6629984D02*
G01*
X3507993Y6629984D01*
X3507993Y6541084D01*
X508000Y6541084D01*
G37*
G36*
X508000Y7539989D02*
G01*
X3507993Y7539989D01*
X3507993Y7451089D01*
X508000Y7451089D01*
G37*
G36*
X3849979Y5299582D02*
G01*
X19249948Y5299582D01*
X19249948Y5210682D01*
X3849979Y5210682D01*
G37*
G36*
X3849979Y6235674D02*
G01*
X18849949Y6235674D01*
X18849949Y6146774D01*
X3849979Y6146774D01*
G37*
G36*
X3849979Y7156373D02*
G01*
X19249948Y7156373D01*
X19249948Y7067473D01*
X3849979Y7067473D01*
G37*
G36*
X20916849Y7156373D02*
G01*
X22910850Y7156373D01*
X22910850Y7067473D01*
X20916849Y7067473D01*
G37*
G36*
X21336000Y6235700D02*
G01*
X22886009Y6235700D01*
X22886009Y6146800D01*
X21336000Y6146800D01*
G37*
G36*
X20916849Y5299582D02*
G01*
X22866857Y5299582D01*
X22866857Y5210682D01*
X20916849Y5210682D01*
G37*
G36*
X22821900Y7150100D02*
G01*
X22910800Y7150100D01*
X22910800Y4750104D01*
X22821900Y4750104D01*
G37*
M02*
