M48
METRIC,LZ,000.000
;FILE_FORMAT=3:3
;TYPE=NON_PLATED
;Layer: NPTH_Through
;EasyEDA v6.5.29, 2023-07-20 14:59:44
;987ae69db31144c28cf86215047d26b3,5a6b42c53f6a479593ecc07194224c93,10
;Gerber Generator version 0.2
;Holesize 1 = 0.551 mm
T01C0.551
;Holesize 2 = 2.000 mm
T02C2.000
%
G05
G90
T01
X071186Y052505
X071186Y051655
X071186Y050805
X071186Y049955
X071186Y049105
X071186Y048255
X071186Y047405
X071186Y046555
X065370Y052505
X065370Y051655
X065370Y050805
X065370Y049955
X065370Y049105
X065370Y048255
X065370Y047405
X065370Y046555
X109444Y052505
X109444Y051655
X109444Y050805
X109444Y049955
X109444Y049105
X109444Y048255
X109444Y047405
X109444Y046555
X103628Y052505
X103628Y051655
X103628Y050805
X103628Y049955
X103628Y049105
X103628Y048255
X103628Y047405
X103628Y046555
X147702Y052505
X147702Y051655
X147702Y050805
X147702Y049955
X147702Y049105
X147702Y048255
X147702Y047405
X147702Y046555
X141886Y052505
X141886Y051655
X141886Y050805
X141886Y049955
X141886Y049105
X141886Y048255
X141886Y047405
X141886Y046555
X185960Y052505
X185960Y051655
X185960Y050805
X185960Y049955
X185960Y049105
X185960Y048255
X185960Y047405
X185960Y046555
X180144Y052505
X180144Y051655
X180144Y050805
X180144Y049955
X180144Y049105
X180144Y048255
X180144Y047405
X180144Y046555
X046174Y096612
X047024Y096612
X047874Y096612
X048724Y096612
X049574Y096612
X050424Y096612
X051274Y096612
X052124Y096612
X046174Y002448
X047024Y002448
X047874Y002448
X048724Y002448
X049574Y002448
X050424Y002448
X051274Y002448
X052124Y002448
X084432Y096612
X085282Y096612
X086132Y096612
X086982Y096612
X087832Y096612
X088682Y096612
X089532Y096612
X090382Y096612
X084432Y002448
X085282Y002448
X086132Y002448
X086982Y002448
X087832Y002448
X088682Y002448
X089532Y002448
X090382Y002448
X122690Y096612
X123540Y096612
X124390Y096612
X125240Y096612
X126090Y096612
X126940Y096612
X127790Y096612
X128640Y096612
X122690Y002448
X123540Y002448
X124390Y002448
X125240Y002448
X126090Y002448
X126940Y002448
X127790Y002448
X128640Y002448
X160948Y096612
X161798Y096612
X162648Y096612
X163498Y096612
X164348Y096612
X165198Y096612
X166048Y096612
X166898Y096612
X160948Y002448
X161798Y002448
X162648Y002448
X163498Y002448
X164348Y002448
X165198Y002448
X166048Y002448
X166898Y002448
X199206Y096612
X200056Y096612
X200906Y096612
X201756Y096612
X202606Y096612
X203456Y096612
X204306Y096612
X205156Y096612
X199206Y002448
X200056Y002448
X200906Y002448
X201756Y002448
X202606Y002448
X203456Y002448
X204306Y002448
X205156Y002448
T02
X035452Y089370
X062602Y089370
X062599Y006858
X035449Y006858
X035449Y045758
X062599Y045758
X038020Y104520
X213310Y104520
X043020Y-005460
X208310Y-005460
M30
