G04 Layer: BoardOutlineLayer*
G04 EasyEDA v6.5.29, 2023-07-20 14:59:44*
G04 987ae69db31144c28cf86215047d26b3,5a6b42c53f6a479593ecc07194224c93,10*
G04 Gerber Generator version 0.2*
G04 Scale: 100 percent, Rotated: No, Reflected: No *
G04 Dimensions in millimeters *
G04 leading zeros omitted , absolute positions ,4 integer and 5 decimal *
%FSLAX45Y45*%
%MOMM*%

%ADD10C,0.2540*%
D10*
X3302000Y9652000D02*
G01*
X6527800Y9652000D01*
X6527800Y254000D01*
X3302000Y254000D01*
X3302000Y9652000D01*
X7127798Y9652000D02*
G01*
X10353598Y9652000D01*
X10353598Y254000D01*
X7127798Y254000D01*
X7127798Y9652000D01*
X10953597Y9652000D02*
G01*
X14179397Y9652000D01*
X14179397Y254000D01*
X10953597Y254000D01*
X10953597Y9652000D01*
X14779396Y9652000D02*
G01*
X18005196Y9652000D01*
X18005196Y254000D01*
X14779396Y254000D01*
X14779396Y9652000D01*
X18605195Y9652000D02*
G01*
X21830995Y9652000D01*
X21830995Y254000D01*
X18605195Y254000D01*
X18605195Y9652000D01*
X3302000Y10851997D02*
G01*
X21830995Y10851997D01*
X21830995Y-945997D01*
X3302000Y-945997D01*
X3302000Y10851997D01*
X4572896Y10251998D02*
G01*
X3302000Y10251998D01*
X4572896Y-345998D02*
G01*
X3302000Y-345998D01*
X8398695Y10251998D02*
G01*
X5256905Y10251998D01*
X8398695Y-345998D02*
G01*
X5256905Y-345998D01*
X12224494Y10251998D02*
G01*
X9082704Y10251998D01*
X12224494Y-345998D02*
G01*
X9082704Y-345998D01*
X16050293Y10251998D02*
G01*
X12908503Y10251998D01*
X16050293Y-345998D02*
G01*
X12908503Y-345998D01*
X19876091Y10251998D02*
G01*
X16734302Y10251998D01*
X19876091Y-345998D02*
G01*
X16734302Y-345998D01*
X21830995Y10251998D02*
G01*
X20560101Y10251998D01*
X21830995Y-345998D02*
G01*
X20560101Y-345998D01*
X7118631Y5295003D02*
G01*
X6536966Y5295003D01*
X7118631Y4610994D02*
G01*
X6536966Y4610994D01*
X10944430Y5295003D02*
G01*
X10362765Y5295003D01*
X10944430Y4610994D02*
G01*
X10362765Y4610994D01*
X14770229Y5295003D02*
G01*
X14188564Y5295003D01*
X14770229Y4610994D02*
G01*
X14188564Y4610994D01*
X18596028Y5295003D02*
G01*
X18014363Y5295003D01*
X18596028Y4610994D02*
G01*
X18014363Y4610994D01*
X4572896Y9661166D02*
G01*
X4572896Y10251998D01*
X4572896Y-345998D02*
G01*
X4572896Y244833D01*
X5256905Y9661166D02*
G01*
X5256905Y10251998D01*
X5256905Y-345998D02*
G01*
X5256905Y244833D01*
X8398695Y9661166D02*
G01*
X8398695Y10251998D01*
X8398695Y-345998D02*
G01*
X8398695Y244833D01*
X9082704Y9661166D02*
G01*
X9082704Y10251998D01*
X9082704Y-345998D02*
G01*
X9082704Y244833D01*
X12224494Y9661166D02*
G01*
X12224494Y10251998D01*
X12224494Y-345998D02*
G01*
X12224494Y244833D01*
X12908503Y9661166D02*
G01*
X12908503Y10251998D01*
X12908503Y-345998D02*
G01*
X12908503Y244833D01*
X16050293Y9661166D02*
G01*
X16050293Y10251998D01*
X16050293Y-345998D02*
G01*
X16050293Y244833D01*
X16734302Y9661166D02*
G01*
X16734302Y10251998D01*
X16734302Y-345998D02*
G01*
X16734302Y244833D01*
X19876091Y9661166D02*
G01*
X19876091Y10251998D01*
X19876091Y-345998D02*
G01*
X19876091Y244833D01*
X20560101Y9661166D02*
G01*
X20560101Y10251998D01*
X20560101Y-345998D02*
G01*
X20560101Y244833D01*

%LPD*%
M02*
