G04 Layer: TopLayer*
G04 EasyEDA v6.5.29, 2023-07-20 14:59:44*
G04 987ae69db31144c28cf86215047d26b3,5a6b42c53f6a479593ecc07194224c93,10*
G04 Gerber Generator version 0.2*
G04 Scale: 100 percent, Rotated: No, Reflected: No *
G04 Dimensions in millimeters *
G04 leading zeros omitted , absolute positions ,4 integer and 5 decimal *
%FSLAX45Y45*%
%MOMM*%

%AMMACRO1*21,1,$1,$2,0,0,$3*%
%ADD10C,0.2540*%
%ADD11C,0.5000*%
%ADD12C,0.1270*%
%ADD13C,0.2000*%
%ADD14MACRO1,2.592X2.2075X0.0000*%
%ADD15R,2.5920X2.2075*%
%ADD16MACRO1,0.864X0.8065X-90.0000*%
%ADD17MACRO1,0.864X0.8065X0.0000*%
%ADD18R,0.8640X0.8065*%
%ADD19R,0.9000X0.8000*%
%ADD20R,0.8000X0.9000*%
%ADD21R,0.5320X1.0720*%
%ADD22R,1.0500X2.4650*%
%ADD23MACRO1,3.54X2.465X0.0000*%
%ADD24R,0.6000X1.5500*%
%ADD25R,1.5000X2.0000*%
%ADD26MACRO1,1.377X1.1325X0.0000*%
%ADD27R,1.3770X1.1325*%
%ADD28R,1.8000X2.0000*%
%ADD29O,0.6020054X1.9709892*%
%ADD30MACRO1,3.4992X1.4067X0.0000*%
%ADD31R,3.4992X1.4067*%
%ADD32R,0.9500X1.2000*%
%ADD33R,0.8000X0.8000*%
%ADD34R,0.5500X0.5500*%
%ADD35MACRO1,0.54X0.7901X90.0000*%
%ADD36MACRO1,0.54X0.7901X0.0000*%
%ADD37R,0.5400X0.7901*%
%ADD38R,0.6000X0.2800*%
%ADD39R,0.3000X1.7000*%
%ADD40MACRO1,0.54X0.7901X-90.0000*%
%ADD41R,1.1000X0.2000*%
%ADD42R,0.2000X1.1000*%
%ADD43R,3.1000X3.1000*%
%ADD44MACRO1,1.2X1.4X90.0000*%
%ADD45R,1.4000X1.2000*%
%ADD46MACRO1,1.2X1.4X-90.0000*%
%ADD47C,1.0000*%
%ADD48R,1.7000X1.7000*%
%ADD49C,1.7000*%
%ADD50MACRO1,1.7X1.7X0.0000*%
%ADD51C,1.8000*%
%ADD52C,5.0000*%
%ADD53R,1.8000X1.8000*%
%ADD54MACRO1,1.8X1.8X0.0000*%
%ADD55C,0.6096*%
%ADD56C,0.0147*%

%LPD*%
G36*
X3338068Y279908D02*
G01*
X3334156Y280670D01*
X3330905Y282905D01*
X3328670Y286156D01*
X3327908Y290068D01*
X3327908Y9615932D01*
X3328670Y9619843D01*
X3330905Y9623094D01*
X3334156Y9625330D01*
X3338068Y9626092D01*
X3938828Y9626092D01*
X3942689Y9625330D01*
X3945991Y9623094D01*
X3948226Y9619843D01*
X3948988Y9615932D01*
X3948988Y9566351D01*
X4037177Y9566351D01*
X4037177Y9615932D01*
X4037939Y9619843D01*
X4040174Y9623094D01*
X4043476Y9625330D01*
X4047337Y9626092D01*
X4052417Y9626092D01*
X4056329Y9625330D01*
X4059631Y9623094D01*
X4061815Y9619843D01*
X4062577Y9615932D01*
X4062577Y9566351D01*
X4150817Y9566351D01*
X4150817Y9615932D01*
X4151579Y9619843D01*
X4153763Y9623094D01*
X4157065Y9625330D01*
X4160977Y9626092D01*
X4398822Y9626092D01*
X4402734Y9625330D01*
X4406036Y9623094D01*
X4408220Y9619843D01*
X4408982Y9615932D01*
X4408982Y9566351D01*
X4497222Y9566351D01*
X4497222Y9615932D01*
X4497984Y9619843D01*
X4500168Y9623094D01*
X4503470Y9625330D01*
X4507382Y9626092D01*
X4512462Y9626092D01*
X4516323Y9625330D01*
X4519625Y9623094D01*
X4521860Y9619843D01*
X4522622Y9615932D01*
X4522622Y9566351D01*
X4610811Y9566351D01*
X4610811Y9615932D01*
X4611573Y9619843D01*
X4613808Y9623094D01*
X4617110Y9625330D01*
X4620971Y9626092D01*
X5208828Y9626092D01*
X5212689Y9625330D01*
X5215991Y9623094D01*
X5218226Y9619843D01*
X5218988Y9615932D01*
X5218988Y9566351D01*
X5307177Y9566351D01*
X5307177Y9615932D01*
X5307939Y9619843D01*
X5310174Y9623094D01*
X5313476Y9625330D01*
X5317337Y9626092D01*
X5322417Y9626092D01*
X5326329Y9625330D01*
X5329631Y9623094D01*
X5331815Y9619843D01*
X5332577Y9615932D01*
X5332577Y9566351D01*
X5420817Y9566351D01*
X5420817Y9615932D01*
X5421579Y9619843D01*
X5423763Y9623094D01*
X5427065Y9625330D01*
X5430977Y9626092D01*
X5668822Y9626092D01*
X5672734Y9625330D01*
X5676036Y9623094D01*
X5678220Y9619843D01*
X5678982Y9615932D01*
X5678982Y9566351D01*
X5767222Y9566351D01*
X5767222Y9615932D01*
X5767984Y9619843D01*
X5770168Y9623094D01*
X5773470Y9625330D01*
X5777382Y9626092D01*
X5782462Y9626092D01*
X5786323Y9625330D01*
X5789625Y9623094D01*
X5791860Y9619843D01*
X5792622Y9615932D01*
X5792622Y9566351D01*
X5880811Y9566351D01*
X5880811Y9615932D01*
X5881573Y9619843D01*
X5883808Y9623094D01*
X5887110Y9625330D01*
X5890971Y9626092D01*
X6491732Y9626092D01*
X6495643Y9625330D01*
X6498894Y9623094D01*
X6501130Y9619843D01*
X6501892Y9615932D01*
X6501892Y290068D01*
X6501130Y286156D01*
X6498894Y282905D01*
X6495643Y280670D01*
X6491732Y279908D01*
G37*

%LPC*%
G36*
X4895748Y6477000D02*
G01*
X4992979Y6477000D01*
X4992979Y6574332D01*
X4980990Y6572402D01*
X4967376Y6568338D01*
X4954422Y6562598D01*
X4942230Y6555231D01*
X4931156Y6546392D01*
X4921250Y6536181D01*
X4912766Y6524802D01*
X4905806Y6512407D01*
X4900472Y6499250D01*
X4896866Y6485483D01*
G37*
G36*
X5717336Y495300D02*
G01*
X5789066Y495300D01*
X5789066Y593496D01*
X5690870Y593496D01*
X5690870Y521766D01*
X5691581Y515467D01*
X5693511Y509981D01*
X5696559Y505104D01*
X5700674Y500989D01*
X5705551Y497890D01*
X5711037Y496011D01*
G37*
G36*
X5544210Y495350D02*
G01*
X5558434Y495808D01*
X5572455Y498093D01*
X5586069Y502158D01*
X5599074Y507898D01*
X5611215Y515264D01*
X5622340Y524103D01*
X5632246Y534314D01*
X5640730Y545693D01*
X5647690Y558088D01*
X5653024Y571246D01*
X5656630Y585012D01*
X5658459Y599084D01*
X5658459Y613308D01*
X5656630Y627380D01*
X5653024Y641146D01*
X5647690Y654304D01*
X5640730Y666699D01*
X5632246Y678078D01*
X5622340Y688289D01*
X5611215Y697128D01*
X5599074Y704494D01*
X5592521Y707390D01*
X5589422Y709523D01*
X5587288Y712673D01*
X5586476Y716330D01*
X5587034Y720039D01*
X5588914Y723290D01*
X5590743Y725474D01*
X5596636Y733806D01*
X5600750Y742746D01*
X5603290Y752195D01*
X5604154Y762000D01*
X5603290Y771804D01*
X5600750Y781253D01*
X5596636Y790194D01*
X5590997Y798220D01*
X5584037Y805180D01*
X5576011Y810818D01*
X5567070Y814933D01*
X5557621Y817473D01*
X5547817Y818337D01*
X5538012Y817473D01*
X5528564Y814933D01*
X5519623Y810818D01*
X5511596Y805180D01*
X5504637Y798220D01*
X5498998Y790194D01*
X5494883Y781253D01*
X5492343Y771804D01*
X5491480Y762000D01*
X5492343Y752195D01*
X5494883Y742746D01*
X5498998Y733806D01*
X5504637Y725779D01*
X5506262Y724204D01*
X5508396Y721055D01*
X5509209Y717346D01*
X5508650Y713587D01*
X5506720Y710336D01*
X5503722Y707999D01*
X5490311Y701040D01*
X5478627Y692912D01*
X5468112Y683361D01*
X5458917Y672541D01*
X5451195Y660603D01*
X5444998Y647801D01*
X5440527Y634339D01*
X5437835Y620369D01*
X5436920Y606196D01*
X5437835Y592023D01*
X5440527Y578053D01*
X5444998Y564591D01*
X5451195Y551789D01*
X5458917Y539851D01*
X5468112Y529082D01*
X5478627Y519480D01*
X5490311Y511352D01*
X5502910Y504799D01*
X5516219Y499872D01*
X5530088Y496722D01*
G37*
G36*
X5290210Y495350D02*
G01*
X5304434Y495808D01*
X5318455Y498093D01*
X5332069Y502158D01*
X5345074Y507898D01*
X5357215Y515264D01*
X5368340Y524103D01*
X5378246Y534314D01*
X5386730Y545693D01*
X5393690Y558088D01*
X5399024Y571246D01*
X5402630Y585012D01*
X5404459Y599084D01*
X5404459Y613308D01*
X5402630Y627380D01*
X5399024Y641146D01*
X5393690Y654304D01*
X5386730Y666699D01*
X5378246Y678078D01*
X5368340Y688289D01*
X5357215Y697128D01*
X5345074Y704494D01*
X5338419Y707491D01*
X5335219Y709676D01*
X5333085Y712927D01*
X5332374Y716737D01*
X5332272Y790448D01*
X5333034Y794359D01*
X5335270Y797661D01*
X5336794Y799185D01*
X5342432Y807212D01*
X5346547Y816152D01*
X5349087Y825601D01*
X5349951Y835406D01*
X5349087Y845210D01*
X5346547Y854659D01*
X5342432Y863600D01*
X5336794Y871626D01*
X5329834Y878586D01*
X5321808Y884224D01*
X5312867Y888339D01*
X5303418Y890879D01*
X5293614Y891743D01*
X5283809Y890879D01*
X5274360Y888339D01*
X5265420Y884224D01*
X5257393Y878586D01*
X5250434Y871626D01*
X5244795Y863600D01*
X5240680Y854659D01*
X5238140Y845210D01*
X5237276Y835406D01*
X5238140Y825601D01*
X5240680Y816152D01*
X5244795Y807212D01*
X5250434Y799185D01*
X5252059Y797560D01*
X5254294Y794258D01*
X5255056Y790397D01*
X5255158Y716991D01*
X5254498Y713384D01*
X5252567Y710234D01*
X5249672Y707948D01*
X5236311Y701040D01*
X5224627Y692912D01*
X5214112Y683361D01*
X5204917Y672541D01*
X5197195Y660603D01*
X5190998Y647801D01*
X5186527Y634339D01*
X5183835Y620369D01*
X5182920Y606196D01*
X5183835Y592023D01*
X5186527Y578053D01*
X5190998Y564591D01*
X5197195Y551789D01*
X5204917Y539851D01*
X5214112Y529082D01*
X5224627Y519480D01*
X5236311Y511352D01*
X5248910Y504799D01*
X5262219Y499872D01*
X5276088Y496722D01*
G37*
G36*
X4274210Y495350D02*
G01*
X4288434Y495808D01*
X4302455Y498093D01*
X4316069Y502158D01*
X4329074Y507898D01*
X4341215Y515264D01*
X4352340Y524103D01*
X4362246Y534314D01*
X4370730Y545693D01*
X4377690Y558088D01*
X4383024Y571246D01*
X4386630Y585012D01*
X4388459Y599084D01*
X4388459Y613308D01*
X4386630Y627380D01*
X4383024Y641146D01*
X4377690Y654304D01*
X4370730Y666699D01*
X4362246Y678078D01*
X4352340Y688289D01*
X4341215Y697128D01*
X4329074Y704494D01*
X4322521Y707390D01*
X4319320Y709625D01*
X4317238Y712876D01*
X4316476Y716686D01*
X4316476Y795223D01*
X4317238Y799134D01*
X4319473Y802436D01*
X4321048Y804011D01*
X4326686Y812038D01*
X4330801Y820978D01*
X4333341Y830427D01*
X4334205Y840232D01*
X4333341Y850036D01*
X4330801Y859485D01*
X4326686Y868426D01*
X4321048Y876452D01*
X4314088Y883412D01*
X4306062Y889050D01*
X4297121Y893165D01*
X4287672Y895705D01*
X4277868Y896569D01*
X4268063Y895705D01*
X4258614Y893165D01*
X4249674Y889050D01*
X4241647Y883412D01*
X4234688Y876452D01*
X4229049Y868426D01*
X4224934Y859485D01*
X4222394Y850036D01*
X4221530Y840232D01*
X4222394Y830427D01*
X4224934Y820978D01*
X4229049Y812038D01*
X4234688Y804011D01*
X4236262Y802436D01*
X4238498Y799134D01*
X4239260Y795223D01*
X4239260Y717042D01*
X4238599Y713384D01*
X4236669Y710234D01*
X4233773Y707999D01*
X4220311Y701040D01*
X4208627Y692912D01*
X4198112Y683361D01*
X4188917Y672541D01*
X4181195Y660603D01*
X4174998Y647801D01*
X4170527Y634339D01*
X4167835Y620369D01*
X4166920Y606196D01*
X4167835Y592023D01*
X4170527Y578053D01*
X4174998Y564591D01*
X4181195Y551789D01*
X4188917Y539851D01*
X4198112Y529082D01*
X4208627Y519480D01*
X4220311Y511352D01*
X4232910Y504799D01*
X4246219Y499872D01*
X4260088Y496722D01*
G37*
G36*
X5036210Y495350D02*
G01*
X5050434Y495808D01*
X5064455Y498093D01*
X5078069Y502158D01*
X5091074Y507898D01*
X5103215Y515264D01*
X5114340Y524103D01*
X5124246Y534314D01*
X5132730Y545693D01*
X5139690Y558088D01*
X5145024Y571246D01*
X5148630Y585012D01*
X5150459Y599084D01*
X5150459Y613308D01*
X5148630Y627380D01*
X5145024Y641146D01*
X5139690Y654304D01*
X5132730Y666699D01*
X5124246Y678078D01*
X5114340Y688289D01*
X5103215Y697128D01*
X5091074Y704494D01*
X5084521Y707390D01*
X5081320Y709625D01*
X5079238Y712876D01*
X5078476Y716686D01*
X5078476Y867359D01*
X5079238Y871270D01*
X5081473Y874572D01*
X5083048Y876147D01*
X5088686Y884174D01*
X5092801Y893114D01*
X5095341Y902563D01*
X5096205Y912368D01*
X5095341Y922172D01*
X5092801Y931621D01*
X5088686Y940562D01*
X5083048Y948588D01*
X5076088Y955548D01*
X5068062Y961186D01*
X5059121Y965301D01*
X5049672Y967841D01*
X5039868Y968705D01*
X5030063Y967841D01*
X5020614Y965301D01*
X5011674Y961186D01*
X5003647Y955548D01*
X4996688Y948588D01*
X4991049Y940562D01*
X4986934Y931621D01*
X4984394Y922172D01*
X4983530Y912368D01*
X4984394Y902563D01*
X4986934Y893114D01*
X4991049Y884174D01*
X4996688Y876147D01*
X4998262Y874572D01*
X5000498Y871270D01*
X5001260Y867359D01*
X5001260Y717042D01*
X5000599Y713384D01*
X4998669Y710234D01*
X4995773Y707999D01*
X4982311Y701040D01*
X4970627Y692912D01*
X4960112Y683361D01*
X4950917Y672541D01*
X4943195Y660603D01*
X4936998Y647801D01*
X4932527Y634339D01*
X4929835Y620369D01*
X4928920Y606196D01*
X4929835Y592023D01*
X4932527Y578053D01*
X4936998Y564591D01*
X4943195Y551789D01*
X4950917Y539851D01*
X4960112Y529082D01*
X4970627Y519480D01*
X4982311Y511352D01*
X4994910Y504799D01*
X5008219Y499872D01*
X5022088Y496722D01*
G37*
G36*
X4528210Y495350D02*
G01*
X4542434Y495808D01*
X4556455Y498093D01*
X4570069Y502158D01*
X4583074Y507898D01*
X4595215Y515264D01*
X4606340Y524103D01*
X4616246Y534314D01*
X4624730Y545693D01*
X4631690Y558088D01*
X4637024Y571246D01*
X4640630Y585012D01*
X4642459Y599084D01*
X4642459Y613308D01*
X4640630Y627380D01*
X4637024Y641146D01*
X4631690Y654304D01*
X4624730Y666699D01*
X4616246Y678078D01*
X4606340Y688289D01*
X4595215Y697128D01*
X4583074Y704494D01*
X4576521Y707390D01*
X4573320Y709625D01*
X4571238Y712876D01*
X4570476Y716686D01*
X4570476Y871423D01*
X4571238Y875334D01*
X4573473Y878636D01*
X4575048Y880211D01*
X4580686Y888237D01*
X4584801Y897178D01*
X4587341Y906627D01*
X4588205Y916432D01*
X4587341Y926236D01*
X4584801Y935685D01*
X4580686Y944626D01*
X4575048Y952652D01*
X4568088Y959612D01*
X4560062Y965250D01*
X4551121Y969365D01*
X4541672Y971905D01*
X4531868Y972769D01*
X4522063Y971905D01*
X4512614Y969365D01*
X4503674Y965250D01*
X4495647Y959612D01*
X4488688Y952652D01*
X4483049Y944626D01*
X4478934Y935685D01*
X4476394Y926236D01*
X4475530Y916432D01*
X4476394Y906627D01*
X4478934Y897178D01*
X4483049Y888237D01*
X4488688Y880211D01*
X4490262Y878636D01*
X4492498Y875334D01*
X4493260Y871423D01*
X4493260Y717042D01*
X4492599Y713384D01*
X4490669Y710234D01*
X4487773Y707999D01*
X4474311Y701040D01*
X4462627Y692912D01*
X4452112Y683361D01*
X4442917Y672541D01*
X4435195Y660603D01*
X4428998Y647801D01*
X4424527Y634339D01*
X4421835Y620369D01*
X4420920Y606196D01*
X4421835Y592023D01*
X4424527Y578053D01*
X4428998Y564591D01*
X4435195Y551789D01*
X4442917Y539851D01*
X4452112Y529082D01*
X4462627Y519480D01*
X4474311Y511352D01*
X4486910Y504799D01*
X4500219Y499872D01*
X4514088Y496722D01*
G37*
G36*
X4782210Y495350D02*
G01*
X4796434Y495808D01*
X4810455Y498093D01*
X4824069Y502158D01*
X4837074Y507898D01*
X4849215Y515264D01*
X4860340Y524103D01*
X4870246Y534314D01*
X4878730Y545693D01*
X4885690Y558088D01*
X4891024Y571246D01*
X4894630Y585012D01*
X4896459Y599084D01*
X4896459Y613308D01*
X4894630Y627380D01*
X4891024Y641146D01*
X4885690Y654304D01*
X4878730Y666699D01*
X4870246Y678078D01*
X4860340Y688289D01*
X4849215Y697128D01*
X4837074Y704494D01*
X4830521Y707390D01*
X4827320Y709625D01*
X4825238Y712876D01*
X4824476Y716686D01*
X4824476Y945591D01*
X4825238Y949502D01*
X4827473Y952804D01*
X4829048Y954379D01*
X4834686Y962406D01*
X4838801Y971346D01*
X4841341Y980795D01*
X4842205Y990600D01*
X4841341Y1000404D01*
X4838801Y1009853D01*
X4834686Y1018794D01*
X4829048Y1026820D01*
X4822088Y1033780D01*
X4814062Y1039418D01*
X4805121Y1043533D01*
X4795672Y1046073D01*
X4785868Y1046937D01*
X4776063Y1046073D01*
X4766614Y1043533D01*
X4757674Y1039418D01*
X4749647Y1033780D01*
X4742688Y1026820D01*
X4737049Y1018794D01*
X4732934Y1009853D01*
X4730394Y1000404D01*
X4729530Y990600D01*
X4730394Y980795D01*
X4732934Y971346D01*
X4737049Y962406D01*
X4742688Y954379D01*
X4744262Y952804D01*
X4746498Y949502D01*
X4747260Y945591D01*
X4747260Y717042D01*
X4746599Y713384D01*
X4744669Y710234D01*
X4741773Y707999D01*
X4728311Y701040D01*
X4716627Y692912D01*
X4706112Y683361D01*
X4696917Y672541D01*
X4689195Y660603D01*
X4682998Y647801D01*
X4678527Y634339D01*
X4675835Y620369D01*
X4674920Y606196D01*
X4675835Y592023D01*
X4678527Y578053D01*
X4682998Y564591D01*
X4689195Y551789D01*
X4696917Y539851D01*
X4706112Y529082D01*
X4716627Y519480D01*
X4728311Y511352D01*
X4740910Y504799D01*
X4754219Y499872D01*
X4768088Y496722D01*
G37*
G36*
X4020210Y495350D02*
G01*
X4034434Y495808D01*
X4048455Y498093D01*
X4062069Y502158D01*
X4075074Y507898D01*
X4087215Y515264D01*
X4098340Y524103D01*
X4108246Y534314D01*
X4116730Y545693D01*
X4123690Y558088D01*
X4129024Y571246D01*
X4132630Y585012D01*
X4134459Y599084D01*
X4134459Y613308D01*
X4132630Y627380D01*
X4129024Y641146D01*
X4123690Y654304D01*
X4116730Y666699D01*
X4108246Y678078D01*
X4098340Y688289D01*
X4087215Y697128D01*
X4075074Y704494D01*
X4062069Y710285D01*
X4048455Y714298D01*
X4034434Y716584D01*
X4020210Y717042D01*
X4006087Y715670D01*
X4000754Y714451D01*
X3997096Y714298D01*
X3993642Y715416D01*
X3990797Y717651D01*
X3988968Y720750D01*
X3988308Y724357D01*
X3988308Y773531D01*
X3988968Y777138D01*
X3990898Y780288D01*
X3993845Y782574D01*
X3997401Y783640D01*
X4001109Y783336D01*
X4003395Y782726D01*
X4013200Y781862D01*
X4023004Y782726D01*
X4032453Y785266D01*
X4041394Y789381D01*
X4049420Y795020D01*
X4056379Y801979D01*
X4062018Y810006D01*
X4066133Y818946D01*
X4068673Y828395D01*
X4069537Y838200D01*
X4068521Y849121D01*
X4068978Y853084D01*
X4070858Y856589D01*
X4073956Y859078D01*
X4077766Y860196D01*
X4086504Y860958D01*
X4095953Y863498D01*
X4104894Y867613D01*
X4112920Y873252D01*
X4119879Y880211D01*
X4125518Y888237D01*
X4129633Y897178D01*
X4132173Y906627D01*
X4133037Y916432D01*
X4132427Y923391D01*
X4132884Y927303D01*
X4134764Y930808D01*
X4137863Y933246D01*
X4141673Y934364D01*
X4150004Y935126D01*
X4159453Y937666D01*
X4168394Y941781D01*
X4176420Y947419D01*
X4183379Y954379D01*
X4189018Y962406D01*
X4193133Y971346D01*
X4195673Y980795D01*
X4196537Y990600D01*
X4195673Y1000404D01*
X4193133Y1009853D01*
X4189018Y1018794D01*
X4183379Y1026820D01*
X4181805Y1028395D01*
X4179570Y1031697D01*
X4178808Y1035608D01*
X4178808Y2856992D01*
X4177995Y2865018D01*
X4175810Y2872232D01*
X4172254Y2878937D01*
X4167124Y2885135D01*
X3965905Y3086404D01*
X3963670Y3089706D01*
X3962908Y3093618D01*
X3962908Y8463991D01*
X3963670Y8467902D01*
X3965905Y8471204D01*
X3967479Y8472779D01*
X3973118Y8480806D01*
X3977233Y8489746D01*
X3979773Y8499195D01*
X3980637Y8509000D01*
X3979773Y8518804D01*
X3977233Y8528253D01*
X3973118Y8537194D01*
X3967479Y8545220D01*
X3960520Y8552180D01*
X3952494Y8557818D01*
X3943553Y8561933D01*
X3934104Y8564473D01*
X3926230Y8565184D01*
X3922826Y8566099D01*
X3919931Y8568131D01*
X3917899Y8571026D01*
X3916984Y8574430D01*
X3916273Y8582304D01*
X3913733Y8591753D01*
X3909618Y8600694D01*
X3903979Y8608720D01*
X3897020Y8615680D01*
X3888994Y8621318D01*
X3880053Y8625433D01*
X3870604Y8627973D01*
X3862730Y8628684D01*
X3859326Y8629599D01*
X3856431Y8631631D01*
X3854399Y8634526D01*
X3853484Y8637930D01*
X3852773Y8645804D01*
X3850233Y8655253D01*
X3846118Y8664194D01*
X3840479Y8672220D01*
X3833520Y8679180D01*
X3825494Y8684818D01*
X3816553Y8688933D01*
X3807104Y8691473D01*
X3799230Y8692184D01*
X3795826Y8693099D01*
X3792931Y8695131D01*
X3790899Y8698026D01*
X3789984Y8701430D01*
X3789273Y8709304D01*
X3786733Y8718753D01*
X3782618Y8727694D01*
X3776979Y8735720D01*
X3770020Y8742680D01*
X3761994Y8748318D01*
X3753053Y8752433D01*
X3743604Y8754973D01*
X3733800Y8755837D01*
X3723995Y8754973D01*
X3714546Y8752433D01*
X3705606Y8748318D01*
X3697579Y8742680D01*
X3696004Y8741105D01*
X3692702Y8738870D01*
X3688791Y8738108D01*
X3670808Y8738108D01*
X3662984Y8737346D01*
X3655720Y8735212D01*
X3649014Y8731656D01*
X3642766Y8726576D01*
X3611219Y8695334D01*
X3607968Y8693150D01*
X3604107Y8692388D01*
X3553460Y8692388D01*
X3547160Y8691676D01*
X3541674Y8689797D01*
X3536797Y8686698D01*
X3532682Y8682634D01*
X3529634Y8677706D01*
X3527501Y8671661D01*
X3525367Y8668105D01*
X3521964Y8665667D01*
X3517900Y8664854D01*
X3513836Y8665667D01*
X3510432Y8668105D01*
X3508298Y8671661D01*
X3506165Y8677706D01*
X3503117Y8682634D01*
X3499002Y8686698D01*
X3494125Y8689797D01*
X3488639Y8691676D01*
X3482340Y8692388D01*
X3455263Y8692388D01*
X3455263Y8636000D01*
X3516833Y8636000D01*
X3520744Y8635238D01*
X3523996Y8633002D01*
X3526231Y8629751D01*
X3526993Y8625840D01*
X3526993Y8620760D01*
X3526231Y8616848D01*
X3523996Y8613597D01*
X3520744Y8611362D01*
X3516833Y8610600D01*
X3455263Y8610600D01*
X3455263Y8554212D01*
X3482340Y8554212D01*
X3488639Y8554923D01*
X3494125Y8556802D01*
X3499002Y8559901D01*
X3503117Y8563965D01*
X3506165Y8568893D01*
X3508298Y8574938D01*
X3510432Y8578494D01*
X3513836Y8580932D01*
X3517900Y8581745D01*
X3521964Y8580932D01*
X3525367Y8578494D01*
X3527501Y8574938D01*
X3529634Y8568893D01*
X3532682Y8563965D01*
X3536797Y8559901D01*
X3541674Y8556802D01*
X3547160Y8554923D01*
X3553460Y8554212D01*
X3632962Y8554212D01*
X3639312Y8554923D01*
X3644747Y8556802D01*
X3649675Y8559901D01*
X3653739Y8563965D01*
X3656837Y8568893D01*
X3658768Y8574328D01*
X3659479Y8580678D01*
X3659479Y8630208D01*
X3660241Y8634120D01*
X3662476Y8637422D01*
X3677869Y8652662D01*
X3681171Y8654846D01*
X3685082Y8655608D01*
X3688943Y8654846D01*
X3692245Y8652611D01*
X3694429Y8649360D01*
X3695192Y8645448D01*
X3695192Y7182408D01*
X3694429Y7178497D01*
X3692194Y7175195D01*
X3690620Y7173620D01*
X3684981Y7165594D01*
X3680866Y7156653D01*
X3678326Y7147204D01*
X3677462Y7137400D01*
X3678326Y7127595D01*
X3680866Y7118146D01*
X3684981Y7109206D01*
X3690620Y7101179D01*
X3692194Y7099604D01*
X3694429Y7096302D01*
X3695192Y7092391D01*
X3695192Y3023108D01*
X3696004Y3015081D01*
X3698189Y3007868D01*
X3701745Y3001162D01*
X3706876Y2994964D01*
X3772865Y2928924D01*
X3775049Y2925673D01*
X3775811Y2921863D01*
X3775100Y2918002D01*
X3773017Y2914700D01*
X3769817Y2912465D01*
X3766007Y2911602D01*
X3762146Y2912211D01*
X3750106Y2916682D01*
X3727856Y2922930D01*
X3705199Y2927248D01*
X3682187Y2929636D01*
X3659073Y2930144D01*
X3636060Y2928670D01*
X3613200Y2925318D01*
X3590696Y2920034D01*
X3568700Y2912872D01*
X3547414Y2903931D01*
X3526942Y2893212D01*
X3507435Y2880868D01*
X3488994Y2866898D01*
X3471824Y2851404D01*
X3456025Y2834589D01*
X3441649Y2816453D01*
X3428898Y2797200D01*
X3417773Y2776982D01*
X3408375Y2755849D01*
X3400755Y2734056D01*
X3395014Y2711653D01*
X3391154Y2688894D01*
X3389223Y2665831D01*
X3389223Y2642768D01*
X3391154Y2619705D01*
X3395014Y2596946D01*
X3400755Y2574544D01*
X3408375Y2552750D01*
X3417773Y2531618D01*
X3428898Y2511399D01*
X3441649Y2492146D01*
X3456025Y2474010D01*
X3471824Y2457196D01*
X3488994Y2441702D01*
X3507435Y2427732D01*
X3526942Y2415387D01*
X3547414Y2404668D01*
X3568700Y2395728D01*
X3590696Y2388565D01*
X3613200Y2383282D01*
X3636060Y2379929D01*
X3659073Y2378456D01*
X3682187Y2378964D01*
X3705199Y2381351D01*
X3727856Y2385669D01*
X3750106Y2391918D01*
X3771798Y2399944D01*
X3792677Y2409799D01*
X3812692Y2421331D01*
X3831691Y2434539D01*
X3849471Y2449271D01*
X3865981Y2465425D01*
X3881069Y2482951D01*
X3892702Y2498902D01*
X3895851Y2501747D01*
X3899865Y2503068D01*
X3904081Y2502611D01*
X3907739Y2500477D01*
X3910228Y2497074D01*
X3911092Y2492959D01*
X3911092Y680974D01*
X3911904Y672947D01*
X3914089Y665734D01*
X3917645Y659028D01*
X3919118Y657199D01*
X3920845Y654253D01*
X3921455Y650951D01*
X3920947Y647547D01*
X3916527Y634339D01*
X3913835Y620369D01*
X3912920Y606196D01*
X3913835Y592023D01*
X3916527Y578053D01*
X3920998Y564591D01*
X3927195Y551789D01*
X3934917Y539851D01*
X3944112Y529082D01*
X3954627Y519480D01*
X3966311Y511352D01*
X3978910Y504799D01*
X3992219Y499872D01*
X4006087Y496722D01*
G37*
G36*
X6259931Y559917D02*
G01*
X6275070Y560832D01*
X6290056Y563575D01*
X6304534Y568096D01*
X6318402Y574344D01*
X6331407Y582218D01*
X6343396Y591566D01*
X6354114Y602335D01*
X6363512Y614273D01*
X6371386Y627278D01*
X6377635Y641146D01*
X6382156Y655675D01*
X6384899Y670610D01*
X6385814Y685800D01*
X6384899Y700989D01*
X6382156Y715924D01*
X6377635Y730453D01*
X6371386Y744321D01*
X6363512Y757326D01*
X6354114Y769264D01*
X6343396Y780034D01*
X6331407Y789381D01*
X6318402Y797255D01*
X6304534Y803503D01*
X6290056Y808024D01*
X6275070Y810768D01*
X6259931Y811682D01*
X6244742Y810768D01*
X6229756Y808024D01*
X6215278Y803503D01*
X6201410Y797255D01*
X6188405Y789381D01*
X6176416Y780034D01*
X6165697Y769264D01*
X6156299Y757326D01*
X6148425Y744321D01*
X6142177Y730453D01*
X6137656Y715924D01*
X6134912Y700989D01*
X6133998Y685800D01*
X6134912Y670610D01*
X6137656Y655675D01*
X6142177Y641146D01*
X6148425Y627278D01*
X6156299Y614273D01*
X6165697Y602335D01*
X6176416Y591566D01*
X6188405Y582218D01*
X6201410Y574344D01*
X6215278Y568096D01*
X6229756Y563575D01*
X6244742Y560832D01*
G37*
G36*
X3544925Y559917D02*
G01*
X3560064Y560832D01*
X3575050Y563575D01*
X3589528Y568096D01*
X3603396Y574344D01*
X3616401Y582218D01*
X3628390Y591566D01*
X3639108Y602335D01*
X3648506Y614273D01*
X3656380Y627278D01*
X3662629Y641146D01*
X3667150Y655675D01*
X3669893Y670610D01*
X3670808Y685800D01*
X3669893Y700989D01*
X3667150Y715924D01*
X3662629Y730453D01*
X3656380Y744321D01*
X3648506Y757326D01*
X3639108Y769264D01*
X3628390Y780034D01*
X3616401Y789381D01*
X3603396Y797255D01*
X3589528Y803503D01*
X3575050Y808024D01*
X3560064Y810768D01*
X3544925Y811682D01*
X3529736Y810768D01*
X3514750Y808024D01*
X3500272Y803503D01*
X3486404Y797255D01*
X3473399Y789381D01*
X3461410Y780034D01*
X3450691Y769264D01*
X3441293Y757326D01*
X3433419Y744321D01*
X3427171Y730453D01*
X3422650Y715924D01*
X3419906Y700989D01*
X3418992Y685800D01*
X3419906Y670610D01*
X3422650Y655675D01*
X3427171Y641146D01*
X3433419Y627278D01*
X3441293Y614273D01*
X3450691Y602335D01*
X3461410Y591566D01*
X3473399Y582218D01*
X3486404Y574344D01*
X3500272Y568096D01*
X3514750Y563575D01*
X3529736Y560832D01*
G37*
G36*
X5814466Y618896D02*
G01*
X5912713Y618896D01*
X5912713Y690626D01*
X5912002Y696925D01*
X5910072Y702411D01*
X5906973Y707288D01*
X5902909Y711403D01*
X5897981Y714502D01*
X5892546Y716381D01*
X5886196Y717092D01*
X5814466Y717092D01*
G37*
G36*
X5690870Y618896D02*
G01*
X5789066Y618896D01*
X5789066Y714400D01*
X5789828Y718210D01*
X5792012Y721512D01*
X5797092Y726694D01*
X5799734Y728522D01*
X5801918Y733806D01*
X5806033Y742746D01*
X5808573Y752195D01*
X5809437Y762000D01*
X5808573Y771804D01*
X5806033Y781253D01*
X5801918Y790194D01*
X5796280Y798220D01*
X5794705Y799795D01*
X5792470Y803097D01*
X5791708Y807008D01*
X5791708Y849731D01*
X5792368Y853338D01*
X5794298Y856487D01*
X5797245Y858774D01*
X5800801Y859840D01*
X5804509Y859536D01*
X5806795Y858926D01*
X5815279Y858164D01*
X5819089Y857046D01*
X5822188Y854557D01*
X5824118Y851103D01*
X5824524Y847140D01*
X5823762Y838200D01*
X5824626Y828395D01*
X5827166Y818946D01*
X5831281Y810006D01*
X5836920Y801979D01*
X5843879Y795020D01*
X5851906Y789381D01*
X5860846Y785266D01*
X5870295Y782726D01*
X5880100Y781862D01*
X5889904Y782726D01*
X5899353Y785266D01*
X5908294Y789381D01*
X5916320Y795020D01*
X5923280Y801979D01*
X5928918Y810006D01*
X5933033Y818946D01*
X5935573Y828395D01*
X5936437Y838200D01*
X5935573Y848004D01*
X5933033Y857453D01*
X5928918Y866394D01*
X5923280Y874420D01*
X5921705Y875995D01*
X5919470Y879297D01*
X5918708Y883208D01*
X5918708Y2493010D01*
X5919622Y2497226D01*
X5922162Y2500680D01*
X5925921Y2502763D01*
X5930188Y2503119D01*
X5934252Y2501646D01*
X5937351Y2498648D01*
X5941669Y2492146D01*
X5955995Y2474010D01*
X5971844Y2457196D01*
X5989015Y2441702D01*
X6007404Y2427732D01*
X6026912Y2415387D01*
X6047384Y2404668D01*
X6068720Y2395728D01*
X6090666Y2388565D01*
X6113170Y2383282D01*
X6136030Y2379929D01*
X6159093Y2378456D01*
X6182207Y2378964D01*
X6205169Y2381351D01*
X6227876Y2385669D01*
X6250127Y2391918D01*
X6271768Y2399944D01*
X6292697Y2409799D01*
X6312712Y2421331D01*
X6331661Y2434539D01*
X6349492Y2449271D01*
X6366002Y2465425D01*
X6381089Y2482951D01*
X6394653Y2501646D01*
X6406642Y2521407D01*
X6416903Y2542082D01*
X6425438Y2563571D01*
X6432092Y2585669D01*
X6436918Y2608275D01*
X6439814Y2631236D01*
X6440779Y2654300D01*
X6439814Y2677414D01*
X6436918Y2700324D01*
X6432092Y2722930D01*
X6425438Y2745028D01*
X6416903Y2766517D01*
X6406642Y2787192D01*
X6394653Y2807004D01*
X6381089Y2825699D01*
X6366002Y2843174D01*
X6349492Y2859328D01*
X6331661Y2874060D01*
X6312712Y2887268D01*
X6292697Y2898800D01*
X6271768Y2908655D01*
X6250127Y2916682D01*
X6227876Y2922930D01*
X6205169Y2927248D01*
X6182207Y2929636D01*
X6159093Y2930144D01*
X6136030Y2928670D01*
X6113170Y2925318D01*
X6090666Y2920034D01*
X6068720Y2912872D01*
X6047384Y2903931D01*
X6026912Y2893212D01*
X6007404Y2880868D01*
X5989015Y2866898D01*
X5971844Y2851404D01*
X5955995Y2834589D01*
X5941669Y2816453D01*
X5937351Y2809951D01*
X5934252Y2806954D01*
X5930188Y2805480D01*
X5925921Y2805836D01*
X5922162Y2807919D01*
X5919622Y2811373D01*
X5918708Y2815590D01*
X5918708Y3787292D01*
X5919520Y3791254D01*
X5921806Y3794607D01*
X5925210Y3796792D01*
X5929172Y3797452D01*
X5933135Y3796537D01*
X5936386Y3794099D01*
X5938469Y3790645D01*
X5940348Y3785209D01*
X5943447Y3780332D01*
X5947511Y3776218D01*
X5952439Y3773170D01*
X5957874Y3771239D01*
X5964224Y3770528D01*
X5971438Y3770528D01*
X5975299Y3769766D01*
X5978601Y3767531D01*
X5980836Y3764279D01*
X5981598Y3760368D01*
X5981598Y3741572D01*
X5981801Y3736898D01*
X5982360Y3732529D01*
X5983325Y3728161D01*
X5984646Y3723944D01*
X5986373Y3719829D01*
X5988354Y3716020D01*
X5991860Y3710838D01*
X5993384Y3707434D01*
X5993536Y3703726D01*
X5992368Y3700221D01*
X5990031Y3697376D01*
X5986018Y3695242D01*
X5981141Y3692194D01*
X5977026Y3688079D01*
X5973978Y3683203D01*
X5972048Y3677716D01*
X5971336Y3671417D01*
X5971336Y3531870D01*
X5972048Y3525570D01*
X5973978Y3520084D01*
X5977026Y3515207D01*
X5981141Y3511092D01*
X5986018Y3507994D01*
X5991504Y3506114D01*
X5997803Y3505403D01*
X6346596Y3505403D01*
X6352895Y3506114D01*
X6358382Y3507994D01*
X6363258Y3511092D01*
X6367373Y3515207D01*
X6370421Y3520084D01*
X6372352Y3525570D01*
X6373063Y3531870D01*
X6373063Y3671417D01*
X6372352Y3677716D01*
X6370421Y3683203D01*
X6367373Y3688079D01*
X6363258Y3692194D01*
X6360820Y3693718D01*
X6357874Y3696563D01*
X6356248Y3700272D01*
X6356248Y3704386D01*
X6357874Y3708095D01*
X6360820Y3710940D01*
X6362801Y3712210D01*
X6366916Y3716274D01*
X6369964Y3721201D01*
X6371894Y3726637D01*
X6372606Y3732987D01*
X6372606Y3851808D01*
X6371894Y3858158D01*
X6369964Y3863594D01*
X6366916Y3868521D01*
X6362801Y3872585D01*
X6357924Y3875684D01*
X6353352Y3878173D01*
X6350965Y3881577D01*
X6350101Y3885641D01*
X6350101Y3898696D01*
X6349898Y3903319D01*
X6349339Y3907739D01*
X6348374Y3912057D01*
X6347053Y3916324D01*
X6345326Y3920388D01*
X6343294Y3924350D01*
X6340906Y3928110D01*
X6338214Y3931615D01*
X6335064Y3935069D01*
X6240475Y4029608D01*
X6238240Y4033062D01*
X6237528Y4037177D01*
X6238544Y4041190D01*
X6241034Y4044492D01*
X6244691Y4046474D01*
X6248806Y4046880D01*
X6252260Y4046474D01*
X6346139Y4046474D01*
X6352438Y4047185D01*
X6357924Y4049115D01*
X6362801Y4052214D01*
X6366916Y4056278D01*
X6369964Y4061206D01*
X6371894Y4066641D01*
X6372606Y4072991D01*
X6372606Y4191812D01*
X6371894Y4198162D01*
X6369964Y4203598D01*
X6366916Y4208526D01*
X6362801Y4212590D01*
X6357924Y4215688D01*
X6353352Y4218178D01*
X6350965Y4221581D01*
X6350101Y4225645D01*
X6350101Y4241292D01*
X6351066Y4245610D01*
X6352133Y4247946D01*
X6354673Y4257395D01*
X6355537Y4267200D01*
X6354673Y4277004D01*
X6352133Y4286453D01*
X6348018Y4295394D01*
X6342380Y4303420D01*
X6335420Y4310380D01*
X6327394Y4316018D01*
X6318453Y4320133D01*
X6309004Y4322673D01*
X6299200Y4323537D01*
X6289395Y4322673D01*
X6279946Y4320133D01*
X6271006Y4316018D01*
X6262979Y4310380D01*
X6256020Y4303420D01*
X6250381Y4295394D01*
X6246266Y4286453D01*
X6243726Y4277004D01*
X6242862Y4267200D01*
X6243726Y4257395D01*
X6246266Y4247946D01*
X6247333Y4245610D01*
X6248298Y4241292D01*
X6248298Y4225645D01*
X6247434Y4221581D01*
X6245047Y4218178D01*
X6240475Y4215688D01*
X6235598Y4212590D01*
X6231483Y4208526D01*
X6228435Y4203598D01*
X6226505Y4198162D01*
X6225794Y4191812D01*
X6225794Y4072991D01*
X6226200Y4069537D01*
X6225794Y4065371D01*
X6223762Y4061764D01*
X6220510Y4059224D01*
X6216446Y4058208D01*
X6212382Y4058920D01*
X6208877Y4061206D01*
X6187948Y4082186D01*
X6184493Y4085336D01*
X6180988Y4088028D01*
X6177229Y4090415D01*
X6173317Y4092448D01*
X6169202Y4094175D01*
X6164935Y4095496D01*
X6160617Y4096461D01*
X6156248Y4097020D01*
X6151575Y4097223D01*
X6136894Y4097223D01*
X6133287Y4097883D01*
X6130137Y4099814D01*
X6127902Y4102709D01*
X6126835Y4106265D01*
X6126530Y4108704D01*
X6124600Y4114139D01*
X6121552Y4119067D01*
X6117437Y4123131D01*
X6112560Y4126229D01*
X6107074Y4128160D01*
X6100775Y4128871D01*
X5964224Y4128871D01*
X5957874Y4128160D01*
X5952439Y4126229D01*
X5947511Y4123131D01*
X5943447Y4119067D01*
X5940348Y4114139D01*
X5938469Y4108754D01*
X5936386Y4105249D01*
X5933135Y4102862D01*
X5929172Y4101947D01*
X5925210Y4102608D01*
X5921806Y4104792D01*
X5919520Y4108145D01*
X5918708Y4112107D01*
X5918708Y7219391D01*
X5919470Y7223302D01*
X5921705Y7226604D01*
X5923280Y7228179D01*
X5928918Y7236206D01*
X5933033Y7245146D01*
X5935573Y7254595D01*
X5936437Y7264400D01*
X5935573Y7274204D01*
X5933033Y7283653D01*
X5928918Y7292594D01*
X5923280Y7300620D01*
X5921705Y7302195D01*
X5919470Y7305497D01*
X5918708Y7309408D01*
X5918708Y8590991D01*
X5919470Y8594902D01*
X5921705Y8598204D01*
X5923280Y8599779D01*
X5928918Y8607806D01*
X5933033Y8616746D01*
X5935573Y8626195D01*
X5936437Y8636000D01*
X5935573Y8645804D01*
X5933033Y8655253D01*
X5928918Y8664194D01*
X5923280Y8672220D01*
X5916320Y8679180D01*
X5908294Y8684818D01*
X5899353Y8688933D01*
X5889904Y8691473D01*
X5880100Y8692337D01*
X5870295Y8691473D01*
X5860846Y8688933D01*
X5851906Y8684818D01*
X5843879Y8679180D01*
X5836920Y8672220D01*
X5831281Y8664194D01*
X5827166Y8655253D01*
X5824626Y8645804D01*
X5823915Y8637930D01*
X5823000Y8634526D01*
X5820968Y8631631D01*
X5818073Y8629599D01*
X5814669Y8628684D01*
X5806795Y8627973D01*
X5797346Y8625433D01*
X5788406Y8621318D01*
X5780379Y8615680D01*
X5773420Y8608720D01*
X5767781Y8600694D01*
X5763666Y8591753D01*
X5761126Y8582304D01*
X5760415Y8574430D01*
X5759500Y8571026D01*
X5757468Y8568131D01*
X5754573Y8566099D01*
X5751169Y8565184D01*
X5743295Y8564473D01*
X5733846Y8561933D01*
X5724906Y8557818D01*
X5716879Y8552180D01*
X5714746Y8550046D01*
X5711444Y8547862D01*
X5707583Y8547049D01*
X5703671Y8547862D01*
X5700369Y8550046D01*
X5698185Y8553348D01*
X5697423Y8557209D01*
X5697423Y8575344D01*
X5696712Y8581644D01*
X5694781Y8587130D01*
X5691733Y8591956D01*
X5686552Y8597036D01*
X5684316Y8600389D01*
X5683504Y8604300D01*
X5683504Y8634577D01*
X5684266Y8638489D01*
X5686501Y8641791D01*
X5703824Y8659164D01*
X5708954Y8665362D01*
X5712510Y8672068D01*
X5714695Y8679281D01*
X5715508Y8687308D01*
X5715508Y8736330D01*
X5716270Y8740190D01*
X5718505Y8743492D01*
X5721756Y8745677D01*
X5725668Y8746490D01*
X5789371Y8746490D01*
X5789371Y8844686D01*
X5725668Y8844686D01*
X5721756Y8845448D01*
X5718505Y8847632D01*
X5716270Y8850934D01*
X5715508Y8854846D01*
X5715508Y8859926D01*
X5716270Y8863787D01*
X5718505Y8867089D01*
X5721756Y8869324D01*
X5725668Y8870086D01*
X5789371Y8870086D01*
X5789371Y8968282D01*
X5725668Y8968282D01*
X5721756Y8969044D01*
X5718505Y8971280D01*
X5716270Y8974582D01*
X5715508Y8978442D01*
X5715508Y9029192D01*
X5714695Y9037218D01*
X5712510Y9044432D01*
X5708954Y9051137D01*
X5703824Y9057335D01*
X5701436Y9059773D01*
X5699455Y9062567D01*
X5698540Y9065818D01*
X5698693Y9069222D01*
X5700014Y9072372D01*
X5703214Y9077452D01*
X5705094Y9082887D01*
X5705805Y9089237D01*
X5705805Y9243060D01*
X5705094Y9249410D01*
X5703214Y9254845D01*
X5700115Y9259773D01*
X5696000Y9263837D01*
X5691124Y9266936D01*
X5685688Y9268866D01*
X5679338Y9269577D01*
X5620461Y9269577D01*
X5614162Y9268866D01*
X5608675Y9266936D01*
X5605322Y9264802D01*
X5601766Y9263430D01*
X5598007Y9263430D01*
X5594502Y9264802D01*
X5591098Y9266936D01*
X5585663Y9268866D01*
X5579313Y9269577D01*
X5562600Y9269577D01*
X5562600Y9178848D01*
X5583834Y9178848D01*
X5587746Y9178086D01*
X5591048Y9175851D01*
X5593232Y9172600D01*
X5593994Y9168688D01*
X5593994Y9163608D01*
X5593232Y9159697D01*
X5591048Y9156446D01*
X5587746Y9154210D01*
X5583834Y9153448D01*
X5562600Y9153448D01*
X5562600Y9062720D01*
X5579313Y9062720D01*
X5585663Y9063431D01*
X5591098Y9065361D01*
X5594502Y9067495D01*
X5598007Y9068866D01*
X5601766Y9068866D01*
X5606542Y9066733D01*
X5609082Y9064447D01*
X5610707Y9061450D01*
X5612079Y9049156D01*
X5614263Y9041942D01*
X5617819Y9035288D01*
X5622950Y9029039D01*
X5635294Y9016695D01*
X5637530Y9013393D01*
X5638292Y9009481D01*
X5638292Y8948064D01*
X5637580Y8944356D01*
X5635599Y8941155D01*
X5632551Y8938920D01*
X5628894Y8937955D01*
X5625134Y8938361D01*
X5621782Y8940139D01*
X5611520Y8948318D01*
X5599379Y8955684D01*
X5586374Y8961424D01*
X5572760Y8965488D01*
X5558739Y8967774D01*
X5544515Y8968232D01*
X5530392Y8966860D01*
X5516524Y8963660D01*
X5503214Y8958783D01*
X5490616Y8952230D01*
X5478475Y8943644D01*
X5475173Y8941663D01*
X5471363Y8941054D01*
X5467553Y8941917D01*
X5464352Y8944102D01*
X5462270Y8947353D01*
X5461508Y8951163D01*
X5461508Y9009481D01*
X5462270Y9013393D01*
X5464505Y9016695D01*
X5476849Y9029039D01*
X5481980Y9035288D01*
X5485536Y9041942D01*
X5487720Y9049156D01*
X5488533Y9058097D01*
X5489092Y9061450D01*
X5490718Y9064447D01*
X5494477Y9067495D01*
X5497982Y9068866D01*
X5501792Y9068866D01*
X5505297Y9067495D01*
X5508650Y9065361D01*
X5514136Y9063431D01*
X5520436Y9062720D01*
X5537200Y9062720D01*
X5537200Y9153448D01*
X5515965Y9153448D01*
X5512054Y9154210D01*
X5508752Y9156446D01*
X5506567Y9159697D01*
X5505805Y9163608D01*
X5505805Y9168688D01*
X5506567Y9172600D01*
X5508752Y9175851D01*
X5512054Y9178086D01*
X5515965Y9178848D01*
X5537200Y9178848D01*
X5537200Y9269577D01*
X5520436Y9269577D01*
X5514136Y9268866D01*
X5508650Y9266936D01*
X5505297Y9264802D01*
X5501792Y9263430D01*
X5497982Y9263430D01*
X5494477Y9264802D01*
X5491124Y9266936D01*
X5485638Y9268866D01*
X5479338Y9269577D01*
X5420461Y9269577D01*
X5414111Y9268866D01*
X5408676Y9266936D01*
X5403799Y9263837D01*
X5399684Y9259773D01*
X5396585Y9254845D01*
X5394706Y9249410D01*
X5393994Y9243060D01*
X5393994Y9089237D01*
X5394706Y9082887D01*
X5396585Y9077452D01*
X5399786Y9072372D01*
X5401106Y9069222D01*
X5401259Y9065818D01*
X5400344Y9062567D01*
X5398363Y9059773D01*
X5395976Y9057335D01*
X5390845Y9051137D01*
X5387289Y9044432D01*
X5385104Y9037218D01*
X5384292Y9029192D01*
X5384292Y8948064D01*
X5383580Y8944356D01*
X5381599Y8941155D01*
X5378551Y8938920D01*
X5374894Y8937955D01*
X5371134Y8938361D01*
X5367782Y8940139D01*
X5357520Y8948318D01*
X5345379Y8955684D01*
X5332374Y8961424D01*
X5318760Y8965488D01*
X5304739Y8967774D01*
X5290515Y8968232D01*
X5276392Y8966860D01*
X5262524Y8963660D01*
X5249214Y8958783D01*
X5236616Y8952230D01*
X5224932Y8944051D01*
X5214416Y8934500D01*
X5205222Y8923680D01*
X5197449Y8911793D01*
X5191302Y8898991D01*
X5186832Y8885529D01*
X5184089Y8871559D01*
X5183225Y8857386D01*
X5184089Y8843213D01*
X5186832Y8829243D01*
X5191302Y8815781D01*
X5197449Y8802979D01*
X5205222Y8791041D01*
X5214416Y8780221D01*
X5224932Y8770670D01*
X5236616Y8762542D01*
X5254142Y8753297D01*
X5256479Y8749944D01*
X5257292Y8745931D01*
X5257292Y8681008D01*
X5256530Y8677097D01*
X5254294Y8673795D01*
X5252720Y8672220D01*
X5247081Y8664194D01*
X5242966Y8655253D01*
X5240426Y8645804D01*
X5239562Y8636000D01*
X5240426Y8626195D01*
X5242966Y8616746D01*
X5247081Y8607806D01*
X5252720Y8599779D01*
X5259679Y8592820D01*
X5267706Y8587181D01*
X5276646Y8583066D01*
X5286095Y8580526D01*
X5295900Y8579662D01*
X5305704Y8580526D01*
X5315153Y8583066D01*
X5324094Y8587181D01*
X5332120Y8592820D01*
X5339080Y8599779D01*
X5344718Y8607806D01*
X5348833Y8616746D01*
X5351373Y8626195D01*
X5352237Y8636000D01*
X5351373Y8645804D01*
X5348833Y8655253D01*
X5344718Y8664194D01*
X5339080Y8672220D01*
X5337505Y8673795D01*
X5335270Y8677097D01*
X5334508Y8681008D01*
X5334508Y8747658D01*
X5335270Y8751468D01*
X5337352Y8754719D01*
X5340553Y8756954D01*
X5345379Y8759088D01*
X5357520Y8766454D01*
X5367782Y8774633D01*
X5371134Y8776411D01*
X5374894Y8776817D01*
X5378551Y8775852D01*
X5381599Y8773566D01*
X5383580Y8770416D01*
X5384292Y8766657D01*
X5384292Y8687308D01*
X5385104Y8679281D01*
X5387289Y8672068D01*
X5390845Y8665362D01*
X5395976Y8659164D01*
X5413298Y8641791D01*
X5415534Y8638489D01*
X5416296Y8634577D01*
X5416296Y8604300D01*
X5415483Y8600389D01*
X5413248Y8597036D01*
X5408066Y8591956D01*
X5405018Y8587130D01*
X5403088Y8581644D01*
X5402376Y8575344D01*
X5402376Y8469274D01*
X5403088Y8462924D01*
X5405018Y8457488D01*
X5408117Y8452561D01*
X5412181Y8448497D01*
X5417108Y8445398D01*
X5422544Y8443518D01*
X5428894Y8442807D01*
X5481015Y8442807D01*
X5486400Y8442502D01*
X5489854Y8440572D01*
X5492343Y8437524D01*
X5493461Y8433663D01*
X5494426Y8422995D01*
X5496966Y8413546D01*
X5501081Y8404606D01*
X5506720Y8396579D01*
X5513679Y8389620D01*
X5516219Y8387892D01*
X5519166Y8384590D01*
X5520486Y8380374D01*
X5519877Y8376005D01*
X5517489Y8372297D01*
X5513730Y8369960D01*
X5512104Y8369401D01*
X5507786Y8366709D01*
X5504281Y8365337D01*
X5500522Y8365337D01*
X5497017Y8366709D01*
X5492699Y8369401D01*
X5487263Y8371281D01*
X5480913Y8371992D01*
X5428894Y8371992D01*
X5422544Y8371281D01*
X5417108Y8369401D01*
X5412181Y8366302D01*
X5408117Y8362238D01*
X5405018Y8357311D01*
X5403088Y8351875D01*
X5402376Y8345525D01*
X5402376Y8239455D01*
X5403088Y8233156D01*
X5405018Y8227669D01*
X5408066Y8222843D01*
X5413248Y8217763D01*
X5415483Y8214410D01*
X5416296Y8210499D01*
X5416296Y8152536D01*
X5415838Y8149488D01*
X5414467Y8146694D01*
X5412181Y8143494D01*
X5408066Y8134553D01*
X5405526Y8125104D01*
X5404662Y8115300D01*
X5405526Y8105495D01*
X5408066Y8096046D01*
X5413959Y8083600D01*
X5415991Y8081721D01*
X5417820Y8079079D01*
X5419902Y8076996D01*
X5422138Y8073694D01*
X5422900Y8069783D01*
X5422900Y8017408D01*
X5499100Y8017408D01*
X5499100Y8069783D01*
X5499862Y8073694D01*
X5502097Y8076996D01*
X5504180Y8079079D01*
X5506008Y8081721D01*
X5508040Y8083600D01*
X5513933Y8096046D01*
X5516473Y8105495D01*
X5517337Y8115300D01*
X5516473Y8125104D01*
X5513933Y8134553D01*
X5509818Y8143494D01*
X5504180Y8151520D01*
X5496509Y8159140D01*
X5494274Y8162442D01*
X5493512Y8166353D01*
X5493512Y8208924D01*
X5494426Y8213090D01*
X5496966Y8216544D01*
X5500725Y8218627D01*
X5505043Y8218982D01*
X5509056Y8217509D01*
X5512104Y8215630D01*
X5517540Y8213699D01*
X5523890Y8212988D01*
X5537200Y8212988D01*
X5537200Y8279790D01*
X5517591Y8279790D01*
X5513679Y8280552D01*
X5510377Y8282787D01*
X5508193Y8286089D01*
X5507431Y8289950D01*
X5507431Y8295030D01*
X5508193Y8298942D01*
X5510377Y8302244D01*
X5513679Y8304428D01*
X5517591Y8305190D01*
X5537200Y8305190D01*
X5537200Y8366455D01*
X5537962Y8370366D01*
X5540197Y8373668D01*
X5543448Y8375853D01*
X5547360Y8376615D01*
X5552440Y8376615D01*
X5556351Y8375853D01*
X5559602Y8373668D01*
X5561838Y8370366D01*
X5562600Y8366455D01*
X5562600Y8305190D01*
X5582208Y8305190D01*
X5586120Y8304428D01*
X5589422Y8302244D01*
X5591606Y8298942D01*
X5592368Y8295030D01*
X5592368Y8289950D01*
X5591606Y8286089D01*
X5589422Y8282787D01*
X5586120Y8280552D01*
X5582208Y8279790D01*
X5562600Y8279790D01*
X5562600Y8212988D01*
X5575909Y8212988D01*
X5582259Y8213699D01*
X5587695Y8215630D01*
X5592013Y8218322D01*
X5595518Y8219694D01*
X5599277Y8219694D01*
X5602782Y8218322D01*
X5607100Y8215630D01*
X5612536Y8213699D01*
X5618886Y8212988D01*
X5634685Y8212988D01*
X5638596Y8212226D01*
X5641898Y8209991D01*
X5647994Y8203895D01*
X5650230Y8200593D01*
X5650992Y8196681D01*
X5650992Y8179968D01*
X5650331Y8176361D01*
X5648401Y8173212D01*
X5645454Y8170925D01*
X5641898Y8169859D01*
X5638190Y8170164D01*
X5635904Y8170773D01*
X5626100Y8171637D01*
X5616295Y8170773D01*
X5606846Y8168233D01*
X5597906Y8164118D01*
X5589879Y8158480D01*
X5582920Y8151520D01*
X5577281Y8143494D01*
X5573166Y8134553D01*
X5570626Y8125104D01*
X5569762Y8115300D01*
X5570626Y8105495D01*
X5573166Y8096046D01*
X5577281Y8087106D01*
X5582920Y8079079D01*
X5584494Y8077504D01*
X5586730Y8074202D01*
X5587492Y8070291D01*
X5587492Y7665008D01*
X5586730Y7661097D01*
X5584494Y7657795D01*
X5582920Y7656220D01*
X5577281Y7648194D01*
X5573166Y7639253D01*
X5570626Y7629804D01*
X5569762Y7620000D01*
X5570626Y7610195D01*
X5573166Y7600746D01*
X5577281Y7591806D01*
X5579719Y7588402D01*
X5581294Y7584846D01*
X5581396Y7580985D01*
X5580075Y7577328D01*
X5577484Y7574483D01*
X5573979Y7572756D01*
X5568746Y7571333D01*
X5559806Y7567218D01*
X5551779Y7561580D01*
X5544820Y7554620D01*
X5539181Y7546594D01*
X5535066Y7537653D01*
X5532526Y7528204D01*
X5531662Y7518400D01*
X5532120Y7513269D01*
X5531510Y7508900D01*
X5529173Y7505192D01*
X5520537Y7496556D01*
X5517235Y7494371D01*
X5513374Y7493609D01*
X5509463Y7494371D01*
X5506161Y7496556D01*
X5503976Y7499858D01*
X5503214Y7503769D01*
X5503214Y7511643D01*
X5502503Y7517942D01*
X5501589Y7522209D01*
X5502503Y7526477D01*
X5503214Y7532776D01*
X5503214Y7551623D01*
X5502503Y7557973D01*
X5501589Y7562189D01*
X5502503Y7566456D01*
X5503214Y7572756D01*
X5503214Y7591653D01*
X5502503Y7597952D01*
X5501589Y7602220D01*
X5502503Y7606436D01*
X5503214Y7612786D01*
X5503214Y7631633D01*
X5502503Y7637932D01*
X5501589Y7642199D01*
X5502503Y7646466D01*
X5503214Y7652766D01*
X5503214Y7667040D01*
X5504180Y7671358D01*
X5507329Y7675219D01*
X5538774Y7706664D01*
X5543854Y7712862D01*
X5547410Y7719568D01*
X5549595Y7726781D01*
X5550408Y7734808D01*
X5550408Y7827518D01*
X5550966Y7830820D01*
X5552490Y7833715D01*
X5558993Y7840065D01*
X5562092Y7844993D01*
X5563971Y7850428D01*
X5564682Y7856778D01*
X5564682Y7934655D01*
X5563971Y7940954D01*
X5561939Y7946847D01*
X5561380Y7950200D01*
X5561939Y7953552D01*
X5563971Y7959445D01*
X5564682Y7965795D01*
X5564682Y7992008D01*
X5524500Y7992008D01*
X5524500Y7971281D01*
X5523738Y7967370D01*
X5521502Y7964068D01*
X5518200Y7961884D01*
X5514340Y7961122D01*
X5509260Y7961122D01*
X5505348Y7961884D01*
X5502097Y7964068D01*
X5499862Y7967370D01*
X5499100Y7971281D01*
X5499100Y7992008D01*
X5422900Y7992008D01*
X5422900Y7971281D01*
X5422138Y7967370D01*
X5419902Y7964068D01*
X5416600Y7961884D01*
X5412740Y7961122D01*
X5407660Y7961122D01*
X5403748Y7961884D01*
X5400497Y7964068D01*
X5398262Y7967370D01*
X5397500Y7971281D01*
X5397500Y7992008D01*
X5376062Y7992008D01*
X5372150Y7992770D01*
X5368848Y7995005D01*
X5366664Y7998256D01*
X5365902Y8002168D01*
X5365902Y8007248D01*
X5366664Y8011159D01*
X5368848Y8014411D01*
X5372150Y8016646D01*
X5376062Y8017408D01*
X5397500Y8017408D01*
X5397500Y8070138D01*
X5383784Y8070138D01*
X5377434Y8069427D01*
X5371998Y8067497D01*
X5367070Y8064398D01*
X5363006Y8060334D01*
X5359908Y8055406D01*
X5358587Y8051596D01*
X5356504Y8048142D01*
X5353202Y8045703D01*
X5349240Y8044789D01*
X5345226Y8045551D01*
X5341823Y8047786D01*
X5304231Y8085378D01*
X5302199Y8088274D01*
X5301284Y8091678D01*
X5300573Y8099704D01*
X5298033Y8109153D01*
X5293918Y8118094D01*
X5288280Y8126120D01*
X5281320Y8133080D01*
X5273294Y8138718D01*
X5264353Y8142833D01*
X5254904Y8145373D01*
X5245100Y8146237D01*
X5235295Y8145373D01*
X5225846Y8142833D01*
X5216906Y8138718D01*
X5208879Y8133080D01*
X5201920Y8126120D01*
X5196281Y8118094D01*
X5192166Y8109153D01*
X5189626Y8099704D01*
X5188915Y8091678D01*
X5188000Y8088274D01*
X5185968Y8085378D01*
X5183835Y8083245D01*
X5178755Y8077047D01*
X5175808Y8071510D01*
X5173827Y8068919D01*
X5171084Y8067040D01*
X5167985Y8066176D01*
X5165445Y8065922D01*
X5159552Y8063839D01*
X5156200Y8063280D01*
X5152847Y8063839D01*
X5146954Y8065922D01*
X5140604Y8066633D01*
X5114391Y8066633D01*
X5114391Y8026400D01*
X5135118Y8026400D01*
X5139029Y8025638D01*
X5142331Y8023402D01*
X5144516Y8020151D01*
X5145278Y8016240D01*
X5145278Y8011159D01*
X5144516Y8007299D01*
X5142331Y8003997D01*
X5139029Y8001762D01*
X5135118Y8001000D01*
X5114391Y8001000D01*
X5114391Y7924800D01*
X5135118Y7924800D01*
X5139029Y7924038D01*
X5142331Y7921802D01*
X5144516Y7918551D01*
X5145278Y7914640D01*
X5145278Y7909559D01*
X5144516Y7905699D01*
X5142331Y7902397D01*
X5139029Y7900162D01*
X5135118Y7899400D01*
X5114391Y7899400D01*
X5114391Y7887512D01*
X5113528Y7883347D01*
X5110988Y7879892D01*
X5107330Y7877809D01*
X5103114Y7877403D01*
X5098034Y7877962D01*
X5094478Y7879029D01*
X5091582Y7881315D01*
X5089652Y7884464D01*
X5088991Y7888071D01*
X5088991Y7899400D01*
X5068366Y7899400D01*
X5063947Y7900416D01*
X5060442Y7903209D01*
X5058460Y7907223D01*
X5058410Y7911744D01*
X5059527Y7916824D01*
X5060797Y7919974D01*
X5063083Y7922564D01*
X5066080Y7924241D01*
X5069484Y7924800D01*
X5088991Y7924800D01*
X5088991Y8001000D01*
X5036261Y8001000D01*
X5036261Y7987436D01*
X5035600Y7983829D01*
X5033670Y7980629D01*
X5030724Y7978394D01*
X5027168Y7977327D01*
X5023510Y7977631D01*
X5013604Y7980273D01*
X5003800Y7981137D01*
X4993995Y7980273D01*
X4991049Y7979511D01*
X4987544Y7979206D01*
X4984140Y7980121D01*
X4981244Y7982153D01*
X4979212Y7984998D01*
X4976418Y7991094D01*
X4970780Y7999120D01*
X4963820Y8006080D01*
X4955794Y8011718D01*
X4946853Y8015833D01*
X4937404Y8018373D01*
X4927600Y8019237D01*
X4917795Y8018373D01*
X4908346Y8015833D01*
X4899406Y8011718D01*
X4891379Y8006080D01*
X4884420Y7999120D01*
X4878781Y7991094D01*
X4877562Y7988401D01*
X4875276Y7985252D01*
X4871974Y7983220D01*
X4868164Y7982508D01*
X4864354Y7983321D01*
X4861153Y7985506D01*
X4785106Y8061553D01*
X4779467Y8066125D01*
X4773472Y8069173D01*
X4766868Y8070951D01*
X4761534Y8071358D01*
X4509008Y8071358D01*
X4501794Y8070596D01*
X4495393Y8068513D01*
X4489450Y8065109D01*
X4485386Y8061604D01*
X4465675Y8041894D01*
X4463237Y8040065D01*
X4460341Y8039049D01*
X4457344Y8038947D01*
X4450689Y8039709D01*
X4391812Y8039709D01*
X4385513Y8038998D01*
X4380026Y8037068D01*
X4375150Y8034020D01*
X4371035Y8029905D01*
X4367987Y8025028D01*
X4366056Y8019542D01*
X4365345Y8013242D01*
X4365345Y7986369D01*
X4366056Y7980070D01*
X4367276Y7974787D01*
X4366056Y7969554D01*
X4365345Y7963204D01*
X4365345Y7936331D01*
X4366056Y7930032D01*
X4367276Y7924800D01*
X4366056Y7919567D01*
X4365345Y7913217D01*
X4365345Y7886344D01*
X4366056Y7880045D01*
X4367276Y7874762D01*
X4366056Y7869529D01*
X4365345Y7863230D01*
X4365345Y7836357D01*
X4366056Y7830058D01*
X4367987Y7824571D01*
X4371035Y7819694D01*
X4375150Y7815580D01*
X4380026Y7812481D01*
X4382211Y7811770D01*
X4385716Y7809585D01*
X4388154Y7806232D01*
X4388967Y7802168D01*
X4388967Y7783982D01*
X4389729Y7776768D01*
X4391812Y7770368D01*
X4395266Y7764424D01*
X4398721Y7760360D01*
X4414520Y7744561D01*
X4416704Y7741259D01*
X4417517Y7737398D01*
X4417517Y7673644D01*
X4418228Y7667345D01*
X4420260Y7661452D01*
X4420819Y7658100D01*
X4420260Y7654747D01*
X4418228Y7648854D01*
X4417517Y7642504D01*
X4417517Y7616291D01*
X4457700Y7616291D01*
X4457700Y7637018D01*
X4458462Y7640929D01*
X4460697Y7644231D01*
X4463948Y7646416D01*
X4467860Y7647178D01*
X4472940Y7647178D01*
X4476851Y7646416D01*
X4480102Y7644231D01*
X4482338Y7640929D01*
X4483100Y7637018D01*
X4483100Y7616291D01*
X4559300Y7616291D01*
X4559300Y7637018D01*
X4560062Y7640929D01*
X4562297Y7644231D01*
X4565548Y7646416D01*
X4569460Y7647178D01*
X4574540Y7647178D01*
X4578451Y7646416D01*
X4581702Y7644231D01*
X4583938Y7640929D01*
X4584700Y7637018D01*
X4584700Y7616291D01*
X4621885Y7616291D01*
X4626305Y7615275D01*
X4629861Y7612481D01*
X4631791Y7608417D01*
X4632706Y7604506D01*
X4632960Y7601661D01*
X4631994Y7597698D01*
X4629861Y7594142D01*
X4626457Y7591755D01*
X4622393Y7590891D01*
X4584700Y7590891D01*
X4584700Y7584592D01*
X4583938Y7580731D01*
X4581702Y7577429D01*
X4578451Y7575245D01*
X4574540Y7574432D01*
X4569460Y7574432D01*
X4565548Y7575245D01*
X4562297Y7577429D01*
X4560062Y7580731D01*
X4559300Y7584592D01*
X4559300Y7590891D01*
X4483100Y7590891D01*
X4483100Y7584592D01*
X4482338Y7580731D01*
X4480102Y7577429D01*
X4476851Y7575245D01*
X4472940Y7574432D01*
X4467860Y7574432D01*
X4463948Y7575245D01*
X4460697Y7577429D01*
X4458462Y7580731D01*
X4457700Y7584592D01*
X4457700Y7590891D01*
X4417517Y7590891D01*
X4417517Y7584592D01*
X4416704Y7580731D01*
X4414520Y7577429D01*
X4411218Y7575245D01*
X4407357Y7574432D01*
X4358894Y7574432D01*
X4355236Y7575143D01*
X4352036Y7577124D01*
X4349800Y7580122D01*
X4348784Y7583728D01*
X4348073Y7591704D01*
X4345533Y7601153D01*
X4341418Y7610094D01*
X4335780Y7618120D01*
X4328820Y7625080D01*
X4320794Y7630718D01*
X4311853Y7634833D01*
X4302404Y7637373D01*
X4292600Y7638237D01*
X4282795Y7637373D01*
X4273346Y7634833D01*
X4264406Y7630718D01*
X4256379Y7625080D01*
X4249420Y7618120D01*
X4243781Y7610094D01*
X4239666Y7601153D01*
X4237126Y7591704D01*
X4236262Y7581900D01*
X4237126Y7572095D01*
X4239666Y7562646D01*
X4243781Y7553706D01*
X4246118Y7550454D01*
X4247794Y7546390D01*
X4247591Y7541971D01*
X4245559Y7538110D01*
X4242054Y7535418D01*
X4237786Y7534452D01*
X4086453Y7534452D01*
X4079189Y7533690D01*
X4072686Y7531557D01*
X4068470Y7529271D01*
X4064050Y7525715D01*
X4060596Y7523886D01*
X4056735Y7523480D01*
X4051300Y7523937D01*
X4041495Y7523073D01*
X4032046Y7520533D01*
X4023106Y7516418D01*
X4015079Y7510780D01*
X4008120Y7503820D01*
X4002481Y7495794D01*
X3998366Y7486853D01*
X3995826Y7477404D01*
X3994962Y7467600D01*
X3995826Y7457795D01*
X3998366Y7448346D01*
X4002481Y7439406D01*
X4008120Y7431379D01*
X4009694Y7429804D01*
X4011929Y7426502D01*
X4012692Y7422591D01*
X4012692Y4871008D01*
X4011929Y4867097D01*
X4009694Y4863795D01*
X4008120Y4862220D01*
X4002481Y4854194D01*
X3998366Y4845253D01*
X3995826Y4835804D01*
X3994962Y4826000D01*
X3995826Y4816195D01*
X3998366Y4806746D01*
X4002481Y4797806D01*
X4008120Y4789779D01*
X4015079Y4782820D01*
X4023106Y4777181D01*
X4032046Y4773066D01*
X4041495Y4770526D01*
X4051300Y4769662D01*
X4061104Y4770526D01*
X4070553Y4773066D01*
X4079494Y4777181D01*
X4087520Y4782820D01*
X4094479Y4789779D01*
X4100118Y4797806D01*
X4104233Y4806746D01*
X4106773Y4816195D01*
X4107484Y4824069D01*
X4108399Y4827473D01*
X4110431Y4830368D01*
X4113326Y4832400D01*
X4116730Y4833315D01*
X4124604Y4834026D01*
X4134053Y4836566D01*
X4142994Y4840681D01*
X4151020Y4846320D01*
X4157979Y4853279D01*
X4163618Y4861306D01*
X4167733Y4870246D01*
X4170273Y4879695D01*
X4171137Y4889500D01*
X4170273Y4899304D01*
X4167733Y4908753D01*
X4163618Y4917694D01*
X4157979Y4925720D01*
X4156405Y4927295D01*
X4154170Y4930597D01*
X4153408Y4934508D01*
X4153408Y6343243D01*
X4154170Y6347104D01*
X4156405Y6350406D01*
X4159656Y6352590D01*
X4163568Y6353403D01*
X4230979Y6353403D01*
X4230979Y6451600D01*
X4163568Y6451600D01*
X4159656Y6452362D01*
X4156405Y6454546D01*
X4154170Y6457848D01*
X4153408Y6461760D01*
X4153408Y6466840D01*
X4154170Y6470700D01*
X4156405Y6474002D01*
X4159656Y6476238D01*
X4163568Y6477000D01*
X4230979Y6477000D01*
X4230979Y6575196D01*
X4163568Y6575196D01*
X4159656Y6575958D01*
X4156405Y6578193D01*
X4154170Y6581444D01*
X4153408Y6585356D01*
X4153408Y7125817D01*
X4154271Y7129881D01*
X4156659Y7133285D01*
X4160215Y7135418D01*
X4164329Y7135977D01*
X4168292Y7134809D01*
X4171492Y7132167D01*
X4173372Y7128459D01*
X4176166Y7118146D01*
X4180281Y7109206D01*
X4185920Y7101179D01*
X4189018Y7097268D01*
X4189984Y7094016D01*
X4189780Y7090613D01*
X4188002Y7086701D01*
X4186072Y7081266D01*
X4185361Y7074916D01*
X4185361Y7061200D01*
X4238091Y7061200D01*
X4238091Y7073900D01*
X4238955Y7078014D01*
X4241444Y7081469D01*
X4245102Y7083552D01*
X4250182Y7085228D01*
X4253941Y7085685D01*
X4257649Y7084720D01*
X4260748Y7082485D01*
X4262780Y7079284D01*
X4263491Y7075576D01*
X4263491Y7061200D01*
X4284218Y7061200D01*
X4288129Y7060438D01*
X4291431Y7058202D01*
X4293616Y7054951D01*
X4294378Y7051040D01*
X4294378Y7045959D01*
X4293616Y7042099D01*
X4291431Y7038797D01*
X4288129Y7036562D01*
X4284218Y7035800D01*
X4263491Y7035800D01*
X4263491Y6995617D01*
X4289704Y6995617D01*
X4296054Y6996328D01*
X4301134Y6998106D01*
X4305503Y6998614D01*
X4309668Y6997242D01*
X4312869Y6994296D01*
X4314494Y6990232D01*
X4314342Y6985863D01*
X4313326Y6982104D01*
X4312462Y6972300D01*
X4313326Y6962495D01*
X4315866Y6953046D01*
X4319981Y6944106D01*
X4325620Y6936079D01*
X4332579Y6929120D01*
X4340606Y6923481D01*
X4349546Y6919366D01*
X4358995Y6916826D01*
X4368800Y6915962D01*
X4378604Y6916826D01*
X4388053Y6919366D01*
X4396994Y6923481D01*
X4405020Y6929120D01*
X4411980Y6936079D01*
X4414469Y6939686D01*
X4417618Y6942581D01*
X4421632Y6943953D01*
X4425848Y6943547D01*
X4429556Y6941464D01*
X4432096Y6938009D01*
X4432960Y6933844D01*
X4432960Y6923278D01*
X4433671Y6916928D01*
X4435602Y6911492D01*
X4438650Y6906564D01*
X4442764Y6902500D01*
X4447641Y6899402D01*
X4453128Y6897471D01*
X4459427Y6896760D01*
X4513326Y6896760D01*
X4519625Y6897471D01*
X4525111Y6899402D01*
X4528464Y6901535D01*
X4531969Y6902907D01*
X4535779Y6902907D01*
X4539284Y6901535D01*
X4542637Y6899402D01*
X4548124Y6897471D01*
X4553407Y6896201D01*
X4556353Y6893814D01*
X4558233Y6890562D01*
X4558792Y6886854D01*
X4557979Y6883146D01*
X4555845Y6880047D01*
X4551629Y6875780D01*
X4548327Y6873595D01*
X4544415Y6872782D01*
X4511395Y6872782D01*
X4505045Y6872071D01*
X4499152Y6870039D01*
X4495800Y6869480D01*
X4492447Y6870039D01*
X4486554Y6872071D01*
X4480204Y6872782D01*
X4453991Y6872782D01*
X4453991Y6832600D01*
X4474718Y6832600D01*
X4478629Y6831838D01*
X4481931Y6829602D01*
X4484116Y6826351D01*
X4484878Y6822440D01*
X4484878Y6817359D01*
X4484116Y6813448D01*
X4481931Y6810197D01*
X4478629Y6807962D01*
X4474718Y6807200D01*
X4453991Y6807200D01*
X4453991Y6766966D01*
X4480204Y6766966D01*
X4486554Y6767728D01*
X4491634Y6769506D01*
X4496003Y6770014D01*
X4500168Y6768642D01*
X4503369Y6765696D01*
X4504994Y6761632D01*
X4504842Y6757263D01*
X4503826Y6753504D01*
X4502962Y6743700D01*
X4503826Y6733895D01*
X4506366Y6724446D01*
X4510481Y6715506D01*
X4516120Y6707479D01*
X4523079Y6700520D01*
X4531106Y6694881D01*
X4540046Y6690766D01*
X4549495Y6688226D01*
X4557522Y6687515D01*
X4560925Y6686600D01*
X4563821Y6684568D01*
X4581194Y6667195D01*
X4583430Y6663893D01*
X4584192Y6659981D01*
X4584192Y6558178D01*
X4583430Y6554368D01*
X4581347Y6551117D01*
X4578146Y6548881D01*
X4574336Y6548018D01*
X4570526Y6548628D01*
X4566818Y6550964D01*
X4555185Y6559092D01*
X4542586Y6565696D01*
X4529226Y6570573D01*
X4515408Y6573774D01*
X4510379Y6574231D01*
X4510379Y6477000D01*
X4574032Y6477000D01*
X4577943Y6476238D01*
X4581194Y6474002D01*
X4583430Y6470700D01*
X4584192Y6466840D01*
X4584192Y6461760D01*
X4583430Y6457848D01*
X4581194Y6454546D01*
X4577943Y6452362D01*
X4574032Y6451600D01*
X4510379Y6451600D01*
X4510379Y6354318D01*
X4515408Y6354826D01*
X4529226Y6357975D01*
X4542586Y6362903D01*
X4555185Y6369456D01*
X4567224Y6377940D01*
X4570526Y6379921D01*
X4574336Y6380581D01*
X4578146Y6379718D01*
X4581347Y6377482D01*
X4583430Y6374231D01*
X4584192Y6370421D01*
X4584192Y6081979D01*
X4583531Y6078372D01*
X4581601Y6075222D01*
X4578705Y6072936D01*
X4573828Y6071768D01*
X4568393Y6069838D01*
X4563465Y6066739D01*
X4559401Y6062675D01*
X4556302Y6057747D01*
X4554423Y6052312D01*
X4553712Y6045962D01*
X4553712Y5966460D01*
X4554423Y5960160D01*
X4556302Y5954674D01*
X4559401Y5949797D01*
X4563465Y5945682D01*
X4568393Y5942634D01*
X4574438Y5940501D01*
X4577994Y5938367D01*
X4580432Y5934964D01*
X4581245Y5930900D01*
X4580432Y5926836D01*
X4577994Y5923432D01*
X4574438Y5921298D01*
X4568393Y5919165D01*
X4563465Y5916117D01*
X4559401Y5912002D01*
X4556302Y5907125D01*
X4554423Y5901639D01*
X4553712Y5895340D01*
X4553712Y5815838D01*
X4554423Y5809488D01*
X4556302Y5804052D01*
X4559401Y5799124D01*
X4563465Y5795060D01*
X4568393Y5791962D01*
X4573828Y5790031D01*
X4580178Y5789320D01*
X4665421Y5789320D01*
X4671771Y5790031D01*
X4677206Y5791962D01*
X4682134Y5795060D01*
X4686198Y5799124D01*
X4688281Y5802426D01*
X4690567Y5804966D01*
X4693513Y5806643D01*
X4696866Y5807202D01*
X4738420Y5807202D01*
X4742434Y5806338D01*
X4745837Y5803950D01*
X4747971Y5800394D01*
X4750003Y5794603D01*
X4753102Y5789676D01*
X4757166Y5785612D01*
X4762093Y5782513D01*
X4767529Y5780633D01*
X4773879Y5779922D01*
X4852720Y5779922D01*
X4859070Y5780633D01*
X4864506Y5782513D01*
X4869434Y5785612D01*
X4873498Y5789676D01*
X4876596Y5794603D01*
X4878476Y5800039D01*
X4879187Y5806389D01*
X4879187Y5885230D01*
X4878476Y5891580D01*
X4876596Y5897016D01*
X4873498Y5901944D01*
X4869434Y5906008D01*
X4864506Y5909106D01*
X4859070Y5910986D01*
X4852720Y5911697D01*
X4773879Y5911697D01*
X4767529Y5910986D01*
X4762093Y5909106D01*
X4757166Y5906008D01*
X4753102Y5901944D01*
X4750003Y5897016D01*
X4747971Y5891225D01*
X4745837Y5887669D01*
X4742434Y5885281D01*
X4738370Y5884418D01*
X4702048Y5884418D01*
X4698390Y5885078D01*
X4695240Y5887059D01*
X4693005Y5890006D01*
X4691938Y5893612D01*
X4691176Y5901740D01*
X4689297Y5907125D01*
X4686198Y5912002D01*
X4682134Y5916117D01*
X4677206Y5919165D01*
X4671161Y5921298D01*
X4667605Y5923432D01*
X4665167Y5926836D01*
X4664354Y5930900D01*
X4665167Y5934964D01*
X4667605Y5938367D01*
X4671161Y5940501D01*
X4677206Y5942634D01*
X4682134Y5945682D01*
X4686198Y5949797D01*
X4689297Y5954674D01*
X4691176Y5960160D01*
X4691888Y5966460D01*
X4691888Y6045962D01*
X4691176Y6052312D01*
X4689297Y6057747D01*
X4686198Y6062675D01*
X4682134Y6066739D01*
X4677206Y6069838D01*
X4671771Y6071768D01*
X4666894Y6072936D01*
X4663998Y6075222D01*
X4662068Y6078372D01*
X4661408Y6081979D01*
X4661408Y6373672D01*
X4662119Y6377381D01*
X4664100Y6380581D01*
X4667148Y6382816D01*
X4670806Y6383782D01*
X4674565Y6383375D01*
X4677918Y6381597D01*
X4688230Y6373317D01*
X4700422Y6365951D01*
X4706924Y6363106D01*
X4710125Y6360871D01*
X4712208Y6357620D01*
X4712970Y6353810D01*
X4712970Y6280607D01*
X4712208Y6276695D01*
X4709972Y6273393D01*
X4708499Y6271920D01*
X4702860Y6263894D01*
X4698746Y6254953D01*
X4696206Y6245504D01*
X4695342Y6235700D01*
X4696206Y6225895D01*
X4698746Y6216446D01*
X4702860Y6207506D01*
X4708499Y6199479D01*
X4715459Y6192520D01*
X4723485Y6186881D01*
X4732426Y6182766D01*
X4741875Y6180226D01*
X4751679Y6179362D01*
X4761484Y6180226D01*
X4770932Y6182766D01*
X4779873Y6186881D01*
X4787900Y6192520D01*
X4794859Y6199479D01*
X4800498Y6207506D01*
X4804613Y6216446D01*
X4807153Y6225895D01*
X4808016Y6235700D01*
X4807153Y6245504D01*
X4804613Y6254953D01*
X4800498Y6263894D01*
X4794859Y6271920D01*
X4793183Y6273596D01*
X4790948Y6276898D01*
X4790186Y6280810D01*
X4790186Y6353454D01*
X4790846Y6357061D01*
X4792776Y6360210D01*
X4795672Y6362496D01*
X4809185Y6369456D01*
X4820818Y6377584D01*
X4831334Y6387134D01*
X4840579Y6397955D01*
X4848301Y6409893D01*
X4854448Y6422694D01*
X4858969Y6436156D01*
X4861661Y6450126D01*
X4862576Y6464300D01*
X4861661Y6478473D01*
X4858969Y6492392D01*
X4854448Y6505905D01*
X4848301Y6518706D01*
X4840579Y6530594D01*
X4831334Y6541414D01*
X4820818Y6550964D01*
X4809185Y6559092D01*
X4796586Y6565696D01*
X4783226Y6570573D01*
X4769408Y6573774D01*
X4755235Y6575094D01*
X4741062Y6574637D01*
X4726990Y6572402D01*
X4713376Y6568338D01*
X4700422Y6562598D01*
X4688230Y6555231D01*
X4677918Y6547002D01*
X4674565Y6545224D01*
X4670806Y6544818D01*
X4667148Y6545783D01*
X4664100Y6548018D01*
X4662119Y6551218D01*
X4661408Y6554927D01*
X4661408Y6666738D01*
X4662119Y6670497D01*
X4664202Y6673748D01*
X4667351Y6675983D01*
X4671110Y6676898D01*
X4674920Y6676339D01*
X4678324Y6675120D01*
X4684674Y6674408D01*
X4823510Y6674408D01*
X4829860Y6675120D01*
X4835296Y6677050D01*
X4840224Y6680098D01*
X4844288Y6684213D01*
X4847386Y6689090D01*
X4849317Y6694576D01*
X4850028Y6700875D01*
X4850028Y6819747D01*
X4849317Y6826046D01*
X4847386Y6831533D01*
X4844288Y6836409D01*
X4842611Y6838137D01*
X4840376Y6841439D01*
X4839614Y6845300D01*
X4840376Y6849211D01*
X4842611Y6852513D01*
X4844288Y6854190D01*
X4847386Y6859117D01*
X4849317Y6864553D01*
X4850028Y6870903D01*
X4850028Y6989724D01*
X4849368Y6995261D01*
X4849723Y6999173D01*
X4851552Y7002729D01*
X4854549Y7005269D01*
X4858359Y7006488D01*
X4867300Y7007910D01*
X4872177Y7006793D01*
X4875123Y7005167D01*
X4877409Y7002627D01*
X4878730Y6999478D01*
X4878882Y6996074D01*
X4878171Y6989724D01*
X4878171Y6870903D01*
X4878882Y6864553D01*
X4880813Y6859117D01*
X4883912Y6854190D01*
X4885588Y6852513D01*
X4887823Y6849211D01*
X4888585Y6845300D01*
X4887823Y6841439D01*
X4885588Y6838137D01*
X4883912Y6836409D01*
X4880813Y6831533D01*
X4878882Y6826046D01*
X4878171Y6819747D01*
X4878171Y6773011D01*
X4961382Y6773011D01*
X4961382Y6834225D01*
X4962194Y6838137D01*
X4964379Y6841439D01*
X4967681Y6843623D01*
X4971542Y6844385D01*
X4976622Y6844385D01*
X4980533Y6843623D01*
X4983835Y6841439D01*
X4986020Y6838137D01*
X4986782Y6834225D01*
X4986782Y6773011D01*
X5067401Y6773011D01*
X5069840Y6772706D01*
X5072634Y6771589D01*
X5079847Y6769404D01*
X5087874Y6768592D01*
X5097018Y6768592D01*
X5100269Y6768033D01*
X5103215Y6766509D01*
X5109565Y6760006D01*
X5114493Y6756908D01*
X5119928Y6755028D01*
X5126278Y6754317D01*
X5204104Y6754317D01*
X5210454Y6755028D01*
X5216347Y6757060D01*
X5219700Y6757619D01*
X5223052Y6757060D01*
X5228945Y6755028D01*
X5235244Y6754317D01*
X5261508Y6754317D01*
X5261508Y6794500D01*
X5240782Y6794500D01*
X5236870Y6795262D01*
X5233568Y6797497D01*
X5231384Y6800799D01*
X5230622Y6804659D01*
X5230622Y6809740D01*
X5231384Y6813651D01*
X5233568Y6816902D01*
X5236870Y6819138D01*
X5240782Y6819900D01*
X5261508Y6819900D01*
X5261508Y6896100D01*
X5240782Y6896100D01*
X5236870Y6896862D01*
X5233568Y6899097D01*
X5231384Y6902399D01*
X5230622Y6906259D01*
X5230622Y6911340D01*
X5231384Y6915251D01*
X5233568Y6918502D01*
X5236870Y6920738D01*
X5240782Y6921500D01*
X5261508Y6921500D01*
X5261508Y6955281D01*
X5262270Y6959193D01*
X5264454Y6962444D01*
X5267756Y6964680D01*
X5271668Y6965442D01*
X5276748Y6965442D01*
X5280609Y6964680D01*
X5283911Y6962444D01*
X5286146Y6959193D01*
X5286908Y6955281D01*
X5286908Y6921500D01*
X5293715Y6921500D01*
X5297119Y6920941D01*
X5300116Y6919264D01*
X5302402Y6916674D01*
X5303672Y6913524D01*
X5304790Y6908444D01*
X5304739Y6903923D01*
X5302758Y6899909D01*
X5299252Y6897116D01*
X5294833Y6896100D01*
X5286908Y6896100D01*
X5286908Y6819900D01*
X5339638Y6819900D01*
X5339638Y6833616D01*
X5338927Y6839966D01*
X5336997Y6845401D01*
X5331206Y6854393D01*
X5330596Y6858762D01*
X5331917Y6862927D01*
X5334914Y6866178D01*
X5338978Y6867855D01*
X5343347Y6867702D01*
X5349595Y6866026D01*
X5359400Y6865162D01*
X5369204Y6866026D01*
X5378653Y6868566D01*
X5387594Y6872681D01*
X5395620Y6878320D01*
X5397195Y6879894D01*
X5400497Y6882130D01*
X5404408Y6882892D01*
X5542991Y6882892D01*
X5546902Y6882130D01*
X5550204Y6879894D01*
X5551779Y6878320D01*
X5559806Y6872681D01*
X5568746Y6868566D01*
X5578195Y6866026D01*
X5588000Y6865162D01*
X5597804Y6866026D01*
X5607253Y6868566D01*
X5616194Y6872681D01*
X5624220Y6878320D01*
X5631180Y6885279D01*
X5636818Y6893306D01*
X5637987Y6895846D01*
X5640273Y6898995D01*
X5643575Y6901027D01*
X5647436Y6901688D01*
X5651246Y6900875D01*
X5654446Y6898640D01*
X5656580Y6895388D01*
X5657342Y6891528D01*
X5657342Y6408216D01*
X5656580Y6404305D01*
X5654344Y6401003D01*
X5650992Y6398768D01*
X5647080Y6398056D01*
X5643168Y6398869D01*
X5639866Y6401104D01*
X5637733Y6404457D01*
X5635498Y6410147D01*
X5633466Y6414008D01*
X5631078Y6417767D01*
X5628436Y6421221D01*
X5623407Y6426606D01*
X5621578Y6429248D01*
X5620715Y6432296D01*
X5620816Y6435496D01*
X5623661Y6450126D01*
X5624576Y6464300D01*
X5623661Y6478473D01*
X5620969Y6492392D01*
X5616448Y6505905D01*
X5610301Y6518706D01*
X5602579Y6530594D01*
X5593334Y6541414D01*
X5582818Y6550964D01*
X5571185Y6559092D01*
X5558586Y6565696D01*
X5545226Y6570573D01*
X5531408Y6573774D01*
X5517235Y6575094D01*
X5503062Y6574637D01*
X5488990Y6572402D01*
X5475376Y6568338D01*
X5462422Y6562598D01*
X5450230Y6555231D01*
X5439156Y6546392D01*
X5429250Y6536181D01*
X5420766Y6524802D01*
X5418277Y6520383D01*
X5415991Y6517640D01*
X5412943Y6515811D01*
X5409438Y6515201D01*
X5364073Y6515201D01*
X5360771Y6515760D01*
X5357825Y6517335D01*
X5355590Y6519824D01*
X5348579Y6530594D01*
X5339334Y6541414D01*
X5328818Y6550964D01*
X5317185Y6559092D01*
X5304586Y6565696D01*
X5291226Y6570573D01*
X5277408Y6573774D01*
X5263235Y6575094D01*
X5249062Y6574637D01*
X5234990Y6572402D01*
X5221376Y6568338D01*
X5208422Y6562598D01*
X5196230Y6555231D01*
X5185156Y6546392D01*
X5175250Y6536181D01*
X5166766Y6524802D01*
X5159806Y6512407D01*
X5154472Y6499250D01*
X5150866Y6485483D01*
X5149037Y6471412D01*
X5149037Y6457188D01*
X5150866Y6443065D01*
X5154472Y6429349D01*
X5159806Y6416192D01*
X5166766Y6403797D01*
X5175250Y6392418D01*
X5185156Y6382207D01*
X5196230Y6373317D01*
X5208422Y6365951D01*
X5221376Y6360210D01*
X5234990Y6356197D01*
X5249062Y6353911D01*
X5263235Y6353454D01*
X5277408Y6354826D01*
X5291226Y6357975D01*
X5304586Y6362903D01*
X5317185Y6369456D01*
X5328818Y6377584D01*
X5339334Y6387134D01*
X5348579Y6397955D01*
X5355590Y6408775D01*
X5357876Y6411264D01*
X5360822Y6412839D01*
X5364124Y6413398D01*
X5409438Y6413398D01*
X5412943Y6412788D01*
X5415991Y6410960D01*
X5418277Y6408216D01*
X5420766Y6403797D01*
X5429250Y6392418D01*
X5439156Y6382207D01*
X5450230Y6373317D01*
X5462422Y6365951D01*
X5475376Y6360210D01*
X5488990Y6356197D01*
X5503062Y6353911D01*
X5517235Y6353454D01*
X5527344Y6354419D01*
X5531510Y6353962D01*
X5535168Y6351828D01*
X5537606Y6348425D01*
X5538470Y6344310D01*
X5538470Y6083858D01*
X5537708Y6079998D01*
X5535523Y6076696D01*
X5532221Y6074460D01*
X5528310Y6073698D01*
X5182971Y6073698D01*
X5176672Y6072987D01*
X5171186Y6071108D01*
X5166309Y6068009D01*
X5162194Y6063894D01*
X5159095Y6059017D01*
X5157216Y6053531D01*
X5156504Y6047232D01*
X5156504Y5801868D01*
X5157216Y5795568D01*
X5159095Y5790082D01*
X5162194Y5785205D01*
X5166309Y5781090D01*
X5171186Y5777992D01*
X5176672Y5776112D01*
X5182971Y5775401D01*
X5528310Y5775401D01*
X5532221Y5774639D01*
X5535523Y5772404D01*
X5537708Y5769102D01*
X5538470Y5765241D01*
X5538470Y5511292D01*
X5537657Y5507228D01*
X5535218Y5503824D01*
X5531662Y5501690D01*
X5525668Y5499608D01*
X5520791Y5496509D01*
X5516676Y5492394D01*
X5513628Y5487517D01*
X5511698Y5482031D01*
X5510987Y5475732D01*
X5510987Y5230368D01*
X5511698Y5224068D01*
X5513628Y5218582D01*
X5516676Y5213705D01*
X5520791Y5209590D01*
X5525668Y5206492D01*
X5531815Y5204358D01*
X5535371Y5202224D01*
X5537758Y5198821D01*
X5538622Y5194757D01*
X5538622Y4296359D01*
X5537657Y4292092D01*
X5535066Y4286453D01*
X5532526Y4277004D01*
X5531662Y4267200D01*
X5532526Y4257395D01*
X5535066Y4247946D01*
X5539181Y4239006D01*
X5544820Y4230979D01*
X5551779Y4224020D01*
X5559806Y4218381D01*
X5568746Y4214266D01*
X5578195Y4211726D01*
X5588000Y4210862D01*
X5597804Y4211726D01*
X5607253Y4214266D01*
X5616194Y4218381D01*
X5624220Y4224020D01*
X5631180Y4230979D01*
X5636818Y4239006D01*
X5640933Y4247946D01*
X5643473Y4257395D01*
X5644337Y4267200D01*
X5643473Y4277004D01*
X5640781Y4287113D01*
X5640425Y4289755D01*
X5640425Y5194858D01*
X5641289Y5198922D01*
X5643676Y5202326D01*
X5647232Y5204460D01*
X5653125Y5206492D01*
X5658002Y5209590D01*
X5662117Y5213705D01*
X5665165Y5218582D01*
X5667095Y5224068D01*
X5667806Y5230368D01*
X5667806Y5475732D01*
X5667095Y5482031D01*
X5665165Y5487517D01*
X5662117Y5492394D01*
X5658002Y5496509D01*
X5653125Y5499608D01*
X5647131Y5501690D01*
X5643575Y5503824D01*
X5641136Y5507228D01*
X5640324Y5511292D01*
X5640324Y6182156D01*
X5641238Y6186474D01*
X5643930Y6189929D01*
X5647842Y6191961D01*
X5652211Y6192164D01*
X5656275Y6190488D01*
X5661406Y6186881D01*
X5670346Y6182766D01*
X5679795Y6180226D01*
X5689600Y6179362D01*
X5699404Y6180226D01*
X5708853Y6182766D01*
X5717794Y6186881D01*
X5725820Y6192520D01*
X5732780Y6199479D01*
X5738418Y6207506D01*
X5742533Y6216446D01*
X5745073Y6225895D01*
X5745937Y6235700D01*
X5745073Y6245504D01*
X5742533Y6254953D01*
X5738418Y6263894D01*
X5732780Y6271869D01*
X5724855Y6279692D01*
X5722620Y6282994D01*
X5721858Y6286906D01*
X5721858Y6984492D01*
X5721096Y6991705D01*
X5719013Y6998106D01*
X5715609Y7004050D01*
X5712104Y7008114D01*
X5581599Y7138619D01*
X5579414Y7141870D01*
X5578652Y7145781D01*
X5579414Y7149693D01*
X5581599Y7152944D01*
X5584901Y7155180D01*
X5588812Y7155942D01*
X5600293Y7155942D01*
X5604205Y7155180D01*
X5607507Y7152944D01*
X5615330Y7145020D01*
X5623306Y7139381D01*
X5632246Y7135266D01*
X5641695Y7132726D01*
X5651500Y7131862D01*
X5661304Y7132726D01*
X5670753Y7135266D01*
X5679694Y7139381D01*
X5687720Y7145020D01*
X5694680Y7151979D01*
X5700318Y7160006D01*
X5704433Y7168946D01*
X5706973Y7178395D01*
X5707837Y7188200D01*
X5706973Y7198004D01*
X5704433Y7207453D01*
X5700318Y7216394D01*
X5697423Y7220458D01*
X5695797Y7224268D01*
X5695797Y7228331D01*
X5697423Y7232142D01*
X5700318Y7236206D01*
X5704433Y7245146D01*
X5706973Y7254595D01*
X5707837Y7264400D01*
X5706516Y7278573D01*
X5707583Y7282129D01*
X5709818Y7285075D01*
X5712968Y7287006D01*
X5716625Y7287717D01*
X5732221Y7287717D01*
X5738571Y7288428D01*
X5744006Y7290308D01*
X5748934Y7293406D01*
X5752998Y7297470D01*
X5756097Y7302398D01*
X5758230Y7308545D01*
X5760313Y7311999D01*
X5763564Y7314387D01*
X5767527Y7315352D01*
X5771489Y7314641D01*
X5774893Y7312456D01*
X5777179Y7309154D01*
X5777992Y7305192D01*
X5777992Y7233208D01*
X5777230Y7229297D01*
X5774994Y7225995D01*
X5773420Y7224420D01*
X5767781Y7216394D01*
X5763666Y7207453D01*
X5761126Y7198004D01*
X5760262Y7188200D01*
X5761126Y7178395D01*
X5763666Y7168946D01*
X5767781Y7160006D01*
X5773420Y7151979D01*
X5774994Y7150404D01*
X5777230Y7147102D01*
X5777992Y7143191D01*
X5777992Y5703468D01*
X5777331Y5699861D01*
X5775401Y5696712D01*
X5772454Y5694426D01*
X5768898Y5693359D01*
X5765190Y5693664D01*
X5762904Y5694273D01*
X5753100Y5695137D01*
X5743295Y5694273D01*
X5733846Y5691733D01*
X5724906Y5687618D01*
X5716879Y5681980D01*
X5709920Y5675020D01*
X5704281Y5666994D01*
X5700166Y5658053D01*
X5697626Y5648604D01*
X5696762Y5638800D01*
X5697626Y5628995D01*
X5700166Y5619546D01*
X5704281Y5610606D01*
X5709920Y5602579D01*
X5711494Y5601004D01*
X5713730Y5597702D01*
X5714492Y5593791D01*
X5714492Y807008D01*
X5713730Y803097D01*
X5711494Y799795D01*
X5709920Y798220D01*
X5704281Y790194D01*
X5700166Y781253D01*
X5697626Y771804D01*
X5696762Y762000D01*
X5697626Y752195D01*
X5700166Y742746D01*
X5704281Y733806D01*
X5707989Y728573D01*
X5709615Y724814D01*
X5709615Y720750D01*
X5707989Y716991D01*
X5705043Y714146D01*
X5700674Y711403D01*
X5696559Y707288D01*
X5693511Y702411D01*
X5691581Y696925D01*
X5690870Y690626D01*
G37*
G36*
X5792622Y9427718D02*
G01*
X5854344Y9427718D01*
X5860643Y9428480D01*
X5866130Y9430359D01*
X5871006Y9433458D01*
X5875121Y9437522D01*
X5878169Y9442450D01*
X5880100Y9447885D01*
X5880811Y9454235D01*
X5880811Y9540951D01*
X5792622Y9540951D01*
G37*
G36*
X5245455Y9427718D02*
G01*
X5307177Y9427718D01*
X5307177Y9540951D01*
X5218988Y9540951D01*
X5218988Y9454235D01*
X5219700Y9447885D01*
X5221630Y9442450D01*
X5224678Y9437522D01*
X5228793Y9433458D01*
X5233670Y9430359D01*
X5239156Y9428480D01*
G37*
G36*
X3975455Y9427718D02*
G01*
X4037177Y9427718D01*
X4037177Y9540951D01*
X3948988Y9540951D01*
X3948988Y9454235D01*
X3949700Y9447885D01*
X3951630Y9442450D01*
X3954678Y9437522D01*
X3958793Y9433458D01*
X3963670Y9430359D01*
X3969156Y9428480D01*
G37*
G36*
X4330700Y1210716D02*
G01*
X4332173Y1210818D01*
X4346143Y1213561D01*
X4359605Y1218031D01*
X4372406Y1224178D01*
X4384344Y1231950D01*
X4395165Y1241145D01*
X4404715Y1251661D01*
X4412843Y1263294D01*
X4419396Y1275892D01*
X4424324Y1289253D01*
X4427474Y1303121D01*
X4427931Y1308100D01*
X4330700Y1308100D01*
G37*
G36*
X4305300Y1210716D02*
G01*
X4305300Y1308100D01*
X4208068Y1308100D01*
X4208526Y1303121D01*
X4211675Y1289253D01*
X4216603Y1275892D01*
X4223156Y1263294D01*
X4231284Y1251661D01*
X4240834Y1241145D01*
X4251655Y1231950D01*
X4263593Y1224178D01*
X4276394Y1218031D01*
X4289856Y1213561D01*
X4303826Y1210818D01*
G37*
G36*
X4207967Y1333500D02*
G01*
X4305300Y1333500D01*
X4305300Y1430731D01*
X4296816Y1429664D01*
X4283049Y1426057D01*
X4269892Y1420723D01*
X4257497Y1413713D01*
X4246118Y1405229D01*
X4235907Y1395374D01*
X4227068Y1384249D01*
X4219702Y1372108D01*
X4213961Y1359103D01*
X4209897Y1345488D01*
G37*
G36*
X4330700Y1333500D02*
G01*
X4428032Y1333500D01*
X4426102Y1345488D01*
X4422038Y1359103D01*
X4416298Y1372108D01*
X4408932Y1384249D01*
X4400092Y1395374D01*
X4389882Y1405229D01*
X4378502Y1413713D01*
X4366107Y1420723D01*
X4352950Y1426057D01*
X4339183Y1429664D01*
X4330700Y1430731D01*
G37*
G36*
X4318000Y1463903D02*
G01*
X4332173Y1464818D01*
X4346143Y1467561D01*
X4359605Y1472031D01*
X4372406Y1478178D01*
X4384344Y1485950D01*
X4395165Y1495145D01*
X4404715Y1505661D01*
X4412843Y1517294D01*
X4419396Y1529892D01*
X4424324Y1543253D01*
X4427474Y1557121D01*
X4428845Y1571244D01*
X4428388Y1585468D01*
X4426102Y1599488D01*
X4422038Y1613103D01*
X4416298Y1626107D01*
X4408932Y1638249D01*
X4400092Y1649374D01*
X4389882Y1659229D01*
X4378502Y1667713D01*
X4366107Y1674723D01*
X4352950Y1680057D01*
X4339183Y1683664D01*
X4325112Y1685442D01*
X4310888Y1685442D01*
X4296816Y1683664D01*
X4283049Y1680057D01*
X4269892Y1674723D01*
X4257497Y1667713D01*
X4246118Y1659229D01*
X4235907Y1649374D01*
X4227068Y1638249D01*
X4219702Y1626107D01*
X4213961Y1613103D01*
X4209897Y1599488D01*
X4207611Y1585468D01*
X4207154Y1571244D01*
X4208526Y1557121D01*
X4211675Y1543253D01*
X4216603Y1529892D01*
X4223156Y1517294D01*
X4231284Y1505661D01*
X4240834Y1495145D01*
X4251655Y1485950D01*
X4263593Y1478178D01*
X4276394Y1472031D01*
X4289856Y1467561D01*
X4303826Y1464818D01*
G37*
G36*
X5003292Y1591767D02*
G01*
X5080000Y1591767D01*
X5080000Y1705000D01*
X4976774Y1705000D01*
X4976774Y1618284D01*
X4977485Y1611934D01*
X4979416Y1606499D01*
X4982514Y1601571D01*
X4986578Y1597507D01*
X4991506Y1594408D01*
X4996942Y1592529D01*
G37*
G36*
X4737100Y1591767D02*
G01*
X4813808Y1591767D01*
X4820158Y1592529D01*
X4825593Y1594408D01*
X4830521Y1597507D01*
X4834585Y1601571D01*
X4837684Y1606499D01*
X4839614Y1611934D01*
X4840325Y1618284D01*
X4840325Y1705000D01*
X4737100Y1705000D01*
G37*
G36*
X5105400Y1591767D02*
G01*
X5182108Y1591767D01*
X5188458Y1592529D01*
X5193893Y1594408D01*
X5198821Y1597507D01*
X5202885Y1601571D01*
X5205984Y1606499D01*
X5207914Y1611934D01*
X5208625Y1618284D01*
X5208625Y1705000D01*
X5105400Y1705000D01*
G37*
G36*
X4634992Y1591767D02*
G01*
X4711700Y1591767D01*
X4711700Y1705000D01*
X4608474Y1705000D01*
X4608474Y1618284D01*
X4609185Y1611934D01*
X4611116Y1606499D01*
X4614214Y1601571D01*
X4618278Y1597507D01*
X4623206Y1594408D01*
X4628642Y1592529D01*
G37*
G36*
X4976774Y1730400D02*
G01*
X5080000Y1730400D01*
X5080000Y1843582D01*
X5003292Y1843582D01*
X4996942Y1842871D01*
X4991506Y1840992D01*
X4986578Y1837893D01*
X4982514Y1833829D01*
X4979416Y1828901D01*
X4977485Y1823466D01*
X4976774Y1817116D01*
G37*
G36*
X4737100Y1730400D02*
G01*
X4840325Y1730400D01*
X4840325Y1817116D01*
X4839614Y1823466D01*
X4837684Y1828901D01*
X4834585Y1833829D01*
X4830521Y1837893D01*
X4825593Y1840992D01*
X4820158Y1842871D01*
X4813808Y1843582D01*
X4737100Y1843582D01*
G37*
G36*
X4608474Y1730400D02*
G01*
X4711700Y1730400D01*
X4711700Y1843582D01*
X4634992Y1843582D01*
X4628642Y1842871D01*
X4623206Y1840992D01*
X4618278Y1837893D01*
X4614214Y1833829D01*
X4611116Y1828901D01*
X4609185Y1823466D01*
X4608474Y1817116D01*
G37*
G36*
X5105400Y1730400D02*
G01*
X5208625Y1730400D01*
X5208625Y1817116D01*
X5207914Y1823466D01*
X5205984Y1828901D01*
X5202885Y1833829D01*
X5198821Y1837893D01*
X5193893Y1840992D01*
X5188458Y1842871D01*
X5182108Y1843582D01*
X5105400Y1843582D01*
G37*
G36*
X4634992Y1991766D02*
G01*
X4813808Y1991766D01*
X4820158Y1992528D01*
X4825593Y1994407D01*
X4830521Y1997506D01*
X4834585Y2001570D01*
X4837684Y2006498D01*
X4839614Y2011934D01*
X4840325Y2018284D01*
X4840325Y2217115D01*
X4839614Y2223465D01*
X4837684Y2228900D01*
X4834585Y2233828D01*
X4830521Y2237892D01*
X4825593Y2240991D01*
X4820158Y2242870D01*
X4813808Y2243582D01*
X4773168Y2243582D01*
X4769256Y2244394D01*
X4766005Y2246579D01*
X4763770Y2249881D01*
X4763008Y2253742D01*
X4763008Y2260092D01*
X4762195Y2268118D01*
X4760010Y2275332D01*
X4756454Y2282037D01*
X4751324Y2288235D01*
X4679391Y2360218D01*
X4677156Y2363520D01*
X4676394Y2367432D01*
X4676394Y2424023D01*
X4677156Y2427833D01*
X4679289Y2431084D01*
X4682540Y2433320D01*
X4686350Y2434132D01*
X4690211Y2433472D01*
X4693513Y2431389D01*
X4702454Y2423007D01*
X4714240Y2414422D01*
X4726990Y2407412D01*
X4740503Y2402078D01*
X4754626Y2398471D01*
X4769053Y2396642D01*
X4783632Y2396642D01*
X4798060Y2398471D01*
X4812131Y2402078D01*
X4825695Y2407412D01*
X4838446Y2414422D01*
X4850231Y2423007D01*
X4861052Y2433167D01*
X4864557Y2435352D01*
X4868621Y2435910D01*
X4872583Y2434844D01*
X4875784Y2432304D01*
X4877714Y2428748D01*
X4879289Y2423668D01*
X4882845Y2416962D01*
X4887976Y2410764D01*
X5037734Y2260955D01*
X5039969Y2257653D01*
X5040731Y2253742D01*
X5039969Y2249881D01*
X5037734Y2246579D01*
X5034432Y2244394D01*
X5030571Y2243582D01*
X5003292Y2243582D01*
X4996942Y2242870D01*
X4991506Y2240991D01*
X4986578Y2237892D01*
X4982514Y2233828D01*
X4979416Y2228900D01*
X4977485Y2223465D01*
X4976774Y2217115D01*
X4976774Y2018284D01*
X4977485Y2011934D01*
X4979416Y2006498D01*
X4982514Y2001570D01*
X4986578Y1997506D01*
X4991506Y1994407D01*
X4996942Y1992528D01*
X5003292Y1991766D01*
X5182108Y1991766D01*
X5188458Y1992528D01*
X5193893Y1994407D01*
X5198821Y1997506D01*
X5202885Y2001570D01*
X5205984Y2006498D01*
X5207914Y2011934D01*
X5208625Y2018284D01*
X5208625Y2217115D01*
X5207914Y2223465D01*
X5205984Y2228900D01*
X5202885Y2233828D01*
X5198821Y2237892D01*
X5193893Y2240991D01*
X5188458Y2242870D01*
X5182108Y2243582D01*
X5141468Y2243582D01*
X5137556Y2244394D01*
X5134305Y2246579D01*
X5132070Y2249881D01*
X5131308Y2253742D01*
X5131308Y2260092D01*
X5130495Y2268118D01*
X5128310Y2275332D01*
X5124754Y2282037D01*
X5119624Y2288235D01*
X5027218Y2380691D01*
X5024932Y2384145D01*
X5024272Y2388260D01*
X5025288Y2392324D01*
X5027879Y2395626D01*
X5031536Y2397607D01*
X5035702Y2397912D01*
X5046065Y2396642D01*
X5060594Y2396642D01*
X5075021Y2398471D01*
X5089144Y2402078D01*
X5102656Y2407412D01*
X5115407Y2414422D01*
X5127193Y2423007D01*
X5137810Y2432964D01*
X5147056Y2444191D01*
X5154879Y2456434D01*
X5161076Y2469642D01*
X5165547Y2483459D01*
X5168290Y2497785D01*
X5169204Y2512263D01*
X5168290Y2526792D01*
X5165547Y2541117D01*
X5161076Y2554935D01*
X5154879Y2568092D01*
X5147056Y2580386D01*
X5137810Y2591612D01*
X5127193Y2601569D01*
X5115407Y2610154D01*
X5102656Y2617165D01*
X5089144Y2622499D01*
X5075021Y2626106D01*
X5060594Y2627934D01*
X5046065Y2627934D01*
X5031587Y2626106D01*
X5017516Y2622499D01*
X5004003Y2617165D01*
X4991201Y2610154D01*
X4979466Y2601569D01*
X4970627Y2593289D01*
X4967325Y2591206D01*
X4963464Y2590546D01*
X4959654Y2591358D01*
X4956403Y2593594D01*
X4954270Y2596845D01*
X4953508Y2600706D01*
X4953508Y2680309D01*
X4954320Y2684221D01*
X4956556Y2687523D01*
X4959908Y2689758D01*
X4964176Y2691434D01*
X4976926Y2698445D01*
X4988712Y2706979D01*
X4999329Y2716936D01*
X5008575Y2728163D01*
X5016398Y2740456D01*
X5022596Y2753614D01*
X5027066Y2767431D01*
X5029809Y2781757D01*
X5030724Y2796286D01*
X5029809Y2810814D01*
X5027066Y2825089D01*
X5022596Y2838958D01*
X5016398Y2852115D01*
X5008575Y2864408D01*
X4999329Y2875584D01*
X4988712Y2885541D01*
X4976926Y2894126D01*
X4964176Y2901137D01*
X4950663Y2906471D01*
X4936540Y2910128D01*
X4922113Y2911957D01*
X4907534Y2911957D01*
X4893106Y2910128D01*
X4879035Y2906471D01*
X4865471Y2901137D01*
X4852720Y2894126D01*
X4840986Y2885541D01*
X4830368Y2875584D01*
X4821072Y2864408D01*
X4813300Y2852115D01*
X4807102Y2838958D01*
X4802581Y2825089D01*
X4799838Y2810814D01*
X4798923Y2796286D01*
X4799838Y2781757D01*
X4802581Y2767431D01*
X4807102Y2753614D01*
X4813300Y2740456D01*
X4821072Y2728163D01*
X4830368Y2716936D01*
X4840986Y2706979D01*
X4852720Y2698445D01*
X4865471Y2691434D01*
X4869891Y2689656D01*
X4873244Y2687472D01*
X4875479Y2684170D01*
X4876292Y2680208D01*
X4876292Y2600553D01*
X4875530Y2596743D01*
X4873396Y2593441D01*
X4870145Y2591257D01*
X4866335Y2590393D01*
X4862474Y2591054D01*
X4859172Y2593136D01*
X4850231Y2601569D01*
X4838446Y2610154D01*
X4825695Y2617165D01*
X4812131Y2622499D01*
X4798060Y2626106D01*
X4783632Y2627934D01*
X4769053Y2627934D01*
X4754626Y2626106D01*
X4740503Y2622499D01*
X4726990Y2617165D01*
X4714240Y2610154D01*
X4702454Y2601569D01*
X4693513Y2593187D01*
X4690211Y2591104D01*
X4686350Y2590393D01*
X4682540Y2591257D01*
X4679289Y2593441D01*
X4677156Y2596743D01*
X4676394Y2600553D01*
X4676394Y2680258D01*
X4677206Y2684170D01*
X4679442Y2687523D01*
X4682794Y2689707D01*
X4687163Y2691434D01*
X4699914Y2698445D01*
X4711700Y2706979D01*
X4722317Y2716936D01*
X4731562Y2728163D01*
X4739386Y2740456D01*
X4745583Y2753614D01*
X4750054Y2767431D01*
X4752797Y2781757D01*
X4753711Y2796286D01*
X4752797Y2810814D01*
X4750054Y2825089D01*
X4745583Y2838958D01*
X4739386Y2852115D01*
X4731562Y2864408D01*
X4722317Y2875584D01*
X4711700Y2885541D01*
X4699914Y2894126D01*
X4687163Y2901137D01*
X4682794Y2902864D01*
X4679442Y2905048D01*
X4677206Y2908350D01*
X4676394Y2912313D01*
X4676394Y2991967D01*
X4677156Y2995879D01*
X4679391Y2999181D01*
X4688128Y3007918D01*
X4691430Y3010154D01*
X4695342Y3010916D01*
X5089398Y3010916D01*
X5093258Y3010154D01*
X5096560Y3007918D01*
X5098745Y3004667D01*
X5099558Y3000756D01*
X5099558Y2993542D01*
X5100269Y2987192D01*
X5102148Y2981756D01*
X5105247Y2976880D01*
X5109311Y2972765D01*
X5114239Y2969666D01*
X5119674Y2967786D01*
X5126024Y2967075D01*
X5262575Y2967075D01*
X5268925Y2967786D01*
X5274360Y2969666D01*
X5279288Y2972765D01*
X5283352Y2976880D01*
X5286451Y2981756D01*
X5288330Y2987192D01*
X5289042Y2993542D01*
X5289042Y3105658D01*
X5288330Y3111957D01*
X5286451Y3117443D01*
X5283352Y3122320D01*
X5279288Y3126435D01*
X5274360Y3129483D01*
X5268925Y3131413D01*
X5262575Y3132124D01*
X5126024Y3132124D01*
X5119674Y3131413D01*
X5114239Y3129483D01*
X5109311Y3126435D01*
X5105247Y3122320D01*
X5102148Y3117443D01*
X5100269Y3111957D01*
X5099558Y3105658D01*
X5099558Y3098292D01*
X5098745Y3094380D01*
X5096560Y3091129D01*
X5093258Y3088894D01*
X5089398Y3088132D01*
X4675632Y3088132D01*
X4667605Y3087319D01*
X4660392Y3085134D01*
X4653686Y3081578D01*
X4647488Y3076448D01*
X4610862Y3039821D01*
X4605731Y3033623D01*
X4602175Y3026918D01*
X4599990Y3019704D01*
X4599178Y3011678D01*
X4599178Y2912262D01*
X4598365Y2908350D01*
X4596130Y2904998D01*
X4592777Y2902813D01*
X4588459Y2901137D01*
X4575708Y2894126D01*
X4563973Y2885541D01*
X4553356Y2875584D01*
X4544060Y2864408D01*
X4536287Y2852115D01*
X4530090Y2838958D01*
X4525568Y2825089D01*
X4522825Y2810814D01*
X4521911Y2796286D01*
X4522825Y2781757D01*
X4525568Y2767431D01*
X4530090Y2753614D01*
X4536287Y2740456D01*
X4544060Y2728163D01*
X4553356Y2716936D01*
X4563973Y2706979D01*
X4575708Y2698445D01*
X4588459Y2691434D01*
X4592777Y2689707D01*
X4596130Y2687523D01*
X4598365Y2684221D01*
X4599178Y2680258D01*
X4599178Y2600655D01*
X4598416Y2596845D01*
X4596282Y2593543D01*
X4593031Y2591358D01*
X4589221Y2590495D01*
X4585360Y2591155D01*
X4582058Y2593238D01*
X4573219Y2601569D01*
X4561433Y2610154D01*
X4548682Y2617165D01*
X4535119Y2622499D01*
X4521047Y2626106D01*
X4506620Y2627934D01*
X4492040Y2627934D01*
X4477613Y2626106D01*
X4463542Y2622499D01*
X4449978Y2617165D01*
X4437227Y2610154D01*
X4425442Y2601569D01*
X4414824Y2591612D01*
X4405579Y2580386D01*
X4397756Y2568092D01*
X4391558Y2554935D01*
X4387088Y2541117D01*
X4384344Y2526792D01*
X4383430Y2512263D01*
X4384344Y2497785D01*
X4387088Y2483459D01*
X4391558Y2469642D01*
X4397756Y2456434D01*
X4405579Y2444191D01*
X4414824Y2432964D01*
X4425442Y2423007D01*
X4437227Y2414422D01*
X4449978Y2407412D01*
X4463542Y2402078D01*
X4477613Y2398471D01*
X4492040Y2396642D01*
X4506620Y2396642D01*
X4521047Y2398471D01*
X4535119Y2402078D01*
X4548682Y2407412D01*
X4561433Y2414422D01*
X4573219Y2423007D01*
X4582058Y2431338D01*
X4585360Y2433421D01*
X4589221Y2434082D01*
X4593031Y2433218D01*
X4596282Y2431034D01*
X4598416Y2427732D01*
X4599178Y2423922D01*
X4599178Y2347722D01*
X4599990Y2339695D01*
X4602175Y2332482D01*
X4605731Y2325776D01*
X4610862Y2319578D01*
X4669434Y2260955D01*
X4671669Y2257653D01*
X4672431Y2253742D01*
X4671669Y2249881D01*
X4669434Y2246579D01*
X4666132Y2244394D01*
X4662271Y2243582D01*
X4634992Y2243582D01*
X4628642Y2242870D01*
X4623206Y2240991D01*
X4618278Y2237892D01*
X4614214Y2233828D01*
X4611116Y2228900D01*
X4609185Y2223465D01*
X4608474Y2217115D01*
X4608474Y2018284D01*
X4609185Y2011934D01*
X4611116Y2006498D01*
X4614214Y2001570D01*
X4618278Y1997506D01*
X4623206Y1994407D01*
X4628642Y1992528D01*
G37*
G36*
X4522622Y9427718D02*
G01*
X4584344Y9427718D01*
X4590643Y9428480D01*
X4596130Y9430359D01*
X4601006Y9433458D01*
X4605121Y9437522D01*
X4608169Y9442450D01*
X4610100Y9447885D01*
X4610811Y9454235D01*
X4610811Y9540951D01*
X4522622Y9540951D01*
G37*
G36*
X4435500Y9427718D02*
G01*
X4497222Y9427718D01*
X4497222Y9540951D01*
X4408982Y9540951D01*
X4408982Y9454235D01*
X4409694Y9447885D01*
X4411624Y9442450D01*
X4414723Y9437522D01*
X4418787Y9433458D01*
X4423714Y9430359D01*
X4429150Y9428480D01*
G37*
G36*
X5332577Y9427718D02*
G01*
X5394299Y9427718D01*
X5400649Y9428480D01*
X5406085Y9430359D01*
X5411012Y9433458D01*
X5415076Y9437522D01*
X5418175Y9442450D01*
X5420106Y9447885D01*
X5420817Y9454235D01*
X5420817Y9540951D01*
X5332577Y9540951D01*
G37*
G36*
X4062577Y9427718D02*
G01*
X4124299Y9427718D01*
X4130649Y9428480D01*
X4136085Y9430359D01*
X4141012Y9433458D01*
X4145076Y9437522D01*
X4148175Y9442450D01*
X4150106Y9447885D01*
X4150817Y9454235D01*
X4150817Y9540951D01*
X4062577Y9540951D01*
G37*
G36*
X5705500Y9427718D02*
G01*
X5767222Y9427718D01*
X5767222Y9540951D01*
X5678982Y9540951D01*
X5678982Y9454235D01*
X5679694Y9447885D01*
X5681624Y9442450D01*
X5684723Y9437522D01*
X5688787Y9433458D01*
X5693714Y9430359D01*
X5699150Y9428480D01*
G37*
G36*
X5814771Y8870086D02*
G01*
X5913018Y8870086D01*
X5913018Y8941816D01*
X5912307Y8948115D01*
X5910376Y8953601D01*
X5907278Y8958478D01*
X5903214Y8962593D01*
X5898286Y8965641D01*
X5892850Y8967571D01*
X5886500Y8968282D01*
X5814771Y8968282D01*
G37*
G36*
X5317642Y2397302D02*
G01*
X5317642Y2499563D01*
X5215229Y2499563D01*
X5215382Y2497785D01*
X5218074Y2483459D01*
X5222595Y2469642D01*
X5228793Y2456434D01*
X5236565Y2444191D01*
X5245862Y2432964D01*
X5256479Y2423007D01*
X5268214Y2414422D01*
X5280964Y2407412D01*
X5294528Y2402078D01*
X5308600Y2398471D01*
G37*
G36*
X5343042Y2397302D02*
G01*
X5352034Y2398471D01*
X5366156Y2402078D01*
X5379669Y2407412D01*
X5392420Y2414422D01*
X5404205Y2423007D01*
X5414822Y2432964D01*
X5424068Y2444191D01*
X5431891Y2456434D01*
X5438089Y2469642D01*
X5442559Y2483459D01*
X5445302Y2497785D01*
X5445404Y2499563D01*
X5343042Y2499563D01*
G37*
G36*
X5343042Y2524963D02*
G01*
X5445404Y2524963D01*
X5445302Y2526792D01*
X5442559Y2541117D01*
X5438089Y2554935D01*
X5431891Y2568092D01*
X5424068Y2580386D01*
X5414822Y2591612D01*
X5404205Y2601569D01*
X5392420Y2610154D01*
X5379669Y2617165D01*
X5366156Y2622499D01*
X5352034Y2626106D01*
X5343042Y2627274D01*
G37*
G36*
X5215229Y2524963D02*
G01*
X5317642Y2524963D01*
X5317642Y2627274D01*
X5308600Y2626106D01*
X5294528Y2622499D01*
X5280964Y2617165D01*
X5268214Y2610154D01*
X5256479Y2601569D01*
X5245862Y2591612D01*
X5236565Y2580386D01*
X5228793Y2568092D01*
X5222595Y2554935D01*
X5218074Y2541117D01*
X5215382Y2526792D01*
G37*
G36*
X3545179Y8811107D02*
G01*
X3560368Y8812022D01*
X3575304Y8814765D01*
X3589832Y8819286D01*
X3603701Y8825534D01*
X3616706Y8833408D01*
X3628644Y8842806D01*
X3639413Y8853525D01*
X3648760Y8865514D01*
X3656634Y8878519D01*
X3662883Y8892387D01*
X3667404Y8906865D01*
X3670147Y8921851D01*
X3671062Y8936990D01*
X3670147Y8952179D01*
X3667404Y8967165D01*
X3662883Y8981643D01*
X3656634Y8995511D01*
X3648760Y9008516D01*
X3639413Y9020505D01*
X3628644Y9031224D01*
X3616706Y9040622D01*
X3603701Y9048496D01*
X3589832Y9054744D01*
X3575304Y9059265D01*
X3560368Y9062008D01*
X3545179Y9062923D01*
X3529990Y9062008D01*
X3515055Y9059265D01*
X3500526Y9054744D01*
X3486658Y9048496D01*
X3473653Y9040622D01*
X3461715Y9031224D01*
X3450945Y9020505D01*
X3441598Y9008516D01*
X3433724Y8995511D01*
X3427476Y8981643D01*
X3422954Y8967165D01*
X3420211Y8952179D01*
X3419297Y8936990D01*
X3420211Y8921851D01*
X3422954Y8906865D01*
X3427476Y8892387D01*
X3433724Y8878519D01*
X3441598Y8865514D01*
X3450945Y8853525D01*
X3461715Y8842806D01*
X3473653Y8833408D01*
X3486658Y8825534D01*
X3500526Y8819286D01*
X3515055Y8814765D01*
X3529990Y8812022D01*
G37*
G36*
X6260236Y8811107D02*
G01*
X6275374Y8812022D01*
X6290360Y8814765D01*
X6304838Y8819286D01*
X6318707Y8825534D01*
X6331712Y8833408D01*
X6343700Y8842806D01*
X6354419Y8853525D01*
X6363817Y8865514D01*
X6371691Y8878519D01*
X6377940Y8892387D01*
X6382461Y8906865D01*
X6385204Y8921851D01*
X6386118Y8936990D01*
X6385204Y8952179D01*
X6382461Y8967165D01*
X6377940Y8981643D01*
X6371691Y8995511D01*
X6363817Y9008516D01*
X6354419Y9020505D01*
X6343700Y9031224D01*
X6331712Y9040622D01*
X6318707Y9048496D01*
X6304838Y9054744D01*
X6290360Y9059265D01*
X6275374Y9062008D01*
X6260236Y9062923D01*
X6245047Y9062008D01*
X6230061Y9059265D01*
X6215583Y9054744D01*
X6201714Y9048496D01*
X6188710Y9040622D01*
X6176721Y9031224D01*
X6166002Y9020505D01*
X6156604Y9008516D01*
X6148730Y8995511D01*
X6142482Y8981643D01*
X6137960Y8967165D01*
X6135217Y8952179D01*
X6134303Y8936990D01*
X6135217Y8921851D01*
X6137960Y8906865D01*
X6142482Y8892387D01*
X6148730Y8878519D01*
X6156604Y8865514D01*
X6166002Y8853525D01*
X6176721Y8842806D01*
X6188710Y8833408D01*
X6201714Y8825534D01*
X6215583Y8819286D01*
X6230061Y8814765D01*
X6245047Y8812022D01*
G37*
G36*
X5814771Y8746490D02*
G01*
X5886500Y8746490D01*
X5892850Y8747201D01*
X5898286Y8749080D01*
X5903214Y8752179D01*
X5907278Y8756243D01*
X5910376Y8761171D01*
X5912307Y8766606D01*
X5913018Y8772956D01*
X5913018Y8844686D01*
X5814771Y8844686D01*
G37*
G36*
X3376320Y8636000D02*
G01*
X3429863Y8636000D01*
X3429863Y8692388D01*
X3402837Y8692388D01*
X3396487Y8691676D01*
X3391052Y8689797D01*
X3386124Y8686698D01*
X3382060Y8682634D01*
X3378962Y8677706D01*
X3377031Y8672271D01*
X3376320Y8665921D01*
G37*
G36*
X4271416Y2680360D02*
G01*
X4450283Y2680360D01*
X4456582Y2681071D01*
X4462068Y2683002D01*
X4466945Y2686100D01*
X4471060Y2690164D01*
X4474159Y2695092D01*
X4476038Y2700528D01*
X4476750Y2706878D01*
X4476750Y2885694D01*
X4476038Y2892044D01*
X4474159Y2897479D01*
X4471060Y2902407D01*
X4466945Y2906471D01*
X4462068Y2909570D01*
X4456582Y2911500D01*
X4450283Y2912211D01*
X4271416Y2912211D01*
X4265117Y2911500D01*
X4259630Y2909570D01*
X4254754Y2906471D01*
X4250639Y2902407D01*
X4247540Y2897479D01*
X4245660Y2892044D01*
X4244949Y2885694D01*
X4244949Y2706878D01*
X4245660Y2700528D01*
X4247540Y2695092D01*
X4250639Y2690164D01*
X4254754Y2686100D01*
X4259630Y2683002D01*
X4265117Y2681071D01*
G37*
G36*
X5379415Y2680411D02*
G01*
X5558282Y2680411D01*
X5564581Y2681122D01*
X5570067Y2683002D01*
X5574944Y2686100D01*
X5579059Y2690164D01*
X5582158Y2695092D01*
X5584037Y2700528D01*
X5584748Y2706878D01*
X5584748Y2885744D01*
X5584037Y2892044D01*
X5582158Y2897530D01*
X5579059Y2902407D01*
X5574944Y2906522D01*
X5570067Y2909570D01*
X5564581Y2911500D01*
X5558282Y2912211D01*
X5379415Y2912211D01*
X5373116Y2911500D01*
X5367629Y2909570D01*
X5362752Y2906522D01*
X5358638Y2902407D01*
X5355590Y2897530D01*
X5353659Y2892044D01*
X5352948Y2885744D01*
X5352948Y2706878D01*
X5353659Y2700528D01*
X5355590Y2695092D01*
X5358638Y2690164D01*
X5362752Y2686100D01*
X5367629Y2683002D01*
X5373116Y2681122D01*
G37*
G36*
X5184546Y2680614D02*
G01*
X5199126Y2680614D01*
X5213553Y2682443D01*
X5227675Y2686050D01*
X5241188Y2691434D01*
X5253939Y2698445D01*
X5265724Y2706979D01*
X5276342Y2716936D01*
X5285587Y2728163D01*
X5293410Y2740456D01*
X5299608Y2753614D01*
X5304078Y2767431D01*
X5306822Y2781757D01*
X5307736Y2796286D01*
X5306822Y2810814D01*
X5304078Y2825089D01*
X5299608Y2838958D01*
X5293410Y2852115D01*
X5285587Y2864408D01*
X5276342Y2875584D01*
X5265724Y2885541D01*
X5253939Y2894126D01*
X5241188Y2901137D01*
X5227675Y2906471D01*
X5213553Y2910128D01*
X5199126Y2911957D01*
X5184546Y2911957D01*
X5170119Y2910128D01*
X5156047Y2906471D01*
X5142484Y2901137D01*
X5129733Y2894126D01*
X5117947Y2885541D01*
X5107381Y2875584D01*
X5098084Y2864408D01*
X5090312Y2852115D01*
X5084114Y2838958D01*
X5079593Y2825089D01*
X5076850Y2810814D01*
X5075936Y2796286D01*
X5076850Y2781757D01*
X5079593Y2767431D01*
X5084114Y2753614D01*
X5090312Y2740456D01*
X5098084Y2728163D01*
X5107381Y2716936D01*
X5117947Y2706979D01*
X5129733Y2698445D01*
X5142484Y2691434D01*
X5156047Y2686050D01*
X5170119Y2682443D01*
G37*
G36*
X3402837Y8554212D02*
G01*
X3429863Y8554212D01*
X3429863Y8610600D01*
X3376320Y8610600D01*
X3376320Y8580678D01*
X3377031Y8574328D01*
X3378962Y8568893D01*
X3382060Y8563965D01*
X3386124Y8559901D01*
X3391052Y8556802D01*
X3396487Y8554923D01*
G37*
G36*
X5041900Y8516162D02*
G01*
X5051704Y8517026D01*
X5061153Y8519566D01*
X5070094Y8523681D01*
X5078120Y8529320D01*
X5085080Y8536279D01*
X5090718Y8544306D01*
X5094833Y8553246D01*
X5097373Y8562695D01*
X5098237Y8572500D01*
X5097373Y8582304D01*
X5094833Y8591753D01*
X5090718Y8600694D01*
X5085080Y8608720D01*
X5083505Y8610295D01*
X5081270Y8613597D01*
X5080508Y8617508D01*
X5080508Y8747658D01*
X5081270Y8751468D01*
X5083352Y8754719D01*
X5086553Y8756954D01*
X5091379Y8759088D01*
X5103520Y8766454D01*
X5114645Y8775293D01*
X5124500Y8785504D01*
X5133035Y8796883D01*
X5139994Y8809278D01*
X5145328Y8822436D01*
X5148935Y8836202D01*
X5150764Y8850274D01*
X5150764Y8864498D01*
X5148935Y8878570D01*
X5145328Y8892336D01*
X5139994Y8905494D01*
X5133035Y8917889D01*
X5124500Y8929268D01*
X5114645Y8939479D01*
X5103520Y8948318D01*
X5091379Y8955684D01*
X5078374Y8961424D01*
X5064760Y8965488D01*
X5050739Y8967774D01*
X5036515Y8968232D01*
X5022392Y8966860D01*
X5008524Y8963660D01*
X4995214Y8958783D01*
X4982616Y8952230D01*
X4970932Y8944051D01*
X4960416Y8934500D01*
X4951222Y8923680D01*
X4943449Y8911793D01*
X4937302Y8898991D01*
X4932832Y8885529D01*
X4930089Y8871559D01*
X4929225Y8857386D01*
X4930089Y8843213D01*
X4932832Y8829243D01*
X4937302Y8815781D01*
X4943449Y8802979D01*
X4951222Y8791041D01*
X4960416Y8780221D01*
X4970932Y8770670D01*
X4982616Y8762542D01*
X5000142Y8753297D01*
X5002479Y8749944D01*
X5003292Y8745931D01*
X5003292Y8617508D01*
X5002530Y8613597D01*
X5000294Y8610295D01*
X4998720Y8608720D01*
X4993081Y8600694D01*
X4988966Y8591753D01*
X4986426Y8582304D01*
X4985562Y8572500D01*
X4986426Y8562695D01*
X4988966Y8553246D01*
X4993081Y8544306D01*
X4998720Y8536279D01*
X5005679Y8529320D01*
X5013706Y8523681D01*
X5022646Y8519566D01*
X5032095Y8517026D01*
G37*
G36*
X5341924Y2967075D02*
G01*
X5478475Y2967075D01*
X5484825Y2967786D01*
X5490260Y2969666D01*
X5495188Y2972765D01*
X5499252Y2976880D01*
X5502351Y2981756D01*
X5504230Y2987192D01*
X5504942Y2993542D01*
X5504942Y2999740D01*
X5505754Y3003651D01*
X5507990Y3006953D01*
X5511292Y3009138D01*
X5515203Y3009900D01*
X5517235Y3009849D01*
X5521096Y3009087D01*
X5524347Y3006902D01*
X5526379Y3004820D01*
X5534406Y2999181D01*
X5543346Y2995066D01*
X5552795Y2992526D01*
X5562600Y2991662D01*
X5572404Y2992526D01*
X5581853Y2995066D01*
X5590794Y2999181D01*
X5598820Y3004820D01*
X5605780Y3011779D01*
X5611418Y3019806D01*
X5615533Y3028746D01*
X5618073Y3038195D01*
X5618937Y3048000D01*
X5618073Y3057804D01*
X5615533Y3067253D01*
X5611418Y3076194D01*
X5605780Y3084220D01*
X5598820Y3091180D01*
X5590794Y3096818D01*
X5581853Y3100933D01*
X5572404Y3103473D01*
X5562600Y3104337D01*
X5552795Y3103473D01*
X5543346Y3100933D01*
X5534406Y3096818D01*
X5521909Y3087827D01*
X5517997Y3087065D01*
X5515000Y3087116D01*
X5511139Y3087928D01*
X5507888Y3090113D01*
X5505704Y3093415D01*
X5504942Y3097276D01*
X5504942Y3105658D01*
X5504230Y3111957D01*
X5502351Y3117443D01*
X5499252Y3122320D01*
X5495188Y3126435D01*
X5490260Y3129483D01*
X5484825Y3131413D01*
X5478475Y3132124D01*
X5341924Y3132124D01*
X5335574Y3131413D01*
X5330139Y3129483D01*
X5325211Y3126435D01*
X5321147Y3122320D01*
X5318048Y3117443D01*
X5316169Y3111957D01*
X5315458Y3105658D01*
X5315458Y2993542D01*
X5316169Y2987192D01*
X5318048Y2981756D01*
X5321147Y2976880D01*
X5325211Y2972765D01*
X5330139Y2969666D01*
X5335574Y2967786D01*
G37*
G36*
X4787900Y8452662D02*
G01*
X4797704Y8453526D01*
X4807153Y8456066D01*
X4816094Y8460181D01*
X4824120Y8465820D01*
X4831080Y8472779D01*
X4836718Y8480806D01*
X4840833Y8489746D01*
X4843373Y8499195D01*
X4844237Y8509000D01*
X4843373Y8518804D01*
X4840833Y8528253D01*
X4836718Y8537194D01*
X4831080Y8545220D01*
X4829251Y8547049D01*
X4827066Y8550300D01*
X4826254Y8554161D01*
X4825288Y8747048D01*
X4826050Y8750909D01*
X4828133Y8754160D01*
X4831334Y8756396D01*
X4837379Y8759088D01*
X4849520Y8766454D01*
X4860645Y8775293D01*
X4870500Y8785504D01*
X4879035Y8796883D01*
X4885994Y8809278D01*
X4891328Y8822436D01*
X4894935Y8836202D01*
X4896764Y8850274D01*
X4896764Y8864498D01*
X4894935Y8878570D01*
X4891328Y8892336D01*
X4885994Y8905494D01*
X4879035Y8917889D01*
X4870500Y8929268D01*
X4860645Y8939479D01*
X4849520Y8948318D01*
X4837379Y8955684D01*
X4824374Y8961424D01*
X4810760Y8965488D01*
X4796739Y8967774D01*
X4782515Y8968232D01*
X4768392Y8966860D01*
X4754524Y8963660D01*
X4741214Y8958783D01*
X4728616Y8952230D01*
X4716932Y8944051D01*
X4706416Y8934500D01*
X4697222Y8923680D01*
X4689449Y8911793D01*
X4683302Y8898991D01*
X4678832Y8885529D01*
X4676089Y8871559D01*
X4675225Y8857386D01*
X4676089Y8843213D01*
X4678832Y8829243D01*
X4683302Y8815781D01*
X4689449Y8802979D01*
X4697222Y8791041D01*
X4706416Y8780221D01*
X4716932Y8770670D01*
X4728616Y8762542D01*
X4741418Y8755888D01*
X4744923Y8753754D01*
X4747260Y8750401D01*
X4748072Y8746439D01*
X4749088Y8553805D01*
X4748276Y8549894D01*
X4746091Y8546592D01*
X4744720Y8545220D01*
X4739081Y8537194D01*
X4734966Y8528253D01*
X4732426Y8518804D01*
X4731562Y8509000D01*
X4732426Y8499195D01*
X4734966Y8489746D01*
X4739081Y8480806D01*
X4744720Y8472779D01*
X4751679Y8465820D01*
X4759706Y8460181D01*
X4768646Y8456066D01*
X4778095Y8453526D01*
G37*
G36*
X5036261Y8026400D02*
G01*
X5088991Y8026400D01*
X5088991Y8066633D01*
X5062778Y8066633D01*
X5056428Y8065922D01*
X5050993Y8063992D01*
X5046065Y8060893D01*
X5042001Y8056829D01*
X5038902Y8051901D01*
X5036972Y8046466D01*
X5036261Y8040116D01*
G37*
G36*
X6172200Y3067862D02*
G01*
X6182004Y3068726D01*
X6191453Y3071266D01*
X6200394Y3075381D01*
X6208420Y3081020D01*
X6215380Y3087979D01*
X6221018Y3096006D01*
X6225133Y3104946D01*
X6227673Y3114395D01*
X6228588Y3125419D01*
X6229604Y3129026D01*
X6231839Y3132023D01*
X6235039Y3134004D01*
X6238697Y3134715D01*
X6346596Y3134715D01*
X6352895Y3135426D01*
X6358382Y3137357D01*
X6363258Y3140405D01*
X6367373Y3144520D01*
X6370421Y3149396D01*
X6372352Y3154883D01*
X6373063Y3161182D01*
X6373063Y3300729D01*
X6372352Y3307029D01*
X6370421Y3312515D01*
X6367373Y3317392D01*
X6363258Y3321507D01*
X6358382Y3324606D01*
X6352895Y3326485D01*
X6346596Y3327196D01*
X5997803Y3327196D01*
X5991504Y3326485D01*
X5986018Y3324606D01*
X5981141Y3321507D01*
X5977026Y3317392D01*
X5973978Y3312515D01*
X5972048Y3307029D01*
X5971336Y3300729D01*
X5971336Y3161182D01*
X5972048Y3154883D01*
X5973978Y3149396D01*
X5977026Y3144520D01*
X5981141Y3140405D01*
X5986018Y3137357D01*
X5991504Y3135426D01*
X5997803Y3134715D01*
X6105702Y3134715D01*
X6109360Y3134004D01*
X6112560Y3132023D01*
X6114796Y3129026D01*
X6115812Y3125419D01*
X6116726Y3114395D01*
X6119266Y3104946D01*
X6123381Y3096006D01*
X6129020Y3087979D01*
X6135979Y3081020D01*
X6144006Y3075381D01*
X6152946Y3071266D01*
X6162395Y3068726D01*
G37*
G36*
X5524500Y8017408D02*
G01*
X5564682Y8017408D01*
X5564682Y8043621D01*
X5563971Y8049971D01*
X5562092Y8055406D01*
X5558993Y8060334D01*
X5554929Y8064398D01*
X5550001Y8067497D01*
X5544566Y8069427D01*
X5538216Y8070138D01*
X5524500Y8070138D01*
G37*
G36*
X5126024Y3167075D02*
G01*
X5262575Y3167075D01*
X5268925Y3167786D01*
X5274360Y3169716D01*
X5279288Y3172764D01*
X5283352Y3176879D01*
X5286451Y3181756D01*
X5288330Y3187242D01*
X5289042Y3193542D01*
X5289042Y3305657D01*
X5288330Y3312007D01*
X5286451Y3317443D01*
X5283352Y3322320D01*
X5279288Y3326434D01*
X5275783Y3328619D01*
X5273243Y3330905D01*
X5271566Y3333902D01*
X5271008Y3337255D01*
X5271008Y3372764D01*
X5271770Y3376625D01*
X5274005Y3379927D01*
X5275275Y3381248D01*
X5280863Y3389223D01*
X5284978Y3398062D01*
X5286095Y3402126D01*
X5288127Y3406038D01*
X5291582Y3408730D01*
X5295900Y3409645D01*
X5300218Y3408730D01*
X5303672Y3406038D01*
X5305704Y3402126D01*
X5306822Y3398062D01*
X5310936Y3389223D01*
X5316524Y3381248D01*
X5317794Y3379927D01*
X5320030Y3376625D01*
X5320792Y3372764D01*
X5320792Y3324707D01*
X5320385Y3321913D01*
X5318048Y3317443D01*
X5316169Y3312007D01*
X5315458Y3305657D01*
X5315458Y3193542D01*
X5316169Y3187242D01*
X5318048Y3181756D01*
X5321147Y3176879D01*
X5325211Y3172764D01*
X5330139Y3169716D01*
X5335574Y3167786D01*
X5341924Y3167075D01*
X5478475Y3167075D01*
X5484825Y3167786D01*
X5490260Y3169716D01*
X5495188Y3172764D01*
X5499252Y3176879D01*
X5502351Y3181756D01*
X5504230Y3187242D01*
X5504942Y3193542D01*
X5504942Y3305657D01*
X5504230Y3312007D01*
X5502351Y3317443D01*
X5499252Y3322320D01*
X5495188Y3326434D01*
X5490260Y3329533D01*
X5484825Y3331413D01*
X5478475Y3332124D01*
X5408168Y3332124D01*
X5404256Y3332937D01*
X5401005Y3335121D01*
X5398770Y3338423D01*
X5398008Y3342284D01*
X5398008Y3372764D01*
X5398770Y3376625D01*
X5401005Y3379927D01*
X5402275Y3381248D01*
X5407863Y3389223D01*
X5411978Y3398062D01*
X5414518Y3407460D01*
X5415432Y3417620D01*
X5415432Y3553663D01*
X5414518Y3563823D01*
X5411978Y3573221D01*
X5407863Y3582060D01*
X5402275Y3590086D01*
X5395366Y3596995D01*
X5387390Y3602583D01*
X5378551Y3606698D01*
X5369102Y3609238D01*
X5359400Y3610051D01*
X5349697Y3609238D01*
X5340248Y3606698D01*
X5331409Y3602583D01*
X5323433Y3596995D01*
X5316524Y3590086D01*
X5310936Y3582060D01*
X5306822Y3573221D01*
X5305704Y3569157D01*
X5303672Y3565245D01*
X5300218Y3562604D01*
X5295900Y3561638D01*
X5291582Y3562604D01*
X5288127Y3565245D01*
X5286095Y3569157D01*
X5284978Y3573221D01*
X5280863Y3582060D01*
X5275275Y3590086D01*
X5268366Y3596995D01*
X5260390Y3602583D01*
X5251551Y3606698D01*
X5242102Y3609238D01*
X5232400Y3610051D01*
X5222697Y3609238D01*
X5213248Y3606698D01*
X5204409Y3602583D01*
X5196433Y3596995D01*
X5189524Y3590086D01*
X5183936Y3582060D01*
X5179822Y3573221D01*
X5178704Y3569157D01*
X5176672Y3565245D01*
X5173218Y3562604D01*
X5168900Y3561638D01*
X5164582Y3562604D01*
X5161127Y3565245D01*
X5159095Y3569157D01*
X5157978Y3573221D01*
X5153863Y3582060D01*
X5148275Y3590086D01*
X5147005Y3591356D01*
X5144770Y3594658D01*
X5144008Y3598570D01*
X5144008Y3637381D01*
X5144770Y3641293D01*
X5147005Y3644595D01*
X5150002Y3647592D01*
X5153304Y3649827D01*
X5157216Y3650589D01*
X5444591Y3650589D01*
X5448655Y3649726D01*
X5452059Y3647338D01*
X5454192Y3643782D01*
X5456224Y3637991D01*
X5459272Y3633114D01*
X5463387Y3628999D01*
X5468264Y3625900D01*
X5473750Y3624021D01*
X5480050Y3623310D01*
X5568950Y3623310D01*
X5575249Y3624021D01*
X5580735Y3625900D01*
X5585612Y3628999D01*
X5589727Y3633114D01*
X5592775Y3637991D01*
X5594705Y3643477D01*
X5595416Y3649776D01*
X5595416Y3728618D01*
X5594705Y3734968D01*
X5592775Y3740404D01*
X5589727Y3745331D01*
X5585612Y3749395D01*
X5583732Y3750614D01*
X5580786Y3753408D01*
X5579160Y3757168D01*
X5579160Y3761232D01*
X5580786Y3764991D01*
X5583732Y3767785D01*
X5585612Y3769004D01*
X5589727Y3773068D01*
X5592775Y3777996D01*
X5594705Y3783431D01*
X5595416Y3789781D01*
X5595416Y3816502D01*
X5537200Y3816502D01*
X5537200Y3765296D01*
X5536438Y3761384D01*
X5534202Y3758082D01*
X5530951Y3755898D01*
X5527040Y3755136D01*
X5521960Y3755136D01*
X5518048Y3755898D01*
X5514797Y3758082D01*
X5512562Y3761384D01*
X5511800Y3765296D01*
X5511800Y3816502D01*
X5453583Y3816502D01*
X5453583Y3789781D01*
X5454294Y3783431D01*
X5456224Y3777996D01*
X5459272Y3773068D01*
X5463387Y3769004D01*
X5465267Y3767785D01*
X5468213Y3764991D01*
X5469839Y3761232D01*
X5469839Y3757168D01*
X5468213Y3753408D01*
X5465267Y3750614D01*
X5463387Y3749395D01*
X5459272Y3745331D01*
X5456224Y3740404D01*
X5454192Y3734612D01*
X5452059Y3731056D01*
X5448655Y3728669D01*
X5444591Y3727805D01*
X5137505Y3727805D01*
X5129479Y3726992D01*
X5122265Y3724808D01*
X5115560Y3721252D01*
X5109362Y3716172D01*
X5078476Y3685235D01*
X5073345Y3679037D01*
X5069789Y3672332D01*
X5067604Y3665118D01*
X5066792Y3657092D01*
X5066792Y3598570D01*
X5066030Y3594658D01*
X5063794Y3591356D01*
X5062524Y3590086D01*
X5056936Y3582060D01*
X5052822Y3573221D01*
X5051704Y3569157D01*
X5049672Y3565245D01*
X5046218Y3562604D01*
X5041900Y3561638D01*
X5037582Y3562604D01*
X5034127Y3565245D01*
X5032095Y3569157D01*
X5030978Y3573221D01*
X5026863Y3582060D01*
X5021275Y3590086D01*
X5014366Y3596995D01*
X5006390Y3602583D01*
X4997551Y3606698D01*
X4988102Y3609238D01*
X4978400Y3610051D01*
X4968697Y3609238D01*
X4959248Y3606698D01*
X4950409Y3602583D01*
X4942433Y3596995D01*
X4935524Y3590086D01*
X4929936Y3582060D01*
X4925822Y3573221D01*
X4924704Y3569157D01*
X4922672Y3565245D01*
X4919218Y3562604D01*
X4914900Y3561638D01*
X4910582Y3562604D01*
X4907127Y3565245D01*
X4905095Y3569157D01*
X4903978Y3573221D01*
X4899863Y3582060D01*
X4894275Y3590086D01*
X4887366Y3596995D01*
X4879390Y3602583D01*
X4870551Y3606698D01*
X4861102Y3609238D01*
X4851400Y3610051D01*
X4841697Y3609238D01*
X4832248Y3606698D01*
X4823409Y3602583D01*
X4815433Y3596995D01*
X4808524Y3590086D01*
X4802936Y3582060D01*
X4798822Y3573221D01*
X4797704Y3569157D01*
X4795672Y3565245D01*
X4792218Y3562604D01*
X4787900Y3561638D01*
X4783582Y3562604D01*
X4780127Y3565245D01*
X4778095Y3569157D01*
X4776978Y3573221D01*
X4772863Y3582060D01*
X4767275Y3590086D01*
X4760366Y3596995D01*
X4752390Y3602583D01*
X4743551Y3606698D01*
X4734102Y3609238D01*
X4724400Y3610051D01*
X4714697Y3609238D01*
X4705248Y3606698D01*
X4696409Y3602583D01*
X4688433Y3596995D01*
X4681524Y3590086D01*
X4675936Y3582060D01*
X4671822Y3573221D01*
X4670704Y3569157D01*
X4668672Y3565245D01*
X4665218Y3562604D01*
X4660900Y3561638D01*
X4656582Y3562604D01*
X4653127Y3565245D01*
X4651095Y3569157D01*
X4649978Y3573221D01*
X4645863Y3582060D01*
X4640275Y3590086D01*
X4639005Y3591356D01*
X4636770Y3594658D01*
X4636008Y3598570D01*
X4636008Y3657092D01*
X4635195Y3665118D01*
X4633010Y3672382D01*
X4629454Y3679037D01*
X4624324Y3685235D01*
X4593437Y3716121D01*
X4587240Y3721252D01*
X4580534Y3724808D01*
X4573320Y3726992D01*
X4565294Y3727805D01*
X4385208Y3727805D01*
X4381144Y3728669D01*
X4377740Y3731056D01*
X4375607Y3734612D01*
X4373575Y3740404D01*
X4370527Y3745331D01*
X4366412Y3749395D01*
X4364532Y3750614D01*
X4361586Y3753408D01*
X4359960Y3757168D01*
X4359960Y3761232D01*
X4361586Y3764991D01*
X4364532Y3767785D01*
X4366412Y3769004D01*
X4370527Y3773068D01*
X4373575Y3777996D01*
X4375505Y3783431D01*
X4376216Y3789781D01*
X4376216Y3816502D01*
X4318000Y3816502D01*
X4318000Y3765296D01*
X4317238Y3761384D01*
X4315002Y3758082D01*
X4311751Y3755898D01*
X4307840Y3755136D01*
X4302760Y3755136D01*
X4298848Y3755898D01*
X4295597Y3758082D01*
X4293362Y3761384D01*
X4292600Y3765296D01*
X4292600Y3816502D01*
X4234383Y3816502D01*
X4234383Y3789781D01*
X4235094Y3783431D01*
X4237024Y3777996D01*
X4240072Y3773068D01*
X4244187Y3769004D01*
X4246067Y3767785D01*
X4249013Y3764991D01*
X4250639Y3761232D01*
X4250639Y3757168D01*
X4249013Y3753408D01*
X4246067Y3750614D01*
X4244187Y3749395D01*
X4240072Y3745331D01*
X4237024Y3740404D01*
X4235094Y3734968D01*
X4234383Y3728618D01*
X4234383Y3649776D01*
X4235094Y3643477D01*
X4237024Y3637991D01*
X4240072Y3633114D01*
X4244187Y3628999D01*
X4249064Y3625900D01*
X4254550Y3624021D01*
X4260850Y3623310D01*
X4349750Y3623310D01*
X4356049Y3624021D01*
X4361535Y3625900D01*
X4366412Y3628999D01*
X4370527Y3633114D01*
X4373575Y3637991D01*
X4375607Y3643782D01*
X4377740Y3647338D01*
X4381144Y3649726D01*
X4385208Y3650589D01*
X4545584Y3650589D01*
X4549495Y3649827D01*
X4552797Y3647592D01*
X4555794Y3644595D01*
X4558030Y3641293D01*
X4558792Y3637381D01*
X4558792Y3598570D01*
X4558030Y3594658D01*
X4555794Y3591356D01*
X4554524Y3590086D01*
X4548936Y3582060D01*
X4544822Y3573221D01*
X4543704Y3569157D01*
X4541672Y3565245D01*
X4538218Y3562604D01*
X4533900Y3561638D01*
X4529582Y3562604D01*
X4526127Y3565245D01*
X4524095Y3569157D01*
X4522978Y3573221D01*
X4518863Y3582060D01*
X4513275Y3590086D01*
X4506366Y3596995D01*
X4498390Y3602583D01*
X4489551Y3606698D01*
X4480102Y3609238D01*
X4470400Y3610051D01*
X4460697Y3609238D01*
X4451248Y3606698D01*
X4442409Y3602583D01*
X4434433Y3596995D01*
X4427524Y3590086D01*
X4421936Y3582060D01*
X4417822Y3573221D01*
X4415282Y3563823D01*
X4414367Y3553663D01*
X4414367Y3417620D01*
X4415282Y3407460D01*
X4417822Y3398062D01*
X4421936Y3389223D01*
X4427524Y3381248D01*
X4428845Y3379927D01*
X4431030Y3376625D01*
X4431792Y3372764D01*
X4431792Y3308705D01*
X4432604Y3300679D01*
X4434789Y3293414D01*
X4438345Y3286760D01*
X4443476Y3280562D01*
X4458512Y3265474D01*
X4460748Y3262172D01*
X4461510Y3258312D01*
X4461510Y3206750D01*
X4462221Y3200450D01*
X4464100Y3194964D01*
X4467199Y3190087D01*
X4471314Y3185972D01*
X4476191Y3182924D01*
X4481677Y3180994D01*
X4487976Y3180283D01*
X4566818Y3180283D01*
X4573168Y3180994D01*
X4578604Y3182924D01*
X4583531Y3185972D01*
X4587595Y3190087D01*
X4588814Y3191967D01*
X4591608Y3194913D01*
X4595368Y3196539D01*
X4599432Y3196539D01*
X4603191Y3194913D01*
X4605985Y3191967D01*
X4607204Y3190087D01*
X4611268Y3185972D01*
X4616196Y3182924D01*
X4621631Y3180994D01*
X4627981Y3180283D01*
X4706823Y3180283D01*
X4713122Y3180994D01*
X4718608Y3182924D01*
X4723485Y3185972D01*
X4727600Y3190087D01*
X4730699Y3194964D01*
X4732578Y3200450D01*
X4733290Y3206750D01*
X4733290Y3258312D01*
X4734052Y3262172D01*
X4736287Y3265474D01*
X4751324Y3280562D01*
X4756454Y3286760D01*
X4759858Y3293211D01*
X4762804Y3296564D01*
X4766868Y3298342D01*
X4771288Y3298240D01*
X4775301Y3296259D01*
X4778044Y3292754D01*
X4779010Y3288385D01*
X4779010Y3206750D01*
X4779721Y3200450D01*
X4781600Y3194964D01*
X4784699Y3190087D01*
X4788814Y3185972D01*
X4793691Y3182924D01*
X4799177Y3180994D01*
X4805476Y3180283D01*
X4884318Y3180283D01*
X4890668Y3180994D01*
X4896104Y3182924D01*
X4901031Y3185972D01*
X4905095Y3190087D01*
X4906314Y3191967D01*
X4909108Y3194913D01*
X4912868Y3196539D01*
X4916932Y3196539D01*
X4920691Y3194913D01*
X4923485Y3191967D01*
X4924704Y3190087D01*
X4928768Y3185972D01*
X4933696Y3182924D01*
X4939131Y3180994D01*
X4945481Y3180283D01*
X5024323Y3180283D01*
X5030622Y3180994D01*
X5036108Y3182924D01*
X5040985Y3185972D01*
X5045100Y3190087D01*
X5048199Y3194964D01*
X5050078Y3200450D01*
X5050790Y3206750D01*
X5050790Y3295650D01*
X5050078Y3301949D01*
X5048199Y3307435D01*
X5045100Y3312312D01*
X5040985Y3316427D01*
X5036108Y3319475D01*
X5030622Y3321405D01*
X5026050Y3321913D01*
X5022494Y3322980D01*
X5019598Y3325215D01*
X5017668Y3328365D01*
X5017008Y3332022D01*
X5017008Y3372764D01*
X5017770Y3376625D01*
X5020005Y3379927D01*
X5021275Y3381248D01*
X5026863Y3389223D01*
X5030978Y3398062D01*
X5032095Y3402126D01*
X5034127Y3406038D01*
X5037582Y3408730D01*
X5041900Y3409645D01*
X5046218Y3408730D01*
X5049672Y3406038D01*
X5051704Y3402126D01*
X5052822Y3398062D01*
X5056936Y3389223D01*
X5062524Y3381248D01*
X5069433Y3374339D01*
X5077409Y3368751D01*
X5086248Y3364585D01*
X5095697Y3362096D01*
X5105400Y3361232D01*
X5115102Y3362096D01*
X5124551Y3364585D01*
X5133390Y3368751D01*
X5141366Y3374339D01*
X5148275Y3381248D01*
X5153863Y3389223D01*
X5157978Y3398062D01*
X5159095Y3402126D01*
X5161127Y3406038D01*
X5164582Y3408730D01*
X5168900Y3409645D01*
X5173218Y3408730D01*
X5176672Y3406038D01*
X5178704Y3402126D01*
X5179822Y3398062D01*
X5183936Y3389223D01*
X5189524Y3381248D01*
X5190794Y3379927D01*
X5193030Y3376625D01*
X5193792Y3372764D01*
X5193792Y3342284D01*
X5193030Y3338423D01*
X5190794Y3335121D01*
X5187543Y3332937D01*
X5183632Y3332124D01*
X5126024Y3332124D01*
X5119674Y3331413D01*
X5114239Y3329533D01*
X5109311Y3326434D01*
X5105247Y3322320D01*
X5102148Y3317443D01*
X5100269Y3312007D01*
X5099558Y3305657D01*
X5099558Y3193542D01*
X5100269Y3187242D01*
X5102148Y3181756D01*
X5105247Y3176879D01*
X5109311Y3172764D01*
X5114239Y3169716D01*
X5119674Y3167786D01*
G37*
G36*
X4279900Y7741462D02*
G01*
X4289704Y7742326D01*
X4299153Y7744866D01*
X4308094Y7748981D01*
X4316120Y7754620D01*
X4323080Y7761579D01*
X4328718Y7769606D01*
X4332833Y7778546D01*
X4335373Y7787995D01*
X4336237Y7797800D01*
X4335373Y7807604D01*
X4332833Y7817053D01*
X4328718Y7825994D01*
X4323080Y7834020D01*
X4321505Y7835595D01*
X4319270Y7838897D01*
X4318508Y7842808D01*
X4318508Y8056981D01*
X4319270Y8060893D01*
X4321505Y8064195D01*
X4401820Y8144560D01*
X4406950Y8150758D01*
X4410506Y8157464D01*
X4412691Y8164677D01*
X4413504Y8172703D01*
X4413504Y8210499D01*
X4414316Y8214410D01*
X4416552Y8217763D01*
X4421733Y8222843D01*
X4424781Y8227669D01*
X4426712Y8233156D01*
X4427423Y8239455D01*
X4427423Y8345525D01*
X4426712Y8351875D01*
X4424781Y8357311D01*
X4421682Y8362238D01*
X4417618Y8366302D01*
X4412691Y8369401D01*
X4407255Y8371281D01*
X4400905Y8371992D01*
X4348886Y8371992D01*
X4342536Y8371281D01*
X4337100Y8369401D01*
X4332782Y8366709D01*
X4329277Y8365337D01*
X4325518Y8365337D01*
X4322013Y8366709D01*
X4317695Y8369401D01*
X4316069Y8369960D01*
X4312310Y8372297D01*
X4309922Y8376005D01*
X4309313Y8380374D01*
X4310634Y8384590D01*
X4313580Y8387892D01*
X4316120Y8389620D01*
X4323080Y8396579D01*
X4328718Y8404606D01*
X4332833Y8413546D01*
X4335373Y8422995D01*
X4336338Y8433714D01*
X4337456Y8437575D01*
X4339996Y8440724D01*
X4343552Y8442604D01*
X4348886Y8442807D01*
X4400905Y8442807D01*
X4407255Y8443518D01*
X4412691Y8445398D01*
X4417618Y8448497D01*
X4421682Y8452561D01*
X4424781Y8457488D01*
X4426712Y8462924D01*
X4427423Y8469274D01*
X4427423Y8575344D01*
X4426712Y8581644D01*
X4424781Y8587130D01*
X4421733Y8591956D01*
X4416552Y8597036D01*
X4414316Y8600389D01*
X4413504Y8604300D01*
X4413504Y8634577D01*
X4414266Y8638489D01*
X4416501Y8641791D01*
X4433824Y8659164D01*
X4438954Y8665362D01*
X4442510Y8672068D01*
X4444695Y8679281D01*
X4445508Y8687308D01*
X4445508Y8763558D01*
X4446270Y8767368D01*
X4448352Y8770620D01*
X4451553Y8772855D01*
X4455363Y8773718D01*
X4459173Y8773109D01*
X4474616Y8762542D01*
X4488027Y8755583D01*
X4490923Y8753348D01*
X4492853Y8750198D01*
X4493514Y8746591D01*
X4493514Y8615730D01*
X4492752Y8611819D01*
X4490567Y8608517D01*
X4488942Y8606942D01*
X4483303Y8598916D01*
X4479188Y8589975D01*
X4476648Y8580526D01*
X4475784Y8570722D01*
X4476648Y8560917D01*
X4479188Y8551468D01*
X4483303Y8542528D01*
X4488942Y8534501D01*
X4495901Y8527542D01*
X4503928Y8521903D01*
X4512868Y8517788D01*
X4522317Y8515248D01*
X4532122Y8514384D01*
X4541926Y8515248D01*
X4551375Y8517788D01*
X4560316Y8521903D01*
X4568342Y8527542D01*
X4575302Y8534501D01*
X4580940Y8542528D01*
X4585055Y8551468D01*
X4587595Y8560917D01*
X4588459Y8570722D01*
X4587595Y8580526D01*
X4585055Y8589975D01*
X4580940Y8598916D01*
X4575302Y8606942D01*
X4573727Y8608517D01*
X4571492Y8611819D01*
X4570730Y8615680D01*
X4570730Y8746845D01*
X4571492Y8750655D01*
X4573574Y8753906D01*
X4576775Y8756142D01*
X4583379Y8759088D01*
X4595520Y8766454D01*
X4606645Y8775293D01*
X4616500Y8785504D01*
X4625035Y8796883D01*
X4631994Y8809278D01*
X4637328Y8822436D01*
X4640935Y8836202D01*
X4642764Y8850274D01*
X4642764Y8864498D01*
X4640935Y8878570D01*
X4637328Y8892336D01*
X4631994Y8905494D01*
X4625035Y8917889D01*
X4616500Y8929268D01*
X4606645Y8939479D01*
X4595520Y8948318D01*
X4583379Y8955684D01*
X4570374Y8961424D01*
X4556760Y8965488D01*
X4542739Y8967774D01*
X4528515Y8968232D01*
X4514392Y8966860D01*
X4500524Y8963660D01*
X4487214Y8958783D01*
X4474616Y8952230D01*
X4462475Y8943644D01*
X4459173Y8941663D01*
X4455363Y8941054D01*
X4451553Y8941917D01*
X4448352Y8944102D01*
X4446270Y8947353D01*
X4445508Y8951163D01*
X4445508Y9029192D01*
X4444695Y9037218D01*
X4442510Y9044432D01*
X4438954Y9051137D01*
X4433824Y9057335D01*
X4431436Y9059773D01*
X4429455Y9062567D01*
X4428540Y9065818D01*
X4428693Y9069222D01*
X4430014Y9072372D01*
X4433214Y9077452D01*
X4435094Y9082887D01*
X4435805Y9089237D01*
X4435805Y9243060D01*
X4435094Y9249410D01*
X4433214Y9254845D01*
X4430115Y9259773D01*
X4426000Y9263837D01*
X4421124Y9266936D01*
X4415688Y9268866D01*
X4409338Y9269577D01*
X4350461Y9269577D01*
X4344162Y9268866D01*
X4338675Y9266936D01*
X4335322Y9264802D01*
X4331766Y9263430D01*
X4328007Y9263430D01*
X4324502Y9264802D01*
X4321098Y9266936D01*
X4315663Y9268866D01*
X4309313Y9269577D01*
X4292600Y9269577D01*
X4292600Y9178848D01*
X4313834Y9178848D01*
X4317746Y9178086D01*
X4321048Y9175851D01*
X4323232Y9172600D01*
X4323994Y9168688D01*
X4323994Y9163608D01*
X4323232Y9159697D01*
X4321048Y9156446D01*
X4317746Y9154210D01*
X4313834Y9153448D01*
X4292600Y9153448D01*
X4292600Y9062720D01*
X4309313Y9062720D01*
X4315663Y9063431D01*
X4321098Y9065361D01*
X4324502Y9067495D01*
X4328007Y9068866D01*
X4331766Y9068866D01*
X4336542Y9066733D01*
X4339082Y9064447D01*
X4340707Y9061450D01*
X4342079Y9049156D01*
X4344263Y9041942D01*
X4347819Y9035288D01*
X4352950Y9029039D01*
X4365294Y9016695D01*
X4367530Y9013393D01*
X4368292Y9009481D01*
X4368292Y8948064D01*
X4367580Y8944356D01*
X4365599Y8941155D01*
X4362551Y8938920D01*
X4358894Y8937955D01*
X4355134Y8938361D01*
X4351782Y8940139D01*
X4341520Y8948318D01*
X4329379Y8955684D01*
X4316374Y8961424D01*
X4302760Y8965488D01*
X4288739Y8967774D01*
X4274515Y8968232D01*
X4260392Y8966860D01*
X4246524Y8963660D01*
X4233214Y8958783D01*
X4220616Y8952230D01*
X4208475Y8943644D01*
X4205173Y8941663D01*
X4201363Y8941054D01*
X4197553Y8941917D01*
X4194352Y8944102D01*
X4192270Y8947353D01*
X4191508Y8951163D01*
X4191508Y9009481D01*
X4192270Y9013393D01*
X4194505Y9016695D01*
X4206849Y9029039D01*
X4211980Y9035288D01*
X4215536Y9041942D01*
X4217720Y9049156D01*
X4218482Y9058097D01*
X4219092Y9061450D01*
X4220718Y9064447D01*
X4224477Y9067495D01*
X4227982Y9068866D01*
X4231792Y9068866D01*
X4235297Y9067495D01*
X4238650Y9065361D01*
X4244136Y9063431D01*
X4250436Y9062720D01*
X4267200Y9062720D01*
X4267200Y9153448D01*
X4245965Y9153448D01*
X4242054Y9154210D01*
X4238752Y9156446D01*
X4236567Y9159697D01*
X4235805Y9163608D01*
X4235805Y9168688D01*
X4236567Y9172600D01*
X4238752Y9175851D01*
X4242054Y9178086D01*
X4245965Y9178848D01*
X4267200Y9178848D01*
X4267200Y9269577D01*
X4250436Y9269577D01*
X4244136Y9268866D01*
X4238650Y9266936D01*
X4235297Y9264802D01*
X4231792Y9263430D01*
X4227982Y9263430D01*
X4224477Y9264802D01*
X4221124Y9266936D01*
X4215638Y9268866D01*
X4209338Y9269577D01*
X4150461Y9269577D01*
X4144111Y9268866D01*
X4138676Y9266936D01*
X4133799Y9263837D01*
X4129684Y9259773D01*
X4126585Y9254845D01*
X4124706Y9249410D01*
X4123994Y9243060D01*
X4123994Y9089237D01*
X4124706Y9082887D01*
X4126585Y9077452D01*
X4129786Y9072372D01*
X4131106Y9069222D01*
X4131259Y9065818D01*
X4130344Y9062567D01*
X4128363Y9059773D01*
X4125976Y9057335D01*
X4120845Y9051137D01*
X4117289Y9044432D01*
X4115104Y9037218D01*
X4114292Y9029192D01*
X4114292Y8948064D01*
X4113580Y8944356D01*
X4111599Y8941155D01*
X4108551Y8938920D01*
X4104894Y8937955D01*
X4101134Y8938361D01*
X4097782Y8940139D01*
X4087520Y8948318D01*
X4075379Y8955684D01*
X4062374Y8961424D01*
X4048760Y8965488D01*
X4034739Y8967774D01*
X4020515Y8968232D01*
X4006392Y8966860D01*
X3992524Y8963660D01*
X3979214Y8958783D01*
X3966616Y8952230D01*
X3954932Y8944051D01*
X3944416Y8934500D01*
X3935222Y8923680D01*
X3927449Y8911793D01*
X3921302Y8898991D01*
X3916832Y8885529D01*
X3914089Y8871559D01*
X3913225Y8857386D01*
X3914089Y8843213D01*
X3916832Y8829243D01*
X3921302Y8815781D01*
X3927449Y8802979D01*
X3935222Y8791041D01*
X3944416Y8780221D01*
X3954932Y8770670D01*
X3966616Y8762542D01*
X3979773Y8755684D01*
X3982516Y8753602D01*
X3984396Y8750706D01*
X3985209Y8747353D01*
X3985514Y8743391D01*
X3984853Y8739124D01*
X3982516Y8735517D01*
X3980942Y8733942D01*
X3975303Y8725916D01*
X3971188Y8716975D01*
X3968648Y8707526D01*
X3967784Y8697722D01*
X3968648Y8687917D01*
X3971188Y8678468D01*
X3975303Y8669528D01*
X3980942Y8661501D01*
X3987901Y8654542D01*
X3995928Y8648903D01*
X4004868Y8644788D01*
X4014317Y8642248D01*
X4024122Y8641384D01*
X4033926Y8642248D01*
X4043375Y8644788D01*
X4052315Y8648903D01*
X4060342Y8654542D01*
X4067301Y8661501D01*
X4072940Y8669528D01*
X4077055Y8678468D01*
X4079595Y8687917D01*
X4080459Y8697722D01*
X4079595Y8707526D01*
X4077055Y8716975D01*
X4072940Y8725916D01*
X4067301Y8733942D01*
X4065727Y8735517D01*
X4063492Y8738819D01*
X4062729Y8742730D01*
X4062729Y8746845D01*
X4063492Y8750655D01*
X4065574Y8753906D01*
X4068775Y8756142D01*
X4075379Y8759088D01*
X4087520Y8766454D01*
X4097782Y8774633D01*
X4101134Y8776411D01*
X4104894Y8776817D01*
X4108551Y8775852D01*
X4111599Y8773566D01*
X4113580Y8770416D01*
X4114292Y8766657D01*
X4114292Y8687308D01*
X4115104Y8679281D01*
X4117289Y8672068D01*
X4120845Y8665362D01*
X4125976Y8659164D01*
X4143298Y8641791D01*
X4145534Y8638489D01*
X4146296Y8634577D01*
X4146296Y8604300D01*
X4145483Y8600389D01*
X4143248Y8597036D01*
X4138066Y8591956D01*
X4135018Y8587130D01*
X4133087Y8581644D01*
X4132376Y8575344D01*
X4132376Y8469274D01*
X4133087Y8462924D01*
X4135018Y8457488D01*
X4138117Y8452561D01*
X4142181Y8448497D01*
X4147108Y8445398D01*
X4152544Y8443518D01*
X4158894Y8442807D01*
X4211015Y8442807D01*
X4216400Y8442502D01*
X4219854Y8440572D01*
X4222343Y8437524D01*
X4223461Y8433663D01*
X4224426Y8422995D01*
X4226966Y8413546D01*
X4231081Y8404606D01*
X4236720Y8396579D01*
X4243679Y8389620D01*
X4246219Y8387892D01*
X4249166Y8384590D01*
X4250486Y8380374D01*
X4249877Y8376005D01*
X4247489Y8372297D01*
X4243730Y8369960D01*
X4242104Y8369401D01*
X4237786Y8366709D01*
X4234281Y8365337D01*
X4230522Y8365337D01*
X4227017Y8366709D01*
X4222699Y8369401D01*
X4217263Y8371281D01*
X4210913Y8371992D01*
X4158894Y8371992D01*
X4152544Y8371281D01*
X4147108Y8369401D01*
X4142181Y8366302D01*
X4138117Y8362238D01*
X4135018Y8357311D01*
X4133087Y8351875D01*
X4132376Y8345525D01*
X4132376Y8239455D01*
X4133087Y8233156D01*
X4135018Y8227669D01*
X4138066Y8222843D01*
X4143248Y8217763D01*
X4145483Y8214410D01*
X4146296Y8210499D01*
X4146296Y7912709D01*
X4145787Y7909559D01*
X4144365Y7906715D01*
X4135120Y7897520D01*
X4129481Y7889494D01*
X4125366Y7880553D01*
X4122826Y7871104D01*
X4121962Y7861300D01*
X4122826Y7851495D01*
X4125366Y7842046D01*
X4129481Y7833106D01*
X4135120Y7825079D01*
X4142079Y7818120D01*
X4150106Y7812481D01*
X4159046Y7808366D01*
X4168495Y7805826D01*
X4178300Y7804962D01*
X4188104Y7805826D01*
X4197553Y7808366D01*
X4206494Y7812481D01*
X4208170Y7813700D01*
X4211675Y7815275D01*
X4215485Y7815427D01*
X4219092Y7814157D01*
X4221988Y7811668D01*
X4223766Y7808315D01*
X4224121Y7804505D01*
X4223562Y7797800D01*
X4224426Y7787995D01*
X4226966Y7778546D01*
X4231081Y7769606D01*
X4236720Y7761579D01*
X4243679Y7754620D01*
X4251706Y7748981D01*
X4260646Y7744866D01*
X4270095Y7742326D01*
G37*
G36*
X4211878Y6995617D02*
G01*
X4238091Y6995617D01*
X4238091Y7035800D01*
X4185361Y7035800D01*
X4185361Y7022084D01*
X4186072Y7015734D01*
X4188002Y7010298D01*
X4191101Y7005370D01*
X4195165Y7001306D01*
X4200093Y6998208D01*
X4205528Y6996328D01*
G37*
G36*
X4375861Y6832600D02*
G01*
X4428591Y6832600D01*
X4428591Y6872782D01*
X4402378Y6872782D01*
X4396028Y6872071D01*
X4390593Y6870192D01*
X4385665Y6867093D01*
X4381601Y6863029D01*
X4378502Y6858101D01*
X4376572Y6852666D01*
X4375861Y6846316D01*
G37*
G36*
X4402378Y6766966D02*
G01*
X4428591Y6766966D01*
X4428591Y6807200D01*
X4375861Y6807200D01*
X4375861Y6793484D01*
X4376572Y6787134D01*
X4378502Y6781698D01*
X4381601Y6776770D01*
X4385665Y6772706D01*
X4390593Y6769608D01*
X4396028Y6767728D01*
G37*
G36*
X5286908Y6754317D02*
G01*
X5313121Y6754317D01*
X5319471Y6755028D01*
X5324906Y6756908D01*
X5329834Y6760006D01*
X5333898Y6764070D01*
X5336997Y6768998D01*
X5338927Y6774434D01*
X5339638Y6780784D01*
X5339638Y6794500D01*
X5286908Y6794500D01*
G37*
G36*
X4904689Y6674408D02*
G01*
X4961382Y6674408D01*
X4961382Y6747611D01*
X4878171Y6747611D01*
X4878171Y6700875D01*
X4878882Y6694576D01*
X4880813Y6689090D01*
X4883912Y6684213D01*
X4887976Y6680098D01*
X4892903Y6677050D01*
X4898339Y6675120D01*
G37*
G36*
X4986782Y6674408D02*
G01*
X5043525Y6674408D01*
X5049875Y6675120D01*
X5055311Y6677050D01*
X5060188Y6680098D01*
X5064302Y6684213D01*
X5067401Y6689090D01*
X5069281Y6694576D01*
X5069992Y6700875D01*
X5069992Y6747611D01*
X4986782Y6747611D01*
G37*
G36*
X3594100Y6534962D02*
G01*
X3603904Y6535826D01*
X3613353Y6538366D01*
X3622294Y6542481D01*
X3630320Y6548120D01*
X3637279Y6555079D01*
X3642918Y6563106D01*
X3647033Y6572046D01*
X3649573Y6581495D01*
X3650437Y6591300D01*
X3649573Y6601104D01*
X3647033Y6610553D01*
X3642918Y6619494D01*
X3637279Y6627520D01*
X3635705Y6629095D01*
X3633470Y6632397D01*
X3632708Y6636308D01*
X3632708Y7752791D01*
X3633470Y7756702D01*
X3635705Y7760004D01*
X3637279Y7761579D01*
X3642918Y7769606D01*
X3647033Y7778546D01*
X3649573Y7787995D01*
X3650437Y7797800D01*
X3649573Y7807604D01*
X3647033Y7817053D01*
X3642918Y7825994D01*
X3637279Y7834020D01*
X3630320Y7840980D01*
X3622294Y7846618D01*
X3613353Y7850733D01*
X3603904Y7853273D01*
X3596030Y7853984D01*
X3592626Y7854899D01*
X3589731Y7856931D01*
X3587699Y7859826D01*
X3586784Y7863230D01*
X3586073Y7871104D01*
X3583533Y7880553D01*
X3579418Y7889494D01*
X3573779Y7897520D01*
X3566820Y7904480D01*
X3558794Y7910118D01*
X3549853Y7914233D01*
X3540404Y7916773D01*
X3530600Y7917637D01*
X3520795Y7916773D01*
X3511346Y7914233D01*
X3502406Y7910118D01*
X3494379Y7904480D01*
X3487420Y7897520D01*
X3481781Y7889494D01*
X3477666Y7880553D01*
X3475126Y7871104D01*
X3474262Y7861300D01*
X3475126Y7851495D01*
X3477666Y7842046D01*
X3481781Y7833106D01*
X3487420Y7825079D01*
X3488994Y7823504D01*
X3491229Y7820202D01*
X3491992Y7816291D01*
X3491992Y6699808D01*
X3491229Y6695897D01*
X3488994Y6692595D01*
X3487420Y6691020D01*
X3481781Y6682994D01*
X3477666Y6674053D01*
X3475126Y6664604D01*
X3474262Y6654800D01*
X3475126Y6644995D01*
X3477666Y6635546D01*
X3481781Y6626606D01*
X3487420Y6618579D01*
X3494379Y6611620D01*
X3502406Y6605981D01*
X3511346Y6601866D01*
X3520795Y6599326D01*
X3528669Y6598615D01*
X3532073Y6597700D01*
X3534968Y6595668D01*
X3537000Y6592773D01*
X3537915Y6589369D01*
X3538626Y6581495D01*
X3541166Y6572046D01*
X3545281Y6563106D01*
X3550920Y6555079D01*
X3557879Y6548120D01*
X3565906Y6542481D01*
X3574846Y6538366D01*
X3584295Y6535826D01*
G37*
G36*
X4256379Y6477000D02*
G01*
X4354576Y6477000D01*
X4354576Y6548729D01*
X4353864Y6555028D01*
X4351985Y6560515D01*
X4348886Y6565392D01*
X4344822Y6569506D01*
X4339894Y6572554D01*
X4334459Y6574485D01*
X4328109Y6575196D01*
X4256379Y6575196D01*
G37*
G36*
X5018379Y6477000D02*
G01*
X5115763Y6477000D01*
X5115661Y6478473D01*
X5112969Y6492392D01*
X5108448Y6505905D01*
X5102301Y6518706D01*
X5094579Y6530594D01*
X5085334Y6541414D01*
X5074818Y6550964D01*
X5063185Y6559092D01*
X5050586Y6565696D01*
X5037226Y6570573D01*
X5023408Y6573774D01*
X5018379Y6574231D01*
G37*
G36*
X5814466Y495300D02*
G01*
X5886196Y495300D01*
X5892546Y496011D01*
X5897981Y497890D01*
X5902909Y500989D01*
X5906973Y505104D01*
X5910072Y509981D01*
X5912002Y515467D01*
X5912713Y521766D01*
X5912713Y593496D01*
X5814466Y593496D01*
G37*
G36*
X4387748Y6477000D02*
G01*
X4484979Y6477000D01*
X4484979Y6574332D01*
X4472990Y6572402D01*
X4459376Y6568338D01*
X4446422Y6562598D01*
X4434230Y6555231D01*
X4423156Y6546392D01*
X4413250Y6536181D01*
X4404766Y6524802D01*
X4397806Y6512407D01*
X4392472Y6499250D01*
X4388866Y6485483D01*
G37*
G36*
X5018379Y6354318D02*
G01*
X5023408Y6354826D01*
X5037226Y6357975D01*
X5050586Y6362903D01*
X5063185Y6369456D01*
X5074818Y6377584D01*
X5085334Y6387134D01*
X5094579Y6397955D01*
X5102301Y6409893D01*
X5108448Y6422694D01*
X5112969Y6436156D01*
X5115661Y6450126D01*
X5115763Y6451600D01*
X5018379Y6451600D01*
G37*
G36*
X4992979Y6354267D02*
G01*
X4992979Y6451600D01*
X4895748Y6451600D01*
X4896866Y6443065D01*
X4900472Y6429349D01*
X4905806Y6416192D01*
X4912766Y6403797D01*
X4921250Y6392418D01*
X4931156Y6382207D01*
X4942230Y6373317D01*
X4954422Y6365951D01*
X4967376Y6360210D01*
X4980990Y6356197D01*
G37*
G36*
X4484979Y6354267D02*
G01*
X4484979Y6451600D01*
X4387748Y6451600D01*
X4388866Y6443065D01*
X4392472Y6429349D01*
X4397806Y6416192D01*
X4404766Y6403797D01*
X4413250Y6392418D01*
X4423156Y6382207D01*
X4434230Y6373317D01*
X4446422Y6365951D01*
X4459376Y6360210D01*
X4472990Y6356197D01*
G37*
G36*
X4256379Y6353403D02*
G01*
X4328109Y6353403D01*
X4334459Y6354114D01*
X4339894Y6355994D01*
X4344822Y6359093D01*
X4348886Y6363157D01*
X4351985Y6368084D01*
X4353864Y6373520D01*
X4354576Y6379870D01*
X4354576Y6451600D01*
X4256379Y6451600D01*
G37*
G36*
X4826000Y6028690D02*
G01*
X4879187Y6028690D01*
X4879187Y6055410D01*
X4878476Y6061760D01*
X4876596Y6067196D01*
X4873498Y6072124D01*
X4869434Y6076188D01*
X4864506Y6079286D01*
X4859070Y6081166D01*
X4852720Y6081877D01*
X4826000Y6081877D01*
G37*
G36*
X4747412Y6028690D02*
G01*
X4800600Y6028690D01*
X4800600Y6081877D01*
X4773879Y6081877D01*
X4767529Y6081166D01*
X4762093Y6079286D01*
X4757166Y6076188D01*
X4753102Y6072124D01*
X4750003Y6067196D01*
X4748123Y6061760D01*
X4747412Y6055410D01*
G37*
G36*
X4318000Y3841902D02*
G01*
X4376216Y3841902D01*
X4376216Y3868623D01*
X4375505Y3874922D01*
X4373575Y3880408D01*
X4370527Y3885285D01*
X4366412Y3889400D01*
X4361535Y3892499D01*
X4356049Y3894378D01*
X4349750Y3895090D01*
X4318000Y3895090D01*
G37*
G36*
X5537200Y3841902D02*
G01*
X5595416Y3841902D01*
X5595416Y3868623D01*
X5594705Y3874922D01*
X5592775Y3880408D01*
X5589727Y3885285D01*
X5585612Y3889400D01*
X5580735Y3892499D01*
X5575249Y3894378D01*
X5568950Y3895090D01*
X5537200Y3895090D01*
G37*
G36*
X5453583Y3841902D02*
G01*
X5511800Y3841902D01*
X5511800Y3895090D01*
X5480050Y3895090D01*
X5473750Y3894378D01*
X5468264Y3892499D01*
X5463387Y3889400D01*
X5459272Y3885285D01*
X5456224Y3880408D01*
X5454294Y3874922D01*
X5453583Y3868623D01*
G37*
G36*
X4234383Y3841902D02*
G01*
X4292600Y3841902D01*
X4292600Y3895090D01*
X4260850Y3895090D01*
X4254550Y3894378D01*
X4249064Y3892499D01*
X4244187Y3889400D01*
X4240072Y3885285D01*
X4237024Y3880408D01*
X4235094Y3874922D01*
X4234383Y3868623D01*
G37*
G36*
X4978400Y3908348D02*
G01*
X4988102Y3909161D01*
X4997551Y3911701D01*
X5006390Y3915816D01*
X5014366Y3921404D01*
X5021275Y3928313D01*
X5026863Y3936339D01*
X5030978Y3945178D01*
X5032095Y3949242D01*
X5034127Y3953154D01*
X5037582Y3955796D01*
X5041900Y3956761D01*
X5046218Y3955796D01*
X5049672Y3953154D01*
X5051704Y3949242D01*
X5052822Y3945178D01*
X5056936Y3936339D01*
X5062524Y3928313D01*
X5069433Y3921404D01*
X5077409Y3915816D01*
X5086248Y3911701D01*
X5092700Y3909974D01*
X5092700Y4020058D01*
X5044592Y4020058D01*
X5040680Y4020820D01*
X5037378Y4023004D01*
X5035194Y4026306D01*
X5034432Y4030218D01*
X5034432Y4035298D01*
X5035194Y4039158D01*
X5037378Y4042460D01*
X5040680Y4044696D01*
X5044592Y4045458D01*
X5092700Y4045458D01*
X5092700Y4155541D01*
X5086248Y4153814D01*
X5077409Y4149648D01*
X5069433Y4144060D01*
X5062524Y4137151D01*
X5056936Y4129176D01*
X5052822Y4120337D01*
X5051704Y4116273D01*
X5049672Y4112361D01*
X5046218Y4109669D01*
X5041900Y4108754D01*
X5037582Y4109669D01*
X5034127Y4112361D01*
X5032095Y4116273D01*
X5030978Y4120337D01*
X5026863Y4129176D01*
X5021275Y4137151D01*
X5014366Y4144060D01*
X5006390Y4149648D01*
X4997551Y4153814D01*
X4988102Y4156303D01*
X4978400Y4157167D01*
X4968697Y4156303D01*
X4959248Y4153814D01*
X4950409Y4149648D01*
X4942433Y4144060D01*
X4935524Y4137151D01*
X4929936Y4129176D01*
X4925822Y4120337D01*
X4924704Y4116273D01*
X4922672Y4112361D01*
X4919218Y4109669D01*
X4914900Y4108754D01*
X4910582Y4109669D01*
X4907127Y4112361D01*
X4905095Y4116273D01*
X4903978Y4120337D01*
X4899863Y4129176D01*
X4894275Y4137151D01*
X4887366Y4144060D01*
X4879390Y4149648D01*
X4870551Y4153814D01*
X4864100Y4155541D01*
X4864100Y4045458D01*
X4912207Y4045458D01*
X4916119Y4044696D01*
X4919421Y4042460D01*
X4921605Y4039158D01*
X4922367Y4035298D01*
X4922367Y4030218D01*
X4921605Y4026306D01*
X4919421Y4023004D01*
X4916119Y4020820D01*
X4912207Y4020058D01*
X4864100Y4020058D01*
X4864100Y3909974D01*
X4870551Y3911701D01*
X4879390Y3915816D01*
X4887366Y3921404D01*
X4894275Y3928313D01*
X4899863Y3936339D01*
X4903978Y3945178D01*
X4905095Y3949242D01*
X4907127Y3953154D01*
X4910582Y3955796D01*
X4914900Y3956761D01*
X4919218Y3955796D01*
X4922672Y3953154D01*
X4924704Y3949242D01*
X4925822Y3945178D01*
X4929936Y3936339D01*
X4935524Y3928313D01*
X4942433Y3921404D01*
X4950409Y3915816D01*
X4959248Y3911701D01*
X4968697Y3909161D01*
G37*
G36*
X4724400Y3908348D02*
G01*
X4734102Y3909161D01*
X4743551Y3911701D01*
X4752390Y3915816D01*
X4760366Y3921404D01*
X4767275Y3928313D01*
X4772863Y3936339D01*
X4776978Y3945178D01*
X4778095Y3949242D01*
X4780127Y3953154D01*
X4783582Y3955796D01*
X4787900Y3956761D01*
X4792218Y3955796D01*
X4795672Y3953154D01*
X4797704Y3949242D01*
X4798822Y3945178D01*
X4802936Y3936339D01*
X4808524Y3928313D01*
X4815433Y3921404D01*
X4823409Y3915816D01*
X4832248Y3911701D01*
X4838700Y3909974D01*
X4838700Y4020058D01*
X4790592Y4020058D01*
X4786680Y4020820D01*
X4783378Y4023004D01*
X4781194Y4026306D01*
X4780432Y4030218D01*
X4780432Y4035298D01*
X4781194Y4039158D01*
X4783378Y4042460D01*
X4786680Y4044696D01*
X4790592Y4045458D01*
X4838700Y4045458D01*
X4838700Y4155541D01*
X4832248Y4153814D01*
X4823409Y4149648D01*
X4815433Y4144060D01*
X4808524Y4137151D01*
X4802936Y4129176D01*
X4798822Y4120337D01*
X4797704Y4116273D01*
X4795672Y4112361D01*
X4792218Y4109669D01*
X4787900Y4108754D01*
X4783582Y4109669D01*
X4780127Y4112361D01*
X4778095Y4116273D01*
X4776978Y4120337D01*
X4772863Y4129176D01*
X4767275Y4137151D01*
X4760366Y4144060D01*
X4752390Y4149648D01*
X4743551Y4153814D01*
X4734102Y4156303D01*
X4724400Y4157167D01*
X4714697Y4156303D01*
X4705248Y4153814D01*
X4696409Y4149648D01*
X4688433Y4144060D01*
X4681524Y4137151D01*
X4675936Y4129176D01*
X4671822Y4120337D01*
X4670704Y4116273D01*
X4668672Y4112361D01*
X4665218Y4109669D01*
X4660900Y4108754D01*
X4656582Y4109669D01*
X4653127Y4112361D01*
X4651095Y4116273D01*
X4649978Y4120337D01*
X4645863Y4129176D01*
X4640275Y4137151D01*
X4633366Y4144060D01*
X4625390Y4149648D01*
X4616551Y4153814D01*
X4610100Y4155541D01*
X4610100Y4045458D01*
X4658207Y4045458D01*
X4662119Y4044696D01*
X4665421Y4042460D01*
X4667605Y4039158D01*
X4668367Y4035298D01*
X4668367Y4030218D01*
X4667605Y4026306D01*
X4665421Y4023004D01*
X4662119Y4020820D01*
X4658207Y4020058D01*
X4610100Y4020058D01*
X4610100Y3909974D01*
X4616551Y3911701D01*
X4625390Y3915816D01*
X4633366Y3921404D01*
X4640275Y3928313D01*
X4645863Y3936339D01*
X4649978Y3945178D01*
X4651095Y3949242D01*
X4653127Y3953154D01*
X4656582Y3955796D01*
X4660900Y3956761D01*
X4665218Y3955796D01*
X4668672Y3953154D01*
X4670704Y3949242D01*
X4671822Y3945178D01*
X4675936Y3936339D01*
X4681524Y3928313D01*
X4688433Y3921404D01*
X4696409Y3915816D01*
X4705248Y3911701D01*
X4714697Y3909161D01*
G37*
G36*
X5232400Y3908348D02*
G01*
X5242102Y3909161D01*
X5251551Y3911701D01*
X5260390Y3915816D01*
X5268366Y3921404D01*
X5275275Y3928313D01*
X5280863Y3936339D01*
X5284978Y3945178D01*
X5286095Y3949242D01*
X5288127Y3953154D01*
X5291582Y3955796D01*
X5295900Y3956761D01*
X5300218Y3955796D01*
X5303672Y3953154D01*
X5305704Y3949242D01*
X5306822Y3945178D01*
X5310936Y3936339D01*
X5316524Y3928313D01*
X5323433Y3921404D01*
X5331409Y3915816D01*
X5340248Y3911701D01*
X5349697Y3909161D01*
X5359400Y3908348D01*
X5369102Y3909161D01*
X5378551Y3911701D01*
X5387390Y3915816D01*
X5395366Y3921404D01*
X5402275Y3928313D01*
X5407863Y3936339D01*
X5411978Y3945178D01*
X5414518Y3954576D01*
X5415432Y3964736D01*
X5415432Y4100779D01*
X5414518Y4110939D01*
X5411978Y4120337D01*
X5407863Y4129176D01*
X5402275Y4137151D01*
X5401005Y4138472D01*
X5398770Y4141774D01*
X5398008Y4145635D01*
X5398008Y4844491D01*
X5398770Y4848402D01*
X5401005Y4851704D01*
X5402580Y4853279D01*
X5408218Y4861306D01*
X5412333Y4870246D01*
X5414873Y4879695D01*
X5415737Y4889500D01*
X5414873Y4899304D01*
X5412333Y4908753D01*
X5408218Y4917694D01*
X5402580Y4925720D01*
X5395620Y4932680D01*
X5387594Y4938318D01*
X5378653Y4942433D01*
X5369204Y4944973D01*
X5359400Y4945837D01*
X5349595Y4944973D01*
X5340146Y4942433D01*
X5331206Y4938318D01*
X5323179Y4932680D01*
X5316220Y4925720D01*
X5310581Y4917694D01*
X5306466Y4908753D01*
X5303926Y4899304D01*
X5303062Y4889500D01*
X5303926Y4879695D01*
X5306466Y4870246D01*
X5310581Y4861306D01*
X5316220Y4853279D01*
X5317794Y4851704D01*
X5320030Y4848402D01*
X5320792Y4844491D01*
X5320792Y4145635D01*
X5320030Y4141774D01*
X5317794Y4138472D01*
X5316524Y4137151D01*
X5310936Y4129176D01*
X5306822Y4120337D01*
X5305704Y4116273D01*
X5303672Y4112361D01*
X5300218Y4109669D01*
X5295900Y4108754D01*
X5291582Y4109669D01*
X5288127Y4112361D01*
X5286095Y4116273D01*
X5284978Y4120337D01*
X5280863Y4129176D01*
X5275275Y4137151D01*
X5274005Y4138472D01*
X5271770Y4141774D01*
X5271008Y4145635D01*
X5271008Y4780991D01*
X5271770Y4784902D01*
X5274005Y4788204D01*
X5275580Y4789779D01*
X5281218Y4797806D01*
X5285333Y4806746D01*
X5287873Y4816195D01*
X5288737Y4826000D01*
X5287873Y4835804D01*
X5285333Y4845253D01*
X5281218Y4854194D01*
X5275580Y4862220D01*
X5268620Y4869180D01*
X5260594Y4874818D01*
X5251653Y4878933D01*
X5242204Y4881473D01*
X5232400Y4882337D01*
X5222595Y4881473D01*
X5213146Y4878933D01*
X5204206Y4874818D01*
X5196179Y4869180D01*
X5189220Y4862220D01*
X5183581Y4854194D01*
X5179466Y4845253D01*
X5176926Y4835804D01*
X5176062Y4826000D01*
X5176926Y4816195D01*
X5179466Y4806746D01*
X5183581Y4797806D01*
X5189220Y4789779D01*
X5190794Y4788204D01*
X5193030Y4784902D01*
X5193792Y4780991D01*
X5193792Y4145635D01*
X5193030Y4141774D01*
X5190794Y4138472D01*
X5189524Y4137151D01*
X5183936Y4129176D01*
X5179822Y4120337D01*
X5178704Y4116273D01*
X5176672Y4112361D01*
X5173218Y4109669D01*
X5168900Y4108754D01*
X5164582Y4109669D01*
X5161127Y4112361D01*
X5159095Y4116273D01*
X5157978Y4120337D01*
X5153863Y4129176D01*
X5148275Y4137151D01*
X5141366Y4144060D01*
X5133390Y4149648D01*
X5124551Y4153814D01*
X5118100Y4155541D01*
X5118100Y4045458D01*
X5166207Y4045458D01*
X5170119Y4044696D01*
X5173421Y4042460D01*
X5175605Y4039158D01*
X5176367Y4035298D01*
X5176367Y4030218D01*
X5175605Y4026306D01*
X5173421Y4023004D01*
X5170119Y4020820D01*
X5166207Y4020058D01*
X5118100Y4020058D01*
X5118100Y3909974D01*
X5124551Y3911701D01*
X5133390Y3915816D01*
X5141366Y3921404D01*
X5148275Y3928313D01*
X5153863Y3936339D01*
X5157978Y3945178D01*
X5159095Y3949242D01*
X5161127Y3953154D01*
X5164582Y3955796D01*
X5168900Y3956761D01*
X5173218Y3955796D01*
X5176672Y3953154D01*
X5178704Y3949242D01*
X5179822Y3945178D01*
X5183936Y3936339D01*
X5189524Y3928313D01*
X5196433Y3921404D01*
X5204409Y3915816D01*
X5213248Y3911701D01*
X5222697Y3909161D01*
G37*
G36*
X4773879Y5950102D02*
G01*
X4800600Y5950102D01*
X4800600Y6003290D01*
X4747412Y6003290D01*
X4747412Y5976569D01*
X4748123Y5970219D01*
X4750003Y5964783D01*
X4753102Y5959856D01*
X4757166Y5955792D01*
X4762093Y5952693D01*
X4767529Y5950813D01*
G37*
G36*
X4470400Y3908348D02*
G01*
X4480102Y3909161D01*
X4489551Y3911701D01*
X4498390Y3915816D01*
X4506366Y3921404D01*
X4513275Y3928313D01*
X4518863Y3936339D01*
X4522978Y3945178D01*
X4524095Y3949242D01*
X4526127Y3953154D01*
X4529582Y3955796D01*
X4533900Y3956761D01*
X4538218Y3955796D01*
X4541672Y3953154D01*
X4543704Y3949242D01*
X4544822Y3945178D01*
X4548936Y3936339D01*
X4554524Y3928313D01*
X4561433Y3921404D01*
X4569409Y3915816D01*
X4578248Y3911701D01*
X4584700Y3909974D01*
X4584700Y4020058D01*
X4536592Y4020058D01*
X4532680Y4020820D01*
X4529378Y4023004D01*
X4527194Y4026306D01*
X4526432Y4030218D01*
X4526432Y4035298D01*
X4527194Y4039158D01*
X4529378Y4042460D01*
X4532680Y4044696D01*
X4536592Y4045458D01*
X4584700Y4045458D01*
X4584700Y4155541D01*
X4578248Y4153814D01*
X4569409Y4149648D01*
X4561433Y4144060D01*
X4554524Y4137151D01*
X4548936Y4129176D01*
X4544822Y4120337D01*
X4543704Y4116273D01*
X4541672Y4112361D01*
X4538218Y4109669D01*
X4533900Y4108754D01*
X4529582Y4109669D01*
X4526127Y4112361D01*
X4524095Y4116273D01*
X4522978Y4120337D01*
X4518863Y4129176D01*
X4513275Y4137151D01*
X4512005Y4138472D01*
X4509770Y4141774D01*
X4509008Y4145635D01*
X4509008Y4214876D01*
X4509617Y4218279D01*
X4511294Y4221276D01*
X4513935Y4223562D01*
X4520387Y4227474D01*
X4524400Y4231487D01*
X4527499Y4236364D01*
X4529378Y4241850D01*
X4530090Y4248150D01*
X4530090Y4337050D01*
X4529378Y4343349D01*
X4527499Y4348835D01*
X4524400Y4353712D01*
X4520285Y4357827D01*
X4515408Y4360875D01*
X4509617Y4362907D01*
X4506061Y4365040D01*
X4503674Y4368444D01*
X4502810Y4372508D01*
X4502810Y5593791D01*
X4503572Y5597702D01*
X4505807Y5601004D01*
X4507382Y5602579D01*
X4513021Y5610606D01*
X4517136Y5619546D01*
X4519676Y5628995D01*
X4520539Y5638800D01*
X4519676Y5648604D01*
X4517136Y5658053D01*
X4513021Y5666994D01*
X4507382Y5675020D01*
X4500422Y5681980D01*
X4492396Y5687618D01*
X4483455Y5691733D01*
X4474006Y5694273D01*
X4464202Y5695137D01*
X4454398Y5694273D01*
X4444949Y5691733D01*
X4436008Y5687618D01*
X4427982Y5681980D01*
X4421022Y5675020D01*
X4415383Y5666994D01*
X4411268Y5658053D01*
X4408728Y5648604D01*
X4407865Y5638800D01*
X4408728Y5628995D01*
X4411268Y5619546D01*
X4415383Y5610606D01*
X4421022Y5602579D01*
X4422597Y5601004D01*
X4424832Y5597702D01*
X4425594Y5593791D01*
X4425594Y4372508D01*
X4424730Y4368444D01*
X4422343Y4365040D01*
X4418787Y4362907D01*
X4412996Y4360875D01*
X4408068Y4357827D01*
X4404004Y4353712D01*
X4402785Y4351832D01*
X4399991Y4348886D01*
X4396232Y4347260D01*
X4392168Y4347260D01*
X4388408Y4348886D01*
X4385614Y4351832D01*
X4384395Y4353712D01*
X4380331Y4357827D01*
X4375404Y4360875D01*
X4369968Y4362805D01*
X4363618Y4363516D01*
X4336897Y4363516D01*
X4336897Y4305300D01*
X4388104Y4305300D01*
X4392015Y4304538D01*
X4395317Y4302302D01*
X4397502Y4299051D01*
X4398264Y4295140D01*
X4398264Y4290060D01*
X4397502Y4286148D01*
X4395317Y4282897D01*
X4392015Y4280662D01*
X4388104Y4279900D01*
X4336897Y4279900D01*
X4336897Y4221683D01*
X4363618Y4221683D01*
X4369968Y4222394D01*
X4375404Y4224324D01*
X4380331Y4227372D01*
X4384395Y4231487D01*
X4385614Y4233367D01*
X4388408Y4236313D01*
X4392168Y4237939D01*
X4396232Y4237939D01*
X4399991Y4236313D01*
X4402785Y4233367D01*
X4404004Y4231487D01*
X4408068Y4227372D01*
X4412996Y4224324D01*
X4418431Y4222394D01*
X4422749Y4221937D01*
X4426305Y4220870D01*
X4429201Y4218584D01*
X4431131Y4215434D01*
X4431792Y4211828D01*
X4431792Y4145635D01*
X4431030Y4141774D01*
X4428794Y4138472D01*
X4427524Y4137151D01*
X4421936Y4129176D01*
X4417822Y4120337D01*
X4415282Y4110939D01*
X4414367Y4100779D01*
X4414367Y3964736D01*
X4415282Y3954576D01*
X4417822Y3945178D01*
X4421936Y3936339D01*
X4427524Y3928313D01*
X4434433Y3921404D01*
X4442409Y3915816D01*
X4451248Y3911701D01*
X4460697Y3909161D01*
G37*
G36*
X4826000Y5950102D02*
G01*
X4852720Y5950102D01*
X4859070Y5950813D01*
X4864506Y5952693D01*
X4869434Y5955792D01*
X4873498Y5959856D01*
X4876596Y5964783D01*
X4878476Y5970219D01*
X4879187Y5976569D01*
X4879187Y6003290D01*
X4826000Y6003290D01*
G37*
G36*
X6096000Y5582462D02*
G01*
X6105804Y5583326D01*
X6115253Y5585866D01*
X6124194Y5589981D01*
X6132220Y5595620D01*
X6139180Y5602579D01*
X6144818Y5610606D01*
X6148933Y5619546D01*
X6151473Y5628995D01*
X6152337Y5638800D01*
X6151473Y5648604D01*
X6148933Y5658053D01*
X6147866Y5660390D01*
X6146901Y5664708D01*
X6146901Y5779973D01*
X6147663Y5783884D01*
X6149898Y5787186D01*
X6153200Y5789371D01*
X6157061Y5790133D01*
X6225032Y5790133D01*
X6231331Y5790844D01*
X6236817Y5792774D01*
X6241694Y5795822D01*
X6245809Y5799937D01*
X6248908Y5804814D01*
X6250787Y5810300D01*
X6251498Y5816600D01*
X6251498Y6036208D01*
X6250787Y6042558D01*
X6248908Y6047994D01*
X6245809Y6052921D01*
X6241694Y6056985D01*
X6236817Y6060084D01*
X6231331Y6062014D01*
X6225032Y6062726D01*
X6157061Y6062726D01*
X6153200Y6063488D01*
X6149898Y6065672D01*
X6147663Y6068974D01*
X6146901Y6072886D01*
X6146901Y7733792D01*
X6147866Y7738109D01*
X6148933Y7740446D01*
X6151473Y7749895D01*
X6152337Y7759700D01*
X6151473Y7769504D01*
X6148933Y7778953D01*
X6147866Y7781290D01*
X6146901Y7785608D01*
X6146901Y8686292D01*
X6147866Y8690610D01*
X6148933Y8692946D01*
X6151473Y8702395D01*
X6152337Y8712200D01*
X6151473Y8722004D01*
X6148933Y8731453D01*
X6144818Y8740394D01*
X6139180Y8748420D01*
X6132220Y8755380D01*
X6124194Y8761018D01*
X6115253Y8765133D01*
X6105804Y8767673D01*
X6096000Y8768537D01*
X6086195Y8767673D01*
X6076746Y8765133D01*
X6067806Y8761018D01*
X6059779Y8755380D01*
X6052820Y8748420D01*
X6047181Y8740394D01*
X6043066Y8731453D01*
X6040526Y8722004D01*
X6039662Y8712200D01*
X6040526Y8702395D01*
X6043066Y8692946D01*
X6044133Y8690610D01*
X6045098Y8686292D01*
X6045098Y7785608D01*
X6044133Y7781290D01*
X6043066Y7778953D01*
X6040526Y7769504D01*
X6039662Y7759700D01*
X6040526Y7749895D01*
X6043066Y7740446D01*
X6044133Y7738109D01*
X6045098Y7733792D01*
X6045098Y6072886D01*
X6044336Y6068974D01*
X6042101Y6065672D01*
X6038799Y6063488D01*
X6034938Y6062726D01*
X5966968Y6062726D01*
X5960668Y6062014D01*
X5955182Y6060084D01*
X5950305Y6056985D01*
X5946190Y6052921D01*
X5943092Y6047994D01*
X5941212Y6042558D01*
X5940501Y6036208D01*
X5940501Y5816600D01*
X5941212Y5810300D01*
X5943092Y5804814D01*
X5946190Y5799937D01*
X5950305Y5795822D01*
X5955182Y5792774D01*
X5960668Y5790844D01*
X5966968Y5790133D01*
X6034938Y5790133D01*
X6038799Y5789371D01*
X6042101Y5787186D01*
X6044336Y5783884D01*
X6045098Y5779973D01*
X6045098Y5664708D01*
X6044133Y5660390D01*
X6043066Y5658053D01*
X6040526Y5648604D01*
X6039662Y5638800D01*
X6040526Y5628995D01*
X6043066Y5619546D01*
X6047181Y5610606D01*
X6052820Y5602579D01*
X6059779Y5595620D01*
X6067806Y5589981D01*
X6076746Y5585866D01*
X6086195Y5583326D01*
G37*
G36*
X5142077Y5365750D02*
G01*
X5207812Y5365750D01*
X5207812Y5475732D01*
X5207101Y5482031D01*
X5205171Y5487517D01*
X5202123Y5492394D01*
X5198008Y5496509D01*
X5193131Y5499608D01*
X5187645Y5501487D01*
X5181346Y5502198D01*
X5142077Y5502198D01*
G37*
G36*
X5050993Y5365750D02*
G01*
X5116677Y5365750D01*
X5116677Y5502198D01*
X5077460Y5502198D01*
X5071160Y5501487D01*
X5065674Y5499608D01*
X5060797Y5496509D01*
X5056682Y5492394D01*
X5053634Y5487517D01*
X5051704Y5482031D01*
X5050993Y5475732D01*
G37*
G36*
X5940501Y5236870D02*
G01*
X6083300Y5236870D01*
X6083300Y5360466D01*
X5966968Y5360466D01*
X5960668Y5359755D01*
X5955182Y5357825D01*
X5950305Y5354777D01*
X5946190Y5350662D01*
X5943092Y5345785D01*
X5941212Y5340299D01*
X5940501Y5334000D01*
G37*
G36*
X6108700Y5236870D02*
G01*
X6251498Y5236870D01*
X6251498Y5334000D01*
X6250787Y5340299D01*
X6248908Y5345785D01*
X6245809Y5350662D01*
X6241694Y5354777D01*
X6236817Y5357825D01*
X6231331Y5359755D01*
X6225032Y5360466D01*
X6108700Y5360466D01*
G37*
G36*
X5307482Y5203901D02*
G01*
X5411317Y5203901D01*
X5417667Y5204612D01*
X5423103Y5206492D01*
X5428030Y5209590D01*
X5432094Y5213705D01*
X5435193Y5218582D01*
X5437073Y5224068D01*
X5437784Y5230368D01*
X5437784Y5475732D01*
X5437073Y5482031D01*
X5435193Y5487517D01*
X5432094Y5492394D01*
X5428030Y5496509D01*
X5423103Y5499608D01*
X5417108Y5501690D01*
X5413552Y5503824D01*
X5411165Y5507228D01*
X5410301Y5511292D01*
X5410301Y5612892D01*
X5411266Y5617210D01*
X5412333Y5619546D01*
X5414873Y5628995D01*
X5415737Y5638800D01*
X5414873Y5648604D01*
X5412333Y5658053D01*
X5408218Y5666994D01*
X5402580Y5675020D01*
X5395620Y5681980D01*
X5387594Y5687618D01*
X5378653Y5691733D01*
X5369204Y5694273D01*
X5359400Y5695137D01*
X5349595Y5694273D01*
X5340146Y5691733D01*
X5331206Y5687618D01*
X5323179Y5681980D01*
X5316220Y5675020D01*
X5310581Y5666994D01*
X5306466Y5658053D01*
X5303926Y5648604D01*
X5303062Y5638800D01*
X5303926Y5628995D01*
X5306466Y5619546D01*
X5307533Y5617210D01*
X5308498Y5612892D01*
X5308498Y5511292D01*
X5307634Y5507228D01*
X5305247Y5503824D01*
X5301691Y5501690D01*
X5295696Y5499608D01*
X5290769Y5496509D01*
X5286705Y5492394D01*
X5283606Y5487517D01*
X5281726Y5482031D01*
X5281015Y5475732D01*
X5281015Y5230368D01*
X5281726Y5224068D01*
X5283606Y5218582D01*
X5286705Y5213705D01*
X5290769Y5209590D01*
X5295696Y5206492D01*
X5301132Y5204612D01*
G37*
G36*
X5142077Y5203901D02*
G01*
X5181346Y5203901D01*
X5187645Y5204612D01*
X5193131Y5206492D01*
X5198008Y5209590D01*
X5202123Y5213705D01*
X5205171Y5218582D01*
X5207101Y5224068D01*
X5207812Y5230368D01*
X5207812Y5340350D01*
X5142077Y5340350D01*
G37*
G36*
X5077460Y5203901D02*
G01*
X5116677Y5203901D01*
X5116677Y5340350D01*
X5050993Y5340350D01*
X5050993Y5230368D01*
X5051704Y5224068D01*
X5053634Y5218582D01*
X5056682Y5213705D01*
X5060797Y5209590D01*
X5065674Y5206492D01*
X5071160Y5204612D01*
G37*
G36*
X6108700Y5087874D02*
G01*
X6225032Y5087874D01*
X6231331Y5088585D01*
X6236817Y5090515D01*
X6241694Y5093614D01*
X6245809Y5097678D01*
X6248908Y5102606D01*
X6250787Y5108041D01*
X6251498Y5114391D01*
X6251498Y5211470D01*
X6108700Y5211470D01*
G37*
G36*
X5966968Y5087874D02*
G01*
X6083300Y5087874D01*
X6083300Y5211470D01*
X5940501Y5211470D01*
X5940501Y5114391D01*
X5941212Y5108041D01*
X5943092Y5102606D01*
X5946190Y5097678D01*
X5950305Y5093614D01*
X5955182Y5090515D01*
X5960668Y5088585D01*
G37*
G36*
X6259931Y4449876D02*
G01*
X6275070Y4450791D01*
X6290056Y4453534D01*
X6304534Y4458055D01*
X6318402Y4464304D01*
X6331407Y4472178D01*
X6343396Y4481576D01*
X6354114Y4492294D01*
X6363512Y4504283D01*
X6371386Y4517288D01*
X6377635Y4531156D01*
X6382156Y4545634D01*
X6384899Y4560620D01*
X6385814Y4575759D01*
X6384899Y4590948D01*
X6382156Y4605934D01*
X6377635Y4620412D01*
X6371386Y4634280D01*
X6363512Y4647285D01*
X6354114Y4659274D01*
X6343396Y4669993D01*
X6331407Y4679391D01*
X6318402Y4687265D01*
X6304534Y4693513D01*
X6290056Y4698034D01*
X6275070Y4700778D01*
X6259931Y4701692D01*
X6244742Y4700778D01*
X6229756Y4698034D01*
X6215278Y4693513D01*
X6201410Y4687265D01*
X6188405Y4679391D01*
X6176416Y4669993D01*
X6165697Y4659274D01*
X6156299Y4647285D01*
X6148425Y4634280D01*
X6142177Y4620412D01*
X6137656Y4605934D01*
X6134912Y4590948D01*
X6133998Y4575759D01*
X6134912Y4560620D01*
X6137656Y4545634D01*
X6142177Y4531156D01*
X6148425Y4517288D01*
X6156299Y4504283D01*
X6165697Y4492294D01*
X6176416Y4481576D01*
X6188405Y4472178D01*
X6201410Y4464304D01*
X6215278Y4458055D01*
X6229756Y4453534D01*
X6244742Y4450791D01*
G37*
G36*
X3544925Y4449876D02*
G01*
X3560064Y4450791D01*
X3575050Y4453534D01*
X3589528Y4458055D01*
X3603396Y4464304D01*
X3616401Y4472178D01*
X3628390Y4481576D01*
X3639108Y4492294D01*
X3648506Y4504283D01*
X3656380Y4517288D01*
X3662629Y4531156D01*
X3667150Y4545634D01*
X3669893Y4560620D01*
X3670808Y4575759D01*
X3669893Y4590948D01*
X3667150Y4605934D01*
X3662629Y4620412D01*
X3656380Y4634280D01*
X3648506Y4647285D01*
X3639108Y4659274D01*
X3628390Y4669993D01*
X3616401Y4679391D01*
X3603396Y4687265D01*
X3589528Y4693513D01*
X3575050Y4698034D01*
X3560064Y4700778D01*
X3544925Y4701692D01*
X3529736Y4700778D01*
X3514750Y4698034D01*
X3500272Y4693513D01*
X3486404Y4687265D01*
X3473399Y4679391D01*
X3461410Y4669993D01*
X3450691Y4659274D01*
X3441293Y4647285D01*
X3433419Y4634280D01*
X3427171Y4620412D01*
X3422650Y4605934D01*
X3419906Y4590948D01*
X3418992Y4575759D01*
X3419906Y4560620D01*
X3422650Y4545634D01*
X3427171Y4531156D01*
X3433419Y4517288D01*
X3441293Y4504283D01*
X3450691Y4492294D01*
X3461410Y4481576D01*
X3473399Y4472178D01*
X3486404Y4464304D01*
X3500272Y4458055D01*
X3514750Y4453534D01*
X3529736Y4450791D01*
G37*
G36*
X4258310Y4305300D02*
G01*
X4311497Y4305300D01*
X4311497Y4363516D01*
X4284776Y4363516D01*
X4278477Y4362805D01*
X4272991Y4360875D01*
X4268114Y4357827D01*
X4263999Y4353712D01*
X4260900Y4348835D01*
X4259021Y4343349D01*
X4258310Y4337050D01*
G37*
G36*
X4284776Y4221683D02*
G01*
X4311497Y4221683D01*
X4311497Y4279900D01*
X4258310Y4279900D01*
X4258310Y4248150D01*
X4259021Y4241850D01*
X4260900Y4236364D01*
X4263999Y4231487D01*
X4268114Y4227372D01*
X4272991Y4224324D01*
X4278477Y4222394D01*
G37*

%LPD*%
G36*
X5704078Y8350656D02*
G01*
X5700166Y8351520D01*
X5696864Y8353856D01*
X5691682Y8362238D01*
X5687618Y8366302D01*
X5682691Y8369401D01*
X5677255Y8371281D01*
X5670905Y8371992D01*
X5618886Y8371992D01*
X5612536Y8371281D01*
X5607100Y8369401D01*
X5602782Y8366709D01*
X5599277Y8365337D01*
X5595518Y8365337D01*
X5592013Y8366709D01*
X5587695Y8369401D01*
X5586069Y8369960D01*
X5582310Y8372297D01*
X5579922Y8376005D01*
X5579313Y8380374D01*
X5580634Y8384590D01*
X5583580Y8387892D01*
X5586120Y8389620D01*
X5593080Y8396579D01*
X5598718Y8404606D01*
X5602833Y8413546D01*
X5605373Y8422995D01*
X5606338Y8433714D01*
X5607456Y8437575D01*
X5609996Y8440724D01*
X5613552Y8442604D01*
X5618886Y8442807D01*
X5670905Y8442807D01*
X5677255Y8443518D01*
X5682691Y8445398D01*
X5687618Y8448497D01*
X5691682Y8452561D01*
X5696864Y8460943D01*
X5700166Y8463280D01*
X5704078Y8464143D01*
X5708040Y8463483D01*
X5711444Y8461298D01*
X5713679Y8457946D01*
X5714492Y8453983D01*
X5714492Y8360816D01*
X5713679Y8356853D01*
X5711444Y8353501D01*
X5708040Y8351316D01*
G37*

%LPD*%
G36*
X4234230Y8081822D02*
G01*
X4230166Y8082432D01*
X4226661Y8084616D01*
X4224324Y8087969D01*
X4223512Y8091982D01*
X4223512Y8208924D01*
X4224426Y8213090D01*
X4226966Y8216544D01*
X4230725Y8218627D01*
X4235043Y8218982D01*
X4239056Y8217509D01*
X4242104Y8215630D01*
X4247540Y8213699D01*
X4253890Y8212988D01*
X4267200Y8212988D01*
X4267200Y8279790D01*
X4247591Y8279790D01*
X4243679Y8280552D01*
X4240377Y8282787D01*
X4238193Y8286089D01*
X4237431Y8289950D01*
X4237431Y8295030D01*
X4238193Y8298942D01*
X4240377Y8302244D01*
X4243679Y8304428D01*
X4247591Y8305190D01*
X4267200Y8305190D01*
X4267200Y8366455D01*
X4267962Y8370366D01*
X4270197Y8373668D01*
X4273448Y8375853D01*
X4277360Y8376615D01*
X4282440Y8376615D01*
X4286351Y8375853D01*
X4289602Y8373668D01*
X4291838Y8370366D01*
X4292600Y8366455D01*
X4292600Y8305190D01*
X4312208Y8305190D01*
X4316120Y8304428D01*
X4319422Y8302244D01*
X4321606Y8298942D01*
X4322368Y8295030D01*
X4322368Y8289950D01*
X4321606Y8286089D01*
X4319422Y8282787D01*
X4316120Y8280552D01*
X4312208Y8279790D01*
X4292600Y8279790D01*
X4292600Y8212988D01*
X4305909Y8212988D01*
X4312259Y8213699D01*
X4317695Y8215630D01*
X4320743Y8217509D01*
X4324756Y8218982D01*
X4329074Y8218627D01*
X4332833Y8216544D01*
X4335373Y8213090D01*
X4336288Y8208924D01*
X4336288Y8192414D01*
X4335526Y8188502D01*
X4333290Y8185200D01*
X4252976Y8104835D01*
X4247845Y8098637D01*
X4244289Y8091931D01*
X4243374Y8089036D01*
X4241444Y8085429D01*
X4238193Y8082889D01*
G37*

%LPD*%
G36*
X4635195Y7734452D02*
G01*
X4631283Y7735163D01*
X4627930Y7737348D01*
X4625695Y7740700D01*
X4624933Y7744612D01*
X4624933Y7751521D01*
X4624171Y7757871D01*
X4622292Y7763306D01*
X4619193Y7768234D01*
X4615129Y7772298D01*
X4610201Y7775397D01*
X4604766Y7777327D01*
X4598416Y7778038D01*
X4574794Y7778038D01*
X4571085Y7778699D01*
X4567936Y7780680D01*
X4565650Y7783677D01*
X4564634Y7787284D01*
X4563973Y7794904D01*
X4561433Y7804353D01*
X4560265Y7806944D01*
X4559300Y7811262D01*
X4559300Y7835138D01*
X4560265Y7839456D01*
X4561433Y7842046D01*
X4563973Y7851495D01*
X4564430Y7856372D01*
X4565751Y7860538D01*
X4565751Y7862062D01*
X4564430Y7866227D01*
X4563973Y7871104D01*
X4561433Y7880553D01*
X4560265Y7883144D01*
X4559300Y7887462D01*
X4559300Y7911338D01*
X4560265Y7915656D01*
X4561433Y7918246D01*
X4563973Y7927695D01*
X4564430Y7932572D01*
X4565599Y7936484D01*
X4566462Y7937500D01*
X4565751Y7938262D01*
X4564430Y7942427D01*
X4563973Y7947304D01*
X4561433Y7956753D01*
X4560265Y7959344D01*
X4559300Y7963662D01*
X4559300Y7996681D01*
X4560062Y8000593D01*
X4562297Y8003844D01*
X4565548Y8006080D01*
X4569460Y8006842D01*
X4574540Y8006842D01*
X4578400Y8006080D01*
X4581702Y8003844D01*
X4583938Y8000593D01*
X4584700Y7996681D01*
X4584700Y7943342D01*
X4583734Y7939024D01*
X4582871Y7937500D01*
X4612894Y7937500D01*
X4612894Y7996681D01*
X4613656Y8000593D01*
X4615891Y8003844D01*
X4619193Y8006080D01*
X4623054Y8006842D01*
X4656683Y8006842D01*
X4660544Y8006080D01*
X4663846Y8003844D01*
X4666030Y8000593D01*
X4666843Y7996681D01*
X4666843Y7986369D01*
X4667554Y7980070D01*
X4668774Y7974787D01*
X4667554Y7969554D01*
X4666843Y7963255D01*
X4666843Y7936382D01*
X4667554Y7930032D01*
X4668774Y7924850D01*
X4667554Y7919567D01*
X4666843Y7913268D01*
X4666843Y7886395D01*
X4667554Y7880045D01*
X4668774Y7874812D01*
X4667554Y7869529D01*
X4666843Y7863230D01*
X4666843Y7836357D01*
X4667554Y7830058D01*
X4669434Y7824571D01*
X4672533Y7819694D01*
X4676648Y7815580D01*
X4681524Y7812531D01*
X4687011Y7810601D01*
X4693310Y7809890D01*
X4752086Y7809890D01*
X4759960Y7810855D01*
X4764227Y7810500D01*
X4767935Y7808417D01*
X4770475Y7804962D01*
X4771390Y7800797D01*
X4771390Y7748270D01*
X4770628Y7744409D01*
X4768392Y7741107D01*
X4765090Y7738872D01*
X4761230Y7738109D01*
X4657852Y7738109D01*
X4651552Y7737398D01*
X4644999Y7735112D01*
X4641799Y7734553D01*
G37*

%LPC*%
G36*
X4584700Y7813903D02*
G01*
X4592726Y7814614D01*
X4598212Y7816545D01*
X4603089Y7819593D01*
X4607204Y7823708D01*
X4610303Y7828584D01*
X4612182Y7834071D01*
X4612894Y7840370D01*
X4612894Y7912100D01*
X4584700Y7912100D01*
X4584700Y7867142D01*
X4583734Y7862824D01*
X4582566Y7861300D01*
X4583734Y7859775D01*
X4584700Y7855458D01*
G37*

%LPD*%
G36*
X4945735Y7623098D02*
G01*
X4941824Y7623860D01*
X4938522Y7626096D01*
X4936337Y7629398D01*
X4935575Y7633258D01*
X4936337Y7637170D01*
X4938522Y7640472D01*
X4945380Y7647279D01*
X4951018Y7655306D01*
X4955133Y7664246D01*
X4957673Y7673695D01*
X4958537Y7683500D01*
X4957673Y7693304D01*
X4954930Y7703515D01*
X4954676Y7707223D01*
X4955692Y7710728D01*
X4957978Y7713675D01*
X4961128Y7715605D01*
X4964785Y7716316D01*
X4976723Y7716316D01*
X4983022Y7717028D01*
X4987290Y7717891D01*
X4991557Y7717028D01*
X4997856Y7716316D01*
X5004816Y7716316D01*
X5008727Y7715503D01*
X5011978Y7713319D01*
X5014214Y7710017D01*
X5014976Y7706156D01*
X5014976Y7640574D01*
X5015636Y7634325D01*
X5015179Y7630109D01*
X5013096Y7626451D01*
X5009642Y7624013D01*
X5005527Y7623098D01*
G37*

%LPD*%
G36*
X5695848Y7303668D02*
G01*
X5691936Y7304430D01*
X5684926Y7309510D01*
X5682589Y7311796D01*
X5681116Y7314641D01*
X5680608Y7317841D01*
X5680608Y7327900D01*
X5659882Y7327900D01*
X5655970Y7328662D01*
X5652668Y7330897D01*
X5650484Y7334199D01*
X5649722Y7338059D01*
X5649722Y7343140D01*
X5650484Y7347051D01*
X5652668Y7350302D01*
X5655970Y7352538D01*
X5659882Y7353300D01*
X5680608Y7353300D01*
X5680608Y7393533D01*
X5654344Y7393533D01*
X5649976Y7393025D01*
X5645708Y7393431D01*
X5642000Y7395565D01*
X5639511Y7399070D01*
X5638698Y7403236D01*
X5639612Y7407402D01*
X5640933Y7410246D01*
X5643473Y7419695D01*
X5644337Y7429500D01*
X5643473Y7439304D01*
X5640933Y7448753D01*
X5636818Y7457694D01*
X5627928Y7470038D01*
X5627166Y7473950D01*
X5627928Y7477861D01*
X5636818Y7490206D01*
X5640933Y7499146D01*
X5643473Y7508595D01*
X5644337Y7518400D01*
X5643473Y7528204D01*
X5640933Y7537653D01*
X5636818Y7546594D01*
X5634380Y7549997D01*
X5632805Y7553553D01*
X5632704Y7557414D01*
X5634024Y7561072D01*
X5636615Y7563916D01*
X5640120Y7565644D01*
X5645353Y7567066D01*
X5654294Y7571181D01*
X5662320Y7576820D01*
X5669280Y7583779D01*
X5674918Y7591806D01*
X5679033Y7600746D01*
X5681573Y7610195D01*
X5682284Y7618069D01*
X5683199Y7621473D01*
X5685231Y7624368D01*
X5688126Y7626400D01*
X5691530Y7627315D01*
X5699404Y7628026D01*
X5701690Y7628636D01*
X5705398Y7628940D01*
X5708954Y7627874D01*
X5711901Y7625588D01*
X5713831Y7622438D01*
X5714492Y7618831D01*
X5714492Y7563408D01*
X5713730Y7559497D01*
X5711494Y7556195D01*
X5709920Y7554620D01*
X5704281Y7546594D01*
X5700166Y7537653D01*
X5697626Y7528204D01*
X5696762Y7518400D01*
X5697626Y7508595D01*
X5700166Y7499146D01*
X5704281Y7490206D01*
X5709920Y7482179D01*
X5716879Y7475220D01*
X5724906Y7469581D01*
X5733846Y7465466D01*
X5743295Y7462926D01*
X5753100Y7462062D01*
X5762904Y7462926D01*
X5765190Y7463536D01*
X5768898Y7463840D01*
X5772454Y7462774D01*
X5775401Y7460488D01*
X5777331Y7457338D01*
X5777992Y7453731D01*
X5777992Y7376007D01*
X5777179Y7372045D01*
X5774893Y7368743D01*
X5771489Y7366558D01*
X5767527Y7365847D01*
X5763564Y7366812D01*
X5760313Y7369200D01*
X5758230Y7372654D01*
X5756097Y7378801D01*
X5752998Y7383729D01*
X5748934Y7387793D01*
X5744006Y7390892D01*
X5738571Y7392822D01*
X5732221Y7393533D01*
X5706008Y7393533D01*
X5706008Y7353300D01*
X5767832Y7353300D01*
X5771743Y7352538D01*
X5774994Y7350302D01*
X5777230Y7347051D01*
X5777992Y7343140D01*
X5777992Y7338059D01*
X5777230Y7334199D01*
X5774994Y7330897D01*
X5771743Y7328662D01*
X5767832Y7327900D01*
X5706008Y7327900D01*
X5706008Y7313828D01*
X5705246Y7309916D01*
X5703011Y7306614D01*
X5699709Y7304430D01*
G37*

%LPD*%
G36*
X4280306Y7169658D02*
G01*
X4276394Y7170420D01*
X4273092Y7172655D01*
X4265269Y7180580D01*
X4257243Y7186218D01*
X4254550Y7189012D01*
X4253077Y7192619D01*
X4253077Y7196480D01*
X4254550Y7200087D01*
X4257243Y7202881D01*
X4265320Y7208520D01*
X4272280Y7215479D01*
X4277918Y7223506D01*
X4282033Y7232446D01*
X4284573Y7241895D01*
X4285437Y7251700D01*
X4284980Y7256830D01*
X4285589Y7261199D01*
X4287926Y7264908D01*
X4369968Y7346950D01*
X4373270Y7349134D01*
X4378401Y7349947D01*
X4382109Y7349236D01*
X4385310Y7347254D01*
X4387545Y7344206D01*
X4388561Y7340600D01*
X4441342Y7340600D01*
X4442307Y7344206D01*
X4444593Y7347254D01*
X4447743Y7349236D01*
X4451451Y7349947D01*
X4456531Y7349947D01*
X4460240Y7349236D01*
X4463389Y7347254D01*
X4465675Y7344206D01*
X4466640Y7340600D01*
X4487418Y7340600D01*
X4491329Y7339838D01*
X4494631Y7337602D01*
X4496816Y7334351D01*
X4497578Y7330440D01*
X4497578Y7325359D01*
X4496816Y7321499D01*
X4494631Y7318197D01*
X4491329Y7315962D01*
X4487418Y7315200D01*
X4466691Y7315200D01*
X4466691Y7293051D01*
X4466234Y7290003D01*
X4464862Y7287259D01*
X4459782Y7279995D01*
X4456684Y7277100D01*
X4452620Y7275728D01*
X4448403Y7276134D01*
X4444695Y7278217D01*
X4442206Y7281672D01*
X4441291Y7285786D01*
X4441291Y7315200D01*
X4388561Y7315200D01*
X4388561Y7301484D01*
X4389272Y7295134D01*
X4391202Y7289698D01*
X4394301Y7284770D01*
X4398365Y7280706D01*
X4403293Y7277608D01*
X4408728Y7275728D01*
X4415078Y7275017D01*
X4443374Y7275017D01*
X4447032Y7274306D01*
X4450181Y7272375D01*
X4452416Y7269429D01*
X4453483Y7265873D01*
X4452162Y7251700D01*
X4453026Y7241895D01*
X4455566Y7232446D01*
X4459681Y7223506D01*
X4465320Y7215479D01*
X4472279Y7208520D01*
X4480306Y7202881D01*
X4489246Y7198766D01*
X4498695Y7196226D01*
X4508500Y7195362D01*
X4518304Y7196226D01*
X4527753Y7198766D01*
X4536694Y7202881D01*
X4544720Y7208520D01*
X4551680Y7215479D01*
X4557318Y7223506D01*
X4561433Y7232446D01*
X4563973Y7241895D01*
X4564837Y7251700D01*
X4564380Y7256830D01*
X4564989Y7261199D01*
X4567326Y7264908D01*
X4574438Y7272020D01*
X4577740Y7274204D01*
X4581601Y7275017D01*
X4601921Y7275017D01*
X4608271Y7275728D01*
X4613706Y7277608D01*
X4615840Y7278928D01*
X4619853Y7280402D01*
X4624171Y7280046D01*
X4627930Y7277963D01*
X4630470Y7274559D01*
X4631385Y7270343D01*
X4631385Y7257694D01*
X4630775Y7254240D01*
X4628997Y7251192D01*
X4625035Y7248194D01*
X4620971Y7244689D01*
X4548936Y7172655D01*
X4545634Y7170420D01*
X4541723Y7169658D01*
G37*

%LPD*%
G36*
X5267299Y7166508D02*
G01*
X5263032Y7167422D01*
X5256733Y7168134D01*
X5247284Y7168134D01*
X5243169Y7168997D01*
X5239766Y7171385D01*
X5237683Y7174992D01*
X5237175Y7179157D01*
X5237937Y7188200D01*
X5237073Y7197953D01*
X5234228Y7208469D01*
X5233974Y7212279D01*
X5235143Y7215987D01*
X5237530Y7218934D01*
X5240934Y7220813D01*
X5245506Y7222286D01*
X5251450Y7225690D01*
X5255514Y7229195D01*
X5267553Y7241235D01*
X5272125Y7246874D01*
X5275173Y7252868D01*
X5276951Y7259523D01*
X5277358Y7264653D01*
X5277967Y7409942D01*
X5278780Y7413904D01*
X5281117Y7417257D01*
X5284520Y7419390D01*
X5288483Y7420051D01*
X5292445Y7419136D01*
X5302046Y7414666D01*
X5311495Y7412126D01*
X5321300Y7411262D01*
X5331866Y7412177D01*
X5335879Y7411720D01*
X5339384Y7409738D01*
X5341874Y7406589D01*
X5342890Y7402677D01*
X5342077Y7397953D01*
X5341366Y7391653D01*
X5341366Y7372756D01*
X5342077Y7366457D01*
X5342991Y7362190D01*
X5342077Y7357973D01*
X5341366Y7351623D01*
X5341366Y7332776D01*
X5342077Y7326477D01*
X5342991Y7322210D01*
X5342077Y7317943D01*
X5341366Y7311644D01*
X5341366Y7292797D01*
X5342077Y7286447D01*
X5342991Y7282180D01*
X5342077Y7277963D01*
X5341366Y7271613D01*
X5341366Y7252766D01*
X5342077Y7246467D01*
X5342991Y7242200D01*
X5342077Y7237933D01*
X5341366Y7231634D01*
X5341366Y7212787D01*
X5342077Y7206437D01*
X5342991Y7202220D01*
X5342077Y7197953D01*
X5341366Y7191654D01*
X5341366Y7178294D01*
X5340604Y7174382D01*
X5338419Y7171080D01*
X5335117Y7168896D01*
X5331206Y7168134D01*
X5317845Y7168134D01*
X5311546Y7167422D01*
X5307279Y7166508D01*
X5303062Y7167422D01*
X5296712Y7168134D01*
X5277866Y7168134D01*
X5271566Y7167422D01*
G37*

%LPD*%
G36*
X4965344Y7151827D02*
G01*
X4961788Y7153300D01*
X4958994Y7155992D01*
X4956454Y7159599D01*
X4955082Y7162342D01*
X4954574Y7167727D01*
X4947310Y7166508D01*
X4943043Y7167422D01*
X4936744Y7168134D01*
X4917846Y7168134D01*
X4911547Y7167422D01*
X4907280Y7166508D01*
X4903063Y7167422D01*
X4896713Y7168134D01*
X4877866Y7168134D01*
X4871567Y7167422D01*
X4867300Y7166508D01*
X4863033Y7167422D01*
X4856734Y7168134D01*
X4837887Y7168134D01*
X4831537Y7167422D01*
X4827320Y7166508D01*
X4823053Y7167422D01*
X4816703Y7168134D01*
X4803343Y7168134D01*
X4799482Y7168896D01*
X4796180Y7171080D01*
X4793996Y7174382D01*
X4793183Y7178294D01*
X4793183Y7191654D01*
X4792472Y7197953D01*
X4791608Y7202220D01*
X4792472Y7206437D01*
X4793183Y7212787D01*
X4793183Y7231634D01*
X4792472Y7237933D01*
X4791608Y7242200D01*
X4792472Y7246467D01*
X4793183Y7252766D01*
X4793183Y7271613D01*
X4792472Y7277963D01*
X4791608Y7282180D01*
X4792472Y7286447D01*
X4793183Y7292797D01*
X4793183Y7311644D01*
X4792472Y7317943D01*
X4791608Y7322210D01*
X4792472Y7326477D01*
X4793183Y7332776D01*
X4793183Y7351623D01*
X4792472Y7357973D01*
X4791608Y7362190D01*
X4792472Y7366457D01*
X4793183Y7372756D01*
X4793183Y7391653D01*
X4792472Y7397953D01*
X4791608Y7402220D01*
X4792472Y7406436D01*
X4793183Y7412786D01*
X4793183Y7431633D01*
X4792472Y7437932D01*
X4791608Y7442200D01*
X4792472Y7446467D01*
X4793183Y7452766D01*
X4793183Y7471613D01*
X4792472Y7477963D01*
X4791608Y7482179D01*
X4792472Y7486446D01*
X4793183Y7492796D01*
X4793183Y7511643D01*
X4792472Y7517942D01*
X4791608Y7522209D01*
X4792472Y7526477D01*
X4793183Y7532776D01*
X4793183Y7551623D01*
X4792472Y7557973D01*
X4791608Y7562189D01*
X4792472Y7566456D01*
X4793183Y7572756D01*
X4793183Y7579766D01*
X4793996Y7583627D01*
X4796180Y7586929D01*
X4799482Y7589164D01*
X4803343Y7589926D01*
X4840376Y7589926D01*
X4847590Y7590688D01*
X4853990Y7592771D01*
X4859934Y7596174D01*
X4863998Y7599629D01*
X4869078Y7604759D01*
X4872532Y7606995D01*
X4876546Y7607706D01*
X4880559Y7606741D01*
X4883861Y7604302D01*
X4885893Y7600746D01*
X4886401Y7596682D01*
X4886401Y7454900D01*
X5054600Y7454900D01*
X5054600Y7577785D01*
X5055412Y7581747D01*
X5057698Y7585100D01*
X5061153Y7587284D01*
X5065166Y7587945D01*
X5070246Y7587742D01*
X5074005Y7586827D01*
X5077155Y7584643D01*
X5079238Y7581392D01*
X5080000Y7577581D01*
X5080000Y7454900D01*
X5203444Y7454900D01*
X5207355Y7454138D01*
X5210657Y7451902D01*
X5212842Y7448600D01*
X5213604Y7444689D01*
X5213604Y7439609D01*
X5212791Y7435748D01*
X5210606Y7432446D01*
X5207304Y7430262D01*
X5203444Y7429500D01*
X5080000Y7429500D01*
X5080000Y7304633D01*
X5079441Y7301280D01*
X5077764Y7298283D01*
X5075174Y7295997D01*
X5072024Y7294727D01*
X5066944Y7293609D01*
X5062423Y7293660D01*
X5058359Y7295642D01*
X5055616Y7299147D01*
X5054600Y7303566D01*
X5054600Y7429500D01*
X4886401Y7429500D01*
X4886401Y7287768D01*
X4887112Y7281468D01*
X4888992Y7275982D01*
X4892090Y7271105D01*
X4896205Y7266990D01*
X4901082Y7263942D01*
X4906568Y7262012D01*
X4912868Y7261301D01*
X5014620Y7261301D01*
X5018735Y7260437D01*
X5022138Y7257948D01*
X5024272Y7254341D01*
X5024729Y7250175D01*
X5023662Y7238949D01*
X5024526Y7229195D01*
X5027066Y7219746D01*
X5031181Y7210806D01*
X5036820Y7202779D01*
X5046675Y7193178D01*
X5048199Y7190282D01*
X5048707Y7187082D01*
X5048707Y7178294D01*
X5047996Y7174636D01*
X5046065Y7171436D01*
X5043119Y7169200D01*
X5039512Y7168184D01*
X5031486Y7167372D01*
X5027320Y7166508D01*
X5023053Y7167422D01*
X5016703Y7168134D01*
X4997856Y7168134D01*
X4991557Y7167422D01*
X4987290Y7166508D01*
X4979974Y7167727D01*
X4979517Y7162342D01*
X4978146Y7159599D01*
X4975606Y7155992D01*
X4972812Y7153300D01*
X4969205Y7151827D01*
G37*

%LPD*%
G36*
X4644136Y6966102D02*
G01*
X4640529Y6967067D01*
X4637481Y6969353D01*
X4635500Y6972553D01*
X4634077Y6983425D01*
X4632147Y6988911D01*
X4630013Y6992264D01*
X4628642Y6995820D01*
X4628642Y6999579D01*
X4630013Y7003084D01*
X4632147Y7006488D01*
X4634077Y7011924D01*
X4634788Y7018274D01*
X4634788Y7072122D01*
X4634077Y7078421D01*
X4632147Y7083907D01*
X4629099Y7088784D01*
X4625289Y7092594D01*
X4623054Y7095896D01*
X4622292Y7099757D01*
X4623054Y7103668D01*
X4625289Y7106970D01*
X4661662Y7143343D01*
X4664913Y7145528D01*
X4668824Y7146290D01*
X4761230Y7146290D01*
X4765090Y7145528D01*
X4768392Y7143343D01*
X4770628Y7140041D01*
X4771390Y7136130D01*
X4771390Y7032752D01*
X4771999Y7027519D01*
X4771542Y7023303D01*
X4769459Y7019594D01*
X4766056Y7017105D01*
X4761890Y7016242D01*
X4684674Y7016242D01*
X4678324Y7015530D01*
X4672888Y7013600D01*
X4668012Y7010501D01*
X4663897Y7006437D01*
X4660798Y7001509D01*
X4658918Y6996074D01*
X4658207Y6989724D01*
X4658207Y6977176D01*
X4657293Y6972960D01*
X4654753Y6969556D01*
X4650994Y6967474D01*
X4647895Y6966508D01*
G37*

%LPD*%
G36*
X5647436Y6941312D02*
G01*
X5643575Y6941972D01*
X5640273Y6944004D01*
X5637987Y6947153D01*
X5636818Y6949694D01*
X5631180Y6957720D01*
X5624220Y6964680D01*
X5616194Y6970318D01*
X5607253Y6974433D01*
X5597804Y6976973D01*
X5590184Y6977634D01*
X5586577Y6978650D01*
X5583580Y6980936D01*
X5581599Y6984085D01*
X5580938Y6987794D01*
X5580938Y6997700D01*
X5528208Y6997700D01*
X5528208Y6970268D01*
X5527446Y6966356D01*
X5525211Y6963105D01*
X5521909Y6960870D01*
X5518048Y6960108D01*
X5512968Y6960108D01*
X5509056Y6960870D01*
X5505754Y6963105D01*
X5503570Y6966356D01*
X5502808Y6970268D01*
X5502808Y6997700D01*
X5482082Y6997700D01*
X5478170Y6998462D01*
X5474868Y7000697D01*
X5472684Y7003999D01*
X5471922Y7007859D01*
X5471922Y7012940D01*
X5472684Y7016851D01*
X5474868Y7020102D01*
X5478170Y7022338D01*
X5482082Y7023100D01*
X5502808Y7023100D01*
X5502808Y7063333D01*
X5476544Y7063333D01*
X5470245Y7062622D01*
X5464352Y7060539D01*
X5461000Y7059980D01*
X5457647Y7060539D01*
X5451754Y7062622D01*
X5445404Y7063333D01*
X5373370Y7063333D01*
X5369458Y7064095D01*
X5366156Y7066280D01*
X5363972Y7069581D01*
X5363210Y7073493D01*
X5363210Y7136130D01*
X5363972Y7140041D01*
X5366156Y7143343D01*
X5369458Y7145528D01*
X5373370Y7146290D01*
X5480253Y7146239D01*
X5483098Y7145223D01*
X5485536Y7143445D01*
X5548325Y7080656D01*
X5550509Y7077354D01*
X5551322Y7073493D01*
X5550509Y7069581D01*
X5548325Y7066280D01*
X5545023Y7064095D01*
X5541162Y7063333D01*
X5528208Y7063333D01*
X5528208Y7023100D01*
X5580938Y7023100D01*
X5581700Y7027418D01*
X5583885Y7030720D01*
X5587187Y7032904D01*
X5591098Y7033717D01*
X5594959Y7032904D01*
X5598261Y7030720D01*
X5654344Y6974636D01*
X5656580Y6971334D01*
X5657342Y6967423D01*
X5657342Y6951472D01*
X5656580Y6947611D01*
X5654446Y6944359D01*
X5651246Y6942124D01*
G37*

%LPD*%
G36*
X4578807Y6907225D02*
G01*
X4574946Y6907987D01*
X4571644Y6910171D01*
X4569460Y6913473D01*
X4568647Y6917385D01*
X4568647Y6937502D01*
X4549952Y6937502D01*
X4546041Y6938264D01*
X4542739Y6940448D01*
X4540554Y6943750D01*
X4539792Y6947662D01*
X4539792Y6952742D01*
X4540554Y6956602D01*
X4542739Y6959904D01*
X4546041Y6962140D01*
X4549952Y6962902D01*
X4568647Y6962902D01*
X4568647Y6981596D01*
X4569460Y6985508D01*
X4571644Y6988809D01*
X4574946Y6990994D01*
X4578807Y6991756D01*
X4583887Y6991756D01*
X4587798Y6990994D01*
X4591100Y6988809D01*
X4593285Y6985508D01*
X4594047Y6981596D01*
X4594047Y6962902D01*
X4614164Y6962902D01*
X4618075Y6962140D01*
X4621377Y6959904D01*
X4623562Y6956602D01*
X4624324Y6952742D01*
X4623562Y6948830D01*
X4621377Y6945528D01*
X4616297Y6940448D01*
X4612995Y6938264D01*
X4609084Y6937502D01*
X4594047Y6937502D01*
X4594047Y6922465D01*
X4593285Y6918553D01*
X4591100Y6915251D01*
X4586020Y6910171D01*
X4582718Y6907987D01*
G37*

%LPD*%
D10*
X6197600Y5397500D02*
G01*
X6197600Y5308600D01*
X5994400Y5397500D02*
G01*
X5994400Y5308600D01*
X3733800Y8699500D02*
G01*
X3670300Y8699500D01*
X3593338Y8623300D01*
X5549900Y8292490D02*
G01*
X5549900Y8331200D01*
X5600700Y8382000D01*
X4279900Y8292490D02*
G01*
X4279900Y8331200D01*
X4229100Y8382000D01*
X4279900Y8292490D02*
G01*
X4279900Y8331200D01*
X4330700Y8382000D01*
X5549900Y8292490D02*
G01*
X5549900Y8331200D01*
X5486400Y8394700D01*
X4023865Y606300D02*
G01*
X3949700Y680465D01*
X3949700Y2806700D01*
X3733800Y3022600D01*
X3733800Y8699500D01*
X4914900Y2796288D02*
G01*
X4914900Y2438400D01*
X5092700Y2260600D01*
X5092700Y2130399D01*
X5194300Y3049523D02*
G01*
X4675124Y3049523D01*
X4637786Y3012186D01*
X4637786Y2796286D01*
X4637786Y2796286D02*
G01*
X4637786Y2347213D01*
X4724400Y2260600D01*
X4724400Y2130297D01*
X4279900Y7797800D02*
G01*
X4279900Y8077200D01*
X4374895Y8172195D01*
X4374895Y8292592D01*
X4184904Y8522309D02*
G01*
X4184904Y8654795D01*
X4152900Y8686800D01*
X4152900Y9029700D01*
X4179900Y9056700D01*
X4179900Y9166148D01*
X4374895Y8522309D02*
G01*
X4374895Y8654795D01*
X4406900Y8686800D01*
X4406900Y9029700D01*
X4379899Y9056700D01*
X4379899Y9166148D01*
X5549900Y8522307D02*
G01*
X5549900Y8432800D01*
X5549900Y8522309D02*
G01*
X5549900Y8710427D01*
X5548127Y8712200D01*
X5644895Y8522309D02*
G01*
X5644895Y8654795D01*
X5676900Y8686800D01*
X5676900Y9029700D01*
X5649899Y9056700D01*
X5649899Y9166151D01*
X5454904Y8522309D02*
G01*
X5454904Y8654795D01*
X5422900Y8686800D01*
X5422900Y9029700D01*
X5449900Y9056700D01*
X5449900Y9166151D01*
X5689600Y7683500D02*
G01*
X5689600Y8216905D01*
X5644895Y8261609D01*
X5644895Y8292490D01*
X5461000Y8115300D02*
G01*
X5454898Y8121401D01*
X5454898Y8292492D01*
X4785868Y606297D02*
G01*
X4785868Y990600D01*
X5693305Y7340602D02*
G01*
X5693305Y7336894D01*
X5740400Y7289800D01*
D11*
X5513679Y6464300D02*
G01*
X5259679Y6464300D01*
X5589397Y5353050D02*
G01*
X5589397Y6388582D01*
X5513679Y6464300D01*
D12*
X5689600Y6235700D02*
G01*
X5689600Y6985000D01*
X5492414Y7182185D01*
X5422318Y7182185D01*
D10*
X4751577Y6235700D02*
G01*
X4751577Y6464300D01*
X4178300Y7861300D02*
G01*
X4184898Y7867898D01*
X4184898Y8292492D01*
X5626100Y8115300D02*
G01*
X5626100Y7620000D01*
X3594100Y7797800D02*
G01*
X3594100Y6591300D01*
X3530600Y7861300D02*
G01*
X3530600Y6654800D01*
D12*
X5422318Y7422189D02*
G01*
X5491782Y7422189D01*
X5588000Y7518400D01*
X5422318Y7262192D02*
G01*
X5488607Y7262192D01*
X5562600Y7188200D01*
X5651500Y7188200D01*
X5422318Y7302195D02*
G01*
X5512097Y7302195D01*
X5549900Y7264400D01*
X5651500Y7264400D01*
X4712281Y7542199D02*
G01*
X4332300Y7542199D01*
X4292600Y7581900D01*
X4712281Y7222187D02*
G01*
X4644082Y7222187D01*
X4559300Y7137400D01*
X4229100Y7137400D01*
X4712281Y7382184D02*
G01*
X4359584Y7382184D01*
X4229100Y7251700D01*
X4712281Y7422182D02*
G01*
X4310682Y7422182D01*
X4229100Y7340600D01*
D10*
X5327289Y7797198D02*
G01*
X5327289Y8007703D01*
X5245100Y8089900D01*
X4453991Y7327900D02*
G01*
X4419600Y7327900D01*
X4292600Y7200900D01*
X5003800Y7239000D02*
G01*
X4953000Y7289800D01*
X4953000Y7327900D01*
X4953000Y7467600D02*
G01*
X4953000Y7645400D01*
X4991100Y7683500D01*
D12*
X4712281Y7502202D02*
G01*
X4085902Y7502202D01*
X4051300Y7467600D01*
X4712281Y7462192D02*
G01*
X4160192Y7462192D01*
X4114800Y7416800D01*
X4571987Y7712595D02*
G01*
X4582393Y7702184D01*
X4712294Y7702184D01*
X5207309Y7087201D02*
G01*
X5207000Y6991982D01*
X5127241Y7087108D02*
G01*
X5127241Y7210046D01*
X5156200Y7251700D01*
X5156200Y7251700D02*
G01*
X5232400Y7251700D01*
X5245100Y7264400D01*
X5247380Y7797292D01*
D10*
X5210807Y8013700D02*
G01*
X5210807Y8055607D01*
X5245100Y8089900D01*
D12*
X5247380Y7087108D02*
G01*
X5247380Y7033511D01*
X5270500Y6997700D01*
X5406392Y6997700D01*
X5406392Y7010400D01*
D10*
X5087365Y7087146D02*
G01*
X5087365Y6807200D01*
X5165191Y6807200D01*
X4581400Y6950199D02*
G01*
X4600699Y6950199D01*
X4648200Y6997700D01*
X4648200Y7023100D01*
X4717293Y7092175D01*
D13*
X5287291Y7797198D02*
G01*
X5287291Y7984213D01*
X5257800Y8013700D01*
X5210708Y8013700D01*
D10*
X5410200Y7772400D02*
G01*
X5410200Y7895691D01*
D12*
X4712208Y7182104D02*
G01*
X4654798Y7182104D01*
X4581400Y7108700D01*
X4581400Y7045200D01*
X4967226Y7797292D02*
G01*
X4967226Y7885168D01*
X4927600Y7924800D01*
X4927600Y7962900D01*
D10*
X4581400Y6950174D02*
G01*
X4581400Y6930900D01*
X4546600Y6896100D01*
X5359400Y6921500D02*
G01*
X5588000Y6921500D01*
D12*
X4712281Y7342200D02*
G01*
X4624400Y7342200D01*
X4610100Y7327900D01*
X4563008Y7327900D01*
X4508500Y7251700D02*
G01*
X4563008Y7306208D01*
X4563008Y7327900D01*
X4967226Y7087108D02*
G01*
X4967226Y7164331D01*
X5003800Y7200900D01*
X5003800Y7239000D01*
X4368800Y6972300D02*
G01*
X4368800Y7048500D01*
X4359808Y7048500D01*
X4359808Y7048500D02*
G01*
X4363120Y7045182D01*
X4486374Y7045182D01*
X5588000Y7429500D02*
G01*
X5584291Y7425791D01*
X5584291Y7340600D01*
X5422391Y7342131D02*
G01*
X5584192Y7340600D01*
X4712281Y7622176D02*
G01*
X4840894Y7622176D01*
X4902200Y7683487D01*
D10*
X5247269Y7797198D02*
G01*
X5247269Y7873987D01*
X5210708Y7910555D01*
X5210708Y7912100D01*
D12*
X4927302Y7797292D02*
G01*
X4927302Y7873745D01*
X4761941Y8039100D01*
X4508500Y8039100D01*
X4469208Y7999803D01*
X4421248Y7999803D01*
X4635500Y7924800D02*
G01*
X4635500Y7973212D01*
X4662091Y7999803D01*
X4722726Y7999803D01*
X4722738Y7899808D02*
G01*
X4800191Y7899808D01*
X4847269Y7852717D01*
X4847269Y7797198D01*
D10*
X5321300Y7683487D02*
G01*
X5321300Y7467600D01*
X4559300Y6743700D02*
G01*
X4559300Y6811063D01*
X4550407Y6819955D01*
X4550308Y6819887D02*
G01*
X4660727Y6930306D01*
X4754090Y6930306D01*
D12*
X5047294Y7087201D02*
G01*
X5047294Y6990382D01*
X4987206Y6930306D01*
X4974109Y6930306D01*
X5167312Y7087201D02*
G01*
X5167312Y7173912D01*
X5181600Y7188200D01*
X5127302Y7087201D02*
G01*
X5127302Y6959600D01*
X5165191Y6921710D01*
X5165191Y6908800D01*
X5359400Y6921500D02*
G01*
X5406491Y6968591D01*
X5406491Y7010400D01*
D10*
X5410200Y8004708D02*
G01*
X5511800Y8004708D01*
X5410200Y7895691D02*
G01*
X5511800Y7895691D01*
X5422305Y7702184D02*
G01*
X5479689Y7702184D01*
X5511800Y7734300D01*
X5511800Y7895691D01*
D12*
X5047234Y7797292D02*
G01*
X5047234Y7640060D01*
X5067300Y7620000D01*
X5247134Y7620000D01*
X5087305Y7797198D02*
G01*
X5087305Y7701594D01*
X5105400Y7683487D01*
X5127302Y7797198D02*
G01*
X5127302Y7705402D01*
X5105400Y7683487D01*
X4722738Y7849796D02*
G01*
X4807211Y7849796D01*
X4807211Y7797292D01*
X4722738Y7949791D02*
G01*
X4800983Y7949791D01*
X4887305Y7863476D01*
X4887305Y7797198D01*
X4421248Y7949791D02*
G01*
X4496196Y7949791D01*
X4508500Y7937500D01*
X4421248Y7899808D02*
G01*
X4469991Y7899808D01*
X4508500Y7861300D01*
X5007322Y7797198D02*
G01*
X5007322Y7921271D01*
X5003800Y7924800D01*
X4508500Y7785100D02*
G01*
X4508500Y7750807D01*
X4470400Y7712707D01*
X4508500Y7785100D02*
G01*
X4508500Y7747000D01*
X4542792Y7712707D01*
X4572000Y7712707D01*
X4712294Y7662186D02*
G01*
X4791991Y7662186D01*
X4813300Y7683500D01*
D10*
X5087305Y7087201D02*
G01*
X5087305Y7231694D01*
X5080000Y7239000D01*
D12*
X4394200Y7607300D02*
G01*
X4397908Y7603591D01*
X4470412Y7603591D01*
X4394200Y7607300D02*
G01*
X4397908Y7603591D01*
X4572012Y7603591D01*
X4470400Y7712707D02*
G01*
X4470400Y7734300D01*
X4421248Y7783443D01*
X4421248Y7849796D01*
D10*
X4140200Y990600D02*
G01*
X4140200Y2857500D01*
X3924300Y3073400D01*
X3924300Y8509000D01*
X4076700Y916434D02*
G01*
X4076700Y2844800D01*
X3860800Y3060700D01*
X3860800Y8572500D01*
X4531868Y606297D02*
G01*
X4531868Y916431D01*
X4013200Y838200D02*
G01*
X4013200Y2832100D01*
X3797300Y3048000D01*
X3797300Y7251700D01*
X4277868Y606297D02*
G01*
X4277868Y840231D01*
X5753100Y762000D02*
G01*
X5753100Y5638800D01*
X5547868Y606297D02*
G01*
X5547868Y762000D01*
X5880100Y838200D02*
G01*
X5880100Y8636000D01*
X5293868Y606297D02*
G01*
X5293613Y835405D01*
X5816600Y914400D02*
G01*
X5816600Y8572500D01*
X5039868Y606297D02*
G01*
X5039868Y912368D01*
X4464202Y4292600D02*
G01*
X4464202Y5638800D01*
D11*
X5588000Y4267200D02*
G01*
X5589526Y4268726D01*
X5589526Y5353050D01*
X6096000Y5638800D02*
G01*
X6096000Y5926429D01*
X5359400Y5353050D02*
G01*
X5359400Y5638800D01*
X6096000Y7759700D02*
G01*
X6096000Y5926429D01*
D10*
X4279900Y8522307D02*
G01*
X4279900Y8432800D01*
D11*
X6096000Y7759700D02*
G01*
X6096000Y8712200D01*
D10*
X5548122Y8712200D02*
G01*
X5548122Y8712200D01*
X5548122Y8857487D01*
X5753100Y8509000D02*
G01*
X5753100Y7518400D01*
X5295900Y8636000D02*
G01*
X5295900Y8855712D01*
X5294127Y8857487D01*
X5041900Y8572500D02*
G01*
X5041900Y8855712D01*
X5040127Y8857487D01*
X4024122Y8697721D02*
G01*
X4024122Y8857487D01*
X4787900Y8509000D02*
G01*
X4786127Y8857487D01*
X4532127Y8570719D02*
G01*
X4532127Y8857487D01*
X3797300Y8636000D02*
G01*
X3797300Y7340600D01*
X4278127Y8857487D02*
G01*
X4279900Y8636000D01*
X5359400Y4889500D02*
G01*
X5359400Y4032757D01*
X4114800Y7416800D02*
G01*
X4114800Y4889500D01*
X5232400Y4826000D02*
G01*
X5232400Y4032757D01*
X4051300Y7467600D02*
G01*
X4051300Y4826000D01*
X4622800Y5855563D02*
G01*
X4632556Y5845807D01*
X4813300Y5845807D01*
X4559300Y6743700D02*
G01*
X4622800Y6680200D01*
X4622800Y6006236D01*
D11*
X6299200Y4132323D02*
G01*
X6299200Y4267200D01*
X6032500Y4046321D02*
G01*
X6151786Y4046321D01*
X6299200Y3898900D01*
X6299200Y3792395D01*
X6172200Y3601646D02*
G01*
X6032500Y3741346D01*
X6032500Y3853078D01*
X6172200Y3124200D02*
G01*
X6172200Y3230953D01*
D10*
X5562600Y3048000D02*
G01*
X5410200Y3049600D01*
X5410200Y3249599D02*
G01*
X5359400Y3300399D01*
X5359400Y3485642D01*
X5194300Y3249599D02*
G01*
X5232400Y3287699D01*
X5232400Y3485642D01*
X5524500Y3689195D02*
G01*
X5137000Y3689200D01*
X5105400Y3657600D01*
X5105400Y3485642D01*
X4597400Y3485642D02*
G01*
X4597400Y3657605D01*
X4565799Y3689195D01*
X4305300Y3689195D01*
X4978400Y3485642D02*
G01*
X4978400Y3251200D01*
X4984899Y3251200D01*
X4851400Y3485642D02*
G01*
X4851400Y3251200D01*
X4844900Y3251200D01*
X4724400Y3485642D02*
G01*
X4724387Y3308189D01*
X4667399Y3251200D01*
X4470400Y3485642D02*
G01*
X4470412Y3308189D01*
X4527400Y3251200D01*
X4470400Y4032757D02*
G01*
X4470400Y4292600D01*
X4464199Y4292600D01*
D14*
G01*
X6096000Y5926424D03*
D15*
G01*
X6096005Y5224175D03*
D16*
G01*
X3442575Y8623300D03*
G01*
X3593224Y8623300D03*
D17*
G01*
X4622800Y6006224D03*
D18*
G01*
X4622800Y5855563D03*
D19*
G01*
X4305300Y3689197D03*
G01*
X4305300Y3829202D03*
D20*
G01*
X4464202Y4292600D03*
G01*
X4324197Y4292600D03*
D19*
G01*
X5524500Y3689197D03*
G01*
X5524500Y3829202D03*
D20*
G01*
X4667402Y3251200D03*
G01*
X4527397Y3251200D03*
G01*
X4984902Y3251200D03*
G01*
X4844897Y3251200D03*
D21*
G01*
X5454904Y8292490D03*
G01*
X5549900Y8292490D03*
G01*
X5644895Y8292490D03*
G01*
X5644895Y8522309D03*
G01*
X5549900Y8522309D03*
G01*
X5454904Y8522309D03*
D22*
G01*
X5129402Y5353050D03*
G01*
X5359400Y5353050D03*
G01*
X5589397Y5353050D03*
D23*
G01*
X5359400Y5924550D03*
D24*
G01*
X5649899Y9166148D03*
G01*
X5549900Y9166148D03*
G01*
X5449900Y9166148D03*
D25*
G01*
X5319902Y9553651D03*
G01*
X5779897Y9553651D03*
D26*
G01*
X5410200Y3249604D03*
D27*
G01*
X5410200Y3049600D03*
D26*
G01*
X5194300Y3249604D03*
D27*
G01*
X5194300Y3049600D03*
D28*
G01*
X5092700Y1717700D03*
G01*
X5092700Y2117699D03*
G01*
X4724400Y1717700D03*
G01*
X4724400Y2117699D03*
D29*
G01*
X4470400Y3485642D03*
G01*
X4597400Y3485642D03*
G01*
X4724400Y3485642D03*
G01*
X4851400Y3485642D03*
G01*
X4978400Y3485642D03*
G01*
X5105400Y3485642D03*
G01*
X5232400Y3485642D03*
G01*
X5359400Y3485642D03*
G01*
X4470400Y4032757D03*
G01*
X4597400Y4032757D03*
G01*
X4724400Y4032757D03*
G01*
X4851400Y4032757D03*
G01*
X4978400Y4032757D03*
G01*
X5105400Y4032757D03*
G01*
X5232400Y4032757D03*
G01*
X5359400Y4032757D03*
D30*
G01*
X6172200Y3601633D03*
D31*
G01*
X6172200Y3230956D03*
D32*
G01*
X6299200Y3792397D03*
G01*
X6299200Y4132402D03*
D27*
G01*
X6032500Y3853078D03*
D26*
G01*
X6032496Y4046326D03*
D33*
G01*
X4813300Y5845810D03*
G01*
X4813300Y6015989D03*
D34*
G01*
X4581397Y6950176D03*
G01*
X4581397Y7045197D03*
G01*
X4486376Y7045197D03*
G01*
X4486376Y6950176D03*
D35*
G01*
X4359803Y7048502D03*
G01*
X4250791Y7048502D03*
G01*
X4563003Y7327902D03*
G01*
X4453991Y7327902D03*
D36*
G01*
X4470400Y7712603D03*
D37*
G01*
X4470400Y7603591D03*
D36*
G01*
X4572000Y7712603D03*
D37*
G01*
X4572000Y7603591D03*
D38*
G01*
X4722749Y7849793D03*
G01*
X4722749Y7899806D03*
G01*
X4722749Y7949793D03*
G01*
X4722749Y7999806D03*
G01*
X4421250Y7849793D03*
G01*
X4421250Y7899806D03*
G01*
X4421250Y7949793D03*
G01*
X4421250Y7999806D03*
D39*
G01*
X4572000Y7924800D03*
D40*
G01*
X5584291Y7340602D03*
G01*
X5693303Y7340602D03*
G01*
X5406491Y7010402D03*
G01*
X5515503Y7010402D03*
D35*
G01*
X5210703Y8013702D03*
G01*
X5101691Y8013702D03*
D41*
G01*
X4712284Y7702194D03*
G01*
X4712284Y7662189D03*
G01*
X4712284Y7622184D03*
G01*
X4712284Y7582179D03*
G01*
X4712284Y7542199D03*
G01*
X4712284Y7502194D03*
G01*
X4712284Y7462189D03*
G01*
X4712284Y7422184D03*
G01*
X4712284Y7382179D03*
G01*
X4712284Y7342200D03*
G01*
X4712284Y7302195D03*
G01*
X4712284Y7262190D03*
G01*
X4712284Y7222185D03*
G01*
X4712284Y7182180D03*
D42*
G01*
X4807305Y7087209D03*
G01*
X4847285Y7087209D03*
G01*
X4887290Y7087209D03*
G01*
X4927295Y7087209D03*
G01*
X4967300Y7087209D03*
G01*
X5007305Y7087209D03*
G01*
X5047284Y7087209D03*
G01*
X5087289Y7087209D03*
G01*
X5127294Y7087209D03*
G01*
X5167299Y7087209D03*
G01*
X5207304Y7087209D03*
G01*
X5247284Y7087209D03*
G01*
X5287289Y7087209D03*
G01*
X5327294Y7087209D03*
D41*
G01*
X5422315Y7182180D03*
G01*
X5422315Y7222185D03*
G01*
X5422315Y7262190D03*
G01*
X5422315Y7302195D03*
G01*
X5422315Y7342200D03*
G01*
X5422315Y7382179D03*
G01*
X5422315Y7422184D03*
G01*
X5422315Y7462189D03*
G01*
X5422315Y7502194D03*
G01*
X5422315Y7542199D03*
G01*
X5422315Y7582179D03*
G01*
X5422315Y7622184D03*
G01*
X5422315Y7662189D03*
G01*
X5422315Y7702194D03*
D42*
G01*
X5327294Y7797190D03*
G01*
X5287289Y7797190D03*
G01*
X5247284Y7797190D03*
G01*
X5207304Y7797190D03*
G01*
X5167299Y7797190D03*
G01*
X5127294Y7797190D03*
G01*
X5087289Y7797190D03*
G01*
X5047284Y7797190D03*
G01*
X5007305Y7797190D03*
G01*
X4967300Y7797190D03*
G01*
X4927295Y7797190D03*
G01*
X4887290Y7797190D03*
G01*
X4847285Y7797190D03*
G01*
X4807305Y7797190D03*
D43*
G01*
X5067300Y7442200D03*
D40*
G01*
X5165191Y6908802D03*
G01*
X5274203Y6908802D03*
G01*
X5165191Y6807202D03*
G01*
X5274203Y6807202D03*
G01*
X4441294Y6819900D03*
G01*
X4550305Y6819900D03*
D44*
G01*
X4754100Y6760311D03*
G01*
X4974099Y6760311D03*
D45*
G01*
X4974107Y6930313D03*
D46*
G01*
X4754100Y6930313D03*
D36*
G01*
X5511797Y7895696D03*
D37*
G01*
X5511800Y8004708D03*
D40*
G01*
X5101691Y7912102D03*
G01*
X5210703Y7912102D03*
D36*
G01*
X5410197Y8004708D03*
D37*
G01*
X5410200Y7895691D03*
D24*
G01*
X4379899Y9166148D03*
G01*
X4279900Y9166148D03*
G01*
X4179900Y9166148D03*
D25*
G01*
X4049902Y9553651D03*
G01*
X4509897Y9553651D03*
D21*
G01*
X4184904Y8292490D03*
G01*
X4279900Y8292490D03*
G01*
X4374895Y8292490D03*
G01*
X4374895Y8522309D03*
G01*
X4279900Y8522309D03*
G01*
X4184904Y8522309D03*
D47*
G01*
X4301998Y10451998D03*
G01*
X20830997Y10451998D03*
G01*
X4801997Y-545998D03*
G01*
X20330998Y-545998D03*
D48*
G01*
X4243679Y6464274D03*
D49*
G01*
X4497679Y6464274D03*
G01*
X4751679Y6464274D03*
G01*
X5005679Y6464274D03*
G01*
X5259679Y6464274D03*
G01*
X5513679Y6464274D03*
D50*
G01*
X5802088Y8857381D03*
D49*
G01*
X5548096Y8857386D03*
G01*
X5294096Y8857386D03*
G01*
X5040096Y8857386D03*
G01*
X4786096Y8857386D03*
G01*
X4532096Y8857386D03*
G01*
X4278096Y8857386D03*
G01*
X4024096Y8857386D03*
D50*
G01*
X5801789Y606198D03*
D49*
G01*
X5547791Y606196D03*
G01*
X5293791Y606196D03*
G01*
X5039791Y606196D03*
G01*
X4785791Y606196D03*
G01*
X4531791Y606196D03*
G01*
X4277791Y606196D03*
G01*
X4023791Y606196D03*
D51*
G01*
X4914849Y2796286D03*
D52*
G01*
X3664889Y2654325D03*
D53*
G01*
X4360849Y2796286D03*
D51*
G01*
X4637836Y2796286D03*
G01*
X5191836Y2796286D03*
D54*
G01*
X5468851Y2796298D03*
D51*
G01*
X4499356Y2512288D03*
G01*
X4776343Y2512288D03*
G01*
X5053355Y2512288D03*
G01*
X5330342Y2512288D03*
D52*
G01*
X6164884Y2654325D03*
D49*
G01*
X4318000Y1320800D03*
G01*
X4318000Y1574800D03*
D55*
G01*
X6299200Y4267200D03*
G01*
X6172200Y3124200D03*
G01*
X5562600Y3048000D03*
G01*
X6096000Y7759700D03*
G01*
X4292600Y7200900D03*
G01*
X4279900Y6921500D03*
G01*
X4051300Y7467600D03*
G01*
X4114800Y7416800D03*
G01*
X4229100Y7340600D03*
G01*
X4229100Y7251700D03*
G01*
X5105400Y6718300D03*
G01*
X4991100Y7683500D03*
G01*
X5003800Y7239000D03*
G01*
X5321300Y7683500D03*
G01*
X4559300Y6743700D03*
G01*
X5359400Y6921500D03*
G01*
X5181600Y7188200D03*
G01*
X5207000Y6991985D03*
G01*
X5245100Y8089900D03*
G01*
X5105400Y7683500D03*
G01*
X5080000Y7239000D03*
G01*
X4508500Y7937500D03*
G01*
X4508500Y7861300D03*
G01*
X4927600Y7962900D03*
G01*
X5003800Y7924800D03*
G01*
X4635500Y7924800D03*
G01*
X4508500Y7785100D03*
G01*
X4813300Y7683500D03*
G01*
X4902200Y7683500D03*
G01*
X4648200Y7806994D03*
G01*
X4394200Y7607300D03*
G01*
X4508500Y7251700D03*
G01*
X5321300Y7467600D03*
G01*
X5181600Y7327900D03*
G01*
X4953000Y7327900D03*
G01*
X4953000Y7467600D03*
G01*
X5181600Y7467600D03*
G01*
X5003800Y8013700D03*
G01*
X4406900Y8077200D03*
G01*
X5588000Y7429500D03*
G01*
X4368800Y6972300D03*
G01*
X5588000Y6921500D03*
G01*
X5410200Y7772400D03*
G01*
X5283200Y7213600D03*
G01*
X4717288Y7092213D03*
G01*
X4838700Y7531100D03*
G01*
X4051300Y4826000D03*
G01*
X5232400Y4826000D03*
G01*
X4114800Y4889500D03*
G01*
X5359400Y4889500D03*
G01*
X3797300Y7340600D03*
G01*
X3797300Y7251700D03*
G01*
X4229100Y7137400D03*
G01*
X3733800Y7137400D03*
G01*
X4292600Y7581900D03*
G01*
X3860800Y7581900D03*
G01*
X5651500Y7264400D03*
G01*
X5651500Y7188200D03*
G01*
X5880100Y7264400D03*
G01*
X5816600Y7188200D03*
G01*
X5753100Y7518400D03*
G01*
X4279900Y8636000D03*
G01*
X3797300Y8636000D03*
G01*
X3860800Y8572500D03*
G01*
X4532122Y8570721D03*
G01*
X3924300Y8509000D03*
G01*
X4787900Y8509000D03*
G01*
X3733800Y8699500D03*
G01*
X4024122Y8697721D03*
G01*
X5041900Y8572500D03*
G01*
X5295900Y8636000D03*
G01*
X5816600Y8572500D03*
G01*
X5880100Y8636000D03*
G01*
X5753100Y8509000D03*
G01*
X5548122Y8712200D03*
G01*
X6096000Y8712200D03*
G01*
X4279900Y8432800D03*
G01*
X5689600Y7683500D03*
G01*
X5626100Y7620000D03*
G01*
X5588000Y7518400D03*
G01*
X3530600Y6654800D03*
G01*
X4178300Y7861300D03*
G01*
X3530600Y7861300D03*
G01*
X3594100Y6591300D03*
G01*
X4279900Y7797800D03*
G01*
X3594100Y7797800D03*
G01*
X5588000Y4267200D03*
G01*
X5994400Y5397500D03*
G01*
X6096000Y5397500D03*
G01*
X6197600Y5397500D03*
G01*
X5359400Y5638800D03*
G01*
X6096000Y5638800D03*
G01*
X4464202Y5638800D03*
G01*
X5039868Y912368D03*
G01*
X5816600Y914400D03*
G01*
X5293613Y835405D03*
G01*
X5880100Y838200D03*
G01*
X5753100Y5638800D03*
G01*
X5547817Y762000D03*
G01*
X5753100Y762000D03*
G01*
X4277868Y840231D03*
G01*
X4013200Y838200D03*
G01*
X4531868Y916431D03*
G01*
X4076700Y916431D03*
G01*
X4785868Y990600D03*
G01*
X4140200Y990600D03*
G01*
X5461000Y8115300D03*
G01*
X5626100Y8115300D03*
G01*
X5689600Y7429500D03*
G01*
X5689600Y6235700D03*
G01*
X4751679Y6235700D03*
G01*
X5435600Y7099300D03*
G01*
X5549900Y8432800D03*
G01*
X4279900Y8191500D03*
G01*
X5549900Y8191500D03*
M02*
