G04 Layer: BottomSilkscreenLayer*
G04 EasyEDA v6.5.34, 2023-08-21 18:11:39*
G04 608ff240a59a44e5951e210445872dab,5a6b42c53f6a479593ecc07194224c93,10*
G04 Gerber Generator version 0.2*
G04 Scale: 100 percent, Rotated: No, Reflected: No *
G04 Dimensions in millimeters *
G04 leading zeros omitted , absolute positions ,4 integer and 5 decimal *
%FSLAX45Y45*%
%MOMM*%

%ADD10C,0.2032*%
%ADD11C,0.1520*%

%LPD*%
D10*
X43967311Y222689D02*
G01*
X43967311Y108145D01*
X43967311Y222689D02*
G01*
X43918220Y222689D01*
X43901857Y217236D01*
X43896401Y211782D01*
X43890948Y200873D01*
X43890948Y184508D01*
X43896401Y173599D01*
X43901857Y168145D01*
X43918220Y162689D01*
X43967311Y162689D01*
X43811311Y222689D02*
G01*
X43854946Y108145D01*
X43811311Y222689D02*
G01*
X43767674Y108145D01*
X43838583Y146326D02*
G01*
X43784039Y146326D01*
X43731675Y222689D02*
G01*
X43731675Y108145D01*
X43731675Y222689D02*
G01*
X43682584Y222689D01*
X43666222Y217236D01*
X43660766Y211782D01*
X43655311Y200873D01*
X43655311Y189964D01*
X43660766Y179054D01*
X43666222Y173599D01*
X43682584Y168145D01*
X43731675Y168145D01*
X43693494Y168145D02*
G01*
X43655311Y108145D01*
X43581129Y222689D02*
G01*
X43581129Y108145D01*
X43619310Y222689D02*
G01*
X43542948Y222689D01*
X43422948Y222689D02*
G01*
X43422948Y108145D01*
X43422948Y222689D02*
G01*
X43346585Y108145D01*
X43346585Y222689D02*
G01*
X43346585Y108145D01*
X43310583Y222689D02*
G01*
X43310583Y140873D01*
X43305130Y124508D01*
X43294221Y113599D01*
X43277858Y108145D01*
X43266949Y108145D01*
X43250584Y113599D01*
X43239677Y124508D01*
X43234221Y140873D01*
X43234221Y222689D01*
X43198221Y222689D02*
G01*
X43198221Y108145D01*
X43198221Y222689D02*
G01*
X43154584Y108145D01*
X43110950Y222689D02*
G01*
X43154584Y108145D01*
X43110950Y222689D02*
G01*
X43110950Y108145D01*
X43074948Y222689D02*
G01*
X43074948Y108145D01*
X43074948Y222689D02*
G01*
X43025857Y222689D01*
X43009494Y217236D01*
X43004041Y211782D01*
X42998585Y200873D01*
X42998585Y189964D01*
X43004041Y179054D01*
X43009494Y173599D01*
X43025857Y168145D01*
X43074948Y168145D02*
G01*
X43025857Y168145D01*
X43009494Y162689D01*
X43004041Y157236D01*
X42998585Y146326D01*
X42998585Y129964D01*
X43004041Y119054D01*
X43009494Y113599D01*
X43025857Y108145D01*
X43074948Y108145D01*
X42962586Y222689D02*
G01*
X42962586Y108145D01*
X42962586Y222689D02*
G01*
X42891676Y222689D01*
X42962586Y168145D02*
G01*
X42918948Y168145D01*
X42962586Y108145D02*
G01*
X42891676Y108145D01*
X42855677Y222689D02*
G01*
X42855677Y108145D01*
X42855677Y222689D02*
G01*
X42806586Y222689D01*
X42790221Y217236D01*
X42784768Y211782D01*
X42779312Y200873D01*
X42779312Y189964D01*
X42784768Y179054D01*
X42790221Y173599D01*
X42806586Y168145D01*
X42855677Y168145D01*
X42817496Y168145D02*
G01*
X42779312Y108145D01*
X42659312Y200873D02*
G01*
X42648403Y206326D01*
X42632040Y222689D01*
X42632040Y108145D01*
X42568769Y222689D02*
G01*
X42585132Y217236D01*
X42590585Y206326D01*
X42590585Y195417D01*
X42585132Y184508D01*
X42574222Y179054D01*
X42552404Y173599D01*
X42536041Y168145D01*
X42525132Y157236D01*
X42519678Y146326D01*
X42519678Y129964D01*
X42525132Y119054D01*
X42530585Y113599D01*
X42546950Y108145D01*
X42568769Y108145D01*
X42585132Y113599D01*
X42590585Y119054D01*
X42596041Y129964D01*
X42596041Y146326D01*
X42590585Y157236D01*
X42579678Y168145D01*
X42563313Y173599D01*
X42541494Y179054D01*
X42530585Y184508D01*
X42525132Y195417D01*
X42525132Y206326D01*
X42530585Y217236D01*
X42546950Y222689D01*
X42568769Y222689D01*
X42407314Y222689D02*
G01*
X42461860Y108145D01*
X42483676Y222689D02*
G01*
X42407314Y222689D01*
X42338586Y222689D02*
G01*
X42354949Y217236D01*
X42365858Y200873D01*
X42371314Y173599D01*
X42371314Y157236D01*
X42365858Y129964D01*
X42354949Y113599D01*
X42338586Y108145D01*
X42327677Y108145D01*
X42311314Y113599D01*
X42300405Y129964D01*
X42294949Y157236D01*
X42294949Y173599D01*
X42300405Y200873D01*
X42311314Y217236D01*
X42327677Y222689D01*
X42338586Y222689D01*
X42258950Y157236D02*
G01*
X42160769Y157236D01*
X42092041Y222689D02*
G01*
X42108404Y217236D01*
X42119313Y200873D01*
X42124769Y173599D01*
X42124769Y157236D01*
X42119313Y129964D01*
X42108404Y113599D01*
X42092041Y108145D01*
X42081132Y108145D01*
X42064769Y113599D01*
X42053860Y129964D01*
X42048404Y157236D01*
X42048404Y173599D01*
X42053860Y200873D01*
X42064769Y217236D01*
X42081132Y222689D01*
X42092041Y222689D01*
X42006951Y195417D02*
G01*
X42006951Y200873D01*
X42001495Y211782D01*
X41996042Y217236D01*
X41985133Y222689D01*
X41963314Y222689D01*
X41952405Y217236D01*
X41946951Y211782D01*
X41941496Y200873D01*
X41941496Y189964D01*
X41946951Y179054D01*
X41957861Y162689D01*
X42012405Y108145D01*
X41936042Y108145D01*
X41867315Y222689D02*
G01*
X41883677Y217236D01*
X41894587Y200873D01*
X41900043Y173599D01*
X41900043Y157236D01*
X41894587Y129964D01*
X41883677Y113599D01*
X41867315Y108145D01*
X41856406Y108145D01*
X41840043Y113599D01*
X41829134Y129964D01*
X41823678Y157236D01*
X41823678Y173599D01*
X41829134Y200873D01*
X41840043Y217236D01*
X41856406Y222689D01*
X41867315Y222689D01*
X41787678Y200873D02*
G01*
X41776769Y206326D01*
X41760406Y222689D01*
X41760406Y108145D01*
X41640406Y222689D02*
G01*
X41596769Y108145D01*
X41553135Y222689D02*
G01*
X41596769Y108145D01*
X41484407Y222689D02*
G01*
X41500770Y217236D01*
X41511679Y200873D01*
X41517133Y173599D01*
X41517133Y157236D01*
X41511679Y129964D01*
X41500770Y113599D01*
X41484407Y108145D01*
X41473498Y108145D01*
X41457133Y113599D01*
X41446226Y129964D01*
X41440770Y157236D01*
X41440770Y173599D01*
X41446226Y200873D01*
X41457133Y217236D01*
X41473498Y222689D01*
X41484407Y222689D01*
X41399315Y135417D02*
G01*
X41404771Y129964D01*
X41399315Y124508D01*
X41393861Y129964D01*
X41399315Y135417D01*
X41352406Y195417D02*
G01*
X41352406Y200873D01*
X41346953Y211782D01*
X41341497Y217236D01*
X41330587Y222689D01*
X41308771Y222689D01*
X41297862Y217236D01*
X41292406Y211782D01*
X41286953Y200873D01*
X41286953Y189964D01*
X41292406Y179054D01*
X41303315Y162689D01*
X41357862Y108145D01*
X41281497Y108145D01*
X43890935Y409526D02*
G01*
X43901845Y420436D01*
X43918207Y425889D01*
X43940026Y425889D01*
X43956389Y420436D01*
X43967298Y409526D01*
X43967298Y398617D01*
X43961845Y387708D01*
X43956389Y382254D01*
X43945479Y376798D01*
X43912751Y365889D01*
X43901845Y360436D01*
X43896389Y354982D01*
X43890935Y344073D01*
X43890935Y327708D01*
X43901845Y316798D01*
X43918207Y311345D01*
X43940026Y311345D01*
X43956389Y316798D01*
X43967298Y327708D01*
X43854933Y425889D02*
G01*
X43854933Y344073D01*
X43849480Y327708D01*
X43838571Y316798D01*
X43822208Y311345D01*
X43811299Y311345D01*
X43794934Y316798D01*
X43784027Y327708D01*
X43778571Y344073D01*
X43778571Y425889D01*
X43742571Y425889D02*
G01*
X43742571Y311345D01*
X43742571Y425889D02*
G01*
X43693481Y425889D01*
X43677116Y420436D01*
X43671662Y414982D01*
X43666209Y404073D01*
X43666209Y393164D01*
X43671662Y382254D01*
X43677116Y376798D01*
X43693481Y371345D01*
X43742571Y371345D02*
G01*
X43693481Y371345D01*
X43677116Y365889D01*
X43671662Y360436D01*
X43666209Y349526D01*
X43666209Y333164D01*
X43671662Y322254D01*
X43677116Y316798D01*
X43693481Y311345D01*
X43742571Y311345D01*
X43553844Y409526D02*
G01*
X43564754Y420436D01*
X43581116Y425889D01*
X43602935Y425889D01*
X43619298Y420436D01*
X43630207Y409526D01*
X43630207Y398617D01*
X43624754Y387708D01*
X43619298Y382254D01*
X43608388Y376798D01*
X43575663Y365889D01*
X43564754Y360436D01*
X43559298Y354982D01*
X43553844Y344073D01*
X43553844Y327708D01*
X43564754Y316798D01*
X43581116Y311345D01*
X43602935Y311345D01*
X43619298Y316798D01*
X43630207Y327708D01*
X43479664Y425889D02*
G01*
X43479664Y311345D01*
X43517845Y425889D02*
G01*
X43441480Y425889D01*
X43361846Y425889D02*
G01*
X43405480Y311345D01*
X43361846Y425889D02*
G01*
X43318209Y311345D01*
X43389118Y349526D02*
G01*
X43334571Y349526D01*
X43244028Y425889D02*
G01*
X43244028Y311345D01*
X43282209Y425889D02*
G01*
X43205844Y425889D01*
X43169845Y425889D02*
G01*
X43169845Y311345D01*
X43101117Y425889D02*
G01*
X43112027Y420436D01*
X43122936Y409526D01*
X43128389Y398617D01*
X43133845Y382254D01*
X43133845Y354982D01*
X43128389Y338617D01*
X43122936Y327708D01*
X43112027Y316798D01*
X43101117Y311345D01*
X43079299Y311345D01*
X43068389Y316798D01*
X43057483Y327708D01*
X43052027Y338617D01*
X43046573Y354982D01*
X43046573Y382254D01*
X43052027Y398617D01*
X43057483Y409526D01*
X43068389Y420436D01*
X43079299Y425889D01*
X43101117Y425889D01*
X43010571Y425889D02*
G01*
X43010571Y311345D01*
X43010571Y425889D02*
G01*
X42934209Y311345D01*
X42934209Y425889D02*
G01*
X42934209Y311345D01*
X42803300Y425889D02*
G01*
X42743300Y425889D01*
X42776028Y382254D01*
X42759665Y382254D01*
X42748756Y376798D01*
X42743300Y371345D01*
X42737846Y354982D01*
X42737846Y344073D01*
X42743300Y327708D01*
X42754209Y316798D01*
X42770572Y311345D01*
X42786937Y311345D01*
X42803300Y316798D01*
X42808756Y322254D01*
X42814209Y333164D01*
X42701847Y425889D02*
G01*
X42701847Y344073D01*
X42696391Y327708D01*
X42685482Y316798D01*
X42669119Y311345D01*
X42658210Y311345D01*
X42641847Y316798D01*
X42630938Y327708D01*
X42625482Y344073D01*
X42625482Y425889D01*
X42461848Y425889D02*
G01*
X42505482Y311345D01*
X42461848Y425889D02*
G01*
X42418210Y311345D01*
X42489120Y349526D02*
G01*
X42434573Y349526D01*
X42382211Y425889D02*
G01*
X42382211Y311345D01*
X42382211Y425889D02*
G01*
X42305846Y311345D01*
X42305846Y425889D02*
G01*
X42305846Y311345D01*
X42269846Y425889D02*
G01*
X42269846Y311345D01*
X42269846Y425889D02*
G01*
X42193484Y311345D01*
X42193484Y425889D02*
G01*
X42193484Y311345D01*
X42157484Y425889D02*
G01*
X42157484Y344073D01*
X42152028Y327708D01*
X42141119Y316798D01*
X42124757Y311345D01*
X42113847Y311345D01*
X42097485Y316798D01*
X42086575Y327708D01*
X42081119Y344073D01*
X42081119Y425889D01*
X42045120Y425889D02*
G01*
X42045120Y311345D01*
X42045120Y425889D02*
G01*
X41968757Y311345D01*
X41968757Y425889D02*
G01*
X41968757Y311345D01*
X41850939Y398617D02*
G01*
X41856393Y409526D01*
X41867302Y420436D01*
X41878211Y425889D01*
X41900030Y425889D01*
X41910939Y420436D01*
X41921849Y409526D01*
X41927302Y398617D01*
X41932755Y382254D01*
X41932755Y354982D01*
X41927302Y338617D01*
X41921849Y327708D01*
X41910939Y316798D01*
X41900030Y311345D01*
X41878211Y311345D01*
X41867302Y316798D01*
X41856393Y327708D01*
X41850939Y338617D01*
X41814937Y425889D02*
G01*
X41814937Y311345D01*
X41735303Y425889D02*
G01*
X41778938Y311345D01*
X41735303Y425889D02*
G01*
X41691666Y311345D01*
X41762575Y349526D02*
G01*
X41708029Y349526D01*
X41617485Y425889D02*
G01*
X41617485Y311345D01*
X41655667Y425889D02*
G01*
X41579302Y425889D01*
X41510574Y425889D02*
G01*
X41521484Y420436D01*
X41532393Y409526D01*
X41537849Y398617D01*
X41543302Y382254D01*
X41543302Y354982D01*
X41537849Y338617D01*
X41532393Y327708D01*
X41521484Y316798D01*
X41510574Y311345D01*
X41488758Y311345D01*
X41477849Y316798D01*
X41466940Y327708D01*
X41461484Y338617D01*
X41456030Y354982D01*
X41456030Y382254D01*
X41461484Y398617D01*
X41466940Y409526D01*
X41477849Y420436D01*
X41488758Y425889D01*
X41510574Y425889D01*
X41420031Y425889D02*
G01*
X41420031Y311345D01*
X41420031Y425889D02*
G01*
X41370940Y425889D01*
X41354575Y420436D01*
X41349122Y414982D01*
X41343666Y404073D01*
X41343666Y393164D01*
X41349122Y382254D01*
X41354575Y376798D01*
X41370940Y371345D01*
X41420031Y371345D01*
X41381850Y371345D02*
G01*
X41343666Y311345D01*
X41147304Y409526D02*
G01*
X41158213Y420436D01*
X41174576Y425889D01*
X41196394Y425889D01*
X41212757Y420436D01*
X41223666Y409526D01*
X41223666Y398617D01*
X41218213Y387708D01*
X41212757Y382254D01*
X41201850Y376798D01*
X41169122Y365889D01*
X41158213Y360436D01*
X41152757Y354982D01*
X41147304Y344073D01*
X41147304Y327708D01*
X41158213Y316798D01*
X41174576Y311345D01*
X41196394Y311345D01*
X41212757Y316798D01*
X41223666Y327708D01*
X41111304Y425889D02*
G01*
X41111304Y311345D01*
X41111304Y425889D02*
G01*
X41062214Y425889D01*
X41045848Y420436D01*
X41040395Y414982D01*
X41034939Y404073D01*
X41034939Y387708D01*
X41040395Y376798D01*
X41045848Y371345D01*
X41062214Y365889D01*
X41111304Y365889D01*
X40955305Y425889D02*
G01*
X40998940Y311345D01*
X40955305Y425889D02*
G01*
X40911668Y311345D01*
X40982577Y349526D02*
G01*
X40928030Y349526D01*
X40793850Y398617D02*
G01*
X40799303Y409526D01*
X40810213Y420436D01*
X40821122Y425889D01*
X40842940Y425889D01*
X40853850Y420436D01*
X40864759Y409526D01*
X40870212Y398617D01*
X40875668Y382254D01*
X40875668Y354982D01*
X40870212Y338617D01*
X40864759Y327708D01*
X40853850Y316798D01*
X40842940Y311345D01*
X40821122Y311345D01*
X40810213Y316798D01*
X40799303Y327708D01*
X40793850Y338617D01*
X40757850Y425889D02*
G01*
X40757850Y311345D01*
X40757850Y425889D02*
G01*
X40686941Y425889D01*
X40757850Y371345D02*
G01*
X40714213Y371345D01*
X40757850Y311345D02*
G01*
X40686941Y311345D01*
X40650942Y425889D02*
G01*
X40650942Y311345D01*
X40650942Y425889D02*
G01*
X40601851Y425889D01*
X40585486Y420436D01*
X40580033Y414982D01*
X40574577Y404073D01*
X40574577Y393164D01*
X40580033Y382254D01*
X40585486Y376798D01*
X40601851Y371345D01*
X40650942Y371345D01*
X40612758Y371345D02*
G01*
X40574577Y311345D01*
X40454577Y360436D02*
G01*
X40356396Y360436D01*
X40236396Y425889D02*
G01*
X40236396Y311345D01*
X40236396Y425889D02*
G01*
X40187305Y425889D01*
X40170943Y420436D01*
X40165487Y414982D01*
X40160033Y404073D01*
X40160033Y393164D01*
X40165487Y382254D01*
X40170943Y376798D01*
X40187305Y371345D01*
X40236396Y371345D02*
G01*
X40187305Y371345D01*
X40170943Y365889D01*
X40165487Y360436D01*
X40160033Y349526D01*
X40160033Y333164D01*
X40165487Y322254D01*
X40170943Y316798D01*
X40187305Y311345D01*
X40236396Y311345D01*
X40091306Y425889D02*
G01*
X40102215Y420436D01*
X40113125Y409526D01*
X40118578Y398617D01*
X40124034Y382254D01*
X40124034Y354982D01*
X40118578Y338617D01*
X40113125Y327708D01*
X40102215Y316798D01*
X40091306Y311345D01*
X40069488Y311345D01*
X40058578Y316798D01*
X40047669Y327708D01*
X40042216Y338617D01*
X40036760Y354982D01*
X40036760Y382254D01*
X40042216Y398617D01*
X40047669Y409526D01*
X40058578Y420436D01*
X40069488Y425889D01*
X40091306Y425889D01*
X39962579Y425889D02*
G01*
X39962579Y311345D01*
X40000760Y425889D02*
G01*
X39924398Y425889D01*
X39850214Y425889D02*
G01*
X39850214Y311345D01*
X39888396Y425889D02*
G01*
X39812033Y425889D01*
X39743306Y425889D02*
G01*
X39754215Y420436D01*
X39765124Y409526D01*
X39770578Y398617D01*
X39776034Y382254D01*
X39776034Y354982D01*
X39770578Y338617D01*
X39765124Y327708D01*
X39754215Y316798D01*
X39743306Y311345D01*
X39721487Y311345D01*
X39710578Y316798D01*
X39699671Y327708D01*
X39694215Y338617D01*
X39688762Y354982D01*
X39688762Y382254D01*
X39694215Y398617D01*
X39699671Y409526D01*
X39710578Y420436D01*
X39721487Y425889D01*
X39743306Y425889D01*
X39652760Y425889D02*
G01*
X39652760Y311345D01*
X39652760Y425889D02*
G01*
X39609125Y311345D01*
X39565488Y425889D02*
G01*
X39609125Y311345D01*
X39565488Y425889D02*
G01*
X39565488Y311345D01*
D11*
X38784580Y445546D02*
G01*
X38784580Y362419D01*
X38789777Y346831D01*
X38794971Y341637D01*
X38805363Y336443D01*
X38815754Y336443D01*
X38826145Y341637D01*
X38831342Y346831D01*
X38836536Y362419D01*
X38836536Y372811D01*
X38750290Y445546D02*
G01*
X38750290Y336443D01*
X38750290Y336443D02*
G01*
X38687946Y336443D01*
X38575724Y419569D02*
G01*
X38580921Y429961D01*
X38591312Y440352D01*
X38601700Y445546D01*
X38622483Y445546D01*
X38632874Y440352D01*
X38643265Y429961D01*
X38648462Y419569D01*
X38653656Y403981D01*
X38653656Y378005D01*
X38648462Y362419D01*
X38643265Y352028D01*
X38632874Y341637D01*
X38622483Y336443D01*
X38601700Y336443D01*
X38591312Y341637D01*
X38580921Y352028D01*
X38575724Y362419D01*
X38489481Y445546D02*
G01*
X38489481Y362419D01*
X38494675Y346831D01*
X38499872Y341637D01*
X38510260Y336443D01*
X38520651Y336443D01*
X38531043Y341637D01*
X38536239Y346831D01*
X38541434Y362419D01*
X38541434Y372811D01*
X38455191Y445546D02*
G01*
X38455191Y336443D01*
X38455191Y336443D02*
G01*
X38392844Y336443D01*
X38280621Y419569D02*
G01*
X38285818Y429961D01*
X38296209Y440352D01*
X38306601Y445546D01*
X38327380Y445546D01*
X38337771Y440352D01*
X38348163Y429961D01*
X38353359Y419569D01*
X38358554Y403981D01*
X38358554Y378005D01*
X38353359Y362419D01*
X38348163Y352028D01*
X38337771Y341637D01*
X38327380Y336443D01*
X38306601Y336443D01*
X38296209Y341637D01*
X38285818Y352028D01*
X38280621Y362419D01*
X38194378Y445546D02*
G01*
X38194378Y362419D01*
X38199573Y346831D01*
X38204769Y341637D01*
X38215161Y336443D01*
X38225552Y336443D01*
X38235940Y341637D01*
X38241137Y346831D01*
X38246331Y362419D01*
X38246331Y372811D01*
X38160088Y445546D02*
G01*
X38160088Y336443D01*
X38160088Y336443D02*
G01*
X38097741Y336443D01*
X37985522Y419569D02*
G01*
X37990716Y429961D01*
X38001107Y440352D01*
X38011498Y445546D01*
X38032281Y445546D01*
X38042672Y440352D01*
X38053060Y429961D01*
X38058257Y419569D01*
X38063451Y403981D01*
X38063451Y378005D01*
X38058257Y362419D01*
X38053060Y352028D01*
X38042672Y341637D01*
X38032281Y336443D01*
X38011498Y336443D01*
X38001107Y341637D01*
X37990716Y352028D01*
X37985522Y362419D01*
X37899276Y445546D02*
G01*
X37899276Y362419D01*
X37904470Y346831D01*
X37909667Y341637D01*
X37920058Y336443D01*
X37930449Y336443D01*
X37940841Y341637D01*
X37946035Y346831D01*
X37951232Y362419D01*
X37951232Y372811D01*
X37864986Y445546D02*
G01*
X37864986Y336443D01*
X37864986Y336443D02*
G01*
X37802642Y336443D01*
X37690419Y419569D02*
G01*
X37695614Y429961D01*
X37706005Y440352D01*
X37716396Y445546D01*
X37737178Y445546D01*
X37747569Y440352D01*
X37757961Y429961D01*
X37763155Y419569D01*
X37768352Y403981D01*
X37768352Y378005D01*
X37763155Y362419D01*
X37757961Y352028D01*
X37747569Y341637D01*
X37737178Y336443D01*
X37716396Y336443D01*
X37706005Y341637D01*
X37695614Y352028D01*
X37690419Y362419D01*
M02*
