G04 Layer: TopSilkscreenLayer*
G04 EasyEDA v6.5.34, 2023-08-21 18:11:39*
G04 69f12b32e1f2471e8f8ee6d1f76a66ce,5a6b42c53f6a479593ecc07194224c93,10*
G04 Gerber Generator version 0.2*
G04 Scale: 100 percent, Rotated: No, Reflected: No *
G04 Dimensions in millimeters *
G04 leading zeros omitted , absolute positions ,4 integer and 5 decimal *
%FSLAX45Y45*%
%MOMM*%

%ADD10C,0.2032*%
%ADD11C,0.2540*%
%ADD12C,1.0000*%
%ADD13C,0.5000*%

%LPD*%
D10*
X40067270Y844603D02*
G01*
X40058126Y863145D01*
X40039584Y881687D01*
X40021042Y890831D01*
X39984212Y890831D01*
X39965670Y881687D01*
X39947382Y863145D01*
X39937984Y844603D01*
X39928840Y816917D01*
X39928840Y770689D01*
X39937984Y743003D01*
X39947382Y724715D01*
X39965670Y706173D01*
X39984212Y696775D01*
X40021042Y696775D01*
X40039584Y706173D01*
X40058126Y724715D01*
X40067270Y743003D01*
X40128230Y890831D02*
G01*
X40128230Y696775D01*
X40128230Y696775D02*
G01*
X40239228Y696775D01*
X40355560Y890831D02*
G01*
X40337018Y881687D01*
X40318476Y863145D01*
X40309332Y844603D01*
X40300188Y816917D01*
X40300188Y770689D01*
X40309332Y743003D01*
X40318476Y724715D01*
X40337018Y706173D01*
X40355560Y696775D01*
X40392390Y696775D01*
X40410932Y706173D01*
X40429474Y724715D01*
X40438618Y743003D01*
X40447762Y770689D01*
X40447762Y816917D01*
X40438618Y844603D01*
X40429474Y863145D01*
X40410932Y881687D01*
X40392390Y890831D01*
X40355560Y890831D01*
X40638262Y863145D02*
G01*
X40619720Y881687D01*
X40592034Y890831D01*
X40554950Y890831D01*
X40527264Y881687D01*
X40508722Y863145D01*
X40508722Y844603D01*
X40518120Y826315D01*
X40527264Y816917D01*
X40545806Y807773D01*
X40601178Y789231D01*
X40619720Y780087D01*
X40628864Y770689D01*
X40638262Y752401D01*
X40638262Y724715D01*
X40619720Y706173D01*
X40592034Y696775D01*
X40554950Y696775D01*
X40527264Y706173D01*
X40508722Y724715D01*
X40699222Y890831D02*
G01*
X40699222Y696775D01*
X40699222Y890831D02*
G01*
X40819110Y890831D01*
X40699222Y798375D02*
G01*
X40772882Y798375D01*
X40699222Y696775D02*
G01*
X40819110Y696775D01*
X38288287Y890831D02*
G01*
X38269745Y881687D01*
X38251203Y863145D01*
X38242059Y844603D01*
X38232915Y816917D01*
X38232915Y770689D01*
X38242059Y743003D01*
X38251203Y724715D01*
X38269745Y706173D01*
X38288287Y696775D01*
X38325117Y696775D01*
X38343659Y706173D01*
X38362201Y724715D01*
X38371345Y743003D01*
X38380489Y770689D01*
X38380489Y816917D01*
X38371345Y844603D01*
X38362201Y863145D01*
X38343659Y881687D01*
X38325117Y890831D01*
X38288287Y890831D01*
X38441449Y890831D02*
G01*
X38441449Y696775D01*
X38441449Y890831D02*
G01*
X38524761Y890831D01*
X38552447Y881687D01*
X38561591Y872289D01*
X38570735Y854001D01*
X38570735Y826315D01*
X38561591Y807773D01*
X38552447Y798375D01*
X38524761Y789231D01*
X38441449Y789231D01*
X38631695Y890831D02*
G01*
X38631695Y696775D01*
X38631695Y890831D02*
G01*
X38751837Y890831D01*
X38631695Y798375D02*
G01*
X38705609Y798375D01*
X38631695Y696775D02*
G01*
X38751837Y696775D01*
X38812797Y890831D02*
G01*
X38812797Y696775D01*
X38812797Y890831D02*
G01*
X38942083Y696775D01*
X38942083Y890831D02*
G01*
X38942083Y696775D01*
X40254120Y2622382D02*
G01*
X40244976Y2640924D01*
X40226434Y2659466D01*
X40208146Y2668610D01*
X40171062Y2668610D01*
X40152520Y2659466D01*
X40134232Y2640924D01*
X40124834Y2622382D01*
X40115690Y2594696D01*
X40115690Y2548722D01*
X40124834Y2520782D01*
X40134232Y2502494D01*
X40152520Y2483952D01*
X40171062Y2474808D01*
X40208146Y2474808D01*
X40226434Y2483952D01*
X40244976Y2502494D01*
X40254120Y2520782D01*
X40254120Y2548722D01*
X40208146Y2548722D02*
G01*
X40254120Y2548722D01*
X40315080Y2668610D02*
G01*
X40315080Y2474808D01*
X40315080Y2668610D02*
G01*
X40444620Y2474808D01*
X40444620Y2668610D02*
G01*
X40444620Y2474808D01*
X40505580Y2668610D02*
G01*
X40505580Y2474808D01*
X40505580Y2668610D02*
G01*
X40570096Y2668610D01*
X40597782Y2659466D01*
X40616324Y2640924D01*
X40625468Y2622382D01*
X40634866Y2594696D01*
X40634866Y2548722D01*
X40625468Y2520782D01*
X40616324Y2502494D01*
X40597782Y2483952D01*
X40570096Y2474808D01*
X40505580Y2474808D01*
X38475716Y2622550D02*
G01*
X38466572Y2641092D01*
X38448030Y2659634D01*
X38429742Y2668778D01*
X38392658Y2668778D01*
X38374116Y2659634D01*
X38355828Y2641092D01*
X38346430Y2622550D01*
X38337286Y2594863D01*
X38337286Y2548889D01*
X38346430Y2520950D01*
X38355828Y2502662D01*
X38374116Y2484120D01*
X38392658Y2474976D01*
X38429742Y2474976D01*
X38448030Y2484120D01*
X38466572Y2502662D01*
X38475716Y2520950D01*
X38475716Y2548889D01*
X38429742Y2548889D02*
G01*
X38475716Y2548889D01*
X38536676Y2668778D02*
G01*
X38536676Y2474976D01*
X38536676Y2668778D02*
G01*
X38666216Y2474976D01*
X38666216Y2668778D02*
G01*
X38666216Y2474976D01*
X38727176Y2668778D02*
G01*
X38727176Y2474976D01*
X38727176Y2668778D02*
G01*
X38791692Y2668778D01*
X38819378Y2659634D01*
X38837920Y2641092D01*
X38847064Y2622550D01*
X38856462Y2594863D01*
X38856462Y2548889D01*
X38847064Y2520950D01*
X38837920Y2502662D01*
X38819378Y2484120D01*
X38791692Y2474976D01*
X38727176Y2474976D01*
X39133411Y8920734D02*
G01*
X39299527Y8920734D01*
X39415859Y9031478D02*
G01*
X39397571Y9022334D01*
X39379029Y9003792D01*
X39369885Y8985250D01*
X39360487Y8957563D01*
X39360487Y8911589D01*
X39369885Y8883650D01*
X39379029Y8865362D01*
X39397571Y8846820D01*
X39415859Y8837676D01*
X39452943Y8837676D01*
X39471485Y8846820D01*
X39489773Y8865362D01*
X39499171Y8883650D01*
X39508315Y8911589D01*
X39508315Y8957563D01*
X39499171Y8985250D01*
X39489773Y9003792D01*
X39471485Y9022334D01*
X39452943Y9031478D01*
X39415859Y9031478D01*
X39443545Y8874505D02*
G01*
X39499171Y8819134D01*
X39578419Y8985250D02*
G01*
X39578419Y8994647D01*
X39587817Y9013189D01*
X39596961Y9022334D01*
X39615503Y9031478D01*
X39652333Y9031478D01*
X39670875Y9022334D01*
X39680019Y9013189D01*
X39689417Y8994647D01*
X39689417Y8976105D01*
X39680019Y8957563D01*
X39661731Y8929878D01*
X39569275Y8837676D01*
X39698561Y8837676D01*
X39759521Y8994647D02*
G01*
X39778063Y9003792D01*
X39805749Y9031478D01*
X39805749Y8837676D01*
X39347635Y4540250D02*
G01*
X39347635Y4549647D01*
X39357033Y4568189D01*
X39366177Y4577334D01*
X39384719Y4586478D01*
X39421549Y4586478D01*
X39440091Y4577334D01*
X39449235Y4568189D01*
X39458633Y4549647D01*
X39458633Y4531105D01*
X39449235Y4512563D01*
X39430947Y4484878D01*
X39338491Y4392676D01*
X39467777Y4392676D01*
X39648879Y4521962D02*
G01*
X39639481Y4494276D01*
X39621193Y4475734D01*
X39593507Y4466589D01*
X39584109Y4466589D01*
X39556423Y4475734D01*
X39537881Y4494276D01*
X39528737Y4521962D01*
X39528737Y4531105D01*
X39537881Y4558792D01*
X39556423Y4577334D01*
X39584109Y4586478D01*
X39593507Y4586478D01*
X39621193Y4577334D01*
X39639481Y4558792D01*
X39648879Y4521962D01*
X39648879Y4475734D01*
X39639481Y4429505D01*
X39621193Y4401820D01*
X39593507Y4392676D01*
X39574965Y4392676D01*
X39547279Y4401820D01*
X39537881Y4420362D01*
X40363635Y4586478D02*
G01*
X40271433Y4586478D01*
X40262035Y4503420D01*
X40271433Y4512563D01*
X40299119Y4521962D01*
X40326805Y4521962D01*
X40354491Y4512563D01*
X40373033Y4494276D01*
X40382177Y4466589D01*
X40382177Y4448047D01*
X40373033Y4420362D01*
X40354491Y4401820D01*
X40326805Y4392676D01*
X40299119Y4392676D01*
X40271433Y4401820D01*
X40262035Y4410963D01*
X40252891Y4429505D01*
X40572423Y4586478D02*
G01*
X40480221Y4392676D01*
X40443137Y4586478D02*
G01*
X40572423Y4586478D01*
X38572935Y4586478D02*
G01*
X38480733Y4586478D01*
X38471335Y4503420D01*
X38480733Y4512563D01*
X38508419Y4521962D01*
X38536105Y4521962D01*
X38563791Y4512563D01*
X38582333Y4494276D01*
X38591477Y4466589D01*
X38591477Y4448047D01*
X38582333Y4420362D01*
X38563791Y4401820D01*
X38536105Y4392676D01*
X38508419Y4392676D01*
X38480733Y4401820D01*
X38471335Y4410963D01*
X38462191Y4429505D01*
X38781723Y4586478D02*
G01*
X38689521Y4392676D01*
X38652437Y4586478D02*
G01*
X38781723Y4586478D01*
X46685200Y4920234D02*
G01*
X46851570Y4920234D01*
X46912529Y5030978D02*
G01*
X46958504Y4837176D01*
X47004732Y5030978D02*
G01*
X46958504Y4837176D01*
X47004732Y5030978D02*
G01*
X47050959Y4837176D01*
X47097188Y5030978D02*
G01*
X47050959Y4837176D01*
X47158148Y4994147D02*
G01*
X47176690Y5003292D01*
X47204375Y5030978D01*
X47204375Y4837176D01*
X47274479Y4984750D02*
G01*
X47274479Y4994147D01*
X47283624Y5012689D01*
X47293022Y5021834D01*
X47311309Y5030978D01*
X47348393Y5030978D01*
X47366936Y5021834D01*
X47376079Y5012689D01*
X47385224Y4994147D01*
X47385224Y4975605D01*
X47376079Y4957063D01*
X47357538Y4929378D01*
X47265336Y4837176D01*
X47394622Y4837176D01*
G36*
X47746716Y7632700D02*
G01*
X47721316Y7607300D01*
X47816566Y7499350D01*
X47721316Y7391400D01*
X47746716Y7366000D01*
X47867366Y7499350D01*
G37*
G36*
X47749866Y5772150D02*
G01*
X47724466Y5746750D01*
X47819716Y5638800D01*
X47724466Y5530850D01*
X47749866Y5505450D01*
X47870516Y5638800D01*
G37*
G36*
X47749866Y6724650D02*
G01*
X47724466Y6699250D01*
X47819716Y6591300D01*
X47724466Y6483350D01*
X47749866Y6457950D01*
X47870516Y6591300D01*
G37*
G36*
X13928750Y5391150D02*
G01*
X13808100Y5257800D01*
X13928750Y5124450D01*
X13954150Y5149850D01*
X13858900Y5257800D01*
X13954150Y5365750D01*
G37*
G36*
X13928750Y7245350D02*
G01*
X13808100Y7112000D01*
X13928750Y6978650D01*
X13954150Y7004050D01*
X13858900Y7112000D01*
X13954150Y7219950D01*
G37*
G36*
X13919200Y6324600D02*
G01*
X13798550Y6191250D01*
X13919200Y6057900D01*
X13944600Y6083300D01*
X13849350Y6191250D01*
X13944600Y6299200D01*
G37*
D11*
X37566600Y228600D02*
G01*
X10680700Y228600D01*
X44453695Y228600D02*
G01*
X37566600Y228600D01*
X37566600Y355600D01*
X45444295Y355600D02*
G01*
X45444295Y228600D01*
X45444295Y228600D02*
G01*
X44453695Y228600D01*
X37566600Y12573000D02*
G01*
X10668000Y12573000D01*
X44466395Y12573000D02*
G01*
X37566600Y12573000D01*
X37566600Y12446000D01*
X45456995Y12446000D02*
G01*
X45456995Y12573000D01*
X45456995Y12573000D02*
G01*
X44466395Y12573000D01*
D12*
X44462700Y5257800D02*
G01*
X44831000Y5626100D01*
X44462700Y6210300D02*
G01*
X44831000Y6578600D01*
X44450000Y7124700D02*
G01*
X44818300Y7493000D01*
D13*
X39753603Y8013700D02*
G01*
X40261603Y8013700D01*
X38737603Y8013700D02*
G01*
X39245603Y8013700D01*
X39753603Y8013700D02*
G01*
X39359903Y7759700D01*
X39245603Y8140700D02*
G01*
X39245603Y7874000D01*
D11*
X37937503Y5499100D02*
G01*
X37937503Y5295900D01*
X37937503Y6438900D02*
G01*
X37937503Y6235700D01*
X37937503Y7353300D02*
G01*
X37937503Y7150100D01*
X37937503Y6591300D02*
G01*
X37937503Y6883400D01*
X37937503Y5651500D02*
G01*
X37937503Y5943600D01*
X38229603Y5410200D02*
G01*
X38229603Y5943600D01*
X38229603Y6350000D02*
G01*
X38229603Y6883400D01*
X37937503Y7505700D02*
G01*
X37937503Y7797800D01*
X38229603Y7264400D02*
G01*
X38229603Y7797800D01*
G75*
G01*
X38128004Y7264400D02*
G03*
X38228003Y7264400I49999J0D01*
G75*
G01*
X38229604Y7264400D02*
G03*
X38329603Y7264400I49999J0D01*
G75*
G01*
X37937504Y7505700D02*
G03*
X38037503Y7505700I49999J0D01*
G75*
G01*
X37835904Y7505700D02*
G03*
X37935903Y7505700I49999J0D01*
G75*
G01*
X38039104Y7353300D02*
G03*
X37939104Y7353300I-50000J0D01*
G75*
G01*
X37937504Y7353300D02*
G03*
X37837504Y7353300I-50000J0D01*
G75*
G01*
X37937504Y6438900D02*
G03*
X37837504Y6438900I-50000J0D01*
G75*
G01*
X38039104Y6438900D02*
G03*
X37939104Y6438900I-50000J0D01*
G75*
G01*
X37835904Y6591300D02*
G03*
X37935903Y6591300I49999J0D01*
G75*
G01*
X37937504Y6591300D02*
G03*
X38037503Y6591300I49999J0D01*
G75*
G01*
X38229604Y6350000D02*
G03*
X38329603Y6350000I49999J0D01*
G75*
G01*
X38128004Y6350000D02*
G03*
X38228003Y6350000I49999J0D01*
G75*
G01*
X37937504Y5499100D02*
G03*
X37837504Y5499100I-50000J0D01*
G75*
G01*
X38039104Y5499100D02*
G03*
X37939104Y5499100I-50000J0D01*
G75*
G01*
X37835904Y5651500D02*
G03*
X37935903Y5651500I49999J0D01*
G75*
G01*
X37937504Y5651500D02*
G03*
X38037503Y5651500I49999J0D01*
G75*
G01*
X38229604Y5410200D02*
G03*
X38329603Y5410200I49999J0D01*
G75*
G01*
X38128004Y5410200D02*
G03*
X38228003Y5410200I49999J0D01*
G75*
G01
X39808404Y4483100D02*
G03X39808404Y4483100I-317500J0D01*
G75*
G01
X40722804Y4483100D02*
G03X40722804Y4483100I-317500J0D01*
G75*
G01
X38932104Y4483100D02*
G03X38932104Y4483100I-317500J0D01*
G36*
X13849984Y7156373D02*
G01*
X44449923Y7156373D01*
X44449923Y7067473D01*
X13849984Y7067473D01*
G37*
G36*
X13849984Y6235700D02*
G01*
X44449923Y6235700D01*
X44449923Y6146800D01*
X13849984Y6146800D01*
G37*
G36*
X13849984Y5299633D02*
G01*
X44449923Y5299633D01*
X44449923Y5210733D01*
X13849984Y5210733D01*
G37*
G36*
X44824319Y5683808D02*
G01*
X47824313Y5683808D01*
X47824313Y5594908D01*
X44824319Y5594908D01*
G37*
G36*
X44824319Y6633794D02*
G01*
X47824313Y6633794D01*
X47824313Y6544894D01*
X44824319Y6544894D01*
G37*
G36*
X44824319Y7543800D02*
G01*
X47824313Y7543800D01*
X47824313Y7454900D01*
X44824319Y7454900D01*
G37*
D13*
X38559816Y7493000D02*
G01*
X40439416Y7493000D01*
X40439416Y5003800D01*
X38559816Y5003800D01*
X38559816Y7493000D01*
M02*
