G04 Layer: BottomSolderMaskLayer*
G04 EasyEDA v6.5.34, 2023-08-21 18:11:39*
G04 0b5495aba37e4bba8a70f578eb7d8193,5a6b42c53f6a479593ecc07194224c93,10*
G04 Gerber Generator version 0.2*
G04 Scale: 100 percent, Rotated: No, Reflected: No *
G04 Dimensions in millimeters *
G04 leading zeros omitted , absolute positions ,4 integer and 5 decimal *
%FSLAX45Y45*%
%MOMM*%

%ADD10C,0.0001*%

%LPD*%
G36*
X16369487Y8117941D02*
G01*
X16360241Y8117331D01*
X16351148Y8115909D01*
X16342207Y8113674D01*
X16337788Y8112302D01*
X16329202Y8108899D01*
X16320973Y8104784D01*
X16313099Y8099907D01*
X16305733Y8094421D01*
X16298875Y8088274D01*
X16292576Y8081518D01*
X16286886Y8074253D01*
X16281857Y8066481D01*
X16277539Y8058353D01*
X16273983Y8049869D01*
X16271138Y8041081D01*
X16269106Y8032038D01*
X16267887Y8022894D01*
X16267480Y8013700D01*
X16267887Y8004505D01*
X16269106Y7995361D01*
X16271138Y7986318D01*
X16273983Y7977530D01*
X16277539Y7969046D01*
X16281857Y7960918D01*
X16286886Y7953146D01*
X16292576Y7945881D01*
X16298875Y7939125D01*
X16305733Y7932978D01*
X16313099Y7927492D01*
X16320973Y7922615D01*
X16329202Y7918500D01*
X16337788Y7915097D01*
X16346627Y7912506D01*
X16355669Y7910677D01*
X16364864Y7909661D01*
X16374059Y7909458D01*
X16383304Y7910068D01*
X16392398Y7911490D01*
X16401338Y7913725D01*
X16405758Y7915097D01*
X16414343Y7918500D01*
X16422573Y7922615D01*
X16430447Y7927492D01*
X16437813Y7932978D01*
X16444671Y7939125D01*
X16451021Y7945881D01*
X16456660Y7953146D01*
X16461689Y7960918D01*
X16466007Y7969046D01*
X16469613Y7977530D01*
X16472407Y7986318D01*
X16474440Y7995361D01*
X16475659Y8004505D01*
X16476065Y8013700D01*
X16475659Y8022894D01*
X16474440Y8032038D01*
X16472407Y8041081D01*
X16469613Y8049869D01*
X16466007Y8058353D01*
X16461689Y8066481D01*
X16456660Y8074253D01*
X16451021Y8081518D01*
X16444671Y8088274D01*
X16437813Y8094421D01*
X16430447Y8099907D01*
X16422573Y8104784D01*
X16414343Y8108899D01*
X16405758Y8112302D01*
X16396919Y8114893D01*
X16387876Y8116722D01*
X16378682Y8117738D01*
G37*
G36*
X24055882Y8117941D02*
G01*
X24046688Y8117331D01*
X24037594Y8115909D01*
X24028603Y8113674D01*
X24024234Y8112302D01*
X24015649Y8108899D01*
X24007368Y8104784D01*
X23999545Y8099907D01*
X23992128Y8094421D01*
X23985270Y8088274D01*
X23978971Y8081518D01*
X23973282Y8074253D01*
X23968252Y8066481D01*
X23963934Y8058353D01*
X23960378Y8049869D01*
X23958854Y8045500D01*
X23956467Y8036559D01*
X23954841Y8027517D01*
X23954028Y8018322D01*
X23954028Y8009077D01*
X23954841Y7999882D01*
X23956467Y7990840D01*
X23958854Y7981899D01*
X23962055Y7973263D01*
X23966017Y7964931D01*
X23970691Y7956956D01*
X23976076Y7949438D01*
X23982070Y7942427D01*
X23988623Y7935975D01*
X23995786Y7930134D01*
X24003406Y7924952D01*
X24011483Y7920481D01*
X24019916Y7916722D01*
X24024234Y7915097D01*
X24033073Y7912506D01*
X24042116Y7910677D01*
X24051260Y7909661D01*
X24060505Y7909458D01*
X24069700Y7910068D01*
X24078844Y7911490D01*
X24087785Y7913725D01*
X24096522Y7916722D01*
X24104904Y7920481D01*
X24112982Y7924952D01*
X24120602Y7930134D01*
X24127764Y7935975D01*
X24134318Y7942427D01*
X24140363Y7949438D01*
X24145697Y7956956D01*
X24150370Y7964931D01*
X24154333Y7973263D01*
X24157533Y7981899D01*
X24159921Y7990840D01*
X24161546Y7999882D01*
X24162359Y8009077D01*
X24162359Y8018322D01*
X24161546Y8027517D01*
X24159921Y8036559D01*
X24157533Y8045500D01*
X24154333Y8054136D01*
X24150370Y8062468D01*
X24145697Y8070443D01*
X24140363Y8077962D01*
X24134318Y8084972D01*
X24127764Y8091424D01*
X24120602Y8097266D01*
X24112982Y8102447D01*
X24104904Y8106918D01*
X24096522Y8110677D01*
X24087785Y8113674D01*
X24078844Y8115909D01*
X24069700Y8117331D01*
X24060505Y8117941D01*
G37*
G36*
X31742278Y8117941D02*
G01*
X31733083Y8117331D01*
X31723990Y8115909D01*
X31714998Y8113674D01*
X31710630Y8112302D01*
X31702044Y8108899D01*
X31693764Y8104784D01*
X31685941Y8099907D01*
X31678524Y8094421D01*
X31671666Y8088274D01*
X31665367Y8081518D01*
X31659677Y8074253D01*
X31654648Y8066481D01*
X31650330Y8058353D01*
X31646774Y8049869D01*
X31645250Y8045500D01*
X31642862Y8036559D01*
X31641237Y8027517D01*
X31640424Y8018322D01*
X31640424Y8009077D01*
X31641237Y7999882D01*
X31642862Y7990840D01*
X31645250Y7981899D01*
X31648450Y7973263D01*
X31652413Y7964931D01*
X31657086Y7956956D01*
X31662471Y7949438D01*
X31668465Y7942427D01*
X31675019Y7935975D01*
X31682182Y7930134D01*
X31689802Y7924952D01*
X31697879Y7920481D01*
X31706312Y7916722D01*
X31710630Y7915097D01*
X31719469Y7912506D01*
X31728511Y7910677D01*
X31737655Y7909661D01*
X31746901Y7909458D01*
X31756096Y7910068D01*
X31765239Y7911490D01*
X31774180Y7913725D01*
X31782918Y7916722D01*
X31791300Y7920481D01*
X31799377Y7924952D01*
X31806997Y7930134D01*
X31814160Y7935975D01*
X31820713Y7942427D01*
X31826758Y7949438D01*
X31832092Y7956956D01*
X31836766Y7964931D01*
X31840728Y7973263D01*
X31843929Y7981899D01*
X31846316Y7990840D01*
X31847942Y7999882D01*
X31848755Y8009077D01*
X31848755Y8018322D01*
X31847942Y8027517D01*
X31846316Y8036559D01*
X31843929Y8045500D01*
X31840728Y8054136D01*
X31836766Y8062468D01*
X31832092Y8070443D01*
X31826758Y8077962D01*
X31820713Y8084972D01*
X31814160Y8091424D01*
X31806997Y8097266D01*
X31799377Y8102447D01*
X31791300Y8106918D01*
X31782918Y8110677D01*
X31774180Y8113674D01*
X31765239Y8115909D01*
X31756096Y8117331D01*
X31746901Y8117941D01*
G37*
G36*
X35585501Y8117941D02*
G01*
X35576256Y8117331D01*
X35567162Y8115909D01*
X35558222Y8113674D01*
X35553802Y8112302D01*
X35545217Y8108899D01*
X35536987Y8104784D01*
X35529113Y8099907D01*
X35521747Y8094421D01*
X35514889Y8088274D01*
X35508590Y8081518D01*
X35502900Y8074253D01*
X35497871Y8066481D01*
X35493553Y8058353D01*
X35489997Y8049869D01*
X35487152Y8041081D01*
X35485120Y8032038D01*
X35483901Y8022894D01*
X35483495Y8013700D01*
X35483901Y8004505D01*
X35485120Y7995361D01*
X35487152Y7986318D01*
X35489997Y7977530D01*
X35493553Y7969046D01*
X35497871Y7960918D01*
X35502900Y7953146D01*
X35508590Y7945881D01*
X35514889Y7939125D01*
X35521747Y7932978D01*
X35529113Y7927492D01*
X35536987Y7922615D01*
X35545217Y7918500D01*
X35553802Y7915097D01*
X35562641Y7912506D01*
X35571684Y7910677D01*
X35580878Y7909661D01*
X35590073Y7909458D01*
X35599319Y7910068D01*
X35608412Y7911490D01*
X35617353Y7913725D01*
X35621772Y7915097D01*
X35630358Y7918500D01*
X35638587Y7922615D01*
X35646461Y7927492D01*
X35653827Y7932978D01*
X35660685Y7939125D01*
X35667035Y7945881D01*
X35672674Y7953146D01*
X35677703Y7960918D01*
X35682021Y7969046D01*
X35685628Y7977530D01*
X35688422Y7986318D01*
X35690454Y7995361D01*
X35691673Y8004505D01*
X35692080Y8013700D01*
X35691673Y8022894D01*
X35690454Y8032038D01*
X35688422Y8041081D01*
X35685628Y8049869D01*
X35682021Y8058353D01*
X35677703Y8066481D01*
X35672674Y8074253D01*
X35667035Y8081518D01*
X35660685Y8088274D01*
X35653827Y8094421D01*
X35646461Y8099907D01*
X35638587Y8104784D01*
X35630358Y8108899D01*
X35621772Y8112302D01*
X35612933Y8114893D01*
X35603891Y8116722D01*
X35594696Y8117738D01*
G37*
G36*
X39428674Y8117941D02*
G01*
X39419479Y8117331D01*
X39410386Y8115909D01*
X39401394Y8113674D01*
X39397025Y8112302D01*
X39388440Y8108899D01*
X39380160Y8104784D01*
X39372336Y8099907D01*
X39364920Y8094421D01*
X39358062Y8088274D01*
X39351762Y8081518D01*
X39346073Y8074253D01*
X39341044Y8066481D01*
X39336726Y8058353D01*
X39333170Y8049869D01*
X39331646Y8045500D01*
X39329258Y8036559D01*
X39327632Y8027517D01*
X39326820Y8018322D01*
X39326820Y8009077D01*
X39327632Y7999882D01*
X39329258Y7990840D01*
X39331646Y7981899D01*
X39334846Y7973263D01*
X39338808Y7964931D01*
X39343482Y7956956D01*
X39348867Y7949438D01*
X39354861Y7942427D01*
X39361414Y7935975D01*
X39368577Y7930134D01*
X39376197Y7924952D01*
X39384274Y7920481D01*
X39392707Y7916722D01*
X39397025Y7915097D01*
X39405864Y7912506D01*
X39414907Y7910677D01*
X39424051Y7909661D01*
X39433296Y7909458D01*
X39442491Y7910068D01*
X39451635Y7911490D01*
X39460576Y7913725D01*
X39469314Y7916722D01*
X39477696Y7920481D01*
X39485773Y7924952D01*
X39493393Y7930134D01*
X39500556Y7935975D01*
X39507109Y7942427D01*
X39513154Y7949438D01*
X39518488Y7956956D01*
X39523162Y7964931D01*
X39527124Y7973263D01*
X39530324Y7981899D01*
X39532712Y7990840D01*
X39534338Y7999882D01*
X39535150Y8009077D01*
X39535150Y8018322D01*
X39534338Y8027517D01*
X39532712Y8036559D01*
X39530324Y8045500D01*
X39527124Y8054136D01*
X39523162Y8062468D01*
X39518488Y8070443D01*
X39513154Y8077962D01*
X39507109Y8084972D01*
X39500556Y8091424D01*
X39493393Y8097266D01*
X39485773Y8102447D01*
X39477696Y8106918D01*
X39469314Y8110677D01*
X39460576Y8113674D01*
X39451635Y8115909D01*
X39442491Y8117331D01*
X39433296Y8117941D01*
G37*
G36*
X10519664Y6619341D02*
G01*
X10510469Y6618731D01*
X10501376Y6617309D01*
X10492384Y6615074D01*
X10488015Y6613702D01*
X10479430Y6610299D01*
X10471150Y6606184D01*
X10463326Y6601307D01*
X10455910Y6595821D01*
X10449052Y6589674D01*
X10442752Y6582918D01*
X10437063Y6575653D01*
X10432034Y6567881D01*
X10427716Y6559753D01*
X10424160Y6551269D01*
X10422636Y6546900D01*
X10420248Y6537959D01*
X10418622Y6528917D01*
X10417810Y6519722D01*
X10417810Y6510477D01*
X10418622Y6501282D01*
X10420248Y6492240D01*
X10422636Y6483299D01*
X10425836Y6474663D01*
X10429798Y6466332D01*
X10434472Y6458356D01*
X10439857Y6450838D01*
X10445851Y6443827D01*
X10452404Y6437376D01*
X10459567Y6431534D01*
X10467187Y6426352D01*
X10475264Y6421882D01*
X10483697Y6418122D01*
X10488015Y6416497D01*
X10496854Y6413906D01*
X10505897Y6412077D01*
X10515041Y6411061D01*
X10524286Y6410858D01*
X10533481Y6411468D01*
X10542625Y6412890D01*
X10551566Y6415125D01*
X10560304Y6418122D01*
X10568686Y6421882D01*
X10576763Y6426352D01*
X10584383Y6431534D01*
X10591546Y6437376D01*
X10598099Y6443827D01*
X10604144Y6450838D01*
X10609478Y6458356D01*
X10614152Y6466332D01*
X10618114Y6474663D01*
X10621314Y6483299D01*
X10623702Y6492240D01*
X10625328Y6501282D01*
X10626140Y6510477D01*
X10626140Y6519722D01*
X10625328Y6528917D01*
X10623702Y6537959D01*
X10621314Y6546900D01*
X10618114Y6555536D01*
X10614152Y6563868D01*
X10609478Y6571843D01*
X10604144Y6579362D01*
X10598099Y6586372D01*
X10591546Y6592824D01*
X10584383Y6598666D01*
X10576763Y6603847D01*
X10568686Y6608318D01*
X10560304Y6612077D01*
X10551566Y6615074D01*
X10542625Y6617309D01*
X10533481Y6618731D01*
X10524286Y6619341D01*
G37*
G36*
X9871964Y6619341D02*
G01*
X9862769Y6618731D01*
X9853676Y6617309D01*
X9844684Y6615074D01*
X9840315Y6613702D01*
X9831730Y6610299D01*
X9823450Y6606184D01*
X9815626Y6601307D01*
X9808210Y6595821D01*
X9801352Y6589674D01*
X9795052Y6582918D01*
X9789363Y6575653D01*
X9784334Y6567881D01*
X9780016Y6559753D01*
X9776460Y6551269D01*
X9774936Y6546900D01*
X9772548Y6537959D01*
X9770922Y6528917D01*
X9770110Y6519722D01*
X9770110Y6510477D01*
X9770922Y6501282D01*
X9772548Y6492240D01*
X9774936Y6483299D01*
X9778136Y6474663D01*
X9782098Y6466332D01*
X9786772Y6458356D01*
X9792157Y6450838D01*
X9798151Y6443827D01*
X9804704Y6437376D01*
X9811867Y6431534D01*
X9819487Y6426352D01*
X9827564Y6421882D01*
X9835997Y6418122D01*
X9840315Y6416497D01*
X9849154Y6413906D01*
X9858197Y6412077D01*
X9867341Y6411061D01*
X9876586Y6410858D01*
X9885781Y6411468D01*
X9894925Y6412890D01*
X9903866Y6415125D01*
X9912604Y6418122D01*
X9920986Y6421882D01*
X9929063Y6426352D01*
X9936683Y6431534D01*
X9943846Y6437376D01*
X9950399Y6443827D01*
X9956444Y6450838D01*
X9961778Y6458356D01*
X9966452Y6466332D01*
X9970414Y6474663D01*
X9973614Y6483299D01*
X9976002Y6492240D01*
X9977628Y6501282D01*
X9978440Y6510477D01*
X9978440Y6519722D01*
X9977628Y6528917D01*
X9976002Y6537959D01*
X9973614Y6546900D01*
X9970414Y6555536D01*
X9966452Y6563868D01*
X9961778Y6571843D01*
X9956444Y6579362D01*
X9950399Y6586372D01*
X9943846Y6592824D01*
X9936683Y6598666D01*
X9929063Y6603847D01*
X9920986Y6608318D01*
X9912604Y6612077D01*
X9903866Y6615074D01*
X9894925Y6617309D01*
X9885781Y6618731D01*
X9876586Y6619341D01*
G37*
G36*
X21401582Y5679541D02*
G01*
X21392337Y5678932D01*
X21383244Y5677509D01*
X21374303Y5675274D01*
X21369883Y5673902D01*
X21361298Y5670499D01*
X21353068Y5666384D01*
X21345194Y5661507D01*
X21337828Y5656021D01*
X21330970Y5649874D01*
X21324671Y5643118D01*
X21318982Y5635853D01*
X21313952Y5628081D01*
X21309634Y5619953D01*
X21306078Y5611469D01*
X21303234Y5602681D01*
X21301202Y5593638D01*
X21299982Y5584494D01*
X21299576Y5575300D01*
X21299982Y5566105D01*
X21301202Y5556961D01*
X21303234Y5547918D01*
X21306078Y5539130D01*
X21309634Y5530646D01*
X21313952Y5522518D01*
X21318982Y5514746D01*
X21324671Y5507482D01*
X21330970Y5500725D01*
X21337828Y5494578D01*
X21345194Y5489092D01*
X21353068Y5484215D01*
X21361298Y5480100D01*
X21369883Y5476697D01*
X21378722Y5474106D01*
X21387765Y5472277D01*
X21396960Y5471261D01*
X21406154Y5471058D01*
X21415400Y5471668D01*
X21424493Y5473090D01*
X21433434Y5475325D01*
X21437854Y5476697D01*
X21446439Y5480100D01*
X21454668Y5484215D01*
X21462542Y5489092D01*
X21469908Y5494578D01*
X21476766Y5500725D01*
X21483116Y5507482D01*
X21488755Y5514746D01*
X21493784Y5522518D01*
X21498102Y5530646D01*
X21501709Y5539130D01*
X21504503Y5547918D01*
X21506535Y5556961D01*
X21507754Y5566105D01*
X21508161Y5575300D01*
X21507754Y5584494D01*
X21506535Y5593638D01*
X21504503Y5602681D01*
X21501709Y5611469D01*
X21498102Y5619953D01*
X21493784Y5628081D01*
X21488755Y5635853D01*
X21483116Y5643118D01*
X21476766Y5649874D01*
X21469908Y5656021D01*
X21462542Y5661507D01*
X21454668Y5666384D01*
X21446439Y5670499D01*
X21437854Y5673902D01*
X21429014Y5676493D01*
X21419972Y5678322D01*
X21410777Y5679338D01*
G37*
G36*
X21401582Y6619341D02*
G01*
X21392337Y6618731D01*
X21383244Y6617309D01*
X21374303Y6615074D01*
X21369883Y6613702D01*
X21361298Y6610299D01*
X21353068Y6606184D01*
X21345194Y6601307D01*
X21337828Y6595821D01*
X21330970Y6589674D01*
X21324671Y6582918D01*
X21318982Y6575653D01*
X21313952Y6567881D01*
X21309634Y6559753D01*
X21306078Y6551269D01*
X21303234Y6542481D01*
X21301202Y6533438D01*
X21299982Y6524294D01*
X21299576Y6515100D01*
X21299982Y6505905D01*
X21301202Y6496761D01*
X21303234Y6487718D01*
X21306078Y6478930D01*
X21309634Y6470446D01*
X21313952Y6462318D01*
X21318982Y6454546D01*
X21324671Y6447282D01*
X21330970Y6440525D01*
X21337828Y6434378D01*
X21345194Y6428892D01*
X21353068Y6424015D01*
X21361298Y6419900D01*
X21369883Y6416497D01*
X21378722Y6413906D01*
X21387765Y6412077D01*
X21396960Y6411061D01*
X21406154Y6410858D01*
X21415400Y6411468D01*
X21424493Y6412890D01*
X21433434Y6415125D01*
X21437854Y6416497D01*
X21446439Y6419900D01*
X21454668Y6424015D01*
X21462542Y6428892D01*
X21469908Y6434378D01*
X21476766Y6440525D01*
X21483116Y6447282D01*
X21488755Y6454546D01*
X21493784Y6462318D01*
X21498102Y6470446D01*
X21501709Y6478930D01*
X21504503Y6487718D01*
X21506535Y6496761D01*
X21507754Y6505905D01*
X21508161Y6515100D01*
X21507754Y6524294D01*
X21506535Y6533438D01*
X21504503Y6542481D01*
X21501709Y6551269D01*
X21498102Y6559753D01*
X21493784Y6567881D01*
X21488755Y6575653D01*
X21483116Y6582918D01*
X21476766Y6589674D01*
X21469908Y6595821D01*
X21462542Y6601307D01*
X21454668Y6606184D01*
X21446439Y6610299D01*
X21437854Y6613702D01*
X21429014Y6616293D01*
X21419972Y6618122D01*
X21410777Y6619138D01*
G37*
G36*
X21401582Y7533741D02*
G01*
X21392337Y7533131D01*
X21383244Y7531709D01*
X21374303Y7529474D01*
X21369883Y7528102D01*
X21361298Y7524699D01*
X21353068Y7520584D01*
X21345194Y7515707D01*
X21337828Y7510221D01*
X21330970Y7504074D01*
X21324671Y7497318D01*
X21318982Y7490053D01*
X21313952Y7482281D01*
X21309634Y7474153D01*
X21306078Y7465669D01*
X21303234Y7456881D01*
X21301202Y7447838D01*
X21299982Y7438694D01*
X21299576Y7429500D01*
X21299982Y7420305D01*
X21301202Y7411161D01*
X21303234Y7402118D01*
X21306078Y7393330D01*
X21309634Y7384846D01*
X21313952Y7376718D01*
X21318982Y7368946D01*
X21324671Y7361681D01*
X21330970Y7354925D01*
X21337828Y7348778D01*
X21345194Y7343292D01*
X21353068Y7338415D01*
X21361298Y7334300D01*
X21369883Y7330897D01*
X21378722Y7328306D01*
X21387765Y7326477D01*
X21396960Y7325461D01*
X21406154Y7325258D01*
X21415400Y7325868D01*
X21424493Y7327290D01*
X21433434Y7329525D01*
X21437854Y7330897D01*
X21446439Y7334300D01*
X21454668Y7338415D01*
X21462542Y7343292D01*
X21469908Y7348778D01*
X21476766Y7354925D01*
X21483116Y7361681D01*
X21488755Y7368946D01*
X21493784Y7376718D01*
X21498102Y7384846D01*
X21501709Y7393330D01*
X21504503Y7402118D01*
X21506535Y7411161D01*
X21507754Y7420305D01*
X21508161Y7429500D01*
X21507754Y7438694D01*
X21506535Y7447838D01*
X21504503Y7456881D01*
X21501709Y7465669D01*
X21498102Y7474153D01*
X21493784Y7482281D01*
X21488755Y7490053D01*
X21483116Y7497318D01*
X21476766Y7504074D01*
X21469908Y7510221D01*
X21462542Y7515707D01*
X21454668Y7520584D01*
X21446439Y7524699D01*
X21437854Y7528102D01*
X21429014Y7530693D01*
X21419972Y7532522D01*
X21410777Y7533538D01*
G37*
G36*
X32931201Y5679541D02*
G01*
X32921956Y5678932D01*
X32912862Y5677509D01*
X32903922Y5675274D01*
X32899502Y5673902D01*
X32890917Y5670499D01*
X32882687Y5666384D01*
X32874813Y5661507D01*
X32867447Y5656021D01*
X32860589Y5649874D01*
X32854290Y5643118D01*
X32848600Y5635853D01*
X32843571Y5628081D01*
X32839253Y5619953D01*
X32835697Y5611469D01*
X32832852Y5602681D01*
X32830820Y5593638D01*
X32829601Y5584494D01*
X32829195Y5575300D01*
X32829601Y5566105D01*
X32830820Y5556961D01*
X32832852Y5547918D01*
X32835697Y5539130D01*
X32839253Y5530646D01*
X32843571Y5522518D01*
X32848600Y5514746D01*
X32854290Y5507482D01*
X32860589Y5500725D01*
X32867447Y5494578D01*
X32874813Y5489092D01*
X32882687Y5484215D01*
X32890917Y5480100D01*
X32899502Y5476697D01*
X32908341Y5474106D01*
X32917384Y5472277D01*
X32926578Y5471261D01*
X32935773Y5471058D01*
X32945019Y5471668D01*
X32954112Y5473090D01*
X32963053Y5475325D01*
X32967472Y5476697D01*
X32976058Y5480100D01*
X32984287Y5484215D01*
X32992161Y5489092D01*
X32999527Y5494578D01*
X33006385Y5500725D01*
X33012735Y5507482D01*
X33018374Y5514746D01*
X33023403Y5522518D01*
X33027721Y5530646D01*
X33031328Y5539130D01*
X33034122Y5547918D01*
X33036154Y5556961D01*
X33037373Y5566105D01*
X33037780Y5575300D01*
X33037373Y5584494D01*
X33036154Y5593638D01*
X33034122Y5602681D01*
X33031328Y5611469D01*
X33027721Y5619953D01*
X33023403Y5628081D01*
X33018374Y5635853D01*
X33012735Y5643118D01*
X33006385Y5649874D01*
X32999527Y5656021D01*
X32992161Y5661507D01*
X32984287Y5666384D01*
X32976058Y5670499D01*
X32967472Y5673902D01*
X32958633Y5676493D01*
X32949591Y5678322D01*
X32940396Y5679338D01*
G37*
G36*
X32931201Y6619341D02*
G01*
X32921956Y6618731D01*
X32912862Y6617309D01*
X32903922Y6615074D01*
X32899502Y6613702D01*
X32890917Y6610299D01*
X32882687Y6606184D01*
X32874813Y6601307D01*
X32867447Y6595821D01*
X32860589Y6589674D01*
X32854290Y6582918D01*
X32848600Y6575653D01*
X32843571Y6567881D01*
X32839253Y6559753D01*
X32835697Y6551269D01*
X32832852Y6542481D01*
X32830820Y6533438D01*
X32829601Y6524294D01*
X32829195Y6515100D01*
X32829601Y6505905D01*
X32830820Y6496761D01*
X32832852Y6487718D01*
X32835697Y6478930D01*
X32839253Y6470446D01*
X32843571Y6462318D01*
X32848600Y6454546D01*
X32854290Y6447282D01*
X32860589Y6440525D01*
X32867447Y6434378D01*
X32874813Y6428892D01*
X32882687Y6424015D01*
X32890917Y6419900D01*
X32899502Y6416497D01*
X32908341Y6413906D01*
X32917384Y6412077D01*
X32926578Y6411061D01*
X32935773Y6410858D01*
X32945019Y6411468D01*
X32954112Y6412890D01*
X32963053Y6415125D01*
X32967472Y6416497D01*
X32976058Y6419900D01*
X32984287Y6424015D01*
X32992161Y6428892D01*
X32999527Y6434378D01*
X33006385Y6440525D01*
X33012735Y6447282D01*
X33018374Y6454546D01*
X33023403Y6462318D01*
X33027721Y6470446D01*
X33031328Y6478930D01*
X33034122Y6487718D01*
X33036154Y6496761D01*
X33037373Y6505905D01*
X33037780Y6515100D01*
X33037373Y6524294D01*
X33036154Y6533438D01*
X33034122Y6542481D01*
X33031328Y6551269D01*
X33027721Y6559753D01*
X33023403Y6567881D01*
X33018374Y6575653D01*
X33012735Y6582918D01*
X33006385Y6589674D01*
X32999527Y6595821D01*
X32992161Y6601307D01*
X32984287Y6606184D01*
X32976058Y6610299D01*
X32967472Y6613702D01*
X32958633Y6616293D01*
X32949591Y6618122D01*
X32940396Y6619138D01*
G37*
G36*
X32931201Y7533741D02*
G01*
X32921956Y7533131D01*
X32912862Y7531709D01*
X32903922Y7529474D01*
X32899502Y7528102D01*
X32890917Y7524699D01*
X32882687Y7520584D01*
X32874813Y7515707D01*
X32867447Y7510221D01*
X32860589Y7504074D01*
X32854290Y7497318D01*
X32848600Y7490053D01*
X32843571Y7482281D01*
X32839253Y7474153D01*
X32835697Y7465669D01*
X32832852Y7456881D01*
X32830820Y7447838D01*
X32829601Y7438694D01*
X32829195Y7429500D01*
X32829601Y7420305D01*
X32830820Y7411161D01*
X32832852Y7402118D01*
X32835697Y7393330D01*
X32839253Y7384846D01*
X32843571Y7376718D01*
X32848600Y7368946D01*
X32854290Y7361681D01*
X32860589Y7354925D01*
X32867447Y7348778D01*
X32874813Y7343292D01*
X32882687Y7338415D01*
X32890917Y7334300D01*
X32899502Y7330897D01*
X32908341Y7328306D01*
X32917384Y7326477D01*
X32926578Y7325461D01*
X32935773Y7325258D01*
X32945019Y7325868D01*
X32954112Y7327290D01*
X32963053Y7329525D01*
X32967472Y7330897D01*
X32976058Y7334300D01*
X32984287Y7338415D01*
X32992161Y7343292D01*
X32999527Y7348778D01*
X33006385Y7354925D01*
X33012735Y7361681D01*
X33018374Y7368946D01*
X33023403Y7376718D01*
X33027721Y7384846D01*
X33031328Y7393330D01*
X33034122Y7402118D01*
X33036154Y7411161D01*
X33037373Y7420305D01*
X33037780Y7429500D01*
X33037373Y7438694D01*
X33036154Y7447838D01*
X33034122Y7456881D01*
X33031328Y7465669D01*
X33027721Y7474153D01*
X33023403Y7482281D01*
X33018374Y7490053D01*
X33012735Y7497318D01*
X33006385Y7504074D01*
X32999527Y7510221D01*
X32992161Y7515707D01*
X32984287Y7520584D01*
X32976058Y7524699D01*
X32967472Y7528102D01*
X32958633Y7530693D01*
X32949591Y7532522D01*
X32940396Y7533538D01*
G37*
G36*
X22049282Y5679541D02*
G01*
X22040037Y5678932D01*
X22030944Y5677509D01*
X22022003Y5675274D01*
X22017583Y5673902D01*
X22008998Y5670499D01*
X22000768Y5666384D01*
X21992894Y5661507D01*
X21985528Y5656021D01*
X21978670Y5649874D01*
X21972371Y5643118D01*
X21966682Y5635853D01*
X21961652Y5628081D01*
X21957334Y5619953D01*
X21953778Y5611469D01*
X21950934Y5602681D01*
X21948902Y5593638D01*
X21947682Y5584494D01*
X21947276Y5575300D01*
X21947682Y5566105D01*
X21948902Y5556961D01*
X21950934Y5547918D01*
X21953778Y5539130D01*
X21957334Y5530646D01*
X21961652Y5522518D01*
X21966682Y5514746D01*
X21972371Y5507482D01*
X21978670Y5500725D01*
X21985528Y5494578D01*
X21992894Y5489092D01*
X22000768Y5484215D01*
X22008998Y5480100D01*
X22017583Y5476697D01*
X22026422Y5474106D01*
X22035465Y5472277D01*
X22044660Y5471261D01*
X22053854Y5471058D01*
X22063100Y5471668D01*
X22072193Y5473090D01*
X22081134Y5475325D01*
X22085554Y5476697D01*
X22094139Y5480100D01*
X22102368Y5484215D01*
X22110242Y5489092D01*
X22117608Y5494578D01*
X22124466Y5500725D01*
X22130816Y5507482D01*
X22136455Y5514746D01*
X22141484Y5522518D01*
X22145802Y5530646D01*
X22149409Y5539130D01*
X22152203Y5547918D01*
X22154235Y5556961D01*
X22155454Y5566105D01*
X22155861Y5575300D01*
X22155454Y5584494D01*
X22154235Y5593638D01*
X22152203Y5602681D01*
X22149409Y5611469D01*
X22145802Y5619953D01*
X22141484Y5628081D01*
X22136455Y5635853D01*
X22130816Y5643118D01*
X22124466Y5649874D01*
X22117608Y5656021D01*
X22110242Y5661507D01*
X22102368Y5666384D01*
X22094139Y5670499D01*
X22085554Y5673902D01*
X22076714Y5676493D01*
X22067672Y5678322D01*
X22058477Y5679338D01*
G37*
G36*
X22049282Y6619341D02*
G01*
X22040037Y6618731D01*
X22030944Y6617309D01*
X22022003Y6615074D01*
X22017583Y6613702D01*
X22008998Y6610299D01*
X22000768Y6606184D01*
X21992894Y6601307D01*
X21985528Y6595821D01*
X21978670Y6589674D01*
X21972371Y6582918D01*
X21966682Y6575653D01*
X21961652Y6567881D01*
X21957334Y6559753D01*
X21953778Y6551269D01*
X21950934Y6542481D01*
X21948902Y6533438D01*
X21947682Y6524294D01*
X21947276Y6515100D01*
X21947682Y6505905D01*
X21948902Y6496761D01*
X21950934Y6487718D01*
X21953778Y6478930D01*
X21957334Y6470446D01*
X21961652Y6462318D01*
X21966682Y6454546D01*
X21972371Y6447282D01*
X21978670Y6440525D01*
X21985528Y6434378D01*
X21992894Y6428892D01*
X22000768Y6424015D01*
X22008998Y6419900D01*
X22017583Y6416497D01*
X22026422Y6413906D01*
X22035465Y6412077D01*
X22044660Y6411061D01*
X22053854Y6410858D01*
X22063100Y6411468D01*
X22072193Y6412890D01*
X22081134Y6415125D01*
X22085554Y6416497D01*
X22094139Y6419900D01*
X22102368Y6424015D01*
X22110242Y6428892D01*
X22117608Y6434378D01*
X22124466Y6440525D01*
X22130816Y6447282D01*
X22136455Y6454546D01*
X22141484Y6462318D01*
X22145802Y6470446D01*
X22149409Y6478930D01*
X22152203Y6487718D01*
X22154235Y6496761D01*
X22155454Y6505905D01*
X22155861Y6515100D01*
X22155454Y6524294D01*
X22154235Y6533438D01*
X22152203Y6542481D01*
X22149409Y6551269D01*
X22145802Y6559753D01*
X22141484Y6567881D01*
X22136455Y6575653D01*
X22130816Y6582918D01*
X22124466Y6589674D01*
X22117608Y6595821D01*
X22110242Y6601307D01*
X22102368Y6606184D01*
X22094139Y6610299D01*
X22085554Y6613702D01*
X22076714Y6616293D01*
X22067672Y6618122D01*
X22058477Y6619138D01*
G37*
G36*
X22049282Y7533741D02*
G01*
X22040037Y7533131D01*
X22030944Y7531709D01*
X22022003Y7529474D01*
X22017583Y7528102D01*
X22008998Y7524699D01*
X22000768Y7520584D01*
X21992894Y7515707D01*
X21985528Y7510221D01*
X21978670Y7504074D01*
X21972371Y7497318D01*
X21966682Y7490053D01*
X21961652Y7482281D01*
X21957334Y7474153D01*
X21953778Y7465669D01*
X21950934Y7456881D01*
X21948902Y7447838D01*
X21947682Y7438694D01*
X21947276Y7429500D01*
X21947682Y7420305D01*
X21948902Y7411161D01*
X21950934Y7402118D01*
X21953778Y7393330D01*
X21957334Y7384846D01*
X21961652Y7376718D01*
X21966682Y7368946D01*
X21972371Y7361681D01*
X21978670Y7354925D01*
X21985528Y7348778D01*
X21992894Y7343292D01*
X22000768Y7338415D01*
X22008998Y7334300D01*
X22017583Y7330897D01*
X22026422Y7328306D01*
X22035465Y7326477D01*
X22044660Y7325461D01*
X22053854Y7325258D01*
X22063100Y7325868D01*
X22072193Y7327290D01*
X22081134Y7329525D01*
X22085554Y7330897D01*
X22094139Y7334300D01*
X22102368Y7338415D01*
X22110242Y7343292D01*
X22117608Y7348778D01*
X22124466Y7354925D01*
X22130816Y7361681D01*
X22136455Y7368946D01*
X22141484Y7376718D01*
X22145802Y7384846D01*
X22149409Y7393330D01*
X22152203Y7402118D01*
X22154235Y7411161D01*
X22155454Y7420305D01*
X22155861Y7429500D01*
X22155454Y7438694D01*
X22154235Y7447838D01*
X22152203Y7456881D01*
X22149409Y7465669D01*
X22145802Y7474153D01*
X22141484Y7482281D01*
X22136455Y7490053D01*
X22130816Y7497318D01*
X22124466Y7504074D01*
X22117608Y7510221D01*
X22110242Y7515707D01*
X22102368Y7520584D01*
X22094139Y7524699D01*
X22085554Y7528102D01*
X22076714Y7530693D01*
X22067672Y7532522D01*
X22058477Y7533538D01*
G37*
G36*
X33578901Y5679541D02*
G01*
X33569656Y5678932D01*
X33560562Y5677509D01*
X33551622Y5675274D01*
X33547202Y5673902D01*
X33538617Y5670499D01*
X33530387Y5666384D01*
X33522513Y5661507D01*
X33515147Y5656021D01*
X33508289Y5649874D01*
X33501990Y5643118D01*
X33496300Y5635853D01*
X33491271Y5628081D01*
X33486953Y5619953D01*
X33483397Y5611469D01*
X33480552Y5602681D01*
X33478520Y5593638D01*
X33477301Y5584494D01*
X33476895Y5575300D01*
X33477301Y5566105D01*
X33478520Y5556961D01*
X33480552Y5547918D01*
X33483397Y5539130D01*
X33486953Y5530646D01*
X33491271Y5522518D01*
X33496300Y5514746D01*
X33501990Y5507482D01*
X33508289Y5500725D01*
X33515147Y5494578D01*
X33522513Y5489092D01*
X33530387Y5484215D01*
X33538617Y5480100D01*
X33547202Y5476697D01*
X33556041Y5474106D01*
X33565084Y5472277D01*
X33574278Y5471261D01*
X33583473Y5471058D01*
X33592719Y5471668D01*
X33601812Y5473090D01*
X33610753Y5475325D01*
X33615172Y5476697D01*
X33623758Y5480100D01*
X33631987Y5484215D01*
X33639861Y5489092D01*
X33647227Y5494578D01*
X33654085Y5500725D01*
X33660435Y5507482D01*
X33666074Y5514746D01*
X33671103Y5522518D01*
X33675421Y5530646D01*
X33679028Y5539130D01*
X33681822Y5547918D01*
X33683854Y5556961D01*
X33685073Y5566105D01*
X33685480Y5575300D01*
X33685073Y5584494D01*
X33683854Y5593638D01*
X33681822Y5602681D01*
X33679028Y5611469D01*
X33675421Y5619953D01*
X33671103Y5628081D01*
X33666074Y5635853D01*
X33660435Y5643118D01*
X33654085Y5649874D01*
X33647227Y5656021D01*
X33639861Y5661507D01*
X33631987Y5666384D01*
X33623758Y5670499D01*
X33615172Y5673902D01*
X33606333Y5676493D01*
X33597291Y5678322D01*
X33588096Y5679338D01*
G37*
G36*
X33578901Y6619341D02*
G01*
X33569656Y6618731D01*
X33560562Y6617309D01*
X33551622Y6615074D01*
X33547202Y6613702D01*
X33538617Y6610299D01*
X33530387Y6606184D01*
X33522513Y6601307D01*
X33515147Y6595821D01*
X33508289Y6589674D01*
X33501990Y6582918D01*
X33496300Y6575653D01*
X33491271Y6567881D01*
X33486953Y6559753D01*
X33483397Y6551269D01*
X33480552Y6542481D01*
X33478520Y6533438D01*
X33477301Y6524294D01*
X33476895Y6515100D01*
X33477301Y6505905D01*
X33478520Y6496761D01*
X33480552Y6487718D01*
X33483397Y6478930D01*
X33486953Y6470446D01*
X33491271Y6462318D01*
X33496300Y6454546D01*
X33501990Y6447282D01*
X33508289Y6440525D01*
X33515147Y6434378D01*
X33522513Y6428892D01*
X33530387Y6424015D01*
X33538617Y6419900D01*
X33547202Y6416497D01*
X33556041Y6413906D01*
X33565084Y6412077D01*
X33574278Y6411061D01*
X33583473Y6410858D01*
X33592719Y6411468D01*
X33601812Y6412890D01*
X33610753Y6415125D01*
X33615172Y6416497D01*
X33623758Y6419900D01*
X33631987Y6424015D01*
X33639861Y6428892D01*
X33647227Y6434378D01*
X33654085Y6440525D01*
X33660435Y6447282D01*
X33666074Y6454546D01*
X33671103Y6462318D01*
X33675421Y6470446D01*
X33679028Y6478930D01*
X33681822Y6487718D01*
X33683854Y6496761D01*
X33685073Y6505905D01*
X33685480Y6515100D01*
X33685073Y6524294D01*
X33683854Y6533438D01*
X33681822Y6542481D01*
X33679028Y6551269D01*
X33675421Y6559753D01*
X33671103Y6567881D01*
X33666074Y6575653D01*
X33660435Y6582918D01*
X33654085Y6589674D01*
X33647227Y6595821D01*
X33639861Y6601307D01*
X33631987Y6606184D01*
X33623758Y6610299D01*
X33615172Y6613702D01*
X33606333Y6616293D01*
X33597291Y6618122D01*
X33588096Y6619138D01*
G37*
G36*
X33578901Y7533741D02*
G01*
X33569656Y7533131D01*
X33560562Y7531709D01*
X33551622Y7529474D01*
X33547202Y7528102D01*
X33538617Y7524699D01*
X33530387Y7520584D01*
X33522513Y7515707D01*
X33515147Y7510221D01*
X33508289Y7504074D01*
X33501990Y7497318D01*
X33496300Y7490053D01*
X33491271Y7482281D01*
X33486953Y7474153D01*
X33483397Y7465669D01*
X33480552Y7456881D01*
X33478520Y7447838D01*
X33477301Y7438694D01*
X33476895Y7429500D01*
X33477301Y7420305D01*
X33478520Y7411161D01*
X33480552Y7402118D01*
X33483397Y7393330D01*
X33486953Y7384846D01*
X33491271Y7376718D01*
X33496300Y7368946D01*
X33501990Y7361681D01*
X33508289Y7354925D01*
X33515147Y7348778D01*
X33522513Y7343292D01*
X33530387Y7338415D01*
X33538617Y7334300D01*
X33547202Y7330897D01*
X33556041Y7328306D01*
X33565084Y7326477D01*
X33574278Y7325461D01*
X33583473Y7325258D01*
X33592719Y7325868D01*
X33601812Y7327290D01*
X33610753Y7329525D01*
X33615172Y7330897D01*
X33623758Y7334300D01*
X33631987Y7338415D01*
X33639861Y7343292D01*
X33647227Y7348778D01*
X33654085Y7354925D01*
X33660435Y7361681D01*
X33666074Y7368946D01*
X33671103Y7376718D01*
X33675421Y7384846D01*
X33679028Y7393330D01*
X33681822Y7402118D01*
X33683854Y7411161D01*
X33685073Y7420305D01*
X33685480Y7429500D01*
X33685073Y7438694D01*
X33683854Y7447838D01*
X33681822Y7456881D01*
X33679028Y7465669D01*
X33675421Y7474153D01*
X33671103Y7482281D01*
X33666074Y7490053D01*
X33660435Y7497318D01*
X33654085Y7504074D01*
X33647227Y7510221D01*
X33639861Y7515707D01*
X33631987Y7520584D01*
X33623758Y7524699D01*
X33615172Y7528102D01*
X33606333Y7530693D01*
X33597291Y7532522D01*
X33588096Y7533538D01*
G37*
G36*
X14647163Y7533741D02*
G01*
X14637969Y7533131D01*
X14628876Y7531709D01*
X14619884Y7529474D01*
X14615515Y7528102D01*
X14606930Y7524699D01*
X14598650Y7520584D01*
X14590826Y7515707D01*
X14583410Y7510221D01*
X14576551Y7504074D01*
X14570252Y7497318D01*
X14564563Y7490053D01*
X14559534Y7482281D01*
X14555216Y7474153D01*
X14551660Y7465669D01*
X14550136Y7461300D01*
X14547748Y7452359D01*
X14546122Y7443317D01*
X14545310Y7434122D01*
X14545310Y7424877D01*
X14546122Y7415682D01*
X14547748Y7406640D01*
X14550136Y7397699D01*
X14553336Y7389063D01*
X14557298Y7380731D01*
X14561972Y7372756D01*
X14567357Y7365238D01*
X14573351Y7358227D01*
X14579904Y7351775D01*
X14587067Y7345934D01*
X14594687Y7340752D01*
X14602764Y7336281D01*
X14611197Y7332522D01*
X14615515Y7330897D01*
X14624354Y7328306D01*
X14633397Y7326477D01*
X14642541Y7325461D01*
X14651786Y7325258D01*
X14660981Y7325868D01*
X14670125Y7327290D01*
X14679066Y7329525D01*
X14687804Y7332522D01*
X14696186Y7336281D01*
X14704263Y7340752D01*
X14711883Y7345934D01*
X14719046Y7351775D01*
X14725599Y7358227D01*
X14731644Y7365238D01*
X14736978Y7372756D01*
X14741651Y7380731D01*
X14745614Y7389063D01*
X14748814Y7397699D01*
X14751202Y7406640D01*
X14752828Y7415682D01*
X14753640Y7424877D01*
X14753640Y7434122D01*
X14752828Y7443317D01*
X14751202Y7452359D01*
X14748814Y7461300D01*
X14745614Y7469936D01*
X14741651Y7478268D01*
X14736978Y7486243D01*
X14731644Y7493762D01*
X14725599Y7500772D01*
X14719046Y7507224D01*
X14711883Y7513066D01*
X14704263Y7518247D01*
X14696186Y7522718D01*
X14687804Y7526477D01*
X14679066Y7529474D01*
X14670125Y7531709D01*
X14660981Y7533131D01*
X14651786Y7533741D01*
G37*
G36*
X15307563Y7533741D02*
G01*
X15298369Y7533131D01*
X15289276Y7531709D01*
X15280284Y7529474D01*
X15275915Y7528102D01*
X15267330Y7524699D01*
X15259050Y7520584D01*
X15251226Y7515707D01*
X15243810Y7510221D01*
X15236951Y7504074D01*
X15230652Y7497318D01*
X15224963Y7490053D01*
X15219934Y7482281D01*
X15215616Y7474153D01*
X15212060Y7465669D01*
X15210536Y7461300D01*
X15208148Y7452359D01*
X15206522Y7443317D01*
X15205710Y7434122D01*
X15205710Y7424877D01*
X15206522Y7415682D01*
X15208148Y7406640D01*
X15210536Y7397699D01*
X15213736Y7389063D01*
X15217698Y7380731D01*
X15222372Y7372756D01*
X15227757Y7365238D01*
X15233751Y7358227D01*
X15240304Y7351775D01*
X15247467Y7345934D01*
X15255087Y7340752D01*
X15263164Y7336281D01*
X15271597Y7332522D01*
X15275915Y7330897D01*
X15284754Y7328306D01*
X15293797Y7326477D01*
X15302941Y7325461D01*
X15312186Y7325258D01*
X15321381Y7325868D01*
X15330525Y7327290D01*
X15339466Y7329525D01*
X15348204Y7332522D01*
X15356586Y7336281D01*
X15364663Y7340752D01*
X15372283Y7345934D01*
X15379446Y7351775D01*
X15385999Y7358227D01*
X15392044Y7365238D01*
X15397378Y7372756D01*
X15402051Y7380731D01*
X15406014Y7389063D01*
X15409214Y7397699D01*
X15411602Y7406640D01*
X15413228Y7415682D01*
X15414040Y7424877D01*
X15414040Y7434122D01*
X15413228Y7443317D01*
X15411602Y7452359D01*
X15409214Y7461300D01*
X15406014Y7469936D01*
X15402051Y7478268D01*
X15397378Y7486243D01*
X15392044Y7493762D01*
X15385999Y7500772D01*
X15379446Y7507224D01*
X15372283Y7513066D01*
X15364663Y7518247D01*
X15356586Y7522718D01*
X15348204Y7526477D01*
X15339466Y7529474D01*
X15330525Y7531709D01*
X15321381Y7533131D01*
X15312186Y7533741D01*
G37*
G36*
X14647163Y6619341D02*
G01*
X14637969Y6618731D01*
X14628876Y6617309D01*
X14619884Y6615074D01*
X14615515Y6613702D01*
X14606930Y6610299D01*
X14598650Y6606184D01*
X14590826Y6601307D01*
X14583410Y6595821D01*
X14576551Y6589674D01*
X14570252Y6582918D01*
X14564563Y6575653D01*
X14559534Y6567881D01*
X14555216Y6559753D01*
X14551660Y6551269D01*
X14550136Y6546900D01*
X14547748Y6537959D01*
X14546122Y6528917D01*
X14545310Y6519722D01*
X14545310Y6510477D01*
X14546122Y6501282D01*
X14547748Y6492240D01*
X14550136Y6483299D01*
X14553336Y6474663D01*
X14557298Y6466332D01*
X14561972Y6458356D01*
X14567357Y6450838D01*
X14573351Y6443827D01*
X14579904Y6437376D01*
X14587067Y6431534D01*
X14594687Y6426352D01*
X14602764Y6421882D01*
X14611197Y6418122D01*
X14615515Y6416497D01*
X14624354Y6413906D01*
X14633397Y6412077D01*
X14642541Y6411061D01*
X14651786Y6410858D01*
X14660981Y6411468D01*
X14670125Y6412890D01*
X14679066Y6415125D01*
X14687804Y6418122D01*
X14696186Y6421882D01*
X14704263Y6426352D01*
X14711883Y6431534D01*
X14719046Y6437376D01*
X14725599Y6443827D01*
X14731644Y6450838D01*
X14736978Y6458356D01*
X14741651Y6466332D01*
X14745614Y6474663D01*
X14748814Y6483299D01*
X14751202Y6492240D01*
X14752828Y6501282D01*
X14753640Y6510477D01*
X14753640Y6519722D01*
X14752828Y6528917D01*
X14751202Y6537959D01*
X14748814Y6546900D01*
X14745614Y6555536D01*
X14741651Y6563868D01*
X14736978Y6571843D01*
X14731644Y6579362D01*
X14725599Y6586372D01*
X14719046Y6592824D01*
X14711883Y6598666D01*
X14704263Y6603847D01*
X14696186Y6608318D01*
X14687804Y6612077D01*
X14679066Y6615074D01*
X14670125Y6617309D01*
X14660981Y6618731D01*
X14651786Y6619341D01*
G37*
G36*
X14647163Y5679541D02*
G01*
X14637969Y5678932D01*
X14628876Y5677509D01*
X14619884Y5675274D01*
X14615515Y5673902D01*
X14606930Y5670499D01*
X14598650Y5666384D01*
X14590826Y5661507D01*
X14583410Y5656021D01*
X14576551Y5649874D01*
X14570252Y5643118D01*
X14564563Y5635853D01*
X14559534Y5628081D01*
X14555216Y5619953D01*
X14551660Y5611469D01*
X14550136Y5607100D01*
X14547748Y5598160D01*
X14546122Y5589117D01*
X14545310Y5579922D01*
X14545310Y5570677D01*
X14546122Y5561482D01*
X14547748Y5552440D01*
X14550136Y5543499D01*
X14553336Y5534863D01*
X14557298Y5526532D01*
X14561972Y5518556D01*
X14567357Y5511038D01*
X14573351Y5504027D01*
X14579904Y5497576D01*
X14587067Y5491734D01*
X14594687Y5486552D01*
X14602764Y5482082D01*
X14611197Y5478322D01*
X14615515Y5476697D01*
X14624354Y5474106D01*
X14633397Y5472277D01*
X14642541Y5471261D01*
X14651786Y5471058D01*
X14660981Y5471668D01*
X14670125Y5473090D01*
X14679066Y5475325D01*
X14687804Y5478322D01*
X14696186Y5482082D01*
X14704263Y5486552D01*
X14711883Y5491734D01*
X14719046Y5497576D01*
X14725599Y5504027D01*
X14731644Y5511038D01*
X14736978Y5518556D01*
X14741651Y5526532D01*
X14745614Y5534863D01*
X14748814Y5543499D01*
X14751202Y5552440D01*
X14752828Y5561482D01*
X14753640Y5570677D01*
X14753640Y5579922D01*
X14752828Y5589117D01*
X14751202Y5598160D01*
X14748814Y5607100D01*
X14745614Y5615736D01*
X14741651Y5624068D01*
X14736978Y5632043D01*
X14731644Y5639562D01*
X14725599Y5646572D01*
X14719046Y5653024D01*
X14711883Y5658866D01*
X14704263Y5664047D01*
X14696186Y5668518D01*
X14687804Y5672277D01*
X14679066Y5675274D01*
X14670125Y5677509D01*
X14660981Y5678932D01*
X14651786Y5679541D01*
G37*
G36*
X15307563Y6619341D02*
G01*
X15298369Y6618731D01*
X15289276Y6617309D01*
X15280284Y6615074D01*
X15275915Y6613702D01*
X15267330Y6610299D01*
X15259050Y6606184D01*
X15251226Y6601307D01*
X15243810Y6595821D01*
X15236951Y6589674D01*
X15230652Y6582918D01*
X15224963Y6575653D01*
X15219934Y6567881D01*
X15215616Y6559753D01*
X15212060Y6551269D01*
X15210536Y6546900D01*
X15208148Y6537959D01*
X15206522Y6528917D01*
X15205710Y6519722D01*
X15205710Y6510477D01*
X15206522Y6501282D01*
X15208148Y6492240D01*
X15210536Y6483299D01*
X15213736Y6474663D01*
X15217698Y6466332D01*
X15222372Y6458356D01*
X15227757Y6450838D01*
X15233751Y6443827D01*
X15240304Y6437376D01*
X15247467Y6431534D01*
X15255087Y6426352D01*
X15263164Y6421882D01*
X15271597Y6418122D01*
X15275915Y6416497D01*
X15284754Y6413906D01*
X15293797Y6412077D01*
X15302941Y6411061D01*
X15312186Y6410858D01*
X15321381Y6411468D01*
X15330525Y6412890D01*
X15339466Y6415125D01*
X15348204Y6418122D01*
X15356586Y6421882D01*
X15364663Y6426352D01*
X15372283Y6431534D01*
X15379446Y6437376D01*
X15385999Y6443827D01*
X15392044Y6450838D01*
X15397378Y6458356D01*
X15402051Y6466332D01*
X15406014Y6474663D01*
X15409214Y6483299D01*
X15411602Y6492240D01*
X15413228Y6501282D01*
X15414040Y6510477D01*
X15414040Y6519722D01*
X15413228Y6528917D01*
X15411602Y6537959D01*
X15409214Y6546900D01*
X15406014Y6555536D01*
X15402051Y6563868D01*
X15397378Y6571843D01*
X15392044Y6579362D01*
X15385999Y6586372D01*
X15379446Y6592824D01*
X15372283Y6598666D01*
X15364663Y6603847D01*
X15356586Y6608318D01*
X15348204Y6612077D01*
X15339466Y6615074D01*
X15330525Y6617309D01*
X15321381Y6618731D01*
X15312186Y6619341D01*
G37*
G36*
X15307563Y5679541D02*
G01*
X15298369Y5678932D01*
X15289276Y5677509D01*
X15280284Y5675274D01*
X15275915Y5673902D01*
X15267330Y5670499D01*
X15259050Y5666384D01*
X15251226Y5661507D01*
X15243810Y5656021D01*
X15236951Y5649874D01*
X15230652Y5643118D01*
X15224963Y5635853D01*
X15219934Y5628081D01*
X15215616Y5619953D01*
X15212060Y5611469D01*
X15210536Y5607100D01*
X15208148Y5598160D01*
X15206522Y5589117D01*
X15205710Y5579922D01*
X15205710Y5570677D01*
X15206522Y5561482D01*
X15208148Y5552440D01*
X15210536Y5543499D01*
X15213736Y5534863D01*
X15217698Y5526532D01*
X15222372Y5518556D01*
X15227757Y5511038D01*
X15233751Y5504027D01*
X15240304Y5497576D01*
X15247467Y5491734D01*
X15255087Y5486552D01*
X15263164Y5482082D01*
X15271597Y5478322D01*
X15275915Y5476697D01*
X15284754Y5474106D01*
X15293797Y5472277D01*
X15302941Y5471261D01*
X15312186Y5471058D01*
X15321381Y5471668D01*
X15330525Y5473090D01*
X15339466Y5475325D01*
X15348204Y5478322D01*
X15356586Y5482082D01*
X15364663Y5486552D01*
X15372283Y5491734D01*
X15379446Y5497576D01*
X15385999Y5504027D01*
X15392044Y5511038D01*
X15397378Y5518556D01*
X15402051Y5526532D01*
X15406014Y5534863D01*
X15409214Y5543499D01*
X15411602Y5552440D01*
X15413228Y5561482D01*
X15414040Y5570677D01*
X15414040Y5579922D01*
X15413228Y5589117D01*
X15411602Y5598160D01*
X15409214Y5607100D01*
X15406014Y5615736D01*
X15402051Y5624068D01*
X15397378Y5632043D01*
X15392044Y5639562D01*
X15385999Y5646572D01*
X15379446Y5653024D01*
X15372283Y5658866D01*
X15364663Y5664047D01*
X15356586Y5668518D01*
X15348204Y5672277D01*
X15339466Y5675274D01*
X15330525Y5677509D01*
X15321381Y5678932D01*
X15312186Y5679541D01*
G37*
G36*
X37706401Y5679541D02*
G01*
X37697156Y5678932D01*
X37688062Y5677509D01*
X37679122Y5675274D01*
X37674702Y5673902D01*
X37666117Y5670499D01*
X37657887Y5666384D01*
X37650013Y5661507D01*
X37642647Y5656021D01*
X37635789Y5649874D01*
X37629490Y5643118D01*
X37623800Y5635853D01*
X37618771Y5628081D01*
X37614453Y5619953D01*
X37610897Y5611469D01*
X37608052Y5602681D01*
X37606020Y5593638D01*
X37604801Y5584494D01*
X37604395Y5575300D01*
X37604801Y5566105D01*
X37606020Y5556961D01*
X37608052Y5547918D01*
X37610897Y5539130D01*
X37614453Y5530646D01*
X37618771Y5522518D01*
X37623800Y5514746D01*
X37629490Y5507482D01*
X37635789Y5500725D01*
X37642647Y5494578D01*
X37650013Y5489092D01*
X37657887Y5484215D01*
X37666117Y5480100D01*
X37674702Y5476697D01*
X37683541Y5474106D01*
X37692584Y5472277D01*
X37701778Y5471261D01*
X37710973Y5471058D01*
X37720219Y5471668D01*
X37729312Y5473090D01*
X37738253Y5475325D01*
X37742672Y5476697D01*
X37751258Y5480100D01*
X37759487Y5484215D01*
X37767361Y5489092D01*
X37774727Y5494578D01*
X37781585Y5500725D01*
X37787935Y5507482D01*
X37793574Y5514746D01*
X37798603Y5522518D01*
X37802921Y5530646D01*
X37806528Y5539130D01*
X37809322Y5547918D01*
X37811354Y5556961D01*
X37812573Y5566105D01*
X37812980Y5575300D01*
X37812573Y5584494D01*
X37811354Y5593638D01*
X37809322Y5602681D01*
X37806528Y5611469D01*
X37802921Y5619953D01*
X37798603Y5628081D01*
X37793574Y5635853D01*
X37787935Y5643118D01*
X37781585Y5649874D01*
X37774727Y5656021D01*
X37767361Y5661507D01*
X37759487Y5666384D01*
X37751258Y5670499D01*
X37742672Y5673902D01*
X37733833Y5676493D01*
X37724791Y5678322D01*
X37715596Y5679338D01*
G37*
G36*
X37706401Y6619341D02*
G01*
X37697156Y6618731D01*
X37688062Y6617309D01*
X37679122Y6615074D01*
X37674702Y6613702D01*
X37666117Y6610299D01*
X37657887Y6606184D01*
X37650013Y6601307D01*
X37642647Y6595821D01*
X37635789Y6589674D01*
X37629490Y6582918D01*
X37623800Y6575653D01*
X37618771Y6567881D01*
X37614453Y6559753D01*
X37610897Y6551269D01*
X37608052Y6542481D01*
X37606020Y6533438D01*
X37604801Y6524294D01*
X37604395Y6515100D01*
X37604801Y6505905D01*
X37606020Y6496761D01*
X37608052Y6487718D01*
X37610897Y6478930D01*
X37614453Y6470446D01*
X37618771Y6462318D01*
X37623800Y6454546D01*
X37629490Y6447282D01*
X37635789Y6440525D01*
X37642647Y6434378D01*
X37650013Y6428892D01*
X37657887Y6424015D01*
X37666117Y6419900D01*
X37674702Y6416497D01*
X37683541Y6413906D01*
X37692584Y6412077D01*
X37701778Y6411061D01*
X37710973Y6410858D01*
X37720219Y6411468D01*
X37729312Y6412890D01*
X37738253Y6415125D01*
X37742672Y6416497D01*
X37751258Y6419900D01*
X37759487Y6424015D01*
X37767361Y6428892D01*
X37774727Y6434378D01*
X37781585Y6440525D01*
X37787935Y6447282D01*
X37793574Y6454546D01*
X37798603Y6462318D01*
X37802921Y6470446D01*
X37806528Y6478930D01*
X37809322Y6487718D01*
X37811354Y6496761D01*
X37812573Y6505905D01*
X37812980Y6515100D01*
X37812573Y6524294D01*
X37811354Y6533438D01*
X37809322Y6542481D01*
X37806528Y6551269D01*
X37802921Y6559753D01*
X37798603Y6567881D01*
X37793574Y6575653D01*
X37787935Y6582918D01*
X37781585Y6589674D01*
X37774727Y6595821D01*
X37767361Y6601307D01*
X37759487Y6606184D01*
X37751258Y6610299D01*
X37742672Y6613702D01*
X37733833Y6616293D01*
X37724791Y6618122D01*
X37715596Y6619138D01*
G37*
G36*
X37706401Y7533741D02*
G01*
X37697156Y7533131D01*
X37688062Y7531709D01*
X37679122Y7529474D01*
X37674702Y7528102D01*
X37666117Y7524699D01*
X37657887Y7520584D01*
X37650013Y7515707D01*
X37642647Y7510221D01*
X37635789Y7504074D01*
X37629490Y7497318D01*
X37623800Y7490053D01*
X37618771Y7482281D01*
X37614453Y7474153D01*
X37610897Y7465669D01*
X37608052Y7456881D01*
X37606020Y7447838D01*
X37604801Y7438694D01*
X37604395Y7429500D01*
X37604801Y7420305D01*
X37606020Y7411161D01*
X37608052Y7402118D01*
X37610897Y7393330D01*
X37614453Y7384846D01*
X37618771Y7376718D01*
X37623800Y7368946D01*
X37629490Y7361681D01*
X37635789Y7354925D01*
X37642647Y7348778D01*
X37650013Y7343292D01*
X37657887Y7338415D01*
X37666117Y7334300D01*
X37674702Y7330897D01*
X37683541Y7328306D01*
X37692584Y7326477D01*
X37701778Y7325461D01*
X37710973Y7325258D01*
X37720219Y7325868D01*
X37729312Y7327290D01*
X37738253Y7329525D01*
X37742672Y7330897D01*
X37751258Y7334300D01*
X37759487Y7338415D01*
X37767361Y7343292D01*
X37774727Y7348778D01*
X37781585Y7354925D01*
X37787935Y7361681D01*
X37793574Y7368946D01*
X37798603Y7376718D01*
X37802921Y7384846D01*
X37806528Y7393330D01*
X37809322Y7402118D01*
X37811354Y7411161D01*
X37812573Y7420305D01*
X37812980Y7429500D01*
X37812573Y7438694D01*
X37811354Y7447838D01*
X37809322Y7456881D01*
X37806528Y7465669D01*
X37802921Y7474153D01*
X37798603Y7482281D01*
X37793574Y7490053D01*
X37787935Y7497318D01*
X37781585Y7504074D01*
X37774727Y7510221D01*
X37767361Y7515707D01*
X37759487Y7520584D01*
X37751258Y7524699D01*
X37742672Y7528102D01*
X37733833Y7530693D01*
X37724791Y7532522D01*
X37715596Y7533538D01*
G37*
G36*
X38366801Y5679541D02*
G01*
X38357556Y5678932D01*
X38348462Y5677509D01*
X38339522Y5675274D01*
X38335102Y5673902D01*
X38326517Y5670499D01*
X38318287Y5666384D01*
X38310413Y5661507D01*
X38303047Y5656021D01*
X38296189Y5649874D01*
X38289890Y5643118D01*
X38284200Y5635853D01*
X38279171Y5628081D01*
X38274853Y5619953D01*
X38271297Y5611469D01*
X38268452Y5602681D01*
X38266420Y5593638D01*
X38265201Y5584494D01*
X38264795Y5575300D01*
X38265201Y5566105D01*
X38266420Y5556961D01*
X38268452Y5547918D01*
X38271297Y5539130D01*
X38274853Y5530646D01*
X38279171Y5522518D01*
X38284200Y5514746D01*
X38289890Y5507482D01*
X38296189Y5500725D01*
X38303047Y5494578D01*
X38310413Y5489092D01*
X38318287Y5484215D01*
X38326517Y5480100D01*
X38335102Y5476697D01*
X38343941Y5474106D01*
X38352984Y5472277D01*
X38362178Y5471261D01*
X38371373Y5471058D01*
X38380619Y5471668D01*
X38389712Y5473090D01*
X38398653Y5475325D01*
X38403072Y5476697D01*
X38411658Y5480100D01*
X38419887Y5484215D01*
X38427761Y5489092D01*
X38435127Y5494578D01*
X38441985Y5500725D01*
X38448335Y5507482D01*
X38453974Y5514746D01*
X38459003Y5522518D01*
X38463321Y5530646D01*
X38466928Y5539130D01*
X38469722Y5547918D01*
X38471754Y5556961D01*
X38472973Y5566105D01*
X38473380Y5575300D01*
X38472973Y5584494D01*
X38471754Y5593638D01*
X38469722Y5602681D01*
X38466928Y5611469D01*
X38463321Y5619953D01*
X38459003Y5628081D01*
X38453974Y5635853D01*
X38448335Y5643118D01*
X38441985Y5649874D01*
X38435127Y5656021D01*
X38427761Y5661507D01*
X38419887Y5666384D01*
X38411658Y5670499D01*
X38403072Y5673902D01*
X38394233Y5676493D01*
X38385191Y5678322D01*
X38375996Y5679338D01*
G37*
G36*
X38366801Y6619341D02*
G01*
X38357556Y6618731D01*
X38348462Y6617309D01*
X38339522Y6615074D01*
X38335102Y6613702D01*
X38326517Y6610299D01*
X38318287Y6606184D01*
X38310413Y6601307D01*
X38303047Y6595821D01*
X38296189Y6589674D01*
X38289890Y6582918D01*
X38284200Y6575653D01*
X38279171Y6567881D01*
X38274853Y6559753D01*
X38271297Y6551269D01*
X38268452Y6542481D01*
X38266420Y6533438D01*
X38265201Y6524294D01*
X38264795Y6515100D01*
X38265201Y6505905D01*
X38266420Y6496761D01*
X38268452Y6487718D01*
X38271297Y6478930D01*
X38274853Y6470446D01*
X38279171Y6462318D01*
X38284200Y6454546D01*
X38289890Y6447282D01*
X38296189Y6440525D01*
X38303047Y6434378D01*
X38310413Y6428892D01*
X38318287Y6424015D01*
X38326517Y6419900D01*
X38335102Y6416497D01*
X38343941Y6413906D01*
X38352984Y6412077D01*
X38362178Y6411061D01*
X38371373Y6410858D01*
X38380619Y6411468D01*
X38389712Y6412890D01*
X38398653Y6415125D01*
X38403072Y6416497D01*
X38411658Y6419900D01*
X38419887Y6424015D01*
X38427761Y6428892D01*
X38435127Y6434378D01*
X38441985Y6440525D01*
X38448335Y6447282D01*
X38453974Y6454546D01*
X38459003Y6462318D01*
X38463321Y6470446D01*
X38466928Y6478930D01*
X38469722Y6487718D01*
X38471754Y6496761D01*
X38472973Y6505905D01*
X38473380Y6515100D01*
X38472973Y6524294D01*
X38471754Y6533438D01*
X38469722Y6542481D01*
X38466928Y6551269D01*
X38463321Y6559753D01*
X38459003Y6567881D01*
X38453974Y6575653D01*
X38448335Y6582918D01*
X38441985Y6589674D01*
X38435127Y6595821D01*
X38427761Y6601307D01*
X38419887Y6606184D01*
X38411658Y6610299D01*
X38403072Y6613702D01*
X38394233Y6616293D01*
X38385191Y6618122D01*
X38375996Y6619138D01*
G37*
G36*
X38366801Y7533741D02*
G01*
X38357556Y7533131D01*
X38348462Y7531709D01*
X38339522Y7529474D01*
X38335102Y7528102D01*
X38326517Y7524699D01*
X38318287Y7520584D01*
X38310413Y7515707D01*
X38303047Y7510221D01*
X38296189Y7504074D01*
X38289890Y7497318D01*
X38284200Y7490053D01*
X38279171Y7482281D01*
X38274853Y7474153D01*
X38271297Y7465669D01*
X38268452Y7456881D01*
X38266420Y7447838D01*
X38265201Y7438694D01*
X38264795Y7429500D01*
X38265201Y7420305D01*
X38266420Y7411161D01*
X38268452Y7402118D01*
X38271297Y7393330D01*
X38274853Y7384846D01*
X38279171Y7376718D01*
X38284200Y7368946D01*
X38289890Y7361681D01*
X38296189Y7354925D01*
X38303047Y7348778D01*
X38310413Y7343292D01*
X38318287Y7338415D01*
X38326517Y7334300D01*
X38335102Y7330897D01*
X38343941Y7328306D01*
X38352984Y7326477D01*
X38362178Y7325461D01*
X38371373Y7325258D01*
X38380619Y7325868D01*
X38389712Y7327290D01*
X38398653Y7329525D01*
X38403072Y7330897D01*
X38411658Y7334300D01*
X38419887Y7338415D01*
X38427761Y7343292D01*
X38435127Y7348778D01*
X38441985Y7354925D01*
X38448335Y7361681D01*
X38453974Y7368946D01*
X38459003Y7376718D01*
X38463321Y7384846D01*
X38466928Y7393330D01*
X38469722Y7402118D01*
X38471754Y7411161D01*
X38472973Y7420305D01*
X38473380Y7429500D01*
X38472973Y7438694D01*
X38471754Y7447838D01*
X38469722Y7456881D01*
X38466928Y7465669D01*
X38463321Y7474153D01*
X38459003Y7482281D01*
X38453974Y7490053D01*
X38448335Y7497318D01*
X38441985Y7504074D01*
X38435127Y7510221D01*
X38427761Y7515707D01*
X38419887Y7520584D01*
X38411658Y7524699D01*
X38403072Y7528102D01*
X38394233Y7530693D01*
X38385191Y7532522D01*
X38375996Y7533538D01*
G37*
G36*
X11167364Y6517741D02*
G01*
X11158169Y6517131D01*
X11149076Y6515709D01*
X11140084Y6513474D01*
X11135715Y6512102D01*
X11127130Y6508699D01*
X11118850Y6504584D01*
X11111026Y6499707D01*
X11103610Y6494221D01*
X11096752Y6488074D01*
X11090452Y6481318D01*
X11084763Y6474053D01*
X11079734Y6466281D01*
X11075416Y6458153D01*
X11071860Y6449669D01*
X11070336Y6445300D01*
X11067948Y6436360D01*
X11066322Y6427317D01*
X11065510Y6418122D01*
X11065510Y6408877D01*
X11066322Y6399682D01*
X11067948Y6390640D01*
X11070336Y6381699D01*
X11073536Y6373063D01*
X11077498Y6364732D01*
X11082172Y6356756D01*
X11087557Y6349238D01*
X11093551Y6342227D01*
X11100104Y6335776D01*
X11107267Y6329934D01*
X11114887Y6324752D01*
X11122964Y6320282D01*
X11131397Y6316522D01*
X11135715Y6314897D01*
X11144554Y6312306D01*
X11153597Y6310477D01*
X11162741Y6309461D01*
X11171986Y6309258D01*
X11181181Y6309868D01*
X11190325Y6311290D01*
X11199266Y6313525D01*
X11208004Y6316522D01*
X11216386Y6320282D01*
X11224463Y6324752D01*
X11232083Y6329934D01*
X11239246Y6335776D01*
X11245799Y6342227D01*
X11251844Y6349238D01*
X11257178Y6356756D01*
X11261852Y6364732D01*
X11265814Y6373063D01*
X11269014Y6381699D01*
X11271402Y6390640D01*
X11273028Y6399682D01*
X11273840Y6408877D01*
X11273840Y6418122D01*
X11273028Y6427317D01*
X11271402Y6436360D01*
X11269014Y6445300D01*
X11265814Y6453936D01*
X11261852Y6462268D01*
X11257178Y6470243D01*
X11251844Y6477762D01*
X11245799Y6484772D01*
X11239246Y6491224D01*
X11232083Y6497066D01*
X11224463Y6502247D01*
X11216386Y6506718D01*
X11208004Y6510477D01*
X11199266Y6513474D01*
X11190325Y6515709D01*
X11181181Y6517131D01*
X11171986Y6517741D01*
G37*
G36*
X12597587Y6505041D02*
G01*
X12588341Y6504431D01*
X12579248Y6503009D01*
X12570307Y6500774D01*
X12565888Y6499402D01*
X12557302Y6495999D01*
X12549073Y6491884D01*
X12541199Y6487007D01*
X12533833Y6481521D01*
X12526975Y6475374D01*
X12520676Y6468618D01*
X12514986Y6461353D01*
X12509957Y6453581D01*
X12505639Y6445453D01*
X12502083Y6436969D01*
X12499238Y6428181D01*
X12497206Y6419138D01*
X12495987Y6409994D01*
X12495580Y6400800D01*
X12495987Y6391605D01*
X12497206Y6382461D01*
X12499238Y6373418D01*
X12502083Y6364630D01*
X12505639Y6356146D01*
X12509957Y6348018D01*
X12514986Y6340246D01*
X12520676Y6332982D01*
X12526975Y6326225D01*
X12533833Y6320078D01*
X12541199Y6314592D01*
X12549073Y6309715D01*
X12557302Y6305600D01*
X12565888Y6302197D01*
X12574727Y6299606D01*
X12583769Y6297777D01*
X12592964Y6296761D01*
X12602159Y6296558D01*
X12611404Y6297168D01*
X12620498Y6298590D01*
X12629438Y6300825D01*
X12633858Y6302197D01*
X12642443Y6305600D01*
X12650673Y6309715D01*
X12658547Y6314592D01*
X12665913Y6320078D01*
X12672771Y6326225D01*
X12679121Y6332982D01*
X12684760Y6340246D01*
X12689789Y6348018D01*
X12694107Y6356146D01*
X12697714Y6364630D01*
X12700508Y6373418D01*
X12702540Y6382461D01*
X12703759Y6391605D01*
X12704165Y6400800D01*
X12703759Y6409994D01*
X12702540Y6419138D01*
X12700508Y6428181D01*
X12697714Y6436969D01*
X12694107Y6445453D01*
X12689789Y6453581D01*
X12684760Y6461353D01*
X12679121Y6468618D01*
X12672771Y6475374D01*
X12665913Y6481521D01*
X12658547Y6487007D01*
X12650673Y6491884D01*
X12642443Y6495999D01*
X12633858Y6499402D01*
X12625019Y6501993D01*
X12615976Y6503822D01*
X12606782Y6504838D01*
G37*
G36*
X12597587Y7432141D02*
G01*
X12588341Y7431531D01*
X12579248Y7430109D01*
X12570307Y7427874D01*
X12565888Y7426502D01*
X12557302Y7423099D01*
X12549073Y7418984D01*
X12541199Y7414107D01*
X12533833Y7408621D01*
X12526975Y7402474D01*
X12520676Y7395718D01*
X12514986Y7388453D01*
X12509957Y7380681D01*
X12505639Y7372553D01*
X12502083Y7364069D01*
X12499238Y7355281D01*
X12497206Y7346238D01*
X12495987Y7337094D01*
X12495580Y7327900D01*
X12495987Y7318705D01*
X12497206Y7309561D01*
X12499238Y7300518D01*
X12502083Y7291730D01*
X12505639Y7283246D01*
X12509957Y7275118D01*
X12514986Y7267346D01*
X12520676Y7260081D01*
X12526975Y7253325D01*
X12533833Y7247178D01*
X12541199Y7241692D01*
X12549073Y7236815D01*
X12557302Y7232700D01*
X12565888Y7229297D01*
X12574727Y7226706D01*
X12583769Y7224877D01*
X12592964Y7223861D01*
X12602159Y7223658D01*
X12611404Y7224268D01*
X12620498Y7225690D01*
X12629438Y7227925D01*
X12633858Y7229297D01*
X12642443Y7232700D01*
X12650673Y7236815D01*
X12658547Y7241692D01*
X12665913Y7247178D01*
X12672771Y7253325D01*
X12679121Y7260081D01*
X12684760Y7267346D01*
X12689789Y7275118D01*
X12694107Y7283246D01*
X12697714Y7291730D01*
X12700508Y7300518D01*
X12702540Y7309561D01*
X12703759Y7318705D01*
X12704165Y7327900D01*
X12703759Y7337094D01*
X12702540Y7346238D01*
X12700508Y7355281D01*
X12697714Y7364069D01*
X12694107Y7372553D01*
X12689789Y7380681D01*
X12684760Y7388453D01*
X12679121Y7395718D01*
X12672771Y7402474D01*
X12665913Y7408621D01*
X12658547Y7414107D01*
X12650673Y7418984D01*
X12642443Y7423099D01*
X12633858Y7426502D01*
X12625019Y7429093D01*
X12615976Y7430922D01*
X12606782Y7431938D01*
G37*
G36*
X12597587Y5577941D02*
G01*
X12588341Y5577332D01*
X12579248Y5575909D01*
X12570307Y5573674D01*
X12565888Y5572302D01*
X12557302Y5568899D01*
X12549073Y5564784D01*
X12541199Y5559907D01*
X12533833Y5554421D01*
X12526975Y5548274D01*
X12520676Y5541518D01*
X12514986Y5534253D01*
X12509957Y5526481D01*
X12505639Y5518353D01*
X12502083Y5509869D01*
X12499238Y5501081D01*
X12497206Y5492038D01*
X12495987Y5482894D01*
X12495580Y5473700D01*
X12495987Y5464505D01*
X12497206Y5455361D01*
X12499238Y5446318D01*
X12502083Y5437530D01*
X12505639Y5429046D01*
X12509957Y5420918D01*
X12514986Y5413146D01*
X12520676Y5405882D01*
X12526975Y5399125D01*
X12533833Y5392978D01*
X12541199Y5387492D01*
X12549073Y5382615D01*
X12557302Y5378500D01*
X12565888Y5375097D01*
X12574727Y5372506D01*
X12583769Y5370677D01*
X12592964Y5369661D01*
X12602159Y5369458D01*
X12611404Y5370068D01*
X12620498Y5371490D01*
X12629438Y5373725D01*
X12633858Y5375097D01*
X12642443Y5378500D01*
X12650673Y5382615D01*
X12658547Y5387492D01*
X12665913Y5392978D01*
X12672771Y5399125D01*
X12679121Y5405882D01*
X12684760Y5413146D01*
X12689789Y5420918D01*
X12694107Y5429046D01*
X12697714Y5437530D01*
X12700508Y5446318D01*
X12702540Y5455361D01*
X12703759Y5464505D01*
X12704165Y5473700D01*
X12703759Y5482894D01*
X12702540Y5492038D01*
X12700508Y5501081D01*
X12697714Y5509869D01*
X12694107Y5518353D01*
X12689789Y5526481D01*
X12684760Y5534253D01*
X12679121Y5541518D01*
X12672771Y5548274D01*
X12665913Y5554421D01*
X12658547Y5559907D01*
X12650673Y5564784D01*
X12642443Y5568899D01*
X12633858Y5572302D01*
X12625019Y5574893D01*
X12615976Y5576722D01*
X12606782Y5577738D01*
G37*
G36*
X16440759Y6505041D02*
G01*
X16431564Y6504431D01*
X16422471Y6503009D01*
X16413480Y6500774D01*
X16409111Y6499402D01*
X16400526Y6495999D01*
X16392245Y6491884D01*
X16384422Y6487007D01*
X16377005Y6481521D01*
X16370147Y6475374D01*
X16363848Y6468618D01*
X16358158Y6461353D01*
X16353129Y6453581D01*
X16348811Y6445453D01*
X16345255Y6436969D01*
X16343731Y6432600D01*
X16341344Y6423660D01*
X16339718Y6414617D01*
X16338905Y6405422D01*
X16338905Y6396177D01*
X16339718Y6386982D01*
X16341344Y6377940D01*
X16343731Y6368999D01*
X16346932Y6360363D01*
X16350894Y6352032D01*
X16355568Y6344056D01*
X16360952Y6336538D01*
X16366947Y6329527D01*
X16373500Y6323076D01*
X16380663Y6317234D01*
X16388283Y6312052D01*
X16396360Y6307582D01*
X16404793Y6303822D01*
X16409111Y6302197D01*
X16417950Y6299606D01*
X16426992Y6297777D01*
X16436136Y6296761D01*
X16445382Y6296558D01*
X16454577Y6297168D01*
X16463721Y6298590D01*
X16472662Y6300825D01*
X16481399Y6303822D01*
X16489781Y6307582D01*
X16497858Y6312052D01*
X16505478Y6317234D01*
X16512641Y6323076D01*
X16519194Y6329527D01*
X16525240Y6336538D01*
X16530574Y6344056D01*
X16535247Y6352032D01*
X16539210Y6360363D01*
X16542410Y6368999D01*
X16544798Y6377940D01*
X16546423Y6386982D01*
X16547236Y6396177D01*
X16547236Y6405422D01*
X16546423Y6414617D01*
X16544798Y6423660D01*
X16542410Y6432600D01*
X16539210Y6441236D01*
X16535247Y6449568D01*
X16530574Y6457543D01*
X16525240Y6465062D01*
X16519194Y6472072D01*
X16512641Y6478524D01*
X16505478Y6484366D01*
X16497858Y6489547D01*
X16489781Y6494018D01*
X16481399Y6497777D01*
X16472662Y6500774D01*
X16463721Y6503009D01*
X16454577Y6504431D01*
X16445382Y6505041D01*
G37*
G36*
X16440759Y7432141D02*
G01*
X16431564Y7431531D01*
X16422471Y7430109D01*
X16413480Y7427874D01*
X16409111Y7426502D01*
X16400526Y7423099D01*
X16392245Y7418984D01*
X16384422Y7414107D01*
X16377005Y7408621D01*
X16370147Y7402474D01*
X16363848Y7395718D01*
X16358158Y7388453D01*
X16353129Y7380681D01*
X16348811Y7372553D01*
X16345255Y7364069D01*
X16343731Y7359700D01*
X16341344Y7350759D01*
X16339718Y7341717D01*
X16338905Y7332522D01*
X16338905Y7323277D01*
X16339718Y7314082D01*
X16341344Y7305040D01*
X16343731Y7296099D01*
X16346932Y7287463D01*
X16350894Y7279131D01*
X16355568Y7271156D01*
X16360952Y7263638D01*
X16366947Y7256627D01*
X16373500Y7250175D01*
X16380663Y7244334D01*
X16388283Y7239152D01*
X16396360Y7234681D01*
X16404793Y7230922D01*
X16409111Y7229297D01*
X16417950Y7226706D01*
X16426992Y7224877D01*
X16436136Y7223861D01*
X16445382Y7223658D01*
X16454577Y7224268D01*
X16463721Y7225690D01*
X16472662Y7227925D01*
X16481399Y7230922D01*
X16489781Y7234681D01*
X16497858Y7239152D01*
X16505478Y7244334D01*
X16512641Y7250175D01*
X16519194Y7256627D01*
X16525240Y7263638D01*
X16530574Y7271156D01*
X16535247Y7279131D01*
X16539210Y7287463D01*
X16542410Y7296099D01*
X16544798Y7305040D01*
X16546423Y7314082D01*
X16547236Y7323277D01*
X16547236Y7332522D01*
X16546423Y7341717D01*
X16544798Y7350759D01*
X16542410Y7359700D01*
X16539210Y7368336D01*
X16535247Y7376668D01*
X16530574Y7384643D01*
X16525240Y7392162D01*
X16519194Y7399172D01*
X16512641Y7405624D01*
X16505478Y7411466D01*
X16497858Y7416647D01*
X16489781Y7421118D01*
X16481399Y7424877D01*
X16472662Y7427874D01*
X16463721Y7430109D01*
X16454577Y7431531D01*
X16445382Y7432141D01*
G37*
G36*
X16440759Y5577941D02*
G01*
X16431564Y5577332D01*
X16422471Y5575909D01*
X16413480Y5573674D01*
X16409111Y5572302D01*
X16400526Y5568899D01*
X16392245Y5564784D01*
X16384422Y5559907D01*
X16377005Y5554421D01*
X16370147Y5548274D01*
X16363848Y5541518D01*
X16358158Y5534253D01*
X16353129Y5526481D01*
X16348811Y5518353D01*
X16345255Y5509869D01*
X16343731Y5505500D01*
X16341344Y5496560D01*
X16339718Y5487517D01*
X16338905Y5478322D01*
X16338905Y5469077D01*
X16339718Y5459882D01*
X16341344Y5450840D01*
X16343731Y5441899D01*
X16346932Y5433263D01*
X16350894Y5424932D01*
X16355568Y5416956D01*
X16360952Y5409438D01*
X16366947Y5402427D01*
X16373500Y5395976D01*
X16380663Y5390134D01*
X16388283Y5384952D01*
X16396360Y5380482D01*
X16404793Y5376722D01*
X16409111Y5375097D01*
X16417950Y5372506D01*
X16426992Y5370677D01*
X16436136Y5369661D01*
X16445382Y5369458D01*
X16454577Y5370068D01*
X16463721Y5371490D01*
X16472662Y5373725D01*
X16481399Y5376722D01*
X16489781Y5380482D01*
X16497858Y5384952D01*
X16505478Y5390134D01*
X16512641Y5395976D01*
X16519194Y5402427D01*
X16525240Y5409438D01*
X16530574Y5416956D01*
X16535247Y5424932D01*
X16539210Y5433263D01*
X16542410Y5441899D01*
X16544798Y5450840D01*
X16546423Y5459882D01*
X16547236Y5469077D01*
X16547236Y5478322D01*
X16546423Y5487517D01*
X16544798Y5496560D01*
X16542410Y5505500D01*
X16539210Y5514136D01*
X16535247Y5522468D01*
X16530574Y5530443D01*
X16525240Y5537962D01*
X16519194Y5544972D01*
X16512641Y5551424D01*
X16505478Y5557266D01*
X16497858Y5562447D01*
X16489781Y5566918D01*
X16481399Y5570677D01*
X16472662Y5573674D01*
X16463721Y5575909D01*
X16454577Y5577332D01*
X16445382Y5577941D01*
G37*
G36*
X20283982Y6505041D02*
G01*
X20274737Y6504431D01*
X20265644Y6503009D01*
X20256703Y6500774D01*
X20252283Y6499402D01*
X20243698Y6495999D01*
X20235468Y6491884D01*
X20227594Y6487007D01*
X20220228Y6481521D01*
X20213370Y6475374D01*
X20207071Y6468618D01*
X20201382Y6461353D01*
X20196352Y6453581D01*
X20192034Y6445453D01*
X20188478Y6436969D01*
X20185634Y6428181D01*
X20183602Y6419138D01*
X20182382Y6409994D01*
X20181976Y6400800D01*
X20182382Y6391605D01*
X20183602Y6382461D01*
X20185634Y6373418D01*
X20188478Y6364630D01*
X20192034Y6356146D01*
X20196352Y6348018D01*
X20201382Y6340246D01*
X20207071Y6332982D01*
X20213370Y6326225D01*
X20220228Y6320078D01*
X20227594Y6314592D01*
X20235468Y6309715D01*
X20243698Y6305600D01*
X20252283Y6302197D01*
X20261122Y6299606D01*
X20270165Y6297777D01*
X20279360Y6296761D01*
X20288554Y6296558D01*
X20297800Y6297168D01*
X20306893Y6298590D01*
X20315834Y6300825D01*
X20320254Y6302197D01*
X20328839Y6305600D01*
X20337068Y6309715D01*
X20344942Y6314592D01*
X20352308Y6320078D01*
X20359166Y6326225D01*
X20365516Y6332982D01*
X20371155Y6340246D01*
X20376184Y6348018D01*
X20380502Y6356146D01*
X20384109Y6364630D01*
X20386903Y6373418D01*
X20388935Y6382461D01*
X20390154Y6391605D01*
X20390561Y6400800D01*
X20390154Y6409994D01*
X20388935Y6419138D01*
X20386903Y6428181D01*
X20384109Y6436969D01*
X20380502Y6445453D01*
X20376184Y6453581D01*
X20371155Y6461353D01*
X20365516Y6468618D01*
X20359166Y6475374D01*
X20352308Y6481521D01*
X20344942Y6487007D01*
X20337068Y6491884D01*
X20328839Y6495999D01*
X20320254Y6499402D01*
X20311414Y6501993D01*
X20302372Y6503822D01*
X20293177Y6504838D01*
G37*
G36*
X20283982Y7432141D02*
G01*
X20274737Y7431531D01*
X20265644Y7430109D01*
X20256703Y7427874D01*
X20252283Y7426502D01*
X20243698Y7423099D01*
X20235468Y7418984D01*
X20227594Y7414107D01*
X20220228Y7408621D01*
X20213370Y7402474D01*
X20207071Y7395718D01*
X20201382Y7388453D01*
X20196352Y7380681D01*
X20192034Y7372553D01*
X20188478Y7364069D01*
X20185634Y7355281D01*
X20183602Y7346238D01*
X20182382Y7337094D01*
X20181976Y7327900D01*
X20182382Y7318705D01*
X20183602Y7309561D01*
X20185634Y7300518D01*
X20188478Y7291730D01*
X20192034Y7283246D01*
X20196352Y7275118D01*
X20201382Y7267346D01*
X20207071Y7260081D01*
X20213370Y7253325D01*
X20220228Y7247178D01*
X20227594Y7241692D01*
X20235468Y7236815D01*
X20243698Y7232700D01*
X20252283Y7229297D01*
X20261122Y7226706D01*
X20270165Y7224877D01*
X20279360Y7223861D01*
X20288554Y7223658D01*
X20297800Y7224268D01*
X20306893Y7225690D01*
X20315834Y7227925D01*
X20320254Y7229297D01*
X20328839Y7232700D01*
X20337068Y7236815D01*
X20344942Y7241692D01*
X20352308Y7247178D01*
X20359166Y7253325D01*
X20365516Y7260081D01*
X20371155Y7267346D01*
X20376184Y7275118D01*
X20380502Y7283246D01*
X20384109Y7291730D01*
X20386903Y7300518D01*
X20388935Y7309561D01*
X20390154Y7318705D01*
X20390561Y7327900D01*
X20390154Y7337094D01*
X20388935Y7346238D01*
X20386903Y7355281D01*
X20384109Y7364069D01*
X20380502Y7372553D01*
X20376184Y7380681D01*
X20371155Y7388453D01*
X20365516Y7395718D01*
X20359166Y7402474D01*
X20352308Y7408621D01*
X20344942Y7414107D01*
X20337068Y7418984D01*
X20328839Y7423099D01*
X20320254Y7426502D01*
X20311414Y7429093D01*
X20302372Y7430922D01*
X20293177Y7431938D01*
G37*
G36*
X20283982Y5577941D02*
G01*
X20274737Y5577332D01*
X20265644Y5575909D01*
X20256703Y5573674D01*
X20252283Y5572302D01*
X20243698Y5568899D01*
X20235468Y5564784D01*
X20227594Y5559907D01*
X20220228Y5554421D01*
X20213370Y5548274D01*
X20207071Y5541518D01*
X20201382Y5534253D01*
X20196352Y5526481D01*
X20192034Y5518353D01*
X20188478Y5509869D01*
X20185634Y5501081D01*
X20183602Y5492038D01*
X20182382Y5482894D01*
X20181976Y5473700D01*
X20182382Y5464505D01*
X20183602Y5455361D01*
X20185634Y5446318D01*
X20188478Y5437530D01*
X20192034Y5429046D01*
X20196352Y5420918D01*
X20201382Y5413146D01*
X20207071Y5405882D01*
X20213370Y5399125D01*
X20220228Y5392978D01*
X20227594Y5387492D01*
X20235468Y5382615D01*
X20243698Y5378500D01*
X20252283Y5375097D01*
X20261122Y5372506D01*
X20270165Y5370677D01*
X20279360Y5369661D01*
X20288554Y5369458D01*
X20297800Y5370068D01*
X20306893Y5371490D01*
X20315834Y5373725D01*
X20320254Y5375097D01*
X20328839Y5378500D01*
X20337068Y5382615D01*
X20344942Y5387492D01*
X20352308Y5392978D01*
X20359166Y5399125D01*
X20365516Y5405882D01*
X20371155Y5413146D01*
X20376184Y5420918D01*
X20380502Y5429046D01*
X20384109Y5437530D01*
X20386903Y5446318D01*
X20388935Y5455361D01*
X20390154Y5464505D01*
X20390561Y5473700D01*
X20390154Y5482894D01*
X20388935Y5492038D01*
X20386903Y5501081D01*
X20384109Y5509869D01*
X20380502Y5518353D01*
X20376184Y5526481D01*
X20371155Y5534253D01*
X20365516Y5541518D01*
X20359166Y5548274D01*
X20352308Y5554421D01*
X20344942Y5559907D01*
X20337068Y5564784D01*
X20328839Y5568899D01*
X20320254Y5572302D01*
X20311414Y5574893D01*
X20302372Y5576722D01*
X20293177Y5577738D01*
G37*
G36*
X24127206Y6505041D02*
G01*
X24117960Y6504431D01*
X24108867Y6503009D01*
X24099926Y6500774D01*
X24095506Y6499402D01*
X24086921Y6495999D01*
X24078692Y6491884D01*
X24070818Y6487007D01*
X24063452Y6481521D01*
X24056594Y6475374D01*
X24050294Y6468618D01*
X24044605Y6461353D01*
X24039576Y6453581D01*
X24035258Y6445453D01*
X24031702Y6436969D01*
X24028857Y6428181D01*
X24026825Y6419138D01*
X24025606Y6409994D01*
X24025199Y6400800D01*
X24025606Y6391605D01*
X24026825Y6382461D01*
X24028857Y6373418D01*
X24031702Y6364630D01*
X24035258Y6356146D01*
X24039576Y6348018D01*
X24044605Y6340246D01*
X24050294Y6332982D01*
X24056594Y6326225D01*
X24063452Y6320078D01*
X24070818Y6314592D01*
X24078692Y6309715D01*
X24086921Y6305600D01*
X24095506Y6302197D01*
X24104346Y6299606D01*
X24113388Y6297777D01*
X24122583Y6296761D01*
X24131778Y6296558D01*
X24141023Y6297168D01*
X24150116Y6298590D01*
X24159057Y6300825D01*
X24163477Y6302197D01*
X24172062Y6305600D01*
X24180292Y6309715D01*
X24188166Y6314592D01*
X24195532Y6320078D01*
X24202390Y6326225D01*
X24208740Y6332982D01*
X24214378Y6340246D01*
X24219408Y6348018D01*
X24223726Y6356146D01*
X24227332Y6364630D01*
X24230126Y6373418D01*
X24232158Y6382461D01*
X24233378Y6391605D01*
X24233784Y6400800D01*
X24233378Y6409994D01*
X24232158Y6419138D01*
X24230126Y6428181D01*
X24227332Y6436969D01*
X24223726Y6445453D01*
X24219408Y6453581D01*
X24214378Y6461353D01*
X24208740Y6468618D01*
X24202390Y6475374D01*
X24195532Y6481521D01*
X24188166Y6487007D01*
X24180292Y6491884D01*
X24172062Y6495999D01*
X24163477Y6499402D01*
X24154638Y6501993D01*
X24145595Y6503822D01*
X24136400Y6504838D01*
G37*
G36*
X24127206Y7432141D02*
G01*
X24117960Y7431531D01*
X24108867Y7430109D01*
X24099926Y7427874D01*
X24095506Y7426502D01*
X24086921Y7423099D01*
X24078692Y7418984D01*
X24070818Y7414107D01*
X24063452Y7408621D01*
X24056594Y7402474D01*
X24050294Y7395718D01*
X24044605Y7388453D01*
X24039576Y7380681D01*
X24035258Y7372553D01*
X24031702Y7364069D01*
X24028857Y7355281D01*
X24026825Y7346238D01*
X24025606Y7337094D01*
X24025199Y7327900D01*
X24025606Y7318705D01*
X24026825Y7309561D01*
X24028857Y7300518D01*
X24031702Y7291730D01*
X24035258Y7283246D01*
X24039576Y7275118D01*
X24044605Y7267346D01*
X24050294Y7260081D01*
X24056594Y7253325D01*
X24063452Y7247178D01*
X24070818Y7241692D01*
X24078692Y7236815D01*
X24086921Y7232700D01*
X24095506Y7229297D01*
X24104346Y7226706D01*
X24113388Y7224877D01*
X24122583Y7223861D01*
X24131778Y7223658D01*
X24141023Y7224268D01*
X24150116Y7225690D01*
X24159057Y7227925D01*
X24163477Y7229297D01*
X24172062Y7232700D01*
X24180292Y7236815D01*
X24188166Y7241692D01*
X24195532Y7247178D01*
X24202390Y7253325D01*
X24208740Y7260081D01*
X24214378Y7267346D01*
X24219408Y7275118D01*
X24223726Y7283246D01*
X24227332Y7291730D01*
X24230126Y7300518D01*
X24232158Y7309561D01*
X24233378Y7318705D01*
X24233784Y7327900D01*
X24233378Y7337094D01*
X24232158Y7346238D01*
X24230126Y7355281D01*
X24227332Y7364069D01*
X24223726Y7372553D01*
X24219408Y7380681D01*
X24214378Y7388453D01*
X24208740Y7395718D01*
X24202390Y7402474D01*
X24195532Y7408621D01*
X24188166Y7414107D01*
X24180292Y7418984D01*
X24172062Y7423099D01*
X24163477Y7426502D01*
X24154638Y7429093D01*
X24145595Y7430922D01*
X24136400Y7431938D01*
G37*
G36*
X24127206Y5577941D02*
G01*
X24117960Y5577332D01*
X24108867Y5575909D01*
X24099926Y5573674D01*
X24095506Y5572302D01*
X24086921Y5568899D01*
X24078692Y5564784D01*
X24070818Y5559907D01*
X24063452Y5554421D01*
X24056594Y5548274D01*
X24050294Y5541518D01*
X24044605Y5534253D01*
X24039576Y5526481D01*
X24035258Y5518353D01*
X24031702Y5509869D01*
X24028857Y5501081D01*
X24026825Y5492038D01*
X24025606Y5482894D01*
X24025199Y5473700D01*
X24025606Y5464505D01*
X24026825Y5455361D01*
X24028857Y5446318D01*
X24031702Y5437530D01*
X24035258Y5429046D01*
X24039576Y5420918D01*
X24044605Y5413146D01*
X24050294Y5405882D01*
X24056594Y5399125D01*
X24063452Y5392978D01*
X24070818Y5387492D01*
X24078692Y5382615D01*
X24086921Y5378500D01*
X24095506Y5375097D01*
X24104346Y5372506D01*
X24113388Y5370677D01*
X24122583Y5369661D01*
X24131778Y5369458D01*
X24141023Y5370068D01*
X24150116Y5371490D01*
X24159057Y5373725D01*
X24163477Y5375097D01*
X24172062Y5378500D01*
X24180292Y5382615D01*
X24188166Y5387492D01*
X24195532Y5392978D01*
X24202390Y5399125D01*
X24208740Y5405882D01*
X24214378Y5413146D01*
X24219408Y5420918D01*
X24223726Y5429046D01*
X24227332Y5437530D01*
X24230126Y5446318D01*
X24232158Y5455361D01*
X24233378Y5464505D01*
X24233784Y5473700D01*
X24233378Y5482894D01*
X24232158Y5492038D01*
X24230126Y5501081D01*
X24227332Y5509869D01*
X24223726Y5518353D01*
X24219408Y5526481D01*
X24214378Y5534253D01*
X24208740Y5541518D01*
X24202390Y5548274D01*
X24195532Y5554421D01*
X24188166Y5559907D01*
X24180292Y5564784D01*
X24172062Y5568899D01*
X24163477Y5572302D01*
X24154638Y5574893D01*
X24145595Y5576722D01*
X24136400Y5577738D01*
G37*
G36*
X31813601Y6505041D02*
G01*
X31804356Y6504431D01*
X31795262Y6503009D01*
X31786322Y6500774D01*
X31781902Y6499402D01*
X31773317Y6495999D01*
X31765087Y6491884D01*
X31757213Y6487007D01*
X31749847Y6481521D01*
X31742989Y6475374D01*
X31736690Y6468618D01*
X31731000Y6461353D01*
X31725971Y6453581D01*
X31721653Y6445453D01*
X31718097Y6436969D01*
X31715252Y6428181D01*
X31713220Y6419138D01*
X31712001Y6409994D01*
X31711595Y6400800D01*
X31712001Y6391605D01*
X31713220Y6382461D01*
X31715252Y6373418D01*
X31718097Y6364630D01*
X31721653Y6356146D01*
X31725971Y6348018D01*
X31731000Y6340246D01*
X31736690Y6332982D01*
X31742989Y6326225D01*
X31749847Y6320078D01*
X31757213Y6314592D01*
X31765087Y6309715D01*
X31773317Y6305600D01*
X31781902Y6302197D01*
X31790741Y6299606D01*
X31799784Y6297777D01*
X31808978Y6296761D01*
X31818173Y6296558D01*
X31827419Y6297168D01*
X31836512Y6298590D01*
X31845453Y6300825D01*
X31849872Y6302197D01*
X31858458Y6305600D01*
X31866687Y6309715D01*
X31874561Y6314592D01*
X31881927Y6320078D01*
X31888785Y6326225D01*
X31895135Y6332982D01*
X31900774Y6340246D01*
X31905803Y6348018D01*
X31910121Y6356146D01*
X31913728Y6364630D01*
X31916522Y6373418D01*
X31918554Y6382461D01*
X31919773Y6391605D01*
X31920180Y6400800D01*
X31919773Y6409994D01*
X31918554Y6419138D01*
X31916522Y6428181D01*
X31913728Y6436969D01*
X31910121Y6445453D01*
X31905803Y6453581D01*
X31900774Y6461353D01*
X31895135Y6468618D01*
X31888785Y6475374D01*
X31881927Y6481521D01*
X31874561Y6487007D01*
X31866687Y6491884D01*
X31858458Y6495999D01*
X31849872Y6499402D01*
X31841033Y6501993D01*
X31831991Y6503822D01*
X31822796Y6504838D01*
G37*
G36*
X31813601Y7432141D02*
G01*
X31804356Y7431531D01*
X31795262Y7430109D01*
X31786322Y7427874D01*
X31781902Y7426502D01*
X31773317Y7423099D01*
X31765087Y7418984D01*
X31757213Y7414107D01*
X31749847Y7408621D01*
X31742989Y7402474D01*
X31736690Y7395718D01*
X31731000Y7388453D01*
X31725971Y7380681D01*
X31721653Y7372553D01*
X31718097Y7364069D01*
X31715252Y7355281D01*
X31713220Y7346238D01*
X31712001Y7337094D01*
X31711595Y7327900D01*
X31712001Y7318705D01*
X31713220Y7309561D01*
X31715252Y7300518D01*
X31718097Y7291730D01*
X31721653Y7283246D01*
X31725971Y7275118D01*
X31731000Y7267346D01*
X31736690Y7260081D01*
X31742989Y7253325D01*
X31749847Y7247178D01*
X31757213Y7241692D01*
X31765087Y7236815D01*
X31773317Y7232700D01*
X31781902Y7229297D01*
X31790741Y7226706D01*
X31799784Y7224877D01*
X31808978Y7223861D01*
X31818173Y7223658D01*
X31827419Y7224268D01*
X31836512Y7225690D01*
X31845453Y7227925D01*
X31849872Y7229297D01*
X31858458Y7232700D01*
X31866687Y7236815D01*
X31874561Y7241692D01*
X31881927Y7247178D01*
X31888785Y7253325D01*
X31895135Y7260081D01*
X31900774Y7267346D01*
X31905803Y7275118D01*
X31910121Y7283246D01*
X31913728Y7291730D01*
X31916522Y7300518D01*
X31918554Y7309561D01*
X31919773Y7318705D01*
X31920180Y7327900D01*
X31919773Y7337094D01*
X31918554Y7346238D01*
X31916522Y7355281D01*
X31913728Y7364069D01*
X31910121Y7372553D01*
X31905803Y7380681D01*
X31900774Y7388453D01*
X31895135Y7395718D01*
X31888785Y7402474D01*
X31881927Y7408621D01*
X31874561Y7414107D01*
X31866687Y7418984D01*
X31858458Y7423099D01*
X31849872Y7426502D01*
X31841033Y7429093D01*
X31831991Y7430922D01*
X31822796Y7431938D01*
G37*
G36*
X31813601Y5577941D02*
G01*
X31804356Y5577332D01*
X31795262Y5575909D01*
X31786322Y5573674D01*
X31781902Y5572302D01*
X31773317Y5568899D01*
X31765087Y5564784D01*
X31757213Y5559907D01*
X31749847Y5554421D01*
X31742989Y5548274D01*
X31736690Y5541518D01*
X31731000Y5534253D01*
X31725971Y5526481D01*
X31721653Y5518353D01*
X31718097Y5509869D01*
X31715252Y5501081D01*
X31713220Y5492038D01*
X31712001Y5482894D01*
X31711595Y5473700D01*
X31712001Y5464505D01*
X31713220Y5455361D01*
X31715252Y5446318D01*
X31718097Y5437530D01*
X31721653Y5429046D01*
X31725971Y5420918D01*
X31731000Y5413146D01*
X31736690Y5405882D01*
X31742989Y5399125D01*
X31749847Y5392978D01*
X31757213Y5387492D01*
X31765087Y5382615D01*
X31773317Y5378500D01*
X31781902Y5375097D01*
X31790741Y5372506D01*
X31799784Y5370677D01*
X31808978Y5369661D01*
X31818173Y5369458D01*
X31827419Y5370068D01*
X31836512Y5371490D01*
X31845453Y5373725D01*
X31849872Y5375097D01*
X31858458Y5378500D01*
X31866687Y5382615D01*
X31874561Y5387492D01*
X31881927Y5392978D01*
X31888785Y5399125D01*
X31895135Y5405882D01*
X31900774Y5413146D01*
X31905803Y5420918D01*
X31910121Y5429046D01*
X31913728Y5437530D01*
X31916522Y5446318D01*
X31918554Y5455361D01*
X31919773Y5464505D01*
X31920180Y5473700D01*
X31919773Y5482894D01*
X31918554Y5492038D01*
X31916522Y5501081D01*
X31913728Y5509869D01*
X31910121Y5518353D01*
X31905803Y5526481D01*
X31900774Y5534253D01*
X31895135Y5541518D01*
X31888785Y5548274D01*
X31881927Y5554421D01*
X31874561Y5559907D01*
X31866687Y5564784D01*
X31858458Y5568899D01*
X31849872Y5572302D01*
X31841033Y5574893D01*
X31831991Y5576722D01*
X31822796Y5577738D01*
G37*
G36*
X35656774Y6505041D02*
G01*
X35647579Y6504431D01*
X35638486Y6503009D01*
X35629494Y6500774D01*
X35625125Y6499402D01*
X35616540Y6495999D01*
X35608260Y6491884D01*
X35600436Y6487007D01*
X35593020Y6481521D01*
X35586162Y6475374D01*
X35579862Y6468618D01*
X35574173Y6461353D01*
X35569144Y6453581D01*
X35564826Y6445453D01*
X35561270Y6436969D01*
X35559746Y6432600D01*
X35557358Y6423660D01*
X35555732Y6414617D01*
X35554920Y6405422D01*
X35554920Y6396177D01*
X35555732Y6386982D01*
X35557358Y6377940D01*
X35559746Y6368999D01*
X35562946Y6360363D01*
X35566908Y6352032D01*
X35571582Y6344056D01*
X35576967Y6336538D01*
X35582961Y6329527D01*
X35589514Y6323076D01*
X35596677Y6317234D01*
X35604297Y6312052D01*
X35612374Y6307582D01*
X35620807Y6303822D01*
X35625125Y6302197D01*
X35633964Y6299606D01*
X35643007Y6297777D01*
X35652151Y6296761D01*
X35661396Y6296558D01*
X35670591Y6297168D01*
X35679735Y6298590D01*
X35688676Y6300825D01*
X35697414Y6303822D01*
X35705796Y6307582D01*
X35713873Y6312052D01*
X35721493Y6317234D01*
X35728656Y6323076D01*
X35735209Y6329527D01*
X35741254Y6336538D01*
X35746588Y6344056D01*
X35751262Y6352032D01*
X35755224Y6360363D01*
X35758424Y6368999D01*
X35760812Y6377940D01*
X35762438Y6386982D01*
X35763250Y6396177D01*
X35763250Y6405422D01*
X35762438Y6414617D01*
X35760812Y6423660D01*
X35758424Y6432600D01*
X35755224Y6441236D01*
X35751262Y6449568D01*
X35746588Y6457543D01*
X35741254Y6465062D01*
X35735209Y6472072D01*
X35728656Y6478524D01*
X35721493Y6484366D01*
X35713873Y6489547D01*
X35705796Y6494018D01*
X35697414Y6497777D01*
X35688676Y6500774D01*
X35679735Y6503009D01*
X35670591Y6504431D01*
X35661396Y6505041D01*
G37*
G36*
X35656774Y7432141D02*
G01*
X35647579Y7431531D01*
X35638486Y7430109D01*
X35629494Y7427874D01*
X35625125Y7426502D01*
X35616540Y7423099D01*
X35608260Y7418984D01*
X35600436Y7414107D01*
X35593020Y7408621D01*
X35586162Y7402474D01*
X35579862Y7395718D01*
X35574173Y7388453D01*
X35569144Y7380681D01*
X35564826Y7372553D01*
X35561270Y7364069D01*
X35559746Y7359700D01*
X35557358Y7350759D01*
X35555732Y7341717D01*
X35554920Y7332522D01*
X35554920Y7323277D01*
X35555732Y7314082D01*
X35557358Y7305040D01*
X35559746Y7296099D01*
X35562946Y7287463D01*
X35566908Y7279131D01*
X35571582Y7271156D01*
X35576967Y7263638D01*
X35582961Y7256627D01*
X35589514Y7250175D01*
X35596677Y7244334D01*
X35604297Y7239152D01*
X35612374Y7234681D01*
X35620807Y7230922D01*
X35625125Y7229297D01*
X35633964Y7226706D01*
X35643007Y7224877D01*
X35652151Y7223861D01*
X35661396Y7223658D01*
X35670591Y7224268D01*
X35679735Y7225690D01*
X35688676Y7227925D01*
X35697414Y7230922D01*
X35705796Y7234681D01*
X35713873Y7239152D01*
X35721493Y7244334D01*
X35728656Y7250175D01*
X35735209Y7256627D01*
X35741254Y7263638D01*
X35746588Y7271156D01*
X35751262Y7279131D01*
X35755224Y7287463D01*
X35758424Y7296099D01*
X35760812Y7305040D01*
X35762438Y7314082D01*
X35763250Y7323277D01*
X35763250Y7332522D01*
X35762438Y7341717D01*
X35760812Y7350759D01*
X35758424Y7359700D01*
X35755224Y7368336D01*
X35751262Y7376668D01*
X35746588Y7384643D01*
X35741254Y7392162D01*
X35735209Y7399172D01*
X35728656Y7405624D01*
X35721493Y7411466D01*
X35713873Y7416647D01*
X35705796Y7421118D01*
X35697414Y7424877D01*
X35688676Y7427874D01*
X35679735Y7430109D01*
X35670591Y7431531D01*
X35661396Y7432141D01*
G37*
G36*
X35656774Y5577941D02*
G01*
X35647579Y5577332D01*
X35638486Y5575909D01*
X35629494Y5573674D01*
X35625125Y5572302D01*
X35616540Y5568899D01*
X35608260Y5564784D01*
X35600436Y5559907D01*
X35593020Y5554421D01*
X35586162Y5548274D01*
X35579862Y5541518D01*
X35574173Y5534253D01*
X35569144Y5526481D01*
X35564826Y5518353D01*
X35561270Y5509869D01*
X35559746Y5505500D01*
X35557358Y5496560D01*
X35555732Y5487517D01*
X35554920Y5478322D01*
X35554920Y5469077D01*
X35555732Y5459882D01*
X35557358Y5450840D01*
X35559746Y5441899D01*
X35562946Y5433263D01*
X35566908Y5424932D01*
X35571582Y5416956D01*
X35576967Y5409438D01*
X35582961Y5402427D01*
X35589514Y5395976D01*
X35596677Y5390134D01*
X35604297Y5384952D01*
X35612374Y5380482D01*
X35620807Y5376722D01*
X35625125Y5375097D01*
X35633964Y5372506D01*
X35643007Y5370677D01*
X35652151Y5369661D01*
X35661396Y5369458D01*
X35670591Y5370068D01*
X35679735Y5371490D01*
X35688676Y5373725D01*
X35697414Y5376722D01*
X35705796Y5380482D01*
X35713873Y5384952D01*
X35721493Y5390134D01*
X35728656Y5395976D01*
X35735209Y5402427D01*
X35741254Y5409438D01*
X35746588Y5416956D01*
X35751262Y5424932D01*
X35755224Y5433263D01*
X35758424Y5441899D01*
X35760812Y5450840D01*
X35762438Y5459882D01*
X35763250Y5469077D01*
X35763250Y5478322D01*
X35762438Y5487517D01*
X35760812Y5496560D01*
X35758424Y5505500D01*
X35755224Y5514136D01*
X35751262Y5522468D01*
X35746588Y5530443D01*
X35741254Y5537962D01*
X35735209Y5544972D01*
X35728656Y5551424D01*
X35721493Y5557266D01*
X35713873Y5562447D01*
X35705796Y5566918D01*
X35697414Y5570677D01*
X35688676Y5573674D01*
X35679735Y5575909D01*
X35670591Y5577332D01*
X35661396Y5577941D01*
G37*
G36*
X39499997Y6505041D02*
G01*
X39490751Y6504431D01*
X39481658Y6503009D01*
X39472717Y6500774D01*
X39468298Y6499402D01*
X39459712Y6495999D01*
X39451483Y6491884D01*
X39443609Y6487007D01*
X39436243Y6481521D01*
X39429385Y6475374D01*
X39423086Y6468618D01*
X39417396Y6461353D01*
X39412367Y6453581D01*
X39408049Y6445453D01*
X39404493Y6436969D01*
X39401648Y6428181D01*
X39399616Y6419138D01*
X39398397Y6409994D01*
X39397990Y6400800D01*
X39398397Y6391605D01*
X39399616Y6382461D01*
X39401648Y6373418D01*
X39404493Y6364630D01*
X39408049Y6356146D01*
X39412367Y6348018D01*
X39417396Y6340246D01*
X39423086Y6332982D01*
X39429385Y6326225D01*
X39436243Y6320078D01*
X39443609Y6314592D01*
X39451483Y6309715D01*
X39459712Y6305600D01*
X39468298Y6302197D01*
X39477137Y6299606D01*
X39486179Y6297777D01*
X39495374Y6296761D01*
X39504569Y6296558D01*
X39513814Y6297168D01*
X39522908Y6298590D01*
X39531848Y6300825D01*
X39536268Y6302197D01*
X39544853Y6305600D01*
X39553083Y6309715D01*
X39560957Y6314592D01*
X39568323Y6320078D01*
X39575181Y6326225D01*
X39581531Y6332982D01*
X39587170Y6340246D01*
X39592199Y6348018D01*
X39596517Y6356146D01*
X39600124Y6364630D01*
X39602918Y6373418D01*
X39604950Y6382461D01*
X39606169Y6391605D01*
X39606575Y6400800D01*
X39606169Y6409994D01*
X39604950Y6419138D01*
X39602918Y6428181D01*
X39600124Y6436969D01*
X39596517Y6445453D01*
X39592199Y6453581D01*
X39587170Y6461353D01*
X39581531Y6468618D01*
X39575181Y6475374D01*
X39568323Y6481521D01*
X39560957Y6487007D01*
X39553083Y6491884D01*
X39544853Y6495999D01*
X39536268Y6499402D01*
X39527429Y6501993D01*
X39518386Y6503822D01*
X39509192Y6504838D01*
G37*
G36*
X39499997Y7432141D02*
G01*
X39490751Y7431531D01*
X39481658Y7430109D01*
X39472717Y7427874D01*
X39468298Y7426502D01*
X39459712Y7423099D01*
X39451483Y7418984D01*
X39443609Y7414107D01*
X39436243Y7408621D01*
X39429385Y7402474D01*
X39423086Y7395718D01*
X39417396Y7388453D01*
X39412367Y7380681D01*
X39408049Y7372553D01*
X39404493Y7364069D01*
X39401648Y7355281D01*
X39399616Y7346238D01*
X39398397Y7337094D01*
X39397990Y7327900D01*
X39398397Y7318705D01*
X39399616Y7309561D01*
X39401648Y7300518D01*
X39404493Y7291730D01*
X39408049Y7283246D01*
X39412367Y7275118D01*
X39417396Y7267346D01*
X39423086Y7260081D01*
X39429385Y7253325D01*
X39436243Y7247178D01*
X39443609Y7241692D01*
X39451483Y7236815D01*
X39459712Y7232700D01*
X39468298Y7229297D01*
X39477137Y7226706D01*
X39486179Y7224877D01*
X39495374Y7223861D01*
X39504569Y7223658D01*
X39513814Y7224268D01*
X39522908Y7225690D01*
X39531848Y7227925D01*
X39536268Y7229297D01*
X39544853Y7232700D01*
X39553083Y7236815D01*
X39560957Y7241692D01*
X39568323Y7247178D01*
X39575181Y7253325D01*
X39581531Y7260081D01*
X39587170Y7267346D01*
X39592199Y7275118D01*
X39596517Y7283246D01*
X39600124Y7291730D01*
X39602918Y7300518D01*
X39604950Y7309561D01*
X39606169Y7318705D01*
X39606575Y7327900D01*
X39606169Y7337094D01*
X39604950Y7346238D01*
X39602918Y7355281D01*
X39600124Y7364069D01*
X39596517Y7372553D01*
X39592199Y7380681D01*
X39587170Y7388453D01*
X39581531Y7395718D01*
X39575181Y7402474D01*
X39568323Y7408621D01*
X39560957Y7414107D01*
X39553083Y7418984D01*
X39544853Y7423099D01*
X39536268Y7426502D01*
X39527429Y7429093D01*
X39518386Y7430922D01*
X39509192Y7431938D01*
G37*
G36*
X39499997Y5577941D02*
G01*
X39490751Y5577332D01*
X39481658Y5575909D01*
X39472717Y5573674D01*
X39468298Y5572302D01*
X39459712Y5568899D01*
X39451483Y5564784D01*
X39443609Y5559907D01*
X39436243Y5554421D01*
X39429385Y5548274D01*
X39423086Y5541518D01*
X39417396Y5534253D01*
X39412367Y5526481D01*
X39408049Y5518353D01*
X39404493Y5509869D01*
X39401648Y5501081D01*
X39399616Y5492038D01*
X39398397Y5482894D01*
X39397990Y5473700D01*
X39398397Y5464505D01*
X39399616Y5455361D01*
X39401648Y5446318D01*
X39404493Y5437530D01*
X39408049Y5429046D01*
X39412367Y5420918D01*
X39417396Y5413146D01*
X39423086Y5405882D01*
X39429385Y5399125D01*
X39436243Y5392978D01*
X39443609Y5387492D01*
X39451483Y5382615D01*
X39459712Y5378500D01*
X39468298Y5375097D01*
X39477137Y5372506D01*
X39486179Y5370677D01*
X39495374Y5369661D01*
X39504569Y5369458D01*
X39513814Y5370068D01*
X39522908Y5371490D01*
X39531848Y5373725D01*
X39536268Y5375097D01*
X39544853Y5378500D01*
X39553083Y5382615D01*
X39560957Y5387492D01*
X39568323Y5392978D01*
X39575181Y5399125D01*
X39581531Y5405882D01*
X39587170Y5413146D01*
X39592199Y5420918D01*
X39596517Y5429046D01*
X39600124Y5437530D01*
X39602918Y5446318D01*
X39604950Y5455361D01*
X39606169Y5464505D01*
X39606575Y5473700D01*
X39606169Y5482894D01*
X39604950Y5492038D01*
X39602918Y5501081D01*
X39600124Y5509869D01*
X39596517Y5518353D01*
X39592199Y5526481D01*
X39587170Y5534253D01*
X39581531Y5541518D01*
X39575181Y5548274D01*
X39568323Y5554421D01*
X39560957Y5559907D01*
X39553083Y5564784D01*
X39544853Y5568899D01*
X39536268Y5572302D01*
X39527429Y5574893D01*
X39518386Y5576722D01*
X39509192Y5577738D01*
G37*
G36*
X18853759Y5577941D02*
G01*
X18844564Y5577332D01*
X18835471Y5575909D01*
X18826480Y5573674D01*
X18822111Y5572302D01*
X18813526Y5568899D01*
X18805245Y5564784D01*
X18797422Y5559907D01*
X18790005Y5554421D01*
X18783147Y5548274D01*
X18776848Y5541518D01*
X18771158Y5534253D01*
X18766129Y5526481D01*
X18761811Y5518353D01*
X18758255Y5509869D01*
X18756731Y5505500D01*
X18754344Y5496560D01*
X18752718Y5487517D01*
X18751905Y5478322D01*
X18751905Y5469077D01*
X18752718Y5459882D01*
X18754344Y5450840D01*
X18756731Y5441899D01*
X18759932Y5433263D01*
X18763894Y5424932D01*
X18768568Y5416956D01*
X18773952Y5409438D01*
X18779947Y5402427D01*
X18786500Y5395976D01*
X18793663Y5390134D01*
X18801283Y5384952D01*
X18809360Y5380482D01*
X18817793Y5376722D01*
X18822111Y5375097D01*
X18830950Y5372506D01*
X18839992Y5370677D01*
X18849136Y5369661D01*
X18858382Y5369458D01*
X18867577Y5370068D01*
X18876721Y5371490D01*
X18885662Y5373725D01*
X18894399Y5376722D01*
X18902781Y5380482D01*
X18910858Y5384952D01*
X18918478Y5390134D01*
X18925641Y5395976D01*
X18932194Y5402427D01*
X18938240Y5409438D01*
X18943574Y5416956D01*
X18948247Y5424932D01*
X18952210Y5433263D01*
X18955410Y5441899D01*
X18957798Y5450840D01*
X18959423Y5459882D01*
X18960236Y5469077D01*
X18960236Y5478322D01*
X18959423Y5487517D01*
X18957798Y5496560D01*
X18955410Y5505500D01*
X18952210Y5514136D01*
X18948247Y5522468D01*
X18943574Y5530443D01*
X18938240Y5537962D01*
X18932194Y5544972D01*
X18925641Y5551424D01*
X18918478Y5557266D01*
X18910858Y5562447D01*
X18902781Y5566918D01*
X18894399Y5570677D01*
X18885662Y5573674D01*
X18876721Y5575909D01*
X18867577Y5577332D01*
X18858382Y5577941D01*
G37*
G36*
X18853759Y7432141D02*
G01*
X18844564Y7431531D01*
X18835471Y7430109D01*
X18826480Y7427874D01*
X18822111Y7426502D01*
X18813526Y7423099D01*
X18805245Y7418984D01*
X18797422Y7414107D01*
X18790005Y7408621D01*
X18783147Y7402474D01*
X18776848Y7395718D01*
X18771158Y7388453D01*
X18766129Y7380681D01*
X18761811Y7372553D01*
X18758255Y7364069D01*
X18756731Y7359700D01*
X18754344Y7350759D01*
X18752718Y7341717D01*
X18751905Y7332522D01*
X18751905Y7323277D01*
X18752718Y7314082D01*
X18754344Y7305040D01*
X18756731Y7296099D01*
X18759932Y7287463D01*
X18763894Y7279131D01*
X18768568Y7271156D01*
X18773952Y7263638D01*
X18779947Y7256627D01*
X18786500Y7250175D01*
X18793663Y7244334D01*
X18801283Y7239152D01*
X18809360Y7234681D01*
X18817793Y7230922D01*
X18822111Y7229297D01*
X18830950Y7226706D01*
X18839992Y7224877D01*
X18849136Y7223861D01*
X18858382Y7223658D01*
X18867577Y7224268D01*
X18876721Y7225690D01*
X18885662Y7227925D01*
X18894399Y7230922D01*
X18902781Y7234681D01*
X18910858Y7239152D01*
X18918478Y7244334D01*
X18925641Y7250175D01*
X18932194Y7256627D01*
X18938240Y7263638D01*
X18943574Y7271156D01*
X18948247Y7279131D01*
X18952210Y7287463D01*
X18955410Y7296099D01*
X18957798Y7305040D01*
X18959423Y7314082D01*
X18960236Y7323277D01*
X18960236Y7332522D01*
X18959423Y7341717D01*
X18957798Y7350759D01*
X18955410Y7359700D01*
X18952210Y7368336D01*
X18948247Y7376668D01*
X18943574Y7384643D01*
X18938240Y7392162D01*
X18932194Y7399172D01*
X18925641Y7405624D01*
X18918478Y7411466D01*
X18910858Y7416647D01*
X18902781Y7421118D01*
X18894399Y7424877D01*
X18885662Y7427874D01*
X18876721Y7430109D01*
X18867577Y7431531D01*
X18858382Y7432141D01*
G37*
G36*
X18853759Y6517741D02*
G01*
X18844564Y6517131D01*
X18835471Y6515709D01*
X18826480Y6513474D01*
X18822111Y6512102D01*
X18813526Y6508699D01*
X18805245Y6504584D01*
X18797422Y6499707D01*
X18790005Y6494221D01*
X18783147Y6488074D01*
X18776848Y6481318D01*
X18771158Y6474053D01*
X18766129Y6466281D01*
X18761811Y6458153D01*
X18758255Y6449669D01*
X18756731Y6445300D01*
X18754344Y6436360D01*
X18752718Y6427317D01*
X18751905Y6418122D01*
X18751905Y6408877D01*
X18752718Y6399682D01*
X18754344Y6390640D01*
X18756731Y6381699D01*
X18759932Y6373063D01*
X18763894Y6364732D01*
X18768568Y6356756D01*
X18773952Y6349238D01*
X18779947Y6342227D01*
X18786500Y6335776D01*
X18793663Y6329934D01*
X18801283Y6324752D01*
X18809360Y6320282D01*
X18817793Y6316522D01*
X18822111Y6314897D01*
X18830950Y6312306D01*
X18839992Y6310477D01*
X18849136Y6309461D01*
X18858382Y6309258D01*
X18867577Y6309868D01*
X18876721Y6311290D01*
X18885662Y6313525D01*
X18894399Y6316522D01*
X18902781Y6320282D01*
X18910858Y6324752D01*
X18918478Y6329934D01*
X18925641Y6335776D01*
X18932194Y6342227D01*
X18938240Y6349238D01*
X18943574Y6356756D01*
X18948247Y6364732D01*
X18952210Y6373063D01*
X18955410Y6381699D01*
X18957798Y6390640D01*
X18959423Y6399682D01*
X18960236Y6408877D01*
X18960236Y6418122D01*
X18959423Y6427317D01*
X18957798Y6436360D01*
X18955410Y6445300D01*
X18952210Y6453936D01*
X18948247Y6462268D01*
X18943574Y6470243D01*
X18938240Y6477762D01*
X18932194Y6484772D01*
X18925641Y6491224D01*
X18918478Y6497066D01*
X18910858Y6502247D01*
X18902781Y6506718D01*
X18894399Y6510477D01*
X18885662Y6513474D01*
X18876721Y6515709D01*
X18867577Y6517131D01*
X18858382Y6517741D01*
G37*
G36*
X22696982Y5577941D02*
G01*
X22687788Y5577332D01*
X22678694Y5575909D01*
X22669703Y5573674D01*
X22665334Y5572302D01*
X22656749Y5568899D01*
X22648468Y5564784D01*
X22640645Y5559907D01*
X22633228Y5554421D01*
X22626370Y5548274D01*
X22620071Y5541518D01*
X22614382Y5534253D01*
X22609352Y5526481D01*
X22605034Y5518353D01*
X22601478Y5509869D01*
X22599954Y5505500D01*
X22597567Y5496560D01*
X22595941Y5487517D01*
X22595128Y5478322D01*
X22595128Y5469077D01*
X22595941Y5459882D01*
X22597567Y5450840D01*
X22599954Y5441899D01*
X22603155Y5433263D01*
X22607117Y5424932D01*
X22611791Y5416956D01*
X22617176Y5409438D01*
X22623170Y5402427D01*
X22629723Y5395976D01*
X22636886Y5390134D01*
X22644506Y5384952D01*
X22652583Y5380482D01*
X22661016Y5376722D01*
X22665334Y5375097D01*
X22674173Y5372506D01*
X22683216Y5370677D01*
X22692360Y5369661D01*
X22701605Y5369458D01*
X22710800Y5370068D01*
X22719944Y5371490D01*
X22728885Y5373725D01*
X22737622Y5376722D01*
X22746004Y5380482D01*
X22754082Y5384952D01*
X22761702Y5390134D01*
X22768864Y5395976D01*
X22775418Y5402427D01*
X22781463Y5409438D01*
X22786797Y5416956D01*
X22791470Y5424932D01*
X22795433Y5433263D01*
X22798633Y5441899D01*
X22801021Y5450840D01*
X22802646Y5459882D01*
X22803459Y5469077D01*
X22803459Y5478322D01*
X22802646Y5487517D01*
X22801021Y5496560D01*
X22798633Y5505500D01*
X22795433Y5514136D01*
X22791470Y5522468D01*
X22786797Y5530443D01*
X22781463Y5537962D01*
X22775418Y5544972D01*
X22768864Y5551424D01*
X22761702Y5557266D01*
X22754082Y5562447D01*
X22746004Y5566918D01*
X22737622Y5570677D01*
X22728885Y5573674D01*
X22719944Y5575909D01*
X22710800Y5577332D01*
X22701605Y5577941D01*
G37*
G36*
X22696982Y7432141D02*
G01*
X22687788Y7431531D01*
X22678694Y7430109D01*
X22669703Y7427874D01*
X22665334Y7426502D01*
X22656749Y7423099D01*
X22648468Y7418984D01*
X22640645Y7414107D01*
X22633228Y7408621D01*
X22626370Y7402474D01*
X22620071Y7395718D01*
X22614382Y7388453D01*
X22609352Y7380681D01*
X22605034Y7372553D01*
X22601478Y7364069D01*
X22599954Y7359700D01*
X22597567Y7350759D01*
X22595941Y7341717D01*
X22595128Y7332522D01*
X22595128Y7323277D01*
X22595941Y7314082D01*
X22597567Y7305040D01*
X22599954Y7296099D01*
X22603155Y7287463D01*
X22607117Y7279131D01*
X22611791Y7271156D01*
X22617176Y7263638D01*
X22623170Y7256627D01*
X22629723Y7250175D01*
X22636886Y7244334D01*
X22644506Y7239152D01*
X22652583Y7234681D01*
X22661016Y7230922D01*
X22665334Y7229297D01*
X22674173Y7226706D01*
X22683216Y7224877D01*
X22692360Y7223861D01*
X22701605Y7223658D01*
X22710800Y7224268D01*
X22719944Y7225690D01*
X22728885Y7227925D01*
X22737622Y7230922D01*
X22746004Y7234681D01*
X22754082Y7239152D01*
X22761702Y7244334D01*
X22768864Y7250175D01*
X22775418Y7256627D01*
X22781463Y7263638D01*
X22786797Y7271156D01*
X22791470Y7279131D01*
X22795433Y7287463D01*
X22798633Y7296099D01*
X22801021Y7305040D01*
X22802646Y7314082D01*
X22803459Y7323277D01*
X22803459Y7332522D01*
X22802646Y7341717D01*
X22801021Y7350759D01*
X22798633Y7359700D01*
X22795433Y7368336D01*
X22791470Y7376668D01*
X22786797Y7384643D01*
X22781463Y7392162D01*
X22775418Y7399172D01*
X22768864Y7405624D01*
X22761702Y7411466D01*
X22754082Y7416647D01*
X22746004Y7421118D01*
X22737622Y7424877D01*
X22728885Y7427874D01*
X22719944Y7430109D01*
X22710800Y7431531D01*
X22701605Y7432141D01*
G37*
G36*
X22696982Y6517741D02*
G01*
X22687788Y6517131D01*
X22678694Y6515709D01*
X22669703Y6513474D01*
X22665334Y6512102D01*
X22656749Y6508699D01*
X22648468Y6504584D01*
X22640645Y6499707D01*
X22633228Y6494221D01*
X22626370Y6488074D01*
X22620071Y6481318D01*
X22614382Y6474053D01*
X22609352Y6466281D01*
X22605034Y6458153D01*
X22601478Y6449669D01*
X22599954Y6445300D01*
X22597567Y6436360D01*
X22595941Y6427317D01*
X22595128Y6418122D01*
X22595128Y6408877D01*
X22595941Y6399682D01*
X22597567Y6390640D01*
X22599954Y6381699D01*
X22603155Y6373063D01*
X22607117Y6364732D01*
X22611791Y6356756D01*
X22617176Y6349238D01*
X22623170Y6342227D01*
X22629723Y6335776D01*
X22636886Y6329934D01*
X22644506Y6324752D01*
X22652583Y6320282D01*
X22661016Y6316522D01*
X22665334Y6314897D01*
X22674173Y6312306D01*
X22683216Y6310477D01*
X22692360Y6309461D01*
X22701605Y6309258D01*
X22710800Y6309868D01*
X22719944Y6311290D01*
X22728885Y6313525D01*
X22737622Y6316522D01*
X22746004Y6320282D01*
X22754082Y6324752D01*
X22761702Y6329934D01*
X22768864Y6335776D01*
X22775418Y6342227D01*
X22781463Y6349238D01*
X22786797Y6356756D01*
X22791470Y6364732D01*
X22795433Y6373063D01*
X22798633Y6381699D01*
X22801021Y6390640D01*
X22802646Y6399682D01*
X22803459Y6408877D01*
X22803459Y6418122D01*
X22802646Y6427317D01*
X22801021Y6436360D01*
X22798633Y6445300D01*
X22795433Y6453936D01*
X22791470Y6462268D01*
X22786797Y6470243D01*
X22781463Y6477762D01*
X22775418Y6484772D01*
X22768864Y6491224D01*
X22761702Y6497066D01*
X22754082Y6502247D01*
X22746004Y6506718D01*
X22737622Y6510477D01*
X22728885Y6513474D01*
X22719944Y6515709D01*
X22710800Y6517131D01*
X22701605Y6517741D01*
G37*
G36*
X34226601Y5577941D02*
G01*
X34217356Y5577332D01*
X34208262Y5575909D01*
X34199322Y5573674D01*
X34194902Y5572302D01*
X34186317Y5568899D01*
X34178087Y5564784D01*
X34170213Y5559907D01*
X34162847Y5554421D01*
X34155989Y5548274D01*
X34149690Y5541518D01*
X34144000Y5534253D01*
X34138971Y5526481D01*
X34134653Y5518353D01*
X34131097Y5509869D01*
X34128252Y5501081D01*
X34126220Y5492038D01*
X34125001Y5482894D01*
X34124595Y5473700D01*
X34125001Y5464505D01*
X34126220Y5455361D01*
X34128252Y5446318D01*
X34131097Y5437530D01*
X34134653Y5429046D01*
X34138971Y5420918D01*
X34144000Y5413146D01*
X34149690Y5405882D01*
X34155989Y5399125D01*
X34162847Y5392978D01*
X34170213Y5387492D01*
X34178087Y5382615D01*
X34186317Y5378500D01*
X34194902Y5375097D01*
X34203741Y5372506D01*
X34212784Y5370677D01*
X34221978Y5369661D01*
X34231173Y5369458D01*
X34240419Y5370068D01*
X34249512Y5371490D01*
X34258453Y5373725D01*
X34262872Y5375097D01*
X34271458Y5378500D01*
X34279687Y5382615D01*
X34287561Y5387492D01*
X34294927Y5392978D01*
X34301785Y5399125D01*
X34308135Y5405882D01*
X34313774Y5413146D01*
X34318803Y5420918D01*
X34323121Y5429046D01*
X34326728Y5437530D01*
X34329522Y5446318D01*
X34331554Y5455361D01*
X34332773Y5464505D01*
X34333180Y5473700D01*
X34332773Y5482894D01*
X34331554Y5492038D01*
X34329522Y5501081D01*
X34326728Y5509869D01*
X34323121Y5518353D01*
X34318803Y5526481D01*
X34313774Y5534253D01*
X34308135Y5541518D01*
X34301785Y5548274D01*
X34294927Y5554421D01*
X34287561Y5559907D01*
X34279687Y5564784D01*
X34271458Y5568899D01*
X34262872Y5572302D01*
X34254033Y5574893D01*
X34244991Y5576722D01*
X34235796Y5577738D01*
G37*
G36*
X34226601Y7432141D02*
G01*
X34217356Y7431531D01*
X34208262Y7430109D01*
X34199322Y7427874D01*
X34194902Y7426502D01*
X34186317Y7423099D01*
X34178087Y7418984D01*
X34170213Y7414107D01*
X34162847Y7408621D01*
X34155989Y7402474D01*
X34149690Y7395718D01*
X34144000Y7388453D01*
X34138971Y7380681D01*
X34134653Y7372553D01*
X34131097Y7364069D01*
X34128252Y7355281D01*
X34126220Y7346238D01*
X34125001Y7337094D01*
X34124595Y7327900D01*
X34125001Y7318705D01*
X34126220Y7309561D01*
X34128252Y7300518D01*
X34131097Y7291730D01*
X34134653Y7283246D01*
X34138971Y7275118D01*
X34144000Y7267346D01*
X34149690Y7260081D01*
X34155989Y7253325D01*
X34162847Y7247178D01*
X34170213Y7241692D01*
X34178087Y7236815D01*
X34186317Y7232700D01*
X34194902Y7229297D01*
X34203741Y7226706D01*
X34212784Y7224877D01*
X34221978Y7223861D01*
X34231173Y7223658D01*
X34240419Y7224268D01*
X34249512Y7225690D01*
X34258453Y7227925D01*
X34262872Y7229297D01*
X34271458Y7232700D01*
X34279687Y7236815D01*
X34287561Y7241692D01*
X34294927Y7247178D01*
X34301785Y7253325D01*
X34308135Y7260081D01*
X34313774Y7267346D01*
X34318803Y7275118D01*
X34323121Y7283246D01*
X34326728Y7291730D01*
X34329522Y7300518D01*
X34331554Y7309561D01*
X34332773Y7318705D01*
X34333180Y7327900D01*
X34332773Y7337094D01*
X34331554Y7346238D01*
X34329522Y7355281D01*
X34326728Y7364069D01*
X34323121Y7372553D01*
X34318803Y7380681D01*
X34313774Y7388453D01*
X34308135Y7395718D01*
X34301785Y7402474D01*
X34294927Y7408621D01*
X34287561Y7414107D01*
X34279687Y7418984D01*
X34271458Y7423099D01*
X34262872Y7426502D01*
X34254033Y7429093D01*
X34244991Y7430922D01*
X34235796Y7431938D01*
G37*
G36*
X34226601Y6517741D02*
G01*
X34217356Y6517131D01*
X34208262Y6515709D01*
X34199322Y6513474D01*
X34194902Y6512102D01*
X34186317Y6508699D01*
X34178087Y6504584D01*
X34170213Y6499707D01*
X34162847Y6494221D01*
X34155989Y6488074D01*
X34149690Y6481318D01*
X34144000Y6474053D01*
X34138971Y6466281D01*
X34134653Y6458153D01*
X34131097Y6449669D01*
X34128252Y6440881D01*
X34126220Y6431838D01*
X34125001Y6422694D01*
X34124595Y6413500D01*
X34125001Y6404305D01*
X34126220Y6395161D01*
X34128252Y6386118D01*
X34131097Y6377330D01*
X34134653Y6368846D01*
X34138971Y6360718D01*
X34144000Y6352946D01*
X34149690Y6345682D01*
X34155989Y6338925D01*
X34162847Y6332778D01*
X34170213Y6327292D01*
X34178087Y6322415D01*
X34186317Y6318300D01*
X34194902Y6314897D01*
X34203741Y6312306D01*
X34212784Y6310477D01*
X34221978Y6309461D01*
X34231173Y6309258D01*
X34240419Y6309868D01*
X34249512Y6311290D01*
X34258453Y6313525D01*
X34262872Y6314897D01*
X34271458Y6318300D01*
X34279687Y6322415D01*
X34287561Y6327292D01*
X34294927Y6332778D01*
X34301785Y6338925D01*
X34308135Y6345682D01*
X34313774Y6352946D01*
X34318803Y6360718D01*
X34323121Y6368846D01*
X34326728Y6377330D01*
X34329522Y6386118D01*
X34331554Y6395161D01*
X34332773Y6404305D01*
X34333180Y6413500D01*
X34332773Y6422694D01*
X34331554Y6431838D01*
X34329522Y6440881D01*
X34326728Y6449669D01*
X34323121Y6458153D01*
X34318803Y6466281D01*
X34313774Y6474053D01*
X34308135Y6481318D01*
X34301785Y6488074D01*
X34294927Y6494221D01*
X34287561Y6499707D01*
X34279687Y6504584D01*
X34271458Y6508699D01*
X34262872Y6512102D01*
X34254033Y6514693D01*
X34244991Y6516522D01*
X34235796Y6517538D01*
G37*
G36*
X14024863Y5577941D02*
G01*
X14015669Y5577332D01*
X14006576Y5575909D01*
X13997584Y5573674D01*
X13993215Y5572302D01*
X13984630Y5568899D01*
X13976350Y5564784D01*
X13968526Y5559907D01*
X13961110Y5554421D01*
X13954251Y5548274D01*
X13947952Y5541518D01*
X13942263Y5534253D01*
X13937234Y5526481D01*
X13932916Y5518353D01*
X13929360Y5509869D01*
X13927836Y5505500D01*
X13925448Y5496560D01*
X13923822Y5487517D01*
X13923010Y5478322D01*
X13923010Y5469077D01*
X13923822Y5459882D01*
X13925448Y5450840D01*
X13927836Y5441899D01*
X13931036Y5433263D01*
X13934998Y5424932D01*
X13939672Y5416956D01*
X13945057Y5409438D01*
X13951051Y5402427D01*
X13957604Y5395976D01*
X13964767Y5390134D01*
X13972387Y5384952D01*
X13980464Y5380482D01*
X13988897Y5376722D01*
X13993215Y5375097D01*
X14002054Y5372506D01*
X14011097Y5370677D01*
X14020241Y5369661D01*
X14029486Y5369458D01*
X14038681Y5370068D01*
X14047825Y5371490D01*
X14056766Y5373725D01*
X14065504Y5376722D01*
X14073886Y5380482D01*
X14081963Y5384952D01*
X14089583Y5390134D01*
X14096746Y5395976D01*
X14103299Y5402427D01*
X14109344Y5409438D01*
X14114678Y5416956D01*
X14119351Y5424932D01*
X14123314Y5433263D01*
X14126514Y5441899D01*
X14128902Y5450840D01*
X14130528Y5459882D01*
X14131340Y5469077D01*
X14131340Y5478322D01*
X14130528Y5487517D01*
X14128902Y5496560D01*
X14126514Y5505500D01*
X14123314Y5514136D01*
X14119351Y5522468D01*
X14114678Y5530443D01*
X14109344Y5537962D01*
X14103299Y5544972D01*
X14096746Y5551424D01*
X14089583Y5557266D01*
X14081963Y5562447D01*
X14073886Y5566918D01*
X14065504Y5570677D01*
X14056766Y5573674D01*
X14047825Y5575909D01*
X14038681Y5577332D01*
X14029486Y5577941D01*
G37*
G36*
X14024863Y7432141D02*
G01*
X14015669Y7431531D01*
X14006576Y7430109D01*
X13997584Y7427874D01*
X13993215Y7426502D01*
X13984630Y7423099D01*
X13976350Y7418984D01*
X13968526Y7414107D01*
X13961110Y7408621D01*
X13954251Y7402474D01*
X13947952Y7395718D01*
X13942263Y7388453D01*
X13937234Y7380681D01*
X13932916Y7372553D01*
X13929360Y7364069D01*
X13927836Y7359700D01*
X13925448Y7350759D01*
X13923822Y7341717D01*
X13923010Y7332522D01*
X13923010Y7323277D01*
X13923822Y7314082D01*
X13925448Y7305040D01*
X13927836Y7296099D01*
X13931036Y7287463D01*
X13934998Y7279131D01*
X13939672Y7271156D01*
X13945057Y7263638D01*
X13951051Y7256627D01*
X13957604Y7250175D01*
X13964767Y7244334D01*
X13972387Y7239152D01*
X13980464Y7234681D01*
X13988897Y7230922D01*
X13993215Y7229297D01*
X14002054Y7226706D01*
X14011097Y7224877D01*
X14020241Y7223861D01*
X14029486Y7223658D01*
X14038681Y7224268D01*
X14047825Y7225690D01*
X14056766Y7227925D01*
X14065504Y7230922D01*
X14073886Y7234681D01*
X14081963Y7239152D01*
X14089583Y7244334D01*
X14096746Y7250175D01*
X14103299Y7256627D01*
X14109344Y7263638D01*
X14114678Y7271156D01*
X14119351Y7279131D01*
X14123314Y7287463D01*
X14126514Y7296099D01*
X14128902Y7305040D01*
X14130528Y7314082D01*
X14131340Y7323277D01*
X14131340Y7332522D01*
X14130528Y7341717D01*
X14128902Y7350759D01*
X14126514Y7359700D01*
X14123314Y7368336D01*
X14119351Y7376668D01*
X14114678Y7384643D01*
X14109344Y7392162D01*
X14103299Y7399172D01*
X14096746Y7405624D01*
X14089583Y7411466D01*
X14081963Y7416647D01*
X14073886Y7421118D01*
X14065504Y7424877D01*
X14056766Y7427874D01*
X14047825Y7430109D01*
X14038681Y7431531D01*
X14029486Y7432141D01*
G37*
G36*
X14024863Y6517741D02*
G01*
X14015669Y6517131D01*
X14006576Y6515709D01*
X13997584Y6513474D01*
X13993215Y6512102D01*
X13984630Y6508699D01*
X13976350Y6504584D01*
X13968526Y6499707D01*
X13961110Y6494221D01*
X13954251Y6488074D01*
X13947952Y6481318D01*
X13942263Y6474053D01*
X13937234Y6466281D01*
X13932916Y6458153D01*
X13929360Y6449669D01*
X13927836Y6445300D01*
X13925448Y6436360D01*
X13923822Y6427317D01*
X13923010Y6418122D01*
X13923010Y6408877D01*
X13923822Y6399682D01*
X13925448Y6390640D01*
X13927836Y6381699D01*
X13931036Y6373063D01*
X13934998Y6364732D01*
X13939672Y6356756D01*
X13945057Y6349238D01*
X13951051Y6342227D01*
X13957604Y6335776D01*
X13964767Y6329934D01*
X13972387Y6324752D01*
X13980464Y6320282D01*
X13988897Y6316522D01*
X13993215Y6314897D01*
X14002054Y6312306D01*
X14011097Y6310477D01*
X14020241Y6309461D01*
X14029486Y6309258D01*
X14038681Y6309868D01*
X14047825Y6311290D01*
X14056766Y6313525D01*
X14065504Y6316522D01*
X14073886Y6320282D01*
X14081963Y6324752D01*
X14089583Y6329934D01*
X14096746Y6335776D01*
X14103299Y6342227D01*
X14109344Y6349238D01*
X14114678Y6356756D01*
X14119351Y6364732D01*
X14123314Y6373063D01*
X14126514Y6381699D01*
X14128902Y6390640D01*
X14130528Y6399682D01*
X14131340Y6408877D01*
X14131340Y6418122D01*
X14130528Y6427317D01*
X14128902Y6436360D01*
X14126514Y6445300D01*
X14123314Y6453936D01*
X14119351Y6462268D01*
X14114678Y6470243D01*
X14109344Y6477762D01*
X14103299Y6484772D01*
X14096746Y6491224D01*
X14089583Y6497066D01*
X14081963Y6502247D01*
X14073886Y6506718D01*
X14065504Y6510477D01*
X14056766Y6513474D01*
X14047825Y6515709D01*
X14038681Y6517131D01*
X14029486Y6517741D01*
G37*
G36*
X25554482Y6517741D02*
G01*
X25545288Y6517131D01*
X25536194Y6515709D01*
X25527203Y6513474D01*
X25522834Y6512102D01*
X25514249Y6508699D01*
X25505968Y6504584D01*
X25498145Y6499707D01*
X25490728Y6494221D01*
X25483870Y6488074D01*
X25477571Y6481318D01*
X25471882Y6474053D01*
X25466852Y6466281D01*
X25462534Y6458153D01*
X25458978Y6449669D01*
X25457454Y6445300D01*
X25455067Y6436360D01*
X25453441Y6427317D01*
X25452628Y6418122D01*
X25452628Y6408877D01*
X25453441Y6399682D01*
X25455067Y6390640D01*
X25457454Y6381699D01*
X25460655Y6373063D01*
X25464617Y6364732D01*
X25469291Y6356756D01*
X25474676Y6349238D01*
X25480670Y6342227D01*
X25487223Y6335776D01*
X25494386Y6329934D01*
X25502006Y6324752D01*
X25510083Y6320282D01*
X25518516Y6316522D01*
X25522834Y6314897D01*
X25531673Y6312306D01*
X25540716Y6310477D01*
X25549860Y6309461D01*
X25559105Y6309258D01*
X25568300Y6309868D01*
X25577444Y6311290D01*
X25586385Y6313525D01*
X25595122Y6316522D01*
X25603504Y6320282D01*
X25611582Y6324752D01*
X25619202Y6329934D01*
X25626364Y6335776D01*
X25632918Y6342227D01*
X25638963Y6349238D01*
X25644297Y6356756D01*
X25648970Y6364732D01*
X25652933Y6373063D01*
X25656133Y6381699D01*
X25658521Y6390640D01*
X25660146Y6399682D01*
X25660959Y6408877D01*
X25660959Y6418122D01*
X25660146Y6427317D01*
X25658521Y6436360D01*
X25656133Y6445300D01*
X25652933Y6453936D01*
X25648970Y6462268D01*
X25644297Y6470243D01*
X25638963Y6477762D01*
X25632918Y6484772D01*
X25626364Y6491224D01*
X25619202Y6497066D01*
X25611582Y6502247D01*
X25603504Y6506718D01*
X25595122Y6510477D01*
X25586385Y6513474D01*
X25577444Y6515709D01*
X25568300Y6517131D01*
X25559105Y6517741D01*
G37*
G36*
X25554482Y7432141D02*
G01*
X25545288Y7431531D01*
X25536194Y7430109D01*
X25527203Y7427874D01*
X25522834Y7426502D01*
X25514249Y7423099D01*
X25505968Y7418984D01*
X25498145Y7414107D01*
X25490728Y7408621D01*
X25483870Y7402474D01*
X25477571Y7395718D01*
X25471882Y7388453D01*
X25466852Y7380681D01*
X25462534Y7372553D01*
X25458978Y7364069D01*
X25457454Y7359700D01*
X25455067Y7350759D01*
X25453441Y7341717D01*
X25452628Y7332522D01*
X25452628Y7323277D01*
X25453441Y7314082D01*
X25455067Y7305040D01*
X25457454Y7296099D01*
X25460655Y7287463D01*
X25464617Y7279131D01*
X25469291Y7271156D01*
X25474676Y7263638D01*
X25480670Y7256627D01*
X25487223Y7250175D01*
X25494386Y7244334D01*
X25502006Y7239152D01*
X25510083Y7234681D01*
X25518516Y7230922D01*
X25522834Y7229297D01*
X25531673Y7226706D01*
X25540716Y7224877D01*
X25549860Y7223861D01*
X25559105Y7223658D01*
X25568300Y7224268D01*
X25577444Y7225690D01*
X25586385Y7227925D01*
X25595122Y7230922D01*
X25603504Y7234681D01*
X25611582Y7239152D01*
X25619202Y7244334D01*
X25626364Y7250175D01*
X25632918Y7256627D01*
X25638963Y7263638D01*
X25644297Y7271156D01*
X25648970Y7279131D01*
X25652933Y7287463D01*
X25656133Y7296099D01*
X25658521Y7305040D01*
X25660146Y7314082D01*
X25660959Y7323277D01*
X25660959Y7332522D01*
X25660146Y7341717D01*
X25658521Y7350759D01*
X25656133Y7359700D01*
X25652933Y7368336D01*
X25648970Y7376668D01*
X25644297Y7384643D01*
X25638963Y7392162D01*
X25632918Y7399172D01*
X25626364Y7405624D01*
X25619202Y7411466D01*
X25611582Y7416647D01*
X25603504Y7421118D01*
X25595122Y7424877D01*
X25586385Y7427874D01*
X25577444Y7430109D01*
X25568300Y7431531D01*
X25559105Y7432141D01*
G37*
G36*
X25554482Y5577941D02*
G01*
X25545288Y5577332D01*
X25536194Y5575909D01*
X25527203Y5573674D01*
X25522834Y5572302D01*
X25514249Y5568899D01*
X25505968Y5564784D01*
X25498145Y5559907D01*
X25490728Y5554421D01*
X25483870Y5548274D01*
X25477571Y5541518D01*
X25471882Y5534253D01*
X25466852Y5526481D01*
X25462534Y5518353D01*
X25458978Y5509869D01*
X25457454Y5505500D01*
X25455067Y5496560D01*
X25453441Y5487517D01*
X25452628Y5478322D01*
X25452628Y5469077D01*
X25453441Y5459882D01*
X25455067Y5450840D01*
X25457454Y5441899D01*
X25460655Y5433263D01*
X25464617Y5424932D01*
X25469291Y5416956D01*
X25474676Y5409438D01*
X25480670Y5402427D01*
X25487223Y5395976D01*
X25494386Y5390134D01*
X25502006Y5384952D01*
X25510083Y5380482D01*
X25518516Y5376722D01*
X25522834Y5375097D01*
X25531673Y5372506D01*
X25540716Y5370677D01*
X25549860Y5369661D01*
X25559105Y5369458D01*
X25568300Y5370068D01*
X25577444Y5371490D01*
X25586385Y5373725D01*
X25595122Y5376722D01*
X25603504Y5380482D01*
X25611582Y5384952D01*
X25619202Y5390134D01*
X25626364Y5395976D01*
X25632918Y5402427D01*
X25638963Y5409438D01*
X25644297Y5416956D01*
X25648970Y5424932D01*
X25652933Y5433263D01*
X25656133Y5441899D01*
X25658521Y5450840D01*
X25660146Y5459882D01*
X25660959Y5469077D01*
X25660959Y5478322D01*
X25660146Y5487517D01*
X25658521Y5496560D01*
X25656133Y5505500D01*
X25652933Y5514136D01*
X25648970Y5522468D01*
X25644297Y5530443D01*
X25638963Y5537962D01*
X25632918Y5544972D01*
X25626364Y5551424D01*
X25619202Y5557266D01*
X25611582Y5562447D01*
X25603504Y5566918D01*
X25595122Y5570677D01*
X25586385Y5573674D01*
X25577444Y5575909D01*
X25568300Y5577332D01*
X25559105Y5577941D01*
G37*
G36*
X37084101Y6517741D02*
G01*
X37074856Y6517131D01*
X37065762Y6515709D01*
X37056822Y6513474D01*
X37052402Y6512102D01*
X37043817Y6508699D01*
X37035587Y6504584D01*
X37027713Y6499707D01*
X37020347Y6494221D01*
X37013489Y6488074D01*
X37007190Y6481318D01*
X37001500Y6474053D01*
X36996471Y6466281D01*
X36992153Y6458153D01*
X36988597Y6449669D01*
X36985752Y6440881D01*
X36983720Y6431838D01*
X36982501Y6422694D01*
X36982095Y6413500D01*
X36982501Y6404305D01*
X36983720Y6395161D01*
X36985752Y6386118D01*
X36988597Y6377330D01*
X36992153Y6368846D01*
X36996471Y6360718D01*
X37001500Y6352946D01*
X37007190Y6345682D01*
X37013489Y6338925D01*
X37020347Y6332778D01*
X37027713Y6327292D01*
X37035587Y6322415D01*
X37043817Y6318300D01*
X37052402Y6314897D01*
X37061241Y6312306D01*
X37070284Y6310477D01*
X37079478Y6309461D01*
X37088673Y6309258D01*
X37097919Y6309868D01*
X37107012Y6311290D01*
X37115953Y6313525D01*
X37120372Y6314897D01*
X37128958Y6318300D01*
X37137187Y6322415D01*
X37145061Y6327292D01*
X37152427Y6332778D01*
X37159285Y6338925D01*
X37165635Y6345682D01*
X37171274Y6352946D01*
X37176303Y6360718D01*
X37180621Y6368846D01*
X37184228Y6377330D01*
X37187022Y6386118D01*
X37189054Y6395161D01*
X37190273Y6404305D01*
X37190680Y6413500D01*
X37190273Y6422694D01*
X37189054Y6431838D01*
X37187022Y6440881D01*
X37184228Y6449669D01*
X37180621Y6458153D01*
X37176303Y6466281D01*
X37171274Y6474053D01*
X37165635Y6481318D01*
X37159285Y6488074D01*
X37152427Y6494221D01*
X37145061Y6499707D01*
X37137187Y6504584D01*
X37128958Y6508699D01*
X37120372Y6512102D01*
X37111533Y6514693D01*
X37102491Y6516522D01*
X37093296Y6517538D01*
G37*
G36*
X37084101Y7432141D02*
G01*
X37074856Y7431531D01*
X37065762Y7430109D01*
X37056822Y7427874D01*
X37052402Y7426502D01*
X37043817Y7423099D01*
X37035587Y7418984D01*
X37027713Y7414107D01*
X37020347Y7408621D01*
X37013489Y7402474D01*
X37007190Y7395718D01*
X37001500Y7388453D01*
X36996471Y7380681D01*
X36992153Y7372553D01*
X36988597Y7364069D01*
X36985752Y7355281D01*
X36983720Y7346238D01*
X36982501Y7337094D01*
X36982095Y7327900D01*
X36982501Y7318705D01*
X36983720Y7309561D01*
X36985752Y7300518D01*
X36988597Y7291730D01*
X36992153Y7283246D01*
X36996471Y7275118D01*
X37001500Y7267346D01*
X37007190Y7260081D01*
X37013489Y7253325D01*
X37020347Y7247178D01*
X37027713Y7241692D01*
X37035587Y7236815D01*
X37043817Y7232700D01*
X37052402Y7229297D01*
X37061241Y7226706D01*
X37070284Y7224877D01*
X37079478Y7223861D01*
X37088673Y7223658D01*
X37097919Y7224268D01*
X37107012Y7225690D01*
X37115953Y7227925D01*
X37120372Y7229297D01*
X37128958Y7232700D01*
X37137187Y7236815D01*
X37145061Y7241692D01*
X37152427Y7247178D01*
X37159285Y7253325D01*
X37165635Y7260081D01*
X37171274Y7267346D01*
X37176303Y7275118D01*
X37180621Y7283246D01*
X37184228Y7291730D01*
X37187022Y7300518D01*
X37189054Y7309561D01*
X37190273Y7318705D01*
X37190680Y7327900D01*
X37190273Y7337094D01*
X37189054Y7346238D01*
X37187022Y7355281D01*
X37184228Y7364069D01*
X37180621Y7372553D01*
X37176303Y7380681D01*
X37171274Y7388453D01*
X37165635Y7395718D01*
X37159285Y7402474D01*
X37152427Y7408621D01*
X37145061Y7414107D01*
X37137187Y7418984D01*
X37128958Y7423099D01*
X37120372Y7426502D01*
X37111533Y7429093D01*
X37102491Y7430922D01*
X37093296Y7431938D01*
G37*
G36*
X37084101Y5577941D02*
G01*
X37074856Y5577332D01*
X37065762Y5575909D01*
X37056822Y5573674D01*
X37052402Y5572302D01*
X37043817Y5568899D01*
X37035587Y5564784D01*
X37027713Y5559907D01*
X37020347Y5554421D01*
X37013489Y5548274D01*
X37007190Y5541518D01*
X37001500Y5534253D01*
X36996471Y5526481D01*
X36992153Y5518353D01*
X36988597Y5509869D01*
X36985752Y5501081D01*
X36983720Y5492038D01*
X36982501Y5482894D01*
X36982095Y5473700D01*
X36982501Y5464505D01*
X36983720Y5455361D01*
X36985752Y5446318D01*
X36988597Y5437530D01*
X36992153Y5429046D01*
X36996471Y5420918D01*
X37001500Y5413146D01*
X37007190Y5405882D01*
X37013489Y5399125D01*
X37020347Y5392978D01*
X37027713Y5387492D01*
X37035587Y5382615D01*
X37043817Y5378500D01*
X37052402Y5375097D01*
X37061241Y5372506D01*
X37070284Y5370677D01*
X37079478Y5369661D01*
X37088673Y5369458D01*
X37097919Y5370068D01*
X37107012Y5371490D01*
X37115953Y5373725D01*
X37120372Y5375097D01*
X37128958Y5378500D01*
X37137187Y5382615D01*
X37145061Y5387492D01*
X37152427Y5392978D01*
X37159285Y5399125D01*
X37165635Y5405882D01*
X37171274Y5413146D01*
X37176303Y5420918D01*
X37180621Y5429046D01*
X37184228Y5437530D01*
X37187022Y5446318D01*
X37189054Y5455361D01*
X37190273Y5464505D01*
X37190680Y5473700D01*
X37190273Y5482894D01*
X37189054Y5492038D01*
X37187022Y5501081D01*
X37184228Y5509869D01*
X37180621Y5518353D01*
X37176303Y5526481D01*
X37171274Y5534253D01*
X37165635Y5541518D01*
X37159285Y5548274D01*
X37152427Y5554421D01*
X37145061Y5559907D01*
X37137187Y5564784D01*
X37128958Y5568899D01*
X37120372Y5572302D01*
X37111533Y5574893D01*
X37102491Y5576722D01*
X37093296Y5577738D01*
G37*
G36*
X40927274Y6517741D02*
G01*
X40918079Y6517131D01*
X40908986Y6515709D01*
X40899994Y6513474D01*
X40895625Y6512102D01*
X40887040Y6508699D01*
X40878760Y6504584D01*
X40870936Y6499707D01*
X40863520Y6494221D01*
X40856662Y6488074D01*
X40850362Y6481318D01*
X40844673Y6474053D01*
X40839644Y6466281D01*
X40835326Y6458153D01*
X40831770Y6449669D01*
X40830246Y6445300D01*
X40827858Y6436360D01*
X40826232Y6427317D01*
X40825420Y6418122D01*
X40825420Y6408877D01*
X40826232Y6399682D01*
X40827858Y6390640D01*
X40830246Y6381699D01*
X40833446Y6373063D01*
X40837408Y6364732D01*
X40842082Y6356756D01*
X40847467Y6349238D01*
X40853461Y6342227D01*
X40860014Y6335776D01*
X40867177Y6329934D01*
X40874797Y6324752D01*
X40882874Y6320282D01*
X40891307Y6316522D01*
X40895625Y6314897D01*
X40904464Y6312306D01*
X40913507Y6310477D01*
X40922651Y6309461D01*
X40931896Y6309258D01*
X40941091Y6309868D01*
X40950235Y6311290D01*
X40959176Y6313525D01*
X40967914Y6316522D01*
X40976296Y6320282D01*
X40984373Y6324752D01*
X40991993Y6329934D01*
X40999156Y6335776D01*
X41005709Y6342227D01*
X41011754Y6349238D01*
X41017088Y6356756D01*
X41021762Y6364732D01*
X41025724Y6373063D01*
X41028924Y6381699D01*
X41031312Y6390640D01*
X41032938Y6399682D01*
X41033750Y6408877D01*
X41033750Y6418122D01*
X41032938Y6427317D01*
X41031312Y6436360D01*
X41028924Y6445300D01*
X41025724Y6453936D01*
X41021762Y6462268D01*
X41017088Y6470243D01*
X41011754Y6477762D01*
X41005709Y6484772D01*
X40999156Y6491224D01*
X40991993Y6497066D01*
X40984373Y6502247D01*
X40976296Y6506718D01*
X40967914Y6510477D01*
X40959176Y6513474D01*
X40950235Y6515709D01*
X40941091Y6517131D01*
X40931896Y6517741D01*
G37*
G36*
X40927274Y7432141D02*
G01*
X40918079Y7431531D01*
X40908986Y7430109D01*
X40899994Y7427874D01*
X40895625Y7426502D01*
X40887040Y7423099D01*
X40878760Y7418984D01*
X40870936Y7414107D01*
X40863520Y7408621D01*
X40856662Y7402474D01*
X40850362Y7395718D01*
X40844673Y7388453D01*
X40839644Y7380681D01*
X40835326Y7372553D01*
X40831770Y7364069D01*
X40830246Y7359700D01*
X40827858Y7350759D01*
X40826232Y7341717D01*
X40825420Y7332522D01*
X40825420Y7323277D01*
X40826232Y7314082D01*
X40827858Y7305040D01*
X40830246Y7296099D01*
X40833446Y7287463D01*
X40837408Y7279131D01*
X40842082Y7271156D01*
X40847467Y7263638D01*
X40853461Y7256627D01*
X40860014Y7250175D01*
X40867177Y7244334D01*
X40874797Y7239152D01*
X40882874Y7234681D01*
X40891307Y7230922D01*
X40895625Y7229297D01*
X40904464Y7226706D01*
X40913507Y7224877D01*
X40922651Y7223861D01*
X40931896Y7223658D01*
X40941091Y7224268D01*
X40950235Y7225690D01*
X40959176Y7227925D01*
X40967914Y7230922D01*
X40976296Y7234681D01*
X40984373Y7239152D01*
X40991993Y7244334D01*
X40999156Y7250175D01*
X41005709Y7256627D01*
X41011754Y7263638D01*
X41017088Y7271156D01*
X41021762Y7279131D01*
X41025724Y7287463D01*
X41028924Y7296099D01*
X41031312Y7305040D01*
X41032938Y7314082D01*
X41033750Y7323277D01*
X41033750Y7332522D01*
X41032938Y7341717D01*
X41031312Y7350759D01*
X41028924Y7359700D01*
X41025724Y7368336D01*
X41021762Y7376668D01*
X41017088Y7384643D01*
X41011754Y7392162D01*
X41005709Y7399172D01*
X40999156Y7405624D01*
X40991993Y7411466D01*
X40984373Y7416647D01*
X40976296Y7421118D01*
X40967914Y7424877D01*
X40959176Y7427874D01*
X40950235Y7430109D01*
X40941091Y7431531D01*
X40931896Y7432141D01*
G37*
G36*
X40927274Y5577941D02*
G01*
X40918079Y5577332D01*
X40908986Y5575909D01*
X40899994Y5573674D01*
X40895625Y5572302D01*
X40887040Y5568899D01*
X40878760Y5564784D01*
X40870936Y5559907D01*
X40863520Y5554421D01*
X40856662Y5548274D01*
X40850362Y5541518D01*
X40844673Y5534253D01*
X40839644Y5526481D01*
X40835326Y5518353D01*
X40831770Y5509869D01*
X40830246Y5505500D01*
X40827858Y5496560D01*
X40826232Y5487517D01*
X40825420Y5478322D01*
X40825420Y5469077D01*
X40826232Y5459882D01*
X40827858Y5450840D01*
X40830246Y5441899D01*
X40833446Y5433263D01*
X40837408Y5424932D01*
X40842082Y5416956D01*
X40847467Y5409438D01*
X40853461Y5402427D01*
X40860014Y5395976D01*
X40867177Y5390134D01*
X40874797Y5384952D01*
X40882874Y5380482D01*
X40891307Y5376722D01*
X40895625Y5375097D01*
X40904464Y5372506D01*
X40913507Y5370677D01*
X40922651Y5369661D01*
X40931896Y5369458D01*
X40941091Y5370068D01*
X40950235Y5371490D01*
X40959176Y5373725D01*
X40967914Y5376722D01*
X40976296Y5380482D01*
X40984373Y5384952D01*
X40991993Y5390134D01*
X40999156Y5395976D01*
X41005709Y5402427D01*
X41011754Y5409438D01*
X41017088Y5416956D01*
X41021762Y5424932D01*
X41025724Y5433263D01*
X41028924Y5441899D01*
X41031312Y5450840D01*
X41032938Y5459882D01*
X41033750Y5469077D01*
X41033750Y5478322D01*
X41032938Y5487517D01*
X41031312Y5496560D01*
X41028924Y5505500D01*
X41025724Y5514136D01*
X41021762Y5522468D01*
X41017088Y5530443D01*
X41011754Y5537962D01*
X41005709Y5544972D01*
X40999156Y5551424D01*
X40991993Y5557266D01*
X40984373Y5562447D01*
X40976296Y5566918D01*
X40967914Y5570677D01*
X40959176Y5573674D01*
X40950235Y5575909D01*
X40941091Y5577332D01*
X40931896Y5577941D01*
G37*
G36*
X44481292Y7432141D02*
G01*
X44472047Y7431531D01*
X44462954Y7430109D01*
X44454013Y7427874D01*
X44449593Y7426502D01*
X44441008Y7423099D01*
X44432778Y7418984D01*
X44424904Y7414107D01*
X44417538Y7408621D01*
X44410680Y7402474D01*
X44404381Y7395718D01*
X44398692Y7388453D01*
X44393662Y7380681D01*
X44389344Y7372553D01*
X44385788Y7364069D01*
X44382944Y7355281D01*
X44380912Y7346238D01*
X44379692Y7337094D01*
X44379286Y7327900D01*
X44379692Y7318705D01*
X44380912Y7309561D01*
X44382944Y7300518D01*
X44385788Y7291730D01*
X44389344Y7283246D01*
X44393662Y7275118D01*
X44398692Y7267346D01*
X44404381Y7260081D01*
X44410680Y7253325D01*
X44417538Y7247178D01*
X44424904Y7241692D01*
X44432778Y7236815D01*
X44441008Y7232700D01*
X44449593Y7229297D01*
X44458432Y7226706D01*
X44467475Y7224877D01*
X44476670Y7223861D01*
X44485864Y7223658D01*
X44495110Y7224268D01*
X44504203Y7225690D01*
X44513144Y7227925D01*
X44517564Y7229297D01*
X44526149Y7232700D01*
X44534378Y7236815D01*
X44542252Y7241692D01*
X44549618Y7247178D01*
X44556476Y7253325D01*
X44562826Y7260081D01*
X44568465Y7267346D01*
X44573494Y7275118D01*
X44577812Y7283246D01*
X44581419Y7291730D01*
X44584213Y7300518D01*
X44586245Y7309561D01*
X44587464Y7318705D01*
X44587871Y7327900D01*
X44587464Y7337094D01*
X44586245Y7346238D01*
X44584213Y7355281D01*
X44581419Y7364069D01*
X44577812Y7372553D01*
X44573494Y7380681D01*
X44568465Y7388453D01*
X44562826Y7395718D01*
X44556476Y7402474D01*
X44549618Y7408621D01*
X44542252Y7414107D01*
X44534378Y7418984D01*
X44526149Y7423099D01*
X44517564Y7426502D01*
X44508724Y7429093D01*
X44499682Y7430922D01*
X44490487Y7431938D01*
G37*
G36*
X42563592Y7432141D02*
G01*
X42554347Y7431531D01*
X42545254Y7430109D01*
X42536313Y7427874D01*
X42531893Y7426502D01*
X42523308Y7423099D01*
X42515078Y7418984D01*
X42507204Y7414107D01*
X42499838Y7408621D01*
X42492980Y7402474D01*
X42486681Y7395718D01*
X42480992Y7388453D01*
X42475962Y7380681D01*
X42471644Y7372553D01*
X42468088Y7364069D01*
X42465244Y7355281D01*
X42463212Y7346238D01*
X42461992Y7337094D01*
X42461586Y7327900D01*
X42461992Y7318705D01*
X42463212Y7309561D01*
X42465244Y7300518D01*
X42468088Y7291730D01*
X42471644Y7283246D01*
X42475962Y7275118D01*
X42480992Y7267346D01*
X42486681Y7260081D01*
X42492980Y7253325D01*
X42499838Y7247178D01*
X42507204Y7241692D01*
X42515078Y7236815D01*
X42523308Y7232700D01*
X42531893Y7229297D01*
X42540732Y7226706D01*
X42549775Y7224877D01*
X42558970Y7223861D01*
X42568164Y7223658D01*
X42577410Y7224268D01*
X42586503Y7225690D01*
X42595444Y7227925D01*
X42599864Y7229297D01*
X42608449Y7232700D01*
X42616678Y7236815D01*
X42624552Y7241692D01*
X42631918Y7247178D01*
X42638776Y7253325D01*
X42645126Y7260081D01*
X42650765Y7267346D01*
X42655794Y7275118D01*
X42660112Y7283246D01*
X42663719Y7291730D01*
X42666513Y7300518D01*
X42668545Y7309561D01*
X42669764Y7318705D01*
X42670171Y7327900D01*
X42669764Y7337094D01*
X42668545Y7346238D01*
X42666513Y7355281D01*
X42663719Y7364069D01*
X42660112Y7372553D01*
X42655794Y7380681D01*
X42650765Y7388453D01*
X42645126Y7395718D01*
X42638776Y7402474D01*
X42631918Y7408621D01*
X42624552Y7414107D01*
X42616678Y7418984D01*
X42608449Y7423099D01*
X42599864Y7426502D01*
X42591024Y7429093D01*
X42581982Y7430922D01*
X42572787Y7431938D01*
G37*
G36*
X43528792Y7432141D02*
G01*
X43519547Y7431531D01*
X43510454Y7430109D01*
X43501513Y7427874D01*
X43497093Y7426502D01*
X43488508Y7423099D01*
X43480278Y7418984D01*
X43472404Y7414107D01*
X43465038Y7408621D01*
X43458180Y7402474D01*
X43451881Y7395718D01*
X43446192Y7388453D01*
X43441162Y7380681D01*
X43436844Y7372553D01*
X43433288Y7364069D01*
X43430444Y7355281D01*
X43428412Y7346238D01*
X43427192Y7337094D01*
X43426786Y7327900D01*
X43427192Y7318705D01*
X43428412Y7309561D01*
X43430444Y7300518D01*
X43433288Y7291730D01*
X43436844Y7283246D01*
X43441162Y7275118D01*
X43446192Y7267346D01*
X43451881Y7260081D01*
X43458180Y7253325D01*
X43465038Y7247178D01*
X43472404Y7241692D01*
X43480278Y7236815D01*
X43488508Y7232700D01*
X43497093Y7229297D01*
X43505932Y7226706D01*
X43514975Y7224877D01*
X43524170Y7223861D01*
X43533364Y7223658D01*
X43542610Y7224268D01*
X43551703Y7225690D01*
X43560644Y7227925D01*
X43565064Y7229297D01*
X43573649Y7232700D01*
X43581878Y7236815D01*
X43589752Y7241692D01*
X43597118Y7247178D01*
X43603976Y7253325D01*
X43610326Y7260081D01*
X43615965Y7267346D01*
X43620994Y7275118D01*
X43625312Y7283246D01*
X43628919Y7291730D01*
X43631713Y7300518D01*
X43633745Y7309561D01*
X43634964Y7318705D01*
X43635371Y7327900D01*
X43634964Y7337094D01*
X43633745Y7346238D01*
X43631713Y7355281D01*
X43628919Y7364069D01*
X43625312Y7372553D01*
X43620994Y7380681D01*
X43615965Y7388453D01*
X43610326Y7395718D01*
X43603976Y7402474D01*
X43597118Y7408621D01*
X43589752Y7414107D01*
X43581878Y7418984D01*
X43573649Y7423099D01*
X43565064Y7426502D01*
X43556224Y7429093D01*
X43547182Y7430922D01*
X43537987Y7431938D01*
G37*
G36*
X43528792Y5146141D02*
G01*
X43519547Y5145532D01*
X43510454Y5144109D01*
X43501513Y5141874D01*
X43497093Y5140502D01*
X43488508Y5137099D01*
X43480278Y5132984D01*
X43472404Y5128107D01*
X43465038Y5122621D01*
X43458180Y5116474D01*
X43451881Y5109718D01*
X43446192Y5102453D01*
X43441162Y5094681D01*
X43436844Y5086553D01*
X43433288Y5078069D01*
X43430444Y5069281D01*
X43428412Y5060238D01*
X43427192Y5051094D01*
X43426786Y5041900D01*
X43427192Y5032705D01*
X43428412Y5023561D01*
X43430444Y5014518D01*
X43433288Y5005730D01*
X43436844Y4997246D01*
X43441162Y4989118D01*
X43446192Y4981346D01*
X43451881Y4974082D01*
X43458180Y4967325D01*
X43465038Y4961178D01*
X43472404Y4955692D01*
X43480278Y4950815D01*
X43488508Y4946700D01*
X43497093Y4943297D01*
X43505932Y4940706D01*
X43514975Y4938877D01*
X43524170Y4937861D01*
X43533364Y4937658D01*
X43542610Y4938268D01*
X43551703Y4939690D01*
X43560644Y4941925D01*
X43565064Y4943297D01*
X43573649Y4946700D01*
X43581878Y4950815D01*
X43589752Y4955692D01*
X43597118Y4961178D01*
X43603976Y4967325D01*
X43610326Y4974082D01*
X43615965Y4981346D01*
X43620994Y4989118D01*
X43625312Y4997246D01*
X43628919Y5005730D01*
X43631713Y5014518D01*
X43633745Y5023561D01*
X43634964Y5032705D01*
X43635371Y5041900D01*
X43634964Y5051094D01*
X43633745Y5060238D01*
X43631713Y5069281D01*
X43628919Y5078069D01*
X43625312Y5086553D01*
X43620994Y5094681D01*
X43615965Y5102453D01*
X43610326Y5109718D01*
X43603976Y5116474D01*
X43597118Y5122621D01*
X43589752Y5128107D01*
X43581878Y5132984D01*
X43573649Y5137099D01*
X43565064Y5140502D01*
X43556224Y5143093D01*
X43547182Y5144922D01*
X43537987Y5145938D01*
G37*
G36*
X42563592Y5146141D02*
G01*
X42554347Y5145532D01*
X42545254Y5144109D01*
X42536313Y5141874D01*
X42531893Y5140502D01*
X42523308Y5137099D01*
X42515078Y5132984D01*
X42507204Y5128107D01*
X42499838Y5122621D01*
X42492980Y5116474D01*
X42486681Y5109718D01*
X42480992Y5102453D01*
X42475962Y5094681D01*
X42471644Y5086553D01*
X42468088Y5078069D01*
X42465244Y5069281D01*
X42463212Y5060238D01*
X42461992Y5051094D01*
X42461586Y5041900D01*
X42461992Y5032705D01*
X42463212Y5023561D01*
X42465244Y5014518D01*
X42468088Y5005730D01*
X42471644Y4997246D01*
X42475962Y4989118D01*
X42480992Y4981346D01*
X42486681Y4974082D01*
X42492980Y4967325D01*
X42499838Y4961178D01*
X42507204Y4955692D01*
X42515078Y4950815D01*
X42523308Y4946700D01*
X42531893Y4943297D01*
X42540732Y4940706D01*
X42549775Y4938877D01*
X42558970Y4937861D01*
X42568164Y4937658D01*
X42577410Y4938268D01*
X42586503Y4939690D01*
X42595444Y4941925D01*
X42599864Y4943297D01*
X42608449Y4946700D01*
X42616678Y4950815D01*
X42624552Y4955692D01*
X42631918Y4961178D01*
X42638776Y4967325D01*
X42645126Y4974082D01*
X42650765Y4981346D01*
X42655794Y4989118D01*
X42660112Y4997246D01*
X42663719Y5005730D01*
X42666513Y5014518D01*
X42668545Y5023561D01*
X42669764Y5032705D01*
X42670171Y5041900D01*
X42669764Y5051094D01*
X42668545Y5060238D01*
X42666513Y5069281D01*
X42663719Y5078069D01*
X42660112Y5086553D01*
X42655794Y5094681D01*
X42650765Y5102453D01*
X42645126Y5109718D01*
X42638776Y5116474D01*
X42631918Y5122621D01*
X42624552Y5128107D01*
X42616678Y5132984D01*
X42608449Y5137099D01*
X42599864Y5140502D01*
X42591024Y5143093D01*
X42581982Y5144922D01*
X42572787Y5145938D01*
G37*
G36*
X44481292Y5146141D02*
G01*
X44472047Y5145532D01*
X44462954Y5144109D01*
X44454013Y5141874D01*
X44449593Y5140502D01*
X44441008Y5137099D01*
X44432778Y5132984D01*
X44424904Y5128107D01*
X44417538Y5122621D01*
X44410680Y5116474D01*
X44404381Y5109718D01*
X44398692Y5102453D01*
X44393662Y5094681D01*
X44389344Y5086553D01*
X44385788Y5078069D01*
X44382944Y5069281D01*
X44380912Y5060238D01*
X44379692Y5051094D01*
X44379286Y5041900D01*
X44379692Y5032705D01*
X44380912Y5023561D01*
X44382944Y5014518D01*
X44385788Y5005730D01*
X44389344Y4997246D01*
X44393662Y4989118D01*
X44398692Y4981346D01*
X44404381Y4974082D01*
X44410680Y4967325D01*
X44417538Y4961178D01*
X44424904Y4955692D01*
X44432778Y4950815D01*
X44441008Y4946700D01*
X44449593Y4943297D01*
X44458432Y4940706D01*
X44467475Y4938877D01*
X44476670Y4937861D01*
X44485864Y4937658D01*
X44495110Y4938268D01*
X44504203Y4939690D01*
X44513144Y4941925D01*
X44517564Y4943297D01*
X44526149Y4946700D01*
X44534378Y4950815D01*
X44542252Y4955692D01*
X44549618Y4961178D01*
X44556476Y4967325D01*
X44562826Y4974082D01*
X44568465Y4981346D01*
X44573494Y4989118D01*
X44577812Y4997246D01*
X44581419Y5005730D01*
X44584213Y5014518D01*
X44586245Y5023561D01*
X44587464Y5032705D01*
X44587871Y5041900D01*
X44587464Y5051094D01*
X44586245Y5060238D01*
X44584213Y5069281D01*
X44581419Y5078069D01*
X44577812Y5086553D01*
X44573494Y5094681D01*
X44568465Y5102453D01*
X44562826Y5109718D01*
X44556476Y5116474D01*
X44549618Y5122621D01*
X44542252Y5128107D01*
X44534378Y5132984D01*
X44526149Y5137099D01*
X44517564Y5140502D01*
X44508724Y5143093D01*
X44499682Y5144922D01*
X44490487Y5145938D01*
G37*
G36*
X8754364Y6505041D02*
G01*
X8745169Y6504431D01*
X8736076Y6503009D01*
X8727084Y6500774D01*
X8722715Y6499402D01*
X8714130Y6495999D01*
X8705850Y6491884D01*
X8698026Y6487007D01*
X8690610Y6481521D01*
X8683752Y6475374D01*
X8677452Y6468618D01*
X8671763Y6461353D01*
X8666734Y6453581D01*
X8662416Y6445453D01*
X8658860Y6436969D01*
X8657336Y6432600D01*
X8654948Y6423660D01*
X8653322Y6414617D01*
X8652510Y6405422D01*
X8652510Y6396177D01*
X8653322Y6386982D01*
X8654948Y6377940D01*
X8657336Y6368999D01*
X8660536Y6360363D01*
X8664498Y6352032D01*
X8669172Y6344056D01*
X8674557Y6336538D01*
X8680551Y6329527D01*
X8687104Y6323076D01*
X8694267Y6317234D01*
X8701887Y6312052D01*
X8709964Y6307582D01*
X8718397Y6303822D01*
X8722715Y6302197D01*
X8731554Y6299606D01*
X8740597Y6297777D01*
X8749741Y6296761D01*
X8758986Y6296558D01*
X8768181Y6297168D01*
X8777325Y6298590D01*
X8786266Y6300825D01*
X8795004Y6303822D01*
X8803386Y6307582D01*
X8811463Y6312052D01*
X8819083Y6317234D01*
X8826246Y6323076D01*
X8832799Y6329527D01*
X8838844Y6336538D01*
X8844178Y6344056D01*
X8848852Y6352032D01*
X8852814Y6360363D01*
X8856014Y6368999D01*
X8858402Y6377940D01*
X8860028Y6386982D01*
X8860840Y6396177D01*
X8860840Y6405422D01*
X8860028Y6414617D01*
X8858402Y6423660D01*
X8856014Y6432600D01*
X8852814Y6441236D01*
X8848852Y6449568D01*
X8844178Y6457543D01*
X8838844Y6465062D01*
X8832799Y6472072D01*
X8826246Y6478524D01*
X8819083Y6484366D01*
X8811463Y6489547D01*
X8803386Y6494018D01*
X8795004Y6497777D01*
X8786266Y6500774D01*
X8777325Y6503009D01*
X8768181Y6504431D01*
X8758986Y6505041D01*
G37*
G36*
X8754364Y5577941D02*
G01*
X8745169Y5577332D01*
X8736076Y5575909D01*
X8727084Y5573674D01*
X8722715Y5572302D01*
X8714130Y5568899D01*
X8705850Y5564784D01*
X8698026Y5559907D01*
X8690610Y5554421D01*
X8683752Y5548274D01*
X8677452Y5541518D01*
X8671763Y5534253D01*
X8666734Y5526481D01*
X8662416Y5518353D01*
X8658860Y5509869D01*
X8657336Y5505500D01*
X8654948Y5496560D01*
X8653322Y5487517D01*
X8652510Y5478322D01*
X8652510Y5469077D01*
X8653322Y5459882D01*
X8654948Y5450840D01*
X8657336Y5441899D01*
X8660536Y5433263D01*
X8664498Y5424932D01*
X8669172Y5416956D01*
X8674557Y5409438D01*
X8680551Y5402427D01*
X8687104Y5395976D01*
X8694267Y5390134D01*
X8701887Y5384952D01*
X8709964Y5380482D01*
X8718397Y5376722D01*
X8722715Y5375097D01*
X8731554Y5372506D01*
X8740597Y5370677D01*
X8749741Y5369661D01*
X8758986Y5369458D01*
X8768181Y5370068D01*
X8777325Y5371490D01*
X8786266Y5373725D01*
X8795004Y5376722D01*
X8803386Y5380482D01*
X8811463Y5384952D01*
X8819083Y5390134D01*
X8826246Y5395976D01*
X8832799Y5402427D01*
X8838844Y5409438D01*
X8844178Y5416956D01*
X8848852Y5424932D01*
X8852814Y5433263D01*
X8856014Y5441899D01*
X8858402Y5450840D01*
X8860028Y5459882D01*
X8860840Y5469077D01*
X8860840Y5478322D01*
X8860028Y5487517D01*
X8858402Y5496560D01*
X8856014Y5505500D01*
X8852814Y5514136D01*
X8848852Y5522468D01*
X8844178Y5530443D01*
X8838844Y5537962D01*
X8832799Y5544972D01*
X8826246Y5551424D01*
X8819083Y5557266D01*
X8811463Y5562447D01*
X8803386Y5566918D01*
X8795004Y5570677D01*
X8786266Y5573674D01*
X8777325Y5575909D01*
X8768181Y5577332D01*
X8758986Y5577941D01*
G37*
G36*
X7357364Y6505041D02*
G01*
X7348169Y6504431D01*
X7339075Y6503009D01*
X7330084Y6500774D01*
X7325715Y6499402D01*
X7317130Y6495999D01*
X7308850Y6491884D01*
X7301026Y6487007D01*
X7293609Y6481521D01*
X7286752Y6475374D01*
X7280452Y6468618D01*
X7274763Y6461353D01*
X7269734Y6453581D01*
X7265416Y6445453D01*
X7261859Y6436969D01*
X7260336Y6432600D01*
X7257948Y6423660D01*
X7256322Y6414617D01*
X7255509Y6405422D01*
X7255509Y6396177D01*
X7256322Y6386982D01*
X7257948Y6377940D01*
X7260336Y6368999D01*
X7263536Y6360363D01*
X7267498Y6352032D01*
X7272172Y6344056D01*
X7277557Y6336538D01*
X7283551Y6329527D01*
X7290104Y6323076D01*
X7297267Y6317234D01*
X7304887Y6312052D01*
X7312964Y6307582D01*
X7321397Y6303822D01*
X7325715Y6302197D01*
X7334554Y6299606D01*
X7343597Y6297777D01*
X7352741Y6296761D01*
X7361986Y6296558D01*
X7371181Y6297168D01*
X7380325Y6298590D01*
X7389266Y6300825D01*
X7398003Y6303822D01*
X7406386Y6307582D01*
X7414463Y6312052D01*
X7422083Y6317234D01*
X7429246Y6323076D01*
X7435799Y6329527D01*
X7441844Y6336538D01*
X7447178Y6344056D01*
X7451852Y6352032D01*
X7455814Y6360363D01*
X7459014Y6368999D01*
X7461402Y6377940D01*
X7463028Y6386982D01*
X7463840Y6396177D01*
X7463840Y6405422D01*
X7463028Y6414617D01*
X7461402Y6423660D01*
X7459014Y6432600D01*
X7455814Y6441236D01*
X7451852Y6449568D01*
X7447178Y6457543D01*
X7441844Y6465062D01*
X7435799Y6472072D01*
X7429246Y6478524D01*
X7422083Y6484366D01*
X7414463Y6489547D01*
X7406386Y6494018D01*
X7398003Y6497777D01*
X7389266Y6500774D01*
X7380325Y6503009D01*
X7371181Y6504431D01*
X7361986Y6505041D01*
G37*
G36*
X11167364Y7432141D02*
G01*
X11158169Y7431531D01*
X11149076Y7430109D01*
X11140084Y7427874D01*
X11135715Y7426502D01*
X11127130Y7423099D01*
X11118850Y7418984D01*
X11111026Y7414107D01*
X11103610Y7408621D01*
X11096752Y7402474D01*
X11090452Y7395718D01*
X11084763Y7388453D01*
X11079734Y7380681D01*
X11075416Y7372553D01*
X11071860Y7364069D01*
X11070336Y7359700D01*
X11067948Y7350759D01*
X11066322Y7341717D01*
X11065510Y7332522D01*
X11065510Y7323277D01*
X11066322Y7314082D01*
X11067948Y7305040D01*
X11070336Y7296099D01*
X11073536Y7287463D01*
X11077498Y7279131D01*
X11082172Y7271156D01*
X11087557Y7263638D01*
X11093551Y7256627D01*
X11100104Y7250175D01*
X11107267Y7244334D01*
X11114887Y7239152D01*
X11122964Y7234681D01*
X11131397Y7230922D01*
X11135715Y7229297D01*
X11144554Y7226706D01*
X11153597Y7224877D01*
X11162741Y7223861D01*
X11171986Y7223658D01*
X11181181Y7224268D01*
X11190325Y7225690D01*
X11199266Y7227925D01*
X11208004Y7230922D01*
X11216386Y7234681D01*
X11224463Y7239152D01*
X11232083Y7244334D01*
X11239246Y7250175D01*
X11245799Y7256627D01*
X11251844Y7263638D01*
X11257178Y7271156D01*
X11261852Y7279131D01*
X11265814Y7287463D01*
X11269014Y7296099D01*
X11271402Y7305040D01*
X11273028Y7314082D01*
X11273840Y7323277D01*
X11273840Y7332522D01*
X11273028Y7341717D01*
X11271402Y7350759D01*
X11269014Y7359700D01*
X11265814Y7368336D01*
X11261852Y7376668D01*
X11257178Y7384643D01*
X11251844Y7392162D01*
X11245799Y7399172D01*
X11239246Y7405624D01*
X11232083Y7411466D01*
X11224463Y7416647D01*
X11216386Y7421118D01*
X11208004Y7424877D01*
X11199266Y7427874D01*
X11190325Y7430109D01*
X11181181Y7431531D01*
X11171986Y7432141D01*
G37*
G36*
X9871964Y7533741D02*
G01*
X9862769Y7533131D01*
X9853676Y7531709D01*
X9844684Y7529474D01*
X9840315Y7528102D01*
X9831730Y7524699D01*
X9823450Y7520584D01*
X9815626Y7515707D01*
X9808210Y7510221D01*
X9801352Y7504074D01*
X9795052Y7497318D01*
X9789363Y7490053D01*
X9784334Y7482281D01*
X9780016Y7474153D01*
X9776460Y7465669D01*
X9774936Y7461300D01*
X9772548Y7452359D01*
X9770922Y7443317D01*
X9770110Y7434122D01*
X9770110Y7424877D01*
X9770922Y7415682D01*
X9772548Y7406640D01*
X9774936Y7397699D01*
X9778136Y7389063D01*
X9782098Y7380731D01*
X9786772Y7372756D01*
X9792157Y7365238D01*
X9798151Y7358227D01*
X9804704Y7351775D01*
X9811867Y7345934D01*
X9819487Y7340752D01*
X9827564Y7336281D01*
X9835997Y7332522D01*
X9840315Y7330897D01*
X9849154Y7328306D01*
X9858197Y7326477D01*
X9867341Y7325461D01*
X9876586Y7325258D01*
X9885781Y7325868D01*
X9894925Y7327290D01*
X9903866Y7329525D01*
X9912604Y7332522D01*
X9920986Y7336281D01*
X9929063Y7340752D01*
X9936683Y7345934D01*
X9943846Y7351775D01*
X9950399Y7358227D01*
X9956444Y7365238D01*
X9961778Y7372756D01*
X9966452Y7380731D01*
X9970414Y7389063D01*
X9973614Y7397699D01*
X9976002Y7406640D01*
X9977628Y7415682D01*
X9978440Y7424877D01*
X9978440Y7434122D01*
X9977628Y7443317D01*
X9976002Y7452359D01*
X9973614Y7461300D01*
X9970414Y7469936D01*
X9966452Y7478268D01*
X9961778Y7486243D01*
X9956444Y7493762D01*
X9950399Y7500772D01*
X9943846Y7507224D01*
X9936683Y7513066D01*
X9929063Y7518247D01*
X9920986Y7522718D01*
X9912604Y7526477D01*
X9903866Y7529474D01*
X9894925Y7531709D01*
X9885781Y7533131D01*
X9876586Y7533741D01*
G37*
G36*
X10519664Y7533741D02*
G01*
X10510469Y7533131D01*
X10501376Y7531709D01*
X10492384Y7529474D01*
X10488015Y7528102D01*
X10479430Y7524699D01*
X10471150Y7520584D01*
X10463326Y7515707D01*
X10455910Y7510221D01*
X10449052Y7504074D01*
X10442752Y7497318D01*
X10437063Y7490053D01*
X10432034Y7482281D01*
X10427716Y7474153D01*
X10424160Y7465669D01*
X10422636Y7461300D01*
X10420248Y7452359D01*
X10418622Y7443317D01*
X10417810Y7434122D01*
X10417810Y7424877D01*
X10418622Y7415682D01*
X10420248Y7406640D01*
X10422636Y7397699D01*
X10425836Y7389063D01*
X10429798Y7380731D01*
X10434472Y7372756D01*
X10439857Y7365238D01*
X10445851Y7358227D01*
X10452404Y7351775D01*
X10459567Y7345934D01*
X10467187Y7340752D01*
X10475264Y7336281D01*
X10483697Y7332522D01*
X10488015Y7330897D01*
X10496854Y7328306D01*
X10505897Y7326477D01*
X10515041Y7325461D01*
X10524286Y7325258D01*
X10533481Y7325868D01*
X10542625Y7327290D01*
X10551566Y7329525D01*
X10560304Y7332522D01*
X10568686Y7336281D01*
X10576763Y7340752D01*
X10584383Y7345934D01*
X10591546Y7351775D01*
X10598099Y7358227D01*
X10604144Y7365238D01*
X10609478Y7372756D01*
X10614152Y7380731D01*
X10618114Y7389063D01*
X10621314Y7397699D01*
X10623702Y7406640D01*
X10625328Y7415682D01*
X10626140Y7424877D01*
X10626140Y7434122D01*
X10625328Y7443317D01*
X10623702Y7452359D01*
X10621314Y7461300D01*
X10618114Y7469936D01*
X10614152Y7478268D01*
X10609478Y7486243D01*
X10604144Y7493762D01*
X10598099Y7500772D01*
X10591546Y7507224D01*
X10584383Y7513066D01*
X10576763Y7518247D01*
X10568686Y7522718D01*
X10560304Y7526477D01*
X10551566Y7529474D01*
X10542625Y7531709D01*
X10533481Y7533131D01*
X10524286Y7533741D01*
G37*
G36*
X11167364Y5577941D02*
G01*
X11158169Y5577332D01*
X11149076Y5575909D01*
X11140084Y5573674D01*
X11135715Y5572302D01*
X11127130Y5568899D01*
X11118850Y5564784D01*
X11111026Y5559907D01*
X11103610Y5554421D01*
X11096752Y5548274D01*
X11090452Y5541518D01*
X11084763Y5534253D01*
X11079734Y5526481D01*
X11075416Y5518353D01*
X11071860Y5509869D01*
X11070336Y5505500D01*
X11067948Y5496560D01*
X11066322Y5487517D01*
X11065510Y5478322D01*
X11065510Y5469077D01*
X11066322Y5459882D01*
X11067948Y5450840D01*
X11070336Y5441899D01*
X11073536Y5433263D01*
X11077498Y5424932D01*
X11082172Y5416956D01*
X11087557Y5409438D01*
X11093551Y5402427D01*
X11100104Y5395976D01*
X11107267Y5390134D01*
X11114887Y5384952D01*
X11122964Y5380482D01*
X11131397Y5376722D01*
X11135715Y5375097D01*
X11144554Y5372506D01*
X11153597Y5370677D01*
X11162741Y5369661D01*
X11171986Y5369458D01*
X11181181Y5370068D01*
X11190325Y5371490D01*
X11199266Y5373725D01*
X11208004Y5376722D01*
X11216386Y5380482D01*
X11224463Y5384952D01*
X11232083Y5390134D01*
X11239246Y5395976D01*
X11245799Y5402427D01*
X11251844Y5409438D01*
X11257178Y5416956D01*
X11261852Y5424932D01*
X11265814Y5433263D01*
X11269014Y5441899D01*
X11271402Y5450840D01*
X11273028Y5459882D01*
X11273840Y5469077D01*
X11273840Y5478322D01*
X11273028Y5487517D01*
X11271402Y5496560D01*
X11269014Y5505500D01*
X11265814Y5514136D01*
X11261852Y5522468D01*
X11257178Y5530443D01*
X11251844Y5537962D01*
X11245799Y5544972D01*
X11239246Y5551424D01*
X11232083Y5557266D01*
X11224463Y5562447D01*
X11216386Y5566918D01*
X11208004Y5570677D01*
X11199266Y5573674D01*
X11190325Y5575909D01*
X11181181Y5577332D01*
X11171986Y5577941D01*
G37*
G36*
X9871964Y5679541D02*
G01*
X9862769Y5678932D01*
X9853676Y5677509D01*
X9844684Y5675274D01*
X9840315Y5673902D01*
X9831730Y5670499D01*
X9823450Y5666384D01*
X9815626Y5661507D01*
X9808210Y5656021D01*
X9801352Y5649874D01*
X9795052Y5643118D01*
X9789363Y5635853D01*
X9784334Y5628081D01*
X9780016Y5619953D01*
X9776460Y5611469D01*
X9774936Y5607100D01*
X9772548Y5598160D01*
X9770922Y5589117D01*
X9770110Y5579922D01*
X9770110Y5570677D01*
X9770922Y5561482D01*
X9772548Y5552440D01*
X9774936Y5543499D01*
X9778136Y5534863D01*
X9782098Y5526532D01*
X9786772Y5518556D01*
X9792157Y5511038D01*
X9798151Y5504027D01*
X9804704Y5497576D01*
X9811867Y5491734D01*
X9819487Y5486552D01*
X9827564Y5482082D01*
X9835997Y5478322D01*
X9840315Y5476697D01*
X9849154Y5474106D01*
X9858197Y5472277D01*
X9867341Y5471261D01*
X9876586Y5471058D01*
X9885781Y5471668D01*
X9894925Y5473090D01*
X9903866Y5475325D01*
X9912604Y5478322D01*
X9920986Y5482082D01*
X9929063Y5486552D01*
X9936683Y5491734D01*
X9943846Y5497576D01*
X9950399Y5504027D01*
X9956444Y5511038D01*
X9961778Y5518556D01*
X9966452Y5526532D01*
X9970414Y5534863D01*
X9973614Y5543499D01*
X9976002Y5552440D01*
X9977628Y5561482D01*
X9978440Y5570677D01*
X9978440Y5579922D01*
X9977628Y5589117D01*
X9976002Y5598160D01*
X9973614Y5607100D01*
X9970414Y5615736D01*
X9966452Y5624068D01*
X9961778Y5632043D01*
X9956444Y5639562D01*
X9950399Y5646572D01*
X9943846Y5653024D01*
X9936683Y5658866D01*
X9929063Y5664047D01*
X9920986Y5668518D01*
X9912604Y5672277D01*
X9903866Y5675274D01*
X9894925Y5677509D01*
X9885781Y5678932D01*
X9876586Y5679541D01*
G37*
G36*
X10519664Y5679541D02*
G01*
X10510469Y5678932D01*
X10501376Y5677509D01*
X10492384Y5675274D01*
X10488015Y5673902D01*
X10479430Y5670499D01*
X10471150Y5666384D01*
X10463326Y5661507D01*
X10455910Y5656021D01*
X10449052Y5649874D01*
X10442752Y5643118D01*
X10437063Y5635853D01*
X10432034Y5628081D01*
X10427716Y5619953D01*
X10424160Y5611469D01*
X10422636Y5607100D01*
X10420248Y5598160D01*
X10418622Y5589117D01*
X10417810Y5579922D01*
X10417810Y5570677D01*
X10418622Y5561482D01*
X10420248Y5552440D01*
X10422636Y5543499D01*
X10425836Y5534863D01*
X10429798Y5526532D01*
X10434472Y5518556D01*
X10439857Y5511038D01*
X10445851Y5504027D01*
X10452404Y5497576D01*
X10459567Y5491734D01*
X10467187Y5486552D01*
X10475264Y5482082D01*
X10483697Y5478322D01*
X10488015Y5476697D01*
X10496854Y5474106D01*
X10505897Y5472277D01*
X10515041Y5471261D01*
X10524286Y5471058D01*
X10533481Y5471668D01*
X10542625Y5473090D01*
X10551566Y5475325D01*
X10560304Y5478322D01*
X10568686Y5482082D01*
X10576763Y5486552D01*
X10584383Y5491734D01*
X10591546Y5497576D01*
X10598099Y5504027D01*
X10604144Y5511038D01*
X10609478Y5518556D01*
X10614152Y5526532D01*
X10618114Y5534863D01*
X10621314Y5543499D01*
X10623702Y5552440D01*
X10625328Y5561482D01*
X10626140Y5570677D01*
X10626140Y5579922D01*
X10625328Y5589117D01*
X10623702Y5598160D01*
X10621314Y5607100D01*
X10618114Y5615736D01*
X10614152Y5624068D01*
X10609478Y5632043D01*
X10604144Y5639562D01*
X10598099Y5646572D01*
X10591546Y5653024D01*
X10584383Y5658866D01*
X10576763Y5664047D01*
X10568686Y5668518D01*
X10560304Y5672277D01*
X10551566Y5675274D01*
X10542625Y5677509D01*
X10533481Y5678932D01*
X10524286Y5679541D01*
G37*
G36*
X7357364Y5577941D02*
G01*
X7348169Y5577332D01*
X7339075Y5575909D01*
X7330084Y5573674D01*
X7325715Y5572302D01*
X7317130Y5568899D01*
X7308850Y5564784D01*
X7301026Y5559907D01*
X7293609Y5554421D01*
X7286752Y5548274D01*
X7280452Y5541518D01*
X7274763Y5534253D01*
X7269734Y5526481D01*
X7265416Y5518353D01*
X7261859Y5509869D01*
X7260336Y5505500D01*
X7257948Y5496560D01*
X7256322Y5487517D01*
X7255509Y5478322D01*
X7255509Y5469077D01*
X7256322Y5459882D01*
X7257948Y5450840D01*
X7260336Y5441899D01*
X7263536Y5433263D01*
X7267498Y5424932D01*
X7272172Y5416956D01*
X7277557Y5409438D01*
X7283551Y5402427D01*
X7290104Y5395976D01*
X7297267Y5390134D01*
X7304887Y5384952D01*
X7312964Y5380482D01*
X7321397Y5376722D01*
X7325715Y5375097D01*
X7334554Y5372506D01*
X7343597Y5370677D01*
X7352741Y5369661D01*
X7361986Y5369458D01*
X7371181Y5370068D01*
X7380325Y5371490D01*
X7389266Y5373725D01*
X7398003Y5376722D01*
X7406386Y5380482D01*
X7414463Y5384952D01*
X7422083Y5390134D01*
X7429246Y5395976D01*
X7435799Y5402427D01*
X7441844Y5409438D01*
X7447178Y5416956D01*
X7451852Y5424932D01*
X7455814Y5433263D01*
X7459014Y5441899D01*
X7461402Y5450840D01*
X7463028Y5459882D01*
X7463840Y5469077D01*
X7463840Y5478322D01*
X7463028Y5487517D01*
X7461402Y5496560D01*
X7459014Y5505500D01*
X7455814Y5514136D01*
X7451852Y5522468D01*
X7447178Y5530443D01*
X7441844Y5537962D01*
X7435799Y5544972D01*
X7429246Y5551424D01*
X7422083Y5557266D01*
X7414463Y5562447D01*
X7406386Y5566918D01*
X7398003Y5570677D01*
X7389266Y5573674D01*
X7380325Y5575909D01*
X7371181Y5577332D01*
X7361986Y5577941D01*
G37*
G36*
X20212659Y8117941D02*
G01*
X20203464Y8117331D01*
X20194371Y8115909D01*
X20185380Y8113674D01*
X20181011Y8112302D01*
X20172426Y8108899D01*
X20164145Y8104784D01*
X20156322Y8099907D01*
X20148905Y8094421D01*
X20142047Y8088274D01*
X20135748Y8081518D01*
X20130058Y8074253D01*
X20125029Y8066481D01*
X20120711Y8058353D01*
X20117155Y8049869D01*
X20115631Y8045500D01*
X20113244Y8036559D01*
X20111618Y8027517D01*
X20110805Y8018322D01*
X20110805Y8009077D01*
X20111618Y7999882D01*
X20113244Y7990840D01*
X20115631Y7981899D01*
X20118832Y7973263D01*
X20122794Y7964931D01*
X20127468Y7956956D01*
X20132852Y7949438D01*
X20138847Y7942427D01*
X20145400Y7935975D01*
X20152563Y7930134D01*
X20160183Y7924952D01*
X20168260Y7920481D01*
X20176693Y7916722D01*
X20181011Y7915097D01*
X20189850Y7912506D01*
X20198892Y7910677D01*
X20208036Y7909661D01*
X20217282Y7909458D01*
X20226477Y7910068D01*
X20235621Y7911490D01*
X20244562Y7913725D01*
X20253299Y7916722D01*
X20261681Y7920481D01*
X20269758Y7924952D01*
X20277378Y7930134D01*
X20284541Y7935975D01*
X20291094Y7942427D01*
X20297140Y7949438D01*
X20302474Y7956956D01*
X20307147Y7964931D01*
X20311110Y7973263D01*
X20314310Y7981899D01*
X20316698Y7990840D01*
X20318323Y7999882D01*
X20319136Y8009077D01*
X20319136Y8018322D01*
X20318323Y8027517D01*
X20316698Y8036559D01*
X20314310Y8045500D01*
X20311110Y8054136D01*
X20307147Y8062468D01*
X20302474Y8070443D01*
X20297140Y8077962D01*
X20291094Y8084972D01*
X20284541Y8091424D01*
X20277378Y8097266D01*
X20269758Y8102447D01*
X20261681Y8106918D01*
X20253299Y8110677D01*
X20244562Y8113674D01*
X20235621Y8115909D01*
X20226477Y8117331D01*
X20217282Y8117941D01*
G37*
G36*
X12526264Y8117941D02*
G01*
X12517069Y8117331D01*
X12507976Y8115909D01*
X12498984Y8113674D01*
X12494615Y8112302D01*
X12486030Y8108899D01*
X12477750Y8104784D01*
X12469926Y8099907D01*
X12462510Y8094421D01*
X12455652Y8088274D01*
X12449352Y8081518D01*
X12443663Y8074253D01*
X12438634Y8066481D01*
X12434316Y8058353D01*
X12430760Y8049869D01*
X12429236Y8045500D01*
X12426848Y8036559D01*
X12425222Y8027517D01*
X12424410Y8018322D01*
X12424410Y8009077D01*
X12425222Y7999882D01*
X12426848Y7990840D01*
X12429236Y7981899D01*
X12432436Y7973263D01*
X12436398Y7964931D01*
X12441072Y7956956D01*
X12446457Y7949438D01*
X12452451Y7942427D01*
X12459004Y7935975D01*
X12466167Y7930134D01*
X12473787Y7924952D01*
X12481864Y7920481D01*
X12490297Y7916722D01*
X12494615Y7915097D01*
X12503454Y7912506D01*
X12512497Y7910677D01*
X12521641Y7909661D01*
X12530886Y7909458D01*
X12540081Y7910068D01*
X12549225Y7911490D01*
X12558166Y7913725D01*
X12566904Y7916722D01*
X12575286Y7920481D01*
X12583363Y7924952D01*
X12590983Y7930134D01*
X12598146Y7935975D01*
X12604699Y7942427D01*
X12610744Y7949438D01*
X12616078Y7956956D01*
X12620752Y7964931D01*
X12624714Y7973263D01*
X12627914Y7981899D01*
X12630302Y7990840D01*
X12631928Y7999882D01*
X12632740Y8009077D01*
X12632740Y8018322D01*
X12631928Y8027517D01*
X12630302Y8036559D01*
X12627914Y8045500D01*
X12624714Y8054136D01*
X12620752Y8062468D01*
X12616078Y8070443D01*
X12610744Y8077962D01*
X12604699Y8084972D01*
X12598146Y8091424D01*
X12590983Y8097266D01*
X12583363Y8102447D01*
X12575286Y8106918D01*
X12566904Y8110677D01*
X12558166Y8113674D01*
X12549225Y8115909D01*
X12540081Y8117331D01*
X12530886Y8117941D01*
G37*
G36*
X27970378Y5577941D02*
G01*
X27961183Y5577332D01*
X27952090Y5575909D01*
X27943098Y5573674D01*
X27938730Y5572302D01*
X27930144Y5568899D01*
X27921864Y5564784D01*
X27914041Y5559907D01*
X27906624Y5554421D01*
X27899766Y5548274D01*
X27893467Y5541518D01*
X27887777Y5534253D01*
X27882748Y5526481D01*
X27878430Y5518353D01*
X27874874Y5509869D01*
X27873350Y5505500D01*
X27870962Y5496560D01*
X27869337Y5487517D01*
X27868524Y5478322D01*
X27868524Y5469077D01*
X27869337Y5459882D01*
X27870962Y5450840D01*
X27873350Y5441899D01*
X27876550Y5433263D01*
X27880513Y5424932D01*
X27885186Y5416956D01*
X27890571Y5409438D01*
X27896565Y5402427D01*
X27903119Y5395976D01*
X27910282Y5390134D01*
X27917902Y5384952D01*
X27925979Y5380482D01*
X27934412Y5376722D01*
X27938730Y5375097D01*
X27947569Y5372506D01*
X27956611Y5370677D01*
X27965755Y5369661D01*
X27975001Y5369458D01*
X27984196Y5370068D01*
X27993339Y5371490D01*
X28002280Y5373725D01*
X28011018Y5376722D01*
X28019400Y5380482D01*
X28027477Y5384952D01*
X28035097Y5390134D01*
X28042260Y5395976D01*
X28048813Y5402427D01*
X28054858Y5409438D01*
X28060192Y5416956D01*
X28064866Y5424932D01*
X28068828Y5433263D01*
X28072029Y5441899D01*
X28074416Y5450840D01*
X28076042Y5459882D01*
X28076855Y5469077D01*
X28076855Y5478322D01*
X28076042Y5487517D01*
X28074416Y5496560D01*
X28072029Y5505500D01*
X28068828Y5514136D01*
X28064866Y5522468D01*
X28060192Y5530443D01*
X28054858Y5537962D01*
X28048813Y5544972D01*
X28042260Y5551424D01*
X28035097Y5557266D01*
X28027477Y5562447D01*
X28019400Y5566918D01*
X28011018Y5570677D01*
X28002280Y5573674D01*
X27993339Y5575909D01*
X27984196Y5577332D01*
X27975001Y5577941D01*
G37*
G36*
X27970378Y7432141D02*
G01*
X27961183Y7431531D01*
X27952090Y7430109D01*
X27943098Y7427874D01*
X27938730Y7426502D01*
X27930144Y7423099D01*
X27921864Y7418984D01*
X27914041Y7414107D01*
X27906624Y7408621D01*
X27899766Y7402474D01*
X27893467Y7395718D01*
X27887777Y7388453D01*
X27882748Y7380681D01*
X27878430Y7372553D01*
X27874874Y7364069D01*
X27873350Y7359700D01*
X27870962Y7350759D01*
X27869337Y7341717D01*
X27868524Y7332522D01*
X27868524Y7323277D01*
X27869337Y7314082D01*
X27870962Y7305040D01*
X27873350Y7296099D01*
X27876550Y7287463D01*
X27880513Y7279131D01*
X27885186Y7271156D01*
X27890571Y7263638D01*
X27896565Y7256627D01*
X27903119Y7250175D01*
X27910282Y7244334D01*
X27917902Y7239152D01*
X27925979Y7234681D01*
X27934412Y7230922D01*
X27938730Y7229297D01*
X27947569Y7226706D01*
X27956611Y7224877D01*
X27965755Y7223861D01*
X27975001Y7223658D01*
X27984196Y7224268D01*
X27993339Y7225690D01*
X28002280Y7227925D01*
X28011018Y7230922D01*
X28019400Y7234681D01*
X28027477Y7239152D01*
X28035097Y7244334D01*
X28042260Y7250175D01*
X28048813Y7256627D01*
X28054858Y7263638D01*
X28060192Y7271156D01*
X28064866Y7279131D01*
X28068828Y7287463D01*
X28072029Y7296099D01*
X28074416Y7305040D01*
X28076042Y7314082D01*
X28076855Y7323277D01*
X28076855Y7332522D01*
X28076042Y7341717D01*
X28074416Y7350759D01*
X28072029Y7359700D01*
X28068828Y7368336D01*
X28064866Y7376668D01*
X28060192Y7384643D01*
X28054858Y7392162D01*
X28048813Y7399172D01*
X28042260Y7405624D01*
X28035097Y7411466D01*
X28027477Y7416647D01*
X28019400Y7421118D01*
X28011018Y7424877D01*
X28002280Y7427874D01*
X27993339Y7430109D01*
X27984196Y7431531D01*
X27975001Y7432141D01*
G37*
G36*
X27970378Y6505041D02*
G01*
X27961183Y6504431D01*
X27952090Y6503009D01*
X27943098Y6500774D01*
X27938730Y6499402D01*
X27930144Y6495999D01*
X27921864Y6491884D01*
X27914041Y6487007D01*
X27906624Y6481521D01*
X27899766Y6475374D01*
X27893467Y6468618D01*
X27887777Y6461353D01*
X27882748Y6453581D01*
X27878430Y6445453D01*
X27874874Y6436969D01*
X27873350Y6432600D01*
X27870962Y6423660D01*
X27869337Y6414617D01*
X27868524Y6405422D01*
X27868524Y6396177D01*
X27869337Y6386982D01*
X27870962Y6377940D01*
X27873350Y6368999D01*
X27876550Y6360363D01*
X27880513Y6352032D01*
X27885186Y6344056D01*
X27890571Y6336538D01*
X27896565Y6329527D01*
X27903119Y6323076D01*
X27910282Y6317234D01*
X27917902Y6312052D01*
X27925979Y6307582D01*
X27934412Y6303822D01*
X27938730Y6302197D01*
X27947569Y6299606D01*
X27956611Y6297777D01*
X27965755Y6296761D01*
X27975001Y6296558D01*
X27984196Y6297168D01*
X27993339Y6298590D01*
X28002280Y6300825D01*
X28011018Y6303822D01*
X28019400Y6307582D01*
X28027477Y6312052D01*
X28035097Y6317234D01*
X28042260Y6323076D01*
X28048813Y6329527D01*
X28054858Y6336538D01*
X28060192Y6344056D01*
X28064866Y6352032D01*
X28068828Y6360363D01*
X28072029Y6368999D01*
X28074416Y6377940D01*
X28076042Y6386982D01*
X28076855Y6396177D01*
X28076855Y6405422D01*
X28076042Y6414617D01*
X28074416Y6423660D01*
X28072029Y6432600D01*
X28068828Y6441236D01*
X28064866Y6449568D01*
X28060192Y6457543D01*
X28054858Y6465062D01*
X28048813Y6472072D01*
X28042260Y6478524D01*
X28035097Y6484366D01*
X28027477Y6489547D01*
X28019400Y6494018D01*
X28011018Y6497777D01*
X28002280Y6500774D01*
X27993339Y6503009D01*
X27984196Y6504431D01*
X27975001Y6505041D01*
G37*
G36*
X29397706Y5577941D02*
G01*
X29388460Y5577332D01*
X29379367Y5575909D01*
X29370426Y5573674D01*
X29366006Y5572302D01*
X29357421Y5568899D01*
X29349192Y5564784D01*
X29341318Y5559907D01*
X29333952Y5554421D01*
X29327094Y5548274D01*
X29320794Y5541518D01*
X29315105Y5534253D01*
X29310076Y5526481D01*
X29305758Y5518353D01*
X29302202Y5509869D01*
X29299357Y5501081D01*
X29297325Y5492038D01*
X29296106Y5482894D01*
X29295699Y5473700D01*
X29296106Y5464505D01*
X29297325Y5455361D01*
X29299357Y5446318D01*
X29302202Y5437530D01*
X29305758Y5429046D01*
X29310076Y5420918D01*
X29315105Y5413146D01*
X29320794Y5405882D01*
X29327094Y5399125D01*
X29333952Y5392978D01*
X29341318Y5387492D01*
X29349192Y5382615D01*
X29357421Y5378500D01*
X29366006Y5375097D01*
X29374846Y5372506D01*
X29383888Y5370677D01*
X29393083Y5369661D01*
X29402277Y5369458D01*
X29411523Y5370068D01*
X29420616Y5371490D01*
X29429557Y5373725D01*
X29433977Y5375097D01*
X29442562Y5378500D01*
X29450792Y5382615D01*
X29458665Y5387492D01*
X29466032Y5392978D01*
X29472889Y5399125D01*
X29479239Y5405882D01*
X29484878Y5413146D01*
X29489908Y5420918D01*
X29494226Y5429046D01*
X29497832Y5437530D01*
X29500626Y5446318D01*
X29502658Y5455361D01*
X29503877Y5464505D01*
X29504284Y5473700D01*
X29503877Y5482894D01*
X29502658Y5492038D01*
X29500626Y5501081D01*
X29497832Y5509869D01*
X29494226Y5518353D01*
X29489908Y5526481D01*
X29484878Y5534253D01*
X29479239Y5541518D01*
X29472889Y5548274D01*
X29466032Y5554421D01*
X29458665Y5559907D01*
X29450792Y5564784D01*
X29442562Y5568899D01*
X29433977Y5572302D01*
X29425138Y5574893D01*
X29416095Y5576722D01*
X29406900Y5577738D01*
G37*
G36*
X29397706Y7432141D02*
G01*
X29388460Y7431531D01*
X29379367Y7430109D01*
X29370426Y7427874D01*
X29366006Y7426502D01*
X29357421Y7423099D01*
X29349192Y7418984D01*
X29341318Y7414107D01*
X29333952Y7408621D01*
X29327094Y7402474D01*
X29320794Y7395718D01*
X29315105Y7388453D01*
X29310076Y7380681D01*
X29305758Y7372553D01*
X29302202Y7364069D01*
X29299357Y7355281D01*
X29297325Y7346238D01*
X29296106Y7337094D01*
X29295699Y7327900D01*
X29296106Y7318705D01*
X29297325Y7309561D01*
X29299357Y7300518D01*
X29302202Y7291730D01*
X29305758Y7283246D01*
X29310076Y7275118D01*
X29315105Y7267346D01*
X29320794Y7260081D01*
X29327094Y7253325D01*
X29333952Y7247178D01*
X29341318Y7241692D01*
X29349192Y7236815D01*
X29357421Y7232700D01*
X29366006Y7229297D01*
X29374846Y7226706D01*
X29383888Y7224877D01*
X29393083Y7223861D01*
X29402277Y7223658D01*
X29411523Y7224268D01*
X29420616Y7225690D01*
X29429557Y7227925D01*
X29433977Y7229297D01*
X29442562Y7232700D01*
X29450792Y7236815D01*
X29458665Y7241692D01*
X29466032Y7247178D01*
X29472889Y7253325D01*
X29479239Y7260081D01*
X29484878Y7267346D01*
X29489908Y7275118D01*
X29494226Y7283246D01*
X29497832Y7291730D01*
X29500626Y7300518D01*
X29502658Y7309561D01*
X29503877Y7318705D01*
X29504284Y7327900D01*
X29503877Y7337094D01*
X29502658Y7346238D01*
X29500626Y7355281D01*
X29497832Y7364069D01*
X29494226Y7372553D01*
X29489908Y7380681D01*
X29484878Y7388453D01*
X29479239Y7395718D01*
X29472889Y7402474D01*
X29466032Y7408621D01*
X29458665Y7414107D01*
X29450792Y7418984D01*
X29442562Y7423099D01*
X29433977Y7426502D01*
X29425138Y7429093D01*
X29416095Y7430922D01*
X29406900Y7431938D01*
G37*
G36*
X29397706Y6517741D02*
G01*
X29388460Y6517131D01*
X29379367Y6515709D01*
X29370426Y6513474D01*
X29366006Y6512102D01*
X29357421Y6508699D01*
X29349192Y6504584D01*
X29341318Y6499707D01*
X29333952Y6494221D01*
X29327094Y6488074D01*
X29320794Y6481318D01*
X29315105Y6474053D01*
X29310076Y6466281D01*
X29305758Y6458153D01*
X29302202Y6449669D01*
X29299357Y6440881D01*
X29297325Y6431838D01*
X29296106Y6422694D01*
X29295699Y6413500D01*
X29296106Y6404305D01*
X29297325Y6395161D01*
X29299357Y6386118D01*
X29302202Y6377330D01*
X29305758Y6368846D01*
X29310076Y6360718D01*
X29315105Y6352946D01*
X29320794Y6345682D01*
X29327094Y6338925D01*
X29333952Y6332778D01*
X29341318Y6327292D01*
X29349192Y6322415D01*
X29357421Y6318300D01*
X29366006Y6314897D01*
X29374846Y6312306D01*
X29383888Y6310477D01*
X29393083Y6309461D01*
X29402277Y6309258D01*
X29411523Y6309868D01*
X29420616Y6311290D01*
X29429557Y6313525D01*
X29433977Y6314897D01*
X29442562Y6318300D01*
X29450792Y6322415D01*
X29458665Y6327292D01*
X29466032Y6332778D01*
X29472889Y6338925D01*
X29479239Y6345682D01*
X29484878Y6352946D01*
X29489908Y6360718D01*
X29494226Y6368846D01*
X29497832Y6377330D01*
X29500626Y6386118D01*
X29502658Y6395161D01*
X29503877Y6404305D01*
X29504284Y6413500D01*
X29503877Y6422694D01*
X29502658Y6431838D01*
X29500626Y6440881D01*
X29497832Y6449669D01*
X29494226Y6458153D01*
X29489908Y6466281D01*
X29484878Y6474053D01*
X29479239Y6481318D01*
X29472889Y6488074D01*
X29466032Y6494221D01*
X29458665Y6499707D01*
X29450792Y6504584D01*
X29442562Y6508699D01*
X29433977Y6512102D01*
X29425138Y6514693D01*
X29416095Y6516522D01*
X29406900Y6517538D01*
G37*
M02*
