G04 Layer: BottomSilkscreenLayer*
G04 EasyEDA v6.5.34, 2023-08-21 18:11:39*
G04 b7a531e6b72d43589cadbd4e20ea0607,5a6b42c53f6a479593ecc07194224c93,10*
G04 Gerber Generator version 0.2*
G04 Scale: 100 percent, Rotated: No, Reflected: No *
G04 Dimensions in millimeters *
G04 leading zeros omitted , absolute positions ,4 integer and 5 decimal *
%FSLAX45Y45*%
%MOMM*%

%ADD10C,0.2032*%
%ADD11C,0.1520*%
%ADD12C,0.1524*%

%LPD*%
D10*
X24612600Y463989D02*
G01*
X24612600Y349445D01*
X24612600Y463989D02*
G01*
X24563509Y463989D01*
X24547146Y458536D01*
X24541690Y453082D01*
X24536237Y442173D01*
X24536237Y425808D01*
X24541690Y414898D01*
X24547146Y409445D01*
X24563509Y403989D01*
X24612600Y403989D01*
X24456600Y463989D02*
G01*
X24500235Y349445D01*
X24456600Y463989D02*
G01*
X24412963Y349445D01*
X24483872Y387626D02*
G01*
X24429328Y387626D01*
X24376964Y463989D02*
G01*
X24376964Y349445D01*
X24376964Y463989D02*
G01*
X24327873Y463989D01*
X24311510Y458536D01*
X24306055Y453082D01*
X24300601Y442173D01*
X24300601Y431264D01*
X24306055Y420354D01*
X24311510Y414898D01*
X24327873Y409445D01*
X24376964Y409445D01*
X24338782Y409445D02*
G01*
X24300601Y349445D01*
X24226418Y463989D02*
G01*
X24226418Y349445D01*
X24264599Y463989D02*
G01*
X24188237Y463989D01*
X24068237Y463989D02*
G01*
X24068237Y349445D01*
X24068237Y463989D02*
G01*
X23991874Y349445D01*
X23991874Y463989D02*
G01*
X23991874Y349445D01*
X23955872Y463989D02*
G01*
X23955872Y382173D01*
X23950419Y365808D01*
X23939510Y354898D01*
X23923147Y349445D01*
X23912238Y349445D01*
X23895872Y354898D01*
X23884966Y365808D01*
X23879510Y382173D01*
X23879510Y463989D01*
X23843510Y463989D02*
G01*
X23843510Y349445D01*
X23843510Y463989D02*
G01*
X23799873Y349445D01*
X23756238Y463989D02*
G01*
X23799873Y349445D01*
X23756238Y463989D02*
G01*
X23756238Y349445D01*
X23720237Y463989D02*
G01*
X23720237Y349445D01*
X23720237Y463989D02*
G01*
X23671146Y463989D01*
X23654783Y458536D01*
X23649330Y453082D01*
X23643874Y442173D01*
X23643874Y431264D01*
X23649330Y420354D01*
X23654783Y414898D01*
X23671146Y409445D01*
X23720237Y409445D02*
G01*
X23671146Y409445D01*
X23654783Y403989D01*
X23649330Y398536D01*
X23643874Y387626D01*
X23643874Y371264D01*
X23649330Y360354D01*
X23654783Y354898D01*
X23671146Y349445D01*
X23720237Y349445D01*
X23607875Y463989D02*
G01*
X23607875Y349445D01*
X23607875Y463989D02*
G01*
X23536965Y463989D01*
X23607875Y409445D02*
G01*
X23564237Y409445D01*
X23607875Y349445D02*
G01*
X23536965Y349445D01*
X23500966Y463989D02*
G01*
X23500966Y349445D01*
X23500966Y463989D02*
G01*
X23451875Y463989D01*
X23435510Y458536D01*
X23430057Y453082D01*
X23424601Y442173D01*
X23424601Y431264D01*
X23430057Y420354D01*
X23435510Y414898D01*
X23451875Y409445D01*
X23500966Y409445D01*
X23462785Y409445D02*
G01*
X23424601Y349445D01*
X23304601Y442173D02*
G01*
X23293692Y447626D01*
X23277329Y463989D01*
X23277329Y349445D01*
X23214058Y463989D02*
G01*
X23230420Y458536D01*
X23235874Y447626D01*
X23235874Y436717D01*
X23230420Y425808D01*
X23219511Y420354D01*
X23197693Y414898D01*
X23181330Y409445D01*
X23170421Y398536D01*
X23164967Y387626D01*
X23164967Y371264D01*
X23170421Y360354D01*
X23175874Y354898D01*
X23192239Y349445D01*
X23214058Y349445D01*
X23230420Y354898D01*
X23235874Y360354D01*
X23241330Y371264D01*
X23241330Y387626D01*
X23235874Y398536D01*
X23224967Y409445D01*
X23208602Y414898D01*
X23186783Y420354D01*
X23175874Y425808D01*
X23170421Y436717D01*
X23170421Y447626D01*
X23175874Y458536D01*
X23192239Y463989D01*
X23214058Y463989D01*
X23063512Y463989D02*
G01*
X23118056Y463989D01*
X23123512Y414898D01*
X23118056Y420354D01*
X23101693Y425808D01*
X23085331Y425808D01*
X23068965Y420354D01*
X23058056Y409445D01*
X23052603Y393082D01*
X23052603Y382173D01*
X23058056Y365808D01*
X23068965Y354898D01*
X23085331Y349445D01*
X23101693Y349445D01*
X23118056Y354898D01*
X23123512Y360354D01*
X23128965Y371264D01*
X22983875Y463989D02*
G01*
X23000238Y458536D01*
X23011147Y442173D01*
X23016603Y414898D01*
X23016603Y398536D01*
X23011147Y371264D01*
X23000238Y354898D01*
X22983875Y349445D01*
X22972966Y349445D01*
X22956603Y354898D01*
X22945694Y371264D01*
X22940238Y398536D01*
X22940238Y414898D01*
X22945694Y442173D01*
X22956603Y458536D01*
X22972966Y463989D01*
X22983875Y463989D01*
X22904239Y398536D02*
G01*
X22806058Y398536D01*
X22737330Y463989D02*
G01*
X22753693Y458536D01*
X22764602Y442173D01*
X22770058Y414898D01*
X22770058Y398536D01*
X22764602Y371264D01*
X22753693Y354898D01*
X22737330Y349445D01*
X22726421Y349445D01*
X22710058Y354898D01*
X22699149Y371264D01*
X22693693Y398536D01*
X22693693Y414898D01*
X22699149Y442173D01*
X22710058Y458536D01*
X22726421Y463989D01*
X22737330Y463989D01*
X22652240Y436717D02*
G01*
X22652240Y442173D01*
X22646784Y453082D01*
X22641331Y458536D01*
X22630422Y463989D01*
X22608603Y463989D01*
X22597694Y458536D01*
X22592240Y453082D01*
X22586784Y442173D01*
X22586784Y431264D01*
X22592240Y420354D01*
X22603150Y403989D01*
X22657694Y349445D01*
X22581331Y349445D01*
X22512604Y463989D02*
G01*
X22528966Y458536D01*
X22539876Y442173D01*
X22545332Y414898D01*
X22545332Y398536D01*
X22539876Y371264D01*
X22528966Y354898D01*
X22512604Y349445D01*
X22501694Y349445D01*
X22485332Y354898D01*
X22474422Y371264D01*
X22468966Y398536D01*
X22468966Y414898D01*
X22474422Y442173D01*
X22485332Y458536D01*
X22501694Y463989D01*
X22512604Y463989D01*
X22422058Y463989D02*
G01*
X22362058Y463989D01*
X22394786Y420354D01*
X22378423Y420354D01*
X22367514Y414898D01*
X22362058Y409445D01*
X22356605Y393082D01*
X22356605Y382173D01*
X22362058Y365808D01*
X22372967Y354898D01*
X22389332Y349445D01*
X22405695Y349445D01*
X22422058Y354898D01*
X22427514Y360354D01*
X22432967Y371264D01*
X22236605Y463989D02*
G01*
X22192968Y349445D01*
X22149333Y463989D02*
G01*
X22192968Y349445D01*
X22080606Y463989D02*
G01*
X22096968Y458536D01*
X22107878Y442173D01*
X22113331Y414898D01*
X22113331Y398536D01*
X22107878Y371264D01*
X22096968Y354898D01*
X22080606Y349445D01*
X22069696Y349445D01*
X22053331Y354898D01*
X22042422Y371264D01*
X22036968Y398536D01*
X22036968Y414898D01*
X22042422Y442173D01*
X22053331Y458536D01*
X22069696Y463989D01*
X22080606Y463989D01*
X21995513Y376717D02*
G01*
X22000969Y371264D01*
X21995513Y365808D01*
X21990060Y371264D01*
X21995513Y376717D01*
X21954060Y442173D02*
G01*
X21943151Y447626D01*
X21926786Y463989D01*
X21926786Y349445D01*
X25476037Y244426D02*
G01*
X25486946Y255336D01*
X25503309Y260789D01*
X25525128Y260789D01*
X25541490Y255336D01*
X25552400Y244426D01*
X25552400Y233517D01*
X25546946Y222608D01*
X25541490Y217154D01*
X25530581Y211698D01*
X25497853Y200789D01*
X25486946Y195336D01*
X25481490Y189882D01*
X25476037Y178973D01*
X25476037Y162608D01*
X25486946Y151698D01*
X25503309Y146245D01*
X25525128Y146245D01*
X25541490Y151698D01*
X25552400Y162608D01*
X25440035Y260789D02*
G01*
X25440035Y178973D01*
X25434582Y162608D01*
X25423672Y151698D01*
X25407310Y146245D01*
X25396400Y146245D01*
X25380035Y151698D01*
X25369128Y162608D01*
X25363672Y178973D01*
X25363672Y260789D01*
X25327673Y260789D02*
G01*
X25327673Y146245D01*
X25327673Y260789D02*
G01*
X25278582Y260789D01*
X25262217Y255336D01*
X25256764Y249882D01*
X25251310Y238973D01*
X25251310Y228064D01*
X25256764Y217154D01*
X25262217Y211698D01*
X25278582Y206245D01*
X25327673Y206245D02*
G01*
X25278582Y206245D01*
X25262217Y200789D01*
X25256764Y195336D01*
X25251310Y184426D01*
X25251310Y168064D01*
X25256764Y157154D01*
X25262217Y151698D01*
X25278582Y146245D01*
X25327673Y146245D01*
X25138946Y244426D02*
G01*
X25149855Y255336D01*
X25166218Y260789D01*
X25188036Y260789D01*
X25204399Y255336D01*
X25215308Y244426D01*
X25215308Y233517D01*
X25209855Y222608D01*
X25204399Y217154D01*
X25193490Y211698D01*
X25160765Y200789D01*
X25149855Y195336D01*
X25144399Y189882D01*
X25138946Y178973D01*
X25138946Y162608D01*
X25149855Y151698D01*
X25166218Y146245D01*
X25188036Y146245D01*
X25204399Y151698D01*
X25215308Y162608D01*
X25064765Y260789D02*
G01*
X25064765Y146245D01*
X25102947Y260789D02*
G01*
X25026581Y260789D01*
X24946947Y260789D02*
G01*
X24990582Y146245D01*
X24946947Y260789D02*
G01*
X24903310Y146245D01*
X24974219Y184426D02*
G01*
X24919673Y184426D01*
X24829129Y260789D02*
G01*
X24829129Y146245D01*
X24867311Y260789D02*
G01*
X24790946Y260789D01*
X24754946Y260789D02*
G01*
X24754946Y146245D01*
X24686219Y260789D02*
G01*
X24697128Y255336D01*
X24708037Y244426D01*
X24713491Y233517D01*
X24718947Y217154D01*
X24718947Y189882D01*
X24713491Y173517D01*
X24708037Y162608D01*
X24697128Y151698D01*
X24686219Y146245D01*
X24664400Y146245D01*
X24653491Y151698D01*
X24642584Y162608D01*
X24637128Y173517D01*
X24631675Y189882D01*
X24631675Y217154D01*
X24637128Y233517D01*
X24642584Y244426D01*
X24653491Y255336D01*
X24664400Y260789D01*
X24686219Y260789D01*
X24595673Y260789D02*
G01*
X24595673Y146245D01*
X24595673Y260789D02*
G01*
X24519310Y146245D01*
X24519310Y260789D02*
G01*
X24519310Y146245D01*
X24322948Y244426D02*
G01*
X24333857Y255336D01*
X24350220Y260789D01*
X24372039Y260789D01*
X24388401Y255336D01*
X24399311Y244426D01*
X24399311Y233517D01*
X24393857Y222608D01*
X24388401Y217154D01*
X24377492Y211698D01*
X24344767Y200789D01*
X24333857Y195336D01*
X24328401Y189882D01*
X24322948Y178973D01*
X24322948Y162608D01*
X24333857Y151698D01*
X24350220Y146245D01*
X24372039Y146245D01*
X24388401Y151698D01*
X24399311Y162608D01*
X24286949Y260789D02*
G01*
X24286949Y146245D01*
X24250947Y260789D02*
G01*
X24250947Y146245D01*
X24250947Y260789D02*
G01*
X24207312Y146245D01*
X24163675Y260789D02*
G01*
X24207312Y146245D01*
X24163675Y260789D02*
G01*
X24163675Y146245D01*
X24127675Y260789D02*
G01*
X24127675Y178973D01*
X24122219Y162608D01*
X24111313Y151698D01*
X24094948Y146245D01*
X24084038Y146245D01*
X24067676Y151698D01*
X24056766Y162608D01*
X24051313Y178973D01*
X24051313Y260789D01*
X24015311Y260789D02*
G01*
X24015311Y146245D01*
X24015311Y146245D02*
G01*
X23949858Y146245D01*
X23870221Y260789D02*
G01*
X23913858Y146245D01*
X23870221Y260789D02*
G01*
X23826584Y146245D01*
X23897493Y184426D02*
G01*
X23842949Y184426D01*
X23752403Y260789D02*
G01*
X23752403Y146245D01*
X23790584Y260789D02*
G01*
X23714222Y260789D01*
X23645495Y260789D02*
G01*
X23656404Y255336D01*
X23667313Y244426D01*
X23672766Y233517D01*
X23678222Y217154D01*
X23678222Y189882D01*
X23672766Y173517D01*
X23667313Y162608D01*
X23656404Y151698D01*
X23645495Y146245D01*
X23623676Y146245D01*
X23612767Y151698D01*
X23601857Y162608D01*
X23596404Y173517D01*
X23590948Y189882D01*
X23590948Y217154D01*
X23596404Y233517D01*
X23601857Y244426D01*
X23612767Y255336D01*
X23623676Y260789D01*
X23645495Y260789D01*
X23554949Y260789D02*
G01*
X23554949Y146245D01*
X23554949Y260789D02*
G01*
X23505858Y260789D01*
X23489495Y255336D01*
X23484039Y249882D01*
X23478586Y238973D01*
X23478586Y228064D01*
X23484039Y217154D01*
X23489495Y211698D01*
X23505858Y206245D01*
X23554949Y206245D01*
X23516767Y206245D02*
G01*
X23478586Y146245D01*
X23314949Y260789D02*
G01*
X23358586Y146245D01*
X23314949Y260789D02*
G01*
X23271314Y146245D01*
X23342221Y184426D02*
G01*
X23287677Y184426D01*
X23235312Y260789D02*
G01*
X23235312Y146245D01*
X23235312Y146245D02*
G01*
X23169859Y146245D01*
X23049859Y260789D02*
G01*
X23049859Y146245D01*
X23049859Y146245D02*
G01*
X22984404Y146245D01*
X22948404Y260789D02*
G01*
X22948404Y146245D01*
X22948404Y260789D02*
G01*
X22877495Y260789D01*
X22948404Y206245D02*
G01*
X22904770Y206245D01*
X22948404Y146245D02*
G01*
X22877495Y146245D01*
X22841496Y260789D02*
G01*
X22841496Y146245D01*
X22841496Y260789D02*
G01*
X22803314Y260789D01*
X22786952Y255336D01*
X22776042Y244426D01*
X22770586Y233517D01*
X22765133Y217154D01*
X22765133Y189882D01*
X22770586Y173517D01*
X22776042Y162608D01*
X22786952Y151698D01*
X22803314Y146245D01*
X22841496Y146245D01*
X22568768Y244426D02*
G01*
X22579677Y255336D01*
X22596043Y260789D01*
X22617859Y260789D01*
X22634224Y255336D01*
X22645133Y244426D01*
X22645133Y233517D01*
X22639677Y222608D01*
X22634224Y217154D01*
X22623315Y211698D01*
X22590587Y200789D01*
X22579677Y195336D01*
X22574224Y189882D01*
X22568768Y178973D01*
X22568768Y162608D01*
X22579677Y151698D01*
X22596043Y146245D01*
X22617859Y146245D01*
X22634224Y151698D01*
X22645133Y162608D01*
X22532769Y260789D02*
G01*
X22532769Y146245D01*
X22532769Y260789D02*
G01*
X22483678Y260789D01*
X22467316Y255336D01*
X22461860Y249882D01*
X22456406Y238973D01*
X22456406Y222608D01*
X22461860Y211698D01*
X22467316Y206245D01*
X22483678Y200789D01*
X22532769Y200789D01*
X22376770Y260789D02*
G01*
X22420407Y146245D01*
X22376770Y260789D02*
G01*
X22333132Y146245D01*
X22404042Y184426D02*
G01*
X22349498Y184426D01*
X22215314Y233517D02*
G01*
X22220770Y244426D01*
X22231680Y255336D01*
X22242589Y260789D01*
X22264405Y260789D01*
X22275314Y255336D01*
X22286224Y244426D01*
X22291680Y233517D01*
X22297133Y217154D01*
X22297133Y189882D01*
X22291680Y173517D01*
X22286224Y162608D01*
X22275314Y151698D01*
X22264405Y146245D01*
X22242589Y146245D01*
X22231680Y151698D01*
X22220770Y162608D01*
X22215314Y173517D01*
X22179315Y260789D02*
G01*
X22179315Y146245D01*
X22179315Y260789D02*
G01*
X22108406Y260789D01*
X22179315Y206245D02*
G01*
X22135678Y206245D01*
X22179315Y146245D02*
G01*
X22108406Y146245D01*
X22072406Y260789D02*
G01*
X22072406Y146245D01*
X22072406Y260789D02*
G01*
X22023316Y260789D01*
X22006953Y255336D01*
X22001497Y249882D01*
X21996044Y238973D01*
X21996044Y228064D01*
X22001497Y217154D01*
X22006953Y211698D01*
X22023316Y206245D01*
X22072406Y206245D01*
X22034225Y206245D02*
G01*
X21996044Y146245D01*
X21876044Y195336D02*
G01*
X21777860Y195336D01*
X21657861Y260789D02*
G01*
X21657861Y146245D01*
X21657861Y260789D02*
G01*
X21608770Y260789D01*
X21592407Y255336D01*
X21586954Y249882D01*
X21581498Y238973D01*
X21581498Y228064D01*
X21586954Y217154D01*
X21592407Y211698D01*
X21608770Y206245D01*
X21657861Y206245D02*
G01*
X21608770Y206245D01*
X21592407Y200789D01*
X21586954Y195336D01*
X21581498Y184426D01*
X21581498Y168064D01*
X21586954Y157154D01*
X21592407Y151698D01*
X21608770Y146245D01*
X21657861Y146245D01*
X21512771Y260789D02*
G01*
X21523680Y255336D01*
X21534589Y244426D01*
X21540043Y233517D01*
X21545499Y217154D01*
X21545499Y189882D01*
X21540043Y173517D01*
X21534589Y162608D01*
X21523680Y151698D01*
X21512771Y146245D01*
X21490952Y146245D01*
X21480043Y151698D01*
X21469136Y162608D01*
X21463680Y173517D01*
X21458227Y189882D01*
X21458227Y217154D01*
X21463680Y233517D01*
X21469136Y244426D01*
X21480043Y255336D01*
X21490952Y260789D01*
X21512771Y260789D01*
X21384044Y260789D02*
G01*
X21384044Y146245D01*
X21422225Y260789D02*
G01*
X21345862Y260789D01*
X21271682Y260789D02*
G01*
X21271682Y146245D01*
X21309863Y260789D02*
G01*
X21233498Y260789D01*
X21164773Y260789D02*
G01*
X21175680Y255336D01*
X21186589Y244426D01*
X21192045Y233517D01*
X21197498Y217154D01*
X21197498Y189882D01*
X21192045Y173517D01*
X21186589Y162608D01*
X21175680Y151698D01*
X21164773Y146245D01*
X21142954Y146245D01*
X21132045Y151698D01*
X21121136Y162608D01*
X21115680Y173517D01*
X21110227Y189882D01*
X21110227Y217154D01*
X21115680Y233517D01*
X21121136Y244426D01*
X21132045Y255336D01*
X21142954Y260789D01*
X21164773Y260789D01*
X21074227Y260789D02*
G01*
X21074227Y146245D01*
X21074227Y260789D02*
G01*
X21030590Y146245D01*
X20986955Y260789D02*
G01*
X21030590Y146245D01*
X20986955Y260789D02*
G01*
X20986955Y146245D01*
D11*
X39876846Y267751D02*
G01*
X39876846Y184624D01*
X39882043Y169037D01*
X39887237Y163842D01*
X39897629Y158648D01*
X39908020Y158648D01*
X39918411Y163842D01*
X39923608Y169037D01*
X39928802Y184624D01*
X39928802Y195016D01*
X39842556Y267751D02*
G01*
X39842556Y158648D01*
X39842556Y158648D02*
G01*
X39780212Y158648D01*
X39667990Y241774D02*
G01*
X39673187Y252166D01*
X39683578Y262557D01*
X39693966Y267751D01*
X39714749Y267751D01*
X39725140Y262557D01*
X39735531Y252166D01*
X39740728Y241774D01*
X39745922Y226187D01*
X39745922Y200210D01*
X39740728Y184624D01*
X39735531Y174233D01*
X39725140Y163842D01*
X39714749Y158648D01*
X39693966Y158648D01*
X39683578Y163842D01*
X39673187Y174233D01*
X39667990Y184624D01*
X39581747Y267751D02*
G01*
X39581747Y184624D01*
X39586941Y169037D01*
X39592138Y163842D01*
X39602526Y158648D01*
X39612917Y158648D01*
X39623309Y163842D01*
X39628505Y169037D01*
X39633700Y184624D01*
X39633700Y195016D01*
X39547457Y267751D02*
G01*
X39547457Y158648D01*
X39547457Y158648D02*
G01*
X39485110Y158648D01*
X39372887Y241774D02*
G01*
X39378084Y252166D01*
X39388475Y262557D01*
X39398867Y267751D01*
X39419646Y267751D01*
X39430037Y262557D01*
X39440429Y252166D01*
X39445625Y241774D01*
X39450820Y226187D01*
X39450820Y200210D01*
X39445625Y184624D01*
X39440429Y174233D01*
X39430037Y163842D01*
X39419646Y158648D01*
X39398867Y158648D01*
X39388475Y163842D01*
X39378084Y174233D01*
X39372887Y184624D01*
X39286644Y267751D02*
G01*
X39286644Y184624D01*
X39291839Y169037D01*
X39297035Y163842D01*
X39307427Y158648D01*
X39317818Y158648D01*
X39328206Y163842D01*
X39333403Y169037D01*
X39338597Y184624D01*
X39338597Y195016D01*
X39252354Y267751D02*
G01*
X39252354Y158648D01*
X39252354Y158648D02*
G01*
X39190007Y158648D01*
X39077788Y241774D02*
G01*
X39082982Y252166D01*
X39093373Y262557D01*
X39103764Y267751D01*
X39124547Y267751D01*
X39134938Y262557D01*
X39145326Y252166D01*
X39150523Y241774D01*
X39155717Y226187D01*
X39155717Y200210D01*
X39150523Y184624D01*
X39145326Y174233D01*
X39134938Y163842D01*
X39124547Y158648D01*
X39103764Y158648D01*
X39093373Y163842D01*
X39082982Y174233D01*
X39077788Y184624D01*
X38991542Y267751D02*
G01*
X38991542Y184624D01*
X38996736Y169037D01*
X39001933Y163842D01*
X39012324Y158648D01*
X39022715Y158648D01*
X39033107Y163842D01*
X39038301Y169037D01*
X39043498Y184624D01*
X39043498Y195016D01*
X38957252Y267751D02*
G01*
X38957252Y158648D01*
X38957252Y158648D02*
G01*
X38894908Y158648D01*
X38782685Y241774D02*
G01*
X38787880Y252166D01*
X38798271Y262557D01*
X38808662Y267751D01*
X38829444Y267751D01*
X38839835Y262557D01*
X38850227Y252166D01*
X38855421Y241774D01*
X38860618Y226187D01*
X38860618Y200210D01*
X38855421Y184624D01*
X38850227Y174233D01*
X38839835Y163842D01*
X38829444Y158648D01*
X38808662Y158648D01*
X38798271Y163842D01*
X38787880Y174233D01*
X38782685Y184624D01*
D12*
X39850867Y444962D02*
G01*
X39856064Y455353D01*
X39866455Y465744D01*
X39876844Y470938D01*
X39897626Y470938D01*
X39908017Y465744D01*
X39918408Y455353D01*
X39923605Y444962D01*
X39928800Y429374D01*
X39928800Y403397D01*
X39923605Y387812D01*
X39918408Y377421D01*
X39908017Y367029D01*
X39897626Y361835D01*
X39876844Y361835D01*
X39866455Y367029D01*
X39856064Y377421D01*
X39850867Y387812D01*
X39785404Y470938D02*
G01*
X39795795Y465744D01*
X39806186Y455353D01*
X39811383Y444962D01*
X39816577Y429374D01*
X39816577Y403397D01*
X39811383Y387812D01*
X39806186Y377421D01*
X39795795Y367029D01*
X39785404Y361835D01*
X39764624Y361835D01*
X39754233Y367029D01*
X39743842Y377421D01*
X39738645Y387812D01*
X39733451Y403397D01*
X39733451Y429374D01*
X39738645Y444962D01*
X39743842Y455353D01*
X39754233Y465744D01*
X39764624Y470938D01*
X39785404Y470938D01*
X39699161Y470938D02*
G01*
X39699161Y361835D01*
X39699161Y470938D02*
G01*
X39652402Y470938D01*
X39636814Y465744D01*
X39631620Y460547D01*
X39626425Y450156D01*
X39626425Y434571D01*
X39631620Y424179D01*
X39636814Y418985D01*
X39652402Y413788D01*
X39699161Y413788D01*
X39592135Y470938D02*
G01*
X39550571Y418985D01*
X39550571Y361835D01*
X39509006Y470938D02*
G01*
X39550571Y418985D01*
X39474716Y470938D02*
G01*
X39474716Y361835D01*
X39474716Y470938D02*
G01*
X39427957Y470938D01*
X39412372Y465744D01*
X39407175Y460547D01*
X39401981Y450156D01*
X39401981Y439765D01*
X39407175Y429374D01*
X39412372Y424179D01*
X39427957Y418985D01*
X39474716Y418985D01*
X39438348Y418985D02*
G01*
X39401981Y361835D01*
X39367691Y470938D02*
G01*
X39367691Y361835D01*
X39255468Y444962D02*
G01*
X39260665Y455353D01*
X39271054Y465744D01*
X39281445Y470938D01*
X39302227Y470938D01*
X39312618Y465744D01*
X39323009Y455353D01*
X39328204Y444962D01*
X39333401Y429374D01*
X39333401Y403397D01*
X39328204Y387812D01*
X39323009Y377421D01*
X39312618Y367029D01*
X39302227Y361835D01*
X39281445Y361835D01*
X39271054Y367029D01*
X39260665Y377421D01*
X39255468Y387812D01*
X39255468Y403397D01*
X39281445Y403397D02*
G01*
X39255468Y403397D01*
X39221178Y470938D02*
G01*
X39221178Y361835D01*
X39148443Y470938D02*
G01*
X39148443Y361835D01*
X39221178Y418985D02*
G01*
X39148443Y418985D01*
X39077785Y470938D02*
G01*
X39077785Y361835D01*
X39114153Y470938D02*
G01*
X39041415Y470938D01*
X38921921Y444962D02*
G01*
X38921921Y450156D01*
X38916724Y460547D01*
X38911529Y465744D01*
X38901138Y470938D01*
X38880356Y470938D01*
X38869965Y465744D01*
X38864771Y460547D01*
X38859574Y450156D01*
X38859574Y439765D01*
X38864771Y429374D01*
X38875162Y413788D01*
X38927115Y361835D01*
X38854379Y361835D01*
X38788916Y470938D02*
G01*
X38804504Y465744D01*
X38814895Y450156D01*
X38820090Y424179D01*
X38820090Y408594D01*
X38814895Y382615D01*
X38804504Y367029D01*
X38788916Y361835D01*
X38778525Y361835D01*
X38762940Y367029D01*
X38752548Y382615D01*
X38747354Y408594D01*
X38747354Y424179D01*
X38752548Y450156D01*
X38762940Y465744D01*
X38778525Y470938D01*
X38788916Y470938D01*
X38707867Y444962D02*
G01*
X38707867Y450156D01*
X38702673Y460547D01*
X38697476Y465744D01*
X38687085Y470938D01*
X38666305Y470938D01*
X38655914Y465744D01*
X38650717Y460547D01*
X38645523Y450156D01*
X38645523Y439765D01*
X38650717Y429374D01*
X38661108Y413788D01*
X38713064Y361835D01*
X38640326Y361835D01*
X38595645Y470938D02*
G01*
X38538495Y470938D01*
X38569668Y429374D01*
X38554083Y429374D01*
X38543692Y424179D01*
X38538495Y418985D01*
X38533301Y403397D01*
X38533301Y393006D01*
X38538495Y377421D01*
X38548886Y367029D01*
X38564474Y361835D01*
X38580059Y361835D01*
X38595645Y367029D01*
X38600842Y372224D01*
X38606036Y382615D01*
X38419001Y470938D02*
G01*
X38377436Y361835D01*
X38335874Y470938D02*
G01*
X38377436Y361835D01*
X38301584Y470938D02*
G01*
X38301584Y361835D01*
X38301584Y470938D02*
G01*
X38234043Y470938D01*
X38301584Y418985D02*
G01*
X38260020Y418985D01*
X38301584Y361835D02*
G01*
X38234043Y361835D01*
X38127015Y470938D02*
G01*
X38178971Y361835D01*
X38199753Y470938D02*
G01*
X38127015Y470938D01*
X38092725Y470938D02*
G01*
X38092725Y361835D01*
X38092725Y470938D02*
G01*
X38025184Y470938D01*
X38092725Y418985D02*
G01*
X38051163Y418985D01*
X37990894Y470938D02*
G01*
X37990894Y361835D01*
X37956604Y470938D02*
G01*
X37956604Y361835D01*
X37956604Y470938D02*
G01*
X37915042Y361835D01*
X37873477Y470938D02*
G01*
X37915042Y361835D01*
X37873477Y470938D02*
G01*
X37873477Y361835D01*
M02*
