G04 Layer: TopSilkscreenLayer*
G04 EasyEDA v6.5.34, 2023-08-21 18:11:39*
G04 b7a531e6b72d43589cadbd4e20ea0607,5a6b42c53f6a479593ecc07194224c93,10*
G04 Gerber Generator version 0.2*
G04 Scale: 100 percent, Rotated: No, Reflected: No *
G04 Dimensions in millimeters *
G04 leading zeros omitted , absolute positions ,4 integer and 5 decimal *
%FSLAX45Y45*%
%MOMM*%

%ADD10C,0.2032*%
%ADD11C,0.2540*%

%LPD*%
D10*
X21374354Y244347D02*
G01*
X21363431Y255270D01*
X21346922Y260857D01*
X21325077Y260857D01*
X21308822Y255270D01*
X21297900Y244347D01*
X21297900Y233426D01*
X21303234Y222504D01*
X21308822Y217170D01*
X21319743Y211581D01*
X21352509Y200913D01*
X21363431Y195326D01*
X21368766Y189992D01*
X21374354Y179070D01*
X21374354Y162560D01*
X21363431Y151637D01*
X21346922Y146304D01*
X21325077Y146304D01*
X21308822Y151637D01*
X21297900Y162560D01*
X21410168Y260857D02*
G01*
X21410168Y179070D01*
X21415756Y162560D01*
X21426677Y151637D01*
X21442934Y146304D01*
X21453856Y146304D01*
X21470366Y151637D01*
X21481288Y162560D01*
X21486622Y179070D01*
X21486622Y260857D01*
X21522690Y260857D02*
G01*
X21522690Y146304D01*
X21522690Y260857D02*
G01*
X21571711Y260857D01*
X21587968Y255270D01*
X21593556Y249936D01*
X21598890Y239013D01*
X21598890Y228092D01*
X21593556Y217170D01*
X21587968Y211581D01*
X21571711Y206247D01*
X21522690Y206247D02*
G01*
X21571711Y206247D01*
X21587968Y200913D01*
X21593556Y195326D01*
X21598890Y184404D01*
X21598890Y168147D01*
X21593556Y157226D01*
X21587968Y151637D01*
X21571711Y146304D01*
X21522690Y146304D01*
X21711411Y244347D02*
G01*
X21700490Y255270D01*
X21683979Y260857D01*
X21662136Y260857D01*
X21645879Y255270D01*
X21634958Y244347D01*
X21634958Y233426D01*
X21640545Y222504D01*
X21645879Y217170D01*
X21656802Y211581D01*
X21689568Y200913D01*
X21700490Y195326D01*
X21705824Y189992D01*
X21711411Y179070D01*
X21711411Y162560D01*
X21700490Y151637D01*
X21683979Y146304D01*
X21662136Y146304D01*
X21645879Y151637D01*
X21634958Y162560D01*
X21785579Y260857D02*
G01*
X21785579Y146304D01*
X21747479Y260857D02*
G01*
X21823679Y260857D01*
X21903436Y260857D02*
G01*
X21859748Y146304D01*
X21903436Y260857D02*
G01*
X21946870Y146304D01*
X21876004Y184404D02*
G01*
X21930613Y184404D01*
X22021291Y260857D02*
G01*
X22021291Y146304D01*
X21982938Y260857D02*
G01*
X22059391Y260857D01*
X22095459Y260857D02*
G01*
X22095459Y146304D01*
X22164040Y260857D02*
G01*
X22153118Y255270D01*
X22142195Y244347D01*
X22136861Y233426D01*
X22131274Y217170D01*
X22131274Y189992D01*
X22136861Y173481D01*
X22142195Y162560D01*
X22153118Y151637D01*
X22164040Y146304D01*
X22185884Y146304D01*
X22196806Y151637D01*
X22207727Y162560D01*
X22213061Y173481D01*
X22218650Y189992D01*
X22218650Y217170D01*
X22213061Y233426D01*
X22207727Y244347D01*
X22196806Y255270D01*
X22185884Y260857D01*
X22164040Y260857D01*
X22254718Y260857D02*
G01*
X22254718Y146304D01*
X22254718Y260857D02*
G01*
X22330918Y146304D01*
X22330918Y260857D02*
G01*
X22330918Y146304D01*
X22527259Y244347D02*
G01*
X22516338Y255270D01*
X22500081Y260857D01*
X22478238Y260857D01*
X22461981Y255270D01*
X22451059Y244347D01*
X22451059Y233426D01*
X22456393Y222504D01*
X22461981Y217170D01*
X22472904Y211581D01*
X22505416Y200913D01*
X22516338Y195326D01*
X22521925Y189992D01*
X22527259Y179070D01*
X22527259Y162560D01*
X22516338Y151637D01*
X22500081Y146304D01*
X22478238Y146304D01*
X22461981Y151637D01*
X22451059Y162560D01*
X22563327Y260857D02*
G01*
X22563327Y146304D01*
X22599395Y260857D02*
G01*
X22599395Y146304D01*
X22599395Y260857D02*
G01*
X22643084Y146304D01*
X22686518Y260857D02*
G01*
X22643084Y146304D01*
X22686518Y260857D02*
G01*
X22686518Y146304D01*
X22722586Y260857D02*
G01*
X22722586Y179070D01*
X22728174Y162560D01*
X22739095Y151637D01*
X22755352Y146304D01*
X22766274Y146304D01*
X22782529Y151637D01*
X22793452Y162560D01*
X22799040Y179070D01*
X22799040Y260857D01*
X22835108Y260857D02*
G01*
X22835108Y146304D01*
X22835108Y146304D02*
G01*
X22900386Y146304D01*
X22980141Y260857D02*
G01*
X22936454Y146304D01*
X22980141Y260857D02*
G01*
X23023829Y146304D01*
X22952709Y184404D02*
G01*
X23007320Y184404D01*
X23097998Y260857D02*
G01*
X23097998Y146304D01*
X23059643Y260857D02*
G01*
X23136098Y260857D01*
X23204931Y260857D02*
G01*
X23194009Y255270D01*
X23183088Y244347D01*
X23177500Y233426D01*
X23172166Y217170D01*
X23172166Y189992D01*
X23177500Y173481D01*
X23183088Y162560D01*
X23194009Y151637D01*
X23204931Y146304D01*
X23226522Y146304D01*
X23237443Y151637D01*
X23248366Y162560D01*
X23253954Y173481D01*
X23259288Y189992D01*
X23259288Y217170D01*
X23253954Y233426D01*
X23248366Y244347D01*
X23237443Y255270D01*
X23226522Y260857D01*
X23204931Y260857D01*
X23295356Y260857D02*
G01*
X23295356Y146304D01*
X23295356Y260857D02*
G01*
X23344377Y260857D01*
X23360888Y255270D01*
X23366222Y249936D01*
X23371809Y239013D01*
X23371809Y228092D01*
X23366222Y217170D01*
X23360888Y211581D01*
X23344377Y206247D01*
X23295356Y206247D01*
X23333456Y206247D02*
G01*
X23371809Y146304D01*
X23491698Y260857D02*
G01*
X23491698Y146304D01*
X23491698Y146304D02*
G01*
X23557229Y146304D01*
X23593043Y260857D02*
G01*
X23593043Y146304D01*
X23593043Y260857D02*
G01*
X23664163Y260857D01*
X23593043Y206247D02*
G01*
X23636731Y206247D01*
X23593043Y146304D02*
G01*
X23664163Y146304D01*
X23699977Y260857D02*
G01*
X23699977Y146304D01*
X23699977Y260857D02*
G01*
X23738331Y260857D01*
X23754588Y255270D01*
X23765509Y244347D01*
X23771098Y233426D01*
X23776431Y217170D01*
X23776431Y189992D01*
X23771098Y173481D01*
X23765509Y162560D01*
X23754588Y151637D01*
X23738331Y146304D01*
X23699977Y146304D01*
X23972774Y244347D02*
G01*
X23961852Y255270D01*
X23945595Y260857D01*
X23923752Y260857D01*
X23907241Y255270D01*
X23896320Y244347D01*
X23896320Y233426D01*
X23901908Y222504D01*
X23907241Y217170D01*
X23918163Y211581D01*
X23950929Y200913D01*
X23961852Y195326D01*
X23967440Y189992D01*
X23972774Y179070D01*
X23972774Y162560D01*
X23961852Y151637D01*
X23945595Y146304D01*
X23923752Y146304D01*
X23907241Y151637D01*
X23896320Y162560D01*
X24008841Y260857D02*
G01*
X24008841Y146304D01*
X24008841Y260857D02*
G01*
X24057863Y260857D01*
X24074374Y255270D01*
X24079708Y249936D01*
X24085041Y239013D01*
X24085041Y222504D01*
X24079708Y211581D01*
X24074374Y206247D01*
X24057863Y200913D01*
X24008841Y200913D01*
X24164798Y260857D02*
G01*
X24121109Y146304D01*
X24164798Y260857D02*
G01*
X24208486Y146304D01*
X24137620Y184404D02*
G01*
X24191975Y184404D01*
X24326341Y233426D02*
G01*
X24320754Y244347D01*
X24309831Y255270D01*
X24298909Y260857D01*
X24277066Y260857D01*
X24266143Y255270D01*
X24255222Y244347D01*
X24249888Y233426D01*
X24244554Y217170D01*
X24244554Y189992D01*
X24249888Y173481D01*
X24255222Y162560D01*
X24266143Y151637D01*
X24277066Y146304D01*
X24298909Y146304D01*
X24309831Y151637D01*
X24320754Y162560D01*
X24326341Y173481D01*
X24362156Y260857D02*
G01*
X24362156Y146304D01*
X24362156Y260857D02*
G01*
X24433275Y260857D01*
X24362156Y206247D02*
G01*
X24405843Y206247D01*
X24362156Y146304D02*
G01*
X24433275Y146304D01*
X24469090Y260857D02*
G01*
X24469090Y146304D01*
X24469090Y260857D02*
G01*
X24518366Y260857D01*
X24534622Y255270D01*
X24539956Y249936D01*
X24545543Y239013D01*
X24545543Y228092D01*
X24539956Y217170D01*
X24534622Y211581D01*
X24518366Y206247D01*
X24469090Y206247D01*
X24507443Y206247D02*
G01*
X24545543Y146304D01*
X24581611Y195326D02*
G01*
X24679656Y195326D01*
X24837898Y260857D02*
G01*
X24837898Y146304D01*
X24799798Y260857D02*
G01*
X24875998Y260857D01*
X24944831Y260857D02*
G01*
X24933909Y255270D01*
X24922988Y244347D01*
X24917654Y233426D01*
X24912066Y217170D01*
X24912066Y189992D01*
X24917654Y173481D01*
X24922988Y162560D01*
X24933909Y151637D01*
X24944831Y146304D01*
X24966675Y146304D01*
X24977598Y151637D01*
X24988520Y162560D01*
X24993854Y173481D01*
X24999441Y189992D01*
X24999441Y217170D01*
X24993854Y233426D01*
X24988520Y244347D01*
X24977598Y255270D01*
X24966675Y260857D01*
X24944831Y260857D01*
X25035256Y260857D02*
G01*
X25035256Y146304D01*
X25035256Y260857D02*
G01*
X25084531Y260857D01*
X25100788Y255270D01*
X25106375Y249936D01*
X25111709Y239013D01*
X25111709Y222504D01*
X25106375Y211581D01*
X25100788Y206247D01*
X25084531Y200913D01*
X25035256Y200913D01*
X21932900Y464057D02*
G01*
X21932900Y349504D01*
X21932900Y464057D02*
G01*
X21981922Y464057D01*
X21998431Y458470D01*
X22003766Y453136D01*
X22009354Y442213D01*
X22009354Y425704D01*
X22003766Y414781D01*
X21998431Y409447D01*
X21981922Y404113D01*
X21932900Y404113D01*
X22088856Y464057D02*
G01*
X22045168Y349504D01*
X22088856Y464057D02*
G01*
X22132543Y349504D01*
X22061677Y387604D02*
G01*
X22116288Y387604D01*
X22168611Y464057D02*
G01*
X22168611Y349504D01*
X22168611Y464057D02*
G01*
X22217634Y464057D01*
X22233890Y458470D01*
X22239477Y453136D01*
X22244811Y442213D01*
X22244811Y431292D01*
X22239477Y420370D01*
X22233890Y414781D01*
X22217634Y409447D01*
X22168611Y409447D01*
X22206711Y409447D02*
G01*
X22244811Y349504D01*
X22318979Y464057D02*
G01*
X22318979Y349504D01*
X22280879Y464057D02*
G01*
X22357334Y464057D01*
X22477222Y464057D02*
G01*
X22477222Y349504D01*
X22477222Y464057D02*
G01*
X22553675Y349504D01*
X22553675Y464057D02*
G01*
X22553675Y349504D01*
X22589743Y464057D02*
G01*
X22589743Y382270D01*
X22595077Y365760D01*
X22606000Y354837D01*
X22622256Y349504D01*
X22633177Y349504D01*
X22649688Y354837D01*
X22660609Y365760D01*
X22665943Y382270D01*
X22665943Y464057D01*
X22702011Y464057D02*
G01*
X22702011Y349504D01*
X22702011Y464057D02*
G01*
X22745700Y349504D01*
X22789388Y464057D02*
G01*
X22745700Y349504D01*
X22789388Y464057D02*
G01*
X22789388Y349504D01*
X22825202Y464057D02*
G01*
X22825202Y349504D01*
X22825202Y464057D02*
G01*
X22874477Y464057D01*
X22890734Y458470D01*
X22896068Y453136D01*
X22901656Y442213D01*
X22901656Y431292D01*
X22896068Y420370D01*
X22890734Y414781D01*
X22874477Y409447D01*
X22825202Y409447D02*
G01*
X22874477Y409447D01*
X22890734Y404113D01*
X22896068Y398526D01*
X22901656Y387604D01*
X22901656Y371347D01*
X22896068Y360426D01*
X22890734Y354837D01*
X22874477Y349504D01*
X22825202Y349504D01*
X22937724Y464057D02*
G01*
X22937724Y349504D01*
X22937724Y464057D02*
G01*
X23008590Y464057D01*
X22937724Y409447D02*
G01*
X22981158Y409447D01*
X22937724Y349504D02*
G01*
X23008590Y349504D01*
X23044658Y464057D02*
G01*
X23044658Y349504D01*
X23044658Y464057D02*
G01*
X23093679Y464057D01*
X23109936Y458470D01*
X23115524Y453136D01*
X23120858Y442213D01*
X23120858Y431292D01*
X23115524Y420370D01*
X23109936Y414781D01*
X23093679Y409447D01*
X23044658Y409447D01*
X23082758Y409447D02*
G01*
X23120858Y349504D01*
X23241000Y442213D02*
G01*
X23251922Y447547D01*
X23268177Y464057D01*
X23268177Y349504D01*
X23331424Y464057D02*
G01*
X23315168Y458470D01*
X23309579Y447547D01*
X23309579Y436626D01*
X23315168Y425704D01*
X23326090Y420370D01*
X23347679Y414781D01*
X23364190Y409447D01*
X23375111Y398526D01*
X23380445Y387604D01*
X23380445Y371347D01*
X23375111Y360426D01*
X23369524Y354837D01*
X23353268Y349504D01*
X23331424Y349504D01*
X23315168Y354837D01*
X23309579Y360426D01*
X23304245Y371347D01*
X23304245Y387604D01*
X23309579Y398526D01*
X23320502Y409447D01*
X23337011Y414781D01*
X23358602Y420370D01*
X23369524Y425704D01*
X23375111Y436626D01*
X23375111Y447547D01*
X23369524Y458470D01*
X23353268Y464057D01*
X23331424Y464057D01*
X23482045Y464057D02*
G01*
X23427436Y464057D01*
X23422102Y414781D01*
X23427436Y420370D01*
X23443691Y425704D01*
X23460202Y425704D01*
X23476458Y420370D01*
X23487379Y409447D01*
X23492968Y393192D01*
X23492968Y382270D01*
X23487379Y365760D01*
X23476458Y354837D01*
X23460202Y349504D01*
X23443691Y349504D01*
X23427436Y354837D01*
X23422102Y360426D01*
X23416513Y371347D01*
X23561548Y464057D02*
G01*
X23545291Y458470D01*
X23534370Y442213D01*
X23528781Y414781D01*
X23528781Y398526D01*
X23534370Y371347D01*
X23545291Y354837D01*
X23561548Y349504D01*
X23572470Y349504D01*
X23588979Y354837D01*
X23599902Y371347D01*
X23605236Y398526D01*
X23605236Y414781D01*
X23599902Y442213D01*
X23588979Y458470D01*
X23572470Y464057D01*
X23561548Y464057D01*
X23641304Y398526D02*
G01*
X23739348Y398526D01*
X23808181Y464057D02*
G01*
X23791925Y458470D01*
X23781004Y442213D01*
X23775416Y414781D01*
X23775416Y398526D01*
X23781004Y371347D01*
X23791925Y354837D01*
X23808181Y349504D01*
X23819104Y349504D01*
X23835359Y354837D01*
X23846281Y371347D01*
X23851870Y398526D01*
X23851870Y414781D01*
X23846281Y442213D01*
X23835359Y458470D01*
X23819104Y464057D01*
X23808181Y464057D01*
X23893272Y436626D02*
G01*
X23893272Y442213D01*
X23898606Y453136D01*
X23904193Y458470D01*
X23915116Y464057D01*
X23936959Y464057D01*
X23947881Y458470D01*
X23953216Y453136D01*
X23958804Y442213D01*
X23958804Y431292D01*
X23953216Y420370D01*
X23942293Y404113D01*
X23887684Y349504D01*
X23964138Y349504D01*
X24032972Y464057D02*
G01*
X24016461Y458470D01*
X24005540Y442213D01*
X24000206Y414781D01*
X24000206Y398526D01*
X24005540Y371347D01*
X24016461Y354837D01*
X24032972Y349504D01*
X24043893Y349504D01*
X24060150Y354837D01*
X24071072Y371347D01*
X24076406Y398526D01*
X24076406Y414781D01*
X24071072Y442213D01*
X24060150Y458470D01*
X24043893Y464057D01*
X24032972Y464057D01*
X24123395Y464057D02*
G01*
X24183340Y464057D01*
X24150827Y420370D01*
X24167084Y420370D01*
X24178006Y414781D01*
X24183340Y409447D01*
X24188927Y393192D01*
X24188927Y382270D01*
X24183340Y365760D01*
X24172418Y354837D01*
X24156161Y349504D01*
X24139906Y349504D01*
X24123395Y354837D01*
X24118061Y360426D01*
X24112474Y371347D01*
X24308816Y464057D02*
G01*
X24352504Y349504D01*
X24396191Y464057D02*
G01*
X24352504Y349504D01*
X24464772Y464057D02*
G01*
X24448516Y458470D01*
X24437593Y442213D01*
X24432259Y414781D01*
X24432259Y398526D01*
X24437593Y371347D01*
X24448516Y354837D01*
X24464772Y349504D01*
X24475693Y349504D01*
X24492204Y354837D01*
X24503125Y371347D01*
X24508459Y398526D01*
X24508459Y414781D01*
X24503125Y442213D01*
X24492204Y458470D01*
X24475693Y464057D01*
X24464772Y464057D01*
X24549861Y376681D02*
G01*
X24544527Y371347D01*
X24549861Y365760D01*
X24555450Y371347D01*
X24549861Y376681D01*
X24591518Y442213D02*
G01*
X24602440Y447547D01*
X24618695Y464057D01*
X24618695Y349504D01*
D11*
X17747995Y13115315D02*
G01*
X21049995Y13115315D01*
X21303995Y12861315D01*
X21303995Y8543315D01*
X21049995Y8289315D01*
X17747995Y8289312D01*
X17493995Y8543312D01*
X17493995Y12861315D01*
X17747995Y13115315D01*
X2375204Y13115315D02*
G01*
X5677204Y13115315D01*
X5931204Y12861315D01*
X5931204Y8543315D01*
X5677204Y8289315D01*
X2375204Y8289312D01*
X2121204Y8543312D01*
X2121204Y12861315D01*
X2375204Y13115315D01*
X40806903Y4864100D02*
G01*
X44108903Y4864100D01*
X44362903Y4610100D01*
X44362903Y292100D01*
X44108903Y38100D01*
X40806903Y38097D01*
X40552903Y292097D01*
X40552903Y4610100D01*
X40806903Y4864100D01*
X2374900Y4864100D02*
G01*
X5676900Y4864100D01*
X5930900Y4610100D01*
X5930900Y292100D01*
X5676900Y38100D01*
X2374900Y38097D01*
X2120900Y292097D01*
X2120900Y4610100D01*
X2374900Y4864100D01*
X40807208Y13115315D02*
G01*
X44109208Y13115315D01*
X44363208Y12861315D01*
X44363208Y8543315D01*
X44109208Y8289315D01*
X40807208Y8289312D01*
X40553208Y8543312D01*
X40553208Y12861315D01*
X40807208Y13115315D01*
X36964010Y13115315D02*
G01*
X40266010Y13115315D01*
X40520010Y12861315D01*
X40520010Y8543315D01*
X40266010Y8289315D01*
X36964010Y8289312D01*
X36710010Y8543312D01*
X36710010Y12861315D01*
X36964010Y13115315D01*
X33120812Y13115315D02*
G01*
X36422812Y13115315D01*
X36676812Y12861315D01*
X36676812Y8543315D01*
X36422812Y8289315D01*
X33120812Y8289312D01*
X32866812Y8543312D01*
X32866812Y12861315D01*
X33120812Y13115315D01*
X29277614Y13115315D02*
G01*
X32579614Y13115315D01*
X32833614Y12861315D01*
X32833614Y8543315D01*
X32579614Y8289315D01*
X29277614Y8289312D01*
X29023614Y8543312D01*
X29023614Y12861315D01*
X29277614Y13115315D01*
X25434416Y13115315D02*
G01*
X28736416Y13115315D01*
X28990416Y12861315D01*
X28990416Y8543315D01*
X28736416Y8289315D01*
X25434416Y8289312D01*
X25180416Y8543312D01*
X25180416Y12861315D01*
X25434416Y13115315D01*
X21591219Y13115315D02*
G01*
X24893219Y13115315D01*
X25147219Y12861315D01*
X25147219Y8543315D01*
X24893219Y8289315D01*
X21591219Y8289312D01*
X21337219Y8543312D01*
X21337219Y12861315D01*
X21591219Y13115315D01*
X13904798Y13115315D02*
G01*
X17206798Y13115315D01*
X17460798Y12861315D01*
X17460798Y8543315D01*
X17206798Y8289315D01*
X13904798Y8289312D01*
X13650798Y8543312D01*
X13650798Y12861315D01*
X13904798Y13115315D01*
X10061600Y13115315D02*
G01*
X13363600Y13115315D01*
X13617600Y12861315D01*
X13617600Y8543315D01*
X13363600Y8289315D01*
X10061600Y8289312D01*
X9807600Y8543312D01*
X9807600Y12861315D01*
X10061600Y13115315D01*
X6218402Y13115315D02*
G01*
X9520402Y13115315D01*
X9774402Y12861315D01*
X9774402Y8543315D01*
X9520402Y8289315D01*
X6218402Y8289312D01*
X5964402Y8543312D01*
X5964402Y12861315D01*
X6218402Y13115315D01*
M02*
