G04 Layer: BoardOutlineLayer*
G04 EasyEDA v6.5.34, 2023-08-21 18:11:39*
G04 835a08df8f0749828bc6312cfbdcabc3,5a6b42c53f6a479593ecc07194224c93,10*
G04 Gerber Generator version 0.2*
G04 Scale: 100 percent, Rotated: No, Reflected: No *
G04 Dimensions in millimeters *
G04 leading zeros omitted , absolute positions ,4 integer and 5 decimal *
%FSLAX45Y45*%
%MOMM*%

%ADD10C,0.2540*%
D10*
X0Y13296900D02*
G01*
X48260000Y13296900D01*
X48260000Y0D01*
X0Y-3070D01*
X0Y13296900D01*
G75*
G01*
X711200Y9486900D02*
G02*
X1361597Y9486900I325199J0D01*
G75*
G01*
X1361597Y9486900D02*
G02*
X711200Y9486900I-325198J0D01*
X711200Y9486900D02*
G01*
X711200Y9486900D01*
X579198Y9811893D02*
G01*
X579198Y9161881D01*
X579198Y9161881D02*
G01*
X1036398Y9161881D01*
X1036398Y9161881D02*
G01*
X1036398Y9811893D01*
X1036398Y9811893D02*
G01*
X579198Y9811893D01*
G75*
G01*
X254000Y9486900D02*
G02*
X904397Y9486900I325199J0D01*
G75*
G01*
X904397Y9486900D02*
G02*
X254000Y9486900I-325198J0D01*
X254000Y9486900D02*
G01*
X254000Y9486900D01*
G75*
G01*
X254000Y3810000D02*
G02*
X904397Y3810000I325199J0D01*
G75*
G01*
X904397Y3810000D02*
G02*
X254000Y3810000I-325198J0D01*
X254000Y3810000D02*
G01*
X254000Y3810000D01*
X579198Y4134993D02*
G01*
X579198Y3484981D01*
X579198Y3484981D02*
G01*
X1036398Y3484981D01*
X1036398Y3484981D02*
G01*
X1036398Y4134993D01*
X1036398Y4134993D02*
G01*
X579198Y4134993D01*
G75*
G01*
X711200Y3810000D02*
G02*
X1361597Y3810000I325199J0D01*
G75*
G01*
X1361597Y3810000D02*
G02*
X711200Y3810000I-325198J0D01*
X711200Y3810000D02*
G01*
X711200Y3810000D01*
G75*
G01*
X47365696Y3810000D02*
G02*
X48016094Y3810000I325199J0D01*
G75*
G01*
X48016094Y3810000D02*
G02*
X47365696Y3810000I-325199J0D01*
X47365696Y3810000D02*
G01*
X47365696Y3810000D01*
X47233695Y4134993D02*
G01*
X47233695Y3484981D01*
X47233695Y3484981D02*
G01*
X47690895Y3484981D01*
X47690895Y3484981D02*
G01*
X47690895Y4134993D01*
X47690895Y4134993D02*
G01*
X47233695Y4134993D01*
G75*
G01*
X46908496Y3810000D02*
G02*
X47558894Y3810000I325199J0D01*
G75*
G01*
X47558894Y3810000D02*
G02*
X46908496Y3810000I-325199J0D01*
X46908496Y3810000D02*
G01*
X46908496Y3810000D01*
G75*
G01*
X46908496Y9486900D02*
G02*
X47558894Y9486900I325199J0D01*
G75*
G01*
X47558894Y9486900D02*
G02*
X46908496Y9486900I-325199J0D01*
X46908496Y9486900D02*
G01*
X46908496Y9486900D01*
X47233695Y9811893D02*
G01*
X47233695Y9161881D01*
X47233695Y9161881D02*
G01*
X47690895Y9161881D01*
X47690895Y9161881D02*
G01*
X47690895Y9811893D01*
X47690895Y9811893D02*
G01*
X47233695Y9811893D01*
G75*
G01*
X47365696Y9486900D02*
G02*
X48016094Y9486900I325199J0D01*
G75*
G01*
X48016094Y9486900D02*
G02*
X47365696Y9486900I-325199J0D01*
X47365696Y9486900D02*
G01*
X47365696Y9486900D01*
X4038592Y12699974D02*
G01*
X4038592Y508000D01*
X4038592Y508000D02*
G01*
X44221311Y508000D01*
X44221311Y508000D02*
G01*
X44221311Y12699974D01*
X44221311Y12699974D02*
G01*
X4038592Y12699974D01*

%LPD*%
M02*
