M48
METRIC,LZ,000.000
;FILE_FORMAT=3:3
;TYPE=NON_PLATED
;Layer: NPTH_Through
;EasyEDA v6.5.34, 2023-08-21 18:11:39
;805bfda9492c465482fdd8471da23256,5a6b42c53f6a479593ecc07194224c93,10
;Gerber Generator version 0.2
;Holesize 1 = 2.000 mm
T01C2.000
%
G05
G90
T01
X035452Y128270
X062602Y128270
X035452Y089370
X062602Y089370
X101034Y089370
X073884Y089370
X101034Y128270
X073884Y128270
X139466Y089370
X112316Y089370
X139466Y128270
X112316Y128270
X177898Y089370
X150748Y089370
X177898Y128270
X150748Y128270
X216330Y089370
X189180Y089370
X216330Y128270
X189180Y128270
X254762Y089370
X227612Y089370
X254762Y128270
X227612Y128270
X293194Y089370
X266044Y089370
X293194Y128270
X266044Y128270
X331626Y089370
X304476Y089370
X331626Y128270
X304476Y128270
X370058Y089370
X342908Y089370
X370058Y128270
X342908Y128270
X408490Y089370
X381340Y089370
X408490Y128270
X381340Y128270
X446922Y089370
X419772Y089370
X446922Y128270
X419772Y128270
X062599Y006858
X035449Y006858
X062599Y045758
X035449Y045758
X419769Y045758
X446919Y045758
X419769Y006858
X446919Y006858
X183520Y006858
X106656Y006858
X145088Y006858
X221952Y006858
X260384Y006858
X298816Y006858
X337248Y006858
X375680Y006858
X106656Y045758
X145088Y045758
X183520Y045758
X221952Y045758
X260384Y045758
X298816Y045758
X337248Y045758
X375680Y045758
M30
