G04 Layer: BottomSilkscreenLayer*
G04 EasyEDA v6.5.34, 2023-08-21 18:11:39*
G04 805bfda9492c465482fdd8471da23256,5a6b42c53f6a479593ecc07194224c93,10*
G04 Gerber Generator version 0.2*
G04 Scale: 100 percent, Rotated: No, Reflected: No *
G04 Dimensions in millimeters *
G04 leading zeros omitted , absolute positions ,4 integer and 5 decimal *
%FSLAX45Y45*%
%MOMM*%

%ADD10C,0.2032*%
%ADD11C,0.1520*%
%ADD12C,0.2540*%

%LPD*%
D10*
X40872308Y197289D02*
G01*
X40872308Y82745D01*
X40872308Y197289D02*
G01*
X40823217Y197289D01*
X40806855Y191836D01*
X40801399Y186382D01*
X40795945Y175473D01*
X40795945Y159108D01*
X40801399Y148199D01*
X40806855Y142745D01*
X40823217Y137289D01*
X40872308Y137289D01*
X40716308Y197289D02*
G01*
X40759943Y82745D01*
X40716308Y197289D02*
G01*
X40672672Y82745D01*
X40743581Y120926D02*
G01*
X40689037Y120926D01*
X40636672Y197289D02*
G01*
X40636672Y82745D01*
X40636672Y197289D02*
G01*
X40587582Y197289D01*
X40571219Y191836D01*
X40565763Y186382D01*
X40560309Y175473D01*
X40560309Y164564D01*
X40565763Y153654D01*
X40571219Y148199D01*
X40587582Y142745D01*
X40636672Y142745D01*
X40598491Y142745D02*
G01*
X40560309Y82745D01*
X40486126Y197289D02*
G01*
X40486126Y82745D01*
X40524309Y197289D02*
G01*
X40447945Y197289D01*
X40327945Y197289D02*
G01*
X40327945Y82745D01*
X40327945Y197289D02*
G01*
X40251583Y82745D01*
X40251583Y197289D02*
G01*
X40251583Y82745D01*
X40215581Y197289D02*
G01*
X40215581Y115473D01*
X40210127Y99108D01*
X40199218Y88199D01*
X40182855Y82745D01*
X40171946Y82745D01*
X40155581Y88199D01*
X40144674Y99108D01*
X40139218Y115473D01*
X40139218Y197289D01*
X40103219Y197289D02*
G01*
X40103219Y82745D01*
X40103219Y197289D02*
G01*
X40059582Y82745D01*
X40015947Y197289D02*
G01*
X40059582Y82745D01*
X40015947Y197289D02*
G01*
X40015947Y82745D01*
X39979945Y197289D02*
G01*
X39979945Y82745D01*
X39979945Y197289D02*
G01*
X39930854Y197289D01*
X39914492Y191836D01*
X39909038Y186382D01*
X39903582Y175473D01*
X39903582Y164564D01*
X39909038Y153654D01*
X39914492Y148199D01*
X39930854Y142745D01*
X39979945Y142745D02*
G01*
X39930854Y142745D01*
X39914492Y137289D01*
X39909038Y131836D01*
X39903582Y120926D01*
X39903582Y104564D01*
X39909038Y93654D01*
X39914492Y88199D01*
X39930854Y82745D01*
X39979945Y82745D01*
X39867583Y197289D02*
G01*
X39867583Y82745D01*
X39867583Y197289D02*
G01*
X39796674Y197289D01*
X39867583Y142745D02*
G01*
X39823946Y142745D01*
X39867583Y82745D02*
G01*
X39796674Y82745D01*
X39760674Y197289D02*
G01*
X39760674Y82745D01*
X39760674Y197289D02*
G01*
X39711584Y197289D01*
X39695219Y191836D01*
X39689765Y186382D01*
X39684309Y175473D01*
X39684309Y164564D01*
X39689765Y153654D01*
X39695219Y148199D01*
X39711584Y142745D01*
X39760674Y142745D01*
X39722493Y142745D02*
G01*
X39684309Y82745D01*
X39564309Y175473D02*
G01*
X39553400Y180926D01*
X39537038Y197289D01*
X39537038Y82745D01*
X39473766Y197289D02*
G01*
X39490129Y191836D01*
X39495582Y180926D01*
X39495582Y170017D01*
X39490129Y159108D01*
X39479220Y153654D01*
X39457401Y148199D01*
X39441038Y142745D01*
X39430129Y131836D01*
X39424676Y120926D01*
X39424676Y104564D01*
X39430129Y93654D01*
X39435582Y88199D01*
X39451948Y82745D01*
X39473766Y82745D01*
X39490129Y88199D01*
X39495582Y93654D01*
X39501038Y104564D01*
X39501038Y120926D01*
X39495582Y131836D01*
X39484675Y142745D01*
X39468310Y148199D01*
X39446492Y153654D01*
X39435582Y159108D01*
X39430129Y170017D01*
X39430129Y180926D01*
X39435582Y191836D01*
X39451948Y197289D01*
X39473766Y197289D01*
X39323220Y197289D02*
G01*
X39377764Y197289D01*
X39383220Y148199D01*
X39377764Y153654D01*
X39361402Y159108D01*
X39345039Y159108D01*
X39328674Y153654D01*
X39317764Y142745D01*
X39312311Y126382D01*
X39312311Y115473D01*
X39317764Y99108D01*
X39328674Y88199D01*
X39345039Y82745D01*
X39361402Y82745D01*
X39377764Y88199D01*
X39383220Y93654D01*
X39388674Y104564D01*
X39270856Y170017D02*
G01*
X39270856Y175473D01*
X39265402Y186382D01*
X39259946Y191836D01*
X39249040Y197289D01*
X39227221Y197289D01*
X39216312Y191836D01*
X39210856Y186382D01*
X39205402Y175473D01*
X39205402Y164564D01*
X39210856Y153654D01*
X39221765Y137289D01*
X39276312Y82745D01*
X39199947Y82745D01*
X39163947Y131836D02*
G01*
X39065766Y131836D01*
X38997039Y197289D02*
G01*
X39013401Y191836D01*
X39024311Y175473D01*
X39029766Y148199D01*
X39029766Y131836D01*
X39024311Y104564D01*
X39013401Y88199D01*
X38997039Y82745D01*
X38986129Y82745D01*
X38969767Y88199D01*
X38958857Y104564D01*
X38953401Y131836D01*
X38953401Y148199D01*
X38958857Y175473D01*
X38969767Y191836D01*
X38986129Y197289D01*
X38997039Y197289D01*
X38917402Y175473D02*
G01*
X38906493Y180926D01*
X38890130Y197289D01*
X38890130Y82745D01*
X38821403Y197289D02*
G01*
X38837765Y191836D01*
X38848675Y175473D01*
X38854131Y148199D01*
X38854131Y131836D01*
X38848675Y104564D01*
X38837765Y88199D01*
X38821403Y82745D01*
X38810493Y82745D01*
X38794131Y88199D01*
X38783221Y104564D01*
X38777765Y131836D01*
X38777765Y148199D01*
X38783221Y175473D01*
X38794131Y191836D01*
X38810493Y197289D01*
X38821403Y197289D01*
X38741766Y175473D02*
G01*
X38730857Y180926D01*
X38714494Y197289D01*
X38714494Y82745D01*
X38594494Y197289D02*
G01*
X38550857Y82745D01*
X38507222Y197289D02*
G01*
X38550857Y82745D01*
X38438495Y197289D02*
G01*
X38454858Y191836D01*
X38465767Y175473D01*
X38471223Y148199D01*
X38471223Y131836D01*
X38465767Y104564D01*
X38454858Y88199D01*
X38438495Y82745D01*
X38427586Y82745D01*
X38411223Y88199D01*
X38400314Y104564D01*
X38394858Y131836D01*
X38394858Y148199D01*
X38400314Y175473D01*
X38411223Y191836D01*
X38427586Y197289D01*
X38438495Y197289D01*
X38353403Y110017D02*
G01*
X38358859Y104564D01*
X38353403Y99108D01*
X38347949Y104564D01*
X38353403Y110017D01*
X38306494Y170017D02*
G01*
X38306494Y175473D01*
X38301041Y186382D01*
X38295585Y191836D01*
X38284678Y197289D01*
X38262859Y197289D01*
X38251950Y191836D01*
X38246494Y186382D01*
X38241041Y175473D01*
X38241041Y164564D01*
X38246494Y153654D01*
X38257403Y137289D01*
X38311950Y82745D01*
X38235585Y82745D01*
X40834127Y400489D02*
G01*
X40834127Y285945D01*
X40872308Y400489D02*
G01*
X40795945Y400489D01*
X40759943Y400489D02*
G01*
X40759943Y285945D01*
X40759943Y400489D02*
G01*
X40710853Y400489D01*
X40694490Y395036D01*
X40689037Y389582D01*
X40683581Y378673D01*
X40683581Y367764D01*
X40689037Y356854D01*
X40694490Y351399D01*
X40710853Y345945D01*
X40759943Y345945D01*
X40721762Y345945D02*
G01*
X40683581Y285945D01*
X40603944Y400489D02*
G01*
X40647581Y285945D01*
X40603944Y400489D02*
G01*
X40560310Y285945D01*
X40631219Y324126D02*
G01*
X40576672Y324126D01*
X40524309Y400489D02*
G01*
X40524309Y285945D01*
X40524309Y400489D02*
G01*
X40447945Y285945D01*
X40447945Y400489D02*
G01*
X40447945Y285945D01*
X40335581Y384126D02*
G01*
X40346490Y395036D01*
X40362855Y400489D01*
X40384674Y400489D01*
X40401036Y395036D01*
X40411946Y384126D01*
X40411946Y373217D01*
X40406490Y362308D01*
X40401036Y356854D01*
X40390127Y351399D01*
X40357399Y340489D01*
X40346490Y335036D01*
X40341036Y329582D01*
X40335581Y318673D01*
X40335581Y302308D01*
X40346490Y291399D01*
X40362855Y285945D01*
X40384674Y285945D01*
X40401036Y291399D01*
X40411946Y302308D01*
X40299581Y400489D02*
G01*
X40299581Y285945D01*
X40299581Y400489D02*
G01*
X40255946Y285945D01*
X40212309Y400489D02*
G01*
X40255946Y285945D01*
X40212309Y400489D02*
G01*
X40212309Y285945D01*
X40176309Y400489D02*
G01*
X40176309Y285945D01*
X40063945Y384126D02*
G01*
X40074855Y395036D01*
X40091220Y400489D01*
X40113036Y400489D01*
X40129401Y395036D01*
X40140310Y384126D01*
X40140310Y373217D01*
X40134854Y362308D01*
X40129401Y356854D01*
X40118492Y351399D01*
X40085764Y340489D01*
X40074855Y335036D01*
X40069401Y329582D01*
X40063945Y318673D01*
X40063945Y302308D01*
X40074855Y291399D01*
X40091220Y285945D01*
X40113036Y285945D01*
X40129401Y291399D01*
X40140310Y302308D01*
X39951583Y384126D02*
G01*
X39962493Y395036D01*
X39978855Y400489D01*
X40000674Y400489D01*
X40017037Y395036D01*
X40027946Y384126D01*
X40027946Y373217D01*
X40022492Y362308D01*
X40017037Y356854D01*
X40006127Y351399D01*
X39973399Y340489D01*
X39962493Y335036D01*
X39957037Y329582D01*
X39951583Y318673D01*
X39951583Y302308D01*
X39962493Y291399D01*
X39978855Y285945D01*
X40000674Y285945D01*
X40017037Y291399D01*
X40027946Y302308D01*
X39915581Y400489D02*
G01*
X39915581Y285945D01*
X39846857Y400489D02*
G01*
X39857763Y395036D01*
X39868673Y384126D01*
X39874129Y373217D01*
X39879582Y356854D01*
X39879582Y329582D01*
X39874129Y313217D01*
X39868673Y302308D01*
X39857763Y291399D01*
X39846857Y285945D01*
X39825038Y285945D01*
X39814129Y291399D01*
X39803219Y302308D01*
X39797763Y313217D01*
X39792310Y329582D01*
X39792310Y356854D01*
X39797763Y373217D01*
X39803219Y384126D01*
X39814129Y395036D01*
X39825038Y400489D01*
X39846857Y400489D01*
X39756311Y400489D02*
G01*
X39756311Y285945D01*
X39756311Y400489D02*
G01*
X39679946Y285945D01*
X39679946Y400489D02*
G01*
X39679946Y285945D01*
X39559946Y400489D02*
G01*
X39559946Y285945D01*
X39559946Y285945D02*
G01*
X39494493Y285945D01*
X39458493Y400489D02*
G01*
X39458493Y285945D01*
X39422494Y400489D02*
G01*
X39422494Y285945D01*
X39422494Y400489D02*
G01*
X39346129Y285945D01*
X39346129Y400489D02*
G01*
X39346129Y285945D01*
X39310129Y400489D02*
G01*
X39310129Y285945D01*
X39310129Y400489D02*
G01*
X39239220Y400489D01*
X39310129Y345945D02*
G01*
X39266492Y345945D01*
X39310129Y285945D02*
G01*
X39239220Y285945D01*
X39119220Y400489D02*
G01*
X39119220Y285945D01*
X39119220Y400489D02*
G01*
X39048311Y400489D01*
X39119220Y345945D02*
G01*
X39075583Y345945D01*
X39012312Y400489D02*
G01*
X39012312Y285945D01*
X39012312Y400489D02*
G01*
X38963221Y400489D01*
X38946858Y395036D01*
X38941402Y389582D01*
X38935949Y378673D01*
X38935949Y367764D01*
X38941402Y356854D01*
X38946858Y351399D01*
X38963221Y345945D01*
X39012312Y345945D01*
X38974130Y345945D02*
G01*
X38935949Y285945D01*
X38867222Y400489D02*
G01*
X38878131Y395036D01*
X38889040Y384126D01*
X38894494Y373217D01*
X38899947Y356854D01*
X38899947Y329582D01*
X38894494Y313217D01*
X38889040Y302308D01*
X38878131Y291399D01*
X38867222Y285945D01*
X38845403Y285945D01*
X38834494Y291399D01*
X38823585Y302308D01*
X38818131Y313217D01*
X38812675Y329582D01*
X38812675Y356854D01*
X38818131Y373217D01*
X38823585Y384126D01*
X38834494Y395036D01*
X38845403Y400489D01*
X38867222Y400489D01*
X38776676Y400489D02*
G01*
X38776676Y285945D01*
X38776676Y400489D02*
G01*
X38700313Y285945D01*
X38700313Y400489D02*
G01*
X38700313Y285945D01*
X38626130Y400489D02*
G01*
X38626130Y285945D01*
X38664311Y400489D02*
G01*
X38587949Y400489D01*
X38467949Y400489D02*
G01*
X38467949Y285945D01*
X38467949Y400489D02*
G01*
X38418858Y400489D01*
X38402496Y395036D01*
X38397040Y389582D01*
X38391586Y378673D01*
X38391586Y362308D01*
X38397040Y351399D01*
X38402496Y345945D01*
X38418858Y340489D01*
X38467949Y340489D01*
X38311950Y400489D02*
G01*
X38355584Y285945D01*
X38311950Y400489D02*
G01*
X38268313Y285945D01*
X38339222Y324126D02*
G01*
X38284678Y324126D01*
X38232313Y400489D02*
G01*
X38232313Y285945D01*
X38232313Y400489D02*
G01*
X38155951Y285945D01*
X38155951Y400489D02*
G01*
X38155951Y285945D01*
X38119949Y400489D02*
G01*
X38119949Y285945D01*
X38119949Y400489D02*
G01*
X38049042Y400489D01*
X38119949Y345945D02*
G01*
X38076314Y345945D01*
X38119949Y285945D02*
G01*
X38049042Y285945D01*
X38013040Y400489D02*
G01*
X38013040Y285945D01*
X38013040Y285945D02*
G01*
X37947587Y285945D01*
D11*
X47974143Y191551D02*
G01*
X47974143Y108424D01*
X47979340Y92837D01*
X47984534Y87642D01*
X47994925Y82448D01*
X48005316Y82448D01*
X48015707Y87642D01*
X48020904Y92837D01*
X48026099Y108424D01*
X48026099Y118816D01*
X47939853Y191551D02*
G01*
X47939853Y82448D01*
X47939853Y82448D02*
G01*
X47877509Y82448D01*
X47765286Y165574D02*
G01*
X47770483Y175966D01*
X47780874Y186357D01*
X47791263Y191551D01*
X47812045Y191551D01*
X47822436Y186357D01*
X47832827Y175966D01*
X47838024Y165574D01*
X47843219Y149987D01*
X47843219Y124010D01*
X47838024Y108424D01*
X47832827Y98033D01*
X47822436Y87642D01*
X47812045Y82448D01*
X47791263Y82448D01*
X47780874Y87642D01*
X47770483Y98033D01*
X47765286Y108424D01*
X47679043Y191551D02*
G01*
X47679043Y108424D01*
X47684237Y92837D01*
X47689434Y87642D01*
X47699823Y82448D01*
X47710214Y82448D01*
X47720605Y87642D01*
X47725802Y92837D01*
X47730996Y108424D01*
X47730996Y118816D01*
X47644753Y191551D02*
G01*
X47644753Y82448D01*
X47644753Y82448D02*
G01*
X47582406Y82448D01*
X47470184Y165574D02*
G01*
X47475381Y175966D01*
X47485772Y186357D01*
X47496163Y191551D01*
X47516943Y191551D01*
X47527334Y186357D01*
X47537725Y175966D01*
X47542922Y165574D01*
X47548116Y149987D01*
X47548116Y124010D01*
X47542922Y108424D01*
X47537725Y98033D01*
X47527334Y87642D01*
X47516943Y82448D01*
X47496163Y82448D01*
X47485772Y87642D01*
X47475381Y98033D01*
X47470184Y108424D01*
X47383941Y191551D02*
G01*
X47383941Y108424D01*
X47389135Y92837D01*
X47394332Y87642D01*
X47404723Y82448D01*
X47415114Y82448D01*
X47425503Y87642D01*
X47430700Y92837D01*
X47435894Y108424D01*
X47435894Y118816D01*
X47349651Y191551D02*
G01*
X47349651Y82448D01*
X47349651Y82448D02*
G01*
X47287304Y82448D01*
X47175084Y165574D02*
G01*
X47180279Y175966D01*
X47190670Y186357D01*
X47201061Y191551D01*
X47221843Y191551D01*
X47232234Y186357D01*
X47242623Y175966D01*
X47247820Y165574D01*
X47253014Y149987D01*
X47253014Y124010D01*
X47247820Y108424D01*
X47242623Y98033D01*
X47232234Y87642D01*
X47221843Y82448D01*
X47201061Y82448D01*
X47190670Y87642D01*
X47180279Y98033D01*
X47175084Y108424D01*
X47088839Y191551D02*
G01*
X47088839Y108424D01*
X47094033Y92837D01*
X47099230Y87642D01*
X47109621Y82448D01*
X47120012Y82448D01*
X47130403Y87642D01*
X47135597Y92837D01*
X47140794Y108424D01*
X47140794Y118816D01*
X47054549Y191551D02*
G01*
X47054549Y82448D01*
X47054549Y82448D02*
G01*
X46992204Y82448D01*
X46879982Y165574D02*
G01*
X46885176Y175966D01*
X46895567Y186357D01*
X46905959Y191551D01*
X46926741Y191551D01*
X46937132Y186357D01*
X46947523Y175966D01*
X46952717Y165574D01*
X46957914Y149987D01*
X46957914Y124010D01*
X46952717Y108424D01*
X46947523Y98033D01*
X46937132Y87642D01*
X46926741Y82448D01*
X46905959Y82448D01*
X46895567Y87642D01*
X46885176Y98033D01*
X46879982Y108424D01*
D12*
X30157610Y13115317D02*
G01*
X33459610Y13115317D01*
X33713610Y12861317D01*
X33713610Y8543317D01*
X33459610Y8289317D01*
X30157610Y8289317D01*
X29903610Y8543317D01*
X29903610Y12861317D01*
X30157610Y13115317D01*
X26314412Y13115317D02*
G01*
X29616412Y13115317D01*
X29870412Y12861317D01*
X29870412Y8543317D01*
X29616412Y8289317D01*
X26314412Y8289317D01*
X26060412Y8543317D01*
X26060412Y12861317D01*
X26314412Y13115317D01*
X18627991Y13115317D02*
G01*
X21929991Y13115317D01*
X22183991Y12861317D01*
X22183991Y8543317D01*
X21929991Y8289317D01*
X18627991Y8289317D01*
X18373991Y8543317D01*
X18373991Y12861317D01*
X18627991Y13115317D01*
X14784793Y13115317D02*
G01*
X18086793Y13115317D01*
X18340793Y12861317D01*
X18340793Y8543317D01*
X18086793Y8289317D01*
X14784793Y8289317D01*
X14530793Y8543317D01*
X14530793Y12861317D01*
X14784793Y13115317D01*
X10941596Y13115317D02*
G01*
X14243596Y13115317D01*
X14497596Y12861317D01*
X14497596Y8543317D01*
X14243596Y8289317D01*
X10941596Y8289317D01*
X10687596Y8543317D01*
X10687596Y12861317D01*
X10941596Y13115317D01*
X37844003Y13115317D02*
G01*
X41146003Y13115317D01*
X41400003Y12861317D01*
X41400003Y8543317D01*
X41146003Y8289317D01*
X37844003Y8289317D01*
X37590003Y8543317D01*
X37590003Y12861317D01*
X37844003Y13115317D01*
X34000803Y13115317D02*
G01*
X37302803Y13115317D01*
X37556803Y12861317D01*
X37556803Y8543317D01*
X37302803Y8289317D01*
X34000803Y8289317D01*
X33746803Y8543317D01*
X33746803Y12861317D01*
X34000803Y13115317D01*
X22471199Y13115317D02*
G01*
X25773199Y13115317D01*
X26027199Y12861317D01*
X26027199Y8543317D01*
X25773199Y8289317D01*
X22471199Y8289317D01*
X22217199Y8543317D01*
X22217199Y12861317D01*
X22471199Y13115317D01*
X7098393Y13115317D02*
G01*
X10400393Y13115317D01*
X10654393Y12861317D01*
X10654393Y8543317D01*
X10400393Y8289317D01*
X7098393Y8289317D01*
X6844393Y8543317D01*
X6844393Y12861317D01*
X7098393Y13115317D01*
X7149211Y13102615D02*
G01*
X10349204Y13102615D01*
X10349204Y8702624D01*
X7149211Y8702624D01*
X7149211Y13102615D01*
X10992408Y13102615D02*
G01*
X14192402Y13102615D01*
X14192402Y8702624D01*
X10992408Y8702624D01*
X10992408Y13102615D01*
X22522027Y13102615D02*
G01*
X25722021Y13102615D01*
X25722021Y8702624D01*
X22522027Y8702624D01*
X22522027Y13102615D01*
X34051621Y13102615D02*
G01*
X37251614Y13102615D01*
X37251614Y8702624D01*
X34051621Y8702624D01*
X34051621Y13102615D01*
X37894818Y13102615D02*
G01*
X41094812Y13102615D01*
X41094812Y8702624D01*
X37894818Y8702624D01*
X37894818Y13102615D01*
X0Y13299973D02*
G01*
X1799996Y13299973D01*
X1799996Y0D01*
X0Y0D01*
X0Y13299973D01*
X46463991Y13296900D02*
G01*
X48263987Y13296900D01*
X48263987Y-3073D01*
X46463991Y-3073D01*
X46463991Y13296900D01*
X14835606Y13102615D02*
G01*
X18035600Y13102615D01*
X18035600Y8702624D01*
X14835606Y8702624D01*
X14835606Y13102615D01*
X18678804Y13102615D02*
G01*
X21878798Y13102615D01*
X21878798Y8702624D01*
X18678804Y8702624D01*
X18678804Y13102615D01*
X26365225Y13102615D02*
G01*
X29565219Y13102615D01*
X29565219Y8702624D01*
X26365225Y8702624D01*
X26365225Y13102615D01*
X30208423Y13102615D02*
G01*
X33408416Y13102615D01*
X33408416Y8702624D01*
X30208423Y8702624D01*
X30208423Y13102615D01*
M02*
