G04 Layer: BottomSilkscreenLayer*
G04 EasyEDA v6.5.34, 2023-08-21 18:11:39*
G04 cedbefc2bb4b41dc9234c798fc5412df,5a6b42c53f6a479593ecc07194224c93,10*
G04 Gerber Generator version 0.2*
G04 Scale: 100 percent, Rotated: No, Reflected: No *
G04 Dimensions in millimeters *
G04 leading zeros omitted , absolute positions ,4 integer and 5 decimal *
%FSLAX45Y45*%
%MOMM*%

%ADD10C,0.2032*%
%ADD11C,0.1520*%

%LPD*%
D10*
X43967323Y222689D02*
G01*
X43967323Y108145D01*
X43967323Y222689D02*
G01*
X43918233Y222689D01*
X43901870Y217236D01*
X43896414Y211782D01*
X43890961Y200873D01*
X43890961Y184508D01*
X43896414Y173599D01*
X43901870Y168145D01*
X43918233Y162689D01*
X43967323Y162689D01*
X43811324Y222689D02*
G01*
X43854959Y108145D01*
X43811324Y222689D02*
G01*
X43767687Y108145D01*
X43838596Y146326D02*
G01*
X43784052Y146326D01*
X43731688Y222689D02*
G01*
X43731688Y108145D01*
X43731688Y222689D02*
G01*
X43682597Y222689D01*
X43666234Y217236D01*
X43660778Y211782D01*
X43655324Y200873D01*
X43655324Y189964D01*
X43660778Y179054D01*
X43666234Y173599D01*
X43682597Y168145D01*
X43731688Y168145D01*
X43693506Y168145D02*
G01*
X43655324Y108145D01*
X43581142Y222689D02*
G01*
X43581142Y108145D01*
X43619323Y222689D02*
G01*
X43542960Y222689D01*
X43422961Y222689D02*
G01*
X43422961Y108145D01*
X43422961Y222689D02*
G01*
X43346598Y108145D01*
X43346598Y222689D02*
G01*
X43346598Y108145D01*
X43310596Y222689D02*
G01*
X43310596Y140873D01*
X43305143Y124508D01*
X43294233Y113599D01*
X43277871Y108145D01*
X43266961Y108145D01*
X43250596Y113599D01*
X43239690Y124508D01*
X43234234Y140873D01*
X43234234Y222689D01*
X43198234Y222689D02*
G01*
X43198234Y108145D01*
X43198234Y222689D02*
G01*
X43154597Y108145D01*
X43110962Y222689D02*
G01*
X43154597Y108145D01*
X43110962Y222689D02*
G01*
X43110962Y108145D01*
X43074960Y222689D02*
G01*
X43074960Y108145D01*
X43074960Y222689D02*
G01*
X43025870Y222689D01*
X43009507Y217236D01*
X43004054Y211782D01*
X42998598Y200873D01*
X42998598Y189964D01*
X43004054Y179054D01*
X43009507Y173599D01*
X43025870Y168145D01*
X43074960Y168145D02*
G01*
X43025870Y168145D01*
X43009507Y162689D01*
X43004054Y157236D01*
X42998598Y146326D01*
X42998598Y129964D01*
X43004054Y119054D01*
X43009507Y113599D01*
X43025870Y108145D01*
X43074960Y108145D01*
X42962598Y222689D02*
G01*
X42962598Y108145D01*
X42962598Y222689D02*
G01*
X42891689Y222689D01*
X42962598Y168145D02*
G01*
X42918961Y168145D01*
X42962598Y108145D02*
G01*
X42891689Y108145D01*
X42855690Y222689D02*
G01*
X42855690Y108145D01*
X42855690Y222689D02*
G01*
X42806599Y222689D01*
X42790234Y217236D01*
X42784781Y211782D01*
X42779325Y200873D01*
X42779325Y189964D01*
X42784781Y179054D01*
X42790234Y173599D01*
X42806599Y168145D01*
X42855690Y168145D01*
X42817508Y168145D02*
G01*
X42779325Y108145D01*
X42659325Y200873D02*
G01*
X42648416Y206326D01*
X42632053Y222689D01*
X42632053Y108145D01*
X42568782Y222689D02*
G01*
X42585144Y217236D01*
X42590598Y206326D01*
X42590598Y195417D01*
X42585144Y184508D01*
X42574235Y179054D01*
X42552416Y173599D01*
X42536054Y168145D01*
X42525144Y157236D01*
X42519691Y146326D01*
X42519691Y129964D01*
X42525144Y119054D01*
X42530598Y113599D01*
X42546963Y108145D01*
X42568782Y108145D01*
X42585144Y113599D01*
X42590598Y119054D01*
X42596054Y129964D01*
X42596054Y146326D01*
X42590598Y157236D01*
X42579691Y168145D01*
X42563326Y173599D01*
X42541507Y179054D01*
X42530598Y184508D01*
X42525144Y195417D01*
X42525144Y206326D01*
X42530598Y217236D01*
X42546963Y222689D01*
X42568782Y222689D01*
X42407326Y222689D02*
G01*
X42461873Y108145D01*
X42483689Y222689D02*
G01*
X42407326Y222689D01*
X42338599Y222689D02*
G01*
X42354962Y217236D01*
X42365871Y200873D01*
X42371327Y173599D01*
X42371327Y157236D01*
X42365871Y129964D01*
X42354962Y113599D01*
X42338599Y108145D01*
X42327690Y108145D01*
X42311327Y113599D01*
X42300418Y129964D01*
X42294962Y157236D01*
X42294962Y173599D01*
X42300418Y200873D01*
X42311327Y217236D01*
X42327690Y222689D01*
X42338599Y222689D01*
X42258962Y157236D02*
G01*
X42160781Y157236D01*
X42092054Y222689D02*
G01*
X42108417Y217236D01*
X42119326Y200873D01*
X42124782Y173599D01*
X42124782Y157236D01*
X42119326Y129964D01*
X42108417Y113599D01*
X42092054Y108145D01*
X42081145Y108145D01*
X42064782Y113599D01*
X42053873Y129964D01*
X42048417Y157236D01*
X42048417Y173599D01*
X42053873Y200873D01*
X42064782Y217236D01*
X42081145Y222689D01*
X42092054Y222689D01*
X42006964Y195417D02*
G01*
X42006964Y200873D01*
X42001508Y211782D01*
X41996055Y217236D01*
X41985145Y222689D01*
X41963327Y222689D01*
X41952418Y217236D01*
X41946964Y211782D01*
X41941508Y200873D01*
X41941508Y189964D01*
X41946964Y179054D01*
X41957873Y162689D01*
X42012417Y108145D01*
X41936055Y108145D01*
X41867327Y222689D02*
G01*
X41883690Y217236D01*
X41894599Y200873D01*
X41900055Y173599D01*
X41900055Y157236D01*
X41894599Y129964D01*
X41883690Y113599D01*
X41867327Y108145D01*
X41856418Y108145D01*
X41840056Y113599D01*
X41829146Y129964D01*
X41823690Y157236D01*
X41823690Y173599D01*
X41829146Y200873D01*
X41840056Y217236D01*
X41856418Y222689D01*
X41867327Y222689D01*
X41782238Y195417D02*
G01*
X41782238Y200873D01*
X41776782Y211782D01*
X41771328Y217236D01*
X41760419Y222689D01*
X41738600Y222689D01*
X41727691Y217236D01*
X41722238Y211782D01*
X41716782Y200873D01*
X41716782Y189964D01*
X41722238Y179054D01*
X41733147Y162689D01*
X41787691Y108145D01*
X41711328Y108145D01*
X41591329Y222689D02*
G01*
X41547691Y108145D01*
X41504057Y222689D02*
G01*
X41547691Y108145D01*
X41435329Y222689D02*
G01*
X41451692Y217236D01*
X41462601Y200873D01*
X41468055Y173599D01*
X41468055Y157236D01*
X41462601Y129964D01*
X41451692Y113599D01*
X41435329Y108145D01*
X41424420Y108145D01*
X41408055Y113599D01*
X41397146Y129964D01*
X41391692Y157236D01*
X41391692Y173599D01*
X41397146Y200873D01*
X41408055Y217236D01*
X41424420Y222689D01*
X41435329Y222689D01*
X41350237Y135417D02*
G01*
X41355693Y129964D01*
X41350237Y124508D01*
X41344783Y129964D01*
X41350237Y135417D01*
X41308784Y200873D02*
G01*
X41297875Y206326D01*
X41281510Y222689D01*
X41281510Y108145D01*
X43890935Y409526D02*
G01*
X43901845Y420436D01*
X43918207Y425889D01*
X43940026Y425889D01*
X43956389Y420436D01*
X43967298Y409526D01*
X43967298Y398617D01*
X43961845Y387708D01*
X43956389Y382254D01*
X43945479Y376798D01*
X43912751Y365889D01*
X43901845Y360436D01*
X43896389Y354982D01*
X43890935Y344073D01*
X43890935Y327708D01*
X43901845Y316798D01*
X43918207Y311345D01*
X43940026Y311345D01*
X43956389Y316798D01*
X43967298Y327708D01*
X43854933Y425889D02*
G01*
X43854933Y344073D01*
X43849480Y327708D01*
X43838571Y316798D01*
X43822208Y311345D01*
X43811299Y311345D01*
X43794934Y316798D01*
X43784027Y327708D01*
X43778571Y344073D01*
X43778571Y425889D01*
X43742571Y425889D02*
G01*
X43742571Y311345D01*
X43742571Y425889D02*
G01*
X43693481Y425889D01*
X43677116Y420436D01*
X43671662Y414982D01*
X43666209Y404073D01*
X43666209Y393164D01*
X43671662Y382254D01*
X43677116Y376798D01*
X43693481Y371345D01*
X43742571Y371345D02*
G01*
X43693481Y371345D01*
X43677116Y365889D01*
X43671662Y360436D01*
X43666209Y349526D01*
X43666209Y333164D01*
X43671662Y322254D01*
X43677116Y316798D01*
X43693481Y311345D01*
X43742571Y311345D01*
X43553844Y409526D02*
G01*
X43564754Y420436D01*
X43581116Y425889D01*
X43602935Y425889D01*
X43619298Y420436D01*
X43630207Y409526D01*
X43630207Y398617D01*
X43624754Y387708D01*
X43619298Y382254D01*
X43608388Y376798D01*
X43575663Y365889D01*
X43564754Y360436D01*
X43559298Y354982D01*
X43553844Y344073D01*
X43553844Y327708D01*
X43564754Y316798D01*
X43581116Y311345D01*
X43602935Y311345D01*
X43619298Y316798D01*
X43630207Y327708D01*
X43479664Y425889D02*
G01*
X43479664Y311345D01*
X43517845Y425889D02*
G01*
X43441480Y425889D01*
X43361846Y425889D02*
G01*
X43405480Y311345D01*
X43361846Y425889D02*
G01*
X43318209Y311345D01*
X43389118Y349526D02*
G01*
X43334571Y349526D01*
X43244028Y425889D02*
G01*
X43244028Y311345D01*
X43282209Y425889D02*
G01*
X43205844Y425889D01*
X43169845Y425889D02*
G01*
X43169845Y311345D01*
X43101117Y425889D02*
G01*
X43112027Y420436D01*
X43122936Y409526D01*
X43128389Y398617D01*
X43133845Y382254D01*
X43133845Y354982D01*
X43128389Y338617D01*
X43122936Y327708D01*
X43112027Y316798D01*
X43101117Y311345D01*
X43079299Y311345D01*
X43068389Y316798D01*
X43057483Y327708D01*
X43052027Y338617D01*
X43046573Y354982D01*
X43046573Y382254D01*
X43052027Y398617D01*
X43057483Y409526D01*
X43068389Y420436D01*
X43079299Y425889D01*
X43101117Y425889D01*
X43010571Y425889D02*
G01*
X43010571Y311345D01*
X43010571Y425889D02*
G01*
X42934209Y311345D01*
X42934209Y425889D02*
G01*
X42934209Y311345D01*
X42803300Y425889D02*
G01*
X42743300Y425889D01*
X42776028Y382254D01*
X42759665Y382254D01*
X42748756Y376798D01*
X42743300Y371345D01*
X42737846Y354982D01*
X42737846Y344073D01*
X42743300Y327708D01*
X42754209Y316798D01*
X42770572Y311345D01*
X42786937Y311345D01*
X42803300Y316798D01*
X42808756Y322254D01*
X42814209Y333164D01*
X42701847Y425889D02*
G01*
X42701847Y344073D01*
X42696391Y327708D01*
X42685482Y316798D01*
X42669119Y311345D01*
X42658210Y311345D01*
X42641847Y316798D01*
X42630938Y327708D01*
X42625482Y344073D01*
X42625482Y425889D01*
X42461848Y425889D02*
G01*
X42505482Y311345D01*
X42461848Y425889D02*
G01*
X42418210Y311345D01*
X42489120Y349526D02*
G01*
X42434573Y349526D01*
X42382211Y425889D02*
G01*
X42382211Y311345D01*
X42382211Y425889D02*
G01*
X42305846Y311345D01*
X42305846Y425889D02*
G01*
X42305846Y311345D01*
X42269846Y425889D02*
G01*
X42269846Y311345D01*
X42269846Y425889D02*
G01*
X42193484Y311345D01*
X42193484Y425889D02*
G01*
X42193484Y311345D01*
X42157484Y425889D02*
G01*
X42157484Y344073D01*
X42152028Y327708D01*
X42141119Y316798D01*
X42124757Y311345D01*
X42113847Y311345D01*
X42097485Y316798D01*
X42086575Y327708D01*
X42081119Y344073D01*
X42081119Y425889D01*
X42045120Y425889D02*
G01*
X42045120Y311345D01*
X42045120Y425889D02*
G01*
X41968757Y311345D01*
X41968757Y425889D02*
G01*
X41968757Y311345D01*
X41850939Y398617D02*
G01*
X41856393Y409526D01*
X41867302Y420436D01*
X41878211Y425889D01*
X41900030Y425889D01*
X41910939Y420436D01*
X41921849Y409526D01*
X41927302Y398617D01*
X41932755Y382254D01*
X41932755Y354982D01*
X41927302Y338617D01*
X41921849Y327708D01*
X41910939Y316798D01*
X41900030Y311345D01*
X41878211Y311345D01*
X41867302Y316798D01*
X41856393Y327708D01*
X41850939Y338617D01*
X41814937Y425889D02*
G01*
X41814937Y311345D01*
X41735303Y425889D02*
G01*
X41778938Y311345D01*
X41735303Y425889D02*
G01*
X41691666Y311345D01*
X41762575Y349526D02*
G01*
X41708029Y349526D01*
X41617485Y425889D02*
G01*
X41617485Y311345D01*
X41655667Y425889D02*
G01*
X41579302Y425889D01*
X41510574Y425889D02*
G01*
X41521484Y420436D01*
X41532393Y409526D01*
X41537849Y398617D01*
X41543302Y382254D01*
X41543302Y354982D01*
X41537849Y338617D01*
X41532393Y327708D01*
X41521484Y316798D01*
X41510574Y311345D01*
X41488758Y311345D01*
X41477849Y316798D01*
X41466940Y327708D01*
X41461484Y338617D01*
X41456030Y354982D01*
X41456030Y382254D01*
X41461484Y398617D01*
X41466940Y409526D01*
X41477849Y420436D01*
X41488758Y425889D01*
X41510574Y425889D01*
X41420031Y425889D02*
G01*
X41420031Y311345D01*
X41420031Y425889D02*
G01*
X41370940Y425889D01*
X41354575Y420436D01*
X41349122Y414982D01*
X41343666Y404073D01*
X41343666Y393164D01*
X41349122Y382254D01*
X41354575Y376798D01*
X41370940Y371345D01*
X41420031Y371345D01*
X41381850Y371345D02*
G01*
X41343666Y311345D01*
X41147304Y409526D02*
G01*
X41158213Y420436D01*
X41174576Y425889D01*
X41196394Y425889D01*
X41212757Y420436D01*
X41223666Y409526D01*
X41223666Y398617D01*
X41218213Y387708D01*
X41212757Y382254D01*
X41201850Y376798D01*
X41169122Y365889D01*
X41158213Y360436D01*
X41152757Y354982D01*
X41147304Y344073D01*
X41147304Y327708D01*
X41158213Y316798D01*
X41174576Y311345D01*
X41196394Y311345D01*
X41212757Y316798D01*
X41223666Y327708D01*
X41111304Y425889D02*
G01*
X41111304Y311345D01*
X41111304Y425889D02*
G01*
X41062214Y425889D01*
X41045848Y420436D01*
X41040395Y414982D01*
X41034939Y404073D01*
X41034939Y387708D01*
X41040395Y376798D01*
X41045848Y371345D01*
X41062214Y365889D01*
X41111304Y365889D01*
X40955305Y425889D02*
G01*
X40998940Y311345D01*
X40955305Y425889D02*
G01*
X40911668Y311345D01*
X40982577Y349526D02*
G01*
X40928030Y349526D01*
X40793850Y398617D02*
G01*
X40799303Y409526D01*
X40810213Y420436D01*
X40821122Y425889D01*
X40842940Y425889D01*
X40853850Y420436D01*
X40864759Y409526D01*
X40870212Y398617D01*
X40875668Y382254D01*
X40875668Y354982D01*
X40870212Y338617D01*
X40864759Y327708D01*
X40853850Y316798D01*
X40842940Y311345D01*
X40821122Y311345D01*
X40810213Y316798D01*
X40799303Y327708D01*
X40793850Y338617D01*
X40757850Y425889D02*
G01*
X40757850Y311345D01*
X40757850Y425889D02*
G01*
X40686941Y425889D01*
X40757850Y371345D02*
G01*
X40714213Y371345D01*
X40757850Y311345D02*
G01*
X40686941Y311345D01*
X40650942Y425889D02*
G01*
X40650942Y311345D01*
X40650942Y425889D02*
G01*
X40601851Y425889D01*
X40585486Y420436D01*
X40580033Y414982D01*
X40574577Y404073D01*
X40574577Y393164D01*
X40580033Y382254D01*
X40585486Y376798D01*
X40601851Y371345D01*
X40650942Y371345D01*
X40612758Y371345D02*
G01*
X40574577Y311345D01*
X40454577Y360436D02*
G01*
X40356396Y360436D01*
X40236396Y425889D02*
G01*
X40236396Y311345D01*
X40236396Y425889D02*
G01*
X40187305Y425889D01*
X40170943Y420436D01*
X40165487Y414982D01*
X40160033Y404073D01*
X40160033Y393164D01*
X40165487Y382254D01*
X40170943Y376798D01*
X40187305Y371345D01*
X40236396Y371345D02*
G01*
X40187305Y371345D01*
X40170943Y365889D01*
X40165487Y360436D01*
X40160033Y349526D01*
X40160033Y333164D01*
X40165487Y322254D01*
X40170943Y316798D01*
X40187305Y311345D01*
X40236396Y311345D01*
X40091306Y425889D02*
G01*
X40102215Y420436D01*
X40113125Y409526D01*
X40118578Y398617D01*
X40124034Y382254D01*
X40124034Y354982D01*
X40118578Y338617D01*
X40113125Y327708D01*
X40102215Y316798D01*
X40091306Y311345D01*
X40069488Y311345D01*
X40058578Y316798D01*
X40047669Y327708D01*
X40042216Y338617D01*
X40036760Y354982D01*
X40036760Y382254D01*
X40042216Y398617D01*
X40047669Y409526D01*
X40058578Y420436D01*
X40069488Y425889D01*
X40091306Y425889D01*
X39962579Y425889D02*
G01*
X39962579Y311345D01*
X40000760Y425889D02*
G01*
X39924398Y425889D01*
X39850214Y425889D02*
G01*
X39850214Y311345D01*
X39888396Y425889D02*
G01*
X39812033Y425889D01*
X39743306Y425889D02*
G01*
X39754215Y420436D01*
X39765124Y409526D01*
X39770578Y398617D01*
X39776034Y382254D01*
X39776034Y354982D01*
X39770578Y338617D01*
X39765124Y327708D01*
X39754215Y316798D01*
X39743306Y311345D01*
X39721487Y311345D01*
X39710578Y316798D01*
X39699671Y327708D01*
X39694215Y338617D01*
X39688762Y354982D01*
X39688762Y382254D01*
X39694215Y398617D01*
X39699671Y409526D01*
X39710578Y420436D01*
X39721487Y425889D01*
X39743306Y425889D01*
X39652760Y425889D02*
G01*
X39652760Y311345D01*
X39652760Y425889D02*
G01*
X39609125Y311345D01*
X39565488Y425889D02*
G01*
X39609125Y311345D01*
X39565488Y425889D02*
G01*
X39565488Y311345D01*
D11*
X38784580Y445546D02*
G01*
X38784580Y362419D01*
X38789777Y346831D01*
X38794971Y341637D01*
X38805363Y336443D01*
X38815754Y336443D01*
X38826145Y341637D01*
X38831342Y346831D01*
X38836536Y362419D01*
X38836536Y372811D01*
X38750290Y445546D02*
G01*
X38750290Y336443D01*
X38750290Y336443D02*
G01*
X38687946Y336443D01*
X38575724Y419569D02*
G01*
X38580921Y429961D01*
X38591312Y440352D01*
X38601700Y445546D01*
X38622483Y445546D01*
X38632874Y440352D01*
X38643265Y429961D01*
X38648462Y419569D01*
X38653656Y403981D01*
X38653656Y378005D01*
X38648462Y362419D01*
X38643265Y352028D01*
X38632874Y341637D01*
X38622483Y336443D01*
X38601700Y336443D01*
X38591312Y341637D01*
X38580921Y352028D01*
X38575724Y362419D01*
X38489481Y445546D02*
G01*
X38489481Y362419D01*
X38494675Y346831D01*
X38499872Y341637D01*
X38510260Y336443D01*
X38520651Y336443D01*
X38531043Y341637D01*
X38536239Y346831D01*
X38541434Y362419D01*
X38541434Y372811D01*
X38455191Y445546D02*
G01*
X38455191Y336443D01*
X38455191Y336443D02*
G01*
X38392844Y336443D01*
X38280621Y419569D02*
G01*
X38285818Y429961D01*
X38296209Y440352D01*
X38306601Y445546D01*
X38327380Y445546D01*
X38337771Y440352D01*
X38348163Y429961D01*
X38353359Y419569D01*
X38358554Y403981D01*
X38358554Y378005D01*
X38353359Y362419D01*
X38348163Y352028D01*
X38337771Y341637D01*
X38327380Y336443D01*
X38306601Y336443D01*
X38296209Y341637D01*
X38285818Y352028D01*
X38280621Y362419D01*
X38194378Y445546D02*
G01*
X38194378Y362419D01*
X38199573Y346831D01*
X38204769Y341637D01*
X38215161Y336443D01*
X38225552Y336443D01*
X38235940Y341637D01*
X38241137Y346831D01*
X38246331Y362419D01*
X38246331Y372811D01*
X38160088Y445546D02*
G01*
X38160088Y336443D01*
X38160088Y336443D02*
G01*
X38097741Y336443D01*
X37985522Y419569D02*
G01*
X37990716Y429961D01*
X38001107Y440352D01*
X38011498Y445546D01*
X38032281Y445546D01*
X38042672Y440352D01*
X38053060Y429961D01*
X38058257Y419569D01*
X38063451Y403981D01*
X38063451Y378005D01*
X38058257Y362419D01*
X38053060Y352028D01*
X38042672Y341637D01*
X38032281Y336443D01*
X38011498Y336443D01*
X38001107Y341637D01*
X37990716Y352028D01*
X37985522Y362419D01*
X37899276Y445546D02*
G01*
X37899276Y362419D01*
X37904470Y346831D01*
X37909667Y341637D01*
X37920058Y336443D01*
X37930449Y336443D01*
X37940841Y341637D01*
X37946035Y346831D01*
X37951232Y362419D01*
X37951232Y372811D01*
X37864986Y445546D02*
G01*
X37864986Y336443D01*
X37864986Y336443D02*
G01*
X37802642Y336443D01*
X37690419Y419569D02*
G01*
X37695614Y429961D01*
X37706005Y440352D01*
X37716396Y445546D01*
X37737178Y445546D01*
X37747569Y440352D01*
X37757961Y429961D01*
X37763155Y419569D01*
X37768352Y403981D01*
X37768352Y378005D01*
X37763155Y362419D01*
X37757961Y352028D01*
X37747569Y341637D01*
X37737178Y336443D01*
X37716396Y336443D01*
X37706005Y341637D01*
X37695614Y352028D01*
X37690419Y362419D01*
M02*
