M48
METRIC,LZ,000.000
;FILE_FORMAT=3:3
;TYPE=PLATED
;Layer: PTH_Through_Via
;EasyEDA v6.5.34, 2023-10-09 21:03:28
;d8b6119a72404543a3c1b132a341d26f,5a6b42c53f6a479593ecc07194224c93,10
;Gerber Generator version 0.2
;Holesize 1 = 0.310 mm
T01C0.310
%
G05
G90
T01
X433577Y017018
X431291Y013716
X433577Y027178
X433577Y037338
X423417Y037338
X423417Y027178
X423417Y017018
X413257Y017018
X413257Y027178
X413257Y037338
X421131Y013716
X410971Y013716
X410971Y023876
X421131Y023876
X431291Y023876
X431291Y034036
X421131Y034036
X410971Y034036
X370839Y034036
X380999Y034036
X391159Y034036
X391159Y023876
X380999Y023876
X370839Y023876
X370839Y013716
X380999Y013716
X373125Y037338
X373125Y027178
X373125Y017018
X383285Y017018
X383285Y027178
X383285Y037338
X393445Y037338
X393445Y027178
X391159Y013716
X393445Y017018
X330707Y034036
X340867Y034036
X351027Y034036
X351027Y023876
X340867Y023876
X330707Y023876
X330707Y013716
X340867Y013716
X332993Y037338
X332993Y027178
X332993Y017018
X343153Y017018
X343153Y027178
X343153Y037338
X353313Y037338
X353313Y027178
X351027Y013716
X353313Y017018
X290575Y034036
X300735Y034036
X310895Y034036
X310895Y023876
X300735Y023876
X290575Y023876
X290575Y013716
X300735Y013716
X292861Y037338
X292861Y027178
X292861Y017018
X303021Y017018
X303021Y027178
X303021Y037338
X313181Y037338
X313181Y027178
X310895Y013716
X313181Y017018
X250443Y034036
X260603Y034036
X270763Y034036
X270763Y023876
X260603Y023876
X250443Y023876
X250443Y013716
X260603Y013716
X252729Y037338
X252729Y027178
X252729Y017018
X262889Y017018
X262889Y027178
X262889Y037338
X273049Y037338
X273049Y027178
X270763Y013716
X273049Y017018
X210311Y034036
X220471Y034036
X230631Y034036
X230631Y023876
X220471Y023876
X210311Y023876
X210311Y013716
X220471Y013716
X212597Y037338
X212597Y027178
X212597Y017018
X222757Y017018
X222757Y027178
X222757Y037338
X232917Y037338
X232917Y027178
X230631Y013716
X232917Y017018
X170180Y034036
X180340Y034036
X190500Y034036
X190500Y023876
X180340Y023876
X170180Y023876
X170180Y013716
X180340Y013716
X172466Y037338
X172466Y027178
X172466Y017018
X182626Y017018
X182626Y027178
X182626Y037338
X192786Y037338
X192786Y027178
X190500Y013716
X192786Y017018
X130048Y034036
X140208Y034036
X150368Y034036
X150368Y023876
X140208Y023876
X130048Y023876
X130048Y013716
X140208Y013716
X132334Y037338
X132334Y027178
X132334Y017018
X142494Y017018
X142494Y027178
X142494Y037338
X152654Y037338
X152654Y027178
X150368Y013716
X152654Y017018
X089916Y034036
X100076Y034036
X110236Y034036
X110236Y023876
X100076Y023876
X089916Y023876
X089916Y013716
X100076Y013716
X092202Y037338
X092202Y027178
X092202Y017018
X102362Y017018
X102362Y027178
X102362Y037338
X112522Y037338
X112522Y027178
X110236Y013716
X112522Y017018
X049784Y034036
X059944Y034036
X070104Y034036
X070104Y023876
X059944Y023876
X049784Y023876
X049784Y013716
X059944Y013716
X052070Y037338
X052070Y027178
X052070Y017018
X062230Y017018
X062230Y027178
X062230Y037338
X072390Y037338
X072390Y027178
X070104Y013716
X072390Y017018
X410971Y074676
X421131Y074676
X431291Y074676
X431291Y064516
X421131Y064516
X410971Y064516
X410971Y054356
X421131Y054356
X413257Y077978
X413257Y067818
X413257Y057658
X423417Y057658
X423417Y067818
X423417Y077978
X433577Y077978
X433577Y067818
X431291Y054356
X433577Y057658
X370839Y074676
X380999Y074676
X391159Y074676
X391159Y064516
X380999Y064516
X370839Y064516
X370839Y054356
X380999Y054356
X373125Y077978
X373125Y067818
X373125Y057658
X383285Y057658
X383285Y067818
X383285Y077978
X393445Y077978
X393445Y067818
X391159Y054356
X393445Y057658
X330707Y074676
X340867Y074676
X351027Y074676
X351027Y064516
X340867Y064516
X330707Y064516
X330707Y054356
X340867Y054356
X332993Y077978
X332993Y067818
X332993Y057658
X343153Y057658
X343153Y067818
X343153Y077978
X353313Y077978
X353313Y067818
X351027Y054356
X353313Y057658
X290575Y074676
X300735Y074676
X310895Y074676
X310895Y064516
X300735Y064516
X290575Y064516
X290575Y054356
X300735Y054356
X292861Y077978
X292861Y067818
X292861Y057658
X303021Y057658
X303021Y067818
X303021Y077978
X313181Y077978
X313181Y067818
X310895Y054356
X313181Y057658
X250443Y074676
X260603Y074676
X270763Y074676
X270763Y064516
X260603Y064516
X250443Y064516
X250443Y054356
X260603Y054356
X252729Y077978
X252729Y067818
X252729Y057658
X262889Y057658
X262889Y067818
X262889Y077978
X273049Y077978
X273049Y067818
X270763Y054356
X273049Y057658
X210311Y074676
X220471Y074676
X230631Y074676
X230631Y064516
X220471Y064516
X210311Y064516
X210311Y054356
X220471Y054356
X212597Y077978
X212597Y067818
X212597Y057658
X222757Y057658
X222757Y067818
X222757Y077978
X232917Y077978
X232917Y067818
X230631Y054356
X232917Y057658
X170180Y074676
X180340Y074676
X190500Y074676
X190500Y064516
X180340Y064516
X170180Y064516
X170180Y054356
X180340Y054356
X172466Y077978
X172466Y067818
X172466Y057658
X182626Y057658
X182626Y067818
X182626Y077978
X192786Y077978
X192786Y067818
X190500Y054356
X192786Y057658
X130048Y074676
X140208Y074676
X150368Y074676
X150368Y064516
X140208Y064516
X130048Y064516
X130048Y054356
X140208Y054356
X132334Y077978
X132334Y067818
X132334Y057658
X142494Y057658
X142494Y067818
X142494Y077978
X152654Y077978
X152654Y067818
X150368Y054356
X152654Y057658
X089916Y074676
X100076Y074676
X110236Y074676
X110236Y064516
X100076Y064516
X089916Y064516
X089916Y054356
X100076Y054356
X092202Y077978
X092202Y067818
X092202Y057658
X102362Y057658
X102362Y067818
X102362Y077978
X112522Y077978
X112522Y067818
X110236Y054356
X112522Y057658
X049784Y074676
X059944Y074676
X070104Y074676
X070104Y064516
X059944Y064516
X049784Y064516
X049784Y054356
X059944Y054356
X052070Y077978
X052070Y067818
X052070Y057658
X062230Y057658
X062230Y067818
X062230Y077978
X072390Y077978
X072390Y067818
X070104Y054356
X072390Y057658
X410971Y115316
X421131Y115316
X431291Y115316
X431291Y105156
X421131Y105156
X410971Y105156
X410971Y094996
X421131Y094996
X413257Y118618
X413257Y108458
X413257Y098298
X423417Y098298
X423417Y108458
X423417Y118618
X433577Y118618
X433577Y108458
X431291Y094996
X433577Y098298
X370839Y115316
X380999Y115316
X391159Y115316
X391159Y105156
X380999Y105156
X370839Y105156
X370839Y094996
X380999Y094996
X373125Y118618
X373125Y108458
X373125Y098298
X383285Y098298
X383285Y108458
X383285Y118618
X393445Y118618
X393445Y108458
X391159Y094996
X393445Y098298
X330707Y115316
X340867Y115316
X351027Y115316
X351027Y105156
X340867Y105156
X330707Y105156
X330707Y094996
X340867Y094996
X332993Y118618
X332993Y108458
X332993Y098298
X343153Y098298
X343153Y108458
X343153Y118618
X353313Y118618
X353313Y108458
X351027Y094996
X353313Y098298
X290575Y115316
X300735Y115316
X310895Y115316
X310895Y105156
X300735Y105156
X290575Y105156
X290575Y094996
X300735Y094996
X292861Y118618
X292861Y108458
X292861Y098298
X303021Y098298
X303021Y108458
X303021Y118618
X313181Y118618
X313181Y108458
X310895Y094996
X313181Y098298
X250443Y115316
X260603Y115316
X270763Y115316
X270763Y105156
X260603Y105156
X250443Y105156
X250443Y094996
X260603Y094996
X252729Y118618
X252729Y108458
X252729Y098298
X262889Y098298
X262889Y108458
X262889Y118618
X273049Y118618
X273049Y108458
X270763Y094996
X273049Y098298
X210311Y115316
X220471Y115316
X230631Y115316
X230631Y105156
X220471Y105156
X210311Y105156
X210311Y094996
X220471Y094996
X212597Y118618
X212597Y108458
X212597Y098298
X222757Y098298
X222757Y108458
X222757Y118618
X232917Y118618
X232917Y108458
X230631Y094996
X232917Y098298
X170180Y115316
X180340Y115316
X190500Y115316
X190500Y105156
X180340Y105156
X170180Y105156
X170180Y094996
X180340Y094996
X172466Y118618
X172466Y108458
X172466Y098298
X182626Y098298
X182626Y108458
X182626Y118618
X192786Y118618
X192786Y108458
X190500Y094996
X192786Y098298
X130048Y115316
X140208Y115316
X150368Y115316
X150368Y105156
X140208Y105156
X130048Y105156
X130048Y094996
X140208Y094996
X132334Y118618
X132334Y108458
X132334Y098298
X142494Y098298
X142494Y108458
X142494Y118618
X152654Y118618
X152654Y108458
X150368Y094996
X152654Y098298
X089916Y115316
X100076Y115316
X110236Y115316
X110236Y105156
X100076Y105156
X089916Y105156
X089916Y094996
X100076Y094996
X092202Y118618
X092202Y108458
X092202Y098298
X102362Y098298
X102362Y108458
X102362Y118618
X112522Y118618
X112522Y108458
X110236Y094996
X112522Y098298
X049784Y115316
X059944Y115316
X070104Y115316
X070104Y105156
X059944Y105156
X049784Y105156
X049784Y094996
X059944Y094996
X052070Y118618
X052070Y108458
X052070Y098298
X062230Y098298
X062230Y108458
X062230Y118618
X072390Y118618
X072390Y108458
X070104Y094996
X072390Y098298
X447801Y115316
X447801Y105156
X447801Y094996
X447801Y074676
X447801Y064516
X447801Y054356
X447801Y034036
X447801Y023876
X447801Y013716
M30
