G04 Layer: TopSolderMaskLayer*
G04 EasyEDA v6.5.34, 2023-10-09 21:03:28*
G04 d8b6119a72404543a3c1b132a341d26f,5a6b42c53f6a479593ecc07194224c93,10*
G04 Gerber Generator version 0.2*
G04 Scale: 100 percent, Rotated: No, Reflected: No *
G04 Dimensions in millimeters *
G04 leading zeros omitted , absolute positions ,4 integer and 5 decimal *
%FSLAX45Y45*%
%MOMM*%

%AMMACRO1*1,1,$1,$2,$3*1,1,$1,$4,$5*1,1,$1,0-$2,0-$3*1,1,$1,0-$4,0-$5*20,1,$1,$2,$3,$4,$5,0*20,1,$1,$4,$5,0-$2,0-$3,0*20,1,$1,0-$2,0-$3,0-$4,0-$5,0*20,1,$1,0-$4,0-$5,$2,$3,0*4,1,4,$2,$3,$4,$5,0-$2,0-$3,0-$4,0-$5,$2,$3,0*%
%ADD10MACRO1,0.1016X0.9X-0.9X0.9X0.9*%
%ADD11C,1.9016*%
%ADD12MACRO1,0.1016X-0.275X-0.275X-0.275X0.275*%
%ADD13MACRO1,0.1016X0.27X-0.395X-0.27X-0.395*%
%ADD14MACRO1,0.1016X0.27X0.395X-0.27X0.395*%
%ADD15C,3.1016*%
%ADD16C,0.0112*%

%LPD*%
D10*
G01*
X45465908Y5714987D03*
D11*
G01*
X45465898Y5969000D03*
G01*
X45465898Y6223000D03*
G01*
X45465898Y6477000D03*
G01*
X45465898Y6731000D03*
G01*
X45465898Y6985000D03*
G01*
X45465898Y7239000D03*
G01*
X45465898Y7493000D03*
D12*
G01*
X35106008Y1571517D03*
G01*
X35106008Y1476495D03*
G01*
X35201024Y1476495D03*
G01*
X35201029Y1571518D03*
G01*
X35106008Y2587514D03*
G01*
X35106008Y2492493D03*
G01*
X35201024Y2492493D03*
G01*
X35201029Y2587515D03*
G01*
X35106008Y3603511D03*
G01*
X35106008Y3508490D03*
G01*
X35201024Y3508490D03*
G01*
X35201029Y3603513D03*
G01*
X34090010Y1571517D03*
G01*
X34090010Y1476495D03*
G01*
X34185026Y1476495D03*
G01*
X34185031Y1571518D03*
G01*
X34090010Y2587514D03*
G01*
X34090010Y2492493D03*
G01*
X34185026Y2492493D03*
G01*
X34185031Y2587515D03*
G01*
X34090010Y3603511D03*
G01*
X34090010Y3508490D03*
G01*
X34185026Y3508490D03*
G01*
X34185031Y3603513D03*
G01*
X33074013Y1571517D03*
G01*
X33074013Y1476495D03*
G01*
X33169029Y1476495D03*
G01*
X33169034Y1571518D03*
G01*
X33074013Y2587514D03*
G01*
X33074013Y2492493D03*
G01*
X33169029Y2492493D03*
G01*
X33169034Y2587515D03*
G01*
X33074013Y3603511D03*
G01*
X33074013Y3508490D03*
G01*
X33169029Y3508490D03*
G01*
X33169034Y3603513D03*
D13*
G01*
X33299333Y3610498D03*
D14*
G01*
X33299333Y3501486D03*
D13*
G01*
X33299333Y2594500D03*
D14*
G01*
X33299333Y2485489D03*
D13*
G01*
X33299333Y1578503D03*
D14*
G01*
X33299333Y1469491D03*
D13*
G01*
X34315333Y3610498D03*
D14*
G01*
X34315333Y3501486D03*
D13*
G01*
X34315333Y2594500D03*
D14*
G01*
X34315333Y2485489D03*
D13*
G01*
X34315333Y1578503D03*
D14*
G01*
X34315333Y1469491D03*
D13*
G01*
X35331331Y3610498D03*
D14*
G01*
X35331331Y3501486D03*
D13*
G01*
X35331331Y2594500D03*
D14*
G01*
X35331331Y2485489D03*
D13*
G01*
X35331331Y1578503D03*
D14*
G01*
X35331331Y1469491D03*
D12*
G01*
X31092815Y1571517D03*
G01*
X31092815Y1476495D03*
G01*
X31187831Y1476495D03*
G01*
X31187837Y1571518D03*
G01*
X31092815Y2587514D03*
G01*
X31092815Y2492493D03*
G01*
X31187831Y2492493D03*
G01*
X31187837Y2587515D03*
G01*
X31092815Y3603511D03*
G01*
X31092815Y3508490D03*
G01*
X31187831Y3508490D03*
G01*
X31187837Y3603513D03*
G01*
X30076818Y1571517D03*
G01*
X30076818Y1476495D03*
G01*
X30171834Y1476495D03*
G01*
X30171839Y1571518D03*
G01*
X30076818Y2587514D03*
G01*
X30076818Y2492493D03*
G01*
X30171834Y2492493D03*
G01*
X30171839Y2587515D03*
G01*
X30076818Y3603511D03*
G01*
X30076818Y3508490D03*
G01*
X30171834Y3508490D03*
G01*
X30171839Y3603513D03*
G01*
X29060820Y1571517D03*
G01*
X29060820Y1476495D03*
G01*
X29155837Y1476495D03*
G01*
X29155842Y1571518D03*
G01*
X29060820Y2587514D03*
G01*
X29060820Y2492493D03*
G01*
X29155837Y2492493D03*
G01*
X29155842Y2587515D03*
G01*
X29060820Y3603511D03*
G01*
X29060820Y3508490D03*
G01*
X29155837Y3508490D03*
G01*
X29155842Y3603513D03*
D13*
G01*
X29286141Y3610498D03*
D14*
G01*
X29286141Y3501486D03*
D13*
G01*
X29286141Y2594500D03*
D14*
G01*
X29286141Y2485489D03*
D13*
G01*
X29286141Y1578503D03*
D14*
G01*
X29286141Y1469491D03*
D13*
G01*
X30302141Y3610498D03*
D14*
G01*
X30302141Y3501486D03*
D13*
G01*
X30302141Y2594500D03*
D14*
G01*
X30302141Y2485489D03*
D13*
G01*
X30302141Y1578503D03*
D14*
G01*
X30302141Y1469491D03*
D13*
G01*
X31318139Y3610498D03*
D14*
G01*
X31318139Y3501486D03*
D13*
G01*
X31318139Y2594500D03*
D14*
G01*
X31318139Y2485489D03*
D13*
G01*
X31318139Y1578503D03*
D14*
G01*
X31318139Y1469491D03*
D12*
G01*
X27079623Y1571517D03*
G01*
X27079623Y1476495D03*
G01*
X27174639Y1476495D03*
G01*
X27174644Y1571518D03*
G01*
X27079623Y2587514D03*
G01*
X27079623Y2492493D03*
G01*
X27174639Y2492493D03*
G01*
X27174644Y2587515D03*
G01*
X27079623Y3603511D03*
G01*
X27079623Y3508490D03*
G01*
X27174639Y3508490D03*
G01*
X27174644Y3603513D03*
G01*
X26063625Y1571517D03*
G01*
X26063625Y1476495D03*
G01*
X26158642Y1476495D03*
G01*
X26158647Y1571518D03*
G01*
X26063625Y2587514D03*
G01*
X26063625Y2492493D03*
G01*
X26158642Y2492493D03*
G01*
X26158647Y2587515D03*
G01*
X26063625Y3603511D03*
G01*
X26063625Y3508490D03*
G01*
X26158642Y3508490D03*
G01*
X26158647Y3603513D03*
G01*
X25047628Y1571517D03*
G01*
X25047628Y1476495D03*
G01*
X25142644Y1476495D03*
G01*
X25142649Y1571518D03*
G01*
X25047628Y2587514D03*
G01*
X25047628Y2492493D03*
G01*
X25142644Y2492493D03*
G01*
X25142649Y2587515D03*
G01*
X25047628Y3603511D03*
G01*
X25047628Y3508490D03*
G01*
X25142644Y3508490D03*
G01*
X25142649Y3603513D03*
D13*
G01*
X25272949Y3610498D03*
D14*
G01*
X25272949Y3501486D03*
D13*
G01*
X25272949Y2594500D03*
D14*
G01*
X25272949Y2485489D03*
D13*
G01*
X25272949Y1578503D03*
D14*
G01*
X25272949Y1469491D03*
D13*
G01*
X26288949Y3610498D03*
D14*
G01*
X26288949Y3501486D03*
D13*
G01*
X26288949Y2594500D03*
D14*
G01*
X26288949Y2485489D03*
D13*
G01*
X26288949Y1578503D03*
D14*
G01*
X26288949Y1469491D03*
D13*
G01*
X27304946Y3610498D03*
D14*
G01*
X27304946Y3501486D03*
D13*
G01*
X27304946Y2594500D03*
D14*
G01*
X27304946Y2485489D03*
D13*
G01*
X27304946Y1578503D03*
D14*
G01*
X27304946Y1469491D03*
D12*
G01*
X23066430Y1571517D03*
G01*
X23066430Y1476495D03*
G01*
X23161447Y1476495D03*
G01*
X23161452Y1571518D03*
G01*
X23066430Y2587514D03*
G01*
X23066430Y2492493D03*
G01*
X23161447Y2492493D03*
G01*
X23161452Y2587515D03*
G01*
X23066430Y3603511D03*
G01*
X23066430Y3508490D03*
G01*
X23161447Y3508490D03*
G01*
X23161452Y3603513D03*
G01*
X22050433Y1571517D03*
G01*
X22050433Y1476495D03*
G01*
X22145449Y1476495D03*
G01*
X22145454Y1571518D03*
G01*
X22050433Y2587514D03*
G01*
X22050433Y2492493D03*
G01*
X22145449Y2492493D03*
G01*
X22145454Y2587515D03*
G01*
X22050433Y3603511D03*
G01*
X22050433Y3508490D03*
G01*
X22145449Y3508490D03*
G01*
X22145454Y3603513D03*
G01*
X21034435Y1571517D03*
G01*
X21034435Y1476495D03*
G01*
X21129452Y1476495D03*
G01*
X21129457Y1571518D03*
G01*
X21034435Y2587514D03*
G01*
X21034435Y2492493D03*
G01*
X21129452Y2492493D03*
G01*
X21129457Y2587515D03*
G01*
X21034435Y3603511D03*
G01*
X21034435Y3508490D03*
G01*
X21129452Y3508490D03*
G01*
X21129457Y3603513D03*
D13*
G01*
X21259756Y3610498D03*
D14*
G01*
X21259756Y3501486D03*
D13*
G01*
X21259756Y2594500D03*
D14*
G01*
X21259756Y2485489D03*
D13*
G01*
X21259756Y1578503D03*
D14*
G01*
X21259756Y1469491D03*
D13*
G01*
X22275756Y3610498D03*
D14*
G01*
X22275756Y3501486D03*
D13*
G01*
X22275756Y2594500D03*
D14*
G01*
X22275756Y2485489D03*
D13*
G01*
X22275756Y1578503D03*
D14*
G01*
X22275756Y1469491D03*
D13*
G01*
X23291754Y3610498D03*
D14*
G01*
X23291754Y3501486D03*
D13*
G01*
X23291754Y2594500D03*
D14*
G01*
X23291754Y2485489D03*
D13*
G01*
X23291754Y1578503D03*
D14*
G01*
X23291754Y1469491D03*
D12*
G01*
X19053238Y1571517D03*
G01*
X19053238Y1476495D03*
G01*
X19148254Y1476495D03*
G01*
X19148259Y1571518D03*
G01*
X19053238Y2587514D03*
G01*
X19053238Y2492493D03*
G01*
X19148254Y2492493D03*
G01*
X19148259Y2587515D03*
G01*
X19053238Y3603511D03*
G01*
X19053238Y3508490D03*
G01*
X19148254Y3508490D03*
G01*
X19148259Y3603513D03*
G01*
X18037241Y1571517D03*
G01*
X18037241Y1476495D03*
G01*
X18132257Y1476495D03*
G01*
X18132262Y1571518D03*
G01*
X18037241Y2587514D03*
G01*
X18037241Y2492493D03*
G01*
X18132257Y2492493D03*
G01*
X18132262Y2587515D03*
G01*
X18037241Y3603511D03*
G01*
X18037241Y3508490D03*
G01*
X18132257Y3508490D03*
G01*
X18132262Y3603513D03*
G01*
X17021243Y1571517D03*
G01*
X17021243Y1476495D03*
G01*
X17116259Y1476495D03*
G01*
X17116264Y1571518D03*
G01*
X17021243Y2587514D03*
G01*
X17021243Y2492493D03*
G01*
X17116259Y2492493D03*
G01*
X17116264Y2587515D03*
G01*
X17021243Y3603511D03*
G01*
X17021243Y3508490D03*
G01*
X17116259Y3508490D03*
G01*
X17116264Y3603513D03*
D13*
G01*
X17246564Y3610498D03*
D14*
G01*
X17246564Y3501486D03*
D13*
G01*
X17246564Y2594500D03*
D14*
G01*
X17246564Y2485489D03*
D13*
G01*
X17246564Y1578503D03*
D14*
G01*
X17246564Y1469491D03*
D13*
G01*
X18262564Y3610498D03*
D14*
G01*
X18262564Y3501486D03*
D13*
G01*
X18262564Y2594500D03*
D14*
G01*
X18262564Y2485489D03*
D13*
G01*
X18262564Y1578503D03*
D14*
G01*
X18262564Y1469491D03*
D13*
G01*
X19278561Y3610498D03*
D14*
G01*
X19278561Y3501486D03*
D13*
G01*
X19278561Y2594500D03*
D14*
G01*
X19278561Y2485489D03*
D13*
G01*
X19278561Y1578503D03*
D14*
G01*
X19278561Y1469491D03*
D12*
G01*
X15040048Y1571517D03*
G01*
X15040048Y1476495D03*
G01*
X15135064Y1476495D03*
G01*
X15135070Y1571518D03*
G01*
X15040048Y2587514D03*
G01*
X15040048Y2492493D03*
G01*
X15135064Y2492493D03*
G01*
X15135070Y2587515D03*
G01*
X15040048Y3603511D03*
G01*
X15040048Y3508490D03*
G01*
X15135064Y3508490D03*
G01*
X15135070Y3603513D03*
G01*
X14024051Y1571517D03*
G01*
X14024051Y1476495D03*
G01*
X14119067Y1476495D03*
G01*
X14119072Y1571518D03*
G01*
X14024051Y2587514D03*
G01*
X14024051Y2492493D03*
G01*
X14119067Y2492493D03*
G01*
X14119072Y2587515D03*
G01*
X14024051Y3603511D03*
G01*
X14024051Y3508490D03*
G01*
X14119067Y3508490D03*
G01*
X14119072Y3603513D03*
G01*
X13008053Y1571517D03*
G01*
X13008053Y1476495D03*
G01*
X13103070Y1476495D03*
G01*
X13103075Y1571518D03*
G01*
X13008053Y2587514D03*
G01*
X13008053Y2492493D03*
G01*
X13103070Y2492493D03*
G01*
X13103075Y2587515D03*
G01*
X13008053Y3603511D03*
G01*
X13008053Y3508490D03*
G01*
X13103070Y3508490D03*
G01*
X13103075Y3603513D03*
D13*
G01*
X13233374Y3610498D03*
D14*
G01*
X13233374Y3501486D03*
D13*
G01*
X13233374Y2594500D03*
D14*
G01*
X13233374Y2485489D03*
D13*
G01*
X13233374Y1578503D03*
D14*
G01*
X13233374Y1469491D03*
D13*
G01*
X14249374Y3610498D03*
D14*
G01*
X14249374Y3501486D03*
D13*
G01*
X14249374Y2594500D03*
D14*
G01*
X14249374Y2485489D03*
D13*
G01*
X14249374Y1578503D03*
D14*
G01*
X14249374Y1469491D03*
D13*
G01*
X15265372Y3610498D03*
D14*
G01*
X15265372Y3501486D03*
D13*
G01*
X15265372Y2594500D03*
D14*
G01*
X15265372Y2485489D03*
D13*
G01*
X15265372Y1578503D03*
D14*
G01*
X15265372Y1469491D03*
D12*
G01*
X11026856Y1571517D03*
G01*
X11026856Y1476495D03*
G01*
X11121872Y1476495D03*
G01*
X11121877Y1571518D03*
G01*
X11026856Y2587514D03*
G01*
X11026856Y2492493D03*
G01*
X11121872Y2492493D03*
G01*
X11121877Y2587515D03*
G01*
X11026856Y3603511D03*
G01*
X11026856Y3508490D03*
G01*
X11121872Y3508490D03*
G01*
X11121877Y3603513D03*
G01*
X10010858Y1571517D03*
G01*
X10010858Y1476495D03*
G01*
X10105875Y1476495D03*
G01*
X10105880Y1571518D03*
G01*
X10010858Y2587514D03*
G01*
X10010858Y2492493D03*
G01*
X10105875Y2492493D03*
G01*
X10105880Y2587515D03*
G01*
X10010858Y3603511D03*
G01*
X10010858Y3508490D03*
G01*
X10105875Y3508490D03*
G01*
X10105880Y3603513D03*
G01*
X8994861Y1571517D03*
G01*
X8994861Y1476495D03*
G01*
X9089877Y1476495D03*
G01*
X9089882Y1571518D03*
G01*
X8994861Y2587514D03*
G01*
X8994861Y2492493D03*
G01*
X9089877Y2492493D03*
G01*
X9089882Y2587515D03*
G01*
X8994861Y3603511D03*
G01*
X8994861Y3508490D03*
G01*
X9089877Y3508490D03*
G01*
X9089882Y3603513D03*
D13*
G01*
X9220182Y3610498D03*
D14*
G01*
X9220182Y3501486D03*
D13*
G01*
X9220182Y2594500D03*
D14*
G01*
X9220182Y2485489D03*
D13*
G01*
X9220182Y1578503D03*
D14*
G01*
X9220182Y1469491D03*
D13*
G01*
X10236182Y3610498D03*
D14*
G01*
X10236182Y3501486D03*
D13*
G01*
X10236182Y2594500D03*
D14*
G01*
X10236182Y2485489D03*
D13*
G01*
X10236182Y1578503D03*
D14*
G01*
X10236182Y1469491D03*
D13*
G01*
X11252179Y3610498D03*
D14*
G01*
X11252179Y3501486D03*
D13*
G01*
X11252179Y2594500D03*
D14*
G01*
X11252179Y2485489D03*
D13*
G01*
X11252179Y1578503D03*
D14*
G01*
X11252179Y1469491D03*
D12*
G01*
X7013663Y1571517D03*
G01*
X7013663Y1476495D03*
G01*
X7108680Y1476495D03*
G01*
X7108685Y1571518D03*
G01*
X7013663Y2587514D03*
G01*
X7013663Y2492493D03*
G01*
X7108680Y2492493D03*
G01*
X7108685Y2587515D03*
G01*
X7013663Y3603511D03*
G01*
X7013663Y3508490D03*
G01*
X7108680Y3508490D03*
G01*
X7108685Y3603513D03*
G01*
X5997666Y1571517D03*
G01*
X5997666Y1476495D03*
G01*
X6092682Y1476495D03*
G01*
X6092687Y1571518D03*
G01*
X5997666Y2587514D03*
G01*
X5997666Y2492493D03*
G01*
X6092682Y2492493D03*
G01*
X6092687Y2587515D03*
G01*
X5997666Y3603511D03*
G01*
X5997666Y3508490D03*
G01*
X6092682Y3508490D03*
G01*
X6092687Y3603513D03*
G01*
X4981668Y1571517D03*
G01*
X4981668Y1476495D03*
G01*
X5076685Y1476495D03*
G01*
X5076690Y1571518D03*
G01*
X4981668Y2587514D03*
G01*
X4981668Y2492493D03*
G01*
X5076685Y2492493D03*
G01*
X5076690Y2587515D03*
G01*
X4981668Y3603511D03*
G01*
X4981668Y3508490D03*
G01*
X5076685Y3508490D03*
G01*
X5076690Y3603513D03*
D13*
G01*
X5206989Y3610498D03*
D14*
G01*
X5206989Y3501486D03*
D13*
G01*
X5206989Y2594500D03*
D14*
G01*
X5206989Y2485489D03*
D13*
G01*
X5206989Y1578503D03*
D14*
G01*
X5206989Y1469491D03*
D13*
G01*
X6222989Y3610498D03*
D14*
G01*
X6222989Y3501486D03*
D13*
G01*
X6222989Y2594500D03*
D14*
G01*
X6222989Y2485489D03*
D13*
G01*
X6222989Y1578503D03*
D14*
G01*
X6222989Y1469491D03*
D13*
G01*
X7238987Y3610498D03*
D14*
G01*
X7238987Y3501486D03*
D13*
G01*
X7238987Y2594500D03*
D14*
G01*
X7238987Y2485489D03*
D13*
G01*
X7238987Y1578503D03*
D14*
G01*
X7238987Y1469491D03*
D12*
G01*
X43132390Y5635509D03*
G01*
X43132390Y5540488D03*
G01*
X43227406Y5540488D03*
G01*
X43227411Y5635510D03*
G01*
X43132390Y6651506D03*
G01*
X43132390Y6556485D03*
G01*
X43227406Y6556485D03*
G01*
X43227411Y6651508D03*
G01*
X43132390Y7667504D03*
G01*
X43132390Y7572482D03*
G01*
X43227406Y7572482D03*
G01*
X43227411Y7667505D03*
G01*
X42116392Y5635509D03*
G01*
X42116392Y5540488D03*
G01*
X42211409Y5540488D03*
G01*
X42211414Y5635510D03*
G01*
X42116392Y6651506D03*
G01*
X42116392Y6556485D03*
G01*
X42211409Y6556485D03*
G01*
X42211414Y6651508D03*
G01*
X42116392Y7667504D03*
G01*
X42116392Y7572482D03*
G01*
X42211409Y7572482D03*
G01*
X42211414Y7667505D03*
G01*
X41100395Y5635509D03*
G01*
X41100395Y5540488D03*
G01*
X41195411Y5540488D03*
G01*
X41195416Y5635510D03*
G01*
X41100395Y6651506D03*
G01*
X41100395Y6556485D03*
G01*
X41195411Y6556485D03*
G01*
X41195416Y6651508D03*
G01*
X41100395Y7667504D03*
G01*
X41100395Y7572482D03*
G01*
X41195411Y7572482D03*
G01*
X41195416Y7667505D03*
D13*
G01*
X41325716Y7674490D03*
D14*
G01*
X41325716Y7565478D03*
D13*
G01*
X41325716Y6658493D03*
D14*
G01*
X41325716Y6549481D03*
D13*
G01*
X41325716Y5642495D03*
D14*
G01*
X41325716Y5533483D03*
D13*
G01*
X42341716Y7674490D03*
D14*
G01*
X42341716Y7565478D03*
D13*
G01*
X42341716Y6658493D03*
D14*
G01*
X42341716Y6549481D03*
D13*
G01*
X42341716Y5642495D03*
D14*
G01*
X42341716Y5533483D03*
D13*
G01*
X43357713Y7674490D03*
D14*
G01*
X43357713Y7565478D03*
D13*
G01*
X43357713Y6658493D03*
D14*
G01*
X43357713Y6549481D03*
D13*
G01*
X43357713Y5642495D03*
D14*
G01*
X43357713Y5533483D03*
D12*
G01*
X39119200Y5635509D03*
G01*
X39119200Y5540488D03*
G01*
X39214216Y5540488D03*
G01*
X39214221Y5635510D03*
G01*
X39119200Y6651506D03*
G01*
X39119200Y6556485D03*
G01*
X39214216Y6556485D03*
G01*
X39214221Y6651508D03*
G01*
X39119200Y7667504D03*
G01*
X39119200Y7572482D03*
G01*
X39214216Y7572482D03*
G01*
X39214221Y7667505D03*
G01*
X38103202Y5635509D03*
G01*
X38103202Y5540488D03*
G01*
X38198219Y5540488D03*
G01*
X38198224Y5635510D03*
G01*
X38103202Y6651506D03*
G01*
X38103202Y6556485D03*
G01*
X38198219Y6556485D03*
G01*
X38198224Y6651508D03*
G01*
X38103202Y7667504D03*
G01*
X38103202Y7572482D03*
G01*
X38198219Y7572482D03*
G01*
X38198224Y7667505D03*
G01*
X37087205Y5635509D03*
G01*
X37087205Y5540488D03*
G01*
X37182221Y5540488D03*
G01*
X37182226Y5635510D03*
G01*
X37087205Y6651506D03*
G01*
X37087205Y6556485D03*
G01*
X37182221Y6556485D03*
G01*
X37182226Y6651508D03*
G01*
X37087205Y7667504D03*
G01*
X37087205Y7572482D03*
G01*
X37182221Y7572482D03*
G01*
X37182226Y7667505D03*
D13*
G01*
X37312526Y7674490D03*
D14*
G01*
X37312526Y7565478D03*
D13*
G01*
X37312526Y6658493D03*
D14*
G01*
X37312526Y6549481D03*
D13*
G01*
X37312526Y5642495D03*
D14*
G01*
X37312526Y5533483D03*
D13*
G01*
X38328526Y7674490D03*
D14*
G01*
X38328526Y7565478D03*
D13*
G01*
X38328526Y6658493D03*
D14*
G01*
X38328526Y6549481D03*
D13*
G01*
X38328526Y5642495D03*
D14*
G01*
X38328526Y5533483D03*
D13*
G01*
X39344523Y7674490D03*
D14*
G01*
X39344523Y7565478D03*
D13*
G01*
X39344523Y6658493D03*
D14*
G01*
X39344523Y6549481D03*
D13*
G01*
X39344523Y5642495D03*
D14*
G01*
X39344523Y5533483D03*
D12*
G01*
X35106008Y5635509D03*
G01*
X35106008Y5540488D03*
G01*
X35201024Y5540488D03*
G01*
X35201029Y5635510D03*
G01*
X35106008Y6651506D03*
G01*
X35106008Y6556485D03*
G01*
X35201024Y6556485D03*
G01*
X35201029Y6651508D03*
G01*
X35106008Y7667504D03*
G01*
X35106008Y7572482D03*
G01*
X35201024Y7572482D03*
G01*
X35201029Y7667505D03*
G01*
X34090010Y5635509D03*
G01*
X34090010Y5540488D03*
G01*
X34185026Y5540488D03*
G01*
X34185031Y5635510D03*
G01*
X34090010Y6651506D03*
G01*
X34090010Y6556485D03*
G01*
X34185026Y6556485D03*
G01*
X34185031Y6651508D03*
G01*
X34090010Y7667504D03*
G01*
X34090010Y7572482D03*
G01*
X34185026Y7572482D03*
G01*
X34185031Y7667505D03*
G01*
X33074013Y5635509D03*
G01*
X33074013Y5540488D03*
G01*
X33169029Y5540488D03*
G01*
X33169034Y5635510D03*
G01*
X33074013Y6651506D03*
G01*
X33074013Y6556485D03*
G01*
X33169029Y6556485D03*
G01*
X33169034Y6651508D03*
G01*
X33074013Y7667504D03*
G01*
X33074013Y7572482D03*
G01*
X33169029Y7572482D03*
G01*
X33169034Y7667505D03*
D13*
G01*
X33299333Y7674490D03*
D14*
G01*
X33299333Y7565478D03*
D13*
G01*
X33299333Y6658493D03*
D14*
G01*
X33299333Y6549481D03*
D13*
G01*
X33299333Y5642495D03*
D14*
G01*
X33299333Y5533483D03*
D13*
G01*
X34315333Y7674490D03*
D14*
G01*
X34315333Y7565478D03*
D13*
G01*
X34315333Y6658493D03*
D14*
G01*
X34315333Y6549481D03*
D13*
G01*
X34315333Y5642495D03*
D14*
G01*
X34315333Y5533483D03*
D13*
G01*
X35331331Y7674490D03*
D14*
G01*
X35331331Y7565478D03*
D13*
G01*
X35331331Y6658493D03*
D14*
G01*
X35331331Y6549481D03*
D13*
G01*
X35331331Y5642495D03*
D14*
G01*
X35331331Y5533483D03*
D12*
G01*
X31092815Y5635509D03*
G01*
X31092815Y5540488D03*
G01*
X31187831Y5540488D03*
G01*
X31187837Y5635510D03*
G01*
X31092815Y6651506D03*
G01*
X31092815Y6556485D03*
G01*
X31187831Y6556485D03*
G01*
X31187837Y6651508D03*
G01*
X31092815Y7667504D03*
G01*
X31092815Y7572482D03*
G01*
X31187831Y7572482D03*
G01*
X31187837Y7667505D03*
G01*
X30076818Y5635509D03*
G01*
X30076818Y5540488D03*
G01*
X30171834Y5540488D03*
G01*
X30171839Y5635510D03*
G01*
X30076818Y6651506D03*
G01*
X30076818Y6556485D03*
G01*
X30171834Y6556485D03*
G01*
X30171839Y6651508D03*
G01*
X30076818Y7667504D03*
G01*
X30076818Y7572482D03*
G01*
X30171834Y7572482D03*
G01*
X30171839Y7667505D03*
G01*
X29060820Y5635509D03*
G01*
X29060820Y5540488D03*
G01*
X29155837Y5540488D03*
G01*
X29155842Y5635510D03*
G01*
X29060820Y6651506D03*
G01*
X29060820Y6556485D03*
G01*
X29155837Y6556485D03*
G01*
X29155842Y6651508D03*
G01*
X29060820Y7667504D03*
G01*
X29060820Y7572482D03*
G01*
X29155837Y7572482D03*
G01*
X29155842Y7667505D03*
D13*
G01*
X29286141Y7674490D03*
D14*
G01*
X29286141Y7565478D03*
D13*
G01*
X29286141Y6658493D03*
D14*
G01*
X29286141Y6549481D03*
D13*
G01*
X29286141Y5642495D03*
D14*
G01*
X29286141Y5533483D03*
D13*
G01*
X30302141Y7674490D03*
D14*
G01*
X30302141Y7565478D03*
D13*
G01*
X30302141Y6658493D03*
D14*
G01*
X30302141Y6549481D03*
D13*
G01*
X30302141Y5642495D03*
D14*
G01*
X30302141Y5533483D03*
D13*
G01*
X31318139Y7674490D03*
D14*
G01*
X31318139Y7565478D03*
D13*
G01*
X31318139Y6658493D03*
D14*
G01*
X31318139Y6549481D03*
D13*
G01*
X31318139Y5642495D03*
D14*
G01*
X31318139Y5533483D03*
D12*
G01*
X27079623Y5635509D03*
G01*
X27079623Y5540488D03*
G01*
X27174639Y5540488D03*
G01*
X27174644Y5635510D03*
G01*
X27079623Y6651506D03*
G01*
X27079623Y6556485D03*
G01*
X27174639Y6556485D03*
G01*
X27174644Y6651508D03*
G01*
X27079623Y7667504D03*
G01*
X27079623Y7572482D03*
G01*
X27174639Y7572482D03*
G01*
X27174644Y7667505D03*
G01*
X26063625Y5635509D03*
G01*
X26063625Y5540488D03*
G01*
X26158642Y5540488D03*
G01*
X26158647Y5635510D03*
G01*
X26063625Y6651506D03*
G01*
X26063625Y6556485D03*
G01*
X26158642Y6556485D03*
G01*
X26158647Y6651508D03*
G01*
X26063625Y7667504D03*
G01*
X26063625Y7572482D03*
G01*
X26158642Y7572482D03*
G01*
X26158647Y7667505D03*
G01*
X25047628Y5635509D03*
G01*
X25047628Y5540488D03*
G01*
X25142644Y5540488D03*
G01*
X25142649Y5635510D03*
G01*
X25047628Y6651506D03*
G01*
X25047628Y6556485D03*
G01*
X25142644Y6556485D03*
G01*
X25142649Y6651508D03*
G01*
X25047628Y7667504D03*
G01*
X25047628Y7572482D03*
G01*
X25142644Y7572482D03*
G01*
X25142649Y7667505D03*
D13*
G01*
X25272949Y7674490D03*
D14*
G01*
X25272949Y7565478D03*
D13*
G01*
X25272949Y6658493D03*
D14*
G01*
X25272949Y6549481D03*
D13*
G01*
X25272949Y5642495D03*
D14*
G01*
X25272949Y5533483D03*
D13*
G01*
X26288949Y7674490D03*
D14*
G01*
X26288949Y7565478D03*
D13*
G01*
X26288949Y6658493D03*
D14*
G01*
X26288949Y6549481D03*
D13*
G01*
X26288949Y5642495D03*
D14*
G01*
X26288949Y5533483D03*
D13*
G01*
X27304946Y7674490D03*
D14*
G01*
X27304946Y7565478D03*
D13*
G01*
X27304946Y6658493D03*
D14*
G01*
X27304946Y6549481D03*
D13*
G01*
X27304946Y5642495D03*
D14*
G01*
X27304946Y5533483D03*
D12*
G01*
X23066430Y5635509D03*
G01*
X23066430Y5540488D03*
G01*
X23161447Y5540488D03*
G01*
X23161452Y5635510D03*
G01*
X23066430Y6651506D03*
G01*
X23066430Y6556485D03*
G01*
X23161447Y6556485D03*
G01*
X23161452Y6651508D03*
G01*
X23066430Y7667504D03*
G01*
X23066430Y7572482D03*
G01*
X23161447Y7572482D03*
G01*
X23161452Y7667505D03*
G01*
X22050433Y5635509D03*
G01*
X22050433Y5540488D03*
G01*
X22145449Y5540488D03*
G01*
X22145454Y5635510D03*
G01*
X22050433Y6651506D03*
G01*
X22050433Y6556485D03*
G01*
X22145449Y6556485D03*
G01*
X22145454Y6651508D03*
G01*
X22050433Y7667504D03*
G01*
X22050433Y7572482D03*
G01*
X22145449Y7572482D03*
G01*
X22145454Y7667505D03*
G01*
X21034435Y5635509D03*
G01*
X21034435Y5540488D03*
G01*
X21129452Y5540488D03*
G01*
X21129457Y5635510D03*
G01*
X21034435Y6651506D03*
G01*
X21034435Y6556485D03*
G01*
X21129452Y6556485D03*
G01*
X21129457Y6651508D03*
G01*
X21034435Y7667504D03*
G01*
X21034435Y7572482D03*
G01*
X21129452Y7572482D03*
G01*
X21129457Y7667505D03*
D13*
G01*
X21259756Y7674490D03*
D14*
G01*
X21259756Y7565478D03*
D13*
G01*
X21259756Y6658493D03*
D14*
G01*
X21259756Y6549481D03*
D13*
G01*
X21259756Y5642495D03*
D14*
G01*
X21259756Y5533483D03*
D13*
G01*
X22275756Y7674490D03*
D14*
G01*
X22275756Y7565478D03*
D13*
G01*
X22275756Y6658493D03*
D14*
G01*
X22275756Y6549481D03*
D13*
G01*
X22275756Y5642495D03*
D14*
G01*
X22275756Y5533483D03*
D13*
G01*
X23291754Y7674490D03*
D14*
G01*
X23291754Y7565478D03*
D13*
G01*
X23291754Y6658493D03*
D14*
G01*
X23291754Y6549481D03*
D13*
G01*
X23291754Y5642495D03*
D14*
G01*
X23291754Y5533483D03*
D12*
G01*
X19053238Y5635509D03*
G01*
X19053238Y5540488D03*
G01*
X19148254Y5540488D03*
G01*
X19148259Y5635510D03*
G01*
X19053238Y6651506D03*
G01*
X19053238Y6556485D03*
G01*
X19148254Y6556485D03*
G01*
X19148259Y6651508D03*
G01*
X19053238Y7667504D03*
G01*
X19053238Y7572482D03*
G01*
X19148254Y7572482D03*
G01*
X19148259Y7667505D03*
G01*
X18037241Y5635509D03*
G01*
X18037241Y5540488D03*
G01*
X18132257Y5540488D03*
G01*
X18132262Y5635510D03*
G01*
X18037241Y6651506D03*
G01*
X18037241Y6556485D03*
G01*
X18132257Y6556485D03*
G01*
X18132262Y6651508D03*
G01*
X18037241Y7667504D03*
G01*
X18037241Y7572482D03*
G01*
X18132257Y7572482D03*
G01*
X18132262Y7667505D03*
G01*
X17021243Y5635509D03*
G01*
X17021243Y5540488D03*
G01*
X17116259Y5540488D03*
G01*
X17116264Y5635510D03*
G01*
X17021243Y6651506D03*
G01*
X17021243Y6556485D03*
G01*
X17116259Y6556485D03*
G01*
X17116264Y6651508D03*
G01*
X17021243Y7667504D03*
G01*
X17021243Y7572482D03*
G01*
X17116259Y7572482D03*
G01*
X17116264Y7667505D03*
D13*
G01*
X17246564Y7674490D03*
D14*
G01*
X17246564Y7565478D03*
D13*
G01*
X17246564Y6658493D03*
D14*
G01*
X17246564Y6549481D03*
D13*
G01*
X17246564Y5642495D03*
D14*
G01*
X17246564Y5533483D03*
D13*
G01*
X18262564Y7674490D03*
D14*
G01*
X18262564Y7565478D03*
D13*
G01*
X18262564Y6658493D03*
D14*
G01*
X18262564Y6549481D03*
D13*
G01*
X18262564Y5642495D03*
D14*
G01*
X18262564Y5533483D03*
D13*
G01*
X19278561Y7674490D03*
D14*
G01*
X19278561Y7565478D03*
D13*
G01*
X19278561Y6658493D03*
D14*
G01*
X19278561Y6549481D03*
D13*
G01*
X19278561Y5642495D03*
D14*
G01*
X19278561Y5533483D03*
D12*
G01*
X15040048Y5635509D03*
G01*
X15040048Y5540488D03*
G01*
X15135064Y5540488D03*
G01*
X15135070Y5635510D03*
G01*
X15040048Y6651506D03*
G01*
X15040048Y6556485D03*
G01*
X15135064Y6556485D03*
G01*
X15135070Y6651508D03*
G01*
X15040048Y7667504D03*
G01*
X15040048Y7572482D03*
G01*
X15135064Y7572482D03*
G01*
X15135070Y7667505D03*
G01*
X14024051Y5635509D03*
G01*
X14024051Y5540488D03*
G01*
X14119067Y5540488D03*
G01*
X14119072Y5635510D03*
G01*
X14024051Y6651506D03*
G01*
X14024051Y6556485D03*
G01*
X14119067Y6556485D03*
G01*
X14119072Y6651508D03*
G01*
X14024051Y7667504D03*
G01*
X14024051Y7572482D03*
G01*
X14119067Y7572482D03*
G01*
X14119072Y7667505D03*
G01*
X13008053Y5635509D03*
G01*
X13008053Y5540488D03*
G01*
X13103070Y5540488D03*
G01*
X13103075Y5635510D03*
G01*
X13008053Y6651506D03*
G01*
X13008053Y6556485D03*
G01*
X13103070Y6556485D03*
G01*
X13103075Y6651508D03*
G01*
X13008053Y7667504D03*
G01*
X13008053Y7572482D03*
G01*
X13103070Y7572482D03*
G01*
X13103075Y7667505D03*
D13*
G01*
X13233374Y7674490D03*
D14*
G01*
X13233374Y7565478D03*
D13*
G01*
X13233374Y6658493D03*
D14*
G01*
X13233374Y6549481D03*
D13*
G01*
X13233374Y5642495D03*
D14*
G01*
X13233374Y5533483D03*
D13*
G01*
X14249374Y7674490D03*
D14*
G01*
X14249374Y7565478D03*
D13*
G01*
X14249374Y6658493D03*
D14*
G01*
X14249374Y6549481D03*
D13*
G01*
X14249374Y5642495D03*
D14*
G01*
X14249374Y5533483D03*
D13*
G01*
X15265372Y7674490D03*
D14*
G01*
X15265372Y7565478D03*
D13*
G01*
X15265372Y6658493D03*
D14*
G01*
X15265372Y6549481D03*
D13*
G01*
X15265372Y5642495D03*
D14*
G01*
X15265372Y5533483D03*
D12*
G01*
X11026856Y5635509D03*
G01*
X11026856Y5540488D03*
G01*
X11121872Y5540488D03*
G01*
X11121877Y5635510D03*
G01*
X11026856Y6651506D03*
G01*
X11026856Y6556485D03*
G01*
X11121872Y6556485D03*
G01*
X11121877Y6651508D03*
G01*
X11026856Y7667504D03*
G01*
X11026856Y7572482D03*
G01*
X11121872Y7572482D03*
G01*
X11121877Y7667505D03*
G01*
X10010858Y5635509D03*
G01*
X10010858Y5540488D03*
G01*
X10105875Y5540488D03*
G01*
X10105880Y5635510D03*
G01*
X10010858Y6651506D03*
G01*
X10010858Y6556485D03*
G01*
X10105875Y6556485D03*
G01*
X10105880Y6651508D03*
G01*
X10010858Y7667504D03*
G01*
X10010858Y7572482D03*
G01*
X10105875Y7572482D03*
G01*
X10105880Y7667505D03*
G01*
X8994861Y5635509D03*
G01*
X8994861Y5540488D03*
G01*
X9089877Y5540488D03*
G01*
X9089882Y5635510D03*
G01*
X8994861Y6651506D03*
G01*
X8994861Y6556485D03*
G01*
X9089877Y6556485D03*
G01*
X9089882Y6651508D03*
G01*
X8994861Y7667504D03*
G01*
X8994861Y7572482D03*
G01*
X9089877Y7572482D03*
G01*
X9089882Y7667505D03*
D13*
G01*
X9220182Y7674490D03*
D14*
G01*
X9220182Y7565478D03*
D13*
G01*
X9220182Y6658493D03*
D14*
G01*
X9220182Y6549481D03*
D13*
G01*
X9220182Y5642495D03*
D14*
G01*
X9220182Y5533483D03*
D13*
G01*
X10236182Y7674490D03*
D14*
G01*
X10236182Y7565478D03*
D13*
G01*
X10236182Y6658493D03*
D14*
G01*
X10236182Y6549481D03*
D13*
G01*
X10236182Y5642495D03*
D14*
G01*
X10236182Y5533483D03*
D13*
G01*
X11252179Y7674490D03*
D14*
G01*
X11252179Y7565478D03*
D13*
G01*
X11252179Y6658493D03*
D14*
G01*
X11252179Y6549481D03*
D13*
G01*
X11252179Y5642495D03*
D14*
G01*
X11252179Y5533483D03*
D12*
G01*
X7013663Y5635509D03*
G01*
X7013663Y5540488D03*
G01*
X7108680Y5540488D03*
G01*
X7108685Y5635510D03*
G01*
X7013663Y6651506D03*
G01*
X7013663Y6556485D03*
G01*
X7108680Y6556485D03*
G01*
X7108685Y6651508D03*
G01*
X7013663Y7667504D03*
G01*
X7013663Y7572482D03*
G01*
X7108680Y7572482D03*
G01*
X7108685Y7667505D03*
G01*
X5997666Y5635509D03*
G01*
X5997666Y5540488D03*
G01*
X6092682Y5540488D03*
G01*
X6092687Y5635510D03*
G01*
X5997666Y6651506D03*
G01*
X5997666Y6556485D03*
G01*
X6092682Y6556485D03*
G01*
X6092687Y6651508D03*
G01*
X5997666Y7667504D03*
G01*
X5997666Y7572482D03*
G01*
X6092682Y7572482D03*
G01*
X6092687Y7667505D03*
G01*
X4981668Y5635509D03*
G01*
X4981668Y5540488D03*
G01*
X5076685Y5540488D03*
G01*
X5076690Y5635510D03*
G01*
X4981668Y6651506D03*
G01*
X4981668Y6556485D03*
G01*
X5076685Y6556485D03*
G01*
X5076690Y6651508D03*
G01*
X4981668Y7667504D03*
G01*
X4981668Y7572482D03*
G01*
X5076685Y7572482D03*
G01*
X5076690Y7667505D03*
D13*
G01*
X5206989Y7674490D03*
D14*
G01*
X5206989Y7565478D03*
D13*
G01*
X5206989Y6658493D03*
D14*
G01*
X5206989Y6549481D03*
D13*
G01*
X5206989Y5642495D03*
D14*
G01*
X5206989Y5533483D03*
D13*
G01*
X6222989Y7674490D03*
D14*
G01*
X6222989Y7565478D03*
D13*
G01*
X6222989Y6658493D03*
D14*
G01*
X6222989Y6549481D03*
D13*
G01*
X6222989Y5642495D03*
D14*
G01*
X6222989Y5533483D03*
D13*
G01*
X7238987Y7674490D03*
D14*
G01*
X7238987Y7565478D03*
D13*
G01*
X7238987Y6658493D03*
D14*
G01*
X7238987Y6549481D03*
D13*
G01*
X7238987Y5642495D03*
D14*
G01*
X7238987Y5533483D03*
D12*
G01*
X43132390Y9699501D03*
G01*
X43132390Y9604480D03*
G01*
X43227406Y9604480D03*
G01*
X43227411Y9699503D03*
G01*
X43132390Y10715499D03*
G01*
X43132390Y10620477D03*
G01*
X43227406Y10620477D03*
G01*
X43227411Y10715500D03*
G01*
X43132390Y11731496D03*
G01*
X43132390Y11636475D03*
G01*
X43227406Y11636475D03*
G01*
X43227411Y11731497D03*
G01*
X42116392Y9699501D03*
G01*
X42116392Y9604480D03*
G01*
X42211409Y9604480D03*
G01*
X42211414Y9699503D03*
G01*
X42116392Y10715499D03*
G01*
X42116392Y10620477D03*
G01*
X42211409Y10620477D03*
G01*
X42211414Y10715500D03*
G01*
X42116392Y11731496D03*
G01*
X42116392Y11636475D03*
G01*
X42211409Y11636475D03*
G01*
X42211414Y11731497D03*
G01*
X41100395Y9699501D03*
G01*
X41100395Y9604480D03*
G01*
X41195411Y9604480D03*
G01*
X41195416Y9699503D03*
G01*
X41100395Y10715499D03*
G01*
X41100395Y10620477D03*
G01*
X41195411Y10620477D03*
G01*
X41195416Y10715500D03*
G01*
X41100395Y11731496D03*
G01*
X41100395Y11636475D03*
G01*
X41195411Y11636475D03*
G01*
X41195416Y11731497D03*
D13*
G01*
X41325716Y11738483D03*
D14*
G01*
X41325716Y11629471D03*
D13*
G01*
X41325716Y10722485D03*
D14*
G01*
X41325716Y10613473D03*
D13*
G01*
X41325716Y9706488D03*
D14*
G01*
X41325716Y9597476D03*
D13*
G01*
X42341716Y11738483D03*
D14*
G01*
X42341716Y11629471D03*
D13*
G01*
X42341716Y10722485D03*
D14*
G01*
X42341716Y10613473D03*
D13*
G01*
X42341716Y9706488D03*
D14*
G01*
X42341716Y9597476D03*
D13*
G01*
X43357713Y11738483D03*
D14*
G01*
X43357713Y11629471D03*
D13*
G01*
X43357713Y10722485D03*
D14*
G01*
X43357713Y10613473D03*
D13*
G01*
X43357713Y9706488D03*
D14*
G01*
X43357713Y9597476D03*
D12*
G01*
X39119200Y9699501D03*
G01*
X39119200Y9604480D03*
G01*
X39214216Y9604480D03*
G01*
X39214221Y9699503D03*
G01*
X39119200Y10715499D03*
G01*
X39119200Y10620477D03*
G01*
X39214216Y10620477D03*
G01*
X39214221Y10715500D03*
G01*
X39119200Y11731496D03*
G01*
X39119200Y11636475D03*
G01*
X39214216Y11636475D03*
G01*
X39214221Y11731497D03*
G01*
X38103202Y9699501D03*
G01*
X38103202Y9604480D03*
G01*
X38198219Y9604480D03*
G01*
X38198224Y9699503D03*
G01*
X38103202Y10715499D03*
G01*
X38103202Y10620477D03*
G01*
X38198219Y10620477D03*
G01*
X38198224Y10715500D03*
G01*
X38103202Y11731496D03*
G01*
X38103202Y11636475D03*
G01*
X38198219Y11636475D03*
G01*
X38198224Y11731497D03*
G01*
X37087205Y9699501D03*
G01*
X37087205Y9604480D03*
G01*
X37182221Y9604480D03*
G01*
X37182226Y9699503D03*
G01*
X37087205Y10715499D03*
G01*
X37087205Y10620477D03*
G01*
X37182221Y10620477D03*
G01*
X37182226Y10715500D03*
G01*
X37087205Y11731496D03*
G01*
X37087205Y11636475D03*
G01*
X37182221Y11636475D03*
G01*
X37182226Y11731497D03*
D13*
G01*
X37312526Y11738483D03*
D14*
G01*
X37312526Y11629471D03*
D13*
G01*
X37312526Y10722485D03*
D14*
G01*
X37312526Y10613473D03*
D13*
G01*
X37312526Y9706488D03*
D14*
G01*
X37312526Y9597476D03*
D13*
G01*
X38328526Y11738483D03*
D14*
G01*
X38328526Y11629471D03*
D13*
G01*
X38328526Y10722485D03*
D14*
G01*
X38328526Y10613473D03*
D13*
G01*
X38328526Y9706488D03*
D14*
G01*
X38328526Y9597476D03*
D13*
G01*
X39344523Y11738483D03*
D14*
G01*
X39344523Y11629471D03*
D13*
G01*
X39344523Y10722485D03*
D14*
G01*
X39344523Y10613473D03*
D13*
G01*
X39344523Y9706488D03*
D14*
G01*
X39344523Y9597476D03*
D12*
G01*
X35106008Y9699501D03*
G01*
X35106008Y9604480D03*
G01*
X35201024Y9604480D03*
G01*
X35201029Y9699503D03*
G01*
X35106008Y10715499D03*
G01*
X35106008Y10620477D03*
G01*
X35201024Y10620477D03*
G01*
X35201029Y10715500D03*
G01*
X35106008Y11731496D03*
G01*
X35106008Y11636475D03*
G01*
X35201024Y11636475D03*
G01*
X35201029Y11731497D03*
G01*
X34090010Y9699501D03*
G01*
X34090010Y9604480D03*
G01*
X34185026Y9604480D03*
G01*
X34185031Y9699503D03*
G01*
X34090010Y10715499D03*
G01*
X34090010Y10620477D03*
G01*
X34185026Y10620477D03*
G01*
X34185031Y10715500D03*
G01*
X34090010Y11731496D03*
G01*
X34090010Y11636475D03*
G01*
X34185026Y11636475D03*
G01*
X34185031Y11731497D03*
G01*
X33074013Y9699501D03*
G01*
X33074013Y9604480D03*
G01*
X33169029Y9604480D03*
G01*
X33169034Y9699503D03*
G01*
X33074013Y10715499D03*
G01*
X33074013Y10620477D03*
G01*
X33169029Y10620477D03*
G01*
X33169034Y10715500D03*
G01*
X33074013Y11731496D03*
G01*
X33074013Y11636475D03*
G01*
X33169029Y11636475D03*
G01*
X33169034Y11731497D03*
D13*
G01*
X33299333Y11738483D03*
D14*
G01*
X33299333Y11629471D03*
D13*
G01*
X33299333Y10722485D03*
D14*
G01*
X33299333Y10613473D03*
D13*
G01*
X33299333Y9706488D03*
D14*
G01*
X33299333Y9597476D03*
D13*
G01*
X34315333Y11738483D03*
D14*
G01*
X34315333Y11629471D03*
D13*
G01*
X34315333Y10722485D03*
D14*
G01*
X34315333Y10613473D03*
D13*
G01*
X34315333Y9706488D03*
D14*
G01*
X34315333Y9597476D03*
D13*
G01*
X35331331Y11738483D03*
D14*
G01*
X35331331Y11629471D03*
D13*
G01*
X35331331Y10722485D03*
D14*
G01*
X35331331Y10613473D03*
D13*
G01*
X35331331Y9706488D03*
D14*
G01*
X35331331Y9597476D03*
D12*
G01*
X31092815Y9699501D03*
G01*
X31092815Y9604480D03*
G01*
X31187831Y9604480D03*
G01*
X31187837Y9699503D03*
G01*
X31092815Y10715499D03*
G01*
X31092815Y10620477D03*
G01*
X31187831Y10620477D03*
G01*
X31187837Y10715500D03*
G01*
X31092815Y11731496D03*
G01*
X31092815Y11636475D03*
G01*
X31187831Y11636475D03*
G01*
X31187837Y11731497D03*
G01*
X30076818Y9699501D03*
G01*
X30076818Y9604480D03*
G01*
X30171834Y9604480D03*
G01*
X30171839Y9699503D03*
G01*
X30076818Y10715499D03*
G01*
X30076818Y10620477D03*
G01*
X30171834Y10620477D03*
G01*
X30171839Y10715500D03*
G01*
X30076818Y11731496D03*
G01*
X30076818Y11636475D03*
G01*
X30171834Y11636475D03*
G01*
X30171839Y11731497D03*
G01*
X29060820Y9699501D03*
G01*
X29060820Y9604480D03*
G01*
X29155837Y9604480D03*
G01*
X29155842Y9699503D03*
G01*
X29060820Y10715499D03*
G01*
X29060820Y10620477D03*
G01*
X29155837Y10620477D03*
G01*
X29155842Y10715500D03*
G01*
X29060820Y11731496D03*
G01*
X29060820Y11636475D03*
G01*
X29155837Y11636475D03*
G01*
X29155842Y11731497D03*
D13*
G01*
X29286141Y11738483D03*
D14*
G01*
X29286141Y11629471D03*
D13*
G01*
X29286141Y10722485D03*
D14*
G01*
X29286141Y10613473D03*
D13*
G01*
X29286141Y9706488D03*
D14*
G01*
X29286141Y9597476D03*
D13*
G01*
X30302141Y11738483D03*
D14*
G01*
X30302141Y11629471D03*
D13*
G01*
X30302141Y10722485D03*
D14*
G01*
X30302141Y10613473D03*
D13*
G01*
X30302141Y9706488D03*
D14*
G01*
X30302141Y9597476D03*
D13*
G01*
X31318139Y11738483D03*
D14*
G01*
X31318139Y11629471D03*
D13*
G01*
X31318139Y10722485D03*
D14*
G01*
X31318139Y10613473D03*
D13*
G01*
X31318139Y9706488D03*
D14*
G01*
X31318139Y9597476D03*
D12*
G01*
X27079623Y9699501D03*
G01*
X27079623Y9604480D03*
G01*
X27174639Y9604480D03*
G01*
X27174644Y9699503D03*
G01*
X27079623Y10715499D03*
G01*
X27079623Y10620477D03*
G01*
X27174639Y10620477D03*
G01*
X27174644Y10715500D03*
G01*
X27079623Y11731496D03*
G01*
X27079623Y11636475D03*
G01*
X27174639Y11636475D03*
G01*
X27174644Y11731497D03*
G01*
X26063625Y9699501D03*
G01*
X26063625Y9604480D03*
G01*
X26158642Y9604480D03*
G01*
X26158647Y9699503D03*
G01*
X26063625Y10715499D03*
G01*
X26063625Y10620477D03*
G01*
X26158642Y10620477D03*
G01*
X26158647Y10715500D03*
G01*
X26063625Y11731496D03*
G01*
X26063625Y11636475D03*
G01*
X26158642Y11636475D03*
G01*
X26158647Y11731497D03*
G01*
X25047628Y9699501D03*
G01*
X25047628Y9604480D03*
G01*
X25142644Y9604480D03*
G01*
X25142649Y9699503D03*
G01*
X25047628Y10715499D03*
G01*
X25047628Y10620477D03*
G01*
X25142644Y10620477D03*
G01*
X25142649Y10715500D03*
G01*
X25047628Y11731496D03*
G01*
X25047628Y11636475D03*
G01*
X25142644Y11636475D03*
G01*
X25142649Y11731497D03*
D13*
G01*
X25272949Y11738483D03*
D14*
G01*
X25272949Y11629471D03*
D13*
G01*
X25272949Y10722485D03*
D14*
G01*
X25272949Y10613473D03*
D13*
G01*
X25272949Y9706488D03*
D14*
G01*
X25272949Y9597476D03*
D13*
G01*
X26288949Y11738483D03*
D14*
G01*
X26288949Y11629471D03*
D13*
G01*
X26288949Y10722485D03*
D14*
G01*
X26288949Y10613473D03*
D13*
G01*
X26288949Y9706488D03*
D14*
G01*
X26288949Y9597476D03*
D13*
G01*
X27304946Y11738483D03*
D14*
G01*
X27304946Y11629471D03*
D13*
G01*
X27304946Y10722485D03*
D14*
G01*
X27304946Y10613473D03*
D13*
G01*
X27304946Y9706488D03*
D14*
G01*
X27304946Y9597476D03*
D12*
G01*
X23066430Y9699501D03*
G01*
X23066430Y9604480D03*
G01*
X23161447Y9604480D03*
G01*
X23161452Y9699503D03*
G01*
X23066430Y10715499D03*
G01*
X23066430Y10620477D03*
G01*
X23161447Y10620477D03*
G01*
X23161452Y10715500D03*
G01*
X23066430Y11731496D03*
G01*
X23066430Y11636475D03*
G01*
X23161447Y11636475D03*
G01*
X23161452Y11731497D03*
G01*
X22050433Y9699501D03*
G01*
X22050433Y9604480D03*
G01*
X22145449Y9604480D03*
G01*
X22145454Y9699503D03*
G01*
X22050433Y10715499D03*
G01*
X22050433Y10620477D03*
G01*
X22145449Y10620477D03*
G01*
X22145454Y10715500D03*
G01*
X22050433Y11731496D03*
G01*
X22050433Y11636475D03*
G01*
X22145449Y11636475D03*
G01*
X22145454Y11731497D03*
G01*
X21034435Y9699501D03*
G01*
X21034435Y9604480D03*
G01*
X21129452Y9604480D03*
G01*
X21129457Y9699503D03*
G01*
X21034435Y10715499D03*
G01*
X21034435Y10620477D03*
G01*
X21129452Y10620477D03*
G01*
X21129457Y10715500D03*
G01*
X21034435Y11731496D03*
G01*
X21034435Y11636475D03*
G01*
X21129452Y11636475D03*
G01*
X21129457Y11731497D03*
D13*
G01*
X21259756Y11738483D03*
D14*
G01*
X21259756Y11629471D03*
D13*
G01*
X21259756Y10722485D03*
D14*
G01*
X21259756Y10613473D03*
D13*
G01*
X21259756Y9706488D03*
D14*
G01*
X21259756Y9597476D03*
D13*
G01*
X22275756Y11738483D03*
D14*
G01*
X22275756Y11629471D03*
D13*
G01*
X22275756Y10722485D03*
D14*
G01*
X22275756Y10613473D03*
D13*
G01*
X22275756Y9706488D03*
D14*
G01*
X22275756Y9597476D03*
D13*
G01*
X23291754Y11738483D03*
D14*
G01*
X23291754Y11629471D03*
D13*
G01*
X23291754Y10722485D03*
D14*
G01*
X23291754Y10613473D03*
D13*
G01*
X23291754Y9706488D03*
D14*
G01*
X23291754Y9597476D03*
D12*
G01*
X19053238Y9699501D03*
G01*
X19053238Y9604480D03*
G01*
X19148254Y9604480D03*
G01*
X19148259Y9699503D03*
G01*
X19053238Y10715499D03*
G01*
X19053238Y10620477D03*
G01*
X19148254Y10620477D03*
G01*
X19148259Y10715500D03*
G01*
X19053238Y11731496D03*
G01*
X19053238Y11636475D03*
G01*
X19148254Y11636475D03*
G01*
X19148259Y11731497D03*
G01*
X18037241Y9699501D03*
G01*
X18037241Y9604480D03*
G01*
X18132257Y9604480D03*
G01*
X18132262Y9699503D03*
G01*
X18037241Y10715499D03*
G01*
X18037241Y10620477D03*
G01*
X18132257Y10620477D03*
G01*
X18132262Y10715500D03*
G01*
X18037241Y11731496D03*
G01*
X18037241Y11636475D03*
G01*
X18132257Y11636475D03*
G01*
X18132262Y11731497D03*
G01*
X17021243Y9699501D03*
G01*
X17021243Y9604480D03*
G01*
X17116259Y9604480D03*
G01*
X17116264Y9699503D03*
G01*
X17021243Y10715499D03*
G01*
X17021243Y10620477D03*
G01*
X17116259Y10620477D03*
G01*
X17116264Y10715500D03*
G01*
X17021243Y11731496D03*
G01*
X17021243Y11636475D03*
G01*
X17116259Y11636475D03*
G01*
X17116264Y11731497D03*
D13*
G01*
X17246564Y11738483D03*
D14*
G01*
X17246564Y11629471D03*
D13*
G01*
X17246564Y10722485D03*
D14*
G01*
X17246564Y10613473D03*
D13*
G01*
X17246564Y9706488D03*
D14*
G01*
X17246564Y9597476D03*
D13*
G01*
X18262564Y11738483D03*
D14*
G01*
X18262564Y11629471D03*
D13*
G01*
X18262564Y10722485D03*
D14*
G01*
X18262564Y10613473D03*
D13*
G01*
X18262564Y9706488D03*
D14*
G01*
X18262564Y9597476D03*
D13*
G01*
X19278561Y11738483D03*
D14*
G01*
X19278561Y11629471D03*
D13*
G01*
X19278561Y10722485D03*
D14*
G01*
X19278561Y10613473D03*
D13*
G01*
X19278561Y9706488D03*
D14*
G01*
X19278561Y9597476D03*
D12*
G01*
X15040048Y9699501D03*
G01*
X15040048Y9604480D03*
G01*
X15135064Y9604480D03*
G01*
X15135070Y9699503D03*
G01*
X15040048Y10715499D03*
G01*
X15040048Y10620477D03*
G01*
X15135064Y10620477D03*
G01*
X15135070Y10715500D03*
G01*
X15040048Y11731496D03*
G01*
X15040048Y11636475D03*
G01*
X15135064Y11636475D03*
G01*
X15135070Y11731497D03*
G01*
X14024051Y9699501D03*
G01*
X14024051Y9604480D03*
G01*
X14119067Y9604480D03*
G01*
X14119072Y9699503D03*
G01*
X14024051Y10715499D03*
G01*
X14024051Y10620477D03*
G01*
X14119067Y10620477D03*
G01*
X14119072Y10715500D03*
G01*
X14024051Y11731496D03*
G01*
X14024051Y11636475D03*
G01*
X14119067Y11636475D03*
G01*
X14119072Y11731497D03*
G01*
X13008053Y9699501D03*
G01*
X13008053Y9604480D03*
G01*
X13103070Y9604480D03*
G01*
X13103075Y9699503D03*
G01*
X13008053Y10715499D03*
G01*
X13008053Y10620477D03*
G01*
X13103070Y10620477D03*
G01*
X13103075Y10715500D03*
G01*
X13008053Y11731496D03*
G01*
X13008053Y11636475D03*
G01*
X13103070Y11636475D03*
G01*
X13103075Y11731497D03*
D13*
G01*
X13233374Y11738483D03*
D14*
G01*
X13233374Y11629471D03*
D13*
G01*
X13233374Y10722485D03*
D14*
G01*
X13233374Y10613473D03*
D13*
G01*
X13233374Y9706488D03*
D14*
G01*
X13233374Y9597476D03*
D13*
G01*
X14249374Y11738483D03*
D14*
G01*
X14249374Y11629471D03*
D13*
G01*
X14249374Y10722485D03*
D14*
G01*
X14249374Y10613473D03*
D13*
G01*
X14249374Y9706488D03*
D14*
G01*
X14249374Y9597476D03*
D13*
G01*
X15265372Y11738483D03*
D14*
G01*
X15265372Y11629471D03*
D13*
G01*
X15265372Y10722485D03*
D14*
G01*
X15265372Y10613473D03*
D13*
G01*
X15265372Y9706488D03*
D14*
G01*
X15265372Y9597476D03*
D12*
G01*
X11026856Y9699501D03*
G01*
X11026856Y9604480D03*
G01*
X11121872Y9604480D03*
G01*
X11121877Y9699503D03*
G01*
X11026856Y10715499D03*
G01*
X11026856Y10620477D03*
G01*
X11121872Y10620477D03*
G01*
X11121877Y10715500D03*
G01*
X11026856Y11731496D03*
G01*
X11026856Y11636475D03*
G01*
X11121872Y11636475D03*
G01*
X11121877Y11731497D03*
G01*
X10010858Y9699501D03*
G01*
X10010858Y9604480D03*
G01*
X10105875Y9604480D03*
G01*
X10105880Y9699503D03*
G01*
X10010858Y10715499D03*
G01*
X10010858Y10620477D03*
G01*
X10105875Y10620477D03*
G01*
X10105880Y10715500D03*
G01*
X10010858Y11731496D03*
G01*
X10010858Y11636475D03*
G01*
X10105875Y11636475D03*
G01*
X10105880Y11731497D03*
G01*
X8994861Y9699501D03*
G01*
X8994861Y9604480D03*
G01*
X9089877Y9604480D03*
G01*
X9089882Y9699503D03*
G01*
X8994861Y10715499D03*
G01*
X8994861Y10620477D03*
G01*
X9089877Y10620477D03*
G01*
X9089882Y10715500D03*
G01*
X8994861Y11731496D03*
G01*
X8994861Y11636475D03*
G01*
X9089877Y11636475D03*
G01*
X9089882Y11731497D03*
D13*
G01*
X9220182Y11738483D03*
D14*
G01*
X9220182Y11629471D03*
D13*
G01*
X9220182Y10722485D03*
D14*
G01*
X9220182Y10613473D03*
D13*
G01*
X9220182Y9706488D03*
D14*
G01*
X9220182Y9597476D03*
D13*
G01*
X10236182Y11738483D03*
D14*
G01*
X10236182Y11629471D03*
D13*
G01*
X10236182Y10722485D03*
D14*
G01*
X10236182Y10613473D03*
D13*
G01*
X10236182Y9706488D03*
D14*
G01*
X10236182Y9597476D03*
D13*
G01*
X11252179Y11738483D03*
D14*
G01*
X11252179Y11629471D03*
D13*
G01*
X11252179Y10722485D03*
D14*
G01*
X11252179Y10613473D03*
D13*
G01*
X11252179Y9706488D03*
D14*
G01*
X11252179Y9597476D03*
D12*
G01*
X7013663Y9699501D03*
G01*
X7013663Y9604480D03*
G01*
X7108680Y9604480D03*
G01*
X7108685Y9699503D03*
G01*
X7013663Y10715499D03*
G01*
X7013663Y10620477D03*
G01*
X7108680Y10620477D03*
G01*
X7108685Y10715500D03*
G01*
X7013663Y11731496D03*
G01*
X7013663Y11636475D03*
G01*
X7108680Y11636475D03*
G01*
X7108685Y11731497D03*
G01*
X5997666Y9699501D03*
G01*
X5997666Y9604480D03*
G01*
X6092682Y9604480D03*
G01*
X6092687Y9699503D03*
G01*
X5997666Y10715499D03*
G01*
X5997666Y10620477D03*
G01*
X6092682Y10620477D03*
G01*
X6092687Y10715500D03*
G01*
X5997666Y11731496D03*
G01*
X5997666Y11636475D03*
G01*
X6092682Y11636475D03*
G01*
X6092687Y11731497D03*
G01*
X4981668Y9699501D03*
G01*
X4981668Y9604480D03*
G01*
X5076685Y9604480D03*
G01*
X5076690Y9699503D03*
G01*
X4981668Y10715499D03*
G01*
X4981668Y10620477D03*
G01*
X5076685Y10620477D03*
G01*
X5076690Y10715500D03*
G01*
X4981668Y11731496D03*
G01*
X4981668Y11636475D03*
G01*
X5076685Y11636475D03*
G01*
X5076690Y11731497D03*
D13*
G01*
X5206989Y11738483D03*
D14*
G01*
X5206989Y11629471D03*
D13*
G01*
X5206989Y10722485D03*
D14*
G01*
X5206989Y10613473D03*
D13*
G01*
X5206989Y9706488D03*
D14*
G01*
X5206989Y9597476D03*
D13*
G01*
X6222989Y11738483D03*
D14*
G01*
X6222989Y11629471D03*
D13*
G01*
X6222989Y10722485D03*
D14*
G01*
X6222989Y10613473D03*
D13*
G01*
X6222989Y9706488D03*
D14*
G01*
X6222989Y9597476D03*
D13*
G01*
X7238987Y11738483D03*
D14*
G01*
X7238987Y11629471D03*
D13*
G01*
X7238987Y10722485D03*
D14*
G01*
X7238987Y10613473D03*
D13*
G01*
X7238987Y9706488D03*
D14*
G01*
X7238987Y9597476D03*
D12*
G01*
X39119200Y1571517D03*
G01*
X39119200Y1476495D03*
G01*
X39214216Y1476495D03*
G01*
X39214221Y1571518D03*
G01*
X39119200Y2587514D03*
G01*
X39119200Y2492493D03*
G01*
X39214216Y2492493D03*
G01*
X39214221Y2587515D03*
G01*
X39119200Y3603511D03*
G01*
X39119200Y3508490D03*
G01*
X39214216Y3508490D03*
G01*
X39214221Y3603513D03*
G01*
X38103202Y1571517D03*
G01*
X38103202Y1476495D03*
G01*
X38198219Y1476495D03*
G01*
X38198224Y1571518D03*
G01*
X38103202Y2587514D03*
G01*
X38103202Y2492493D03*
G01*
X38198219Y2492493D03*
G01*
X38198224Y2587515D03*
G01*
X38103202Y3603511D03*
G01*
X38103202Y3508490D03*
G01*
X38198219Y3508490D03*
G01*
X38198224Y3603513D03*
G01*
X37087205Y1571517D03*
G01*
X37087205Y1476495D03*
G01*
X37182221Y1476495D03*
G01*
X37182226Y1571518D03*
G01*
X37087205Y2587514D03*
G01*
X37087205Y2492493D03*
G01*
X37182221Y2492493D03*
G01*
X37182226Y2587515D03*
G01*
X37087205Y3603511D03*
G01*
X37087205Y3508490D03*
G01*
X37182221Y3508490D03*
G01*
X37182226Y3603513D03*
D13*
G01*
X37312526Y3610498D03*
D14*
G01*
X37312526Y3501486D03*
D13*
G01*
X37312526Y2594500D03*
D14*
G01*
X37312526Y2485489D03*
D13*
G01*
X37312526Y1578503D03*
D14*
G01*
X37312526Y1469491D03*
D13*
G01*
X38328526Y3610498D03*
D14*
G01*
X38328526Y3501486D03*
D13*
G01*
X38328526Y2594500D03*
D14*
G01*
X38328526Y2485489D03*
D13*
G01*
X38328526Y1578503D03*
D14*
G01*
X38328526Y1469491D03*
D13*
G01*
X39344523Y3610498D03*
D14*
G01*
X39344523Y3501486D03*
D13*
G01*
X39344523Y2594500D03*
D14*
G01*
X39344523Y2485489D03*
D13*
G01*
X39344523Y1578503D03*
D14*
G01*
X39344523Y1469491D03*
D13*
G01*
X43357713Y1578503D03*
D14*
G01*
X43357713Y1469491D03*
D13*
G01*
X43357713Y2594500D03*
D14*
G01*
X43357713Y2485489D03*
D13*
G01*
X43357713Y3610498D03*
D14*
G01*
X43357713Y3501486D03*
D13*
G01*
X42341716Y1578503D03*
D14*
G01*
X42341716Y1469491D03*
D13*
G01*
X42341716Y2594500D03*
D14*
G01*
X42341716Y2485489D03*
D13*
G01*
X42341716Y3610498D03*
D14*
G01*
X42341716Y3501486D03*
D13*
G01*
X41325716Y1578503D03*
D14*
G01*
X41325716Y1469491D03*
D13*
G01*
X41325716Y2594500D03*
D14*
G01*
X41325716Y2485489D03*
D13*
G01*
X41325716Y3610498D03*
D14*
G01*
X41325716Y3501486D03*
D12*
G01*
X41100395Y3603511D03*
G01*
X41100395Y3508490D03*
G01*
X41195411Y3508490D03*
G01*
X41195416Y3603513D03*
G01*
X41100395Y2587514D03*
G01*
X41100395Y2492493D03*
G01*
X41195411Y2492493D03*
G01*
X41195416Y2587515D03*
G01*
X41100395Y1571517D03*
G01*
X41100395Y1476495D03*
G01*
X41195411Y1476495D03*
G01*
X41195416Y1571518D03*
G01*
X42116392Y3603511D03*
G01*
X42116392Y3508490D03*
G01*
X42211409Y3508490D03*
G01*
X42211414Y3603513D03*
G01*
X42116392Y2587514D03*
G01*
X42116392Y2492493D03*
G01*
X42211409Y2492493D03*
G01*
X42211414Y2587515D03*
G01*
X42116392Y1571517D03*
G01*
X42116392Y1476495D03*
G01*
X42211409Y1476495D03*
G01*
X42211414Y1571518D03*
G01*
X43132390Y3603511D03*
G01*
X43132390Y3508490D03*
G01*
X43227406Y3508490D03*
G01*
X43227411Y3603513D03*
G01*
X43132390Y2587514D03*
G01*
X43132390Y2492493D03*
G01*
X43227406Y2492493D03*
G01*
X43227411Y2587515D03*
G01*
X43132390Y1571517D03*
G01*
X43132390Y1476495D03*
G01*
X43227406Y1476495D03*
G01*
X43227411Y1571518D03*
D15*
G01*
X2794000Y279400D03*
G01*
X2793898Y8191500D03*
G01*
X2793898Y5016500D03*
G01*
X2794000Y13004774D03*
G01*
X24129949Y279400D03*
G01*
X24129949Y13004774D03*
G01*
X45465898Y5016500D03*
G01*
X45465898Y8191500D03*
G01*
X45466000Y13004774D03*
G01*
X45466000Y279400D03*
M02*
