G04 Layer: BottomSilkscreenLayer*
G04 EasyEDA v6.5.34, 2023-08-29 14:05:22*
G04 1a86289a42df4e27bbccf9d7e9f42b7b,5a6b42c53f6a479593ecc07194224c93,10*
G04 Gerber Generator version 0.2*
G04 Scale: 100 percent, Rotated: No, Reflected: No *
G04 Dimensions in millimeters *
G04 leading zeros omitted , absolute positions ,4 integer and 5 decimal *
%FSLAX45Y45*%
%MOMM*%

%ADD10C,0.2032*%
%ADD11C,0.1520*%
%ADD12C,0.1524*%
%ADD13C,0.2540*%

%LPD*%
D10*
X43967323Y451289D02*
G01*
X43967323Y336745D01*
X43967323Y451289D02*
G01*
X43918233Y451289D01*
X43901870Y445836D01*
X43896414Y440382D01*
X43890961Y429473D01*
X43890961Y413108D01*
X43896414Y402199D01*
X43901870Y396745D01*
X43918233Y391289D01*
X43967323Y391289D01*
X43811324Y451289D02*
G01*
X43854959Y336745D01*
X43811324Y451289D02*
G01*
X43767687Y336745D01*
X43838596Y374926D02*
G01*
X43784052Y374926D01*
X43731688Y451289D02*
G01*
X43731688Y336745D01*
X43731688Y451289D02*
G01*
X43682597Y451289D01*
X43666234Y445836D01*
X43660778Y440382D01*
X43655324Y429473D01*
X43655324Y418564D01*
X43660778Y407654D01*
X43666234Y402199D01*
X43682597Y396745D01*
X43731688Y396745D01*
X43693506Y396745D02*
G01*
X43655324Y336745D01*
X43581142Y451289D02*
G01*
X43581142Y336745D01*
X43619323Y451289D02*
G01*
X43542960Y451289D01*
X43422961Y451289D02*
G01*
X43422961Y336745D01*
X43422961Y451289D02*
G01*
X43346598Y336745D01*
X43346598Y451289D02*
G01*
X43346598Y336745D01*
X43310596Y451289D02*
G01*
X43310596Y369473D01*
X43305143Y353108D01*
X43294233Y342199D01*
X43277871Y336745D01*
X43266961Y336745D01*
X43250596Y342199D01*
X43239690Y353108D01*
X43234234Y369473D01*
X43234234Y451289D01*
X43198234Y451289D02*
G01*
X43198234Y336745D01*
X43198234Y451289D02*
G01*
X43154597Y336745D01*
X43110962Y451289D02*
G01*
X43154597Y336745D01*
X43110962Y451289D02*
G01*
X43110962Y336745D01*
X43074960Y451289D02*
G01*
X43074960Y336745D01*
X43074960Y451289D02*
G01*
X43025870Y451289D01*
X43009507Y445836D01*
X43004054Y440382D01*
X42998598Y429473D01*
X42998598Y418564D01*
X43004054Y407654D01*
X43009507Y402199D01*
X43025870Y396745D01*
X43074960Y396745D02*
G01*
X43025870Y396745D01*
X43009507Y391289D01*
X43004054Y385836D01*
X42998598Y374926D01*
X42998598Y358564D01*
X43004054Y347654D01*
X43009507Y342199D01*
X43025870Y336745D01*
X43074960Y336745D01*
X42962598Y451289D02*
G01*
X42962598Y336745D01*
X42962598Y451289D02*
G01*
X42891689Y451289D01*
X42962598Y396745D02*
G01*
X42918961Y396745D01*
X42962598Y336745D02*
G01*
X42891689Y336745D01*
X42855690Y451289D02*
G01*
X42855690Y336745D01*
X42855690Y451289D02*
G01*
X42806599Y451289D01*
X42790234Y445836D01*
X42784781Y440382D01*
X42779325Y429473D01*
X42779325Y418564D01*
X42784781Y407654D01*
X42790234Y402199D01*
X42806599Y396745D01*
X42855690Y396745D01*
X42817508Y396745D02*
G01*
X42779325Y336745D01*
X42659325Y429473D02*
G01*
X42648416Y434926D01*
X42632053Y451289D01*
X42632053Y336745D01*
X42568782Y451289D02*
G01*
X42585144Y445836D01*
X42590598Y434926D01*
X42590598Y424017D01*
X42585144Y413108D01*
X42574235Y407654D01*
X42552416Y402199D01*
X42536054Y396745D01*
X42525144Y385836D01*
X42519691Y374926D01*
X42519691Y358564D01*
X42525144Y347654D01*
X42530598Y342199D01*
X42546963Y336745D01*
X42568782Y336745D01*
X42585144Y342199D01*
X42590598Y347654D01*
X42596054Y358564D01*
X42596054Y374926D01*
X42590598Y385836D01*
X42579691Y396745D01*
X42563326Y402199D01*
X42541507Y407654D01*
X42530598Y413108D01*
X42525144Y424017D01*
X42525144Y434926D01*
X42530598Y445836D01*
X42546963Y451289D01*
X42568782Y451289D01*
X42407326Y451289D02*
G01*
X42461873Y336745D01*
X42483689Y451289D02*
G01*
X42407326Y451289D01*
X42338599Y451289D02*
G01*
X42354962Y445836D01*
X42365871Y429473D01*
X42371327Y402199D01*
X42371327Y385836D01*
X42365871Y358564D01*
X42354962Y342199D01*
X42338599Y336745D01*
X42327690Y336745D01*
X42311327Y342199D01*
X42300418Y358564D01*
X42294962Y385836D01*
X42294962Y402199D01*
X42300418Y429473D01*
X42311327Y445836D01*
X42327690Y451289D01*
X42338599Y451289D01*
X42258962Y385836D02*
G01*
X42160781Y385836D01*
X42092054Y451289D02*
G01*
X42108417Y445836D01*
X42119326Y429473D01*
X42124782Y402199D01*
X42124782Y385836D01*
X42119326Y358564D01*
X42108417Y342199D01*
X42092054Y336745D01*
X42081145Y336745D01*
X42064782Y342199D01*
X42053873Y358564D01*
X42048417Y385836D01*
X42048417Y402199D01*
X42053873Y429473D01*
X42064782Y445836D01*
X42081145Y451289D01*
X42092054Y451289D01*
X42001508Y451289D02*
G01*
X41941508Y451289D01*
X41974236Y407654D01*
X41957873Y407654D01*
X41946964Y402199D01*
X41941508Y396745D01*
X41936055Y380382D01*
X41936055Y369473D01*
X41941508Y353108D01*
X41952418Y342199D01*
X41968783Y336745D01*
X41985145Y336745D01*
X42001508Y342199D01*
X42006964Y347654D01*
X42012417Y358564D01*
X41867327Y451289D02*
G01*
X41883690Y445836D01*
X41894599Y429473D01*
X41900055Y402199D01*
X41900055Y385836D01*
X41894599Y358564D01*
X41883690Y342199D01*
X41867327Y336745D01*
X41856418Y336745D01*
X41840056Y342199D01*
X41829146Y358564D01*
X41823690Y385836D01*
X41823690Y402199D01*
X41829146Y429473D01*
X41840056Y445836D01*
X41856418Y451289D01*
X41867327Y451289D01*
X41787691Y429473D02*
G01*
X41776782Y434926D01*
X41760419Y451289D01*
X41760419Y336745D01*
X41640419Y451289D02*
G01*
X41596782Y336745D01*
X41553147Y451289D02*
G01*
X41596782Y336745D01*
X41484420Y451289D02*
G01*
X41500783Y445836D01*
X41511692Y429473D01*
X41517145Y402199D01*
X41517145Y385836D01*
X41511692Y358564D01*
X41500783Y342199D01*
X41484420Y336745D01*
X41473511Y336745D01*
X41457145Y342199D01*
X41446239Y358564D01*
X41440783Y385836D01*
X41440783Y402199D01*
X41446239Y429473D01*
X41457145Y445836D01*
X41473511Y451289D01*
X41484420Y451289D01*
X41399327Y364017D02*
G01*
X41404783Y358564D01*
X41399327Y353108D01*
X41393874Y358564D01*
X41399327Y364017D01*
X41357875Y429473D02*
G01*
X41346965Y434926D01*
X41330600Y451289D01*
X41330600Y336745D01*
X43890961Y663526D02*
G01*
X43901870Y674436D01*
X43918233Y679889D01*
X43940051Y679889D01*
X43956414Y674436D01*
X43967323Y663526D01*
X43967323Y652617D01*
X43961870Y641708D01*
X43956414Y636254D01*
X43945505Y630799D01*
X43912777Y619889D01*
X43901870Y614436D01*
X43896414Y608982D01*
X43890961Y598073D01*
X43890961Y581708D01*
X43901870Y570799D01*
X43918233Y565345D01*
X43940051Y565345D01*
X43956414Y570799D01*
X43967323Y581708D01*
X43854959Y679889D02*
G01*
X43854959Y598073D01*
X43849505Y581708D01*
X43838596Y570799D01*
X43822233Y565345D01*
X43811324Y565345D01*
X43794959Y570799D01*
X43784052Y581708D01*
X43778596Y598073D01*
X43778596Y679889D01*
X43742597Y679889D02*
G01*
X43742597Y565345D01*
X43742597Y679889D02*
G01*
X43693506Y679889D01*
X43677141Y674436D01*
X43671688Y668982D01*
X43666234Y658073D01*
X43666234Y647164D01*
X43671688Y636254D01*
X43677141Y630799D01*
X43693506Y625345D01*
X43742597Y625345D02*
G01*
X43693506Y625345D01*
X43677141Y619889D01*
X43671688Y614436D01*
X43666234Y603526D01*
X43666234Y587164D01*
X43671688Y576254D01*
X43677141Y570799D01*
X43693506Y565345D01*
X43742597Y565345D01*
X43553870Y663526D02*
G01*
X43564779Y674436D01*
X43581142Y679889D01*
X43602960Y679889D01*
X43619323Y674436D01*
X43630232Y663526D01*
X43630232Y652617D01*
X43624779Y641708D01*
X43619323Y636254D01*
X43608414Y630799D01*
X43575688Y619889D01*
X43564779Y614436D01*
X43559323Y608982D01*
X43553870Y598073D01*
X43553870Y581708D01*
X43564779Y570799D01*
X43581142Y565345D01*
X43602960Y565345D01*
X43619323Y570799D01*
X43630232Y581708D01*
X43479689Y679889D02*
G01*
X43479689Y565345D01*
X43517870Y679889D02*
G01*
X43441505Y679889D01*
X43361871Y679889D02*
G01*
X43405506Y565345D01*
X43361871Y679889D02*
G01*
X43318234Y565345D01*
X43389143Y603526D02*
G01*
X43334597Y603526D01*
X43244053Y679889D02*
G01*
X43244053Y565345D01*
X43282234Y679889D02*
G01*
X43205869Y679889D01*
X43169870Y679889D02*
G01*
X43169870Y565345D01*
X43101143Y679889D02*
G01*
X43112052Y674436D01*
X43122961Y663526D01*
X43128415Y652617D01*
X43133871Y636254D01*
X43133871Y608982D01*
X43128415Y592617D01*
X43122961Y581708D01*
X43112052Y570799D01*
X43101143Y565345D01*
X43079324Y565345D01*
X43068415Y570799D01*
X43057508Y581708D01*
X43052052Y592617D01*
X43046599Y608982D01*
X43046599Y636254D01*
X43052052Y652617D01*
X43057508Y663526D01*
X43068415Y674436D01*
X43079324Y679889D01*
X43101143Y679889D01*
X43010597Y679889D02*
G01*
X43010597Y565345D01*
X43010597Y679889D02*
G01*
X42934234Y565345D01*
X42934234Y679889D02*
G01*
X42934234Y565345D01*
X42803325Y679889D02*
G01*
X42743325Y679889D01*
X42776053Y636254D01*
X42759690Y636254D01*
X42748781Y630799D01*
X42743325Y625345D01*
X42737872Y608982D01*
X42737872Y598073D01*
X42743325Y581708D01*
X42754235Y570799D01*
X42770597Y565345D01*
X42786962Y565345D01*
X42803325Y570799D01*
X42808781Y576254D01*
X42814234Y587164D01*
X42701872Y679889D02*
G01*
X42701872Y598073D01*
X42696417Y581708D01*
X42685507Y570799D01*
X42669145Y565345D01*
X42658235Y565345D01*
X42641873Y570799D01*
X42630963Y581708D01*
X42625507Y598073D01*
X42625507Y679889D01*
X42461873Y679889D02*
G01*
X42505508Y565345D01*
X42461873Y679889D02*
G01*
X42418236Y565345D01*
X42489145Y603526D02*
G01*
X42434598Y603526D01*
X42382236Y679889D02*
G01*
X42382236Y565345D01*
X42382236Y679889D02*
G01*
X42305871Y565345D01*
X42305871Y679889D02*
G01*
X42305871Y565345D01*
X42269872Y679889D02*
G01*
X42269872Y565345D01*
X42269872Y679889D02*
G01*
X42193509Y565345D01*
X42193509Y679889D02*
G01*
X42193509Y565345D01*
X42157510Y679889D02*
G01*
X42157510Y598073D01*
X42152054Y581708D01*
X42141145Y570799D01*
X42124782Y565345D01*
X42113873Y565345D01*
X42097510Y570799D01*
X42086601Y581708D01*
X42081145Y598073D01*
X42081145Y679889D01*
X42045145Y679889D02*
G01*
X42045145Y565345D01*
X42045145Y679889D02*
G01*
X41968783Y565345D01*
X41968783Y679889D02*
G01*
X41968783Y565345D01*
X41850965Y652617D02*
G01*
X41856418Y663526D01*
X41867327Y674436D01*
X41878237Y679889D01*
X41900055Y679889D01*
X41910965Y674436D01*
X41921874Y663526D01*
X41927327Y652617D01*
X41932781Y636254D01*
X41932781Y608982D01*
X41927327Y592617D01*
X41921874Y581708D01*
X41910965Y570799D01*
X41900055Y565345D01*
X41878237Y565345D01*
X41867327Y570799D01*
X41856418Y581708D01*
X41850965Y592617D01*
X41814963Y679889D02*
G01*
X41814963Y565345D01*
X41735329Y679889D02*
G01*
X41778963Y565345D01*
X41735329Y679889D02*
G01*
X41691692Y565345D01*
X41762601Y603526D02*
G01*
X41708054Y603526D01*
X41617511Y679889D02*
G01*
X41617511Y565345D01*
X41655692Y679889D02*
G01*
X41579327Y679889D01*
X41510600Y679889D02*
G01*
X41521509Y674436D01*
X41532418Y663526D01*
X41537874Y652617D01*
X41543328Y636254D01*
X41543328Y608982D01*
X41537874Y592617D01*
X41532418Y581708D01*
X41521509Y570799D01*
X41510600Y565345D01*
X41488784Y565345D01*
X41477874Y570799D01*
X41466965Y581708D01*
X41461509Y592617D01*
X41456056Y608982D01*
X41456056Y636254D01*
X41461509Y652617D01*
X41466965Y663526D01*
X41477874Y674436D01*
X41488784Y679889D01*
X41510600Y679889D01*
X41420056Y679889D02*
G01*
X41420056Y565345D01*
X41420056Y679889D02*
G01*
X41370966Y679889D01*
X41354601Y674436D01*
X41349147Y668982D01*
X41343691Y658073D01*
X41343691Y647164D01*
X41349147Y636254D01*
X41354601Y630799D01*
X41370966Y625345D01*
X41420056Y625345D01*
X41381875Y625345D02*
G01*
X41343691Y565345D01*
X41223691Y679889D02*
G01*
X41223691Y565345D01*
X41223691Y565345D02*
G01*
X41158238Y565345D01*
X41122239Y679889D02*
G01*
X41122239Y565345D01*
X41122239Y679889D02*
G01*
X41051330Y679889D01*
X41122239Y625345D02*
G01*
X41078602Y625345D01*
X41122239Y565345D02*
G01*
X41051330Y565345D01*
X41015330Y679889D02*
G01*
X41015330Y565345D01*
X41015330Y679889D02*
G01*
X40977146Y679889D01*
X40960784Y674436D01*
X40949874Y663526D01*
X40944421Y652617D01*
X40938965Y636254D01*
X40938965Y608982D01*
X40944421Y592617D01*
X40949874Y581708D01*
X40960784Y570799D01*
X40977146Y565345D01*
X41015330Y565345D01*
X40818965Y679889D02*
G01*
X40818965Y565345D01*
X40818965Y679889D02*
G01*
X40769875Y679889D01*
X40753512Y674436D01*
X40748056Y668982D01*
X40742603Y658073D01*
X40742603Y647164D01*
X40748056Y636254D01*
X40753512Y630799D01*
X40769875Y625345D01*
X40818965Y625345D02*
G01*
X40769875Y625345D01*
X40753512Y619889D01*
X40748056Y614436D01*
X40742603Y603526D01*
X40742603Y587164D01*
X40748056Y576254D01*
X40753512Y570799D01*
X40769875Y565345D01*
X40818965Y565345D01*
X40673875Y679889D02*
G01*
X40684785Y674436D01*
X40695694Y663526D01*
X40701147Y652617D01*
X40706603Y636254D01*
X40706603Y608982D01*
X40701147Y592617D01*
X40695694Y581708D01*
X40684785Y570799D01*
X40673875Y565345D01*
X40652057Y565345D01*
X40641148Y570799D01*
X40630238Y581708D01*
X40624785Y592617D01*
X40619329Y608982D01*
X40619329Y636254D01*
X40624785Y652617D01*
X40630238Y663526D01*
X40641148Y674436D01*
X40652057Y679889D01*
X40673875Y679889D01*
X40539695Y679889D02*
G01*
X40583330Y565345D01*
X40539695Y679889D02*
G01*
X40496058Y565345D01*
X40566967Y603526D02*
G01*
X40512420Y603526D01*
X40460058Y679889D02*
G01*
X40460058Y565345D01*
X40460058Y679889D02*
G01*
X40410968Y679889D01*
X40394602Y674436D01*
X40389149Y668982D01*
X40383693Y658073D01*
X40383693Y647164D01*
X40389149Y636254D01*
X40394602Y630799D01*
X40410968Y625345D01*
X40460058Y625345D01*
X40421877Y625345D02*
G01*
X40383693Y565345D01*
X40347694Y679889D02*
G01*
X40347694Y565345D01*
X40347694Y679889D02*
G01*
X40309512Y679889D01*
X40293150Y674436D01*
X40282241Y663526D01*
X40276785Y652617D01*
X40271331Y636254D01*
X40271331Y608982D01*
X40276785Y592617D01*
X40282241Y581708D01*
X40293150Y570799D01*
X40309512Y565345D01*
X40347694Y565345D01*
X40151331Y614436D02*
G01*
X40053150Y614436D01*
X39933151Y679889D02*
G01*
X39933151Y565345D01*
X39933151Y679889D02*
G01*
X39884060Y679889D01*
X39867695Y674436D01*
X39862241Y668982D01*
X39856785Y658073D01*
X39856785Y647164D01*
X39862241Y636254D01*
X39867695Y630799D01*
X39884060Y625345D01*
X39933151Y625345D02*
G01*
X39884060Y625345D01*
X39867695Y619889D01*
X39862241Y614436D01*
X39856785Y603526D01*
X39856785Y587164D01*
X39862241Y576254D01*
X39867695Y570799D01*
X39884060Y565345D01*
X39933151Y565345D01*
X39788058Y679889D02*
G01*
X39798967Y674436D01*
X39809877Y663526D01*
X39815333Y652617D01*
X39820786Y636254D01*
X39820786Y608982D01*
X39815333Y592617D01*
X39809877Y581708D01*
X39798967Y570799D01*
X39788058Y565345D01*
X39766242Y565345D01*
X39755333Y570799D01*
X39744423Y581708D01*
X39738968Y592617D01*
X39733514Y608982D01*
X39733514Y636254D01*
X39738968Y652617D01*
X39744423Y663526D01*
X39755333Y674436D01*
X39766242Y679889D01*
X39788058Y679889D01*
X39659331Y679889D02*
G01*
X39659331Y565345D01*
X39697515Y679889D02*
G01*
X39621150Y679889D01*
X39546969Y679889D02*
G01*
X39546969Y565345D01*
X39585150Y679889D02*
G01*
X39508788Y679889D01*
X39440060Y679889D02*
G01*
X39450970Y674436D01*
X39461879Y663526D01*
X39467332Y652617D01*
X39472786Y636254D01*
X39472786Y608982D01*
X39467332Y592617D01*
X39461879Y581708D01*
X39450970Y570799D01*
X39440060Y565345D01*
X39418242Y565345D01*
X39407332Y570799D01*
X39396423Y581708D01*
X39390970Y592617D01*
X39385514Y608982D01*
X39385514Y636254D01*
X39390970Y652617D01*
X39396423Y663526D01*
X39407332Y674436D01*
X39418242Y679889D01*
X39440060Y679889D01*
X39349514Y679889D02*
G01*
X39349514Y565345D01*
X39349514Y679889D02*
G01*
X39305877Y565345D01*
X39262243Y679889D02*
G01*
X39305877Y565345D01*
X39262243Y679889D02*
G01*
X39262243Y565345D01*
D11*
X38784580Y674146D02*
G01*
X38784580Y591019D01*
X38789777Y575431D01*
X38794971Y570237D01*
X38805363Y565043D01*
X38815754Y565043D01*
X38826145Y570237D01*
X38831342Y575431D01*
X38836536Y591019D01*
X38836536Y601411D01*
X38750290Y674146D02*
G01*
X38750290Y565043D01*
X38750290Y565043D02*
G01*
X38687946Y565043D01*
X38575724Y648169D02*
G01*
X38580921Y658561D01*
X38591312Y668952D01*
X38601700Y674146D01*
X38622483Y674146D01*
X38632874Y668952D01*
X38643265Y658561D01*
X38648462Y648169D01*
X38653656Y632581D01*
X38653656Y606605D01*
X38648462Y591019D01*
X38643265Y580628D01*
X38632874Y570237D01*
X38622483Y565043D01*
X38601700Y565043D01*
X38591312Y570237D01*
X38580921Y580628D01*
X38575724Y591019D01*
X38489481Y674146D02*
G01*
X38489481Y591019D01*
X38494675Y575431D01*
X38499872Y570237D01*
X38510260Y565043D01*
X38520651Y565043D01*
X38531043Y570237D01*
X38536239Y575431D01*
X38541434Y591019D01*
X38541434Y601411D01*
X38455191Y674146D02*
G01*
X38455191Y565043D01*
X38455191Y565043D02*
G01*
X38392844Y565043D01*
X38280621Y648169D02*
G01*
X38285818Y658561D01*
X38296209Y668952D01*
X38306601Y674146D01*
X38327380Y674146D01*
X38337771Y668952D01*
X38348163Y658561D01*
X38353359Y648169D01*
X38358554Y632581D01*
X38358554Y606605D01*
X38353359Y591019D01*
X38348163Y580628D01*
X38337771Y570237D01*
X38327380Y565043D01*
X38306601Y565043D01*
X38296209Y570237D01*
X38285818Y580628D01*
X38280621Y591019D01*
X38194378Y674146D02*
G01*
X38194378Y591019D01*
X38199573Y575431D01*
X38204769Y570237D01*
X38215161Y565043D01*
X38225552Y565043D01*
X38235940Y570237D01*
X38241137Y575431D01*
X38246331Y591019D01*
X38246331Y601411D01*
X38160088Y674146D02*
G01*
X38160088Y565043D01*
X38160088Y565043D02*
G01*
X38097741Y565043D01*
X37985522Y648169D02*
G01*
X37990716Y658561D01*
X38001107Y668952D01*
X38011498Y674146D01*
X38032281Y674146D01*
X38042672Y668952D01*
X38053060Y658561D01*
X38058257Y648169D01*
X38063451Y632581D01*
X38063451Y606605D01*
X38058257Y591019D01*
X38053060Y580628D01*
X38042672Y570237D01*
X38032281Y565043D01*
X38011498Y565043D01*
X38001107Y570237D01*
X37990716Y580628D01*
X37985522Y591019D01*
X37899276Y674146D02*
G01*
X37899276Y591019D01*
X37904470Y575431D01*
X37909667Y570237D01*
X37920058Y565043D01*
X37930449Y565043D01*
X37940841Y570237D01*
X37946035Y575431D01*
X37951232Y591019D01*
X37951232Y601411D01*
X37864986Y674146D02*
G01*
X37864986Y565043D01*
X37864986Y565043D02*
G01*
X37802642Y565043D01*
X37690419Y648169D02*
G01*
X37695614Y658561D01*
X37706005Y668952D01*
X37716396Y674146D01*
X37737178Y674146D01*
X37747569Y668952D01*
X37757961Y658561D01*
X37763155Y648169D01*
X37768352Y632581D01*
X37768352Y606605D01*
X37763155Y591019D01*
X37757961Y580628D01*
X37747569Y570237D01*
X37737178Y565043D01*
X37716396Y565043D01*
X37706005Y570237D01*
X37695614Y580628D01*
X37690419Y591019D01*
D12*
X45477554Y3442733D02*
G01*
X45477554Y3359607D01*
X45482751Y3344019D01*
X45487945Y3338824D01*
X45498336Y3333630D01*
X45508727Y3333630D01*
X45519119Y3338824D01*
X45524315Y3344019D01*
X45529510Y3359607D01*
X45529510Y3369998D01*
X45443264Y3421951D02*
G01*
X45432875Y3427148D01*
X45417287Y3442733D01*
X45417287Y3333630D01*
D13*
X45344013Y1181498D02*
G01*
X45588006Y1181496D01*
X45588006Y1181498D02*
G01*
X45588006Y3263493D01*
X45588006Y3263491D02*
G01*
X45344013Y3263493D01*
X45344013Y3263493D02*
G01*
X45344013Y1181498D01*
M02*
