G04 Layer: BottomLayer*
G04 EasyEDA v6.5.34, 2023-08-22 01:37:47*
G04 38117919441e4a75b8342165e9f31c87,5a6b42c53f6a479593ecc07194224c93,10*
G04 Gerber Generator version 0.2*
G04 Scale: 100 percent, Rotated: No, Reflected: No *
G04 Dimensions in millimeters *
G04 leading zeros omitted , absolute positions ,4 integer and 5 decimal *
%FSLAX45Y45*%
%MOMM*%

%AMMACRO1*21,1,$1,$2,0,0,$3*%
%ADD10C,0.5000*%
%ADD11MACRO1,1.8X1.8X90.0000*%
%ADD12C,1.8000*%
%ADD13C,3.0000*%
%ADD14C,0.6200*%
%ADD15C,0.0154*%

%LPD*%
G36*
X2068068Y279908D02*
G01*
X2064156Y280670D01*
X2060854Y282905D01*
X2058670Y286156D01*
X2057907Y290068D01*
X2057907Y12917881D01*
X2058670Y12921792D01*
X2060854Y12925094D01*
X2064156Y12927279D01*
X2068068Y12928041D01*
X46191830Y12928041D01*
X46195742Y12927279D01*
X46199044Y12925094D01*
X46201228Y12921792D01*
X46201990Y12917881D01*
X46201990Y290068D01*
X46201228Y286156D01*
X46199044Y282905D01*
X46195742Y280670D01*
X46191830Y279908D01*
G37*

%LPC*%
G36*
X45290689Y12585700D02*
G01*
X45453300Y12585700D01*
X45453300Y12748412D01*
X45434453Y12746024D01*
X45416825Y12741910D01*
X45399706Y12735915D01*
X45383348Y12728244D01*
X45367803Y12718948D01*
X45353325Y12708077D01*
X45340016Y12695783D01*
X45328078Y12682169D01*
X45317562Y12667386D01*
X45308672Y12651638D01*
X45301408Y12635026D01*
X45295921Y12617805D01*
X45292213Y12600076D01*
G37*
G36*
X2781300Y459587D02*
G01*
X2781300Y622300D01*
X2618740Y622300D01*
X2620213Y607923D01*
X2623921Y590194D01*
X2629408Y572973D01*
X2636672Y556361D01*
X2645562Y540613D01*
X2656078Y525830D01*
X2668016Y512216D01*
X2681325Y499922D01*
X2695803Y489051D01*
X2711348Y479755D01*
X2727756Y472084D01*
X2744825Y466090D01*
X2762453Y461975D01*
G37*
G36*
X45453300Y459587D02*
G01*
X45453300Y622300D01*
X45290740Y622300D01*
X45292213Y607923D01*
X45295921Y590194D01*
X45301408Y572973D01*
X45308672Y556361D01*
X45317562Y540613D01*
X45328078Y525830D01*
X45340016Y512216D01*
X45353325Y499922D01*
X45367803Y489051D01*
X45383348Y479755D01*
X45399756Y472084D01*
X45416825Y466090D01*
X45434453Y461975D01*
G37*
G36*
X2806700Y459790D02*
G01*
X2816606Y460552D01*
X2834386Y463804D01*
X2851810Y468884D01*
X2868574Y475691D01*
X2884525Y484225D01*
X2899562Y494334D01*
X2913481Y505917D01*
X2926130Y518871D01*
X2937357Y533095D01*
X2947060Y548386D01*
X2955188Y564540D01*
X2961538Y581507D01*
X2966161Y599033D01*
X2968955Y616915D01*
X2969260Y622300D01*
X2806700Y622300D01*
G37*
G36*
X45478700Y459790D02*
G01*
X45488606Y460552D01*
X45506386Y463804D01*
X45523810Y468884D01*
X45540574Y475691D01*
X45556525Y484225D01*
X45571562Y494334D01*
X45585481Y505917D01*
X45598130Y518871D01*
X45609357Y533095D01*
X45619060Y548386D01*
X45627188Y564540D01*
X45633538Y581507D01*
X45638161Y599033D01*
X45640955Y616915D01*
X45641260Y622300D01*
X45478700Y622300D01*
G37*
G36*
X24142700Y459790D02*
G01*
X24152606Y460552D01*
X24170386Y463804D01*
X24187810Y468884D01*
X24204574Y475691D01*
X24220525Y484225D01*
X24235562Y494334D01*
X24249481Y505917D01*
X24262130Y518871D01*
X24273357Y533095D01*
X24283060Y548386D01*
X24291188Y564540D01*
X24297538Y581507D01*
X24302161Y599033D01*
X24304955Y616915D01*
X24305260Y622300D01*
X24142700Y622300D01*
G37*
G36*
X24142700Y647700D02*
G01*
X24305260Y647700D01*
X24304955Y653084D01*
X24302161Y670966D01*
X24297538Y688492D01*
X24291188Y705459D01*
X24283060Y721614D01*
X24273357Y736904D01*
X24262130Y751128D01*
X24249481Y764082D01*
X24235562Y775665D01*
X24220525Y785774D01*
X24204574Y794308D01*
X24187810Y801116D01*
X24170386Y806196D01*
X24152606Y809447D01*
X24142700Y810209D01*
G37*
G36*
X2806700Y647700D02*
G01*
X2969260Y647700D01*
X2968955Y653084D01*
X2966161Y670966D01*
X2961538Y688492D01*
X2955188Y705459D01*
X2947060Y721614D01*
X2937357Y736904D01*
X2926130Y751128D01*
X2913481Y764082D01*
X2899562Y775665D01*
X2884525Y785774D01*
X2868574Y794308D01*
X2851810Y801116D01*
X2834386Y806196D01*
X2816606Y809447D01*
X2806700Y810209D01*
G37*
G36*
X45478700Y647700D02*
G01*
X45641260Y647700D01*
X45640955Y653084D01*
X45638161Y670966D01*
X45633538Y688492D01*
X45627188Y705459D01*
X45619060Y721614D01*
X45609357Y736904D01*
X45598130Y751128D01*
X45585481Y764082D01*
X45571562Y775665D01*
X45556525Y785774D01*
X45540574Y794308D01*
X45523810Y801116D01*
X45506386Y806196D01*
X45488606Y809447D01*
X45478700Y810209D01*
G37*
G36*
X45290740Y647700D02*
G01*
X45453300Y647700D01*
X45453300Y810412D01*
X45434453Y808024D01*
X45416825Y803910D01*
X45399756Y797915D01*
X45383348Y790244D01*
X45367803Y780948D01*
X45353325Y770077D01*
X45340016Y757783D01*
X45328078Y744169D01*
X45317562Y729386D01*
X45308672Y713638D01*
X45301408Y697026D01*
X45295921Y679805D01*
X45292213Y662076D01*
G37*
G36*
X23954740Y647700D02*
G01*
X24117300Y647700D01*
X24117300Y810412D01*
X24098453Y808024D01*
X24080825Y803859D01*
X24063756Y797915D01*
X24047348Y790244D01*
X24031803Y780948D01*
X24017325Y770077D01*
X24004016Y757783D01*
X23992078Y744169D01*
X23981562Y729386D01*
X23972672Y713638D01*
X23965408Y697026D01*
X23959921Y679805D01*
X23956213Y662076D01*
G37*
G36*
X2618740Y647700D02*
G01*
X2781300Y647700D01*
X2781300Y810412D01*
X2762453Y808024D01*
X2744825Y803910D01*
X2727756Y797915D01*
X2711348Y790244D01*
X2695803Y780948D01*
X2681325Y770077D01*
X2668016Y757783D01*
X2656078Y744169D01*
X2645562Y729386D01*
X2636672Y713638D01*
X2629408Y697026D01*
X2623921Y679805D01*
X2620213Y662076D01*
G37*
G36*
X45478700Y1217574D02*
G01*
X45555458Y1217574D01*
X45561758Y1218285D01*
X45567244Y1220216D01*
X45572121Y1223314D01*
X45576236Y1227378D01*
X45579284Y1232306D01*
X45581214Y1237742D01*
X45581925Y1244041D01*
X45581925Y1320800D01*
X45478700Y1320800D01*
G37*
G36*
X45376592Y1217574D02*
G01*
X45453300Y1217574D01*
X45453300Y1320800D01*
X45350125Y1320800D01*
X45350125Y1244041D01*
X45350836Y1237742D01*
X45352716Y1232306D01*
X45355814Y1227378D01*
X45359878Y1223314D01*
X45364806Y1220216D01*
X45370242Y1218285D01*
G37*
G36*
X45350125Y1346200D02*
G01*
X45453300Y1346200D01*
X45453300Y1449425D01*
X45376592Y1449425D01*
X45370242Y1448714D01*
X45364806Y1446784D01*
X45359878Y1443685D01*
X45355814Y1439621D01*
X45352716Y1434693D01*
X45350836Y1429258D01*
X45350125Y1422908D01*
G37*
G36*
X45478700Y1346200D02*
G01*
X45581925Y1346200D01*
X45581925Y1422908D01*
X45581214Y1429258D01*
X45579284Y1434693D01*
X45576236Y1439621D01*
X45572121Y1443685D01*
X45567244Y1446784D01*
X45561758Y1448714D01*
X45555458Y1449425D01*
X45478700Y1449425D01*
G37*
G36*
X45453300Y1472387D02*
G01*
X45453300Y1574800D01*
X45351039Y1574800D01*
X45352157Y1565757D01*
X45355814Y1551686D01*
X45361148Y1538173D01*
X45368159Y1525422D01*
X45376693Y1513636D01*
X45386701Y1503019D01*
X45397877Y1493723D01*
X45410170Y1485950D01*
X45423328Y1479753D01*
X45437196Y1475232D01*
X45451471Y1472539D01*
G37*
G36*
X45478700Y1472387D02*
G01*
X45480528Y1472539D01*
X45494854Y1475232D01*
X45508672Y1479753D01*
X45521829Y1485950D01*
X45534122Y1493723D01*
X45545349Y1503019D01*
X45555306Y1513636D01*
X45563840Y1525422D01*
X45570851Y1538173D01*
X45576236Y1551686D01*
X45579842Y1565757D01*
X45580960Y1574800D01*
X45478700Y1574800D01*
G37*
G36*
X45351039Y1600200D02*
G01*
X45453300Y1600200D01*
X45453300Y1702562D01*
X45451471Y1702460D01*
X45437196Y1699717D01*
X45423328Y1695246D01*
X45410170Y1689049D01*
X45397877Y1681225D01*
X45386701Y1671980D01*
X45376693Y1661363D01*
X45368159Y1649577D01*
X45361148Y1636826D01*
X45355814Y1623314D01*
X45352157Y1609191D01*
G37*
G36*
X45478700Y1600200D02*
G01*
X45580960Y1600200D01*
X45579842Y1609191D01*
X45576236Y1623314D01*
X45570851Y1636826D01*
X45563840Y1649577D01*
X45555306Y1661363D01*
X45545349Y1671980D01*
X45534122Y1681225D01*
X45521829Y1689049D01*
X45508672Y1695246D01*
X45494854Y1699717D01*
X45480528Y1702460D01*
X45478700Y1702562D01*
G37*
G36*
X5209438Y1644954D02*
G01*
X5218988Y1646224D01*
X5228183Y1649018D01*
X5231942Y1650593D01*
X5234330Y1650898D01*
X6195720Y1650898D01*
X6199530Y1650136D01*
X6206337Y1647443D01*
X6215786Y1645412D01*
X6225438Y1644954D01*
X6234988Y1646224D01*
X6244183Y1649018D01*
X6247942Y1650593D01*
X6250330Y1650898D01*
X7211720Y1650898D01*
X7215530Y1650136D01*
X7222337Y1647443D01*
X7231786Y1645412D01*
X7241438Y1644954D01*
X7250988Y1646224D01*
X7260183Y1649018D01*
X7263942Y1650593D01*
X7266330Y1650898D01*
X9192920Y1650898D01*
X9196730Y1650136D01*
X9203537Y1647443D01*
X9212935Y1645412D01*
X9222587Y1644954D01*
X9232138Y1646224D01*
X9241383Y1649018D01*
X9245142Y1650593D01*
X9247479Y1650898D01*
X10208920Y1650898D01*
X10212730Y1650136D01*
X10219537Y1647443D01*
X10228935Y1645412D01*
X10238587Y1644954D01*
X10248138Y1646224D01*
X10257383Y1649018D01*
X10261142Y1650593D01*
X10263479Y1650898D01*
X11224920Y1650898D01*
X11228730Y1650136D01*
X11235537Y1647443D01*
X11244935Y1645412D01*
X11254587Y1644954D01*
X11264138Y1646224D01*
X11273383Y1649018D01*
X11277142Y1650593D01*
X11279479Y1650898D01*
X13206120Y1650898D01*
X13209930Y1650136D01*
X13216737Y1647443D01*
X13226135Y1645412D01*
X13235787Y1644954D01*
X13245338Y1646224D01*
X13254583Y1649018D01*
X13258342Y1650593D01*
X13260679Y1650898D01*
X14222120Y1650898D01*
X14225930Y1650136D01*
X14232737Y1647443D01*
X14242135Y1645412D01*
X14251787Y1644954D01*
X14261338Y1646224D01*
X14270583Y1649018D01*
X14274342Y1650593D01*
X14276679Y1650898D01*
X15238120Y1650898D01*
X15241930Y1650136D01*
X15248737Y1647443D01*
X15258135Y1645412D01*
X15267787Y1644954D01*
X15277338Y1646224D01*
X15286583Y1649018D01*
X15290342Y1650593D01*
X15292679Y1650898D01*
X17219320Y1650898D01*
X17223130Y1650136D01*
X17229937Y1647443D01*
X17239335Y1645412D01*
X17248987Y1644954D01*
X17258538Y1646224D01*
X17267783Y1649018D01*
X17271542Y1650593D01*
X17273879Y1650898D01*
X18235320Y1650898D01*
X18239130Y1650136D01*
X18245937Y1647443D01*
X18255335Y1645412D01*
X18264987Y1644954D01*
X18274538Y1646224D01*
X18283783Y1649018D01*
X18287542Y1650593D01*
X18289879Y1650898D01*
X19251320Y1650898D01*
X19255130Y1650136D01*
X19261937Y1647443D01*
X19271335Y1645412D01*
X19280987Y1644954D01*
X19290538Y1646224D01*
X19299783Y1649018D01*
X19303542Y1650593D01*
X19305879Y1650898D01*
X21232469Y1650898D01*
X21236279Y1650136D01*
X21243086Y1647443D01*
X21252535Y1645412D01*
X21262187Y1644954D01*
X21271738Y1646224D01*
X21280932Y1649018D01*
X21284692Y1650593D01*
X21287079Y1650898D01*
X22248469Y1650898D01*
X22252279Y1650136D01*
X22259086Y1647443D01*
X22268535Y1645412D01*
X22278187Y1644954D01*
X22287738Y1646224D01*
X22296932Y1649018D01*
X22300692Y1650593D01*
X22303079Y1650898D01*
X23264469Y1650898D01*
X23268279Y1650136D01*
X23275086Y1647443D01*
X23284535Y1645412D01*
X23294187Y1644954D01*
X23303738Y1646224D01*
X23312932Y1649018D01*
X23316692Y1650593D01*
X23319079Y1650898D01*
X25245669Y1650898D01*
X25249479Y1650136D01*
X25256286Y1647443D01*
X25265735Y1645412D01*
X25275387Y1644954D01*
X25284938Y1646224D01*
X25294132Y1649018D01*
X25297892Y1650593D01*
X25300279Y1650898D01*
X26261669Y1650898D01*
X26265479Y1650136D01*
X26272286Y1647443D01*
X26281735Y1645412D01*
X26291387Y1644954D01*
X26300938Y1646224D01*
X26310132Y1649018D01*
X26313892Y1650593D01*
X26316279Y1650898D01*
X27277669Y1650898D01*
X27281479Y1650136D01*
X27288286Y1647443D01*
X27297735Y1645412D01*
X27307387Y1644954D01*
X27316938Y1646224D01*
X27326132Y1649018D01*
X27329892Y1650593D01*
X27332279Y1650898D01*
X29258869Y1650898D01*
X29262679Y1650136D01*
X29269486Y1647443D01*
X29278935Y1645412D01*
X29288587Y1644954D01*
X29298138Y1646224D01*
X29307332Y1649018D01*
X29311092Y1650593D01*
X29313479Y1650898D01*
X30274869Y1650898D01*
X30278679Y1650136D01*
X30285486Y1647443D01*
X30294935Y1645412D01*
X30304587Y1644954D01*
X30314138Y1646224D01*
X30323332Y1649018D01*
X30327092Y1650593D01*
X30329479Y1650898D01*
X31290869Y1650898D01*
X31294679Y1650136D01*
X31301486Y1647443D01*
X31310935Y1645412D01*
X31320587Y1644954D01*
X31330138Y1646224D01*
X31339332Y1649018D01*
X31343092Y1650593D01*
X31345479Y1650898D01*
X33272069Y1650898D01*
X33275879Y1650136D01*
X33282686Y1647443D01*
X33292135Y1645412D01*
X33301787Y1644954D01*
X33311338Y1646224D01*
X33320532Y1649018D01*
X33324292Y1650593D01*
X33326679Y1650898D01*
X34288069Y1650898D01*
X34291879Y1650136D01*
X34298686Y1647443D01*
X34308084Y1645412D01*
X34317736Y1644954D01*
X34327287Y1646224D01*
X34336532Y1649018D01*
X34340292Y1650593D01*
X34342628Y1650898D01*
X35304069Y1650898D01*
X35307879Y1650136D01*
X35314686Y1647443D01*
X35324084Y1645412D01*
X35333736Y1644954D01*
X35343287Y1646224D01*
X35352532Y1649018D01*
X35356292Y1650593D01*
X35358628Y1650898D01*
X37285269Y1650898D01*
X37289079Y1650136D01*
X37295886Y1647443D01*
X37305284Y1645412D01*
X37314936Y1644954D01*
X37324487Y1646224D01*
X37333732Y1649018D01*
X37337492Y1650593D01*
X37339828Y1650898D01*
X38301269Y1650898D01*
X38305079Y1650136D01*
X38311886Y1647443D01*
X38321284Y1645412D01*
X38330936Y1644954D01*
X38340487Y1646224D01*
X38349732Y1649018D01*
X38353492Y1650593D01*
X38355828Y1650898D01*
X39317269Y1650898D01*
X39321079Y1650136D01*
X39327886Y1647443D01*
X39337284Y1645412D01*
X39346936Y1644954D01*
X39356487Y1646224D01*
X39365732Y1649018D01*
X39369492Y1650593D01*
X39371828Y1650898D01*
X41298469Y1650898D01*
X41302279Y1650136D01*
X41309086Y1647443D01*
X41318484Y1645412D01*
X41328136Y1644954D01*
X41337687Y1646224D01*
X41346932Y1649018D01*
X41350692Y1650593D01*
X41353028Y1650898D01*
X42314469Y1650898D01*
X42318279Y1650136D01*
X42325086Y1647443D01*
X42334484Y1645412D01*
X42344136Y1644954D01*
X42353687Y1646224D01*
X42362932Y1649018D01*
X42366692Y1650593D01*
X42369028Y1650898D01*
X43330469Y1650898D01*
X43334279Y1650136D01*
X43341086Y1647443D01*
X43350484Y1645412D01*
X43360136Y1644954D01*
X43369687Y1646224D01*
X43378932Y1649018D01*
X43382692Y1650593D01*
X43385028Y1650898D01*
X44881596Y1650898D01*
X44886219Y1651101D01*
X44890639Y1651660D01*
X44894957Y1652625D01*
X44899224Y1653946D01*
X44903288Y1655673D01*
X44907250Y1657705D01*
X44911010Y1660093D01*
X44914515Y1662785D01*
X44917969Y1665935D01*
X44993864Y1741830D01*
X44997014Y1745284D01*
X44999706Y1748789D01*
X45002094Y1752549D01*
X45004126Y1756511D01*
X45005853Y1760575D01*
X45007174Y1764842D01*
X45008139Y1769160D01*
X45008698Y1773580D01*
X45008901Y1778203D01*
X45008901Y2796438D01*
X45009663Y2800299D01*
X45011898Y2803601D01*
X45015200Y2805836D01*
X45019061Y2806598D01*
X45356018Y2806598D01*
X45359523Y2805938D01*
X45362622Y2804109D01*
X45364908Y2801315D01*
X45368159Y2795422D01*
X45376693Y2783636D01*
X45386701Y2773019D01*
X45397877Y2763723D01*
X45410374Y2755798D01*
X45412914Y2753563D01*
X45414539Y2750566D01*
X45415098Y2747264D01*
X45415098Y2713736D01*
X45414539Y2710434D01*
X45412914Y2707436D01*
X45410374Y2705150D01*
X45397877Y2697226D01*
X45386701Y2687980D01*
X45376693Y2677363D01*
X45368159Y2665577D01*
X45361148Y2652826D01*
X45355814Y2639314D01*
X45352157Y2625191D01*
X45350328Y2610764D01*
X45350328Y2596235D01*
X45352157Y2581757D01*
X45355814Y2567686D01*
X45361148Y2554173D01*
X45368159Y2541422D01*
X45376693Y2529636D01*
X45386701Y2519019D01*
X45397877Y2509723D01*
X45410170Y2501950D01*
X45423328Y2495753D01*
X45437196Y2491232D01*
X45451471Y2488539D01*
X45466000Y2487625D01*
X45480528Y2488539D01*
X45494854Y2491232D01*
X45508672Y2495753D01*
X45521829Y2501950D01*
X45534122Y2509723D01*
X45545349Y2519019D01*
X45555306Y2529636D01*
X45563840Y2541422D01*
X45570851Y2554173D01*
X45576236Y2567686D01*
X45579842Y2581757D01*
X45581671Y2596235D01*
X45581671Y2610764D01*
X45579842Y2625191D01*
X45576236Y2639314D01*
X45570851Y2652826D01*
X45563840Y2665577D01*
X45555306Y2677363D01*
X45545349Y2687980D01*
X45534122Y2697226D01*
X45521626Y2705201D01*
X45519086Y2707436D01*
X45517460Y2710434D01*
X45516901Y2713786D01*
X45516901Y2747213D01*
X45517460Y2750566D01*
X45519086Y2753512D01*
X45521626Y2755798D01*
X45534122Y2763723D01*
X45545349Y2773019D01*
X45555306Y2783636D01*
X45563840Y2795422D01*
X45570851Y2808173D01*
X45576236Y2821686D01*
X45579842Y2835757D01*
X45581671Y2850235D01*
X45581671Y2864764D01*
X45579842Y2879191D01*
X45576236Y2893314D01*
X45570851Y2906826D01*
X45563840Y2919577D01*
X45555306Y2931363D01*
X45545349Y2941980D01*
X45534122Y2951226D01*
X45521626Y2959201D01*
X45519086Y2961436D01*
X45517460Y2964434D01*
X45516901Y2967786D01*
X45516901Y3001213D01*
X45517460Y3004566D01*
X45519086Y3007512D01*
X45521626Y3009798D01*
X45534122Y3017723D01*
X45545349Y3027019D01*
X45555306Y3037636D01*
X45563840Y3049422D01*
X45570851Y3062173D01*
X45576236Y3075686D01*
X45579842Y3089757D01*
X45581671Y3104235D01*
X45581671Y3118764D01*
X45579842Y3133191D01*
X45576236Y3147314D01*
X45570851Y3160826D01*
X45563840Y3173577D01*
X45555306Y3185363D01*
X45545349Y3195980D01*
X45534122Y3205226D01*
X45521829Y3213049D01*
X45508672Y3219246D01*
X45494854Y3223717D01*
X45480528Y3226460D01*
X45466000Y3227374D01*
X45451471Y3226460D01*
X45437196Y3223717D01*
X45423328Y3219246D01*
X45410170Y3213049D01*
X45397877Y3205226D01*
X45386701Y3195980D01*
X45376693Y3185363D01*
X45368159Y3173577D01*
X45361148Y3160826D01*
X45355814Y3147314D01*
X45352157Y3133191D01*
X45350328Y3118764D01*
X45350328Y3104235D01*
X45352157Y3089757D01*
X45355814Y3075686D01*
X45361148Y3062173D01*
X45368159Y3049422D01*
X45376693Y3037636D01*
X45386701Y3027019D01*
X45397877Y3017723D01*
X45410374Y3009798D01*
X45412914Y3007563D01*
X45414539Y3004566D01*
X45415098Y3001264D01*
X45415098Y2967736D01*
X45414539Y2964434D01*
X45412914Y2961436D01*
X45410374Y2959150D01*
X45397877Y2951226D01*
X45386701Y2941980D01*
X45376693Y2931363D01*
X45368159Y2919577D01*
X45364908Y2913684D01*
X45362622Y2910890D01*
X45359523Y2909062D01*
X45356018Y2908401D01*
X45019061Y2908401D01*
X45015200Y2909163D01*
X45011898Y2911398D01*
X45009663Y2914700D01*
X45008901Y2918561D01*
X45008901Y11785396D01*
X45008698Y11790019D01*
X45008139Y11794439D01*
X45007174Y11798757D01*
X45005853Y11803024D01*
X45004126Y11807088D01*
X45002094Y11811050D01*
X44999706Y11814810D01*
X44997014Y11818315D01*
X44993864Y11821769D01*
X44917969Y11897664D01*
X44914515Y11900814D01*
X44911010Y11903506D01*
X44907250Y11905894D01*
X44903288Y11907926D01*
X44899224Y11909653D01*
X44894957Y11910974D01*
X44890639Y11911939D01*
X44886219Y11912498D01*
X44881596Y11912701D01*
X43384978Y11912701D01*
X43382641Y11913006D01*
X43378932Y11914530D01*
X43369687Y11917375D01*
X43360136Y11918594D01*
X43350484Y11918188D01*
X43341086Y11916156D01*
X43334279Y11913412D01*
X43330469Y11912701D01*
X42369028Y11912701D01*
X42366692Y11912955D01*
X42362932Y11914530D01*
X42353687Y11917375D01*
X42344136Y11918594D01*
X42334484Y11918188D01*
X42325086Y11916156D01*
X42318279Y11913412D01*
X42314469Y11912701D01*
X41353028Y11912701D01*
X41350692Y11912955D01*
X41346932Y11914530D01*
X41337687Y11917375D01*
X41328136Y11918594D01*
X41318484Y11918188D01*
X41309086Y11916156D01*
X41302228Y11913412D01*
X41298469Y11912701D01*
X39371828Y11912701D01*
X39369492Y11912955D01*
X39365732Y11914530D01*
X39356487Y11917375D01*
X39346936Y11918594D01*
X39337284Y11918188D01*
X39327886Y11916156D01*
X39321079Y11913412D01*
X39317269Y11912701D01*
X38355828Y11912701D01*
X38353492Y11912955D01*
X38349732Y11914530D01*
X38340487Y11917375D01*
X38330936Y11918594D01*
X38321284Y11918188D01*
X38311886Y11916156D01*
X38305079Y11913412D01*
X38301269Y11912701D01*
X37339828Y11912701D01*
X37337492Y11912955D01*
X37333732Y11914530D01*
X37324487Y11917375D01*
X37314936Y11918594D01*
X37305284Y11918188D01*
X37295886Y11916156D01*
X37289028Y11913412D01*
X37285269Y11912701D01*
X35358628Y11912701D01*
X35356292Y11912955D01*
X35352532Y11914530D01*
X35343287Y11917375D01*
X35333736Y11918594D01*
X35324084Y11918188D01*
X35314686Y11916156D01*
X35307879Y11913412D01*
X35304069Y11912701D01*
X34342628Y11912701D01*
X34340292Y11912955D01*
X34336532Y11914530D01*
X34327287Y11917375D01*
X34317736Y11918594D01*
X34308084Y11918188D01*
X34298686Y11916156D01*
X34291879Y11913412D01*
X34288069Y11912701D01*
X33326679Y11912701D01*
X33324292Y11912955D01*
X33320532Y11914530D01*
X33311338Y11917375D01*
X33301787Y11918594D01*
X33292135Y11918188D01*
X33282686Y11916156D01*
X33275879Y11913412D01*
X33272069Y11912701D01*
X31345479Y11912701D01*
X31343142Y11912955D01*
X31339332Y11914530D01*
X31330138Y11917375D01*
X31320587Y11918594D01*
X31310935Y11918188D01*
X31301486Y11916156D01*
X31294679Y11913412D01*
X31290920Y11912701D01*
X30329479Y11912701D01*
X30327092Y11912955D01*
X30323332Y11914530D01*
X30314138Y11917375D01*
X30304587Y11918594D01*
X30294935Y11918188D01*
X30285486Y11916156D01*
X30278679Y11913412D01*
X30274920Y11912701D01*
X29313479Y11912701D01*
X29311092Y11912955D01*
X29307332Y11914530D01*
X29298138Y11917375D01*
X29288587Y11918594D01*
X29278935Y11918188D01*
X29269486Y11916156D01*
X29262679Y11913412D01*
X29258869Y11912701D01*
X27332279Y11912701D01*
X27329942Y11912955D01*
X27326132Y11914530D01*
X27316938Y11917375D01*
X27307387Y11918594D01*
X27297735Y11918188D01*
X27288286Y11916156D01*
X27281479Y11913412D01*
X27277720Y11912701D01*
X26316279Y11912701D01*
X26313892Y11912955D01*
X26310132Y11914530D01*
X26300938Y11917375D01*
X26291387Y11918594D01*
X26281735Y11918188D01*
X26272286Y11916156D01*
X26265479Y11913412D01*
X26261720Y11912701D01*
X25300279Y11912701D01*
X25297892Y11912955D01*
X25294132Y11914530D01*
X25284938Y11917375D01*
X25275387Y11918594D01*
X25265735Y11918188D01*
X25256286Y11916156D01*
X25249479Y11913412D01*
X25245669Y11912701D01*
X23319079Y11912701D01*
X23316742Y11912955D01*
X23312932Y11914530D01*
X23303738Y11917375D01*
X23294187Y11918594D01*
X23284535Y11918188D01*
X23275086Y11916156D01*
X23268279Y11913412D01*
X23264520Y11912701D01*
X22303079Y11912701D01*
X22300692Y11912955D01*
X22296932Y11914530D01*
X22287738Y11917375D01*
X22278187Y11918594D01*
X22268535Y11918188D01*
X22259086Y11916156D01*
X22252279Y11913412D01*
X22248520Y11912701D01*
X21287079Y11912701D01*
X21284692Y11912955D01*
X21280932Y11914530D01*
X21271738Y11917375D01*
X21262187Y11918594D01*
X21252535Y11918188D01*
X21243086Y11916156D01*
X21236279Y11913412D01*
X21232469Y11912701D01*
X19305879Y11912701D01*
X19303542Y11912955D01*
X19299783Y11914530D01*
X19290538Y11917375D01*
X19280987Y11918594D01*
X19271335Y11918188D01*
X19261937Y11916156D01*
X19255130Y11913412D01*
X19251320Y11912701D01*
X18289879Y11912701D01*
X18287542Y11912955D01*
X18283783Y11914530D01*
X18274538Y11917375D01*
X18264987Y11918594D01*
X18255335Y11918188D01*
X18245937Y11916156D01*
X18239130Y11913412D01*
X18235320Y11912701D01*
X17273879Y11912701D01*
X17271542Y11912955D01*
X17267783Y11914530D01*
X17258538Y11917375D01*
X17248987Y11918594D01*
X17239335Y11918188D01*
X17229937Y11916156D01*
X17223079Y11913412D01*
X17219320Y11912701D01*
X15292679Y11912701D01*
X15290342Y11912955D01*
X15286583Y11914530D01*
X15277338Y11917375D01*
X15267787Y11918594D01*
X15258135Y11918188D01*
X15248737Y11916156D01*
X15241930Y11913412D01*
X15238120Y11912701D01*
X14276679Y11912701D01*
X14274342Y11912955D01*
X14270583Y11914530D01*
X14261338Y11917375D01*
X14251787Y11918594D01*
X14242135Y11918188D01*
X14232737Y11916156D01*
X14225930Y11913412D01*
X14222120Y11912701D01*
X13260679Y11912701D01*
X13258342Y11912955D01*
X13254583Y11914530D01*
X13245338Y11917375D01*
X13235787Y11918594D01*
X13226135Y11918188D01*
X13216737Y11916156D01*
X13209879Y11913412D01*
X13206120Y11912701D01*
X11279479Y11912701D01*
X11277142Y11912955D01*
X11273383Y11914530D01*
X11264138Y11917375D01*
X11254587Y11918594D01*
X11244935Y11918188D01*
X11235537Y11916156D01*
X11228730Y11913412D01*
X11224920Y11912701D01*
X10263479Y11912701D01*
X10261142Y11912955D01*
X10257383Y11914530D01*
X10248138Y11917375D01*
X10238587Y11918594D01*
X10228935Y11918188D01*
X10219537Y11916156D01*
X10212730Y11913412D01*
X10208920Y11912701D01*
X9247479Y11912701D01*
X9245142Y11912955D01*
X9241383Y11914530D01*
X9232138Y11917375D01*
X9222587Y11918594D01*
X9212935Y11918188D01*
X9203537Y11916156D01*
X9196679Y11913412D01*
X9192920Y11912701D01*
X7266330Y11912701D01*
X7263993Y11912955D01*
X7260183Y11914530D01*
X7250988Y11917375D01*
X7241438Y11918594D01*
X7231786Y11918188D01*
X7222337Y11916156D01*
X7215530Y11913412D01*
X7211771Y11912701D01*
X6250330Y11912701D01*
X6247942Y11912955D01*
X6244183Y11914530D01*
X6234988Y11917375D01*
X6225438Y11918594D01*
X6215786Y11918188D01*
X6206337Y11916156D01*
X6199530Y11913412D01*
X6195771Y11912701D01*
X5234330Y11912701D01*
X5231942Y11912955D01*
X5228183Y11914530D01*
X5218988Y11917375D01*
X5209438Y11918594D01*
X5199786Y11918188D01*
X5190337Y11916156D01*
X5181396Y11912549D01*
X5173167Y11907520D01*
X5165953Y11901119D01*
X5159857Y11893600D01*
X5155184Y11885218D01*
X5151983Y11876125D01*
X5150358Y11866575D01*
X5150358Y11856974D01*
X5151983Y11847423D01*
X5155184Y11838330D01*
X5159857Y11829948D01*
X5165953Y11822430D01*
X5173167Y11816029D01*
X5181396Y11811000D01*
X5190337Y11807393D01*
X5199786Y11805361D01*
X5209438Y11804954D01*
X5218988Y11806174D01*
X5228183Y11809018D01*
X5231993Y11810593D01*
X5234330Y11810847D01*
X6195720Y11810847D01*
X6199530Y11810136D01*
X6206337Y11807393D01*
X6215786Y11805361D01*
X6225438Y11804954D01*
X6234988Y11806174D01*
X6244183Y11809018D01*
X6247993Y11810593D01*
X6250330Y11810847D01*
X7211720Y11810847D01*
X7215530Y11810136D01*
X7222337Y11807393D01*
X7231786Y11805361D01*
X7241438Y11804954D01*
X7250988Y11806174D01*
X7260183Y11809018D01*
X7263942Y11810593D01*
X7266330Y11810847D01*
X9192920Y11810847D01*
X9196730Y11810136D01*
X9203537Y11807393D01*
X9212935Y11805361D01*
X9222587Y11804954D01*
X9232138Y11806174D01*
X9241383Y11809018D01*
X9245142Y11810593D01*
X9247479Y11810847D01*
X10208920Y11810847D01*
X10212679Y11810136D01*
X10219537Y11807393D01*
X10228935Y11805361D01*
X10238587Y11804954D01*
X10248138Y11806174D01*
X10257383Y11809018D01*
X10261142Y11810593D01*
X10263479Y11810847D01*
X11224920Y11810847D01*
X11228679Y11810136D01*
X11235537Y11807393D01*
X11244935Y11805361D01*
X11254587Y11804954D01*
X11264138Y11806174D01*
X11273383Y11809018D01*
X11277142Y11810593D01*
X11279479Y11810847D01*
X13206120Y11810847D01*
X13209930Y11810136D01*
X13216737Y11807393D01*
X13226135Y11805361D01*
X13235787Y11804954D01*
X13245338Y11806174D01*
X13254583Y11809018D01*
X13258342Y11810593D01*
X13260679Y11810847D01*
X14222120Y11810847D01*
X14225879Y11810136D01*
X14232737Y11807393D01*
X14242135Y11805361D01*
X14251787Y11804954D01*
X14261338Y11806174D01*
X14270583Y11809018D01*
X14274342Y11810593D01*
X14276679Y11810847D01*
X15238120Y11810847D01*
X15241879Y11810136D01*
X15248737Y11807393D01*
X15258135Y11805361D01*
X15267787Y11804954D01*
X15277338Y11806174D01*
X15286583Y11809018D01*
X15290342Y11810593D01*
X15292679Y11810847D01*
X17219320Y11810847D01*
X17223130Y11810136D01*
X17229937Y11807393D01*
X17239335Y11805361D01*
X17248987Y11804954D01*
X17258538Y11806174D01*
X17267783Y11809018D01*
X17271542Y11810593D01*
X17273879Y11810847D01*
X18235320Y11810847D01*
X18239079Y11810136D01*
X18245937Y11807393D01*
X18255335Y11805361D01*
X18264987Y11804954D01*
X18274538Y11806174D01*
X18283783Y11809018D01*
X18287542Y11810593D01*
X18289879Y11810847D01*
X19251320Y11810847D01*
X19255079Y11810136D01*
X19261937Y11807393D01*
X19271335Y11805361D01*
X19280987Y11804954D01*
X19290538Y11806174D01*
X19299783Y11809018D01*
X19303542Y11810593D01*
X19305879Y11810847D01*
X21232520Y11810847D01*
X21236279Y11810136D01*
X21243086Y11807393D01*
X21252535Y11805361D01*
X21262187Y11804954D01*
X21271738Y11806174D01*
X21280932Y11809018D01*
X21284742Y11810593D01*
X21287079Y11810847D01*
X22248469Y11810847D01*
X22252279Y11810136D01*
X22259086Y11807393D01*
X22268535Y11805361D01*
X22278187Y11804954D01*
X22287738Y11806174D01*
X22296932Y11809018D01*
X22300742Y11810593D01*
X22303079Y11810847D01*
X23264469Y11810847D01*
X23268279Y11810136D01*
X23275086Y11807393D01*
X23284535Y11805361D01*
X23294187Y11804954D01*
X23303738Y11806174D01*
X23312932Y11809018D01*
X23316692Y11810593D01*
X23319079Y11810847D01*
X25245720Y11810847D01*
X25249479Y11810136D01*
X25256286Y11807393D01*
X25265735Y11805361D01*
X25275387Y11804954D01*
X25284938Y11806174D01*
X25294132Y11809018D01*
X25297942Y11810593D01*
X25300279Y11810847D01*
X26261669Y11810847D01*
X26265479Y11810136D01*
X26272286Y11807393D01*
X26281735Y11805361D01*
X26291387Y11804954D01*
X26300938Y11806174D01*
X26310132Y11809018D01*
X26313942Y11810593D01*
X26316279Y11810847D01*
X27277669Y11810847D01*
X27281479Y11810136D01*
X27288286Y11807393D01*
X27297735Y11805361D01*
X27307387Y11804954D01*
X27316938Y11806174D01*
X27326132Y11809018D01*
X27329892Y11810593D01*
X27332279Y11810847D01*
X29258920Y11810847D01*
X29262679Y11810136D01*
X29269486Y11807393D01*
X29278935Y11805361D01*
X29288587Y11804954D01*
X29298138Y11806174D01*
X29307332Y11809018D01*
X29311142Y11810593D01*
X29313479Y11810847D01*
X30274869Y11810847D01*
X30278679Y11810136D01*
X30285486Y11807393D01*
X30294935Y11805361D01*
X30304587Y11804954D01*
X30314138Y11806174D01*
X30323332Y11809018D01*
X30327142Y11810593D01*
X30329479Y11810847D01*
X31290869Y11810847D01*
X31294679Y11810136D01*
X31301486Y11807393D01*
X31310935Y11805361D01*
X31320587Y11804954D01*
X31330138Y11806174D01*
X31339332Y11809018D01*
X31343092Y11810593D01*
X31345479Y11810847D01*
X33272120Y11810847D01*
X33275879Y11810136D01*
X33282686Y11807393D01*
X33292135Y11805361D01*
X33301787Y11804954D01*
X33311338Y11806174D01*
X33320532Y11809018D01*
X33324342Y11810593D01*
X33326679Y11810847D01*
X34288069Y11810847D01*
X34291828Y11810136D01*
X34298686Y11807393D01*
X34308084Y11805361D01*
X34317736Y11804954D01*
X34327287Y11806174D01*
X34336532Y11809018D01*
X34340292Y11810593D01*
X34342628Y11810847D01*
X35304069Y11810847D01*
X35307828Y11810136D01*
X35314686Y11807393D01*
X35324084Y11805361D01*
X35333736Y11804954D01*
X35343287Y11806174D01*
X35352532Y11809018D01*
X35356292Y11810593D01*
X35358628Y11810847D01*
X37285269Y11810847D01*
X37289079Y11810136D01*
X37295886Y11807393D01*
X37305284Y11805361D01*
X37314936Y11804954D01*
X37324487Y11806174D01*
X37333732Y11809018D01*
X37337492Y11810593D01*
X37339828Y11810847D01*
X38301269Y11810847D01*
X38305028Y11810136D01*
X38311886Y11807393D01*
X38321284Y11805361D01*
X38330936Y11804954D01*
X38340487Y11806174D01*
X38349732Y11809018D01*
X38353492Y11810593D01*
X38355828Y11810847D01*
X39317269Y11810847D01*
X39321028Y11810136D01*
X39327886Y11807393D01*
X39337284Y11805361D01*
X39346936Y11804954D01*
X39356487Y11806174D01*
X39365732Y11809018D01*
X39369492Y11810593D01*
X39371828Y11810847D01*
X41298469Y11810847D01*
X41302279Y11810136D01*
X41309086Y11807393D01*
X41318484Y11805361D01*
X41328136Y11804954D01*
X41337687Y11806174D01*
X41346932Y11809018D01*
X41350692Y11810593D01*
X41353028Y11810847D01*
X42314469Y11810847D01*
X42318228Y11810136D01*
X42325086Y11807393D01*
X42334484Y11805361D01*
X42344136Y11804954D01*
X42353687Y11806174D01*
X42362932Y11809018D01*
X42366692Y11810593D01*
X42369028Y11810847D01*
X43330469Y11810847D01*
X43334228Y11810136D01*
X43341086Y11807393D01*
X43350484Y11805361D01*
X43360136Y11804954D01*
X43369687Y11806174D01*
X43378932Y11809018D01*
X43382742Y11810593D01*
X43385079Y11810898D01*
X44856501Y11810898D01*
X44860413Y11810136D01*
X44863664Y11807901D01*
X44904101Y11767464D01*
X44906336Y11764213D01*
X44907098Y11760301D01*
X44907098Y10906861D01*
X44906336Y10902950D01*
X44904101Y10899648D01*
X44900799Y10897463D01*
X44896938Y10896701D01*
X43385028Y10896701D01*
X43382692Y10896955D01*
X43378932Y10898530D01*
X43369687Y10901375D01*
X43360136Y10902594D01*
X43350484Y10902188D01*
X43341086Y10900156D01*
X43334279Y10897412D01*
X43330469Y10896701D01*
X42369028Y10896701D01*
X42366692Y10896955D01*
X42362932Y10898530D01*
X42353687Y10901375D01*
X42344136Y10902594D01*
X42334484Y10902188D01*
X42325086Y10900156D01*
X42318279Y10897412D01*
X42314469Y10896701D01*
X41353028Y10896701D01*
X41350692Y10896955D01*
X41346932Y10898530D01*
X41337687Y10901375D01*
X41328136Y10902594D01*
X41318484Y10902188D01*
X41309086Y10900156D01*
X41302228Y10897412D01*
X41298469Y10896701D01*
X39371828Y10896701D01*
X39369492Y10896955D01*
X39365732Y10898530D01*
X39356487Y10901375D01*
X39346936Y10902594D01*
X39337284Y10902188D01*
X39327886Y10900156D01*
X39321079Y10897412D01*
X39317269Y10896701D01*
X38355828Y10896701D01*
X38353492Y10896955D01*
X38349732Y10898530D01*
X38340487Y10901375D01*
X38330936Y10902594D01*
X38321284Y10902188D01*
X38311886Y10900156D01*
X38305079Y10897412D01*
X38301269Y10896701D01*
X37339828Y10896701D01*
X37337492Y10896955D01*
X37333732Y10898530D01*
X37324487Y10901375D01*
X37314936Y10902594D01*
X37305284Y10902188D01*
X37295886Y10900156D01*
X37289028Y10897412D01*
X37285269Y10896701D01*
X35358628Y10896701D01*
X35356292Y10896955D01*
X35352532Y10898530D01*
X35343287Y10901375D01*
X35333736Y10902594D01*
X35324084Y10902188D01*
X35314686Y10900156D01*
X35307879Y10897412D01*
X35304069Y10896701D01*
X34342628Y10896701D01*
X34340292Y10896955D01*
X34336532Y10898530D01*
X34327287Y10901375D01*
X34317736Y10902594D01*
X34308084Y10902188D01*
X34298686Y10900156D01*
X34291879Y10897412D01*
X34288069Y10896701D01*
X33326679Y10896701D01*
X33324292Y10896955D01*
X33320532Y10898530D01*
X33311338Y10901375D01*
X33301787Y10902594D01*
X33292135Y10902188D01*
X33282686Y10900156D01*
X33275879Y10897412D01*
X33272069Y10896701D01*
X31345479Y10896701D01*
X31343142Y10896955D01*
X31339332Y10898530D01*
X31330138Y10901375D01*
X31320587Y10902594D01*
X31310935Y10902188D01*
X31301486Y10900156D01*
X31294679Y10897412D01*
X31290920Y10896701D01*
X30329479Y10896701D01*
X30327092Y10896955D01*
X30323332Y10898530D01*
X30314138Y10901375D01*
X30304587Y10902594D01*
X30294935Y10902188D01*
X30285486Y10900156D01*
X30278679Y10897412D01*
X30274920Y10896701D01*
X29313479Y10896701D01*
X29311092Y10896955D01*
X29307332Y10898530D01*
X29298138Y10901375D01*
X29288587Y10902594D01*
X29278935Y10902188D01*
X29269486Y10900156D01*
X29262679Y10897412D01*
X29258869Y10896701D01*
X27332279Y10896701D01*
X27329942Y10896955D01*
X27326132Y10898530D01*
X27316938Y10901375D01*
X27307387Y10902594D01*
X27297735Y10902188D01*
X27288286Y10900156D01*
X27281479Y10897412D01*
X27277720Y10896701D01*
X26316279Y10896701D01*
X26313892Y10896955D01*
X26310132Y10898530D01*
X26300938Y10901375D01*
X26291387Y10902594D01*
X26281735Y10902188D01*
X26272286Y10900156D01*
X26265479Y10897412D01*
X26261720Y10896701D01*
X25300279Y10896701D01*
X25297892Y10896955D01*
X25294132Y10898530D01*
X25284938Y10901375D01*
X25275387Y10902594D01*
X25265735Y10902188D01*
X25256286Y10900156D01*
X25249479Y10897412D01*
X25245669Y10896701D01*
X23319079Y10896701D01*
X23316742Y10896955D01*
X23312932Y10898530D01*
X23303738Y10901375D01*
X23294187Y10902594D01*
X23284535Y10902188D01*
X23275086Y10900156D01*
X23268279Y10897412D01*
X23264520Y10896701D01*
X22303079Y10896701D01*
X22300692Y10896955D01*
X22296932Y10898530D01*
X22287738Y10901375D01*
X22278187Y10902594D01*
X22268535Y10902188D01*
X22259086Y10900156D01*
X22252279Y10897412D01*
X22248520Y10896701D01*
X21287079Y10896701D01*
X21284692Y10896955D01*
X21280932Y10898530D01*
X21271738Y10901375D01*
X21262187Y10902594D01*
X21252535Y10902188D01*
X21243086Y10900156D01*
X21236279Y10897412D01*
X21232469Y10896701D01*
X19305879Y10896701D01*
X19303542Y10896955D01*
X19299783Y10898530D01*
X19290538Y10901375D01*
X19280987Y10902594D01*
X19271335Y10902188D01*
X19261937Y10900156D01*
X19255130Y10897412D01*
X19251320Y10896701D01*
X18289879Y10896701D01*
X18287542Y10896955D01*
X18283783Y10898530D01*
X18274538Y10901375D01*
X18264987Y10902594D01*
X18255335Y10902188D01*
X18245937Y10900156D01*
X18239130Y10897412D01*
X18235320Y10896701D01*
X17273879Y10896701D01*
X17271542Y10896955D01*
X17267783Y10898530D01*
X17258538Y10901375D01*
X17248987Y10902594D01*
X17239335Y10902188D01*
X17229937Y10900156D01*
X17223079Y10897412D01*
X17219320Y10896701D01*
X15292679Y10896701D01*
X15290342Y10896955D01*
X15286583Y10898530D01*
X15277338Y10901375D01*
X15267787Y10902594D01*
X15258135Y10902188D01*
X15248737Y10900156D01*
X15241930Y10897412D01*
X15238120Y10896701D01*
X14276679Y10896701D01*
X14274342Y10896955D01*
X14270583Y10898530D01*
X14261338Y10901375D01*
X14251787Y10902594D01*
X14242135Y10902188D01*
X14232737Y10900156D01*
X14225930Y10897412D01*
X14222120Y10896701D01*
X13260679Y10896701D01*
X13258342Y10896955D01*
X13254583Y10898530D01*
X13245338Y10901375D01*
X13235787Y10902594D01*
X13226135Y10902188D01*
X13216737Y10900156D01*
X13209879Y10897412D01*
X13206120Y10896701D01*
X11279479Y10896701D01*
X11277142Y10896955D01*
X11273383Y10898530D01*
X11264138Y10901375D01*
X11254587Y10902594D01*
X11244935Y10902188D01*
X11235537Y10900156D01*
X11228730Y10897412D01*
X11224920Y10896701D01*
X10263479Y10896701D01*
X10261142Y10896955D01*
X10257383Y10898530D01*
X10248138Y10901375D01*
X10238587Y10902594D01*
X10228935Y10902188D01*
X10219537Y10900156D01*
X10212730Y10897412D01*
X10208920Y10896701D01*
X9247479Y10896701D01*
X9245142Y10896955D01*
X9241383Y10898530D01*
X9232138Y10901375D01*
X9222587Y10902594D01*
X9212935Y10902188D01*
X9203537Y10900156D01*
X9196679Y10897412D01*
X9192920Y10896701D01*
X7266330Y10896701D01*
X7263993Y10896955D01*
X7260183Y10898530D01*
X7250988Y10901375D01*
X7241438Y10902594D01*
X7231786Y10902188D01*
X7222337Y10900156D01*
X7215530Y10897412D01*
X7211771Y10896701D01*
X6250330Y10896701D01*
X6247942Y10896955D01*
X6244183Y10898530D01*
X6234988Y10901375D01*
X6225438Y10902594D01*
X6215786Y10902188D01*
X6206337Y10900156D01*
X6199530Y10897412D01*
X6195771Y10896701D01*
X5234330Y10896701D01*
X5231942Y10896955D01*
X5228183Y10898530D01*
X5218988Y10901375D01*
X5209438Y10902594D01*
X5199786Y10902188D01*
X5190337Y10900156D01*
X5181396Y10896549D01*
X5173167Y10891520D01*
X5165953Y10885119D01*
X5159857Y10877600D01*
X5155184Y10869218D01*
X5151983Y10860125D01*
X5150358Y10850575D01*
X5150358Y10840974D01*
X5151983Y10831423D01*
X5155184Y10822330D01*
X5159857Y10813948D01*
X5165953Y10806430D01*
X5173167Y10800029D01*
X5181396Y10795000D01*
X5190337Y10791393D01*
X5199786Y10789361D01*
X5209438Y10788954D01*
X5218988Y10790174D01*
X5228183Y10793018D01*
X5231993Y10794593D01*
X5234330Y10794847D01*
X6195720Y10794847D01*
X6199530Y10794136D01*
X6206337Y10791393D01*
X6215786Y10789361D01*
X6225438Y10788954D01*
X6234988Y10790174D01*
X6244183Y10793018D01*
X6247993Y10794593D01*
X6250330Y10794847D01*
X7211720Y10794847D01*
X7215530Y10794136D01*
X7222337Y10791393D01*
X7231786Y10789361D01*
X7241438Y10788954D01*
X7250988Y10790174D01*
X7260183Y10793018D01*
X7263942Y10794593D01*
X7266330Y10794847D01*
X9192920Y10794847D01*
X9196730Y10794136D01*
X9203537Y10791393D01*
X9212935Y10789361D01*
X9222587Y10788954D01*
X9232138Y10790174D01*
X9241383Y10793018D01*
X9245142Y10794593D01*
X9247479Y10794847D01*
X10208920Y10794847D01*
X10212679Y10794136D01*
X10219537Y10791393D01*
X10228935Y10789361D01*
X10238587Y10788954D01*
X10248138Y10790174D01*
X10257383Y10793018D01*
X10261142Y10794593D01*
X10263479Y10794847D01*
X11224920Y10794847D01*
X11228679Y10794136D01*
X11235537Y10791393D01*
X11244935Y10789361D01*
X11254587Y10788954D01*
X11264138Y10790174D01*
X11273383Y10793018D01*
X11277142Y10794593D01*
X11279479Y10794847D01*
X13206120Y10794847D01*
X13209930Y10794136D01*
X13216737Y10791393D01*
X13226135Y10789361D01*
X13235787Y10788954D01*
X13245338Y10790174D01*
X13254583Y10793018D01*
X13258342Y10794593D01*
X13260679Y10794847D01*
X14222120Y10794847D01*
X14225879Y10794136D01*
X14232737Y10791393D01*
X14242135Y10789361D01*
X14251787Y10788954D01*
X14261338Y10790174D01*
X14270583Y10793018D01*
X14274342Y10794593D01*
X14276679Y10794847D01*
X15238120Y10794847D01*
X15241879Y10794136D01*
X15248737Y10791393D01*
X15258135Y10789361D01*
X15267787Y10788954D01*
X15277338Y10790174D01*
X15286583Y10793018D01*
X15290342Y10794593D01*
X15292679Y10794847D01*
X17219320Y10794847D01*
X17223130Y10794136D01*
X17229937Y10791393D01*
X17239335Y10789361D01*
X17248987Y10788954D01*
X17258538Y10790174D01*
X17267783Y10793018D01*
X17271542Y10794593D01*
X17273879Y10794847D01*
X18235320Y10794847D01*
X18239079Y10794136D01*
X18245937Y10791393D01*
X18255335Y10789361D01*
X18264987Y10788954D01*
X18274538Y10790174D01*
X18283783Y10793018D01*
X18287542Y10794593D01*
X18289879Y10794847D01*
X19251320Y10794847D01*
X19255079Y10794136D01*
X19261937Y10791393D01*
X19271335Y10789361D01*
X19280987Y10788954D01*
X19290538Y10790174D01*
X19299783Y10793018D01*
X19303542Y10794593D01*
X19305879Y10794847D01*
X21232520Y10794847D01*
X21236279Y10794136D01*
X21243086Y10791393D01*
X21252535Y10789361D01*
X21262187Y10788954D01*
X21271738Y10790174D01*
X21280932Y10793018D01*
X21284742Y10794593D01*
X21287079Y10794847D01*
X22248469Y10794847D01*
X22252279Y10794136D01*
X22259086Y10791393D01*
X22268535Y10789361D01*
X22278187Y10788954D01*
X22287738Y10790174D01*
X22296932Y10793018D01*
X22300742Y10794593D01*
X22303079Y10794847D01*
X23264469Y10794847D01*
X23268279Y10794136D01*
X23275086Y10791393D01*
X23284535Y10789361D01*
X23294187Y10788954D01*
X23303738Y10790174D01*
X23312932Y10793018D01*
X23316692Y10794593D01*
X23319079Y10794847D01*
X25245720Y10794847D01*
X25249479Y10794136D01*
X25256286Y10791393D01*
X25265735Y10789361D01*
X25275387Y10788954D01*
X25284938Y10790174D01*
X25294132Y10793018D01*
X25297942Y10794593D01*
X25300279Y10794847D01*
X26261669Y10794847D01*
X26265479Y10794136D01*
X26272286Y10791393D01*
X26281735Y10789361D01*
X26291387Y10788954D01*
X26300938Y10790174D01*
X26310132Y10793018D01*
X26313942Y10794593D01*
X26316279Y10794847D01*
X27277669Y10794847D01*
X27281479Y10794136D01*
X27288286Y10791393D01*
X27297735Y10789361D01*
X27307387Y10788954D01*
X27316938Y10790174D01*
X27326132Y10793018D01*
X27329892Y10794593D01*
X27332279Y10794847D01*
X29258920Y10794847D01*
X29262679Y10794136D01*
X29269486Y10791393D01*
X29278935Y10789361D01*
X29288587Y10788954D01*
X29298138Y10790174D01*
X29307332Y10793018D01*
X29311142Y10794593D01*
X29313479Y10794847D01*
X30274869Y10794847D01*
X30278679Y10794136D01*
X30285486Y10791393D01*
X30294935Y10789361D01*
X30304587Y10788954D01*
X30314138Y10790174D01*
X30323332Y10793018D01*
X30327142Y10794593D01*
X30329479Y10794847D01*
X31290869Y10794847D01*
X31294679Y10794136D01*
X31301486Y10791393D01*
X31310935Y10789361D01*
X31320587Y10788954D01*
X31330138Y10790174D01*
X31339332Y10793018D01*
X31343092Y10794593D01*
X31345479Y10794847D01*
X33272120Y10794847D01*
X33275879Y10794136D01*
X33282686Y10791393D01*
X33292135Y10789361D01*
X33301787Y10788954D01*
X33311338Y10790174D01*
X33320532Y10793018D01*
X33324342Y10794593D01*
X33326679Y10794847D01*
X34288069Y10794847D01*
X34291828Y10794136D01*
X34298686Y10791393D01*
X34308084Y10789361D01*
X34317736Y10788954D01*
X34327287Y10790174D01*
X34336532Y10793018D01*
X34340292Y10794593D01*
X34342628Y10794847D01*
X35304069Y10794847D01*
X35307828Y10794136D01*
X35314686Y10791393D01*
X35324084Y10789361D01*
X35333736Y10788954D01*
X35343287Y10790174D01*
X35352532Y10793018D01*
X35356292Y10794593D01*
X35358628Y10794847D01*
X37285269Y10794847D01*
X37289079Y10794136D01*
X37295886Y10791393D01*
X37305284Y10789361D01*
X37314936Y10788954D01*
X37324487Y10790174D01*
X37333732Y10793018D01*
X37337492Y10794593D01*
X37339828Y10794847D01*
X38301269Y10794847D01*
X38305028Y10794136D01*
X38311886Y10791393D01*
X38321284Y10789361D01*
X38330936Y10788954D01*
X38340487Y10790174D01*
X38349732Y10793018D01*
X38353492Y10794593D01*
X38355828Y10794847D01*
X39317269Y10794847D01*
X39321028Y10794136D01*
X39327886Y10791393D01*
X39337284Y10789361D01*
X39346936Y10788954D01*
X39356487Y10790174D01*
X39365732Y10793018D01*
X39369492Y10794593D01*
X39371828Y10794847D01*
X41298469Y10794847D01*
X41302279Y10794136D01*
X41309086Y10791393D01*
X41318484Y10789361D01*
X41328136Y10788954D01*
X41337687Y10790174D01*
X41346932Y10793018D01*
X41350692Y10794593D01*
X41353028Y10794847D01*
X42314469Y10794847D01*
X42318228Y10794136D01*
X42325086Y10791393D01*
X42334484Y10789361D01*
X42344136Y10788954D01*
X42353687Y10790174D01*
X42362932Y10793018D01*
X42366692Y10794593D01*
X42369028Y10794847D01*
X43330469Y10794847D01*
X43334228Y10794136D01*
X43341086Y10791393D01*
X43350484Y10789361D01*
X43360136Y10788954D01*
X43369687Y10790174D01*
X43378932Y10793018D01*
X43382692Y10794593D01*
X43385028Y10794847D01*
X44896938Y10794847D01*
X44900799Y10794085D01*
X44904101Y10791901D01*
X44906336Y10788599D01*
X44907098Y10784687D01*
X44907098Y9890861D01*
X44906336Y9886950D01*
X44904101Y9883648D01*
X44900799Y9881463D01*
X44896938Y9880701D01*
X43385028Y9880701D01*
X43382692Y9880955D01*
X43378932Y9882530D01*
X43369687Y9885375D01*
X43360136Y9886594D01*
X43350484Y9886188D01*
X43341086Y9884156D01*
X43334279Y9881412D01*
X43330469Y9880701D01*
X42369028Y9880701D01*
X42366692Y9880955D01*
X42362932Y9882530D01*
X42353687Y9885375D01*
X42344136Y9886594D01*
X42334484Y9886188D01*
X42325086Y9884156D01*
X42318279Y9881412D01*
X42314469Y9880701D01*
X41353028Y9880701D01*
X41350692Y9880955D01*
X41346932Y9882530D01*
X41337687Y9885375D01*
X41328136Y9886594D01*
X41318484Y9886188D01*
X41309086Y9884156D01*
X41302279Y9881412D01*
X41298469Y9880701D01*
X39371828Y9880701D01*
X39369492Y9880955D01*
X39365732Y9882530D01*
X39356487Y9885375D01*
X39346936Y9886594D01*
X39337284Y9886188D01*
X39327886Y9884156D01*
X39321079Y9881412D01*
X39317269Y9880701D01*
X38355828Y9880701D01*
X38353492Y9880955D01*
X38349732Y9882530D01*
X38340487Y9885375D01*
X38330936Y9886594D01*
X38321284Y9886188D01*
X38311886Y9884156D01*
X38305079Y9881412D01*
X38301269Y9880701D01*
X37339828Y9880701D01*
X37337492Y9880955D01*
X37333732Y9882530D01*
X37324487Y9885375D01*
X37314936Y9886594D01*
X37305284Y9886188D01*
X37295886Y9884156D01*
X37289079Y9881412D01*
X37285269Y9880701D01*
X35358628Y9880701D01*
X35356292Y9880955D01*
X35352532Y9882530D01*
X35343287Y9885375D01*
X35333736Y9886594D01*
X35324084Y9886188D01*
X35314686Y9884156D01*
X35307879Y9881412D01*
X35304069Y9880701D01*
X34342628Y9880701D01*
X34340292Y9880955D01*
X34336532Y9882530D01*
X34327287Y9885375D01*
X34317736Y9886594D01*
X34308084Y9886188D01*
X34298686Y9884156D01*
X34291879Y9881412D01*
X34288069Y9880701D01*
X33326628Y9880701D01*
X33324292Y9880955D01*
X33320532Y9882530D01*
X33311338Y9885375D01*
X33301787Y9886594D01*
X33292135Y9886188D01*
X33282686Y9884156D01*
X33275879Y9881412D01*
X33272069Y9880701D01*
X31345479Y9880701D01*
X31343092Y9880955D01*
X31339332Y9882530D01*
X31330138Y9885375D01*
X31320587Y9886594D01*
X31310935Y9886188D01*
X31301486Y9884156D01*
X31294730Y9881412D01*
X31290920Y9880701D01*
X30329428Y9880701D01*
X30327092Y9880955D01*
X30323332Y9882530D01*
X30314138Y9885375D01*
X30304587Y9886594D01*
X30294935Y9886188D01*
X30285486Y9884156D01*
X30278730Y9881412D01*
X30274920Y9880701D01*
X29313428Y9880701D01*
X29311092Y9880955D01*
X29307332Y9882530D01*
X29298138Y9885375D01*
X29288587Y9886594D01*
X29278935Y9886188D01*
X29269486Y9884156D01*
X29262679Y9881412D01*
X29258869Y9880701D01*
X27332279Y9880701D01*
X27329892Y9880955D01*
X27326132Y9882530D01*
X27316938Y9885375D01*
X27307387Y9886594D01*
X27297735Y9886188D01*
X27288286Y9884156D01*
X27281530Y9881412D01*
X27277720Y9880701D01*
X26316228Y9880701D01*
X26313892Y9880955D01*
X26310132Y9882530D01*
X26300938Y9885375D01*
X26291387Y9886594D01*
X26281735Y9886188D01*
X26272286Y9884156D01*
X26265530Y9881412D01*
X26261720Y9880701D01*
X25300228Y9880701D01*
X25297892Y9880955D01*
X25294132Y9882530D01*
X25284938Y9885375D01*
X25275387Y9886594D01*
X25265735Y9886188D01*
X25256286Y9884156D01*
X25249479Y9881412D01*
X25245669Y9880701D01*
X23319079Y9880701D01*
X23316692Y9880955D01*
X23312932Y9882530D01*
X23303738Y9885375D01*
X23294187Y9886594D01*
X23284535Y9886188D01*
X23275086Y9884156D01*
X23268330Y9881412D01*
X23264520Y9880701D01*
X22303028Y9880701D01*
X22300692Y9880955D01*
X22296932Y9882530D01*
X22287738Y9885375D01*
X22278187Y9886594D01*
X22268535Y9886188D01*
X22259086Y9884156D01*
X22252330Y9881412D01*
X22248520Y9880701D01*
X21287028Y9880701D01*
X21284692Y9880955D01*
X21280932Y9882530D01*
X21271738Y9885375D01*
X21262187Y9886594D01*
X21252535Y9886188D01*
X21243086Y9884156D01*
X21236279Y9881412D01*
X21232469Y9880701D01*
X19305879Y9880701D01*
X19303542Y9880955D01*
X19299783Y9882530D01*
X19290538Y9885375D01*
X19280987Y9886594D01*
X19271335Y9886188D01*
X19261937Y9884156D01*
X19255130Y9881412D01*
X19251320Y9880701D01*
X18289879Y9880701D01*
X18287542Y9880955D01*
X18283783Y9882530D01*
X18274538Y9885375D01*
X18264987Y9886594D01*
X18255335Y9886188D01*
X18245937Y9884156D01*
X18239130Y9881412D01*
X18235320Y9880701D01*
X17273879Y9880701D01*
X17271542Y9880955D01*
X17267783Y9882530D01*
X17258538Y9885375D01*
X17248987Y9886594D01*
X17239335Y9886188D01*
X17229937Y9884156D01*
X17223130Y9881412D01*
X17219320Y9880701D01*
X15292679Y9880701D01*
X15290342Y9880955D01*
X15286583Y9882530D01*
X15277338Y9885375D01*
X15267787Y9886594D01*
X15258135Y9886188D01*
X15248737Y9884156D01*
X15241930Y9881412D01*
X15238120Y9880701D01*
X14276679Y9880701D01*
X14274342Y9880955D01*
X14270583Y9882530D01*
X14261338Y9885375D01*
X14251787Y9886594D01*
X14242135Y9886188D01*
X14232737Y9884156D01*
X14225930Y9881412D01*
X14222120Y9880701D01*
X13260679Y9880701D01*
X13258342Y9880955D01*
X13254583Y9882530D01*
X13245338Y9885375D01*
X13235787Y9886594D01*
X13226135Y9886188D01*
X13216737Y9884156D01*
X13209930Y9881412D01*
X13206120Y9880701D01*
X11279479Y9880701D01*
X11277142Y9880955D01*
X11273383Y9882530D01*
X11264138Y9885375D01*
X11254587Y9886594D01*
X11244935Y9886188D01*
X11235537Y9884156D01*
X11228730Y9881412D01*
X11224920Y9880701D01*
X10263479Y9880701D01*
X10261142Y9880955D01*
X10257383Y9882530D01*
X10248138Y9885375D01*
X10238587Y9886594D01*
X10228935Y9886188D01*
X10219537Y9884156D01*
X10212730Y9881412D01*
X10208920Y9880701D01*
X9247479Y9880701D01*
X9245142Y9880955D01*
X9241383Y9882530D01*
X9232138Y9885375D01*
X9222587Y9886594D01*
X9212935Y9886188D01*
X9203537Y9884156D01*
X9196730Y9881412D01*
X9192920Y9880701D01*
X7266330Y9880701D01*
X7263942Y9880955D01*
X7260183Y9882530D01*
X7250988Y9885375D01*
X7241438Y9886594D01*
X7231786Y9886188D01*
X7222337Y9884156D01*
X7215581Y9881412D01*
X7211771Y9880701D01*
X6250279Y9880701D01*
X6247942Y9880955D01*
X6244183Y9882530D01*
X6234988Y9885375D01*
X6225438Y9886594D01*
X6215786Y9886188D01*
X6206337Y9884156D01*
X6199581Y9881412D01*
X6195771Y9880701D01*
X5234279Y9880701D01*
X5231942Y9880955D01*
X5228183Y9882530D01*
X5218988Y9885375D01*
X5209438Y9886594D01*
X5199786Y9886188D01*
X5190337Y9884156D01*
X5181396Y9880549D01*
X5173167Y9875520D01*
X5165953Y9869119D01*
X5159857Y9861600D01*
X5155184Y9853218D01*
X5151983Y9844125D01*
X5150358Y9834575D01*
X5150358Y9824974D01*
X5151983Y9815423D01*
X5155184Y9806330D01*
X5159857Y9797948D01*
X5165953Y9790430D01*
X5173167Y9784029D01*
X5181396Y9779000D01*
X5190337Y9775393D01*
X5199786Y9773361D01*
X5209438Y9772954D01*
X5218988Y9774174D01*
X5228183Y9777018D01*
X5231993Y9778593D01*
X5234330Y9778898D01*
X6195720Y9778898D01*
X6199530Y9778136D01*
X6206337Y9775393D01*
X6215786Y9773361D01*
X6225438Y9772954D01*
X6234988Y9774174D01*
X6244183Y9777018D01*
X6247993Y9778593D01*
X6250330Y9778898D01*
X7211720Y9778898D01*
X7215530Y9778136D01*
X7222337Y9775393D01*
X7231786Y9773361D01*
X7241438Y9772954D01*
X7250988Y9774174D01*
X7260183Y9777018D01*
X7263942Y9778593D01*
X7266330Y9778847D01*
X9192920Y9778847D01*
X9196730Y9778136D01*
X9203537Y9775393D01*
X9212935Y9773361D01*
X9222587Y9772954D01*
X9232138Y9774174D01*
X9241383Y9777018D01*
X9245142Y9778593D01*
X9247530Y9778898D01*
X10208869Y9778898D01*
X10212679Y9778136D01*
X10219537Y9775393D01*
X10228935Y9773361D01*
X10238587Y9772954D01*
X10248138Y9774174D01*
X10257383Y9777018D01*
X10261142Y9778593D01*
X10263530Y9778898D01*
X11224869Y9778898D01*
X11228679Y9778136D01*
X11235537Y9775393D01*
X11244935Y9773361D01*
X11254587Y9772954D01*
X11264138Y9774174D01*
X11273383Y9777018D01*
X11277142Y9778593D01*
X11279479Y9778847D01*
X13206120Y9778847D01*
X13209930Y9778136D01*
X13216737Y9775393D01*
X13226135Y9773361D01*
X13235787Y9772954D01*
X13245338Y9774174D01*
X13254583Y9777018D01*
X13258342Y9778593D01*
X13260730Y9778898D01*
X14222069Y9778898D01*
X14225879Y9778136D01*
X14232737Y9775393D01*
X14242135Y9773361D01*
X14251787Y9772954D01*
X14261338Y9774174D01*
X14270583Y9777018D01*
X14274342Y9778593D01*
X14276730Y9778898D01*
X15238069Y9778898D01*
X15241879Y9778136D01*
X15248737Y9775393D01*
X15258135Y9773361D01*
X15267787Y9772954D01*
X15277338Y9774174D01*
X15286583Y9777018D01*
X15290342Y9778593D01*
X15292679Y9778847D01*
X17219320Y9778847D01*
X17223130Y9778136D01*
X17229937Y9775393D01*
X17239335Y9773361D01*
X17248987Y9772954D01*
X17258538Y9774174D01*
X17267783Y9777018D01*
X17271542Y9778593D01*
X17273930Y9778898D01*
X18235269Y9778898D01*
X18239079Y9778136D01*
X18245937Y9775393D01*
X18255335Y9773361D01*
X18264987Y9772954D01*
X18274538Y9774174D01*
X18283783Y9777018D01*
X18287542Y9778593D01*
X18289930Y9778898D01*
X19251269Y9778898D01*
X19255079Y9778136D01*
X19261937Y9775393D01*
X19271335Y9773361D01*
X19280987Y9772954D01*
X19290538Y9774174D01*
X19299783Y9777018D01*
X19303542Y9778593D01*
X19305879Y9778847D01*
X21232469Y9778847D01*
X21236279Y9778136D01*
X21243086Y9775393D01*
X21252535Y9773361D01*
X21262187Y9772954D01*
X21271738Y9774174D01*
X21280932Y9777018D01*
X21284742Y9778593D01*
X21287079Y9778898D01*
X22248469Y9778898D01*
X22252279Y9778136D01*
X22259086Y9775393D01*
X22268535Y9773361D01*
X22278187Y9772954D01*
X22287738Y9774174D01*
X22296932Y9777018D01*
X22300742Y9778593D01*
X22303079Y9778898D01*
X23264469Y9778898D01*
X23268279Y9778136D01*
X23275086Y9775393D01*
X23284535Y9773361D01*
X23294187Y9772954D01*
X23303738Y9774174D01*
X23312932Y9777018D01*
X23316692Y9778593D01*
X23319079Y9778847D01*
X25245669Y9778847D01*
X25249479Y9778136D01*
X25256286Y9775393D01*
X25265735Y9773361D01*
X25275387Y9772954D01*
X25284938Y9774174D01*
X25294132Y9777018D01*
X25297942Y9778593D01*
X25300279Y9778898D01*
X26261669Y9778898D01*
X26265479Y9778136D01*
X26272286Y9775393D01*
X26281735Y9773361D01*
X26291387Y9772954D01*
X26300938Y9774174D01*
X26310132Y9777018D01*
X26313942Y9778593D01*
X26316279Y9778898D01*
X27277669Y9778898D01*
X27281479Y9778136D01*
X27288286Y9775393D01*
X27297735Y9773361D01*
X27307387Y9772954D01*
X27316938Y9774174D01*
X27326132Y9777018D01*
X27329892Y9778593D01*
X27332279Y9778847D01*
X29258869Y9778847D01*
X29262679Y9778136D01*
X29269486Y9775393D01*
X29278935Y9773361D01*
X29288587Y9772954D01*
X29298138Y9774174D01*
X29307332Y9777018D01*
X29311142Y9778593D01*
X29313479Y9778898D01*
X30274869Y9778898D01*
X30278679Y9778136D01*
X30285486Y9775393D01*
X30294935Y9773361D01*
X30304587Y9772954D01*
X30314138Y9774174D01*
X30323332Y9777018D01*
X30327142Y9778593D01*
X30329479Y9778898D01*
X31290869Y9778898D01*
X31294679Y9778136D01*
X31301486Y9775393D01*
X31310935Y9773361D01*
X31320587Y9772954D01*
X31330138Y9774174D01*
X31339332Y9777018D01*
X31343092Y9778593D01*
X31345479Y9778847D01*
X33272069Y9778847D01*
X33275879Y9778136D01*
X33282686Y9775393D01*
X33292135Y9773361D01*
X33301787Y9772954D01*
X33311338Y9774174D01*
X33320532Y9777018D01*
X33324342Y9778593D01*
X33326679Y9778898D01*
X34288018Y9778898D01*
X34291828Y9778136D01*
X34298686Y9775393D01*
X34308084Y9773361D01*
X34317736Y9772954D01*
X34327287Y9774174D01*
X34336532Y9777018D01*
X34340292Y9778593D01*
X34342679Y9778898D01*
X35304018Y9778898D01*
X35307828Y9778136D01*
X35314686Y9775393D01*
X35324084Y9773361D01*
X35333736Y9772954D01*
X35343287Y9774174D01*
X35352532Y9777018D01*
X35356292Y9778593D01*
X35358628Y9778847D01*
X37285269Y9778847D01*
X37289079Y9778136D01*
X37295886Y9775393D01*
X37305284Y9773361D01*
X37314936Y9772954D01*
X37324487Y9774174D01*
X37333732Y9777018D01*
X37337492Y9778593D01*
X37339879Y9778898D01*
X38301218Y9778898D01*
X38305028Y9778136D01*
X38311886Y9775393D01*
X38321284Y9773361D01*
X38330936Y9772954D01*
X38340487Y9774174D01*
X38349732Y9777018D01*
X38353492Y9778593D01*
X38355879Y9778898D01*
X39317218Y9778898D01*
X39321028Y9778136D01*
X39327886Y9775393D01*
X39337284Y9773361D01*
X39346936Y9772954D01*
X39356487Y9774174D01*
X39365732Y9777018D01*
X39369492Y9778593D01*
X39371828Y9778847D01*
X41298469Y9778847D01*
X41302279Y9778136D01*
X41309086Y9775393D01*
X41318484Y9773361D01*
X41328136Y9772954D01*
X41337687Y9774174D01*
X41346932Y9777018D01*
X41350692Y9778593D01*
X41353079Y9778898D01*
X42314418Y9778898D01*
X42318228Y9778136D01*
X42325086Y9775393D01*
X42334484Y9773361D01*
X42344136Y9772954D01*
X42353687Y9774174D01*
X42362932Y9777018D01*
X42366692Y9778593D01*
X42369079Y9778898D01*
X43330418Y9778898D01*
X43334228Y9778136D01*
X43341086Y9775393D01*
X43350484Y9773361D01*
X43360136Y9772954D01*
X43369687Y9774174D01*
X43378932Y9777018D01*
X43382692Y9778593D01*
X43385028Y9778847D01*
X44896938Y9778847D01*
X44900799Y9778085D01*
X44904101Y9775901D01*
X44906336Y9772599D01*
X44907098Y9768687D01*
X44907098Y7858861D01*
X44906336Y7854950D01*
X44904101Y7851648D01*
X44900799Y7849463D01*
X44896938Y7848701D01*
X43385028Y7848701D01*
X43382692Y7848955D01*
X43378932Y7850530D01*
X43369687Y7853375D01*
X43360136Y7854594D01*
X43350484Y7854188D01*
X43341086Y7852156D01*
X43334279Y7849412D01*
X43330520Y7848701D01*
X42369028Y7848701D01*
X42366641Y7848955D01*
X42362932Y7850530D01*
X42353687Y7853375D01*
X42344136Y7854594D01*
X42334484Y7854188D01*
X42325086Y7852156D01*
X42318279Y7849412D01*
X42314520Y7848701D01*
X41353028Y7848701D01*
X41350641Y7848955D01*
X41346932Y7850530D01*
X41337687Y7853375D01*
X41328136Y7854594D01*
X41318484Y7854188D01*
X41309086Y7852156D01*
X41302330Y7849412D01*
X41298520Y7848701D01*
X39371778Y7848701D01*
X39369441Y7848955D01*
X39365732Y7850530D01*
X39356487Y7853375D01*
X39346936Y7854594D01*
X39337284Y7854188D01*
X39327886Y7852156D01*
X39321079Y7849412D01*
X39317320Y7848701D01*
X38355828Y7848701D01*
X38353441Y7848955D01*
X38349732Y7850530D01*
X38340487Y7853375D01*
X38330936Y7854594D01*
X38321284Y7854188D01*
X38311886Y7852156D01*
X38305079Y7849412D01*
X38301320Y7848701D01*
X37339828Y7848701D01*
X37337441Y7848955D01*
X37333732Y7850530D01*
X37324487Y7853375D01*
X37314936Y7854594D01*
X37305284Y7854188D01*
X37295886Y7852156D01*
X37289130Y7849412D01*
X37285320Y7848701D01*
X35358578Y7848701D01*
X35356241Y7848955D01*
X35352532Y7850530D01*
X35343287Y7853375D01*
X35333736Y7854594D01*
X35324084Y7854188D01*
X35314686Y7852156D01*
X35307879Y7849412D01*
X35304120Y7848701D01*
X34342628Y7848701D01*
X34340241Y7848955D01*
X34336532Y7850530D01*
X34327287Y7853375D01*
X34317736Y7854594D01*
X34308084Y7854188D01*
X34298686Y7852156D01*
X34291879Y7849412D01*
X34288120Y7848701D01*
X33326628Y7848701D01*
X33324292Y7848955D01*
X33320532Y7850530D01*
X33311338Y7853375D01*
X33301787Y7854594D01*
X33292135Y7854188D01*
X33282686Y7852156D01*
X33275930Y7849412D01*
X33272120Y7848701D01*
X31345428Y7848701D01*
X31343092Y7848955D01*
X31339332Y7850530D01*
X31330138Y7853375D01*
X31320587Y7854594D01*
X31310935Y7854188D01*
X31301486Y7852156D01*
X31294730Y7849412D01*
X31290920Y7848701D01*
X30329428Y7848701D01*
X30327092Y7848955D01*
X30323332Y7850530D01*
X30314138Y7853375D01*
X30304587Y7854594D01*
X30294935Y7854188D01*
X30285486Y7852156D01*
X30278730Y7849412D01*
X30274920Y7848701D01*
X29313428Y7848701D01*
X29311092Y7848955D01*
X29307332Y7850530D01*
X29298138Y7853375D01*
X29288587Y7854594D01*
X29278935Y7854188D01*
X29269486Y7852156D01*
X29262730Y7849412D01*
X29258920Y7848701D01*
X27332228Y7848701D01*
X27329892Y7848955D01*
X27326132Y7850530D01*
X27316938Y7853375D01*
X27307387Y7854594D01*
X27297735Y7854188D01*
X27288286Y7852156D01*
X27281530Y7849412D01*
X27277720Y7848701D01*
X26316228Y7848701D01*
X26313892Y7848955D01*
X26310132Y7850530D01*
X26300938Y7853375D01*
X26291387Y7854594D01*
X26281735Y7854188D01*
X26272286Y7852156D01*
X26265530Y7849412D01*
X26261720Y7848701D01*
X25300228Y7848701D01*
X25297892Y7848955D01*
X25294132Y7850530D01*
X25284938Y7853375D01*
X25275387Y7854594D01*
X25265735Y7854188D01*
X25256286Y7852156D01*
X25249530Y7849412D01*
X25245720Y7848701D01*
X23319028Y7848701D01*
X23316692Y7848955D01*
X23312932Y7850530D01*
X23303738Y7853375D01*
X23294187Y7854594D01*
X23284535Y7854188D01*
X23275086Y7852156D01*
X23268330Y7849412D01*
X23264520Y7848701D01*
X22303028Y7848701D01*
X22300692Y7848955D01*
X22296932Y7850530D01*
X22287738Y7853375D01*
X22278187Y7854594D01*
X22268535Y7854188D01*
X22259086Y7852156D01*
X22252330Y7849412D01*
X22248520Y7848701D01*
X21287028Y7848701D01*
X21284692Y7848955D01*
X21280932Y7850530D01*
X21271738Y7853375D01*
X21262187Y7854594D01*
X21252535Y7854188D01*
X21243086Y7852156D01*
X21236330Y7849412D01*
X21232520Y7848701D01*
X19305828Y7848701D01*
X19303492Y7848955D01*
X19299783Y7850530D01*
X19290538Y7853375D01*
X19280987Y7854594D01*
X19271335Y7854188D01*
X19261937Y7852156D01*
X19255130Y7849412D01*
X19251371Y7848701D01*
X18289879Y7848701D01*
X18287492Y7848955D01*
X18283783Y7850530D01*
X18274538Y7853375D01*
X18264987Y7854594D01*
X18255335Y7854188D01*
X18245937Y7852156D01*
X18239130Y7849412D01*
X18235371Y7848701D01*
X17273879Y7848701D01*
X17271492Y7848955D01*
X17267783Y7850530D01*
X17258538Y7853375D01*
X17248987Y7854594D01*
X17239335Y7854188D01*
X17229937Y7852156D01*
X17223181Y7849412D01*
X17219371Y7848701D01*
X15292628Y7848701D01*
X15290292Y7848955D01*
X15286583Y7850530D01*
X15277338Y7853375D01*
X15267787Y7854594D01*
X15258135Y7854188D01*
X15248737Y7852156D01*
X15241930Y7849412D01*
X15238171Y7848701D01*
X14276679Y7848701D01*
X14274292Y7848955D01*
X14270583Y7850530D01*
X14261338Y7853375D01*
X14251787Y7854594D01*
X14242135Y7854188D01*
X14232737Y7852156D01*
X14225930Y7849412D01*
X14222171Y7848701D01*
X13260679Y7848701D01*
X13258292Y7848955D01*
X13254583Y7850530D01*
X13245338Y7853375D01*
X13235787Y7854594D01*
X13226135Y7854188D01*
X13216737Y7852156D01*
X13209981Y7849412D01*
X13206171Y7848701D01*
X11279428Y7848701D01*
X11277092Y7848955D01*
X11273383Y7850530D01*
X11264138Y7853375D01*
X11254587Y7854594D01*
X11244935Y7854188D01*
X11235537Y7852156D01*
X11228730Y7849412D01*
X11224971Y7848701D01*
X10263479Y7848701D01*
X10261092Y7848955D01*
X10257383Y7850530D01*
X10248138Y7853375D01*
X10238587Y7854594D01*
X10228935Y7854188D01*
X10219537Y7852156D01*
X10212730Y7849412D01*
X10208971Y7848701D01*
X9247479Y7848701D01*
X9245092Y7848955D01*
X9241383Y7850530D01*
X9232138Y7853375D01*
X9222587Y7854594D01*
X9212935Y7854188D01*
X9203537Y7852156D01*
X9196781Y7849412D01*
X9192971Y7848701D01*
X7266279Y7848701D01*
X7263942Y7848955D01*
X7260183Y7850530D01*
X7250988Y7853375D01*
X7241438Y7854594D01*
X7231786Y7854188D01*
X7222337Y7852156D01*
X7215581Y7849412D01*
X7211771Y7848701D01*
X6250279Y7848701D01*
X6247942Y7848955D01*
X6244183Y7850530D01*
X6234988Y7853375D01*
X6225438Y7854594D01*
X6215786Y7854188D01*
X6206337Y7852156D01*
X6199581Y7849412D01*
X6195771Y7848701D01*
X5234279Y7848701D01*
X5231942Y7848955D01*
X5228183Y7850530D01*
X5218988Y7853375D01*
X5209438Y7854594D01*
X5199786Y7854188D01*
X5190337Y7852156D01*
X5181396Y7848549D01*
X5173167Y7843520D01*
X5165953Y7837119D01*
X5159857Y7829600D01*
X5155184Y7821218D01*
X5151983Y7812125D01*
X5150358Y7802575D01*
X5150358Y7792974D01*
X5151983Y7783423D01*
X5155184Y7774330D01*
X5159857Y7765948D01*
X5165953Y7758430D01*
X5173167Y7752029D01*
X5181396Y7747000D01*
X5190337Y7743393D01*
X5199786Y7741361D01*
X5209438Y7740954D01*
X5218988Y7742174D01*
X5228183Y7745018D01*
X5231993Y7746593D01*
X5234330Y7746898D01*
X6195720Y7746898D01*
X6199479Y7746136D01*
X6206337Y7743393D01*
X6215786Y7741361D01*
X6225438Y7740954D01*
X6234988Y7742174D01*
X6244183Y7745018D01*
X6247993Y7746593D01*
X6250330Y7746898D01*
X7211720Y7746898D01*
X7215479Y7746136D01*
X7222337Y7743393D01*
X7231786Y7741361D01*
X7241438Y7740954D01*
X7250988Y7742174D01*
X7260183Y7745018D01*
X7263993Y7746593D01*
X7266381Y7746898D01*
X9192869Y7746898D01*
X9196679Y7746136D01*
X9203537Y7743393D01*
X9212935Y7741361D01*
X9222587Y7740954D01*
X9232138Y7742174D01*
X9241383Y7745018D01*
X9245142Y7746593D01*
X9247530Y7746898D01*
X10208869Y7746898D01*
X10212679Y7746136D01*
X10219537Y7743393D01*
X10228935Y7741361D01*
X10238587Y7740954D01*
X10248138Y7742174D01*
X10257383Y7745018D01*
X10261142Y7746593D01*
X10263530Y7746898D01*
X11224869Y7746898D01*
X11228679Y7746136D01*
X11235537Y7743393D01*
X11244935Y7741361D01*
X11254587Y7740954D01*
X11264138Y7742174D01*
X11273383Y7745018D01*
X11277193Y7746593D01*
X11279530Y7746898D01*
X13206069Y7746898D01*
X13209879Y7746136D01*
X13216737Y7743393D01*
X13226135Y7741361D01*
X13235787Y7740954D01*
X13245338Y7742174D01*
X13254583Y7745018D01*
X13258342Y7746593D01*
X13260730Y7746898D01*
X14222069Y7746898D01*
X14225879Y7746136D01*
X14232737Y7743393D01*
X14242135Y7741361D01*
X14251787Y7740954D01*
X14261338Y7742174D01*
X14270583Y7745018D01*
X14274342Y7746593D01*
X14276730Y7746898D01*
X15238069Y7746898D01*
X15241879Y7746136D01*
X15248737Y7743393D01*
X15258135Y7741361D01*
X15267787Y7740954D01*
X15277338Y7742174D01*
X15286583Y7745018D01*
X15290393Y7746593D01*
X15292730Y7746898D01*
X17219269Y7746898D01*
X17223079Y7746136D01*
X17229937Y7743393D01*
X17239335Y7741361D01*
X17248987Y7740954D01*
X17258538Y7742174D01*
X17267783Y7745018D01*
X17271542Y7746593D01*
X17273930Y7746898D01*
X18235269Y7746898D01*
X18239079Y7746136D01*
X18245937Y7743393D01*
X18255335Y7741361D01*
X18264987Y7740954D01*
X18274538Y7742174D01*
X18283783Y7745018D01*
X18287542Y7746593D01*
X18289930Y7746898D01*
X19251269Y7746898D01*
X19255079Y7746136D01*
X19261937Y7743393D01*
X19271335Y7741361D01*
X19280987Y7740954D01*
X19290538Y7742174D01*
X19299783Y7745018D01*
X19303593Y7746593D01*
X19305930Y7746898D01*
X21232418Y7746898D01*
X21236228Y7746136D01*
X21243086Y7743393D01*
X21252535Y7741361D01*
X21262187Y7740954D01*
X21271738Y7742174D01*
X21280932Y7745018D01*
X21284742Y7746593D01*
X21287079Y7746898D01*
X22248469Y7746898D01*
X22252228Y7746136D01*
X22259086Y7743393D01*
X22268535Y7741361D01*
X22278187Y7740954D01*
X22287738Y7742174D01*
X22296932Y7745018D01*
X22300742Y7746593D01*
X22303079Y7746898D01*
X23264469Y7746898D01*
X23268228Y7746136D01*
X23275086Y7743393D01*
X23284535Y7741361D01*
X23294187Y7740954D01*
X23303738Y7742174D01*
X23312932Y7745018D01*
X23316742Y7746593D01*
X23319130Y7746898D01*
X25245618Y7746898D01*
X25249428Y7746136D01*
X25256286Y7743393D01*
X25265735Y7741361D01*
X25275387Y7740954D01*
X25284938Y7742174D01*
X25294132Y7745018D01*
X25297942Y7746593D01*
X25300279Y7746898D01*
X26261669Y7746898D01*
X26265428Y7746136D01*
X26272286Y7743393D01*
X26281735Y7741361D01*
X26291387Y7740954D01*
X26300938Y7742174D01*
X26310132Y7745018D01*
X26313942Y7746593D01*
X26316279Y7746898D01*
X27277669Y7746898D01*
X27281428Y7746136D01*
X27288286Y7743393D01*
X27297735Y7741361D01*
X27307387Y7740954D01*
X27316938Y7742174D01*
X27326132Y7745018D01*
X27329942Y7746593D01*
X27332330Y7746898D01*
X29258818Y7746898D01*
X29262628Y7746136D01*
X29269486Y7743393D01*
X29278935Y7741361D01*
X29288587Y7740954D01*
X29298138Y7742174D01*
X29307332Y7745018D01*
X29311142Y7746593D01*
X29313479Y7746898D01*
X30274869Y7746898D01*
X30278628Y7746136D01*
X30285486Y7743393D01*
X30294935Y7741361D01*
X30304587Y7740954D01*
X30314138Y7742174D01*
X30323332Y7745018D01*
X30327142Y7746593D01*
X30329479Y7746898D01*
X31290869Y7746898D01*
X31294628Y7746136D01*
X31301486Y7743393D01*
X31310935Y7741361D01*
X31320587Y7740954D01*
X31330138Y7742174D01*
X31339332Y7745018D01*
X31343142Y7746593D01*
X31345530Y7746898D01*
X33272018Y7746898D01*
X33275828Y7746136D01*
X33282686Y7743393D01*
X33292135Y7741361D01*
X33301787Y7740954D01*
X33311338Y7742174D01*
X33320532Y7745018D01*
X33324342Y7746593D01*
X33326679Y7746898D01*
X34288018Y7746898D01*
X34291828Y7746136D01*
X34298686Y7743393D01*
X34308084Y7741361D01*
X34317736Y7740954D01*
X34327287Y7742174D01*
X34336532Y7745018D01*
X34340292Y7746593D01*
X34342679Y7746898D01*
X35304018Y7746898D01*
X35307828Y7746136D01*
X35314686Y7743393D01*
X35324084Y7741361D01*
X35333736Y7740954D01*
X35343287Y7742174D01*
X35352532Y7745018D01*
X35356342Y7746593D01*
X35358679Y7746898D01*
X37285218Y7746898D01*
X37289028Y7746136D01*
X37295886Y7743393D01*
X37305284Y7741361D01*
X37314936Y7740954D01*
X37324487Y7742174D01*
X37333732Y7745018D01*
X37337492Y7746593D01*
X37339879Y7746898D01*
X38301218Y7746898D01*
X38305028Y7746136D01*
X38311886Y7743393D01*
X38321284Y7741361D01*
X38330936Y7740954D01*
X38340487Y7742174D01*
X38349732Y7745018D01*
X38353492Y7746593D01*
X38355879Y7746898D01*
X39317218Y7746898D01*
X39321028Y7746136D01*
X39327886Y7743393D01*
X39337284Y7741361D01*
X39346936Y7740954D01*
X39356487Y7742174D01*
X39365732Y7745018D01*
X39369542Y7746593D01*
X39371879Y7746898D01*
X41298418Y7746898D01*
X41302228Y7746136D01*
X41309086Y7743393D01*
X41318484Y7741361D01*
X41328136Y7740954D01*
X41337687Y7742174D01*
X41346932Y7745018D01*
X41350692Y7746593D01*
X41353079Y7746898D01*
X42314418Y7746898D01*
X42318228Y7746136D01*
X42325086Y7743393D01*
X42334484Y7741361D01*
X42344136Y7740954D01*
X42353687Y7742174D01*
X42362932Y7745018D01*
X42366692Y7746593D01*
X42369079Y7746898D01*
X43330418Y7746898D01*
X43334228Y7746136D01*
X43341086Y7743393D01*
X43350484Y7741361D01*
X43360136Y7740954D01*
X43369687Y7742174D01*
X43378932Y7745018D01*
X43382692Y7746593D01*
X43385028Y7746847D01*
X44896938Y7746847D01*
X44900799Y7746085D01*
X44904101Y7743901D01*
X44906336Y7740599D01*
X44907098Y7736687D01*
X44907098Y6842861D01*
X44906336Y6838950D01*
X44904101Y6835648D01*
X44900799Y6833463D01*
X44896938Y6832701D01*
X43385028Y6832701D01*
X43382692Y6832955D01*
X43378932Y6834530D01*
X43369687Y6837375D01*
X43360136Y6838594D01*
X43350484Y6838188D01*
X43341086Y6836156D01*
X43334279Y6833412D01*
X43330520Y6832701D01*
X42369028Y6832701D01*
X42366641Y6832955D01*
X42362932Y6834530D01*
X42353687Y6837375D01*
X42344136Y6838594D01*
X42334484Y6838188D01*
X42325086Y6836156D01*
X42318279Y6833412D01*
X42314520Y6832701D01*
X41353028Y6832701D01*
X41350641Y6832955D01*
X41346932Y6834530D01*
X41337687Y6837375D01*
X41328136Y6838594D01*
X41318484Y6838188D01*
X41309086Y6836156D01*
X41302330Y6833412D01*
X41298520Y6832701D01*
X39371778Y6832701D01*
X39369441Y6832955D01*
X39365732Y6834530D01*
X39356487Y6837375D01*
X39346936Y6838594D01*
X39337284Y6838188D01*
X39327886Y6836156D01*
X39321079Y6833412D01*
X39317320Y6832701D01*
X38355828Y6832701D01*
X38353441Y6832955D01*
X38349732Y6834530D01*
X38340487Y6837375D01*
X38330936Y6838594D01*
X38321284Y6838188D01*
X38311886Y6836156D01*
X38305079Y6833412D01*
X38301320Y6832701D01*
X37339828Y6832701D01*
X37337441Y6832955D01*
X37333732Y6834530D01*
X37324487Y6837375D01*
X37314936Y6838594D01*
X37305284Y6838188D01*
X37295886Y6836156D01*
X37289130Y6833412D01*
X37285320Y6832701D01*
X35358578Y6832701D01*
X35356241Y6832955D01*
X35352532Y6834530D01*
X35343287Y6837375D01*
X35333736Y6838594D01*
X35324084Y6838188D01*
X35314686Y6836156D01*
X35307879Y6833412D01*
X35304120Y6832701D01*
X34342628Y6832701D01*
X34340241Y6832955D01*
X34336532Y6834530D01*
X34327287Y6837375D01*
X34317736Y6838594D01*
X34308084Y6838188D01*
X34298686Y6836156D01*
X34291879Y6833412D01*
X34288120Y6832701D01*
X33326628Y6832701D01*
X33324292Y6832955D01*
X33320532Y6834530D01*
X33311338Y6837375D01*
X33301787Y6838594D01*
X33292135Y6838188D01*
X33282686Y6836156D01*
X33275930Y6833412D01*
X33272120Y6832701D01*
X31345428Y6832701D01*
X31343092Y6832955D01*
X31339332Y6834530D01*
X31330138Y6837375D01*
X31320587Y6838594D01*
X31310935Y6838188D01*
X31301486Y6836156D01*
X31294730Y6833412D01*
X31290920Y6832701D01*
X30329428Y6832701D01*
X30327092Y6832955D01*
X30323332Y6834530D01*
X30314138Y6837375D01*
X30304587Y6838594D01*
X30294935Y6838188D01*
X30285486Y6836156D01*
X30278730Y6833412D01*
X30274920Y6832701D01*
X29313428Y6832701D01*
X29311092Y6832955D01*
X29307332Y6834530D01*
X29298138Y6837375D01*
X29288587Y6838594D01*
X29278935Y6838188D01*
X29269486Y6836156D01*
X29262730Y6833412D01*
X29258920Y6832701D01*
X27332228Y6832701D01*
X27329892Y6832955D01*
X27326132Y6834530D01*
X27316938Y6837375D01*
X27307387Y6838594D01*
X27297735Y6838188D01*
X27288286Y6836156D01*
X27281530Y6833412D01*
X27277720Y6832701D01*
X26316228Y6832701D01*
X26313892Y6832955D01*
X26310132Y6834530D01*
X26300938Y6837375D01*
X26291387Y6838594D01*
X26281735Y6838188D01*
X26272286Y6836156D01*
X26265530Y6833412D01*
X26261720Y6832701D01*
X25300228Y6832701D01*
X25297892Y6832955D01*
X25294132Y6834530D01*
X25284938Y6837375D01*
X25275387Y6838594D01*
X25265735Y6838188D01*
X25256286Y6836156D01*
X25249530Y6833412D01*
X25245720Y6832701D01*
X24739447Y6832701D01*
X24735536Y6833463D01*
X24732284Y6835648D01*
X24547118Y7020814D01*
X24543664Y7023963D01*
X24540159Y7026656D01*
X24536400Y7029043D01*
X24532488Y7031126D01*
X24528373Y7032802D01*
X24524106Y7034123D01*
X24519788Y7035088D01*
X24515368Y7035698D01*
X24510746Y7035901D01*
X23749152Y7035901D01*
X23744529Y7035698D01*
X23740110Y7035088D01*
X23735792Y7034123D01*
X23731524Y7032802D01*
X23727460Y7031126D01*
X23723498Y7029043D01*
X23719739Y7026656D01*
X23716234Y7023963D01*
X23712779Y7020814D01*
X23527613Y6835648D01*
X23524311Y6833463D01*
X23520450Y6832701D01*
X23319079Y6832701D01*
X23316692Y6832955D01*
X23312932Y6834530D01*
X23303738Y6837375D01*
X23294187Y6838594D01*
X23284535Y6838188D01*
X23275086Y6836156D01*
X23268330Y6833412D01*
X23264520Y6832701D01*
X22303028Y6832701D01*
X22300692Y6832955D01*
X22296932Y6834530D01*
X22287738Y6837375D01*
X22278187Y6838594D01*
X22268535Y6838188D01*
X22259086Y6836156D01*
X22252330Y6833412D01*
X22248520Y6832701D01*
X21287028Y6832701D01*
X21284692Y6832955D01*
X21280932Y6834530D01*
X21271738Y6837375D01*
X21262187Y6838594D01*
X21252535Y6838188D01*
X21243086Y6836156D01*
X21236330Y6833412D01*
X21232520Y6832701D01*
X19305828Y6832701D01*
X19303492Y6832955D01*
X19299783Y6834530D01*
X19290538Y6837375D01*
X19280987Y6838594D01*
X19271335Y6838188D01*
X19261937Y6836156D01*
X19255130Y6833412D01*
X19251371Y6832701D01*
X18289879Y6832701D01*
X18287492Y6832955D01*
X18283783Y6834530D01*
X18274538Y6837375D01*
X18264987Y6838594D01*
X18255335Y6838188D01*
X18245937Y6836156D01*
X18239130Y6833412D01*
X18235371Y6832701D01*
X17273879Y6832701D01*
X17271492Y6832955D01*
X17267783Y6834530D01*
X17258538Y6837375D01*
X17248987Y6838594D01*
X17239335Y6838188D01*
X17229937Y6836156D01*
X17223181Y6833412D01*
X17219371Y6832701D01*
X15292628Y6832701D01*
X15290292Y6832955D01*
X15286583Y6834530D01*
X15277338Y6837375D01*
X15267787Y6838594D01*
X15258135Y6838188D01*
X15248737Y6836156D01*
X15241930Y6833412D01*
X15238171Y6832701D01*
X14276679Y6832701D01*
X14274292Y6832955D01*
X14270583Y6834530D01*
X14261338Y6837375D01*
X14251787Y6838594D01*
X14242135Y6838188D01*
X14232737Y6836156D01*
X14225930Y6833412D01*
X14222171Y6832701D01*
X13260679Y6832701D01*
X13258292Y6832955D01*
X13254583Y6834530D01*
X13245338Y6837375D01*
X13235787Y6838594D01*
X13226135Y6838188D01*
X13216737Y6836156D01*
X13209981Y6833412D01*
X13206171Y6832701D01*
X11279428Y6832701D01*
X11277092Y6832955D01*
X11273383Y6834530D01*
X11264138Y6837375D01*
X11254587Y6838594D01*
X11244935Y6838188D01*
X11235537Y6836156D01*
X11228730Y6833412D01*
X11224971Y6832701D01*
X10263479Y6832701D01*
X10261092Y6832955D01*
X10257383Y6834530D01*
X10248138Y6837375D01*
X10238587Y6838594D01*
X10228935Y6838188D01*
X10219537Y6836156D01*
X10212730Y6833412D01*
X10208971Y6832701D01*
X9247479Y6832701D01*
X9245092Y6832955D01*
X9241383Y6834530D01*
X9232138Y6837375D01*
X9222587Y6838594D01*
X9212935Y6838188D01*
X9203537Y6836156D01*
X9196781Y6833412D01*
X9192971Y6832701D01*
X7266279Y6832701D01*
X7263942Y6832955D01*
X7260183Y6834530D01*
X7250988Y6837375D01*
X7241438Y6838594D01*
X7231786Y6838188D01*
X7222337Y6836156D01*
X7215581Y6833412D01*
X7211771Y6832701D01*
X6250279Y6832701D01*
X6247942Y6832955D01*
X6244183Y6834530D01*
X6234988Y6837375D01*
X6225438Y6838594D01*
X6215786Y6838188D01*
X6206337Y6836156D01*
X6199581Y6833412D01*
X6195771Y6832701D01*
X5234279Y6832701D01*
X5231942Y6832955D01*
X5228183Y6834530D01*
X5218988Y6837375D01*
X5209438Y6838594D01*
X5199786Y6838188D01*
X5190337Y6836156D01*
X5181396Y6832549D01*
X5173167Y6827520D01*
X5165953Y6821119D01*
X5159857Y6813600D01*
X5155184Y6805218D01*
X5151983Y6796125D01*
X5150358Y6786575D01*
X5150358Y6776974D01*
X5151983Y6767423D01*
X5155184Y6758330D01*
X5159857Y6749948D01*
X5165953Y6742430D01*
X5173167Y6736029D01*
X5181396Y6731000D01*
X5190337Y6727393D01*
X5199786Y6725361D01*
X5209438Y6724954D01*
X5218988Y6726174D01*
X5228183Y6729018D01*
X5231993Y6730593D01*
X5234330Y6730898D01*
X6195720Y6730898D01*
X6199479Y6730136D01*
X6206337Y6727393D01*
X6215786Y6725361D01*
X6225438Y6724954D01*
X6234988Y6726174D01*
X6244183Y6729018D01*
X6247993Y6730593D01*
X6250330Y6730898D01*
X7211720Y6730898D01*
X7215479Y6730136D01*
X7222337Y6727393D01*
X7231786Y6725361D01*
X7241438Y6724954D01*
X7250988Y6726174D01*
X7260183Y6729018D01*
X7263993Y6730593D01*
X7266381Y6730898D01*
X9192869Y6730898D01*
X9196679Y6730136D01*
X9203537Y6727393D01*
X9212935Y6725361D01*
X9222587Y6724954D01*
X9232138Y6726174D01*
X9241383Y6729018D01*
X9245142Y6730593D01*
X9247530Y6730898D01*
X10208869Y6730898D01*
X10212679Y6730136D01*
X10219537Y6727393D01*
X10228935Y6725361D01*
X10238587Y6724954D01*
X10248138Y6726174D01*
X10257383Y6729018D01*
X10261142Y6730593D01*
X10263530Y6730898D01*
X11224869Y6730898D01*
X11228679Y6730136D01*
X11235537Y6727393D01*
X11244935Y6725361D01*
X11254587Y6724954D01*
X11264138Y6726174D01*
X11273383Y6729018D01*
X11277193Y6730593D01*
X11279530Y6730898D01*
X13206069Y6730898D01*
X13209879Y6730136D01*
X13216737Y6727393D01*
X13226135Y6725361D01*
X13235787Y6724954D01*
X13245338Y6726174D01*
X13254583Y6729018D01*
X13258342Y6730593D01*
X13260730Y6730898D01*
X14222069Y6730898D01*
X14225879Y6730136D01*
X14232737Y6727393D01*
X14242135Y6725361D01*
X14251787Y6724954D01*
X14261338Y6726174D01*
X14270583Y6729018D01*
X14274342Y6730593D01*
X14276730Y6730898D01*
X15238069Y6730898D01*
X15241879Y6730136D01*
X15248737Y6727393D01*
X15258135Y6725361D01*
X15267787Y6724954D01*
X15277338Y6726174D01*
X15286583Y6729018D01*
X15290393Y6730593D01*
X15292730Y6730898D01*
X17219269Y6730898D01*
X17223079Y6730136D01*
X17229937Y6727393D01*
X17239335Y6725361D01*
X17248987Y6724954D01*
X17258538Y6726174D01*
X17267783Y6729018D01*
X17271542Y6730593D01*
X17273930Y6730898D01*
X18235269Y6730898D01*
X18239079Y6730136D01*
X18245937Y6727393D01*
X18255335Y6725361D01*
X18264987Y6724954D01*
X18274538Y6726174D01*
X18283783Y6729018D01*
X18287542Y6730593D01*
X18289930Y6730898D01*
X19251269Y6730898D01*
X19255079Y6730136D01*
X19261937Y6727393D01*
X19271335Y6725361D01*
X19280987Y6724954D01*
X19290538Y6726174D01*
X19299783Y6729018D01*
X19303593Y6730593D01*
X19305930Y6730898D01*
X21232418Y6730898D01*
X21236228Y6730136D01*
X21243086Y6727393D01*
X21252535Y6725361D01*
X21262187Y6724954D01*
X21271738Y6726174D01*
X21280932Y6729018D01*
X21284742Y6730593D01*
X21287079Y6730898D01*
X22248469Y6730898D01*
X22252228Y6730136D01*
X22259086Y6727393D01*
X22268535Y6725361D01*
X22278187Y6724954D01*
X22287738Y6726174D01*
X22296932Y6729018D01*
X22300742Y6730593D01*
X22303079Y6730898D01*
X23264469Y6730898D01*
X23268228Y6730136D01*
X23275086Y6727393D01*
X23284535Y6725361D01*
X23294187Y6724954D01*
X23303738Y6726174D01*
X23312932Y6729018D01*
X23316692Y6730593D01*
X23319079Y6730847D01*
X23545495Y6730847D01*
X23550168Y6731050D01*
X23554588Y6731660D01*
X23558906Y6732625D01*
X23563173Y6733946D01*
X23567237Y6735622D01*
X23571200Y6737705D01*
X23574959Y6740093D01*
X23578464Y6742785D01*
X23581918Y6745935D01*
X23767084Y6931101D01*
X23770336Y6933285D01*
X23774247Y6934098D01*
X24485650Y6934098D01*
X24489562Y6933285D01*
X24492864Y6931101D01*
X24677979Y6745935D01*
X24681434Y6742785D01*
X24684939Y6740093D01*
X24688698Y6737705D01*
X24692660Y6735673D01*
X24696724Y6733946D01*
X24700992Y6732625D01*
X24705310Y6731660D01*
X24709729Y6731101D01*
X24714352Y6730898D01*
X25245669Y6730898D01*
X25249428Y6730136D01*
X25256286Y6727393D01*
X25265735Y6725361D01*
X25275387Y6724954D01*
X25284938Y6726174D01*
X25294132Y6729018D01*
X25297942Y6730593D01*
X25300279Y6730898D01*
X26261669Y6730898D01*
X26265428Y6730136D01*
X26272286Y6727393D01*
X26281735Y6725361D01*
X26291387Y6724954D01*
X26300938Y6726174D01*
X26310132Y6729018D01*
X26313942Y6730593D01*
X26316279Y6730898D01*
X27277669Y6730898D01*
X27281428Y6730136D01*
X27288286Y6727393D01*
X27297735Y6725361D01*
X27307387Y6724954D01*
X27316938Y6726174D01*
X27326132Y6729018D01*
X27329942Y6730593D01*
X27332330Y6730898D01*
X29258818Y6730898D01*
X29262628Y6730136D01*
X29269486Y6727393D01*
X29278935Y6725361D01*
X29288587Y6724954D01*
X29298138Y6726174D01*
X29307332Y6729018D01*
X29311142Y6730593D01*
X29313479Y6730898D01*
X30274869Y6730898D01*
X30278628Y6730136D01*
X30285486Y6727393D01*
X30294935Y6725361D01*
X30304587Y6724954D01*
X30314138Y6726174D01*
X30323332Y6729018D01*
X30327142Y6730593D01*
X30329479Y6730898D01*
X31290869Y6730898D01*
X31294628Y6730136D01*
X31301486Y6727393D01*
X31310935Y6725361D01*
X31320587Y6724954D01*
X31330138Y6726174D01*
X31339332Y6729018D01*
X31343142Y6730593D01*
X31345530Y6730898D01*
X33272018Y6730898D01*
X33275828Y6730136D01*
X33282686Y6727393D01*
X33292135Y6725361D01*
X33301787Y6724954D01*
X33311338Y6726174D01*
X33320532Y6729018D01*
X33324342Y6730593D01*
X33326679Y6730898D01*
X34288018Y6730898D01*
X34291828Y6730136D01*
X34298686Y6727393D01*
X34308084Y6725361D01*
X34317736Y6724954D01*
X34327287Y6726174D01*
X34336532Y6729018D01*
X34340292Y6730593D01*
X34342679Y6730898D01*
X35304018Y6730898D01*
X35307828Y6730136D01*
X35314686Y6727393D01*
X35324084Y6725361D01*
X35333736Y6724954D01*
X35343287Y6726174D01*
X35352532Y6729018D01*
X35356342Y6730593D01*
X35358679Y6730898D01*
X37285218Y6730898D01*
X37289028Y6730136D01*
X37295886Y6727393D01*
X37305284Y6725361D01*
X37314936Y6724954D01*
X37324487Y6726174D01*
X37333732Y6729018D01*
X37337492Y6730593D01*
X37339879Y6730898D01*
X38301218Y6730898D01*
X38305028Y6730136D01*
X38311886Y6727393D01*
X38321284Y6725361D01*
X38330936Y6724954D01*
X38340487Y6726174D01*
X38349732Y6729018D01*
X38353492Y6730593D01*
X38355879Y6730898D01*
X39317218Y6730898D01*
X39321028Y6730136D01*
X39327886Y6727393D01*
X39337284Y6725361D01*
X39346936Y6724954D01*
X39356487Y6726174D01*
X39365732Y6729018D01*
X39369542Y6730593D01*
X39371879Y6730898D01*
X41298418Y6730898D01*
X41302228Y6730136D01*
X41309086Y6727393D01*
X41318484Y6725361D01*
X41328136Y6724954D01*
X41337687Y6726174D01*
X41346932Y6729018D01*
X41350692Y6730593D01*
X41353079Y6730898D01*
X42314418Y6730898D01*
X42318228Y6730136D01*
X42325086Y6727393D01*
X42334484Y6725361D01*
X42344136Y6724954D01*
X42353687Y6726174D01*
X42362932Y6729018D01*
X42366692Y6730593D01*
X42369079Y6730898D01*
X43330418Y6730898D01*
X43334228Y6730136D01*
X43341086Y6727393D01*
X43350484Y6725361D01*
X43360136Y6724954D01*
X43369687Y6726174D01*
X43378932Y6729018D01*
X43382692Y6730593D01*
X43385028Y6730847D01*
X44896938Y6730847D01*
X44900799Y6730085D01*
X44904101Y6727901D01*
X44906336Y6724599D01*
X44907098Y6720687D01*
X44907098Y5826861D01*
X44906336Y5823000D01*
X44904101Y5819698D01*
X44900799Y5817463D01*
X44896938Y5816701D01*
X43385028Y5816701D01*
X43382692Y5817006D01*
X43378932Y5818581D01*
X43369687Y5821375D01*
X43360136Y5822645D01*
X43350484Y5822188D01*
X43341086Y5820156D01*
X43334228Y5817412D01*
X43330469Y5816701D01*
X42369079Y5816701D01*
X42366692Y5816955D01*
X42362932Y5818581D01*
X42353687Y5821375D01*
X42344136Y5822645D01*
X42334484Y5822188D01*
X42325086Y5820156D01*
X42318228Y5817412D01*
X42314469Y5816701D01*
X41353079Y5816701D01*
X41350692Y5816955D01*
X41346932Y5818581D01*
X41337687Y5821375D01*
X41328136Y5822645D01*
X41318484Y5822188D01*
X41309086Y5820156D01*
X41302279Y5817463D01*
X41298469Y5816701D01*
X39371828Y5816701D01*
X39369492Y5817006D01*
X39365732Y5818581D01*
X39356487Y5821375D01*
X39346936Y5822645D01*
X39337284Y5822188D01*
X39327886Y5820156D01*
X39321028Y5817412D01*
X39317269Y5816701D01*
X38355879Y5816701D01*
X38353492Y5816955D01*
X38349732Y5818581D01*
X38340487Y5821375D01*
X38330936Y5822645D01*
X38321284Y5822188D01*
X38311886Y5820156D01*
X38305028Y5817412D01*
X38301269Y5816701D01*
X37339879Y5816701D01*
X37337492Y5816955D01*
X37333732Y5818581D01*
X37324487Y5821375D01*
X37314936Y5822645D01*
X37305284Y5822188D01*
X37295886Y5820156D01*
X37289079Y5817463D01*
X37285269Y5816701D01*
X35358628Y5816701D01*
X35356292Y5817006D01*
X35352532Y5818581D01*
X35343287Y5821375D01*
X35333736Y5822645D01*
X35324084Y5822188D01*
X35314686Y5820156D01*
X35307828Y5817412D01*
X35304069Y5816701D01*
X34342679Y5816701D01*
X34340292Y5816955D01*
X34336532Y5818581D01*
X34327287Y5821375D01*
X34317736Y5822645D01*
X34308084Y5822188D01*
X34298686Y5820156D01*
X34291828Y5817412D01*
X34288069Y5816701D01*
X33326679Y5816701D01*
X33324342Y5816955D01*
X33320532Y5818581D01*
X33311338Y5821375D01*
X33301787Y5822645D01*
X33292135Y5822188D01*
X33282686Y5820156D01*
X33275879Y5817463D01*
X33272069Y5816701D01*
X31345479Y5816701D01*
X31343092Y5817006D01*
X31339332Y5818581D01*
X31330138Y5821375D01*
X31320587Y5822645D01*
X31310935Y5822188D01*
X31301486Y5820156D01*
X31294679Y5817412D01*
X31290869Y5816701D01*
X30329479Y5816701D01*
X30327142Y5816955D01*
X30323332Y5818581D01*
X30314138Y5821375D01*
X30304587Y5822645D01*
X30294935Y5822188D01*
X30285486Y5820156D01*
X30278679Y5817412D01*
X30274869Y5816701D01*
X29313479Y5816701D01*
X29311142Y5816955D01*
X29307332Y5818581D01*
X29298138Y5821375D01*
X29288587Y5822645D01*
X29278935Y5822188D01*
X29269486Y5820156D01*
X29262679Y5817463D01*
X29258869Y5816701D01*
X27332279Y5816701D01*
X27329892Y5817006D01*
X27326132Y5818581D01*
X27316938Y5821375D01*
X27307387Y5822645D01*
X27297735Y5822188D01*
X27288286Y5820156D01*
X27281479Y5817412D01*
X27277669Y5816701D01*
X26316279Y5816701D01*
X26313942Y5816955D01*
X26310132Y5818581D01*
X26300938Y5821375D01*
X26291387Y5822645D01*
X26281735Y5822188D01*
X26272286Y5820156D01*
X26265479Y5817412D01*
X26261669Y5816701D01*
X25300279Y5816701D01*
X25297942Y5816955D01*
X25294132Y5818581D01*
X25284938Y5821375D01*
X25275387Y5822645D01*
X25265735Y5822188D01*
X25256286Y5820156D01*
X25249479Y5817463D01*
X25245669Y5816701D01*
X23319079Y5816701D01*
X23316692Y5817006D01*
X23312932Y5818581D01*
X23303738Y5821375D01*
X23294187Y5822645D01*
X23284535Y5822188D01*
X23275086Y5820156D01*
X23268279Y5817412D01*
X23264469Y5816701D01*
X22303079Y5816701D01*
X22300742Y5816955D01*
X22296932Y5818581D01*
X22287738Y5821375D01*
X22278187Y5822645D01*
X22268535Y5822188D01*
X22259086Y5820156D01*
X22252279Y5817412D01*
X22248469Y5816701D01*
X21287079Y5816701D01*
X21284742Y5816955D01*
X21280932Y5818581D01*
X21271738Y5821375D01*
X21262187Y5822645D01*
X21252535Y5822188D01*
X21243086Y5820156D01*
X21236279Y5817463D01*
X21232469Y5816701D01*
X19305879Y5816701D01*
X19303542Y5817006D01*
X19299783Y5818581D01*
X19290538Y5821375D01*
X19280987Y5822645D01*
X19271335Y5822188D01*
X19261937Y5820156D01*
X19255079Y5817412D01*
X19251320Y5816701D01*
X18289930Y5816701D01*
X18287542Y5816955D01*
X18283783Y5818581D01*
X18274538Y5821375D01*
X18264987Y5822645D01*
X18255335Y5822188D01*
X18245937Y5820156D01*
X18239079Y5817412D01*
X18235320Y5816701D01*
X17273930Y5816701D01*
X17271542Y5816955D01*
X17267783Y5818581D01*
X17258538Y5821375D01*
X17248987Y5822645D01*
X17239335Y5822188D01*
X17229937Y5820156D01*
X17223130Y5817463D01*
X17219320Y5816701D01*
X15292679Y5816701D01*
X15290342Y5817006D01*
X15286583Y5818581D01*
X15277338Y5821375D01*
X15267787Y5822645D01*
X15258135Y5822188D01*
X15248737Y5820156D01*
X15241879Y5817412D01*
X15238120Y5816701D01*
X14276730Y5816701D01*
X14274342Y5816955D01*
X14270583Y5818581D01*
X14261338Y5821375D01*
X14251787Y5822645D01*
X14242135Y5822188D01*
X14232737Y5820156D01*
X14225879Y5817412D01*
X14222120Y5816701D01*
X13260730Y5816701D01*
X13258342Y5816955D01*
X13254583Y5818581D01*
X13245338Y5821375D01*
X13235787Y5822645D01*
X13226135Y5822188D01*
X13216737Y5820156D01*
X13209930Y5817463D01*
X13206120Y5816701D01*
X11279479Y5816701D01*
X11277142Y5817006D01*
X11273383Y5818581D01*
X11264138Y5821375D01*
X11254587Y5822645D01*
X11244935Y5822188D01*
X11235537Y5820156D01*
X11228679Y5817412D01*
X11224920Y5816701D01*
X10263530Y5816701D01*
X10261142Y5816955D01*
X10257383Y5818581D01*
X10248138Y5821375D01*
X10238587Y5822645D01*
X10228935Y5822188D01*
X10219537Y5820156D01*
X10212679Y5817412D01*
X10208920Y5816701D01*
X9247530Y5816701D01*
X9245142Y5816955D01*
X9241383Y5818581D01*
X9232138Y5821375D01*
X9222587Y5822645D01*
X9212935Y5822188D01*
X9203537Y5820156D01*
X9196730Y5817463D01*
X9192920Y5816701D01*
X7266330Y5816701D01*
X7263942Y5817006D01*
X7260183Y5818581D01*
X7250988Y5821375D01*
X7241438Y5822645D01*
X7231786Y5822188D01*
X7222337Y5820156D01*
X7215530Y5817412D01*
X7211720Y5816701D01*
X6250330Y5816701D01*
X6247993Y5816955D01*
X6244183Y5818581D01*
X6234988Y5821375D01*
X6225438Y5822645D01*
X6215786Y5822188D01*
X6206337Y5820156D01*
X6199530Y5817412D01*
X6195720Y5816701D01*
X5234330Y5816701D01*
X5231993Y5816955D01*
X5228183Y5818581D01*
X5218988Y5821375D01*
X5209438Y5822645D01*
X5199786Y5822188D01*
X5190337Y5820156D01*
X5181396Y5816600D01*
X5173167Y5811520D01*
X5165953Y5805170D01*
X5159857Y5797651D01*
X5155184Y5789218D01*
X5151983Y5780125D01*
X5150358Y5770626D01*
X5150358Y5760974D01*
X5151983Y5751474D01*
X5155184Y5742381D01*
X5159857Y5733948D01*
X5165953Y5726430D01*
X5173167Y5720080D01*
X5181396Y5715000D01*
X5190337Y5711444D01*
X5199786Y5709412D01*
X5209438Y5708954D01*
X5218988Y5710224D01*
X5228183Y5713018D01*
X5231942Y5714593D01*
X5234279Y5714898D01*
X6195771Y5714898D01*
X6199530Y5714136D01*
X6206337Y5711444D01*
X6215786Y5709412D01*
X6225438Y5708954D01*
X6234988Y5710224D01*
X6244183Y5713018D01*
X6247942Y5714593D01*
X6250279Y5714898D01*
X7211771Y5714898D01*
X7215530Y5714136D01*
X7222337Y5711444D01*
X7231786Y5709412D01*
X7241438Y5708954D01*
X7250988Y5710224D01*
X7260183Y5713018D01*
X7263942Y5714593D01*
X7266330Y5714898D01*
X9192920Y5714898D01*
X9196730Y5714136D01*
X9203537Y5711444D01*
X9212935Y5709412D01*
X9222587Y5708954D01*
X9232138Y5710224D01*
X9241383Y5713018D01*
X9245142Y5714593D01*
X9247479Y5714898D01*
X10208920Y5714898D01*
X10212730Y5714136D01*
X10219537Y5711444D01*
X10228935Y5709412D01*
X10238587Y5708954D01*
X10248138Y5710224D01*
X10257383Y5713018D01*
X10261142Y5714593D01*
X10263479Y5714898D01*
X11224920Y5714898D01*
X11228730Y5714136D01*
X11235537Y5711444D01*
X11244935Y5709412D01*
X11254587Y5708954D01*
X11264138Y5710224D01*
X11273383Y5713018D01*
X11277142Y5714593D01*
X11279479Y5714898D01*
X13206120Y5714898D01*
X13209930Y5714136D01*
X13216737Y5711444D01*
X13226135Y5709412D01*
X13235787Y5708954D01*
X13245338Y5710224D01*
X13254583Y5713018D01*
X13258342Y5714593D01*
X13260679Y5714898D01*
X14222120Y5714898D01*
X14225930Y5714136D01*
X14232737Y5711444D01*
X14242135Y5709412D01*
X14251787Y5708954D01*
X14261338Y5710224D01*
X14270583Y5713018D01*
X14274342Y5714593D01*
X14276679Y5714898D01*
X15238120Y5714898D01*
X15241930Y5714136D01*
X15248737Y5711444D01*
X15258135Y5709412D01*
X15267787Y5708954D01*
X15277338Y5710224D01*
X15286583Y5713018D01*
X15290342Y5714593D01*
X15292679Y5714898D01*
X17219320Y5714898D01*
X17223130Y5714136D01*
X17229937Y5711444D01*
X17239335Y5709412D01*
X17248987Y5708954D01*
X17258538Y5710224D01*
X17267783Y5713018D01*
X17271542Y5714593D01*
X17273879Y5714898D01*
X18235320Y5714898D01*
X18239130Y5714136D01*
X18245937Y5711444D01*
X18255335Y5709412D01*
X18264987Y5708954D01*
X18274538Y5710224D01*
X18283783Y5713018D01*
X18287542Y5714593D01*
X18289879Y5714898D01*
X19251320Y5714898D01*
X19255130Y5714136D01*
X19261937Y5711444D01*
X19271335Y5709412D01*
X19280987Y5708954D01*
X19290538Y5710224D01*
X19299783Y5713018D01*
X19303542Y5714593D01*
X19305879Y5714898D01*
X21232469Y5714898D01*
X21236279Y5714136D01*
X21243086Y5711444D01*
X21252535Y5709412D01*
X21262187Y5708954D01*
X21271738Y5710224D01*
X21280932Y5713018D01*
X21284692Y5714593D01*
X21287028Y5714898D01*
X22248520Y5714898D01*
X22252279Y5714136D01*
X22259086Y5711444D01*
X22268535Y5709412D01*
X22278187Y5708954D01*
X22287738Y5710224D01*
X22296932Y5713018D01*
X22300692Y5714593D01*
X22303028Y5714898D01*
X23264520Y5714898D01*
X23268279Y5714136D01*
X23275086Y5711444D01*
X23284535Y5709412D01*
X23294187Y5708954D01*
X23303738Y5710224D01*
X23312932Y5713018D01*
X23316692Y5714593D01*
X23319079Y5714898D01*
X25245669Y5714898D01*
X25249479Y5714136D01*
X25256286Y5711444D01*
X25265735Y5709412D01*
X25275387Y5708954D01*
X25284938Y5710224D01*
X25294132Y5713018D01*
X25297892Y5714593D01*
X25300228Y5714898D01*
X26261720Y5714898D01*
X26265479Y5714136D01*
X26272286Y5711444D01*
X26281735Y5709412D01*
X26291387Y5708954D01*
X26300938Y5710224D01*
X26310132Y5713018D01*
X26313892Y5714593D01*
X26316228Y5714898D01*
X27277720Y5714898D01*
X27281479Y5714136D01*
X27288286Y5711444D01*
X27297735Y5709412D01*
X27307387Y5708954D01*
X27316938Y5710224D01*
X27326132Y5713018D01*
X27329892Y5714593D01*
X27332279Y5714898D01*
X29258869Y5714898D01*
X29262679Y5714136D01*
X29269486Y5711444D01*
X29278935Y5709412D01*
X29288587Y5708954D01*
X29298138Y5710224D01*
X29307332Y5713018D01*
X29311092Y5714593D01*
X29313428Y5714898D01*
X30274920Y5714898D01*
X30278679Y5714136D01*
X30285486Y5711444D01*
X30294935Y5709412D01*
X30304587Y5708954D01*
X30314138Y5710224D01*
X30323332Y5713018D01*
X30327092Y5714593D01*
X30329428Y5714898D01*
X31290920Y5714898D01*
X31294679Y5714136D01*
X31301486Y5711444D01*
X31310935Y5709412D01*
X31320587Y5708954D01*
X31330138Y5710224D01*
X31339332Y5713018D01*
X31343092Y5714593D01*
X31345479Y5714898D01*
X33272069Y5714898D01*
X33275879Y5714136D01*
X33282686Y5711444D01*
X33292135Y5709412D01*
X33301787Y5708954D01*
X33311338Y5710224D01*
X33320532Y5713018D01*
X33324292Y5714593D01*
X33326628Y5714898D01*
X34288069Y5714898D01*
X34291879Y5714136D01*
X34298686Y5711444D01*
X34308084Y5709412D01*
X34317736Y5708954D01*
X34327287Y5710224D01*
X34336532Y5713018D01*
X34340292Y5714593D01*
X34342628Y5714898D01*
X35304069Y5714898D01*
X35307879Y5714136D01*
X35314686Y5711444D01*
X35324084Y5709412D01*
X35333736Y5708954D01*
X35343287Y5710224D01*
X35352532Y5713018D01*
X35356292Y5714593D01*
X35358628Y5714898D01*
X37285269Y5714898D01*
X37289079Y5714136D01*
X37295886Y5711444D01*
X37305284Y5709412D01*
X37314936Y5708954D01*
X37324487Y5710224D01*
X37333732Y5713018D01*
X37337492Y5714593D01*
X37339828Y5714898D01*
X38301269Y5714898D01*
X38305079Y5714136D01*
X38311886Y5711444D01*
X38321284Y5709412D01*
X38330936Y5708954D01*
X38340487Y5710224D01*
X38349732Y5713018D01*
X38353492Y5714593D01*
X38355828Y5714898D01*
X39317269Y5714898D01*
X39321079Y5714136D01*
X39327886Y5711444D01*
X39337284Y5709412D01*
X39346936Y5708954D01*
X39356487Y5710224D01*
X39365732Y5713018D01*
X39369492Y5714593D01*
X39371828Y5714898D01*
X41298469Y5714898D01*
X41302279Y5714136D01*
X41309086Y5711444D01*
X41318484Y5709412D01*
X41328136Y5708954D01*
X41337687Y5710224D01*
X41346932Y5713018D01*
X41350692Y5714593D01*
X41353028Y5714898D01*
X42314469Y5714898D01*
X42318279Y5714136D01*
X42325086Y5711444D01*
X42334484Y5709412D01*
X42344136Y5708954D01*
X42353687Y5710224D01*
X42362932Y5713018D01*
X42366692Y5714593D01*
X42369028Y5714898D01*
X43330469Y5714898D01*
X43334279Y5714136D01*
X43341086Y5711444D01*
X43350484Y5709412D01*
X43360136Y5708954D01*
X43369687Y5710224D01*
X43378932Y5713018D01*
X43382692Y5714593D01*
X43385028Y5714898D01*
X44896938Y5714898D01*
X44900799Y5714136D01*
X44904101Y5711901D01*
X44906336Y5708599D01*
X44907098Y5704738D01*
X44907098Y3794861D01*
X44906336Y3791000D01*
X44904101Y3787698D01*
X44900799Y3785463D01*
X44896938Y3784701D01*
X43385028Y3784701D01*
X43382692Y3785006D01*
X43378932Y3786581D01*
X43369687Y3789375D01*
X43360136Y3790645D01*
X43350484Y3790187D01*
X43341086Y3788156D01*
X43334228Y3785412D01*
X43330469Y3784701D01*
X42369079Y3784701D01*
X42366692Y3784955D01*
X42362932Y3786581D01*
X42353687Y3789375D01*
X42344136Y3790645D01*
X42334484Y3790187D01*
X42325086Y3788156D01*
X42318228Y3785412D01*
X42314469Y3784701D01*
X41353079Y3784701D01*
X41350692Y3784955D01*
X41346932Y3786581D01*
X41337687Y3789375D01*
X41328136Y3790645D01*
X41318484Y3790187D01*
X41309086Y3788156D01*
X41302228Y3785412D01*
X41298469Y3784701D01*
X39371879Y3784701D01*
X39369492Y3784955D01*
X39365732Y3786581D01*
X39356487Y3789375D01*
X39346936Y3790645D01*
X39337284Y3790187D01*
X39327886Y3788156D01*
X39321028Y3785412D01*
X39317269Y3784701D01*
X38355828Y3784701D01*
X38353492Y3784955D01*
X38349732Y3786581D01*
X38340487Y3789375D01*
X38330936Y3790645D01*
X38321284Y3790187D01*
X38311886Y3788156D01*
X38305028Y3785412D01*
X38301269Y3784701D01*
X37339828Y3784701D01*
X37337492Y3784955D01*
X37333732Y3786581D01*
X37324487Y3789375D01*
X37314936Y3790645D01*
X37305284Y3790187D01*
X37295886Y3788156D01*
X37289028Y3785412D01*
X37285269Y3784701D01*
X35358679Y3784701D01*
X35356292Y3784955D01*
X35352532Y3786581D01*
X35343287Y3789375D01*
X35333736Y3790645D01*
X35324084Y3790187D01*
X35314686Y3788156D01*
X35307828Y3785412D01*
X35304069Y3784701D01*
X34342628Y3784701D01*
X34340292Y3784955D01*
X34336532Y3786581D01*
X34327287Y3789375D01*
X34317736Y3790645D01*
X34308084Y3790187D01*
X34298686Y3788156D01*
X34291828Y3785412D01*
X34288069Y3784701D01*
X33326679Y3784701D01*
X33324342Y3784955D01*
X33320532Y3786581D01*
X33311338Y3789375D01*
X33301787Y3790645D01*
X33292135Y3790187D01*
X33282686Y3788156D01*
X33275879Y3785412D01*
X33272069Y3784701D01*
X31345479Y3784701D01*
X31343142Y3784955D01*
X31339332Y3786581D01*
X31330138Y3789375D01*
X31320587Y3790645D01*
X31310935Y3790187D01*
X31301486Y3788156D01*
X31294679Y3785412D01*
X31290869Y3784701D01*
X30329479Y3784701D01*
X30327142Y3784955D01*
X30323332Y3786581D01*
X30314138Y3789375D01*
X30304587Y3790645D01*
X30294935Y3790187D01*
X30285486Y3788156D01*
X30278679Y3785412D01*
X30274869Y3784701D01*
X29313479Y3784701D01*
X29311142Y3784955D01*
X29307332Y3786581D01*
X29298138Y3789375D01*
X29288587Y3790645D01*
X29278935Y3790187D01*
X29269486Y3788156D01*
X29262679Y3785412D01*
X29258869Y3784701D01*
X27332279Y3784701D01*
X27329942Y3784955D01*
X27326132Y3786581D01*
X27316938Y3789375D01*
X27307387Y3790645D01*
X27297735Y3790187D01*
X27288286Y3788156D01*
X27281479Y3785412D01*
X27277669Y3784701D01*
X26316279Y3784701D01*
X26313942Y3784955D01*
X26310132Y3786581D01*
X26300938Y3789375D01*
X26291387Y3790645D01*
X26281735Y3790187D01*
X26272286Y3788156D01*
X26265479Y3785412D01*
X26261669Y3784701D01*
X25300279Y3784701D01*
X25297942Y3784955D01*
X25294132Y3786581D01*
X25284938Y3789375D01*
X25275387Y3790645D01*
X25265735Y3790187D01*
X25256286Y3788156D01*
X25249479Y3785412D01*
X25245669Y3784701D01*
X23319079Y3784701D01*
X23316742Y3784955D01*
X23312932Y3786581D01*
X23303738Y3789375D01*
X23294187Y3790645D01*
X23284535Y3790187D01*
X23275086Y3788156D01*
X23268279Y3785412D01*
X23264469Y3784701D01*
X22303079Y3784701D01*
X22300742Y3784955D01*
X22296932Y3786581D01*
X22287738Y3789375D01*
X22278187Y3790645D01*
X22268535Y3790187D01*
X22259086Y3788156D01*
X22252279Y3785412D01*
X22248469Y3784701D01*
X21287079Y3784701D01*
X21284742Y3784955D01*
X21280932Y3786581D01*
X21271738Y3789375D01*
X21262187Y3790645D01*
X21252535Y3790187D01*
X21243086Y3788156D01*
X21236279Y3785412D01*
X21232469Y3784701D01*
X19305879Y3784701D01*
X19303542Y3784955D01*
X19299783Y3786581D01*
X19290538Y3789375D01*
X19280987Y3790645D01*
X19271335Y3790187D01*
X19261937Y3788156D01*
X19255079Y3785412D01*
X19251320Y3784701D01*
X18289879Y3784701D01*
X18287542Y3784955D01*
X18283783Y3786581D01*
X18274538Y3789375D01*
X18264987Y3790645D01*
X18255335Y3790187D01*
X18245937Y3788156D01*
X18239079Y3785412D01*
X18235320Y3784701D01*
X17273879Y3784701D01*
X17271542Y3784955D01*
X17267783Y3786581D01*
X17258538Y3789375D01*
X17248987Y3790645D01*
X17239335Y3790187D01*
X17229937Y3788156D01*
X17223079Y3785412D01*
X17219320Y3784701D01*
X15292679Y3784701D01*
X15290342Y3784955D01*
X15286583Y3786581D01*
X15277338Y3789375D01*
X15267787Y3790645D01*
X15258135Y3790187D01*
X15248737Y3788156D01*
X15241879Y3785412D01*
X15238120Y3784701D01*
X14276679Y3784701D01*
X14274342Y3784955D01*
X14270583Y3786581D01*
X14261338Y3789375D01*
X14251787Y3790645D01*
X14242135Y3790187D01*
X14232737Y3788156D01*
X14225879Y3785412D01*
X14222120Y3784701D01*
X13260679Y3784701D01*
X13258342Y3784955D01*
X13254583Y3786581D01*
X13245338Y3789375D01*
X13235787Y3790645D01*
X13226135Y3790187D01*
X13216737Y3788156D01*
X13209879Y3785412D01*
X13206120Y3784701D01*
X11279479Y3784701D01*
X11277142Y3784955D01*
X11273383Y3786581D01*
X11264138Y3789375D01*
X11254587Y3790645D01*
X11244935Y3790187D01*
X11235537Y3788156D01*
X11228679Y3785412D01*
X11224920Y3784701D01*
X10263479Y3784701D01*
X10261142Y3784955D01*
X10257383Y3786581D01*
X10248138Y3789375D01*
X10238587Y3790645D01*
X10228935Y3790187D01*
X10219537Y3788156D01*
X10212679Y3785412D01*
X10208920Y3784701D01*
X9247479Y3784701D01*
X9245142Y3784955D01*
X9241383Y3786581D01*
X9232138Y3789375D01*
X9222587Y3790645D01*
X9212935Y3790187D01*
X9203537Y3788156D01*
X9196679Y3785412D01*
X9192920Y3784701D01*
X7266330Y3784701D01*
X7263993Y3784955D01*
X7260183Y3786581D01*
X7250988Y3789375D01*
X7241438Y3790645D01*
X7231786Y3790187D01*
X7222337Y3788156D01*
X7215530Y3785412D01*
X7211720Y3784701D01*
X6250330Y3784701D01*
X6247993Y3784955D01*
X6244183Y3786581D01*
X6234988Y3789375D01*
X6225438Y3790645D01*
X6215786Y3790187D01*
X6206337Y3788156D01*
X6199530Y3785412D01*
X6195720Y3784701D01*
X5234330Y3784701D01*
X5231993Y3784955D01*
X5228183Y3786581D01*
X5218988Y3789375D01*
X5209438Y3790645D01*
X5199786Y3790187D01*
X5190337Y3788156D01*
X5181396Y3784600D01*
X5173167Y3779520D01*
X5165953Y3773170D01*
X5159857Y3765651D01*
X5155184Y3757218D01*
X5151983Y3748125D01*
X5150358Y3738626D01*
X5150358Y3728974D01*
X5151983Y3719474D01*
X5155184Y3710381D01*
X5159857Y3701948D01*
X5165953Y3694429D01*
X5173167Y3688079D01*
X5181396Y3683000D01*
X5190337Y3679444D01*
X5199786Y3677412D01*
X5209438Y3676954D01*
X5218988Y3678224D01*
X5228183Y3681018D01*
X5231942Y3682593D01*
X5234330Y3682898D01*
X6195771Y3682898D01*
X6199530Y3682136D01*
X6206337Y3679444D01*
X6215786Y3677412D01*
X6225438Y3676954D01*
X6234988Y3678224D01*
X6244183Y3681018D01*
X6247942Y3682593D01*
X6250330Y3682898D01*
X7211771Y3682898D01*
X7215530Y3682136D01*
X7222337Y3679444D01*
X7231786Y3677412D01*
X7241438Y3676954D01*
X7250988Y3678224D01*
X7260183Y3681018D01*
X7263942Y3682593D01*
X7266330Y3682898D01*
X9192920Y3682898D01*
X9196730Y3682136D01*
X9203537Y3679444D01*
X9212935Y3677412D01*
X9222587Y3676954D01*
X9232138Y3678224D01*
X9241383Y3681018D01*
X9245142Y3682593D01*
X9247479Y3682898D01*
X10208920Y3682898D01*
X10212730Y3682136D01*
X10219537Y3679444D01*
X10228935Y3677412D01*
X10238587Y3676954D01*
X10248138Y3678224D01*
X10257383Y3681018D01*
X10261142Y3682593D01*
X10263479Y3682898D01*
X11224920Y3682898D01*
X11228730Y3682136D01*
X11235537Y3679444D01*
X11244935Y3677412D01*
X11254587Y3676954D01*
X11264138Y3678224D01*
X11273383Y3681018D01*
X11277142Y3682593D01*
X11279479Y3682898D01*
X13206120Y3682898D01*
X13209930Y3682136D01*
X13216737Y3679444D01*
X13226135Y3677412D01*
X13235787Y3676954D01*
X13245338Y3678224D01*
X13254583Y3681018D01*
X13258342Y3682593D01*
X13260679Y3682898D01*
X14222120Y3682898D01*
X14225930Y3682136D01*
X14232737Y3679444D01*
X14242135Y3677412D01*
X14251787Y3676954D01*
X14261338Y3678224D01*
X14270583Y3681018D01*
X14274342Y3682593D01*
X14276679Y3682898D01*
X15238120Y3682898D01*
X15241930Y3682136D01*
X15248737Y3679444D01*
X15258135Y3677412D01*
X15267787Y3676954D01*
X15277338Y3678224D01*
X15286583Y3681018D01*
X15290342Y3682593D01*
X15292679Y3682898D01*
X17219320Y3682898D01*
X17223130Y3682136D01*
X17229937Y3679444D01*
X17239335Y3677412D01*
X17248987Y3676954D01*
X17258538Y3678224D01*
X17267783Y3681018D01*
X17271542Y3682593D01*
X17273879Y3682898D01*
X18235320Y3682898D01*
X18239130Y3682136D01*
X18245937Y3679444D01*
X18255335Y3677412D01*
X18264987Y3676954D01*
X18274538Y3678224D01*
X18283783Y3681018D01*
X18287542Y3682593D01*
X18289879Y3682898D01*
X19251320Y3682898D01*
X19255130Y3682136D01*
X19261937Y3679444D01*
X19271335Y3677412D01*
X19280987Y3676954D01*
X19290538Y3678224D01*
X19299783Y3681018D01*
X19303542Y3682593D01*
X19305879Y3682898D01*
X21232520Y3682898D01*
X21236279Y3682136D01*
X21243086Y3679444D01*
X21252535Y3677412D01*
X21262187Y3676954D01*
X21271738Y3678224D01*
X21280932Y3681018D01*
X21284692Y3682593D01*
X21287079Y3682898D01*
X22248520Y3682898D01*
X22252279Y3682136D01*
X22259086Y3679444D01*
X22268535Y3677412D01*
X22278187Y3676954D01*
X22287738Y3678224D01*
X22296932Y3681018D01*
X22300692Y3682593D01*
X22303079Y3682898D01*
X23264520Y3682898D01*
X23268279Y3682136D01*
X23275086Y3679444D01*
X23284535Y3677412D01*
X23294187Y3676954D01*
X23303738Y3678224D01*
X23312932Y3681018D01*
X23316692Y3682593D01*
X23319079Y3682898D01*
X25245720Y3682898D01*
X25249479Y3682136D01*
X25256286Y3679444D01*
X25265735Y3677412D01*
X25275387Y3676954D01*
X25284938Y3678224D01*
X25294132Y3681018D01*
X25297892Y3682593D01*
X25300279Y3682898D01*
X26261720Y3682898D01*
X26265479Y3682136D01*
X26272286Y3679444D01*
X26281735Y3677412D01*
X26291387Y3676954D01*
X26300938Y3678224D01*
X26310132Y3681018D01*
X26313892Y3682593D01*
X26316279Y3682898D01*
X27277720Y3682898D01*
X27281479Y3682136D01*
X27288286Y3679444D01*
X27297735Y3677412D01*
X27307387Y3676954D01*
X27316938Y3678224D01*
X27326132Y3681018D01*
X27329892Y3682593D01*
X27332279Y3682898D01*
X29258920Y3682898D01*
X29262679Y3682136D01*
X29269486Y3679444D01*
X29278935Y3677412D01*
X29288587Y3676954D01*
X29298138Y3678224D01*
X29307332Y3681018D01*
X29311092Y3682593D01*
X29313479Y3682898D01*
X30274920Y3682898D01*
X30278679Y3682136D01*
X30285486Y3679444D01*
X30294935Y3677412D01*
X30304587Y3676954D01*
X30314138Y3678224D01*
X30323332Y3681018D01*
X30327092Y3682593D01*
X30329479Y3682898D01*
X31290920Y3682898D01*
X31294679Y3682136D01*
X31301486Y3679444D01*
X31310935Y3677412D01*
X31320587Y3676954D01*
X31330138Y3678224D01*
X31339332Y3681018D01*
X31343092Y3682593D01*
X31345479Y3682898D01*
X33272120Y3682898D01*
X33275879Y3682136D01*
X33282686Y3679444D01*
X33292135Y3677412D01*
X33301787Y3676954D01*
X33311338Y3678224D01*
X33320532Y3681018D01*
X33324292Y3682593D01*
X33326679Y3682898D01*
X34288069Y3682898D01*
X34291879Y3682136D01*
X34298686Y3679444D01*
X34308084Y3677412D01*
X34317736Y3676954D01*
X34327287Y3678224D01*
X34336532Y3681018D01*
X34340292Y3682593D01*
X34342628Y3682898D01*
X35304069Y3682898D01*
X35307879Y3682136D01*
X35314686Y3679444D01*
X35324084Y3677412D01*
X35333736Y3676954D01*
X35343287Y3678224D01*
X35352532Y3681018D01*
X35356292Y3682593D01*
X35358628Y3682898D01*
X37285269Y3682898D01*
X37289079Y3682136D01*
X37295886Y3679444D01*
X37305284Y3677412D01*
X37314936Y3676954D01*
X37324487Y3678224D01*
X37333732Y3681018D01*
X37337492Y3682593D01*
X37339828Y3682898D01*
X38301269Y3682898D01*
X38305079Y3682136D01*
X38311886Y3679444D01*
X38321284Y3677412D01*
X38330936Y3676954D01*
X38340487Y3678224D01*
X38349732Y3681018D01*
X38353492Y3682593D01*
X38355828Y3682898D01*
X39317269Y3682898D01*
X39321079Y3682136D01*
X39327886Y3679444D01*
X39337284Y3677412D01*
X39346936Y3676954D01*
X39356487Y3678224D01*
X39365732Y3681018D01*
X39369492Y3682593D01*
X39371828Y3682898D01*
X41298469Y3682898D01*
X41302279Y3682136D01*
X41309086Y3679444D01*
X41318484Y3677412D01*
X41328136Y3676954D01*
X41337687Y3678224D01*
X41346932Y3681018D01*
X41350692Y3682593D01*
X41353028Y3682898D01*
X42314469Y3682898D01*
X42318279Y3682136D01*
X42325086Y3679444D01*
X42334484Y3677412D01*
X42344136Y3676954D01*
X42353687Y3678224D01*
X42362932Y3681018D01*
X42366692Y3682593D01*
X42369028Y3682898D01*
X43330469Y3682898D01*
X43334279Y3682136D01*
X43341086Y3679444D01*
X43350484Y3677412D01*
X43360136Y3676954D01*
X43369687Y3678224D01*
X43378932Y3681018D01*
X43382692Y3682593D01*
X43385028Y3682898D01*
X44896938Y3682898D01*
X44900799Y3682136D01*
X44904101Y3679901D01*
X44906336Y3676599D01*
X44907098Y3672738D01*
X44907098Y2778861D01*
X44906336Y2775000D01*
X44904101Y2771698D01*
X44900799Y2769463D01*
X44896938Y2768701D01*
X43385028Y2768701D01*
X43382692Y2769006D01*
X43378932Y2770581D01*
X43369687Y2773375D01*
X43360136Y2774645D01*
X43350484Y2774188D01*
X43341086Y2772156D01*
X43334228Y2769412D01*
X43330469Y2768701D01*
X42369028Y2768701D01*
X42366692Y2768955D01*
X42362932Y2770581D01*
X42353687Y2773375D01*
X42344136Y2774645D01*
X42334484Y2774188D01*
X42325086Y2772156D01*
X42318228Y2769412D01*
X42314469Y2768701D01*
X41353028Y2768701D01*
X41350692Y2768955D01*
X41346932Y2770581D01*
X41337687Y2773375D01*
X41328136Y2774645D01*
X41318484Y2774188D01*
X41309086Y2772156D01*
X41302228Y2769412D01*
X41298469Y2768701D01*
X39371828Y2768701D01*
X39369492Y2768955D01*
X39365732Y2770581D01*
X39356487Y2773375D01*
X39346936Y2774645D01*
X39337284Y2774188D01*
X39327886Y2772156D01*
X39321028Y2769412D01*
X39317269Y2768701D01*
X38355828Y2768701D01*
X38353492Y2768955D01*
X38349732Y2770581D01*
X38340487Y2773375D01*
X38330936Y2774645D01*
X38321284Y2774188D01*
X38311886Y2772156D01*
X38305028Y2769412D01*
X38301269Y2768701D01*
X37339828Y2768701D01*
X37337492Y2768955D01*
X37333732Y2770581D01*
X37324487Y2773375D01*
X37314936Y2774645D01*
X37305284Y2774188D01*
X37295886Y2772156D01*
X37289028Y2769412D01*
X37285269Y2768701D01*
X35358628Y2768701D01*
X35356292Y2768955D01*
X35352532Y2770581D01*
X35343287Y2773375D01*
X35333736Y2774645D01*
X35324084Y2774188D01*
X35314686Y2772156D01*
X35307828Y2769412D01*
X35304069Y2768701D01*
X34342628Y2768701D01*
X34340292Y2768955D01*
X34336532Y2770581D01*
X34327287Y2773375D01*
X34317736Y2774645D01*
X34308084Y2774188D01*
X34298686Y2772156D01*
X34291828Y2769412D01*
X34288069Y2768701D01*
X33326679Y2768701D01*
X33324342Y2768955D01*
X33320532Y2770581D01*
X33311338Y2773375D01*
X33301787Y2774645D01*
X33292135Y2774188D01*
X33282686Y2772156D01*
X33275879Y2769412D01*
X33272069Y2768701D01*
X31345479Y2768701D01*
X31343142Y2768955D01*
X31339332Y2770581D01*
X31330138Y2773375D01*
X31320587Y2774645D01*
X31310935Y2774188D01*
X31301486Y2772156D01*
X31294679Y2769412D01*
X31290869Y2768701D01*
X30329479Y2768701D01*
X30327142Y2768955D01*
X30323332Y2770581D01*
X30314138Y2773375D01*
X30304587Y2774645D01*
X30294935Y2774188D01*
X30285486Y2772156D01*
X30278679Y2769412D01*
X30274869Y2768701D01*
X29313479Y2768701D01*
X29311142Y2768955D01*
X29307332Y2770581D01*
X29298138Y2773375D01*
X29288587Y2774645D01*
X29278935Y2774188D01*
X29269486Y2772156D01*
X29262679Y2769412D01*
X29258869Y2768701D01*
X27332279Y2768701D01*
X27329942Y2768955D01*
X27326132Y2770581D01*
X27316938Y2773375D01*
X27307387Y2774645D01*
X27297735Y2774188D01*
X27288286Y2772156D01*
X27281479Y2769412D01*
X27277669Y2768701D01*
X26316279Y2768701D01*
X26313942Y2768955D01*
X26310132Y2770581D01*
X26300938Y2773375D01*
X26291387Y2774645D01*
X26281735Y2774188D01*
X26272286Y2772156D01*
X26265479Y2769412D01*
X26261669Y2768701D01*
X25300279Y2768701D01*
X25297942Y2768955D01*
X25294132Y2770581D01*
X25284938Y2773375D01*
X25275387Y2774645D01*
X25265735Y2774188D01*
X25256286Y2772156D01*
X25249479Y2769412D01*
X25245669Y2768701D01*
X23319079Y2768701D01*
X23316742Y2768955D01*
X23312932Y2770581D01*
X23303738Y2773375D01*
X23294187Y2774645D01*
X23284535Y2774188D01*
X23275086Y2772156D01*
X23268279Y2769412D01*
X23264469Y2768701D01*
X22303079Y2768701D01*
X22300742Y2768955D01*
X22296932Y2770581D01*
X22287738Y2773375D01*
X22278187Y2774645D01*
X22268535Y2774188D01*
X22259086Y2772156D01*
X22252279Y2769412D01*
X22248469Y2768701D01*
X21287079Y2768701D01*
X21284742Y2768955D01*
X21280932Y2770581D01*
X21271738Y2773375D01*
X21262187Y2774645D01*
X21252535Y2774188D01*
X21243086Y2772156D01*
X21236279Y2769412D01*
X21232469Y2768701D01*
X19305879Y2768701D01*
X19303542Y2768955D01*
X19299783Y2770581D01*
X19290538Y2773375D01*
X19280987Y2774645D01*
X19271335Y2774188D01*
X19261937Y2772156D01*
X19255079Y2769412D01*
X19251320Y2768701D01*
X18289879Y2768701D01*
X18287542Y2768955D01*
X18283783Y2770581D01*
X18274538Y2773375D01*
X18264987Y2774645D01*
X18255335Y2774188D01*
X18245937Y2772156D01*
X18239079Y2769412D01*
X18235320Y2768701D01*
X17273879Y2768701D01*
X17271542Y2768955D01*
X17267783Y2770581D01*
X17258538Y2773375D01*
X17248987Y2774645D01*
X17239335Y2774188D01*
X17229937Y2772156D01*
X17223079Y2769412D01*
X17219320Y2768701D01*
X15292679Y2768701D01*
X15290342Y2768955D01*
X15286583Y2770581D01*
X15277338Y2773375D01*
X15267787Y2774645D01*
X15258135Y2774188D01*
X15248737Y2772156D01*
X15241879Y2769412D01*
X15238120Y2768701D01*
X14276679Y2768701D01*
X14274342Y2768955D01*
X14270583Y2770581D01*
X14261338Y2773375D01*
X14251787Y2774645D01*
X14242135Y2774188D01*
X14232737Y2772156D01*
X14225879Y2769412D01*
X14222120Y2768701D01*
X13260679Y2768701D01*
X13258342Y2768955D01*
X13254583Y2770581D01*
X13245338Y2773375D01*
X13235787Y2774645D01*
X13226135Y2774188D01*
X13216737Y2772156D01*
X13209879Y2769412D01*
X13206120Y2768701D01*
X11279479Y2768701D01*
X11277142Y2768955D01*
X11273383Y2770581D01*
X11264138Y2773375D01*
X11254587Y2774645D01*
X11244935Y2774188D01*
X11235537Y2772156D01*
X11228679Y2769412D01*
X11224920Y2768701D01*
X10263479Y2768701D01*
X10261142Y2768955D01*
X10257383Y2770581D01*
X10248138Y2773375D01*
X10238587Y2774645D01*
X10228935Y2774188D01*
X10219537Y2772156D01*
X10212679Y2769412D01*
X10208920Y2768701D01*
X9247479Y2768701D01*
X9245142Y2768955D01*
X9241383Y2770581D01*
X9232138Y2773375D01*
X9222587Y2774645D01*
X9212935Y2774188D01*
X9203537Y2772156D01*
X9196679Y2769412D01*
X9192920Y2768701D01*
X7266330Y2768701D01*
X7263993Y2768955D01*
X7260183Y2770581D01*
X7250988Y2773375D01*
X7241438Y2774645D01*
X7231786Y2774188D01*
X7222337Y2772156D01*
X7215530Y2769412D01*
X7211720Y2768701D01*
X6250330Y2768701D01*
X6247993Y2768955D01*
X6244183Y2770581D01*
X6234988Y2773375D01*
X6225438Y2774645D01*
X6215786Y2774188D01*
X6206337Y2772156D01*
X6199530Y2769412D01*
X6195720Y2768701D01*
X5234330Y2768701D01*
X5231993Y2768955D01*
X5228183Y2770581D01*
X5218988Y2773375D01*
X5209438Y2774645D01*
X5199786Y2774188D01*
X5190337Y2772156D01*
X5181396Y2768600D01*
X5173167Y2763520D01*
X5165953Y2757170D01*
X5159857Y2749651D01*
X5155184Y2741218D01*
X5151983Y2732125D01*
X5150358Y2722626D01*
X5150358Y2712974D01*
X5151983Y2703474D01*
X5155184Y2694381D01*
X5159857Y2685948D01*
X5165953Y2678430D01*
X5173167Y2672080D01*
X5181396Y2667000D01*
X5190337Y2663444D01*
X5199786Y2661412D01*
X5209438Y2660954D01*
X5218988Y2662224D01*
X5228183Y2665018D01*
X5231942Y2666593D01*
X5234330Y2666898D01*
X6195771Y2666898D01*
X6199530Y2666136D01*
X6206337Y2663444D01*
X6215786Y2661412D01*
X6225438Y2660954D01*
X6234988Y2662224D01*
X6244183Y2665018D01*
X6247942Y2666593D01*
X6250330Y2666898D01*
X7211771Y2666898D01*
X7215530Y2666136D01*
X7222337Y2663444D01*
X7231786Y2661412D01*
X7241438Y2660954D01*
X7250988Y2662224D01*
X7260183Y2665018D01*
X7263942Y2666593D01*
X7266330Y2666898D01*
X9192920Y2666898D01*
X9196730Y2666136D01*
X9203537Y2663444D01*
X9212935Y2661412D01*
X9222587Y2660954D01*
X9232138Y2662224D01*
X9241383Y2665018D01*
X9245142Y2666593D01*
X9247479Y2666898D01*
X10208920Y2666898D01*
X10212730Y2666136D01*
X10219537Y2663444D01*
X10228935Y2661412D01*
X10238587Y2660954D01*
X10248138Y2662224D01*
X10257383Y2665018D01*
X10261142Y2666593D01*
X10263479Y2666898D01*
X11224920Y2666898D01*
X11228730Y2666136D01*
X11235537Y2663444D01*
X11244935Y2661412D01*
X11254587Y2660954D01*
X11264138Y2662224D01*
X11273383Y2665018D01*
X11277142Y2666593D01*
X11279479Y2666898D01*
X13206120Y2666898D01*
X13209930Y2666136D01*
X13216737Y2663444D01*
X13226135Y2661412D01*
X13235787Y2660954D01*
X13245338Y2662224D01*
X13254583Y2665018D01*
X13258342Y2666593D01*
X13260679Y2666898D01*
X14222120Y2666898D01*
X14225930Y2666136D01*
X14232737Y2663444D01*
X14242135Y2661412D01*
X14251787Y2660954D01*
X14261338Y2662224D01*
X14270583Y2665018D01*
X14274342Y2666593D01*
X14276679Y2666898D01*
X15238120Y2666898D01*
X15241930Y2666136D01*
X15248737Y2663444D01*
X15258135Y2661412D01*
X15267787Y2660954D01*
X15277338Y2662224D01*
X15286583Y2665018D01*
X15290342Y2666593D01*
X15292679Y2666898D01*
X17219320Y2666898D01*
X17223130Y2666136D01*
X17229937Y2663444D01*
X17239335Y2661412D01*
X17248987Y2660954D01*
X17258538Y2662224D01*
X17267783Y2665018D01*
X17271542Y2666593D01*
X17273879Y2666898D01*
X18235320Y2666898D01*
X18239130Y2666136D01*
X18245937Y2663444D01*
X18255335Y2661412D01*
X18264987Y2660954D01*
X18274538Y2662224D01*
X18283783Y2665018D01*
X18287542Y2666593D01*
X18289879Y2666898D01*
X19251320Y2666898D01*
X19255130Y2666136D01*
X19261937Y2663444D01*
X19271335Y2661412D01*
X19280987Y2660954D01*
X19290538Y2662224D01*
X19299783Y2665018D01*
X19303542Y2666593D01*
X19305879Y2666898D01*
X21232520Y2666898D01*
X21236279Y2666136D01*
X21243086Y2663444D01*
X21252535Y2661412D01*
X21262187Y2660954D01*
X21271738Y2662224D01*
X21280932Y2665018D01*
X21284692Y2666593D01*
X21287079Y2666898D01*
X22248520Y2666898D01*
X22252279Y2666136D01*
X22259086Y2663444D01*
X22268535Y2661412D01*
X22278187Y2660954D01*
X22287738Y2662224D01*
X22296932Y2665018D01*
X22300692Y2666593D01*
X22303079Y2666898D01*
X23264520Y2666898D01*
X23268279Y2666136D01*
X23275086Y2663444D01*
X23284535Y2661412D01*
X23294187Y2660954D01*
X23303738Y2662224D01*
X23312932Y2665018D01*
X23316692Y2666593D01*
X23319079Y2666898D01*
X25245720Y2666898D01*
X25249479Y2666136D01*
X25256286Y2663444D01*
X25265735Y2661412D01*
X25275387Y2660954D01*
X25284938Y2662224D01*
X25294132Y2665018D01*
X25297892Y2666593D01*
X25300279Y2666898D01*
X26261720Y2666898D01*
X26265479Y2666136D01*
X26272286Y2663444D01*
X26281735Y2661412D01*
X26291387Y2660954D01*
X26300938Y2662224D01*
X26310132Y2665018D01*
X26313892Y2666593D01*
X26316279Y2666898D01*
X27277720Y2666898D01*
X27281479Y2666136D01*
X27288286Y2663444D01*
X27297735Y2661412D01*
X27307387Y2660954D01*
X27316938Y2662224D01*
X27326132Y2665018D01*
X27329892Y2666593D01*
X27332279Y2666898D01*
X29258920Y2666898D01*
X29262679Y2666136D01*
X29269486Y2663444D01*
X29278935Y2661412D01*
X29288587Y2660954D01*
X29298138Y2662224D01*
X29307332Y2665018D01*
X29311092Y2666593D01*
X29313479Y2666898D01*
X30274920Y2666898D01*
X30278679Y2666136D01*
X30285486Y2663444D01*
X30294935Y2661412D01*
X30304587Y2660954D01*
X30314138Y2662224D01*
X30323332Y2665018D01*
X30327092Y2666593D01*
X30329479Y2666898D01*
X31290920Y2666898D01*
X31294679Y2666136D01*
X31301486Y2663444D01*
X31310935Y2661412D01*
X31320587Y2660954D01*
X31330138Y2662224D01*
X31339332Y2665018D01*
X31343092Y2666593D01*
X31345479Y2666898D01*
X33272120Y2666898D01*
X33275879Y2666136D01*
X33282686Y2663444D01*
X33292135Y2661412D01*
X33301787Y2660954D01*
X33311338Y2662224D01*
X33320532Y2665018D01*
X33324292Y2666593D01*
X33326679Y2666898D01*
X34288069Y2666898D01*
X34291879Y2666136D01*
X34298686Y2663444D01*
X34308084Y2661412D01*
X34317736Y2660954D01*
X34327287Y2662224D01*
X34336532Y2665018D01*
X34340292Y2666593D01*
X34342628Y2666898D01*
X35304069Y2666898D01*
X35307879Y2666136D01*
X35314686Y2663444D01*
X35324084Y2661412D01*
X35333736Y2660954D01*
X35343287Y2662224D01*
X35352532Y2665018D01*
X35356292Y2666593D01*
X35358628Y2666898D01*
X37285269Y2666898D01*
X37289079Y2666136D01*
X37295886Y2663444D01*
X37305284Y2661412D01*
X37314936Y2660954D01*
X37324487Y2662224D01*
X37333732Y2665018D01*
X37337492Y2666593D01*
X37339828Y2666898D01*
X38301269Y2666898D01*
X38305079Y2666136D01*
X38311886Y2663444D01*
X38321284Y2661412D01*
X38330936Y2660954D01*
X38340487Y2662224D01*
X38349732Y2665018D01*
X38353492Y2666593D01*
X38355828Y2666898D01*
X39317269Y2666898D01*
X39321079Y2666136D01*
X39327886Y2663444D01*
X39337284Y2661412D01*
X39346936Y2660954D01*
X39356487Y2662224D01*
X39365732Y2665018D01*
X39369492Y2666593D01*
X39371828Y2666898D01*
X41298469Y2666898D01*
X41302279Y2666136D01*
X41309086Y2663444D01*
X41318484Y2661412D01*
X41328136Y2660954D01*
X41337687Y2662224D01*
X41346932Y2665018D01*
X41350692Y2666593D01*
X41353028Y2666898D01*
X42314469Y2666898D01*
X42318279Y2666136D01*
X42325086Y2663444D01*
X42334484Y2661412D01*
X42344136Y2660954D01*
X42353687Y2662224D01*
X42362932Y2665018D01*
X42366692Y2666593D01*
X42369028Y2666898D01*
X43330469Y2666898D01*
X43334279Y2666136D01*
X43341086Y2663444D01*
X43350484Y2661412D01*
X43360136Y2660954D01*
X43369687Y2662224D01*
X43378932Y2665018D01*
X43382692Y2666593D01*
X43385028Y2666898D01*
X44896938Y2666898D01*
X44900799Y2666136D01*
X44904101Y2663901D01*
X44906336Y2660599D01*
X44907098Y2656738D01*
X44907098Y1803298D01*
X44906336Y1799386D01*
X44904101Y1796135D01*
X44863664Y1755698D01*
X44860413Y1753463D01*
X44856501Y1752701D01*
X43385028Y1752701D01*
X43382692Y1753006D01*
X43378932Y1754581D01*
X43369687Y1757375D01*
X43360136Y1758645D01*
X43350484Y1758188D01*
X43341086Y1756156D01*
X43334228Y1753412D01*
X43330469Y1752701D01*
X42369028Y1752701D01*
X42366692Y1752955D01*
X42362932Y1754581D01*
X42353687Y1757375D01*
X42344136Y1758645D01*
X42334484Y1758188D01*
X42325086Y1756156D01*
X42318228Y1753412D01*
X42314469Y1752701D01*
X41353028Y1752701D01*
X41350692Y1752955D01*
X41346932Y1754581D01*
X41337687Y1757375D01*
X41328136Y1758645D01*
X41318484Y1758188D01*
X41309086Y1756156D01*
X41302228Y1753412D01*
X41298469Y1752701D01*
X39371828Y1752701D01*
X39369492Y1752955D01*
X39365732Y1754581D01*
X39356487Y1757375D01*
X39346936Y1758645D01*
X39337284Y1758188D01*
X39327886Y1756156D01*
X39321079Y1753463D01*
X39317269Y1752701D01*
X38355828Y1752701D01*
X38353492Y1753006D01*
X38349732Y1754581D01*
X38340487Y1757375D01*
X38330936Y1758645D01*
X38321284Y1758188D01*
X38311886Y1756156D01*
X38305079Y1753463D01*
X38301269Y1752701D01*
X37339828Y1752701D01*
X37337492Y1753006D01*
X37333732Y1754581D01*
X37324487Y1757375D01*
X37314936Y1758645D01*
X37305284Y1758188D01*
X37295886Y1756156D01*
X37289028Y1753412D01*
X37285269Y1752701D01*
X35358628Y1752701D01*
X35356292Y1752955D01*
X35352532Y1754581D01*
X35343287Y1757375D01*
X35333736Y1758645D01*
X35324084Y1758188D01*
X35314686Y1756156D01*
X35307879Y1753463D01*
X35304069Y1752701D01*
X34342628Y1752701D01*
X34340292Y1753006D01*
X34336532Y1754581D01*
X34327287Y1757375D01*
X34317736Y1758645D01*
X34308084Y1758188D01*
X34298686Y1756156D01*
X34291879Y1753463D01*
X34288069Y1752701D01*
X33326679Y1752701D01*
X33324292Y1753006D01*
X33320532Y1754581D01*
X33311338Y1757375D01*
X33301787Y1758645D01*
X33292135Y1758188D01*
X33282686Y1756156D01*
X33275879Y1753463D01*
X33272069Y1752701D01*
X31345479Y1752701D01*
X31343092Y1753006D01*
X31339332Y1754581D01*
X31330138Y1757375D01*
X31320587Y1758645D01*
X31310935Y1758188D01*
X31301486Y1756156D01*
X31294679Y1753463D01*
X31290869Y1752701D01*
X30329479Y1752701D01*
X30327092Y1753006D01*
X30323332Y1754581D01*
X30314138Y1757375D01*
X30304587Y1758645D01*
X30294935Y1758188D01*
X30285486Y1756156D01*
X30278679Y1753463D01*
X30274869Y1752701D01*
X29313479Y1752701D01*
X29311092Y1753006D01*
X29307332Y1754581D01*
X29298138Y1757375D01*
X29288587Y1758645D01*
X29278935Y1758188D01*
X29269486Y1756156D01*
X29262679Y1753463D01*
X29258869Y1752701D01*
X27332279Y1752701D01*
X27329892Y1753006D01*
X27326132Y1754581D01*
X27316938Y1757375D01*
X27307387Y1758645D01*
X27297735Y1758188D01*
X27288286Y1756156D01*
X27281479Y1753463D01*
X27277669Y1752701D01*
X26316279Y1752701D01*
X26313892Y1753006D01*
X26310132Y1754581D01*
X26300938Y1757375D01*
X26291387Y1758645D01*
X26281735Y1758188D01*
X26272286Y1756156D01*
X26265479Y1753463D01*
X26261669Y1752701D01*
X25300279Y1752701D01*
X25297892Y1753006D01*
X25294132Y1754581D01*
X25284938Y1757375D01*
X25275387Y1758645D01*
X25265735Y1758188D01*
X25256286Y1756156D01*
X25249479Y1753463D01*
X25245669Y1752701D01*
X23319079Y1752701D01*
X23316692Y1753006D01*
X23312932Y1754581D01*
X23303738Y1757375D01*
X23294187Y1758645D01*
X23284535Y1758188D01*
X23275086Y1756156D01*
X23268279Y1753463D01*
X23264469Y1752701D01*
X22303079Y1752701D01*
X22300692Y1753006D01*
X22296932Y1754581D01*
X22287738Y1757375D01*
X22278187Y1758645D01*
X22268535Y1758188D01*
X22259086Y1756156D01*
X22252279Y1753463D01*
X22248469Y1752701D01*
X21287079Y1752701D01*
X21284692Y1753006D01*
X21280932Y1754581D01*
X21271738Y1757375D01*
X21262187Y1758645D01*
X21252535Y1758188D01*
X21243086Y1756156D01*
X21236279Y1753463D01*
X21232469Y1752701D01*
X19305879Y1752701D01*
X19303542Y1753006D01*
X19299783Y1754581D01*
X19290538Y1757375D01*
X19280987Y1758645D01*
X19271335Y1758188D01*
X19261937Y1756156D01*
X19255130Y1753463D01*
X19251320Y1752701D01*
X18289879Y1752701D01*
X18287542Y1753006D01*
X18283783Y1754581D01*
X18274538Y1757375D01*
X18264987Y1758645D01*
X18255335Y1758188D01*
X18245937Y1756156D01*
X18239130Y1753463D01*
X18235320Y1752701D01*
X17273879Y1752701D01*
X17271542Y1753006D01*
X17267783Y1754581D01*
X17258538Y1757375D01*
X17248987Y1758645D01*
X17239335Y1758188D01*
X17229937Y1756156D01*
X17223130Y1753463D01*
X17219320Y1752701D01*
X15292679Y1752701D01*
X15290342Y1753006D01*
X15286583Y1754581D01*
X15277338Y1757375D01*
X15267787Y1758645D01*
X15258135Y1758188D01*
X15248737Y1756156D01*
X15241930Y1753463D01*
X15238120Y1752701D01*
X14276679Y1752701D01*
X14274342Y1753006D01*
X14270583Y1754581D01*
X14261338Y1757375D01*
X14251787Y1758645D01*
X14242135Y1758188D01*
X14232737Y1756156D01*
X14225930Y1753463D01*
X14222120Y1752701D01*
X13260679Y1752701D01*
X13258342Y1753006D01*
X13254583Y1754581D01*
X13245338Y1757375D01*
X13235787Y1758645D01*
X13226135Y1758188D01*
X13216737Y1756156D01*
X13209930Y1753463D01*
X13206120Y1752701D01*
X11279479Y1752701D01*
X11277142Y1753006D01*
X11273383Y1754581D01*
X11264138Y1757375D01*
X11254587Y1758645D01*
X11244935Y1758188D01*
X11235537Y1756156D01*
X11228730Y1753463D01*
X11224920Y1752701D01*
X10263479Y1752701D01*
X10261142Y1753006D01*
X10257383Y1754581D01*
X10248138Y1757375D01*
X10238587Y1758645D01*
X10228935Y1758188D01*
X10219537Y1756156D01*
X10212730Y1753463D01*
X10208920Y1752701D01*
X9247479Y1752701D01*
X9245142Y1753006D01*
X9241383Y1754581D01*
X9232138Y1757375D01*
X9222587Y1758645D01*
X9212935Y1758188D01*
X9203537Y1756156D01*
X9196730Y1753463D01*
X9192920Y1752701D01*
X7266330Y1752701D01*
X7263942Y1753006D01*
X7260183Y1754581D01*
X7250988Y1757375D01*
X7241438Y1758645D01*
X7231786Y1758188D01*
X7222337Y1756156D01*
X7215530Y1753463D01*
X7211720Y1752701D01*
X6250330Y1752701D01*
X6247942Y1753006D01*
X6244183Y1754581D01*
X6234988Y1757375D01*
X6225438Y1758645D01*
X6215786Y1758188D01*
X6206337Y1756156D01*
X6199530Y1753463D01*
X6195720Y1752701D01*
X5234330Y1752701D01*
X5231942Y1753006D01*
X5228183Y1754581D01*
X5218988Y1757375D01*
X5209438Y1758645D01*
X5199786Y1758188D01*
X5190337Y1756156D01*
X5181396Y1752600D01*
X5173167Y1747520D01*
X5165953Y1741170D01*
X5159857Y1733651D01*
X5155184Y1725218D01*
X5151983Y1716125D01*
X5150358Y1706625D01*
X5150358Y1696974D01*
X5151983Y1687474D01*
X5155184Y1678381D01*
X5159857Y1669948D01*
X5165953Y1662430D01*
X5173167Y1656080D01*
X5181396Y1651000D01*
X5190337Y1647443D01*
X5199786Y1645412D01*
G37*
G36*
X23954689Y12585700D02*
G01*
X24117300Y12585700D01*
X24117300Y12748412D01*
X24098453Y12746024D01*
X24080825Y12741859D01*
X24063706Y12735915D01*
X24047348Y12728244D01*
X24031803Y12718948D01*
X24017325Y12708077D01*
X24004016Y12695783D01*
X23992078Y12682169D01*
X23981562Y12667386D01*
X23972672Y12651638D01*
X23965408Y12635026D01*
X23959921Y12617805D01*
X23956213Y12600076D01*
G37*
G36*
X2806700Y12585700D02*
G01*
X2969260Y12585700D01*
X2967786Y12600076D01*
X2964078Y12617805D01*
X2958592Y12635026D01*
X2951327Y12651638D01*
X2942386Y12667386D01*
X2931922Y12682169D01*
X2919984Y12695783D01*
X2906674Y12708077D01*
X2892196Y12718948D01*
X2876651Y12728244D01*
X2860243Y12735915D01*
X2843174Y12741910D01*
X2825546Y12746024D01*
X2806700Y12748412D01*
G37*
G36*
X2618740Y12585700D02*
G01*
X2781300Y12585700D01*
X2781300Y12748209D01*
X2771394Y12747447D01*
X2753614Y12744196D01*
X2736189Y12739116D01*
X2719425Y12732308D01*
X2703423Y12723774D01*
X2688437Y12713665D01*
X2674518Y12702082D01*
X2661869Y12689128D01*
X2650642Y12674904D01*
X2640939Y12659614D01*
X2632811Y12643459D01*
X2626410Y12626492D01*
X2621838Y12608966D01*
X2619044Y12591084D01*
G37*
G36*
X45478700Y12585700D02*
G01*
X45641260Y12585700D01*
X45640955Y12591084D01*
X45638161Y12608966D01*
X45633538Y12626492D01*
X45627188Y12643459D01*
X45619060Y12659614D01*
X45609357Y12674904D01*
X45598130Y12689128D01*
X45585481Y12702082D01*
X45571562Y12713665D01*
X45556525Y12723774D01*
X45540574Y12732308D01*
X45523759Y12739116D01*
X45506386Y12744196D01*
X45488555Y12747447D01*
X45478700Y12748209D01*
G37*
G36*
X24142700Y12585700D02*
G01*
X24305260Y12585700D01*
X24304955Y12591084D01*
X24302161Y12608966D01*
X24297538Y12626492D01*
X24291188Y12643459D01*
X24283060Y12659614D01*
X24273357Y12674904D01*
X24262130Y12689128D01*
X24249481Y12702082D01*
X24235562Y12713665D01*
X24220525Y12723774D01*
X24204574Y12732308D01*
X24187759Y12739116D01*
X24170386Y12744196D01*
X24152555Y12747447D01*
X24142700Y12748209D01*
G37*
G36*
X2781300Y12397790D02*
G01*
X2781300Y12560300D01*
X2618740Y12560300D01*
X2619044Y12554915D01*
X2621838Y12537033D01*
X2626410Y12519507D01*
X2632811Y12502540D01*
X2640939Y12486386D01*
X2650642Y12471095D01*
X2661869Y12456871D01*
X2674518Y12443917D01*
X2688437Y12432334D01*
X2703423Y12422225D01*
X2719425Y12413691D01*
X2736189Y12406884D01*
X2753614Y12401804D01*
X2771394Y12398552D01*
G37*
G36*
X45478700Y12397790D02*
G01*
X45488555Y12398552D01*
X45506386Y12401804D01*
X45523759Y12406884D01*
X45540574Y12413691D01*
X45556525Y12422225D01*
X45571562Y12432334D01*
X45585481Y12443917D01*
X45598130Y12456871D01*
X45609357Y12471095D01*
X45619060Y12486386D01*
X45627188Y12502540D01*
X45633538Y12519507D01*
X45638161Y12537033D01*
X45640955Y12554915D01*
X45641260Y12560300D01*
X45478700Y12560300D01*
G37*
G36*
X24142700Y12397790D02*
G01*
X24152555Y12398552D01*
X24170386Y12401804D01*
X24187759Y12406884D01*
X24204574Y12413691D01*
X24220525Y12422225D01*
X24235562Y12432334D01*
X24249481Y12443917D01*
X24262130Y12456871D01*
X24273357Y12471095D01*
X24283060Y12486386D01*
X24291188Y12502540D01*
X24297538Y12519507D01*
X24302161Y12537033D01*
X24304955Y12554915D01*
X24305260Y12560300D01*
X24142700Y12560300D01*
G37*
G36*
X45453300Y12397587D02*
G01*
X45453300Y12560300D01*
X45290689Y12560300D01*
X45292213Y12545923D01*
X45295921Y12528194D01*
X45301408Y12510973D01*
X45308672Y12494361D01*
X45317562Y12478613D01*
X45328078Y12463830D01*
X45340016Y12450216D01*
X45353325Y12437922D01*
X45367803Y12427051D01*
X45383348Y12417755D01*
X45399706Y12410084D01*
X45416825Y12404090D01*
X45434453Y12399975D01*
G37*
G36*
X2806700Y12397587D02*
G01*
X2825546Y12399975D01*
X2843174Y12404090D01*
X2860243Y12410084D01*
X2876651Y12417755D01*
X2892196Y12427051D01*
X2906674Y12437922D01*
X2919984Y12450216D01*
X2931922Y12463830D01*
X2942386Y12478613D01*
X2951327Y12494361D01*
X2958592Y12510973D01*
X2964078Y12528194D01*
X2967786Y12545923D01*
X2969260Y12560300D01*
X2806700Y12560300D01*
G37*
G36*
X24117300Y12397587D02*
G01*
X24117300Y12560300D01*
X23954689Y12560300D01*
X23956213Y12545923D01*
X23959921Y12528194D01*
X23965408Y12510973D01*
X23972672Y12494361D01*
X23981562Y12478613D01*
X23992078Y12463830D01*
X24004016Y12450216D01*
X24017325Y12437922D01*
X24031803Y12427051D01*
X24047348Y12417755D01*
X24063706Y12410084D01*
X24080825Y12404090D01*
X24098453Y12399975D01*
G37*
G36*
X45478700Y9410700D02*
G01*
X45641260Y9410700D01*
X45639786Y9425076D01*
X45636078Y9442805D01*
X45630592Y9460026D01*
X45623327Y9476638D01*
X45614437Y9492386D01*
X45603922Y9507169D01*
X45591984Y9520783D01*
X45578674Y9533077D01*
X45564196Y9543948D01*
X45548651Y9553244D01*
X45532243Y9560915D01*
X45515174Y9566910D01*
X45497546Y9571024D01*
X45478700Y9573412D01*
G37*
G36*
X2806700Y9410700D02*
G01*
X2969260Y9410700D01*
X2967786Y9425076D01*
X2964078Y9442805D01*
X2958592Y9460026D01*
X2951327Y9476638D01*
X2942437Y9492386D01*
X2931922Y9507169D01*
X2919984Y9520783D01*
X2906674Y9533077D01*
X2892196Y9543948D01*
X2876651Y9553244D01*
X2860243Y9560915D01*
X2843174Y9566910D01*
X2825546Y9571024D01*
X2806700Y9573412D01*
G37*
G36*
X2618740Y9410700D02*
G01*
X2781300Y9410700D01*
X2781300Y9573209D01*
X2771394Y9572447D01*
X2753614Y9569196D01*
X2736189Y9564116D01*
X2719425Y9557308D01*
X2703474Y9548774D01*
X2688437Y9538665D01*
X2674518Y9527082D01*
X2661869Y9514128D01*
X2650642Y9499904D01*
X2640939Y9484614D01*
X2632811Y9468459D01*
X2626461Y9451492D01*
X2621838Y9433966D01*
X2619044Y9416084D01*
G37*
G36*
X45290740Y9410700D02*
G01*
X45453300Y9410700D01*
X45453300Y9573209D01*
X45443394Y9572447D01*
X45425614Y9569196D01*
X45408189Y9564116D01*
X45391425Y9557308D01*
X45375474Y9548774D01*
X45360437Y9538665D01*
X45346518Y9527082D01*
X45333869Y9514128D01*
X45322642Y9499904D01*
X45312939Y9484614D01*
X45304811Y9468459D01*
X45298461Y9451492D01*
X45293838Y9433966D01*
X45291044Y9416084D01*
G37*
G36*
X45453300Y9222790D02*
G01*
X45453300Y9385300D01*
X45290740Y9385300D01*
X45291044Y9379915D01*
X45293838Y9362033D01*
X45298461Y9344507D01*
X45304811Y9327540D01*
X45312939Y9311386D01*
X45322642Y9296095D01*
X45333869Y9281871D01*
X45346518Y9268917D01*
X45360437Y9257334D01*
X45375474Y9247225D01*
X45391425Y9238691D01*
X45408189Y9231884D01*
X45425614Y9226804D01*
X45443394Y9223552D01*
G37*
G36*
X2781300Y9222790D02*
G01*
X2781300Y9385300D01*
X2618740Y9385300D01*
X2619044Y9379915D01*
X2621838Y9362033D01*
X2626461Y9344507D01*
X2632811Y9327540D01*
X2640939Y9311386D01*
X2650642Y9296095D01*
X2661869Y9281871D01*
X2674518Y9268917D01*
X2688437Y9257334D01*
X2703474Y9247225D01*
X2719425Y9238691D01*
X2736189Y9231884D01*
X2753614Y9226804D01*
X2771394Y9223552D01*
G37*
G36*
X2806700Y9222587D02*
G01*
X2825546Y9224975D01*
X2843174Y9229090D01*
X2860243Y9235084D01*
X2876651Y9242755D01*
X2892196Y9252051D01*
X2906674Y9262922D01*
X2919984Y9275216D01*
X2931922Y9288830D01*
X2942437Y9303613D01*
X2951327Y9319361D01*
X2958592Y9335973D01*
X2964078Y9353194D01*
X2967786Y9370923D01*
X2969260Y9385300D01*
X2806700Y9385300D01*
G37*
G36*
X45478700Y9222587D02*
G01*
X45497546Y9224975D01*
X45515174Y9229090D01*
X45532243Y9235084D01*
X45548651Y9242755D01*
X45564196Y9252051D01*
X45578674Y9262922D01*
X45591984Y9275216D01*
X45603922Y9288830D01*
X45614437Y9303613D01*
X45623327Y9319361D01*
X45630592Y9335973D01*
X45636078Y9353194D01*
X45639786Y9370923D01*
X45641260Y9385300D01*
X45478700Y9385300D01*
G37*
G36*
X24117300Y459587D02*
G01*
X24117300Y622300D01*
X23954740Y622300D01*
X23956213Y607923D01*
X23959921Y590194D01*
X23965408Y572973D01*
X23972672Y556361D01*
X23981562Y540613D01*
X23992078Y525830D01*
X24004016Y512216D01*
X24017325Y499922D01*
X24031803Y489051D01*
X24047348Y479755D01*
X24063756Y472084D01*
X24080825Y466090D01*
X24098453Y461975D01*
G37*
G36*
X23954689Y6616700D02*
G01*
X24117300Y6616700D01*
X24117300Y6779412D01*
X24098453Y6777024D01*
X24080825Y6772859D01*
X24063706Y6766915D01*
X24047348Y6759244D01*
X24031803Y6749948D01*
X24017325Y6739077D01*
X24004016Y6726783D01*
X23992078Y6713169D01*
X23981562Y6698386D01*
X23972672Y6682638D01*
X23965408Y6666026D01*
X23959921Y6648805D01*
X23956213Y6631076D01*
G37*
G36*
X45290689Y6616700D02*
G01*
X45453300Y6616700D01*
X45453300Y6779412D01*
X45434453Y6777024D01*
X45416825Y6772909D01*
X45399706Y6766915D01*
X45383348Y6759244D01*
X45367803Y6749948D01*
X45353325Y6739077D01*
X45340016Y6726783D01*
X45328078Y6713169D01*
X45317562Y6698386D01*
X45308672Y6682638D01*
X45301408Y6666026D01*
X45295921Y6648805D01*
X45292213Y6631076D01*
G37*
G36*
X2806700Y6616700D02*
G01*
X2969260Y6616700D01*
X2967786Y6631076D01*
X2964078Y6648805D01*
X2958592Y6666026D01*
X2951327Y6682638D01*
X2942386Y6698386D01*
X2931922Y6713169D01*
X2919984Y6726783D01*
X2906674Y6739077D01*
X2892196Y6749948D01*
X2876651Y6759244D01*
X2860243Y6766915D01*
X2843174Y6772909D01*
X2825546Y6777024D01*
X2806700Y6779412D01*
G37*
G36*
X2618740Y6616700D02*
G01*
X2781300Y6616700D01*
X2781300Y6779209D01*
X2771394Y6778447D01*
X2753614Y6775196D01*
X2736189Y6770116D01*
X2719425Y6763308D01*
X2703423Y6754774D01*
X2688437Y6744665D01*
X2674518Y6733082D01*
X2661869Y6720128D01*
X2650642Y6705904D01*
X2640939Y6690614D01*
X2632811Y6674459D01*
X2626410Y6657492D01*
X2621838Y6639966D01*
X2619044Y6622084D01*
G37*
G36*
X45478700Y6616700D02*
G01*
X45641260Y6616700D01*
X45640955Y6622084D01*
X45638161Y6639966D01*
X45633538Y6657492D01*
X45627188Y6674459D01*
X45619060Y6690614D01*
X45609357Y6705904D01*
X45598130Y6720128D01*
X45585481Y6733082D01*
X45571562Y6744665D01*
X45556525Y6754774D01*
X45540574Y6763308D01*
X45523759Y6770116D01*
X45506386Y6775196D01*
X45488555Y6778447D01*
X45478700Y6779209D01*
G37*
G36*
X24142700Y6616700D02*
G01*
X24305260Y6616700D01*
X24304955Y6622084D01*
X24302161Y6639966D01*
X24297538Y6657492D01*
X24291188Y6674459D01*
X24283060Y6690614D01*
X24273357Y6705904D01*
X24262130Y6720128D01*
X24249481Y6733082D01*
X24235562Y6744665D01*
X24220525Y6754774D01*
X24204574Y6763308D01*
X24187759Y6770116D01*
X24170386Y6775196D01*
X24152555Y6778447D01*
X24142700Y6779209D01*
G37*
G36*
X2781300Y6428790D02*
G01*
X2781300Y6591300D01*
X2618740Y6591300D01*
X2619044Y6585915D01*
X2621838Y6568033D01*
X2626410Y6550507D01*
X2632811Y6533540D01*
X2640939Y6517385D01*
X2650642Y6502095D01*
X2661869Y6487871D01*
X2674518Y6474917D01*
X2688437Y6463334D01*
X2703423Y6453225D01*
X2719425Y6444691D01*
X2736189Y6437884D01*
X2753614Y6432804D01*
X2771394Y6429552D01*
G37*
G36*
X45478700Y6428790D02*
G01*
X45488555Y6429552D01*
X45506386Y6432804D01*
X45523759Y6437884D01*
X45540574Y6444691D01*
X45556525Y6453225D01*
X45571562Y6463334D01*
X45585481Y6474917D01*
X45598130Y6487871D01*
X45609357Y6502095D01*
X45619060Y6517385D01*
X45627188Y6533540D01*
X45633538Y6550507D01*
X45638161Y6568033D01*
X45640955Y6585915D01*
X45641260Y6591300D01*
X45478700Y6591300D01*
G37*
G36*
X24142700Y6428790D02*
G01*
X24152555Y6429552D01*
X24170386Y6432804D01*
X24187759Y6437884D01*
X24204574Y6444691D01*
X24220525Y6453225D01*
X24235562Y6463334D01*
X24249481Y6474917D01*
X24262130Y6487871D01*
X24273357Y6502095D01*
X24283060Y6517385D01*
X24291188Y6533540D01*
X24297538Y6550507D01*
X24302161Y6568033D01*
X24304955Y6585915D01*
X24305260Y6591300D01*
X24142700Y6591300D01*
G37*
G36*
X45453300Y1726387D02*
G01*
X45453300Y1828800D01*
X45351039Y1828800D01*
X45352157Y1819757D01*
X45355814Y1805686D01*
X45361148Y1792173D01*
X45368159Y1779422D01*
X45376693Y1767636D01*
X45386701Y1757019D01*
X45397877Y1747723D01*
X45410170Y1739950D01*
X45423328Y1733753D01*
X45437196Y1729232D01*
X45451471Y1726539D01*
G37*
G36*
X45478700Y1726387D02*
G01*
X45480528Y1726539D01*
X45494854Y1729232D01*
X45508672Y1733753D01*
X45521829Y1739950D01*
X45534122Y1747723D01*
X45545349Y1757019D01*
X45555306Y1767636D01*
X45563840Y1779422D01*
X45570851Y1792173D01*
X45576236Y1805686D01*
X45579842Y1819757D01*
X45580960Y1828800D01*
X45478700Y1828800D01*
G37*
G36*
X2806700Y6428587D02*
G01*
X2825546Y6430975D01*
X2843174Y6435090D01*
X2860243Y6441084D01*
X2876651Y6448755D01*
X2892196Y6458051D01*
X2906674Y6468922D01*
X2919984Y6481216D01*
X2931922Y6494830D01*
X2942386Y6509613D01*
X2951327Y6525361D01*
X2958592Y6541973D01*
X2964078Y6559194D01*
X2967786Y6576923D01*
X2969260Y6591300D01*
X2806700Y6591300D01*
G37*
G36*
X45453300Y6428587D02*
G01*
X45453300Y6591300D01*
X45290689Y6591300D01*
X45292213Y6576923D01*
X45295921Y6559194D01*
X45301408Y6541973D01*
X45308672Y6525361D01*
X45317562Y6509613D01*
X45328078Y6494830D01*
X45340016Y6481216D01*
X45353325Y6468922D01*
X45367803Y6458051D01*
X45383348Y6448755D01*
X45399706Y6441084D01*
X45416825Y6435090D01*
X45434453Y6430975D01*
G37*
G36*
X24117300Y6428587D02*
G01*
X24117300Y6591300D01*
X23954689Y6591300D01*
X23956213Y6576923D01*
X23959921Y6559194D01*
X23965408Y6541973D01*
X23972672Y6525361D01*
X23981562Y6509613D01*
X23992078Y6494830D01*
X24004016Y6481216D01*
X24017325Y6468922D01*
X24031803Y6458051D01*
X24047348Y6448755D01*
X24063706Y6441084D01*
X24080825Y6435090D01*
X24098453Y6430975D01*
G37*
G36*
X45290740Y3822700D02*
G01*
X45453300Y3822700D01*
X45453300Y3985412D01*
X45434453Y3983024D01*
X45416825Y3978910D01*
X45399756Y3972915D01*
X45383348Y3965244D01*
X45367803Y3955948D01*
X45353325Y3945077D01*
X45340016Y3932783D01*
X45328078Y3919169D01*
X45317562Y3904386D01*
X45308672Y3888638D01*
X45301408Y3872026D01*
X45295921Y3854805D01*
X45292213Y3837076D01*
G37*
G36*
X2618740Y3822700D02*
G01*
X2781300Y3822700D01*
X2781300Y3985412D01*
X2762453Y3983024D01*
X2744825Y3978910D01*
X2727756Y3972915D01*
X2711348Y3965244D01*
X2695803Y3955948D01*
X2681325Y3945077D01*
X2668016Y3932783D01*
X2656078Y3919169D01*
X2645562Y3904386D01*
X2636672Y3888638D01*
X2629408Y3872026D01*
X2623921Y3854805D01*
X2620213Y3837076D01*
G37*
G36*
X45478700Y3822700D02*
G01*
X45641260Y3822700D01*
X45640955Y3828084D01*
X45638161Y3845966D01*
X45633538Y3863492D01*
X45627188Y3880459D01*
X45619060Y3896614D01*
X45609357Y3911904D01*
X45598130Y3926128D01*
X45585481Y3939082D01*
X45571562Y3950665D01*
X45556525Y3960774D01*
X45540574Y3969308D01*
X45523810Y3976115D01*
X45506386Y3981196D01*
X45488606Y3984447D01*
X45478700Y3985209D01*
G37*
G36*
X2806700Y3822700D02*
G01*
X2969260Y3822700D01*
X2968955Y3828084D01*
X2966161Y3845966D01*
X2961538Y3863492D01*
X2955188Y3880459D01*
X2947060Y3896614D01*
X2937357Y3911904D01*
X2926130Y3926128D01*
X2913481Y3939082D01*
X2899562Y3950665D01*
X2884525Y3960774D01*
X2868574Y3969308D01*
X2851810Y3976115D01*
X2834386Y3981196D01*
X2816606Y3984447D01*
X2806700Y3985209D01*
G37*
G36*
X45478700Y3634790D02*
G01*
X45488606Y3635552D01*
X45506386Y3638804D01*
X45523810Y3643884D01*
X45540574Y3650691D01*
X45556525Y3659225D01*
X45571562Y3669334D01*
X45585481Y3680917D01*
X45598130Y3693871D01*
X45609357Y3708095D01*
X45619060Y3723386D01*
X45627188Y3739540D01*
X45633538Y3756507D01*
X45638161Y3774033D01*
X45640955Y3791915D01*
X45641260Y3797300D01*
X45478700Y3797300D01*
G37*
G36*
X2806700Y3634790D02*
G01*
X2816606Y3635552D01*
X2834386Y3638804D01*
X2851810Y3643884D01*
X2868574Y3650691D01*
X2884525Y3659225D01*
X2899562Y3669334D01*
X2913481Y3680917D01*
X2926130Y3693871D01*
X2937357Y3708095D01*
X2947060Y3723386D01*
X2955188Y3739540D01*
X2961538Y3756507D01*
X2966161Y3774033D01*
X2968955Y3791915D01*
X2969260Y3797300D01*
X2806700Y3797300D01*
G37*
G36*
X45453300Y3634587D02*
G01*
X45453300Y3797300D01*
X45290740Y3797300D01*
X45292213Y3782923D01*
X45295921Y3765194D01*
X45301408Y3747973D01*
X45308672Y3731361D01*
X45317562Y3715613D01*
X45328078Y3700830D01*
X45340016Y3687216D01*
X45353325Y3674922D01*
X45367803Y3664051D01*
X45383348Y3654755D01*
X45399756Y3647084D01*
X45416825Y3641090D01*
X45434453Y3636975D01*
G37*
G36*
X2781300Y3634587D02*
G01*
X2781300Y3797300D01*
X2618740Y3797300D01*
X2620213Y3782923D01*
X2623921Y3765194D01*
X2629408Y3747973D01*
X2636672Y3731361D01*
X2645562Y3715613D01*
X2656078Y3700830D01*
X2668016Y3687216D01*
X2681325Y3674922D01*
X2695803Y3664051D01*
X2711348Y3654755D01*
X2727756Y3647084D01*
X2744825Y3641090D01*
X2762453Y3636975D01*
G37*
G36*
X45466000Y2233625D02*
G01*
X45480528Y2234539D01*
X45494854Y2237232D01*
X45508672Y2241753D01*
X45521829Y2247950D01*
X45534122Y2255723D01*
X45545349Y2265019D01*
X45555306Y2275636D01*
X45563840Y2287422D01*
X45570851Y2300173D01*
X45576236Y2313686D01*
X45579842Y2327757D01*
X45581671Y2342235D01*
X45581671Y2356764D01*
X45579842Y2371191D01*
X45576236Y2385314D01*
X45570851Y2398826D01*
X45563840Y2411577D01*
X45555306Y2423363D01*
X45545349Y2433980D01*
X45534122Y2443226D01*
X45521829Y2451049D01*
X45508672Y2457246D01*
X45494854Y2461717D01*
X45480528Y2464460D01*
X45466000Y2465374D01*
X45451471Y2464460D01*
X45437196Y2461717D01*
X45423328Y2457246D01*
X45410170Y2451049D01*
X45397877Y2443226D01*
X45386701Y2433980D01*
X45376693Y2423363D01*
X45368159Y2411577D01*
X45361148Y2398826D01*
X45355814Y2385314D01*
X45352157Y2371191D01*
X45350328Y2356764D01*
X45350328Y2342235D01*
X45352157Y2327757D01*
X45355814Y2313686D01*
X45361148Y2300173D01*
X45368159Y2287422D01*
X45376693Y2275636D01*
X45386701Y2265019D01*
X45397877Y2255723D01*
X45410170Y2247950D01*
X45423328Y2241753D01*
X45437196Y2237232D01*
X45451471Y2234539D01*
G37*
G36*
X45466000Y1979625D02*
G01*
X45480528Y1980539D01*
X45494854Y1983232D01*
X45508672Y1987753D01*
X45521829Y1993950D01*
X45534122Y2001723D01*
X45545349Y2011019D01*
X45555306Y2021636D01*
X45563840Y2033422D01*
X45570851Y2046173D01*
X45576236Y2059686D01*
X45579842Y2073757D01*
X45581671Y2088235D01*
X45581671Y2102764D01*
X45579842Y2117191D01*
X45576236Y2131314D01*
X45570851Y2144826D01*
X45563840Y2157577D01*
X45555306Y2169363D01*
X45545349Y2179980D01*
X45534122Y2189226D01*
X45521829Y2197049D01*
X45508672Y2203246D01*
X45494854Y2207717D01*
X45480528Y2210460D01*
X45466000Y2211374D01*
X45451471Y2210460D01*
X45437196Y2207717D01*
X45423328Y2203246D01*
X45410170Y2197049D01*
X45397877Y2189226D01*
X45386701Y2179980D01*
X45376693Y2169363D01*
X45368159Y2157577D01*
X45361148Y2144826D01*
X45355814Y2131314D01*
X45352157Y2117191D01*
X45350328Y2102764D01*
X45350328Y2088235D01*
X45352157Y2073757D01*
X45355814Y2059686D01*
X45361148Y2046173D01*
X45368159Y2033422D01*
X45376693Y2021636D01*
X45386701Y2011019D01*
X45397877Y2001723D01*
X45410170Y1993950D01*
X45423328Y1987753D01*
X45437196Y1983232D01*
X45451471Y1980539D01*
G37*
G36*
X45478700Y1854200D02*
G01*
X45580960Y1854200D01*
X45579842Y1863191D01*
X45576236Y1877314D01*
X45570851Y1890826D01*
X45563840Y1903577D01*
X45555306Y1915363D01*
X45545349Y1925980D01*
X45534122Y1935225D01*
X45521829Y1943049D01*
X45508672Y1949246D01*
X45494854Y1953717D01*
X45480528Y1956460D01*
X45478700Y1956562D01*
G37*
G36*
X45351039Y1854200D02*
G01*
X45453300Y1854200D01*
X45453300Y1956562D01*
X45451471Y1956460D01*
X45437196Y1953717D01*
X45423328Y1949246D01*
X45410170Y1943049D01*
X45397877Y1935225D01*
X45386701Y1925980D01*
X45376693Y1915363D01*
X45368159Y1903577D01*
X45361148Y1890826D01*
X45355814Y1877314D01*
X45352157Y1863191D01*
G37*

%LPD*%
D10*
X43357723Y3733800D02*
G01*
X44958000Y3733800D01*
X43357723Y5765800D02*
G01*
X44958000Y5765800D01*
X43357723Y6781774D02*
G01*
X44958000Y6781774D01*
X43357723Y7797774D02*
G01*
X44958000Y7797774D01*
X43357723Y9829774D02*
G01*
X44958000Y9829774D01*
X43357723Y10845774D02*
G01*
X44958000Y10845774D01*
X44958000Y2857500D02*
G01*
X44958000Y11785600D01*
X44881800Y11861800D01*
X43357800Y11861800D01*
X43357723Y2717800D02*
G01*
X44958000Y2717800D01*
X43357800Y1701800D02*
G01*
X44881800Y1701800D01*
X44958000Y1778000D01*
X44958000Y2857500D01*
X45466000Y2857500D01*
X45466000Y2857500D02*
G01*
X45466000Y3111500D01*
X45466000Y2603500D02*
G01*
X45466000Y2857500D01*
X9220177Y11861769D02*
G01*
X7238977Y11861769D01*
X9220177Y10845769D02*
G01*
X7238977Y10845769D01*
X9220177Y9829774D02*
G01*
X7238977Y9829774D01*
X9220177Y7797794D02*
G01*
X7238977Y7797794D01*
X9220177Y6781794D02*
G01*
X7238977Y6781794D01*
X9220177Y5765800D02*
G01*
X7238977Y5765800D01*
X13233377Y11861769D02*
G01*
X11252177Y11861769D01*
X13233377Y10845769D02*
G01*
X11252177Y10845769D01*
X13233377Y9829774D02*
G01*
X11252177Y9829774D01*
X13233377Y7797794D02*
G01*
X11252177Y7797794D01*
X13233377Y6781794D02*
G01*
X11252177Y6781794D01*
X13233377Y5765800D02*
G01*
X11252177Y5765800D01*
X17246577Y11861769D02*
G01*
X15265377Y11861769D01*
X17246577Y10845769D02*
G01*
X15265377Y10845769D01*
X17246577Y9829774D02*
G01*
X15265377Y9829774D01*
X17246577Y7797794D02*
G01*
X15265377Y7797794D01*
X17246577Y6781794D02*
G01*
X15265377Y6781794D01*
X17246577Y5765800D02*
G01*
X15265377Y5765800D01*
X21259751Y11861769D02*
G01*
X19278551Y11861769D01*
X21259751Y10845769D02*
G01*
X19278551Y10845769D01*
X21259751Y9829774D02*
G01*
X19278551Y9829774D01*
X21259751Y7797794D02*
G01*
X19278551Y7797794D01*
X21259751Y6781794D02*
G01*
X19278551Y6781794D01*
X21259751Y5765800D02*
G01*
X19278551Y5765800D01*
X23291749Y6781774D02*
G01*
X23545741Y6781774D01*
X23748951Y6984984D01*
X24510954Y6984984D01*
X24714151Y6781787D01*
X25272936Y6781787D01*
X25272951Y11861769D02*
G01*
X23291751Y11861769D01*
X25272951Y10845769D02*
G01*
X23291751Y10845769D01*
X25272951Y9829774D02*
G01*
X23291751Y9829774D01*
X25272951Y7797794D02*
G01*
X23291751Y7797794D01*
X25272951Y5765800D02*
G01*
X23291751Y5765800D01*
X29286151Y11861769D02*
G01*
X27304951Y11861769D01*
X29286151Y10845769D02*
G01*
X27304951Y10845769D01*
X29286151Y9829774D02*
G01*
X27304951Y9829774D01*
X29286151Y7797794D02*
G01*
X27304951Y7797794D01*
X29286151Y6781794D02*
G01*
X27304951Y6781794D01*
X29286151Y5765800D02*
G01*
X27304951Y5765800D01*
X33299351Y11861769D02*
G01*
X31318151Y11861769D01*
X33299351Y10845769D02*
G01*
X31318151Y10845769D01*
X33299351Y9829774D02*
G01*
X31318151Y9829774D01*
X33299351Y7797794D02*
G01*
X31318151Y7797794D01*
X33299351Y6781794D02*
G01*
X31318151Y6781794D01*
X33299351Y5765800D02*
G01*
X31318151Y5765800D01*
X37312526Y11861769D02*
G01*
X35331326Y11861769D01*
X37312526Y10845769D02*
G01*
X35331326Y10845769D01*
X37312526Y9829774D02*
G01*
X35331326Y9829774D01*
X37312526Y7797794D02*
G01*
X35331326Y7797794D01*
X37312526Y6781794D02*
G01*
X35331326Y6781794D01*
X37312526Y5765800D02*
G01*
X35331326Y5765800D01*
X41325723Y11861769D02*
G01*
X39344523Y11861769D01*
X41325723Y10845769D02*
G01*
X39344523Y10845769D01*
X41325723Y9829774D02*
G01*
X39344523Y9829774D01*
X41325723Y7797794D02*
G01*
X39344523Y7797794D01*
X41325723Y6781794D02*
G01*
X39344523Y6781794D01*
X41325723Y5765800D02*
G01*
X39344523Y5765800D01*
X13233374Y3733794D02*
G01*
X11252174Y3733794D01*
X13233374Y2717794D02*
G01*
X11252174Y2717794D01*
X13233374Y1701800D02*
G01*
X11252174Y1701800D01*
X9220174Y3733794D02*
G01*
X7238974Y3733794D01*
X9220174Y2717794D02*
G01*
X7238974Y2717794D01*
X9220174Y1701800D02*
G01*
X7238974Y1701800D01*
X17246574Y3733794D02*
G01*
X15265374Y3733794D01*
X17246574Y2717794D02*
G01*
X15265374Y2717794D01*
X17246574Y1701800D02*
G01*
X15265374Y1701800D01*
X21259749Y3733794D02*
G01*
X19278549Y3733794D01*
X21259749Y2717794D02*
G01*
X19278549Y2717794D01*
X21259749Y1701800D02*
G01*
X19278549Y1701800D01*
X43357713Y3733792D02*
G01*
X42341716Y3733792D01*
X42341716Y3733792D02*
G01*
X41325718Y3733792D01*
X43357713Y2717794D02*
G01*
X42341716Y2717794D01*
X42341716Y2717794D02*
G01*
X41325718Y2717794D01*
X43357713Y1701797D02*
G01*
X42341716Y1701797D01*
X42341716Y1701797D02*
G01*
X41325718Y1701797D01*
X39344523Y3733794D02*
G01*
X38328523Y3733794D01*
X38328523Y3733794D02*
G01*
X37312523Y3733794D01*
X39344523Y2717794D02*
G01*
X38328523Y2717794D01*
X38328523Y2717794D02*
G01*
X37312523Y2717794D01*
X39344523Y1701800D02*
G01*
X38328523Y1701800D01*
X38328523Y1701800D02*
G01*
X37312523Y1701800D01*
X35331331Y3733794D02*
G01*
X34315331Y3733794D01*
X34315331Y3733794D02*
G01*
X33299331Y3733794D01*
X35331331Y2717794D02*
G01*
X34315331Y2717794D01*
X34315331Y2717794D02*
G01*
X33299331Y2717794D01*
X35331331Y1701800D02*
G01*
X34315331Y1701800D01*
X34315331Y1701800D02*
G01*
X33299331Y1701800D01*
X31318139Y3733794D02*
G01*
X30302139Y3733794D01*
X30302139Y3733794D02*
G01*
X29286139Y3733794D01*
X31318139Y2717794D02*
G01*
X30302139Y2717794D01*
X30302139Y2717794D02*
G01*
X29286139Y2717794D01*
X31318139Y1701800D02*
G01*
X30302139Y1701800D01*
X30302139Y1701800D02*
G01*
X29286139Y1701800D01*
X27304946Y3733794D02*
G01*
X26288946Y3733794D01*
X26288946Y3733794D02*
G01*
X25272946Y3733794D01*
X27304946Y2717794D02*
G01*
X26288946Y2717794D01*
X26288946Y2717794D02*
G01*
X25272946Y2717794D01*
X27304946Y1701800D02*
G01*
X26288946Y1701800D01*
X26288946Y1701800D02*
G01*
X25272946Y1701800D01*
X23291754Y3733794D02*
G01*
X22275754Y3733794D01*
X22275754Y3733794D02*
G01*
X21259754Y3733794D01*
X23291754Y2717794D02*
G01*
X22275754Y2717794D01*
X22275754Y2717794D02*
G01*
X21259754Y2717794D01*
X23291754Y1701800D02*
G01*
X22275754Y1701800D01*
X22275754Y1701800D02*
G01*
X21259754Y1701800D01*
X19278561Y3733794D02*
G01*
X18262561Y3733794D01*
X18262561Y3733794D02*
G01*
X17246561Y3733794D01*
X19278561Y2717794D02*
G01*
X18262561Y2717794D01*
X18262561Y2717794D02*
G01*
X17246561Y2717794D01*
X19278561Y1701800D02*
G01*
X18262561Y1701800D01*
X18262561Y1701800D02*
G01*
X17246561Y1701800D01*
X15265372Y3733794D02*
G01*
X14249372Y3733794D01*
X14249372Y3733794D02*
G01*
X13233372Y3733794D01*
X15265372Y2717794D02*
G01*
X14249372Y2717794D01*
X14249372Y2717794D02*
G01*
X13233372Y2717794D01*
X15265372Y1701800D02*
G01*
X14249372Y1701800D01*
X14249372Y1701800D02*
G01*
X13233372Y1701800D01*
X11252179Y3733794D02*
G01*
X10236179Y3733794D01*
X10236179Y3733794D02*
G01*
X9220179Y3733794D01*
X11252179Y2717794D02*
G01*
X10236179Y2717794D01*
X10236179Y2717794D02*
G01*
X9220179Y2717794D01*
X11252179Y1701800D02*
G01*
X10236179Y1701800D01*
X10236179Y1701800D02*
G01*
X9220179Y1701800D01*
X7238987Y3733794D02*
G01*
X6222987Y3733794D01*
X6222987Y3733794D02*
G01*
X5206987Y3733794D01*
X7238987Y2717794D02*
G01*
X6222987Y2717794D01*
X6222987Y2717794D02*
G01*
X5206987Y2717794D01*
X7238987Y1701800D02*
G01*
X6222987Y1701800D01*
X6222987Y1701800D02*
G01*
X5206987Y1701800D01*
X43357713Y7797787D02*
G01*
X42341713Y7797787D01*
X42341713Y7797787D02*
G01*
X41325713Y7797787D01*
X43357713Y6781787D02*
G01*
X42341713Y6781787D01*
X42341713Y6781787D02*
G01*
X41325713Y6781787D01*
X43357713Y5765792D02*
G01*
X42341713Y5765792D01*
X42341713Y5765792D02*
G01*
X41325713Y5765792D01*
X39344523Y7797787D02*
G01*
X38328523Y7797787D01*
X38328523Y7797787D02*
G01*
X37312523Y7797787D01*
X39344523Y6781787D02*
G01*
X38328523Y6781787D01*
X38328523Y6781787D02*
G01*
X37312523Y6781787D01*
X39344523Y5765792D02*
G01*
X38328523Y5765792D01*
X38328523Y5765792D02*
G01*
X37312523Y5765792D01*
X35331331Y7797787D02*
G01*
X34315331Y7797787D01*
X34315331Y7797787D02*
G01*
X33299331Y7797787D01*
X35331331Y6781787D02*
G01*
X34315331Y6781787D01*
X34315331Y6781787D02*
G01*
X33299331Y6781787D01*
X35331331Y5765792D02*
G01*
X34315331Y5765792D01*
X34315331Y5765792D02*
G01*
X33299331Y5765792D01*
X31318139Y7797787D02*
G01*
X30302139Y7797787D01*
X30302139Y7797787D02*
G01*
X29286139Y7797787D01*
X31318139Y6781787D02*
G01*
X30302139Y6781787D01*
X30302139Y6781787D02*
G01*
X29286139Y6781787D01*
X31318139Y5765792D02*
G01*
X30302139Y5765792D01*
X30302139Y5765792D02*
G01*
X29286139Y5765792D01*
X27304946Y7797787D02*
G01*
X26288946Y7797787D01*
X26288946Y7797787D02*
G01*
X25272946Y7797787D01*
X27304946Y6781787D02*
G01*
X26288946Y6781787D01*
X26288946Y6781787D02*
G01*
X25272946Y6781787D01*
X27304946Y5765792D02*
G01*
X26288946Y5765792D01*
X26288946Y5765792D02*
G01*
X25272946Y5765792D01*
X23291754Y7797787D02*
G01*
X22275754Y7797787D01*
X22275754Y7797787D02*
G01*
X21259754Y7797787D01*
X23291754Y6781787D02*
G01*
X22275754Y6781787D01*
X22275754Y6781787D02*
G01*
X21259754Y6781787D01*
X23291754Y5765792D02*
G01*
X22275754Y5765792D01*
X22275754Y5765792D02*
G01*
X21259754Y5765792D01*
X19278561Y7797787D02*
G01*
X18262561Y7797787D01*
X18262561Y7797787D02*
G01*
X17246561Y7797787D01*
X19278561Y6781787D02*
G01*
X18262561Y6781787D01*
X18262561Y6781787D02*
G01*
X17246561Y6781787D01*
X19278561Y5765792D02*
G01*
X18262561Y5765792D01*
X18262561Y5765792D02*
G01*
X17246561Y5765792D01*
X15265372Y7797787D02*
G01*
X14249372Y7797787D01*
X14249372Y7797787D02*
G01*
X13233372Y7797787D01*
X15265372Y6781787D02*
G01*
X14249372Y6781787D01*
X14249372Y6781787D02*
G01*
X13233372Y6781787D01*
X15265372Y5765792D02*
G01*
X14249372Y5765792D01*
X14249372Y5765792D02*
G01*
X13233372Y5765792D01*
X11252179Y7797787D02*
G01*
X10236179Y7797787D01*
X10236179Y7797787D02*
G01*
X9220179Y7797787D01*
X11252179Y6781787D02*
G01*
X10236179Y6781787D01*
X10236179Y6781787D02*
G01*
X9220179Y6781787D01*
X11252179Y5765792D02*
G01*
X10236179Y5765792D01*
X10236179Y5765792D02*
G01*
X9220179Y5765792D01*
X7238987Y7797787D02*
G01*
X6222987Y7797787D01*
X6222987Y7797787D02*
G01*
X5206987Y7797787D01*
X7238987Y6781787D02*
G01*
X6222987Y6781787D01*
X6222987Y6781787D02*
G01*
X5206987Y6781787D01*
X7238987Y5765792D02*
G01*
X6222987Y5765792D01*
X6222987Y5765792D02*
G01*
X5206987Y5765792D01*
X43357713Y11861779D02*
G01*
X42341713Y11861779D01*
X42341713Y11861779D02*
G01*
X41325713Y11861779D01*
X43357713Y10845779D02*
G01*
X42341713Y10845779D01*
X42341713Y10845779D02*
G01*
X41325713Y10845779D01*
X43357713Y9829784D02*
G01*
X42341713Y9829784D01*
X42341713Y9829784D02*
G01*
X41325713Y9829784D01*
X39344523Y11861779D02*
G01*
X38328523Y11861779D01*
X38328523Y11861779D02*
G01*
X37312523Y11861779D01*
X39344523Y10845779D02*
G01*
X38328523Y10845779D01*
X38328523Y10845779D02*
G01*
X37312523Y10845779D01*
X39344523Y9829784D02*
G01*
X38328523Y9829784D01*
X38328523Y9829784D02*
G01*
X37312523Y9829784D01*
X35331331Y11861779D02*
G01*
X34315331Y11861779D01*
X34315331Y11861779D02*
G01*
X33299331Y11861779D01*
X35331331Y10845779D02*
G01*
X34315331Y10845779D01*
X34315331Y10845779D02*
G01*
X33299331Y10845779D01*
X35331331Y9829784D02*
G01*
X34315331Y9829784D01*
X34315331Y9829784D02*
G01*
X33299331Y9829784D01*
X31318139Y11861779D02*
G01*
X30302139Y11861779D01*
X30302139Y11861779D02*
G01*
X29286139Y11861779D01*
X31318139Y10845779D02*
G01*
X30302139Y10845779D01*
X30302139Y10845779D02*
G01*
X29286139Y10845779D01*
X31318139Y9829784D02*
G01*
X30302139Y9829784D01*
X30302139Y9829784D02*
G01*
X29286139Y9829784D01*
X27304946Y11861779D02*
G01*
X26288946Y11861779D01*
X26288946Y11861779D02*
G01*
X25272946Y11861779D01*
X27304946Y10845779D02*
G01*
X26288946Y10845779D01*
X26288946Y10845779D02*
G01*
X25272946Y10845779D01*
X27304946Y9829784D02*
G01*
X26288946Y9829784D01*
X26288946Y9829784D02*
G01*
X25272946Y9829784D01*
X23291754Y11861779D02*
G01*
X22275754Y11861779D01*
X22275754Y11861779D02*
G01*
X21259754Y11861779D01*
X23291754Y10845779D02*
G01*
X22275754Y10845779D01*
X22275754Y10845779D02*
G01*
X21259754Y10845779D01*
X23291754Y9829784D02*
G01*
X22275754Y9829784D01*
X22275754Y9829784D02*
G01*
X21259754Y9829784D01*
X19278561Y11861779D02*
G01*
X18262561Y11861779D01*
X18262561Y11861779D02*
G01*
X17246561Y11861779D01*
X19278561Y10845779D02*
G01*
X18262561Y10845779D01*
X18262561Y10845779D02*
G01*
X17246561Y10845779D01*
X19278561Y9829784D02*
G01*
X18262561Y9829784D01*
X18262561Y9829784D02*
G01*
X17246561Y9829784D01*
X15265372Y11861779D02*
G01*
X14249372Y11861779D01*
X14249372Y11861779D02*
G01*
X13233372Y11861779D01*
X15265372Y10845779D02*
G01*
X14249372Y10845779D01*
X14249372Y10845779D02*
G01*
X13233372Y10845779D01*
X15265372Y9829784D02*
G01*
X14249372Y9829784D01*
X14249372Y9829784D02*
G01*
X13233372Y9829784D01*
X11252179Y11861779D02*
G01*
X10236179Y11861779D01*
X10236179Y11861779D02*
G01*
X9220179Y11861779D01*
X11252179Y10845779D02*
G01*
X10236179Y10845779D01*
X10236179Y10845779D02*
G01*
X9220179Y10845779D01*
X11252179Y9829784D02*
G01*
X10236179Y9829784D01*
X10236179Y9829784D02*
G01*
X9220179Y9829784D01*
X7238987Y11861779D02*
G01*
X6222987Y11861779D01*
X6222987Y11861779D02*
G01*
X5206987Y11861779D01*
X7238987Y10845779D02*
G01*
X6222987Y10845779D01*
X6222987Y10845779D02*
G01*
X5206987Y10845779D01*
X7238987Y9829784D02*
G01*
X6222987Y9829784D01*
X6222987Y9829784D02*
G01*
X5206987Y9829784D01*
X41325718Y1701797D02*
G01*
X39344523Y1701797D01*
X41325718Y2717794D02*
G01*
X39344523Y2717794D01*
X41325716Y3733792D02*
G01*
X39344521Y3733792D01*
X37312526Y3733792D02*
G01*
X35331331Y3733792D01*
X37312526Y2717794D02*
G01*
X35331331Y2717794D01*
X37312526Y1701797D02*
G01*
X35331331Y1701797D01*
X33299333Y3733794D02*
G01*
X31318133Y3733794D01*
X33299333Y2717794D02*
G01*
X31318133Y2717794D01*
X33299333Y1701800D02*
G01*
X31318133Y1701800D01*
X29286139Y3733794D02*
G01*
X27304939Y3733794D01*
X29286139Y2717794D02*
G01*
X27304939Y2717794D01*
X29286139Y1701800D02*
G01*
X27304939Y1701800D01*
X25272949Y3733794D02*
G01*
X23291749Y3733794D01*
X25272949Y2717794D02*
G01*
X23291749Y2717794D01*
X25272949Y1701800D02*
G01*
X23291749Y1701800D01*
D11*
G01*
X45466010Y1333494D03*
D12*
G01*
X45466000Y1587500D03*
G01*
X45466000Y1841500D03*
G01*
X45466000Y2095500D03*
G01*
X45466000Y2349500D03*
G01*
X45466000Y2603500D03*
G01*
X45466000Y2857500D03*
G01*
X45466000Y3111500D03*
D13*
G01*
X2794000Y635000D03*
G01*
X2794000Y12573000D03*
G01*
X2794000Y6604000D03*
G01*
X45466000Y635000D03*
G01*
X45466000Y6604000D03*
G01*
X45466000Y12573000D03*
G01*
X24130000Y635000D03*
G01*
X24130000Y6604000D03*
G01*
X24130000Y12573000D03*
G01*
X45466000Y3810000D03*
G01*
X45466000Y9397997D03*
G01*
X2794000Y3810000D03*
G01*
X2794000Y9398000D03*
D14*
G01*
X43357723Y1701800D03*
G01*
X43129123Y1371600D03*
G01*
X43357723Y2717800D03*
G01*
X43357723Y3733800D03*
G01*
X42341723Y3733800D03*
G01*
X42341723Y2717800D03*
G01*
X42341723Y1701800D03*
G01*
X41325723Y1701800D03*
G01*
X41325723Y2717800D03*
G01*
X41325723Y3733800D03*
G01*
X42113123Y1371600D03*
G01*
X41097123Y1371600D03*
G01*
X41097123Y2387600D03*
G01*
X42113123Y2387600D03*
G01*
X43129123Y2387600D03*
G01*
X43129123Y3403600D03*
G01*
X42113123Y3403600D03*
G01*
X41097123Y3403600D03*
G01*
X37083923Y3403600D03*
G01*
X38099923Y3403600D03*
G01*
X39115923Y3403600D03*
G01*
X39115923Y2387600D03*
G01*
X38099923Y2387600D03*
G01*
X37083923Y2387600D03*
G01*
X37083923Y1371600D03*
G01*
X38099923Y1371600D03*
G01*
X37312523Y3733800D03*
G01*
X37312523Y2717800D03*
G01*
X37312523Y1701800D03*
G01*
X38328523Y1701800D03*
G01*
X38328523Y2717800D03*
G01*
X38328523Y3733800D03*
G01*
X39344523Y3733800D03*
G01*
X39344523Y2717800D03*
G01*
X39115923Y1371600D03*
G01*
X39344523Y1701800D03*
G01*
X33070749Y3403600D03*
G01*
X34086723Y3403600D03*
G01*
X35102723Y3403600D03*
G01*
X35102723Y2387600D03*
G01*
X34086723Y2387600D03*
G01*
X33070749Y2387600D03*
G01*
X33070749Y1371600D03*
G01*
X34086723Y1371600D03*
G01*
X33299349Y3733800D03*
G01*
X33299349Y2717800D03*
G01*
X33299349Y1701800D03*
G01*
X34315323Y1701800D03*
G01*
X34315323Y2717800D03*
G01*
X34315323Y3733800D03*
G01*
X35331323Y3733800D03*
G01*
X35331323Y2717800D03*
G01*
X35102723Y1371600D03*
G01*
X35331323Y1701800D03*
G01*
X29057549Y3403600D03*
G01*
X30073549Y3403600D03*
G01*
X31089549Y3403600D03*
G01*
X31089549Y2387600D03*
G01*
X30073549Y2387600D03*
G01*
X29057549Y2387600D03*
G01*
X29057549Y1371600D03*
G01*
X30073549Y1371600D03*
G01*
X29286149Y3733800D03*
G01*
X29286149Y2717800D03*
G01*
X29286149Y1701800D03*
G01*
X30302149Y1701800D03*
G01*
X30302149Y2717800D03*
G01*
X30302149Y3733800D03*
G01*
X31318149Y3733800D03*
G01*
X31318149Y2717800D03*
G01*
X31089549Y1371600D03*
G01*
X31318149Y1701800D03*
G01*
X25044349Y3403600D03*
G01*
X26060349Y3403600D03*
G01*
X27076349Y3403600D03*
G01*
X27076349Y2387600D03*
G01*
X26060349Y2387600D03*
G01*
X25044349Y2387600D03*
G01*
X25044349Y1371600D03*
G01*
X26060349Y1371600D03*
G01*
X25272949Y3733800D03*
G01*
X25272949Y2717800D03*
G01*
X25272949Y1701800D03*
G01*
X26288949Y1701800D03*
G01*
X26288949Y2717800D03*
G01*
X26288949Y3733800D03*
G01*
X27304949Y3733800D03*
G01*
X27304949Y2717800D03*
G01*
X27076349Y1371600D03*
G01*
X27304949Y1701800D03*
G01*
X21031149Y3403600D03*
G01*
X22047149Y3403600D03*
G01*
X23063149Y3403600D03*
G01*
X23063149Y2387600D03*
G01*
X22047149Y2387600D03*
G01*
X21031149Y2387600D03*
G01*
X21031149Y1371600D03*
G01*
X22047149Y1371600D03*
G01*
X21259749Y3733800D03*
G01*
X21259749Y2717800D03*
G01*
X21259749Y1701800D03*
G01*
X22275749Y1701800D03*
G01*
X22275749Y2717800D03*
G01*
X22275749Y3733800D03*
G01*
X23291749Y3733800D03*
G01*
X23291749Y2717800D03*
G01*
X23063149Y1371600D03*
G01*
X23291749Y1701800D03*
G01*
X17017974Y3403600D03*
G01*
X18033974Y3403600D03*
G01*
X19049974Y3403600D03*
G01*
X19049974Y2387600D03*
G01*
X18033974Y2387600D03*
G01*
X17017974Y2387600D03*
G01*
X17017974Y1371600D03*
G01*
X18033974Y1371600D03*
G01*
X17246574Y3733800D03*
G01*
X17246574Y2717800D03*
G01*
X17246574Y1701800D03*
G01*
X18262574Y1701800D03*
G01*
X18262574Y2717800D03*
G01*
X18262574Y3733800D03*
G01*
X19278574Y3733800D03*
G01*
X19278574Y2717800D03*
G01*
X19049974Y1371600D03*
G01*
X19278574Y1701800D03*
G01*
X13004774Y3403600D03*
G01*
X14020774Y3403600D03*
G01*
X15036774Y3403600D03*
G01*
X15036774Y2387600D03*
G01*
X14020774Y2387600D03*
G01*
X13004774Y2387600D03*
G01*
X13004774Y1371600D03*
G01*
X14020774Y1371600D03*
G01*
X13233374Y3733800D03*
G01*
X13233374Y2717800D03*
G01*
X13233374Y1701800D03*
G01*
X14249374Y1701800D03*
G01*
X14249374Y2717800D03*
G01*
X14249374Y3733800D03*
G01*
X15265374Y3733800D03*
G01*
X15265374Y2717800D03*
G01*
X15036774Y1371600D03*
G01*
X15265374Y1701800D03*
G01*
X8991574Y3403600D03*
G01*
X10007574Y3403600D03*
G01*
X11023574Y3403600D03*
G01*
X11023574Y2387600D03*
G01*
X10007574Y2387600D03*
G01*
X8991574Y2387600D03*
G01*
X8991574Y1371600D03*
G01*
X10007574Y1371600D03*
G01*
X9220174Y3733800D03*
G01*
X9220174Y2717800D03*
G01*
X9220174Y1701800D03*
G01*
X10236174Y1701800D03*
G01*
X10236174Y2717800D03*
G01*
X10236174Y3733800D03*
G01*
X11252174Y3733800D03*
G01*
X11252174Y2717800D03*
G01*
X11023574Y1371600D03*
G01*
X11252174Y1701800D03*
G01*
X4978400Y3403600D03*
G01*
X5994400Y3403600D03*
G01*
X7010400Y3403600D03*
G01*
X7010400Y2387600D03*
G01*
X5994400Y2387600D03*
G01*
X4978400Y2387600D03*
G01*
X4978400Y1371600D03*
G01*
X5994400Y1371600D03*
G01*
X5207000Y3733800D03*
G01*
X5207000Y2717800D03*
G01*
X5207000Y1701800D03*
G01*
X6223000Y1701800D03*
G01*
X6223000Y2717800D03*
G01*
X6223000Y3733800D03*
G01*
X7239000Y3733800D03*
G01*
X7239000Y2717800D03*
G01*
X7010400Y1371600D03*
G01*
X7239000Y1701800D03*
G01*
X41097123Y7467574D03*
G01*
X42113123Y7467574D03*
G01*
X43129123Y7467574D03*
G01*
X43129123Y6451574D03*
G01*
X42113123Y6451574D03*
G01*
X41097123Y6451574D03*
G01*
X41097123Y5435600D03*
G01*
X42113123Y5435600D03*
G01*
X41325723Y7797774D03*
G01*
X41325723Y6781774D03*
G01*
X41325723Y5765800D03*
G01*
X42341723Y5765800D03*
G01*
X42341723Y6781774D03*
G01*
X42341723Y7797774D03*
G01*
X43357723Y7797774D03*
G01*
X43357723Y6781774D03*
G01*
X43129123Y5435600D03*
G01*
X43357723Y5765800D03*
G01*
X37083923Y7467574D03*
G01*
X38099923Y7467574D03*
G01*
X39115923Y7467574D03*
G01*
X39115923Y6451574D03*
G01*
X38099923Y6451574D03*
G01*
X37083923Y6451574D03*
G01*
X37083923Y5435600D03*
G01*
X38099923Y5435600D03*
G01*
X37312523Y7797774D03*
G01*
X37312523Y6781774D03*
G01*
X37312523Y5765800D03*
G01*
X38328523Y5765800D03*
G01*
X38328523Y6781774D03*
G01*
X38328523Y7797774D03*
G01*
X39344523Y7797774D03*
G01*
X39344523Y6781774D03*
G01*
X39115923Y5435600D03*
G01*
X39344523Y5765800D03*
G01*
X33070749Y7467574D03*
G01*
X34086723Y7467574D03*
G01*
X35102723Y7467574D03*
G01*
X35102723Y6451574D03*
G01*
X34086723Y6451574D03*
G01*
X33070749Y6451574D03*
G01*
X33070749Y5435600D03*
G01*
X34086723Y5435600D03*
G01*
X33299349Y7797774D03*
G01*
X33299349Y6781774D03*
G01*
X33299349Y5765800D03*
G01*
X34315323Y5765800D03*
G01*
X34315323Y6781774D03*
G01*
X34315323Y7797774D03*
G01*
X35331323Y7797774D03*
G01*
X35331323Y6781774D03*
G01*
X35102723Y5435600D03*
G01*
X35331323Y5765800D03*
G01*
X29057549Y7467574D03*
G01*
X30073549Y7467574D03*
G01*
X31089549Y7467574D03*
G01*
X31089549Y6451574D03*
G01*
X30073549Y6451574D03*
G01*
X29057549Y6451574D03*
G01*
X29057549Y5435600D03*
G01*
X30073549Y5435600D03*
G01*
X29286149Y7797774D03*
G01*
X29286149Y6781774D03*
G01*
X29286149Y5765800D03*
G01*
X30302149Y5765800D03*
G01*
X30302149Y6781774D03*
G01*
X30302149Y7797774D03*
G01*
X31318149Y7797774D03*
G01*
X31318149Y6781774D03*
G01*
X31089549Y5435600D03*
G01*
X31318149Y5765800D03*
G01*
X25044349Y7467574D03*
G01*
X26060349Y7467574D03*
G01*
X27076349Y7467574D03*
G01*
X27076349Y6451574D03*
G01*
X26060349Y6451574D03*
G01*
X25044349Y6451574D03*
G01*
X25044349Y5435600D03*
G01*
X26060349Y5435600D03*
G01*
X25272949Y7797774D03*
G01*
X25272949Y6781774D03*
G01*
X25272949Y5765800D03*
G01*
X26288949Y5765800D03*
G01*
X26288949Y6781774D03*
G01*
X26288949Y7797774D03*
G01*
X27304949Y7797774D03*
G01*
X27304949Y6781774D03*
G01*
X27076349Y5435600D03*
G01*
X27304949Y5765800D03*
G01*
X21031149Y7467574D03*
G01*
X22047149Y7467574D03*
G01*
X23063149Y7467574D03*
G01*
X23063149Y6451574D03*
G01*
X22047149Y6451574D03*
G01*
X21031149Y6451574D03*
G01*
X21031149Y5435600D03*
G01*
X22047149Y5435600D03*
G01*
X21259749Y7797774D03*
G01*
X21259749Y6781774D03*
G01*
X21259749Y5765800D03*
G01*
X22275749Y5765800D03*
G01*
X22275749Y6781774D03*
G01*
X22275749Y7797774D03*
G01*
X23291749Y7797774D03*
G01*
X23291749Y6781774D03*
G01*
X23063149Y5435600D03*
G01*
X23291749Y5765800D03*
G01*
X17017974Y7467574D03*
G01*
X18033974Y7467574D03*
G01*
X19049974Y7467574D03*
G01*
X19049974Y6451574D03*
G01*
X18033974Y6451574D03*
G01*
X17017974Y6451574D03*
G01*
X17017974Y5435600D03*
G01*
X18033974Y5435600D03*
G01*
X17246574Y7797774D03*
G01*
X17246574Y6781774D03*
G01*
X17246574Y5765800D03*
G01*
X18262574Y5765800D03*
G01*
X18262574Y6781774D03*
G01*
X18262574Y7797774D03*
G01*
X19278574Y7797774D03*
G01*
X19278574Y6781774D03*
G01*
X19049974Y5435600D03*
G01*
X19278574Y5765800D03*
G01*
X13004774Y7467574D03*
G01*
X14020774Y7467574D03*
G01*
X15036774Y7467574D03*
G01*
X15036774Y6451574D03*
G01*
X14020774Y6451574D03*
G01*
X13004774Y6451574D03*
G01*
X13004774Y5435600D03*
G01*
X14020774Y5435600D03*
G01*
X13233374Y7797774D03*
G01*
X13233374Y6781774D03*
G01*
X13233374Y5765800D03*
G01*
X14249374Y5765800D03*
G01*
X14249374Y6781774D03*
G01*
X14249374Y7797774D03*
G01*
X15265374Y7797774D03*
G01*
X15265374Y6781774D03*
G01*
X15036774Y5435600D03*
G01*
X15265374Y5765800D03*
G01*
X8991574Y7467574D03*
G01*
X10007574Y7467574D03*
G01*
X11023574Y7467574D03*
G01*
X11023574Y6451574D03*
G01*
X10007574Y6451574D03*
G01*
X8991574Y6451574D03*
G01*
X8991574Y5435600D03*
G01*
X10007574Y5435600D03*
G01*
X9220174Y7797774D03*
G01*
X9220174Y6781774D03*
G01*
X9220174Y5765800D03*
G01*
X10236174Y5765800D03*
G01*
X10236174Y6781774D03*
G01*
X10236174Y7797774D03*
G01*
X11252174Y7797774D03*
G01*
X11252174Y6781774D03*
G01*
X11023574Y5435600D03*
G01*
X11252174Y5765800D03*
G01*
X4978400Y7467574D03*
G01*
X5994400Y7467574D03*
G01*
X7010400Y7467574D03*
G01*
X7010400Y6451574D03*
G01*
X5994400Y6451574D03*
G01*
X4978400Y6451574D03*
G01*
X4978400Y5435600D03*
G01*
X5994400Y5435600D03*
G01*
X5207000Y7797774D03*
G01*
X5207000Y6781774D03*
G01*
X5207000Y5765800D03*
G01*
X6223000Y5765800D03*
G01*
X6223000Y6781774D03*
G01*
X6223000Y7797774D03*
G01*
X7239000Y7797774D03*
G01*
X7239000Y6781774D03*
G01*
X7010400Y5435600D03*
G01*
X7239000Y5765800D03*
G01*
X41097123Y11531574D03*
G01*
X42113123Y11531574D03*
G01*
X43129123Y11531574D03*
G01*
X43129123Y10515574D03*
G01*
X42113123Y10515574D03*
G01*
X41097123Y10515574D03*
G01*
X41097123Y9499574D03*
G01*
X42113123Y9499574D03*
G01*
X41325723Y11861774D03*
G01*
X41325723Y10845774D03*
G01*
X41325723Y9829774D03*
G01*
X42341723Y9829774D03*
G01*
X42341723Y10845774D03*
G01*
X42341723Y11861774D03*
G01*
X43357723Y11861774D03*
G01*
X43357723Y10845774D03*
G01*
X43129123Y9499574D03*
G01*
X43357723Y9829774D03*
G01*
X37083923Y11531574D03*
G01*
X38099923Y11531574D03*
G01*
X39115923Y11531574D03*
G01*
X39115923Y10515574D03*
G01*
X38099923Y10515574D03*
G01*
X37083923Y10515574D03*
G01*
X37083923Y9499574D03*
G01*
X38099923Y9499574D03*
G01*
X37312523Y11861774D03*
G01*
X37312523Y10845774D03*
G01*
X37312523Y9829774D03*
G01*
X38328523Y9829774D03*
G01*
X38328523Y10845774D03*
G01*
X38328523Y11861774D03*
G01*
X39344523Y11861774D03*
G01*
X39344523Y10845774D03*
G01*
X39115923Y9499574D03*
G01*
X39344523Y9829774D03*
G01*
X33070749Y11531574D03*
G01*
X34086723Y11531574D03*
G01*
X35102723Y11531574D03*
G01*
X35102723Y10515574D03*
G01*
X34086723Y10515574D03*
G01*
X33070749Y10515574D03*
G01*
X33070749Y9499574D03*
G01*
X34086723Y9499574D03*
G01*
X33299349Y11861774D03*
G01*
X33299349Y10845774D03*
G01*
X33299349Y9829774D03*
G01*
X34315323Y9829774D03*
G01*
X34315323Y10845774D03*
G01*
X34315323Y11861774D03*
G01*
X35331323Y11861774D03*
G01*
X35331323Y10845774D03*
G01*
X35102723Y9499574D03*
G01*
X35331323Y9829774D03*
G01*
X29057549Y11531574D03*
G01*
X30073549Y11531574D03*
G01*
X31089549Y11531574D03*
G01*
X31089549Y10515574D03*
G01*
X30073549Y10515574D03*
G01*
X29057549Y10515574D03*
G01*
X29057549Y9499574D03*
G01*
X30073549Y9499574D03*
G01*
X29286149Y11861774D03*
G01*
X29286149Y10845774D03*
G01*
X29286149Y9829774D03*
G01*
X30302149Y9829774D03*
G01*
X30302149Y10845774D03*
G01*
X30302149Y11861774D03*
G01*
X31318149Y11861774D03*
G01*
X31318149Y10845774D03*
G01*
X31089549Y9499574D03*
G01*
X31318149Y9829774D03*
G01*
X25044349Y11531574D03*
G01*
X26060349Y11531574D03*
G01*
X27076349Y11531574D03*
G01*
X27076349Y10515574D03*
G01*
X26060349Y10515574D03*
G01*
X25044349Y10515574D03*
G01*
X25044349Y9499574D03*
G01*
X26060349Y9499574D03*
G01*
X25272949Y11861774D03*
G01*
X25272949Y10845774D03*
G01*
X25272949Y9829774D03*
G01*
X26288949Y9829774D03*
G01*
X26288949Y10845774D03*
G01*
X26288949Y11861774D03*
G01*
X27304949Y11861774D03*
G01*
X27304949Y10845774D03*
G01*
X27076349Y9499574D03*
G01*
X27304949Y9829774D03*
G01*
X21031149Y11531574D03*
G01*
X22047149Y11531574D03*
G01*
X23063149Y11531574D03*
G01*
X23063149Y10515574D03*
G01*
X22047149Y10515574D03*
G01*
X21031149Y10515574D03*
G01*
X21031149Y9499574D03*
G01*
X22047149Y9499574D03*
G01*
X21259749Y11861774D03*
G01*
X21259749Y10845774D03*
G01*
X21259749Y9829774D03*
G01*
X22275749Y9829774D03*
G01*
X22275749Y10845774D03*
G01*
X22275749Y11861774D03*
G01*
X23291749Y11861774D03*
G01*
X23291749Y10845774D03*
G01*
X23063149Y9499574D03*
G01*
X23291749Y9829774D03*
G01*
X17017974Y11531574D03*
G01*
X18033974Y11531574D03*
G01*
X19049974Y11531574D03*
G01*
X19049974Y10515574D03*
G01*
X18033974Y10515574D03*
G01*
X17017974Y10515574D03*
G01*
X17017974Y9499574D03*
G01*
X18033974Y9499574D03*
G01*
X17246574Y11861774D03*
G01*
X17246574Y10845774D03*
G01*
X17246574Y9829774D03*
G01*
X18262574Y9829774D03*
G01*
X18262574Y10845774D03*
G01*
X18262574Y11861774D03*
G01*
X19278574Y11861774D03*
G01*
X19278574Y10845774D03*
G01*
X19049974Y9499574D03*
G01*
X19278574Y9829774D03*
G01*
X13004774Y11531574D03*
G01*
X14020774Y11531574D03*
G01*
X15036774Y11531574D03*
G01*
X15036774Y10515574D03*
G01*
X14020774Y10515574D03*
G01*
X13004774Y10515574D03*
G01*
X13004774Y9499574D03*
G01*
X14020774Y9499574D03*
G01*
X13233374Y11861774D03*
G01*
X13233374Y10845774D03*
G01*
X13233374Y9829774D03*
G01*
X14249374Y9829774D03*
G01*
X14249374Y10845774D03*
G01*
X14249374Y11861774D03*
G01*
X15265374Y11861774D03*
G01*
X15265374Y10845774D03*
G01*
X15036774Y9499574D03*
G01*
X15265374Y9829774D03*
G01*
X8991574Y11531574D03*
G01*
X10007574Y11531574D03*
G01*
X11023574Y11531574D03*
G01*
X11023574Y10515574D03*
G01*
X10007574Y10515574D03*
G01*
X8991574Y10515574D03*
G01*
X8991574Y9499574D03*
G01*
X10007574Y9499574D03*
G01*
X9220174Y11861774D03*
G01*
X9220174Y10845774D03*
G01*
X9220174Y9829774D03*
G01*
X10236174Y9829774D03*
G01*
X10236174Y10845774D03*
G01*
X10236174Y11861774D03*
G01*
X11252174Y11861774D03*
G01*
X11252174Y10845774D03*
G01*
X11023574Y9499574D03*
G01*
X11252174Y9829774D03*
G01*
X4978400Y11531574D03*
G01*
X5994400Y11531574D03*
G01*
X7010400Y11531574D03*
G01*
X7010400Y10515574D03*
G01*
X5994400Y10515574D03*
G01*
X4978400Y10515574D03*
G01*
X4978400Y9499574D03*
G01*
X5994400Y9499574D03*
G01*
X5207000Y11861774D03*
G01*
X5207000Y10845774D03*
G01*
X5207000Y9829774D03*
G01*
X6223000Y9829774D03*
G01*
X6223000Y10845774D03*
G01*
X6223000Y11861774D03*
G01*
X7239000Y11861774D03*
G01*
X7239000Y10845774D03*
G01*
X7010400Y9499574D03*
G01*
X7239000Y9829774D03*
G01*
X44780111Y11531577D03*
G01*
X44780111Y10515577D03*
G01*
X44780111Y9499577D03*
G01*
X44780111Y7467577D03*
G01*
X44780111Y6451577D03*
G01*
X44780111Y5435602D03*
G01*
X44780111Y3403602D03*
G01*
X44780111Y2387602D03*
G01*
X44780111Y1371602D03*
M02*
