G04 Layer: BottomSilkscreenLayer*
G04 EasyEDA v6.5.34, 2023-08-21 18:11:39*
G04 d20b79ac65014e9286761388955dc1b3,5a6b42c53f6a479593ecc07194224c93,10*
G04 Gerber Generator version 0.2*
G04 Scale: 100 percent, Rotated: No, Reflected: No *
G04 Dimensions in millimeters *
G04 leading zeros omitted , absolute positions ,4 integer and 5 decimal *
%FSLAX45Y45*%
%MOMM*%

%ADD10C,0.2032*%
%ADD11C,0.1520*%

%LPD*%
D10*
X46393100Y209989D02*
G01*
X46393100Y95445D01*
X46393100Y209989D02*
G01*
X46344009Y209989D01*
X46327646Y204536D01*
X46322190Y199082D01*
X46316737Y188173D01*
X46316737Y171808D01*
X46322190Y160899D01*
X46327646Y155445D01*
X46344009Y149989D01*
X46393100Y149989D01*
X46237100Y209989D02*
G01*
X46280735Y95445D01*
X46237100Y209989D02*
G01*
X46193463Y95445D01*
X46264372Y133626D02*
G01*
X46209828Y133626D01*
X46157464Y209989D02*
G01*
X46157464Y95445D01*
X46157464Y209989D02*
G01*
X46108373Y209989D01*
X46092010Y204536D01*
X46086555Y199082D01*
X46081100Y188173D01*
X46081100Y177264D01*
X46086555Y166354D01*
X46092010Y160899D01*
X46108373Y155445D01*
X46157464Y155445D01*
X46119282Y155445D02*
G01*
X46081100Y95445D01*
X46006918Y209989D02*
G01*
X46006918Y95445D01*
X46045100Y209989D02*
G01*
X45968737Y209989D01*
X45848737Y209989D02*
G01*
X45848737Y95445D01*
X45848737Y209989D02*
G01*
X45772374Y95445D01*
X45772374Y209989D02*
G01*
X45772374Y95445D01*
X45736372Y209989D02*
G01*
X45736372Y128173D01*
X45730919Y111808D01*
X45720010Y100899D01*
X45703647Y95445D01*
X45692738Y95445D01*
X45676372Y100899D01*
X45665466Y111808D01*
X45660010Y128173D01*
X45660010Y209989D01*
X45624010Y209989D02*
G01*
X45624010Y95445D01*
X45624010Y209989D02*
G01*
X45580373Y95445D01*
X45536738Y209989D02*
G01*
X45580373Y95445D01*
X45536738Y209989D02*
G01*
X45536738Y95445D01*
X45500737Y209989D02*
G01*
X45500737Y95445D01*
X45500737Y209989D02*
G01*
X45451646Y209989D01*
X45435283Y204536D01*
X45429830Y199082D01*
X45424374Y188173D01*
X45424374Y177264D01*
X45429830Y166354D01*
X45435283Y160899D01*
X45451646Y155445D01*
X45500737Y155445D02*
G01*
X45451646Y155445D01*
X45435283Y149989D01*
X45429830Y144536D01*
X45424374Y133626D01*
X45424374Y117264D01*
X45429830Y106354D01*
X45435283Y100899D01*
X45451646Y95445D01*
X45500737Y95445D01*
X45388375Y209989D02*
G01*
X45388375Y95445D01*
X45388375Y209989D02*
G01*
X45317465Y209989D01*
X45388375Y155445D02*
G01*
X45344737Y155445D01*
X45388375Y95445D02*
G01*
X45317465Y95445D01*
X45281466Y209989D02*
G01*
X45281466Y95445D01*
X45281466Y209989D02*
G01*
X45232375Y209989D01*
X45216010Y204536D01*
X45210557Y199082D01*
X45205101Y188173D01*
X45205101Y177264D01*
X45210557Y166354D01*
X45216010Y160899D01*
X45232375Y155445D01*
X45281466Y155445D01*
X45243285Y155445D02*
G01*
X45205101Y95445D01*
X45085101Y188173D02*
G01*
X45074192Y193626D01*
X45057829Y209989D01*
X45057829Y95445D01*
X44994558Y209989D02*
G01*
X45010920Y204536D01*
X45016374Y193626D01*
X45016374Y182717D01*
X45010920Y171808D01*
X45000011Y166354D01*
X44978193Y160899D01*
X44961830Y155445D01*
X44950921Y144536D01*
X44945467Y133626D01*
X44945467Y117264D01*
X44950921Y106354D01*
X44956374Y100899D01*
X44972739Y95445D01*
X44994558Y95445D01*
X45010920Y100899D01*
X45016374Y106354D01*
X45021830Y117264D01*
X45021830Y133626D01*
X45016374Y144536D01*
X45005467Y155445D01*
X44989102Y160899D01*
X44967283Y166354D01*
X44956374Y171808D01*
X44950921Y182717D01*
X44950921Y193626D01*
X44956374Y204536D01*
X44972739Y209989D01*
X44994558Y209989D01*
X44844012Y209989D02*
G01*
X44898556Y209989D01*
X44904012Y160899D01*
X44898556Y166354D01*
X44882193Y171808D01*
X44865831Y171808D01*
X44849465Y166354D01*
X44838556Y155445D01*
X44833103Y139082D01*
X44833103Y128173D01*
X44838556Y111808D01*
X44849465Y100899D01*
X44865831Y95445D01*
X44882193Y95445D01*
X44898556Y100899D01*
X44904012Y106354D01*
X44909465Y117264D01*
X44726194Y171808D02*
G01*
X44731647Y155445D01*
X44742557Y144536D01*
X44758922Y139082D01*
X44764375Y139082D01*
X44780738Y144536D01*
X44791647Y155445D01*
X44797103Y171808D01*
X44797103Y177264D01*
X44791647Y193626D01*
X44780738Y204536D01*
X44764375Y209989D01*
X44758922Y209989D01*
X44742557Y204536D01*
X44731647Y193626D01*
X44726194Y171808D01*
X44726194Y144536D01*
X44731647Y117264D01*
X44742557Y100899D01*
X44758922Y95445D01*
X44769831Y95445D01*
X44786194Y100899D01*
X44791647Y111808D01*
X44690195Y144536D02*
G01*
X44592013Y144536D01*
X44523286Y209989D02*
G01*
X44539649Y204536D01*
X44550558Y188173D01*
X44556011Y160899D01*
X44556011Y144536D01*
X44550558Y117264D01*
X44539649Y100899D01*
X44523286Y95445D01*
X44512377Y95445D01*
X44496012Y100899D01*
X44485102Y117264D01*
X44479649Y144536D01*
X44479649Y160899D01*
X44485102Y188173D01*
X44496012Y204536D01*
X44512377Y209989D01*
X44523286Y209989D01*
X44443650Y188173D02*
G01*
X44432740Y193626D01*
X44416375Y209989D01*
X44416375Y95445D01*
X44347650Y209989D02*
G01*
X44364013Y204536D01*
X44374922Y188173D01*
X44380376Y160899D01*
X44380376Y144536D01*
X44374922Y117264D01*
X44364013Y100899D01*
X44347650Y95445D01*
X44336741Y95445D01*
X44320376Y100899D01*
X44309466Y117264D01*
X44304013Y144536D01*
X44304013Y160899D01*
X44309466Y188173D01*
X44320376Y204536D01*
X44336741Y209989D01*
X44347650Y209989D01*
X44262558Y182717D02*
G01*
X44262558Y188173D01*
X44257104Y199082D01*
X44251648Y204536D01*
X44240739Y209989D01*
X44218923Y209989D01*
X44208014Y204536D01*
X44202558Y199082D01*
X44197104Y188173D01*
X44197104Y177264D01*
X44202558Y166354D01*
X44213467Y149989D01*
X44268014Y95445D01*
X44191648Y95445D01*
X44071649Y209989D02*
G01*
X44028014Y95445D01*
X43984377Y209989D02*
G01*
X44028014Y95445D01*
X43915650Y209989D02*
G01*
X43932015Y204536D01*
X43942922Y188173D01*
X43948377Y160899D01*
X43948377Y144536D01*
X43942922Y117264D01*
X43932015Y100899D01*
X43915650Y95445D01*
X43904740Y95445D01*
X43888378Y100899D01*
X43877468Y117264D01*
X43872015Y144536D01*
X43872015Y160899D01*
X43877468Y188173D01*
X43888378Y204536D01*
X43904740Y209989D01*
X43915650Y209989D01*
X43830560Y122717D02*
G01*
X43836013Y117264D01*
X43830560Y111808D01*
X43825104Y117264D01*
X43830560Y122717D01*
X43783651Y182717D02*
G01*
X43783651Y188173D01*
X43778195Y199082D01*
X43772742Y204536D01*
X43761832Y209989D01*
X43740014Y209989D01*
X43729104Y204536D01*
X43723651Y199082D01*
X43718195Y188173D01*
X43718195Y177264D01*
X43723651Y166354D01*
X43734560Y149989D01*
X43789104Y95445D01*
X43712742Y95445D01*
X46393100Y413189D02*
G01*
X46393100Y298645D01*
X46393100Y413189D02*
G01*
X46354918Y413189D01*
X46338553Y407736D01*
X46327646Y396826D01*
X46322190Y385917D01*
X46316737Y369554D01*
X46316737Y342282D01*
X46322190Y325917D01*
X46327646Y315008D01*
X46338553Y304099D01*
X46354918Y298645D01*
X46393100Y298645D01*
X46280735Y413189D02*
G01*
X46280735Y298645D01*
X46244736Y413189D02*
G01*
X46244736Y298645D01*
X46244736Y413189D02*
G01*
X46168373Y298645D01*
X46168373Y413189D02*
G01*
X46168373Y298645D01*
X46048373Y413189D02*
G01*
X46048373Y298645D01*
X46048373Y413189D02*
G01*
X45999283Y413189D01*
X45982917Y407736D01*
X45977464Y402282D01*
X45972011Y391373D01*
X45972011Y375008D01*
X45977464Y364099D01*
X45982917Y358645D01*
X45999283Y353189D01*
X46048373Y353189D01*
X45936009Y413189D02*
G01*
X45936009Y298645D01*
X45936009Y298645D02*
G01*
X45870555Y298645D01*
X45834556Y413189D02*
G01*
X45834556Y331373D01*
X45829100Y315008D01*
X45818191Y304099D01*
X45801828Y298645D01*
X45790919Y298645D01*
X45774556Y304099D01*
X45763647Y315008D01*
X45758191Y331373D01*
X45758191Y413189D01*
X45645829Y396826D02*
G01*
X45656738Y407736D01*
X45673101Y413189D01*
X45694920Y413189D01*
X45711282Y407736D01*
X45722192Y396826D01*
X45722192Y385917D01*
X45716738Y375008D01*
X45711282Y369554D01*
X45700373Y364099D01*
X45667648Y353189D01*
X45656738Y347736D01*
X45651282Y342282D01*
X45645829Y331373D01*
X45645829Y315008D01*
X45656738Y304099D01*
X45673101Y298645D01*
X45694920Y298645D01*
X45711282Y304099D01*
X45722192Y315008D01*
X45449464Y396826D02*
G01*
X45460373Y407736D01*
X45476739Y413189D01*
X45498555Y413189D01*
X45514920Y407736D01*
X45525829Y396826D01*
X45525829Y385917D01*
X45520373Y375008D01*
X45514920Y369554D01*
X45504011Y364099D01*
X45471283Y353189D01*
X45460373Y347736D01*
X45454920Y342282D01*
X45449464Y331373D01*
X45449464Y315008D01*
X45460373Y304099D01*
X45476739Y298645D01*
X45498555Y298645D01*
X45514920Y304099D01*
X45525829Y315008D01*
X45413465Y413189D02*
G01*
X45413465Y298645D01*
X45413465Y413189D02*
G01*
X45342556Y413189D01*
X45413465Y358645D02*
G01*
X45369830Y358645D01*
X45413465Y298645D02*
G01*
X45342556Y298645D01*
X45306556Y413189D02*
G01*
X45306556Y298645D01*
X45306556Y298645D02*
G01*
X45241103Y298645D01*
X45121103Y413189D02*
G01*
X45121103Y298645D01*
X45121103Y413189D02*
G01*
X45050194Y413189D01*
X45121103Y358645D02*
G01*
X45077466Y358645D01*
X45014192Y413189D02*
G01*
X45014192Y298645D01*
X45014192Y413189D02*
G01*
X44965101Y413189D01*
X44948739Y407736D01*
X44943285Y402282D01*
X44937829Y391373D01*
X44937829Y380464D01*
X44943285Y369554D01*
X44948739Y364099D01*
X44965101Y358645D01*
X45014192Y358645D01*
X44976011Y358645D02*
G01*
X44937829Y298645D01*
X44869102Y413189D02*
G01*
X44880011Y407736D01*
X44890921Y396826D01*
X44896374Y385917D01*
X44901830Y369554D01*
X44901830Y342282D01*
X44896374Y325917D01*
X44890921Y315008D01*
X44880011Y304099D01*
X44869102Y298645D01*
X44847283Y298645D01*
X44836374Y304099D01*
X44825467Y315008D01*
X44820011Y325917D01*
X44814558Y342282D01*
X44814558Y369554D01*
X44820011Y385917D01*
X44825467Y396826D01*
X44836374Y407736D01*
X44847283Y413189D01*
X44869102Y413189D01*
X44778556Y413189D02*
G01*
X44778556Y298645D01*
X44778556Y413189D02*
G01*
X44702194Y298645D01*
X44702194Y413189D02*
G01*
X44702194Y298645D01*
X44628013Y413189D02*
G01*
X44628013Y298645D01*
X44666194Y413189D02*
G01*
X44589832Y413189D01*
X44469832Y413189D02*
G01*
X44469832Y298645D01*
X44469832Y413189D02*
G01*
X44420739Y413189D01*
X44404376Y407736D01*
X44398923Y402282D01*
X44393467Y391373D01*
X44393467Y375008D01*
X44398923Y364099D01*
X44404376Y358645D01*
X44420739Y353189D01*
X44469832Y353189D01*
X44313830Y413189D02*
G01*
X44357467Y298645D01*
X44313830Y413189D02*
G01*
X44270195Y298645D01*
X44341105Y336826D02*
G01*
X44286558Y336826D01*
X44234193Y413189D02*
G01*
X44234193Y298645D01*
X44234193Y413189D02*
G01*
X44157831Y298645D01*
X44157831Y413189D02*
G01*
X44157831Y298645D01*
X44121832Y413189D02*
G01*
X44121832Y298645D01*
X44121832Y413189D02*
G01*
X44050922Y413189D01*
X44121832Y358645D02*
G01*
X44078194Y358645D01*
X44121832Y298645D02*
G01*
X44050922Y298645D01*
X44014923Y413189D02*
G01*
X44014923Y298645D01*
X44014923Y298645D02*
G01*
X43949467Y298645D01*
D11*
X47979451Y204251D02*
G01*
X47979451Y121124D01*
X47984648Y105537D01*
X47989843Y100342D01*
X48000234Y95148D01*
X48010625Y95148D01*
X48021016Y100342D01*
X48026213Y105537D01*
X48031407Y121124D01*
X48031407Y131516D01*
X47945161Y204251D02*
G01*
X47945161Y95148D01*
X47945161Y95148D02*
G01*
X47882817Y95148D01*
X47770595Y178274D02*
G01*
X47775792Y188666D01*
X47786183Y199057D01*
X47796571Y204251D01*
X47817354Y204251D01*
X47827745Y199057D01*
X47838136Y188666D01*
X47843333Y178274D01*
X47848527Y162687D01*
X47848527Y136710D01*
X47843333Y121124D01*
X47838136Y110733D01*
X47827745Y100342D01*
X47817354Y95148D01*
X47796571Y95148D01*
X47786183Y100342D01*
X47775792Y110733D01*
X47770595Y121124D01*
X47684352Y204251D02*
G01*
X47684352Y121124D01*
X47689546Y105537D01*
X47694743Y100342D01*
X47705131Y95148D01*
X47715523Y95148D01*
X47725914Y100342D01*
X47731111Y105537D01*
X47736305Y121124D01*
X47736305Y131516D01*
X47650062Y204251D02*
G01*
X47650062Y95148D01*
X47650062Y95148D02*
G01*
X47587715Y95148D01*
X47475493Y178274D02*
G01*
X47480689Y188666D01*
X47491081Y199057D01*
X47501472Y204251D01*
X47522251Y204251D01*
X47532643Y199057D01*
X47543034Y188666D01*
X47548231Y178274D01*
X47553425Y162687D01*
X47553425Y136710D01*
X47548231Y121124D01*
X47543034Y110733D01*
X47532643Y100342D01*
X47522251Y95148D01*
X47501472Y95148D01*
X47491081Y100342D01*
X47480689Y110733D01*
X47475493Y121124D01*
X47389249Y204251D02*
G01*
X47389249Y121124D01*
X47394444Y105537D01*
X47399641Y100342D01*
X47410032Y95148D01*
X47420423Y95148D01*
X47430811Y100342D01*
X47436008Y105537D01*
X47441203Y121124D01*
X47441203Y131516D01*
X47354959Y204251D02*
G01*
X47354959Y95148D01*
X47354959Y95148D02*
G01*
X47292613Y95148D01*
X47180393Y178274D02*
G01*
X47185587Y188666D01*
X47195978Y199057D01*
X47206369Y204251D01*
X47227152Y204251D01*
X47237543Y199057D01*
X47247931Y188666D01*
X47253128Y178274D01*
X47258323Y162687D01*
X47258323Y136710D01*
X47253128Y121124D01*
X47247931Y110733D01*
X47237543Y100342D01*
X47227152Y95148D01*
X47206369Y95148D01*
X47195978Y100342D01*
X47185587Y110733D01*
X47180393Y121124D01*
X47094147Y204251D02*
G01*
X47094147Y121124D01*
X47099341Y105537D01*
X47104538Y100342D01*
X47114929Y95148D01*
X47125321Y95148D01*
X47135712Y100342D01*
X47140906Y105537D01*
X47146103Y121124D01*
X47146103Y131516D01*
X47059857Y204251D02*
G01*
X47059857Y95148D01*
X47059857Y95148D02*
G01*
X46997513Y95148D01*
X46885291Y178274D02*
G01*
X46890485Y188666D01*
X46900876Y199057D01*
X46911267Y204251D01*
X46932049Y204251D01*
X46942441Y199057D01*
X46952832Y188666D01*
X46958026Y178274D01*
X46963223Y162687D01*
X46963223Y136710D01*
X46958026Y121124D01*
X46952832Y110733D01*
X46942441Y100342D01*
X46932049Y95148D01*
X46911267Y95148D01*
X46900876Y100342D01*
X46890485Y110733D01*
X46885291Y121124D01*
M02*
