G04 Layer: BottomSolderMaskLayer*
G04 EasyEDA v6.5.34, 2023-08-21 18:11:39*
G04 69f12b32e1f2471e8f8ee6d1f76a66ce,5a6b42c53f6a479593ecc07194224c93,10*
G04 Gerber Generator version 0.2*
G04 Scale: 100 percent, Rotated: No, Reflected: No *
G04 Dimensions in millimeters *
G04 leading zeros omitted , absolute positions ,4 integer and 5 decimal *
%FSLAX45Y45*%
%MOMM*%

%ADD10C,0.0001*%

%LPD*%
G36*
X39428674Y8117941D02*
G01*
X39419479Y8117331D01*
X39410386Y8115909D01*
X39401394Y8113674D01*
X39397025Y8112302D01*
X39388440Y8108899D01*
X39380160Y8104784D01*
X39372336Y8099907D01*
X39364920Y8094421D01*
X39358062Y8088274D01*
X39351762Y8081518D01*
X39346073Y8074253D01*
X39341044Y8066481D01*
X39336726Y8058353D01*
X39333170Y8049869D01*
X39331646Y8045500D01*
X39329258Y8036559D01*
X39327632Y8027517D01*
X39326820Y8018322D01*
X39326820Y8009077D01*
X39327632Y7999882D01*
X39329258Y7990840D01*
X39331646Y7981899D01*
X39334846Y7973263D01*
X39338808Y7964931D01*
X39343482Y7956956D01*
X39348867Y7949438D01*
X39354861Y7942427D01*
X39361414Y7935975D01*
X39368577Y7930134D01*
X39376197Y7924952D01*
X39384274Y7920481D01*
X39392707Y7916722D01*
X39397025Y7915097D01*
X39405864Y7912506D01*
X39414907Y7910677D01*
X39424051Y7909661D01*
X39433296Y7909458D01*
X39442491Y7910068D01*
X39451635Y7911490D01*
X39460576Y7913725D01*
X39469314Y7916722D01*
X39477696Y7920481D01*
X39485773Y7924952D01*
X39493393Y7930134D01*
X39500556Y7935975D01*
X39507109Y7942427D01*
X39513154Y7949438D01*
X39518488Y7956956D01*
X39523162Y7964931D01*
X39527124Y7973263D01*
X39530324Y7981899D01*
X39532712Y7990840D01*
X39534338Y7999882D01*
X39535150Y8009077D01*
X39535150Y8018322D01*
X39534338Y8027517D01*
X39532712Y8036559D01*
X39530324Y8045500D01*
X39527124Y8054136D01*
X39523162Y8062468D01*
X39518488Y8070443D01*
X39513154Y8077962D01*
X39507109Y8084972D01*
X39500556Y8091424D01*
X39493393Y8097266D01*
X39485773Y8102447D01*
X39477696Y8106918D01*
X39469314Y8110677D01*
X39460576Y8113674D01*
X39451635Y8115909D01*
X39442491Y8117331D01*
X39433296Y8117941D01*
G37*
G36*
X37706401Y5679541D02*
G01*
X37697156Y5678932D01*
X37688062Y5677509D01*
X37679122Y5675274D01*
X37674702Y5673902D01*
X37666117Y5670499D01*
X37657887Y5666384D01*
X37650013Y5661507D01*
X37642647Y5656021D01*
X37635789Y5649874D01*
X37629490Y5643118D01*
X37623800Y5635853D01*
X37618771Y5628081D01*
X37614453Y5619953D01*
X37610897Y5611469D01*
X37608052Y5602681D01*
X37606020Y5593638D01*
X37604801Y5584494D01*
X37604395Y5575300D01*
X37604801Y5566105D01*
X37606020Y5556961D01*
X37608052Y5547918D01*
X37610897Y5539130D01*
X37614453Y5530646D01*
X37618771Y5522518D01*
X37623800Y5514746D01*
X37629490Y5507482D01*
X37635789Y5500725D01*
X37642647Y5494578D01*
X37650013Y5489092D01*
X37657887Y5484215D01*
X37666117Y5480100D01*
X37674702Y5476697D01*
X37683541Y5474106D01*
X37692584Y5472277D01*
X37701778Y5471261D01*
X37710973Y5471058D01*
X37720219Y5471668D01*
X37729312Y5473090D01*
X37738253Y5475325D01*
X37742672Y5476697D01*
X37751258Y5480100D01*
X37759487Y5484215D01*
X37767361Y5489092D01*
X37774727Y5494578D01*
X37781585Y5500725D01*
X37787935Y5507482D01*
X37793574Y5514746D01*
X37798603Y5522518D01*
X37802921Y5530646D01*
X37806528Y5539130D01*
X37809322Y5547918D01*
X37811354Y5556961D01*
X37812573Y5566105D01*
X37812980Y5575300D01*
X37812573Y5584494D01*
X37811354Y5593638D01*
X37809322Y5602681D01*
X37806528Y5611469D01*
X37802921Y5619953D01*
X37798603Y5628081D01*
X37793574Y5635853D01*
X37787935Y5643118D01*
X37781585Y5649874D01*
X37774727Y5656021D01*
X37767361Y5661507D01*
X37759487Y5666384D01*
X37751258Y5670499D01*
X37742672Y5673902D01*
X37733833Y5676493D01*
X37724791Y5678322D01*
X37715596Y5679338D01*
G37*
G36*
X37706401Y6619341D02*
G01*
X37697156Y6618731D01*
X37688062Y6617309D01*
X37679122Y6615074D01*
X37674702Y6613702D01*
X37666117Y6610299D01*
X37657887Y6606184D01*
X37650013Y6601307D01*
X37642647Y6595821D01*
X37635789Y6589674D01*
X37629490Y6582918D01*
X37623800Y6575653D01*
X37618771Y6567881D01*
X37614453Y6559753D01*
X37610897Y6551269D01*
X37608052Y6542481D01*
X37606020Y6533438D01*
X37604801Y6524294D01*
X37604395Y6515100D01*
X37604801Y6505905D01*
X37606020Y6496761D01*
X37608052Y6487718D01*
X37610897Y6478930D01*
X37614453Y6470446D01*
X37618771Y6462318D01*
X37623800Y6454546D01*
X37629490Y6447282D01*
X37635789Y6440525D01*
X37642647Y6434378D01*
X37650013Y6428892D01*
X37657887Y6424015D01*
X37666117Y6419900D01*
X37674702Y6416497D01*
X37683541Y6413906D01*
X37692584Y6412077D01*
X37701778Y6411061D01*
X37710973Y6410858D01*
X37720219Y6411468D01*
X37729312Y6412890D01*
X37738253Y6415125D01*
X37742672Y6416497D01*
X37751258Y6419900D01*
X37759487Y6424015D01*
X37767361Y6428892D01*
X37774727Y6434378D01*
X37781585Y6440525D01*
X37787935Y6447282D01*
X37793574Y6454546D01*
X37798603Y6462318D01*
X37802921Y6470446D01*
X37806528Y6478930D01*
X37809322Y6487718D01*
X37811354Y6496761D01*
X37812573Y6505905D01*
X37812980Y6515100D01*
X37812573Y6524294D01*
X37811354Y6533438D01*
X37809322Y6542481D01*
X37806528Y6551269D01*
X37802921Y6559753D01*
X37798603Y6567881D01*
X37793574Y6575653D01*
X37787935Y6582918D01*
X37781585Y6589674D01*
X37774727Y6595821D01*
X37767361Y6601307D01*
X37759487Y6606184D01*
X37751258Y6610299D01*
X37742672Y6613702D01*
X37733833Y6616293D01*
X37724791Y6618122D01*
X37715596Y6619138D01*
G37*
G36*
X37706401Y7533741D02*
G01*
X37697156Y7533131D01*
X37688062Y7531709D01*
X37679122Y7529474D01*
X37674702Y7528102D01*
X37666117Y7524699D01*
X37657887Y7520584D01*
X37650013Y7515707D01*
X37642647Y7510221D01*
X37635789Y7504074D01*
X37629490Y7497318D01*
X37623800Y7490053D01*
X37618771Y7482281D01*
X37614453Y7474153D01*
X37610897Y7465669D01*
X37608052Y7456881D01*
X37606020Y7447838D01*
X37604801Y7438694D01*
X37604395Y7429500D01*
X37604801Y7420305D01*
X37606020Y7411161D01*
X37608052Y7402118D01*
X37610897Y7393330D01*
X37614453Y7384846D01*
X37618771Y7376718D01*
X37623800Y7368946D01*
X37629490Y7361681D01*
X37635789Y7354925D01*
X37642647Y7348778D01*
X37650013Y7343292D01*
X37657887Y7338415D01*
X37666117Y7334300D01*
X37674702Y7330897D01*
X37683541Y7328306D01*
X37692584Y7326477D01*
X37701778Y7325461D01*
X37710973Y7325258D01*
X37720219Y7325868D01*
X37729312Y7327290D01*
X37738253Y7329525D01*
X37742672Y7330897D01*
X37751258Y7334300D01*
X37759487Y7338415D01*
X37767361Y7343292D01*
X37774727Y7348778D01*
X37781585Y7354925D01*
X37787935Y7361681D01*
X37793574Y7368946D01*
X37798603Y7376718D01*
X37802921Y7384846D01*
X37806528Y7393330D01*
X37809322Y7402118D01*
X37811354Y7411161D01*
X37812573Y7420305D01*
X37812980Y7429500D01*
X37812573Y7438694D01*
X37811354Y7447838D01*
X37809322Y7456881D01*
X37806528Y7465669D01*
X37802921Y7474153D01*
X37798603Y7482281D01*
X37793574Y7490053D01*
X37787935Y7497318D01*
X37781585Y7504074D01*
X37774727Y7510221D01*
X37767361Y7515707D01*
X37759487Y7520584D01*
X37751258Y7524699D01*
X37742672Y7528102D01*
X37733833Y7530693D01*
X37724791Y7532522D01*
X37715596Y7533538D01*
G37*
G36*
X38366801Y5679541D02*
G01*
X38357556Y5678932D01*
X38348462Y5677509D01*
X38339522Y5675274D01*
X38335102Y5673902D01*
X38326517Y5670499D01*
X38318287Y5666384D01*
X38310413Y5661507D01*
X38303047Y5656021D01*
X38296189Y5649874D01*
X38289890Y5643118D01*
X38284200Y5635853D01*
X38279171Y5628081D01*
X38274853Y5619953D01*
X38271297Y5611469D01*
X38268452Y5602681D01*
X38266420Y5593638D01*
X38265201Y5584494D01*
X38264795Y5575300D01*
X38265201Y5566105D01*
X38266420Y5556961D01*
X38268452Y5547918D01*
X38271297Y5539130D01*
X38274853Y5530646D01*
X38279171Y5522518D01*
X38284200Y5514746D01*
X38289890Y5507482D01*
X38296189Y5500725D01*
X38303047Y5494578D01*
X38310413Y5489092D01*
X38318287Y5484215D01*
X38326517Y5480100D01*
X38335102Y5476697D01*
X38343941Y5474106D01*
X38352984Y5472277D01*
X38362178Y5471261D01*
X38371373Y5471058D01*
X38380619Y5471668D01*
X38389712Y5473090D01*
X38398653Y5475325D01*
X38403072Y5476697D01*
X38411658Y5480100D01*
X38419887Y5484215D01*
X38427761Y5489092D01*
X38435127Y5494578D01*
X38441985Y5500725D01*
X38448335Y5507482D01*
X38453974Y5514746D01*
X38459003Y5522518D01*
X38463321Y5530646D01*
X38466928Y5539130D01*
X38469722Y5547918D01*
X38471754Y5556961D01*
X38472973Y5566105D01*
X38473380Y5575300D01*
X38472973Y5584494D01*
X38471754Y5593638D01*
X38469722Y5602681D01*
X38466928Y5611469D01*
X38463321Y5619953D01*
X38459003Y5628081D01*
X38453974Y5635853D01*
X38448335Y5643118D01*
X38441985Y5649874D01*
X38435127Y5656021D01*
X38427761Y5661507D01*
X38419887Y5666384D01*
X38411658Y5670499D01*
X38403072Y5673902D01*
X38394233Y5676493D01*
X38385191Y5678322D01*
X38375996Y5679338D01*
G37*
G36*
X38366801Y6619341D02*
G01*
X38357556Y6618731D01*
X38348462Y6617309D01*
X38339522Y6615074D01*
X38335102Y6613702D01*
X38326517Y6610299D01*
X38318287Y6606184D01*
X38310413Y6601307D01*
X38303047Y6595821D01*
X38296189Y6589674D01*
X38289890Y6582918D01*
X38284200Y6575653D01*
X38279171Y6567881D01*
X38274853Y6559753D01*
X38271297Y6551269D01*
X38268452Y6542481D01*
X38266420Y6533438D01*
X38265201Y6524294D01*
X38264795Y6515100D01*
X38265201Y6505905D01*
X38266420Y6496761D01*
X38268452Y6487718D01*
X38271297Y6478930D01*
X38274853Y6470446D01*
X38279171Y6462318D01*
X38284200Y6454546D01*
X38289890Y6447282D01*
X38296189Y6440525D01*
X38303047Y6434378D01*
X38310413Y6428892D01*
X38318287Y6424015D01*
X38326517Y6419900D01*
X38335102Y6416497D01*
X38343941Y6413906D01*
X38352984Y6412077D01*
X38362178Y6411061D01*
X38371373Y6410858D01*
X38380619Y6411468D01*
X38389712Y6412890D01*
X38398653Y6415125D01*
X38403072Y6416497D01*
X38411658Y6419900D01*
X38419887Y6424015D01*
X38427761Y6428892D01*
X38435127Y6434378D01*
X38441985Y6440525D01*
X38448335Y6447282D01*
X38453974Y6454546D01*
X38459003Y6462318D01*
X38463321Y6470446D01*
X38466928Y6478930D01*
X38469722Y6487718D01*
X38471754Y6496761D01*
X38472973Y6505905D01*
X38473380Y6515100D01*
X38472973Y6524294D01*
X38471754Y6533438D01*
X38469722Y6542481D01*
X38466928Y6551269D01*
X38463321Y6559753D01*
X38459003Y6567881D01*
X38453974Y6575653D01*
X38448335Y6582918D01*
X38441985Y6589674D01*
X38435127Y6595821D01*
X38427761Y6601307D01*
X38419887Y6606184D01*
X38411658Y6610299D01*
X38403072Y6613702D01*
X38394233Y6616293D01*
X38385191Y6618122D01*
X38375996Y6619138D01*
G37*
G36*
X38366801Y7533741D02*
G01*
X38357556Y7533131D01*
X38348462Y7531709D01*
X38339522Y7529474D01*
X38335102Y7528102D01*
X38326517Y7524699D01*
X38318287Y7520584D01*
X38310413Y7515707D01*
X38303047Y7510221D01*
X38296189Y7504074D01*
X38289890Y7497318D01*
X38284200Y7490053D01*
X38279171Y7482281D01*
X38274853Y7474153D01*
X38271297Y7465669D01*
X38268452Y7456881D01*
X38266420Y7447838D01*
X38265201Y7438694D01*
X38264795Y7429500D01*
X38265201Y7420305D01*
X38266420Y7411161D01*
X38268452Y7402118D01*
X38271297Y7393330D01*
X38274853Y7384846D01*
X38279171Y7376718D01*
X38284200Y7368946D01*
X38289890Y7361681D01*
X38296189Y7354925D01*
X38303047Y7348778D01*
X38310413Y7343292D01*
X38318287Y7338415D01*
X38326517Y7334300D01*
X38335102Y7330897D01*
X38343941Y7328306D01*
X38352984Y7326477D01*
X38362178Y7325461D01*
X38371373Y7325258D01*
X38380619Y7325868D01*
X38389712Y7327290D01*
X38398653Y7329525D01*
X38403072Y7330897D01*
X38411658Y7334300D01*
X38419887Y7338415D01*
X38427761Y7343292D01*
X38435127Y7348778D01*
X38441985Y7354925D01*
X38448335Y7361681D01*
X38453974Y7368946D01*
X38459003Y7376718D01*
X38463321Y7384846D01*
X38466928Y7393330D01*
X38469722Y7402118D01*
X38471754Y7411161D01*
X38472973Y7420305D01*
X38473380Y7429500D01*
X38472973Y7438694D01*
X38471754Y7447838D01*
X38469722Y7456881D01*
X38466928Y7465669D01*
X38463321Y7474153D01*
X38459003Y7482281D01*
X38453974Y7490053D01*
X38448335Y7497318D01*
X38441985Y7504074D01*
X38435127Y7510221D01*
X38427761Y7515707D01*
X38419887Y7520584D01*
X38411658Y7524699D01*
X38403072Y7528102D01*
X38394233Y7530693D01*
X38385191Y7532522D01*
X38375996Y7533538D01*
G37*
G36*
X24127206Y6505041D02*
G01*
X24117960Y6504431D01*
X24108867Y6503009D01*
X24099926Y6500774D01*
X24095506Y6499402D01*
X24086921Y6495999D01*
X24078692Y6491884D01*
X24070818Y6487007D01*
X24063452Y6481521D01*
X24056594Y6475374D01*
X24050294Y6468618D01*
X24044605Y6461353D01*
X24039576Y6453581D01*
X24035258Y6445453D01*
X24031702Y6436969D01*
X24028857Y6428181D01*
X24026825Y6419138D01*
X24025606Y6409994D01*
X24025199Y6400800D01*
X24025606Y6391605D01*
X24026825Y6382461D01*
X24028857Y6373418D01*
X24031702Y6364630D01*
X24035258Y6356146D01*
X24039576Y6348018D01*
X24044605Y6340246D01*
X24050294Y6332982D01*
X24056594Y6326225D01*
X24063452Y6320078D01*
X24070818Y6314592D01*
X24078692Y6309715D01*
X24086921Y6305600D01*
X24095506Y6302197D01*
X24104346Y6299606D01*
X24113388Y6297777D01*
X24122583Y6296761D01*
X24131778Y6296558D01*
X24141023Y6297168D01*
X24150116Y6298590D01*
X24159057Y6300825D01*
X24163477Y6302197D01*
X24172062Y6305600D01*
X24180292Y6309715D01*
X24188166Y6314592D01*
X24195532Y6320078D01*
X24202390Y6326225D01*
X24208740Y6332982D01*
X24214378Y6340246D01*
X24219408Y6348018D01*
X24223726Y6356146D01*
X24227332Y6364630D01*
X24230126Y6373418D01*
X24232158Y6382461D01*
X24233378Y6391605D01*
X24233784Y6400800D01*
X24233378Y6409994D01*
X24232158Y6419138D01*
X24230126Y6428181D01*
X24227332Y6436969D01*
X24223726Y6445453D01*
X24219408Y6453581D01*
X24214378Y6461353D01*
X24208740Y6468618D01*
X24202390Y6475374D01*
X24195532Y6481521D01*
X24188166Y6487007D01*
X24180292Y6491884D01*
X24172062Y6495999D01*
X24163477Y6499402D01*
X24154638Y6501993D01*
X24145595Y6503822D01*
X24136400Y6504838D01*
G37*
G36*
X24127206Y7432141D02*
G01*
X24117960Y7431531D01*
X24108867Y7430109D01*
X24099926Y7427874D01*
X24095506Y7426502D01*
X24086921Y7423099D01*
X24078692Y7418984D01*
X24070818Y7414107D01*
X24063452Y7408621D01*
X24056594Y7402474D01*
X24050294Y7395718D01*
X24044605Y7388453D01*
X24039576Y7380681D01*
X24035258Y7372553D01*
X24031702Y7364069D01*
X24028857Y7355281D01*
X24026825Y7346238D01*
X24025606Y7337094D01*
X24025199Y7327900D01*
X24025606Y7318705D01*
X24026825Y7309561D01*
X24028857Y7300518D01*
X24031702Y7291730D01*
X24035258Y7283246D01*
X24039576Y7275118D01*
X24044605Y7267346D01*
X24050294Y7260081D01*
X24056594Y7253325D01*
X24063452Y7247178D01*
X24070818Y7241692D01*
X24078692Y7236815D01*
X24086921Y7232700D01*
X24095506Y7229297D01*
X24104346Y7226706D01*
X24113388Y7224877D01*
X24122583Y7223861D01*
X24131778Y7223658D01*
X24141023Y7224268D01*
X24150116Y7225690D01*
X24159057Y7227925D01*
X24163477Y7229297D01*
X24172062Y7232700D01*
X24180292Y7236815D01*
X24188166Y7241692D01*
X24195532Y7247178D01*
X24202390Y7253325D01*
X24208740Y7260081D01*
X24214378Y7267346D01*
X24219408Y7275118D01*
X24223726Y7283246D01*
X24227332Y7291730D01*
X24230126Y7300518D01*
X24232158Y7309561D01*
X24233378Y7318705D01*
X24233784Y7327900D01*
X24233378Y7337094D01*
X24232158Y7346238D01*
X24230126Y7355281D01*
X24227332Y7364069D01*
X24223726Y7372553D01*
X24219408Y7380681D01*
X24214378Y7388453D01*
X24208740Y7395718D01*
X24202390Y7402474D01*
X24195532Y7408621D01*
X24188166Y7414107D01*
X24180292Y7418984D01*
X24172062Y7423099D01*
X24163477Y7426502D01*
X24154638Y7429093D01*
X24145595Y7430922D01*
X24136400Y7431938D01*
G37*
G36*
X24127206Y5577941D02*
G01*
X24117960Y5577332D01*
X24108867Y5575909D01*
X24099926Y5573674D01*
X24095506Y5572302D01*
X24086921Y5568899D01*
X24078692Y5564784D01*
X24070818Y5559907D01*
X24063452Y5554421D01*
X24056594Y5548274D01*
X24050294Y5541518D01*
X24044605Y5534253D01*
X24039576Y5526481D01*
X24035258Y5518353D01*
X24031702Y5509869D01*
X24028857Y5501081D01*
X24026825Y5492038D01*
X24025606Y5482894D01*
X24025199Y5473700D01*
X24025606Y5464505D01*
X24026825Y5455361D01*
X24028857Y5446318D01*
X24031702Y5437530D01*
X24035258Y5429046D01*
X24039576Y5420918D01*
X24044605Y5413146D01*
X24050294Y5405882D01*
X24056594Y5399125D01*
X24063452Y5392978D01*
X24070818Y5387492D01*
X24078692Y5382615D01*
X24086921Y5378500D01*
X24095506Y5375097D01*
X24104346Y5372506D01*
X24113388Y5370677D01*
X24122583Y5369661D01*
X24131778Y5369458D01*
X24141023Y5370068D01*
X24150116Y5371490D01*
X24159057Y5373725D01*
X24163477Y5375097D01*
X24172062Y5378500D01*
X24180292Y5382615D01*
X24188166Y5387492D01*
X24195532Y5392978D01*
X24202390Y5399125D01*
X24208740Y5405882D01*
X24214378Y5413146D01*
X24219408Y5420918D01*
X24223726Y5429046D01*
X24227332Y5437530D01*
X24230126Y5446318D01*
X24232158Y5455361D01*
X24233378Y5464505D01*
X24233784Y5473700D01*
X24233378Y5482894D01*
X24232158Y5492038D01*
X24230126Y5501081D01*
X24227332Y5509869D01*
X24223726Y5518353D01*
X24219408Y5526481D01*
X24214378Y5534253D01*
X24208740Y5541518D01*
X24202390Y5548274D01*
X24195532Y5554421D01*
X24188166Y5559907D01*
X24180292Y5564784D01*
X24172062Y5568899D01*
X24163477Y5572302D01*
X24154638Y5574893D01*
X24145595Y5576722D01*
X24136400Y5577738D01*
G37*
G36*
X39499997Y6505041D02*
G01*
X39490751Y6504431D01*
X39481658Y6503009D01*
X39472717Y6500774D01*
X39468298Y6499402D01*
X39459712Y6495999D01*
X39451483Y6491884D01*
X39443609Y6487007D01*
X39436243Y6481521D01*
X39429385Y6475374D01*
X39423086Y6468618D01*
X39417396Y6461353D01*
X39412367Y6453581D01*
X39408049Y6445453D01*
X39404493Y6436969D01*
X39401648Y6428181D01*
X39399616Y6419138D01*
X39398397Y6409994D01*
X39397990Y6400800D01*
X39398397Y6391605D01*
X39399616Y6382461D01*
X39401648Y6373418D01*
X39404493Y6364630D01*
X39408049Y6356146D01*
X39412367Y6348018D01*
X39417396Y6340246D01*
X39423086Y6332982D01*
X39429385Y6326225D01*
X39436243Y6320078D01*
X39443609Y6314592D01*
X39451483Y6309715D01*
X39459712Y6305600D01*
X39468298Y6302197D01*
X39477137Y6299606D01*
X39486179Y6297777D01*
X39495374Y6296761D01*
X39504569Y6296558D01*
X39513814Y6297168D01*
X39522908Y6298590D01*
X39531848Y6300825D01*
X39536268Y6302197D01*
X39544853Y6305600D01*
X39553083Y6309715D01*
X39560957Y6314592D01*
X39568323Y6320078D01*
X39575181Y6326225D01*
X39581531Y6332982D01*
X39587170Y6340246D01*
X39592199Y6348018D01*
X39596517Y6356146D01*
X39600124Y6364630D01*
X39602918Y6373418D01*
X39604950Y6382461D01*
X39606169Y6391605D01*
X39606575Y6400800D01*
X39606169Y6409994D01*
X39604950Y6419138D01*
X39602918Y6428181D01*
X39600124Y6436969D01*
X39596517Y6445453D01*
X39592199Y6453581D01*
X39587170Y6461353D01*
X39581531Y6468618D01*
X39575181Y6475374D01*
X39568323Y6481521D01*
X39560957Y6487007D01*
X39553083Y6491884D01*
X39544853Y6495999D01*
X39536268Y6499402D01*
X39527429Y6501993D01*
X39518386Y6503822D01*
X39509192Y6504838D01*
G37*
G36*
X39499997Y7432141D02*
G01*
X39490751Y7431531D01*
X39481658Y7430109D01*
X39472717Y7427874D01*
X39468298Y7426502D01*
X39459712Y7423099D01*
X39451483Y7418984D01*
X39443609Y7414107D01*
X39436243Y7408621D01*
X39429385Y7402474D01*
X39423086Y7395718D01*
X39417396Y7388453D01*
X39412367Y7380681D01*
X39408049Y7372553D01*
X39404493Y7364069D01*
X39401648Y7355281D01*
X39399616Y7346238D01*
X39398397Y7337094D01*
X39397990Y7327900D01*
X39398397Y7318705D01*
X39399616Y7309561D01*
X39401648Y7300518D01*
X39404493Y7291730D01*
X39408049Y7283246D01*
X39412367Y7275118D01*
X39417396Y7267346D01*
X39423086Y7260081D01*
X39429385Y7253325D01*
X39436243Y7247178D01*
X39443609Y7241692D01*
X39451483Y7236815D01*
X39459712Y7232700D01*
X39468298Y7229297D01*
X39477137Y7226706D01*
X39486179Y7224877D01*
X39495374Y7223861D01*
X39504569Y7223658D01*
X39513814Y7224268D01*
X39522908Y7225690D01*
X39531848Y7227925D01*
X39536268Y7229297D01*
X39544853Y7232700D01*
X39553083Y7236815D01*
X39560957Y7241692D01*
X39568323Y7247178D01*
X39575181Y7253325D01*
X39581531Y7260081D01*
X39587170Y7267346D01*
X39592199Y7275118D01*
X39596517Y7283246D01*
X39600124Y7291730D01*
X39602918Y7300518D01*
X39604950Y7309561D01*
X39606169Y7318705D01*
X39606575Y7327900D01*
X39606169Y7337094D01*
X39604950Y7346238D01*
X39602918Y7355281D01*
X39600124Y7364069D01*
X39596517Y7372553D01*
X39592199Y7380681D01*
X39587170Y7388453D01*
X39581531Y7395718D01*
X39575181Y7402474D01*
X39568323Y7408621D01*
X39560957Y7414107D01*
X39553083Y7418984D01*
X39544853Y7423099D01*
X39536268Y7426502D01*
X39527429Y7429093D01*
X39518386Y7430922D01*
X39509192Y7431938D01*
G37*
G36*
X39499997Y5577941D02*
G01*
X39490751Y5577332D01*
X39481658Y5575909D01*
X39472717Y5573674D01*
X39468298Y5572302D01*
X39459712Y5568899D01*
X39451483Y5564784D01*
X39443609Y5559907D01*
X39436243Y5554421D01*
X39429385Y5548274D01*
X39423086Y5541518D01*
X39417396Y5534253D01*
X39412367Y5526481D01*
X39408049Y5518353D01*
X39404493Y5509869D01*
X39401648Y5501081D01*
X39399616Y5492038D01*
X39398397Y5482894D01*
X39397990Y5473700D01*
X39398397Y5464505D01*
X39399616Y5455361D01*
X39401648Y5446318D01*
X39404493Y5437530D01*
X39408049Y5429046D01*
X39412367Y5420918D01*
X39417396Y5413146D01*
X39423086Y5405882D01*
X39429385Y5399125D01*
X39436243Y5392978D01*
X39443609Y5387492D01*
X39451483Y5382615D01*
X39459712Y5378500D01*
X39468298Y5375097D01*
X39477137Y5372506D01*
X39486179Y5370677D01*
X39495374Y5369661D01*
X39504569Y5369458D01*
X39513814Y5370068D01*
X39522908Y5371490D01*
X39531848Y5373725D01*
X39536268Y5375097D01*
X39544853Y5378500D01*
X39553083Y5382615D01*
X39560957Y5387492D01*
X39568323Y5392978D01*
X39575181Y5399125D01*
X39581531Y5405882D01*
X39587170Y5413146D01*
X39592199Y5420918D01*
X39596517Y5429046D01*
X39600124Y5437530D01*
X39602918Y5446318D01*
X39604950Y5455361D01*
X39606169Y5464505D01*
X39606575Y5473700D01*
X39606169Y5482894D01*
X39604950Y5492038D01*
X39602918Y5501081D01*
X39600124Y5509869D01*
X39596517Y5518353D01*
X39592199Y5526481D01*
X39587170Y5534253D01*
X39581531Y5541518D01*
X39575181Y5548274D01*
X39568323Y5554421D01*
X39560957Y5559907D01*
X39553083Y5564784D01*
X39544853Y5568899D01*
X39536268Y5572302D01*
X39527429Y5574893D01*
X39518386Y5576722D01*
X39509192Y5577738D01*
G37*
G36*
X40927274Y6517741D02*
G01*
X40918079Y6517131D01*
X40908986Y6515709D01*
X40899994Y6513474D01*
X40895625Y6512102D01*
X40887040Y6508699D01*
X40878760Y6504584D01*
X40870936Y6499707D01*
X40863520Y6494221D01*
X40856662Y6488074D01*
X40850362Y6481318D01*
X40844673Y6474053D01*
X40839644Y6466281D01*
X40835326Y6458153D01*
X40831770Y6449669D01*
X40830246Y6445300D01*
X40827858Y6436360D01*
X40826232Y6427317D01*
X40825420Y6418122D01*
X40825420Y6408877D01*
X40826232Y6399682D01*
X40827858Y6390640D01*
X40830246Y6381699D01*
X40833446Y6373063D01*
X40837408Y6364732D01*
X40842082Y6356756D01*
X40847467Y6349238D01*
X40853461Y6342227D01*
X40860014Y6335776D01*
X40867177Y6329934D01*
X40874797Y6324752D01*
X40882874Y6320282D01*
X40891307Y6316522D01*
X40895625Y6314897D01*
X40904464Y6312306D01*
X40913507Y6310477D01*
X40922651Y6309461D01*
X40931896Y6309258D01*
X40941091Y6309868D01*
X40950235Y6311290D01*
X40959176Y6313525D01*
X40967914Y6316522D01*
X40976296Y6320282D01*
X40984373Y6324752D01*
X40991993Y6329934D01*
X40999156Y6335776D01*
X41005709Y6342227D01*
X41011754Y6349238D01*
X41017088Y6356756D01*
X41021762Y6364732D01*
X41025724Y6373063D01*
X41028924Y6381699D01*
X41031312Y6390640D01*
X41032938Y6399682D01*
X41033750Y6408877D01*
X41033750Y6418122D01*
X41032938Y6427317D01*
X41031312Y6436360D01*
X41028924Y6445300D01*
X41025724Y6453936D01*
X41021762Y6462268D01*
X41017088Y6470243D01*
X41011754Y6477762D01*
X41005709Y6484772D01*
X40999156Y6491224D01*
X40991993Y6497066D01*
X40984373Y6502247D01*
X40976296Y6506718D01*
X40967914Y6510477D01*
X40959176Y6513474D01*
X40950235Y6515709D01*
X40941091Y6517131D01*
X40931896Y6517741D01*
G37*
G36*
X40927274Y7432141D02*
G01*
X40918079Y7431531D01*
X40908986Y7430109D01*
X40899994Y7427874D01*
X40895625Y7426502D01*
X40887040Y7423099D01*
X40878760Y7418984D01*
X40870936Y7414107D01*
X40863520Y7408621D01*
X40856662Y7402474D01*
X40850362Y7395718D01*
X40844673Y7388453D01*
X40839644Y7380681D01*
X40835326Y7372553D01*
X40831770Y7364069D01*
X40830246Y7359700D01*
X40827858Y7350759D01*
X40826232Y7341717D01*
X40825420Y7332522D01*
X40825420Y7323277D01*
X40826232Y7314082D01*
X40827858Y7305040D01*
X40830246Y7296099D01*
X40833446Y7287463D01*
X40837408Y7279131D01*
X40842082Y7271156D01*
X40847467Y7263638D01*
X40853461Y7256627D01*
X40860014Y7250175D01*
X40867177Y7244334D01*
X40874797Y7239152D01*
X40882874Y7234681D01*
X40891307Y7230922D01*
X40895625Y7229297D01*
X40904464Y7226706D01*
X40913507Y7224877D01*
X40922651Y7223861D01*
X40931896Y7223658D01*
X40941091Y7224268D01*
X40950235Y7225690D01*
X40959176Y7227925D01*
X40967914Y7230922D01*
X40976296Y7234681D01*
X40984373Y7239152D01*
X40991993Y7244334D01*
X40999156Y7250175D01*
X41005709Y7256627D01*
X41011754Y7263638D01*
X41017088Y7271156D01*
X41021762Y7279131D01*
X41025724Y7287463D01*
X41028924Y7296099D01*
X41031312Y7305040D01*
X41032938Y7314082D01*
X41033750Y7323277D01*
X41033750Y7332522D01*
X41032938Y7341717D01*
X41031312Y7350759D01*
X41028924Y7359700D01*
X41025724Y7368336D01*
X41021762Y7376668D01*
X41017088Y7384643D01*
X41011754Y7392162D01*
X41005709Y7399172D01*
X40999156Y7405624D01*
X40991993Y7411466D01*
X40984373Y7416647D01*
X40976296Y7421118D01*
X40967914Y7424877D01*
X40959176Y7427874D01*
X40950235Y7430109D01*
X40941091Y7431531D01*
X40931896Y7432141D01*
G37*
G36*
X40927274Y5577941D02*
G01*
X40918079Y5577332D01*
X40908986Y5575909D01*
X40899994Y5573674D01*
X40895625Y5572302D01*
X40887040Y5568899D01*
X40878760Y5564784D01*
X40870936Y5559907D01*
X40863520Y5554421D01*
X40856662Y5548274D01*
X40850362Y5541518D01*
X40844673Y5534253D01*
X40839644Y5526481D01*
X40835326Y5518353D01*
X40831770Y5509869D01*
X40830246Y5505500D01*
X40827858Y5496560D01*
X40826232Y5487517D01*
X40825420Y5478322D01*
X40825420Y5469077D01*
X40826232Y5459882D01*
X40827858Y5450840D01*
X40830246Y5441899D01*
X40833446Y5433263D01*
X40837408Y5424932D01*
X40842082Y5416956D01*
X40847467Y5409438D01*
X40853461Y5402427D01*
X40860014Y5395976D01*
X40867177Y5390134D01*
X40874797Y5384952D01*
X40882874Y5380482D01*
X40891307Y5376722D01*
X40895625Y5375097D01*
X40904464Y5372506D01*
X40913507Y5370677D01*
X40922651Y5369661D01*
X40931896Y5369458D01*
X40941091Y5370068D01*
X40950235Y5371490D01*
X40959176Y5373725D01*
X40967914Y5376722D01*
X40976296Y5380482D01*
X40984373Y5384952D01*
X40991993Y5390134D01*
X40999156Y5395976D01*
X41005709Y5402427D01*
X41011754Y5409438D01*
X41017088Y5416956D01*
X41021762Y5424932D01*
X41025724Y5433263D01*
X41028924Y5441899D01*
X41031312Y5450840D01*
X41032938Y5459882D01*
X41033750Y5469077D01*
X41033750Y5478322D01*
X41032938Y5487517D01*
X41031312Y5496560D01*
X41028924Y5505500D01*
X41025724Y5514136D01*
X41021762Y5522468D01*
X41017088Y5530443D01*
X41011754Y5537962D01*
X41005709Y5544972D01*
X40999156Y5551424D01*
X40991993Y5557266D01*
X40984373Y5562447D01*
X40976296Y5566918D01*
X40967914Y5570677D01*
X40959176Y5573674D01*
X40950235Y5575909D01*
X40941091Y5577332D01*
X40931896Y5577941D01*
G37*
G36*
X37084101Y5577941D02*
G01*
X37074856Y5577332D01*
X37065762Y5575909D01*
X37056822Y5573674D01*
X37052402Y5572302D01*
X37043817Y5568899D01*
X37035587Y5564784D01*
X37027713Y5559907D01*
X37020347Y5554421D01*
X37013489Y5548274D01*
X37007190Y5541518D01*
X37001500Y5534253D01*
X36996471Y5526481D01*
X36992153Y5518353D01*
X36988597Y5509869D01*
X36985752Y5501081D01*
X36983720Y5492038D01*
X36982501Y5482894D01*
X36982095Y5473700D01*
X36982501Y5464505D01*
X36983720Y5455361D01*
X36985752Y5446318D01*
X36988597Y5437530D01*
X36992153Y5429046D01*
X36996471Y5420918D01*
X37001500Y5413146D01*
X37007190Y5405882D01*
X37013489Y5399125D01*
X37020347Y5392978D01*
X37027713Y5387492D01*
X37035587Y5382615D01*
X37043817Y5378500D01*
X37052402Y5375097D01*
X37061241Y5372506D01*
X37070284Y5370677D01*
X37079478Y5369661D01*
X37088673Y5369458D01*
X37097919Y5370068D01*
X37107012Y5371490D01*
X37115953Y5373725D01*
X37120372Y5375097D01*
X37128958Y5378500D01*
X37137187Y5382615D01*
X37145061Y5387492D01*
X37152427Y5392978D01*
X37159285Y5399125D01*
X37165635Y5405882D01*
X37171274Y5413146D01*
X37176303Y5420918D01*
X37180621Y5429046D01*
X37184228Y5437530D01*
X37187022Y5446318D01*
X37189054Y5455361D01*
X37190273Y5464505D01*
X37190680Y5473700D01*
X37190273Y5482894D01*
X37189054Y5492038D01*
X37187022Y5501081D01*
X37184228Y5509869D01*
X37180621Y5518353D01*
X37176303Y5526481D01*
X37171274Y5534253D01*
X37165635Y5541518D01*
X37159285Y5548274D01*
X37152427Y5554421D01*
X37145061Y5559907D01*
X37137187Y5564784D01*
X37128958Y5568899D01*
X37120372Y5572302D01*
X37111533Y5574893D01*
X37102491Y5576722D01*
X37093296Y5577738D01*
G37*
G36*
X37084101Y7432141D02*
G01*
X37074856Y7431531D01*
X37065762Y7430109D01*
X37056822Y7427874D01*
X37052402Y7426502D01*
X37043817Y7423099D01*
X37035587Y7418984D01*
X37027713Y7414107D01*
X37020347Y7408621D01*
X37013489Y7402474D01*
X37007190Y7395718D01*
X37001500Y7388453D01*
X36996471Y7380681D01*
X36992153Y7372553D01*
X36988597Y7364069D01*
X36985752Y7355281D01*
X36983720Y7346238D01*
X36982501Y7337094D01*
X36982095Y7327900D01*
X36982501Y7318705D01*
X36983720Y7309561D01*
X36985752Y7300518D01*
X36988597Y7291730D01*
X36992153Y7283246D01*
X36996471Y7275118D01*
X37001500Y7267346D01*
X37007190Y7260081D01*
X37013489Y7253325D01*
X37020347Y7247178D01*
X37027713Y7241692D01*
X37035587Y7236815D01*
X37043817Y7232700D01*
X37052402Y7229297D01*
X37061241Y7226706D01*
X37070284Y7224877D01*
X37079478Y7223861D01*
X37088673Y7223658D01*
X37097919Y7224268D01*
X37107012Y7225690D01*
X37115953Y7227925D01*
X37120372Y7229297D01*
X37128958Y7232700D01*
X37137187Y7236815D01*
X37145061Y7241692D01*
X37152427Y7247178D01*
X37159285Y7253325D01*
X37165635Y7260081D01*
X37171274Y7267346D01*
X37176303Y7275118D01*
X37180621Y7283246D01*
X37184228Y7291730D01*
X37187022Y7300518D01*
X37189054Y7309561D01*
X37190273Y7318705D01*
X37190680Y7327900D01*
X37190273Y7337094D01*
X37189054Y7346238D01*
X37187022Y7355281D01*
X37184228Y7364069D01*
X37180621Y7372553D01*
X37176303Y7380681D01*
X37171274Y7388453D01*
X37165635Y7395718D01*
X37159285Y7402474D01*
X37152427Y7408621D01*
X37145061Y7414107D01*
X37137187Y7418984D01*
X37128958Y7423099D01*
X37120372Y7426502D01*
X37111533Y7429093D01*
X37102491Y7430922D01*
X37093296Y7431938D01*
G37*
G36*
X37084101Y6517741D02*
G01*
X37074856Y6517131D01*
X37065762Y6515709D01*
X37056822Y6513474D01*
X37052402Y6512102D01*
X37043817Y6508699D01*
X37035587Y6504584D01*
X37027713Y6499707D01*
X37020347Y6494221D01*
X37013489Y6488074D01*
X37007190Y6481318D01*
X37001500Y6474053D01*
X36996471Y6466281D01*
X36992153Y6458153D01*
X36988597Y6449669D01*
X36985752Y6440881D01*
X36983720Y6431838D01*
X36982501Y6422694D01*
X36982095Y6413500D01*
X36982501Y6404305D01*
X36983720Y6395161D01*
X36985752Y6386118D01*
X36988597Y6377330D01*
X36992153Y6368846D01*
X36996471Y6360718D01*
X37001500Y6352946D01*
X37007190Y6345682D01*
X37013489Y6338925D01*
X37020347Y6332778D01*
X37027713Y6327292D01*
X37035587Y6322415D01*
X37043817Y6318300D01*
X37052402Y6314897D01*
X37061241Y6312306D01*
X37070284Y6310477D01*
X37079478Y6309461D01*
X37088673Y6309258D01*
X37097919Y6309868D01*
X37107012Y6311290D01*
X37115953Y6313525D01*
X37120372Y6314897D01*
X37128958Y6318300D01*
X37137187Y6322415D01*
X37145061Y6327292D01*
X37152427Y6332778D01*
X37159285Y6338925D01*
X37165635Y6345682D01*
X37171274Y6352946D01*
X37176303Y6360718D01*
X37180621Y6368846D01*
X37184228Y6377330D01*
X37187022Y6386118D01*
X37189054Y6395161D01*
X37190273Y6404305D01*
X37190680Y6413500D01*
X37190273Y6422694D01*
X37189054Y6431838D01*
X37187022Y6440881D01*
X37184228Y6449669D01*
X37180621Y6458153D01*
X37176303Y6466281D01*
X37171274Y6474053D01*
X37165635Y6481318D01*
X37159285Y6488074D01*
X37152427Y6494221D01*
X37145061Y6499707D01*
X37137187Y6504584D01*
X37128958Y6508699D01*
X37120372Y6512102D01*
X37111533Y6514693D01*
X37102491Y6516522D01*
X37093296Y6517538D01*
G37*
M02*
