M48
METRIC,LZ,000.000
;FILE_FORMAT=3:3
;TYPE=PLATED
;Layer: PTH_Through
;EasyEDA v6.5.34, 2023-08-29 12:17:18
;ba4a484b4813477397863864965903c7,5a6b42c53f6a479593ecc07194224c93,10
;Gerber Generator version 0.2
;Holesize 1 = 0.305 mm
T01C0.305
;Holesize 2 = 1.000 mm
T02C1.000
%
G05
G90
T01
X030734Y077343
X061341Y059055
X439674Y068072
X423037Y068072
X413258Y060960
X439674Y060960
X055880Y058420
X027940Y058420
X027940Y072771
X041656Y074676
X051181Y074676
X057150Y073787
X030734Y054483
X041656Y051816
X051181Y051816
X055880Y050927
X057150Y054229
X064262Y074676
X064262Y065405
X105664Y073787
X102362Y065405
X102362Y074676
X067564Y054229
X075311Y059055
X078232Y065405
X080899Y080645
X078232Y074676
X076835Y080645
X080899Y055245
X115316Y080645
X116713Y074676
X119380Y080645
X116713Y065405
X113792Y059055
X086487Y060071
X092964Y060071
X089408Y066421
X089408Y075692
X095885Y075692
X095885Y066421
X092075Y074803
X098552Y074803
X099441Y059055
X092075Y055245
X127889Y059055
X130810Y074676
X130810Y065405
X134112Y073787
X098552Y054229
X137160Y075692
X143764Y075692
X137160Y066421
X143764Y066421
X140843Y060071
X155194Y065405
X157861Y080645
X155194Y074676
X153670Y080645
X193675Y065405
X196342Y080645
X193675Y074676
X192151Y080645
X182499Y073787
X152273Y059055
X176403Y059055
X214737Y059055
X213868Y074803
X207391Y074803
X211201Y066421
X211201Y075692
X204724Y075692
X204724Y066421
X208260Y060071
X201783Y060071
X217678Y074676
X217678Y065405
X220980Y073787
X232029Y074676
X234696Y080645
X232029Y065405
X270510Y074676
X273177Y080645
X270510Y065405
X249428Y073787
X246126Y065405
X246126Y074676
X243185Y059055
X256139Y060071
X259080Y066421
X252476Y066548
X259080Y075692
X252476Y075692
X281911Y059055
X288036Y073787
X179324Y065405
X179324Y074676
X284861Y065405
X284861Y074676
X268986Y080645
X230632Y080645
X190705Y059055
X229137Y059055
X267569Y059055
X306001Y059055
X308991Y074676
X311531Y080645
X308991Y065405
X336296Y073787
X332994Y065405
X332994Y074676
X317079Y060071
X323556Y060071
X320040Y066421
X320040Y075692
X326517Y075692
X326517Y066421
X322707Y074803
X329184Y074803
X330033Y059055
X347345Y065405
X350012Y080645
X347345Y074676
X344433Y059055
X361442Y074676
X361442Y065405
X364744Y073787
X367792Y075692
X374396Y075692
X367792Y066548
X374396Y066548
X371435Y060071
X307340Y080645
X345821Y080645
X382865Y059055
X385826Y074676
X388493Y080645
X385826Y065405
X384175Y080645
X400177Y074676
X400177Y065405
X397207Y059055
X403352Y073787
X435483Y051816
X415054Y054483
X435483Y074676
X425958Y074676
X415054Y077343
X439674Y073787
X413258Y072771
X439674Y050927
X403352Y049911
X388493Y054229
X377317Y054229
X358481Y059055
X377317Y074803
X370586Y055245
X370586Y074803
X364744Y055245
X350012Y054229
X336296Y054229
X329184Y054229
X322707Y055245
X311531Y055245
X288036Y054229
X273177Y054229
X262001Y074803
X255270Y055245
X255270Y074803
X249428Y055245
X234696Y054229
X220980Y054229
X213868Y054229
X207391Y055245
X196342Y055245
X182499Y054229
X157861Y054229
X146685Y054229
X146685Y074803
X139954Y055245
X139954Y074803
X134112Y055245
X119380Y054229
X105664Y054229
X262001Y054229
X067564Y073787
X133477Y060071
X248773Y060071
X364069Y060071
X425958Y051816
T02
X417957Y064643
X420497Y064643
X423037Y064643
X425577Y064643
X428117Y064643
X430657Y064643
M30
