G04 Layer: BottomLayer*
G04 EasyEDA v6.5.34, 2023-08-29 12:17:18*
G04 ba4a484b4813477397863864965903c7,5a6b42c53f6a479593ecc07194224c93,10*
G04 Gerber Generator version 0.2*
G04 Scale: 100 percent, Rotated: No, Reflected: No *
G04 Dimensions in millimeters *
G04 leading zeros omitted , absolute positions ,4 integer and 5 decimal *
%FSLAX45Y45*%
%MOMM*%

%AMMACRO1*21,1,$1,$2,0,0,$3*%
%ADD10C,0.2540*%
%ADD11MACRO1,1.7X1.7X0.0000*%
%ADD12C,1.7000*%
%ADD13C,0.6096*%

%LPD*%
G36*
X6132068Y64008D02*
G01*
X6128156Y64769D01*
X6124905Y67005D01*
X6122670Y70256D01*
X6121908Y74168D01*
X6121908Y4888890D01*
X6121095Y4895392D01*
X6119012Y4900930D01*
X6115456Y4906060D01*
X6112459Y4909108D01*
X6108852Y4911750D01*
X6103315Y4914239D01*
X6095847Y4915408D01*
X2156968Y4915408D01*
X2153056Y4916170D01*
X2149805Y4918405D01*
X2147570Y4921656D01*
X2146808Y4925568D01*
X2146808Y8168131D01*
X2147570Y8172043D01*
X2149805Y8175294D01*
X2153056Y8177530D01*
X2156968Y8178292D01*
X44325032Y8178292D01*
X44328943Y8177530D01*
X44332194Y8175294D01*
X44334430Y8172043D01*
X44335192Y8168131D01*
X44335192Y4925568D01*
X44334430Y4921656D01*
X44332194Y4918405D01*
X44328943Y4916170D01*
X44325032Y4915408D01*
X40386609Y4915408D01*
X40380107Y4914595D01*
X40374570Y4912512D01*
X40369439Y4908956D01*
X40366391Y4905959D01*
X40363749Y4902352D01*
X40361260Y4896815D01*
X40360092Y4889347D01*
X40360092Y74168D01*
X40359330Y70256D01*
X40357094Y67005D01*
X40353843Y64769D01*
X40349932Y64008D01*
G37*

%LPC*%
G36*
X43967400Y6750862D02*
G01*
X43977204Y6751726D01*
X43986653Y6754266D01*
X43995594Y6758381D01*
X44003620Y6764020D01*
X44010580Y6770979D01*
X44016218Y6779006D01*
X44020333Y6787946D01*
X44022873Y6797395D01*
X44023737Y6807200D01*
X44022873Y6817004D01*
X44020333Y6826453D01*
X44016218Y6835394D01*
X44010580Y6843420D01*
X44009005Y6844995D01*
X44006770Y6848297D01*
X44006008Y6852208D01*
X44006008Y7333691D01*
X44006770Y7337602D01*
X44009005Y7340904D01*
X44010580Y7342479D01*
X44016218Y7350506D01*
X44020333Y7359446D01*
X44022873Y7368895D01*
X44023737Y7378700D01*
X44022873Y7388504D01*
X44020333Y7397953D01*
X44016218Y7406894D01*
X44010580Y7414920D01*
X44003620Y7421880D01*
X43995594Y7427518D01*
X43986653Y7431633D01*
X43977204Y7434173D01*
X43967400Y7435037D01*
X43957595Y7434173D01*
X43948146Y7431633D01*
X43939206Y7427518D01*
X43931179Y7421880D01*
X43924220Y7414920D01*
X43918581Y7406894D01*
X43914466Y7397953D01*
X43911926Y7388504D01*
X43911062Y7378700D01*
X43911926Y7368895D01*
X43914466Y7359446D01*
X43918581Y7350506D01*
X43924220Y7342479D01*
X43925794Y7340904D01*
X43928030Y7337602D01*
X43928792Y7333691D01*
X43928792Y6852208D01*
X43928030Y6848297D01*
X43925794Y6844995D01*
X43924220Y6843420D01*
X43918581Y6835394D01*
X43914466Y6826453D01*
X43911926Y6817004D01*
X43911062Y6807200D01*
X43911926Y6797395D01*
X43914466Y6787946D01*
X43918581Y6779006D01*
X43924220Y6770979D01*
X43931179Y6764020D01*
X43939206Y6758381D01*
X43948146Y6754266D01*
X43957595Y6751726D01*
G37*
G36*
X13628776Y559917D02*
G01*
X13643965Y560832D01*
X13658900Y563575D01*
X13673429Y568096D01*
X13687298Y574344D01*
X13700302Y582218D01*
X13712240Y591566D01*
X13723010Y602335D01*
X13732357Y614273D01*
X13740231Y627278D01*
X13746480Y641146D01*
X13751001Y655675D01*
X13753744Y670610D01*
X13754658Y685800D01*
X13753744Y700989D01*
X13751001Y715924D01*
X13746480Y730453D01*
X13740231Y744321D01*
X13732357Y757326D01*
X13723010Y769264D01*
X13712240Y780034D01*
X13700302Y789381D01*
X13687298Y797255D01*
X13673429Y803503D01*
X13658900Y808024D01*
X13643965Y810768D01*
X13628776Y811682D01*
X13613587Y810768D01*
X13598651Y808024D01*
X13584123Y803503D01*
X13570254Y797255D01*
X13557250Y789381D01*
X13545312Y780034D01*
X13534542Y769264D01*
X13525195Y757326D01*
X13517321Y744321D01*
X13511072Y730453D01*
X13506551Y715924D01*
X13503808Y700989D01*
X13502894Y685800D01*
X13503808Y670610D01*
X13506551Y655675D01*
X13511072Y641146D01*
X13517321Y627278D01*
X13525195Y614273D01*
X13534542Y602335D01*
X13545312Y591566D01*
X13557250Y582218D01*
X13570254Y574344D01*
X13584123Y568096D01*
X13598651Y563575D01*
X13613587Y560832D01*
G37*
G36*
X29001618Y559917D02*
G01*
X29016756Y560832D01*
X29031742Y563575D01*
X29046220Y568096D01*
X29060089Y574344D01*
X29073094Y582218D01*
X29085082Y591566D01*
X29095801Y602335D01*
X29105199Y614273D01*
X29113073Y627278D01*
X29119322Y641146D01*
X29123843Y655675D01*
X29126586Y670610D01*
X29127500Y685800D01*
X29126586Y700989D01*
X29123843Y715924D01*
X29119322Y730453D01*
X29113073Y744321D01*
X29105199Y757326D01*
X29095801Y769264D01*
X29085082Y780034D01*
X29073094Y789381D01*
X29060089Y797255D01*
X29046220Y803503D01*
X29031742Y808024D01*
X29016756Y810768D01*
X29001618Y811682D01*
X28986429Y810768D01*
X28971443Y808024D01*
X28956965Y803503D01*
X28943096Y797255D01*
X28930092Y789381D01*
X28918103Y780034D01*
X28907384Y769264D01*
X28897986Y757326D01*
X28890112Y744321D01*
X28883864Y730453D01*
X28879342Y715924D01*
X28876599Y700989D01*
X28875685Y685800D01*
X28876599Y670610D01*
X28879342Y655675D01*
X28883864Y641146D01*
X28890112Y627278D01*
X28897986Y614273D01*
X28907384Y602335D01*
X28918103Y591566D01*
X28930092Y582218D01*
X28943096Y574344D01*
X28956965Y568096D01*
X28971443Y563575D01*
X28986429Y560832D01*
G37*
G36*
X32844790Y559917D02*
G01*
X32859980Y560832D01*
X32874915Y563575D01*
X32889444Y568096D01*
X32903312Y574344D01*
X32916317Y582218D01*
X32928255Y591566D01*
X32939024Y602335D01*
X32948372Y614273D01*
X32956246Y627278D01*
X32962494Y641146D01*
X32967015Y655675D01*
X32969758Y670610D01*
X32970673Y685800D01*
X32969758Y700989D01*
X32967015Y715924D01*
X32962494Y730453D01*
X32956246Y744321D01*
X32948372Y757326D01*
X32939024Y769264D01*
X32928255Y780034D01*
X32916317Y789381D01*
X32903312Y797255D01*
X32889444Y803503D01*
X32874915Y808024D01*
X32859980Y810768D01*
X32844790Y811682D01*
X32829601Y810768D01*
X32814666Y808024D01*
X32800137Y803503D01*
X32786269Y797255D01*
X32773264Y789381D01*
X32761326Y780034D01*
X32750556Y769264D01*
X32741209Y757326D01*
X32733335Y744321D01*
X32727087Y730453D01*
X32722565Y715924D01*
X32719822Y700989D01*
X32718908Y685800D01*
X32719822Y670610D01*
X32722565Y655675D01*
X32727087Y641146D01*
X32733335Y627278D01*
X32741209Y614273D01*
X32750556Y602335D01*
X32761326Y591566D01*
X32773264Y582218D01*
X32786269Y574344D01*
X32800137Y568096D01*
X32814666Y563575D01*
X32829601Y560832D01*
G37*
G36*
X9785604Y559917D02*
G01*
X9800742Y560832D01*
X9815728Y563575D01*
X9830206Y568096D01*
X9844074Y574344D01*
X9857079Y582218D01*
X9869068Y591566D01*
X9879787Y602335D01*
X9889185Y614273D01*
X9897059Y627278D01*
X9903307Y641146D01*
X9907828Y655675D01*
X9910572Y670610D01*
X9911486Y685800D01*
X9910572Y700989D01*
X9907828Y715924D01*
X9903307Y730453D01*
X9897059Y744321D01*
X9889185Y757326D01*
X9879787Y769264D01*
X9869068Y780034D01*
X9857079Y789381D01*
X9844074Y797255D01*
X9830206Y803503D01*
X9815728Y808024D01*
X9800742Y810768D01*
X9785604Y811682D01*
X9770414Y810768D01*
X9755428Y808024D01*
X9740950Y803503D01*
X9727082Y797255D01*
X9714077Y789381D01*
X9702088Y780034D01*
X9691370Y769264D01*
X9681972Y757326D01*
X9674098Y744321D01*
X9667849Y730453D01*
X9663328Y715924D01*
X9660585Y700989D01*
X9659670Y685800D01*
X9660585Y670610D01*
X9663328Y655675D01*
X9667849Y641146D01*
X9674098Y627278D01*
X9681972Y614273D01*
X9691370Y602335D01*
X9702088Y591566D01*
X9714077Y582218D01*
X9727082Y574344D01*
X9740950Y568096D01*
X9755428Y563575D01*
X9770414Y560832D01*
G37*
G36*
X36688014Y559917D02*
G01*
X36703152Y560832D01*
X36718138Y563575D01*
X36732616Y568096D01*
X36746484Y574344D01*
X36759489Y582218D01*
X36771478Y591566D01*
X36782197Y602335D01*
X36791595Y614273D01*
X36799469Y627278D01*
X36805717Y641146D01*
X36810238Y655675D01*
X36812982Y670610D01*
X36813896Y685800D01*
X36812982Y700989D01*
X36810238Y715924D01*
X36805717Y730453D01*
X36799469Y744321D01*
X36791595Y757326D01*
X36782197Y769264D01*
X36771478Y780034D01*
X36759489Y789381D01*
X36746484Y797255D01*
X36732616Y803503D01*
X36718138Y808024D01*
X36703152Y810768D01*
X36688014Y811682D01*
X36672824Y810768D01*
X36657838Y808024D01*
X36643360Y803503D01*
X36629492Y797255D01*
X36616487Y789381D01*
X36604498Y780034D01*
X36593780Y769264D01*
X36584382Y757326D01*
X36576508Y744321D01*
X36570259Y730453D01*
X36565738Y715924D01*
X36562995Y700989D01*
X36562080Y685800D01*
X36562995Y670610D01*
X36565738Y655675D01*
X36570259Y641146D01*
X36576508Y627278D01*
X36584382Y614273D01*
X36593780Y602335D01*
X36604498Y591566D01*
X36616487Y582218D01*
X36629492Y574344D01*
X36643360Y568096D01*
X36657838Y563575D01*
X36672824Y560832D01*
G37*
G36*
X25158395Y559917D02*
G01*
X25173584Y560832D01*
X25188519Y563575D01*
X25203048Y568096D01*
X25216916Y574344D01*
X25229921Y582218D01*
X25241859Y591566D01*
X25252629Y602335D01*
X25261976Y614273D01*
X25269850Y627278D01*
X25276098Y641146D01*
X25280620Y655675D01*
X25283363Y670610D01*
X25284277Y685800D01*
X25283363Y700989D01*
X25280620Y715924D01*
X25276098Y730453D01*
X25269850Y744321D01*
X25261976Y757326D01*
X25252629Y769264D01*
X25241859Y780034D01*
X25229921Y789381D01*
X25216916Y797255D01*
X25203048Y803503D01*
X25188519Y808024D01*
X25173584Y810768D01*
X25158395Y811682D01*
X25143206Y810768D01*
X25128270Y808024D01*
X25113742Y803503D01*
X25099873Y797255D01*
X25086868Y789381D01*
X25074930Y780034D01*
X25064161Y769264D01*
X25054814Y757326D01*
X25046940Y744321D01*
X25040691Y730453D01*
X25036170Y715924D01*
X25033427Y700989D01*
X25032512Y685800D01*
X25033427Y670610D01*
X25036170Y655675D01*
X25040691Y641146D01*
X25046940Y627278D01*
X25054814Y614273D01*
X25064161Y602335D01*
X25074930Y591566D01*
X25086868Y582218D01*
X25099873Y574344D01*
X25113742Y568096D01*
X25128270Y563575D01*
X25143206Y560832D01*
G37*
G36*
X21315172Y559917D02*
G01*
X21330361Y560832D01*
X21345296Y563575D01*
X21359825Y568096D01*
X21373693Y574344D01*
X21386698Y582218D01*
X21398636Y591566D01*
X21409406Y602335D01*
X21418753Y614273D01*
X21426627Y627278D01*
X21432875Y641146D01*
X21437396Y655675D01*
X21440140Y670610D01*
X21441054Y685800D01*
X21440140Y700989D01*
X21437396Y715924D01*
X21432875Y730453D01*
X21426627Y744321D01*
X21418753Y757326D01*
X21409406Y769264D01*
X21398636Y780034D01*
X21386698Y789381D01*
X21373693Y797255D01*
X21359825Y803503D01*
X21345296Y808024D01*
X21330361Y810768D01*
X21315172Y811682D01*
X21299982Y810768D01*
X21285047Y808024D01*
X21270518Y803503D01*
X21256650Y797255D01*
X21243645Y789381D01*
X21231707Y780034D01*
X21220938Y769264D01*
X21211590Y757326D01*
X21203716Y744321D01*
X21197468Y730453D01*
X21192947Y715924D01*
X21190204Y700989D01*
X21189289Y685800D01*
X21190204Y670610D01*
X21192947Y655675D01*
X21197468Y641146D01*
X21203716Y627278D01*
X21211590Y614273D01*
X21220938Y602335D01*
X21231707Y591566D01*
X21243645Y582218D01*
X21256650Y574344D01*
X21270518Y568096D01*
X21285047Y563575D01*
X21299982Y560832D01*
G37*
G36*
X19735444Y990092D02*
G01*
X20826526Y990092D01*
X20832826Y990803D01*
X20838312Y992733D01*
X20843189Y995781D01*
X20847304Y999896D01*
X20850352Y1004773D01*
X20852282Y1010259D01*
X20852993Y1016558D01*
X20852993Y2107641D01*
X20852282Y2113940D01*
X20850352Y2119426D01*
X20847304Y2124303D01*
X20843189Y2128418D01*
X20838312Y2131466D01*
X20832826Y2133396D01*
X20826526Y2134108D01*
X19735444Y2134108D01*
X19729145Y2133396D01*
X19723658Y2131466D01*
X19718782Y2128418D01*
X19714667Y2124303D01*
X19711619Y2119426D01*
X19709688Y2113940D01*
X19708977Y2107641D01*
X19708977Y1016558D01*
X19709688Y1010259D01*
X19711619Y1004773D01*
X19714667Y999896D01*
X19718782Y995781D01*
X19723658Y992733D01*
X19729145Y990803D01*
G37*
G36*
X27421890Y990092D02*
G01*
X28512922Y990092D01*
X28519272Y990803D01*
X28524708Y992733D01*
X28529635Y995781D01*
X28533699Y999896D01*
X28536798Y1004773D01*
X28538677Y1010259D01*
X28539439Y1016558D01*
X28539439Y2107641D01*
X28538677Y2113940D01*
X28536798Y2119426D01*
X28533699Y2124303D01*
X28529635Y2128418D01*
X28524708Y2131466D01*
X28519272Y2133396D01*
X28512922Y2134108D01*
X27421890Y2134108D01*
X27415540Y2133396D01*
X27410105Y2131466D01*
X27405177Y2128418D01*
X27401113Y2124303D01*
X27398014Y2119426D01*
X27396135Y2113940D01*
X27395424Y2107641D01*
X27395424Y1016558D01*
X27396135Y1010259D01*
X27398014Y1004773D01*
X27401113Y999896D01*
X27405177Y995781D01*
X27410105Y992733D01*
X27415540Y990803D01*
G37*
G36*
X17956377Y990092D02*
G01*
X19047409Y990092D01*
X19053759Y990803D01*
X19059194Y992733D01*
X19064122Y995781D01*
X19068186Y999896D01*
X19071285Y1004773D01*
X19073164Y1010259D01*
X19073926Y1016558D01*
X19073926Y2107641D01*
X19073164Y2113940D01*
X19071285Y2119426D01*
X19068186Y2124303D01*
X19064122Y2128418D01*
X19059194Y2131466D01*
X19053759Y2133396D01*
X19047409Y2134108D01*
X17956377Y2134108D01*
X17950027Y2133396D01*
X17944592Y2131466D01*
X17939664Y2128418D01*
X17935600Y2124303D01*
X17932501Y2119426D01*
X17930622Y2113940D01*
X17929910Y2107641D01*
X17929910Y1016558D01*
X17930622Y1010259D01*
X17932501Y1004773D01*
X17935600Y999896D01*
X17939664Y995781D01*
X17944592Y992733D01*
X17950027Y990803D01*
G37*
G36*
X21799600Y990092D02*
G01*
X22890632Y990092D01*
X22896982Y990803D01*
X22902418Y992733D01*
X22907345Y995781D01*
X22911409Y999896D01*
X22914508Y1004773D01*
X22916388Y1010259D01*
X22917150Y1016558D01*
X22917150Y2107641D01*
X22916388Y2113940D01*
X22914508Y2119426D01*
X22911409Y2124303D01*
X22907345Y2128418D01*
X22902418Y2131466D01*
X22896982Y2133396D01*
X22890632Y2134108D01*
X21799600Y2134108D01*
X21793250Y2133396D01*
X21787815Y2131466D01*
X21782887Y2128418D01*
X21778823Y2124303D01*
X21775724Y2119426D01*
X21773845Y2113940D01*
X21773134Y2107641D01*
X21773134Y1016558D01*
X21773845Y1010259D01*
X21775724Y1004773D01*
X21778823Y999896D01*
X21782887Y995781D01*
X21787815Y992733D01*
X21793250Y990803D01*
G37*
G36*
X23578667Y990092D02*
G01*
X24669699Y990092D01*
X24676049Y990803D01*
X24681484Y992733D01*
X24686412Y995781D01*
X24690476Y999896D01*
X24693575Y1004773D01*
X24695454Y1010259D01*
X24696216Y1016558D01*
X24696216Y2107641D01*
X24695454Y2113940D01*
X24693575Y2119426D01*
X24690476Y2124303D01*
X24686412Y2128418D01*
X24681484Y2131466D01*
X24676049Y2133396D01*
X24669699Y2134108D01*
X23578667Y2134108D01*
X23572317Y2133396D01*
X23566882Y2131466D01*
X23561954Y2128418D01*
X23557890Y2124303D01*
X23554791Y2119426D01*
X23552912Y2113940D01*
X23552200Y2107641D01*
X23552200Y1016558D01*
X23552912Y1010259D01*
X23554791Y1004773D01*
X23557890Y999896D01*
X23561954Y995781D01*
X23566882Y992733D01*
X23572317Y990803D01*
G37*
G36*
X29485996Y990092D02*
G01*
X30577027Y990092D01*
X30583377Y990803D01*
X30588813Y992733D01*
X30593741Y995781D01*
X30597805Y999896D01*
X30600903Y1004773D01*
X30602783Y1010259D01*
X30603545Y1016558D01*
X30603545Y2107641D01*
X30602783Y2113940D01*
X30600903Y2119426D01*
X30597805Y2124303D01*
X30593741Y2128418D01*
X30588813Y2131466D01*
X30583377Y2133396D01*
X30577027Y2134108D01*
X29485996Y2134108D01*
X29479646Y2133396D01*
X29474210Y2131466D01*
X29469283Y2128418D01*
X29465219Y2124303D01*
X29462120Y2119426D01*
X29460240Y2113940D01*
X29459529Y2107641D01*
X29459529Y1016558D01*
X29460240Y1010259D01*
X29462120Y1004773D01*
X29465219Y999896D01*
X29469283Y995781D01*
X29474210Y992733D01*
X29479646Y990803D01*
G37*
G36*
X15892272Y990092D02*
G01*
X16983303Y990092D01*
X16989653Y990803D01*
X16995089Y992733D01*
X17000016Y995781D01*
X17004080Y999896D01*
X17007179Y1004773D01*
X17009059Y1010259D01*
X17009821Y1016558D01*
X17009821Y2107641D01*
X17009059Y2113940D01*
X17007179Y2119426D01*
X17004080Y2124303D01*
X17000016Y2128418D01*
X16995089Y2131466D01*
X16989653Y2133396D01*
X16983303Y2134108D01*
X15892272Y2134108D01*
X15885922Y2133396D01*
X15880486Y2131466D01*
X15875558Y2128418D01*
X15871494Y2124303D01*
X15868396Y2119426D01*
X15866516Y2113940D01*
X15865805Y2107641D01*
X15865805Y1016558D01*
X15866516Y1010259D01*
X15868396Y1004773D01*
X15871494Y999896D01*
X15875558Y995781D01*
X15880486Y992733D01*
X15885922Y990803D01*
G37*
G36*
X25642773Y990092D02*
G01*
X26733855Y990092D01*
X26740154Y990803D01*
X26745641Y992733D01*
X26750518Y995781D01*
X26754632Y999896D01*
X26757680Y1004773D01*
X26759611Y1010259D01*
X26760322Y1016558D01*
X26760322Y2107641D01*
X26759611Y2113940D01*
X26757680Y2119426D01*
X26754632Y2124303D01*
X26750518Y2128418D01*
X26745641Y2131466D01*
X26740154Y2133396D01*
X26733855Y2134108D01*
X25642773Y2134108D01*
X25636474Y2133396D01*
X25630987Y2131466D01*
X25626110Y2128418D01*
X25621996Y2124303D01*
X25618948Y2119426D01*
X25617017Y2113940D01*
X25616306Y2107641D01*
X25616306Y1016558D01*
X25617017Y1010259D01*
X25618948Y1004773D01*
X25621996Y999896D01*
X25626110Y995781D01*
X25630987Y992733D01*
X25636474Y990803D01*
G37*
G36*
X35108286Y990092D02*
G01*
X36199318Y990092D01*
X36205668Y990803D01*
X36211103Y992733D01*
X36216031Y995781D01*
X36220095Y999896D01*
X36223194Y1004773D01*
X36225073Y1010259D01*
X36225835Y1016558D01*
X36225835Y2107641D01*
X36225073Y2113940D01*
X36223194Y2119426D01*
X36220095Y2124303D01*
X36216031Y2128418D01*
X36211103Y2131466D01*
X36205668Y2133396D01*
X36199318Y2134108D01*
X35108286Y2134108D01*
X35101936Y2133396D01*
X35096500Y2131466D01*
X35091573Y2128418D01*
X35087509Y2124303D01*
X35084410Y2119426D01*
X35082530Y2113940D01*
X35081819Y2107641D01*
X35081819Y1016558D01*
X35082530Y1010259D01*
X35084410Y1004773D01*
X35087509Y999896D01*
X35091573Y995781D01*
X35096500Y992733D01*
X35101936Y990803D01*
G37*
G36*
X10269982Y990092D02*
G01*
X11361013Y990092D01*
X11367363Y990803D01*
X11372799Y992733D01*
X11377726Y995781D01*
X11381790Y999896D01*
X11384889Y1004773D01*
X11386769Y1010259D01*
X11387531Y1016558D01*
X11387531Y2107641D01*
X11386769Y2113940D01*
X11384889Y2119426D01*
X11381790Y2124303D01*
X11377726Y2128418D01*
X11372799Y2131466D01*
X11367363Y2133396D01*
X11361013Y2134108D01*
X10269982Y2134108D01*
X10263632Y2133396D01*
X10258196Y2131466D01*
X10253268Y2128418D01*
X10249204Y2124303D01*
X10246106Y2119426D01*
X10244226Y2113940D01*
X10243515Y2107641D01*
X10243515Y1016558D01*
X10244226Y1010259D01*
X10246106Y1004773D01*
X10249204Y999896D01*
X10253268Y995781D01*
X10258196Y992733D01*
X10263632Y990803D01*
G37*
G36*
X12049048Y990092D02*
G01*
X13140131Y990092D01*
X13146430Y990803D01*
X13151916Y992733D01*
X13156793Y995781D01*
X13160908Y999896D01*
X13163956Y1004773D01*
X13165886Y1010259D01*
X13166598Y1016558D01*
X13166598Y2107641D01*
X13165886Y2113940D01*
X13163956Y2119426D01*
X13160908Y2124303D01*
X13156793Y2128418D01*
X13151916Y2131466D01*
X13146430Y2133396D01*
X13140131Y2134108D01*
X12049048Y2134108D01*
X12042749Y2133396D01*
X12037263Y2131466D01*
X12032386Y2128418D01*
X12028271Y2124303D01*
X12025223Y2119426D01*
X12023293Y2113940D01*
X12022582Y2107641D01*
X12022582Y1016558D01*
X12023293Y1010259D01*
X12025223Y1004773D01*
X12028271Y999896D01*
X12032386Y995781D01*
X12037263Y992733D01*
X12042749Y990803D01*
G37*
G36*
X38951458Y990092D02*
G01*
X40042541Y990092D01*
X40048840Y990803D01*
X40054326Y992733D01*
X40059203Y995781D01*
X40063318Y999896D01*
X40066366Y1004773D01*
X40068296Y1010259D01*
X40069008Y1016558D01*
X40069008Y2107641D01*
X40068296Y2113940D01*
X40066366Y2119426D01*
X40063318Y2124303D01*
X40059203Y2128418D01*
X40054326Y2131466D01*
X40048840Y2133396D01*
X40042541Y2134108D01*
X38951458Y2134108D01*
X38945159Y2133396D01*
X38939673Y2131466D01*
X38934796Y2128418D01*
X38930681Y2124303D01*
X38927633Y2119426D01*
X38925703Y2113940D01*
X38924992Y2107641D01*
X38924992Y1016558D01*
X38925703Y1010259D01*
X38927633Y1004773D01*
X38930681Y999896D01*
X38934796Y995781D01*
X38939673Y992733D01*
X38945159Y990803D01*
G37*
G36*
X6426758Y990092D02*
G01*
X7517841Y990092D01*
X7524140Y990803D01*
X7529626Y992733D01*
X7534503Y995781D01*
X7538618Y999896D01*
X7541666Y1004773D01*
X7543596Y1010259D01*
X7544308Y1016558D01*
X7544308Y2107641D01*
X7543596Y2113940D01*
X7541666Y2119426D01*
X7538618Y2124303D01*
X7534503Y2128418D01*
X7529626Y2131466D01*
X7524140Y2133396D01*
X7517841Y2134108D01*
X6426758Y2134108D01*
X6420459Y2133396D01*
X6414973Y2131466D01*
X6410096Y2128418D01*
X6405981Y2124303D01*
X6402933Y2119426D01*
X6401003Y2113940D01*
X6400292Y2107641D01*
X6400292Y1016558D01*
X6401003Y1010259D01*
X6402933Y1004773D01*
X6405981Y999896D01*
X6410096Y995781D01*
X6414973Y992733D01*
X6420459Y990803D01*
G37*
G36*
X37172392Y990092D02*
G01*
X38263423Y990092D01*
X38269773Y990803D01*
X38275209Y992733D01*
X38280136Y995781D01*
X38284200Y999896D01*
X38287299Y1004773D01*
X38289179Y1010259D01*
X38289941Y1016558D01*
X38289941Y2107641D01*
X38289179Y2113940D01*
X38287299Y2119426D01*
X38284200Y2124303D01*
X38280136Y2128418D01*
X38275209Y2131466D01*
X38269773Y2133396D01*
X38263423Y2134108D01*
X37172392Y2134108D01*
X37166042Y2133396D01*
X37160606Y2131466D01*
X37155678Y2128418D01*
X37151614Y2124303D01*
X37148516Y2119426D01*
X37146636Y2113940D01*
X37145925Y2107641D01*
X37145925Y1016558D01*
X37146636Y1010259D01*
X37148516Y1004773D01*
X37151614Y999896D01*
X37155678Y995781D01*
X37160606Y992733D01*
X37166042Y990803D01*
G37*
G36*
X33329168Y990092D02*
G01*
X34420251Y990092D01*
X34426550Y990803D01*
X34432036Y992733D01*
X34436913Y995781D01*
X34441028Y999896D01*
X34444076Y1004773D01*
X34446006Y1010259D01*
X34446718Y1016558D01*
X34446718Y2107641D01*
X34446006Y2113940D01*
X34444076Y2119426D01*
X34441028Y2124303D01*
X34436913Y2128418D01*
X34432036Y2131466D01*
X34426550Y2133396D01*
X34420251Y2134108D01*
X33329168Y2134108D01*
X33322869Y2133396D01*
X33317383Y2131466D01*
X33312506Y2128418D01*
X33308391Y2124303D01*
X33305343Y2119426D01*
X33303413Y2113940D01*
X33302702Y2107641D01*
X33302702Y1016558D01*
X33303413Y1010259D01*
X33305343Y1004773D01*
X33308391Y999896D01*
X33312506Y995781D01*
X33317383Y992733D01*
X33322869Y990803D01*
G37*
G36*
X31265063Y990092D02*
G01*
X32356145Y990092D01*
X32362444Y990803D01*
X32367931Y992733D01*
X32372808Y995781D01*
X32376922Y999896D01*
X32379970Y1004773D01*
X32381901Y1010259D01*
X32382612Y1016558D01*
X32382612Y2107641D01*
X32381901Y2113940D01*
X32379970Y2119426D01*
X32376922Y2124303D01*
X32372808Y2128418D01*
X32367931Y2131466D01*
X32362444Y2133396D01*
X32356145Y2134108D01*
X31265063Y2134108D01*
X31258764Y2133396D01*
X31253277Y2131466D01*
X31248400Y2128418D01*
X31244286Y2124303D01*
X31241238Y2119426D01*
X31239307Y2113940D01*
X31238596Y2107641D01*
X31238596Y1016558D01*
X31239307Y1010259D01*
X31241238Y1004773D01*
X31244286Y999896D01*
X31248400Y995781D01*
X31253277Y992733D01*
X31258764Y990803D01*
G37*
G36*
X8205876Y990092D02*
G01*
X9296908Y990092D01*
X9303258Y990803D01*
X9308693Y992733D01*
X9313621Y995781D01*
X9317685Y999896D01*
X9320784Y1004773D01*
X9322663Y1010259D01*
X9323425Y1016558D01*
X9323425Y2107641D01*
X9322663Y2113940D01*
X9320784Y2119426D01*
X9317685Y2124303D01*
X9313621Y2128418D01*
X9308693Y2131466D01*
X9303258Y2133396D01*
X9296908Y2134108D01*
X8205876Y2134108D01*
X8199526Y2133396D01*
X8194090Y2131466D01*
X8189163Y2128418D01*
X8185099Y2124303D01*
X8182000Y2119426D01*
X8180120Y2113940D01*
X8179409Y2107641D01*
X8179409Y1016558D01*
X8180120Y1010259D01*
X8182000Y1004773D01*
X8185099Y999896D01*
X8189163Y995781D01*
X8194090Y992733D01*
X8199526Y990803D01*
G37*
G36*
X14113154Y990092D02*
G01*
X15204236Y990092D01*
X15210536Y990803D01*
X15216022Y992733D01*
X15220899Y995781D01*
X15225013Y999896D01*
X15228062Y1004773D01*
X15229992Y1010259D01*
X15230703Y1016558D01*
X15230703Y2107641D01*
X15229992Y2113940D01*
X15228062Y2119426D01*
X15225013Y2124303D01*
X15220899Y2128418D01*
X15216022Y2131466D01*
X15210536Y2133396D01*
X15204236Y2134108D01*
X14113154Y2134108D01*
X14106855Y2133396D01*
X14101368Y2131466D01*
X14096492Y2128418D01*
X14092377Y2124303D01*
X14089329Y2119426D01*
X14087398Y2113940D01*
X14086687Y2107641D01*
X14086687Y1016558D01*
X14087398Y1010259D01*
X14089329Y1004773D01*
X14092377Y999896D01*
X14096492Y995781D01*
X14101368Y992733D01*
X14106855Y990803D01*
G37*
G36*
X17956377Y2768092D02*
G01*
X19047409Y2768092D01*
X19053759Y2768803D01*
X19059194Y2770733D01*
X19064122Y2773781D01*
X19068186Y2777896D01*
X19071285Y2782773D01*
X19073164Y2788259D01*
X19073926Y2794558D01*
X19073926Y3885641D01*
X19073164Y3891940D01*
X19071285Y3897426D01*
X19068186Y3902303D01*
X19064122Y3906418D01*
X19059194Y3909466D01*
X19053759Y3911396D01*
X19047409Y3912108D01*
X17956377Y3912108D01*
X17950027Y3911396D01*
X17944592Y3909466D01*
X17939664Y3906418D01*
X17935600Y3902303D01*
X17932501Y3897426D01*
X17930622Y3891940D01*
X17929910Y3885641D01*
X17929910Y2794558D01*
X17930622Y2788259D01*
X17932501Y2782773D01*
X17935600Y2777896D01*
X17939664Y2773781D01*
X17944592Y2770733D01*
X17950027Y2768803D01*
G37*
G36*
X27421890Y2768092D02*
G01*
X28512922Y2768092D01*
X28519272Y2768803D01*
X28524708Y2770733D01*
X28529635Y2773781D01*
X28533699Y2777896D01*
X28536798Y2782773D01*
X28538677Y2788259D01*
X28539439Y2794558D01*
X28539439Y3885641D01*
X28538677Y3891940D01*
X28536798Y3897426D01*
X28533699Y3902303D01*
X28529635Y3906418D01*
X28524708Y3909466D01*
X28519272Y3911396D01*
X28512922Y3912108D01*
X27421890Y3912108D01*
X27415540Y3911396D01*
X27410105Y3909466D01*
X27405177Y3906418D01*
X27401113Y3902303D01*
X27398014Y3897426D01*
X27396135Y3891940D01*
X27395424Y3885641D01*
X27395424Y2794558D01*
X27396135Y2788259D01*
X27398014Y2782773D01*
X27401113Y2777896D01*
X27405177Y2773781D01*
X27410105Y2770733D01*
X27415540Y2768803D01*
G37*
G36*
X19735444Y2768092D02*
G01*
X20826526Y2768092D01*
X20832826Y2768803D01*
X20838312Y2770733D01*
X20843189Y2773781D01*
X20847304Y2777896D01*
X20850352Y2782773D01*
X20852282Y2788259D01*
X20852993Y2794558D01*
X20852993Y3885641D01*
X20852282Y3891940D01*
X20850352Y3897426D01*
X20847304Y3902303D01*
X20843189Y3906418D01*
X20838312Y3909466D01*
X20832826Y3911396D01*
X20826526Y3912108D01*
X19735444Y3912108D01*
X19729145Y3911396D01*
X19723658Y3909466D01*
X19718782Y3906418D01*
X19714667Y3902303D01*
X19711619Y3897426D01*
X19709688Y3891940D01*
X19708977Y3885641D01*
X19708977Y2794558D01*
X19709688Y2788259D01*
X19711619Y2782773D01*
X19714667Y2777896D01*
X19718782Y2773781D01*
X19723658Y2770733D01*
X19729145Y2768803D01*
G37*
G36*
X15892272Y2768092D02*
G01*
X16983303Y2768092D01*
X16989653Y2768803D01*
X16995089Y2770733D01*
X17000016Y2773781D01*
X17004080Y2777896D01*
X17007179Y2782773D01*
X17009059Y2788259D01*
X17009821Y2794558D01*
X17009821Y3885641D01*
X17009059Y3891940D01*
X17007179Y3897426D01*
X17004080Y3902303D01*
X17000016Y3906418D01*
X16995089Y3909466D01*
X16989653Y3911396D01*
X16983303Y3912108D01*
X15892272Y3912108D01*
X15885922Y3911396D01*
X15880486Y3909466D01*
X15875558Y3906418D01*
X15871494Y3902303D01*
X15868396Y3897426D01*
X15866516Y3891940D01*
X15865805Y3885641D01*
X15865805Y2794558D01*
X15866516Y2788259D01*
X15868396Y2782773D01*
X15871494Y2777896D01*
X15875558Y2773781D01*
X15880486Y2770733D01*
X15885922Y2768803D01*
G37*
G36*
X29485996Y2768092D02*
G01*
X30577027Y2768092D01*
X30583377Y2768803D01*
X30588813Y2770733D01*
X30593741Y2773781D01*
X30597805Y2777896D01*
X30600903Y2782773D01*
X30602783Y2788259D01*
X30603545Y2794558D01*
X30603545Y3885641D01*
X30602783Y3891940D01*
X30600903Y3897426D01*
X30597805Y3902303D01*
X30593741Y3906418D01*
X30588813Y3909466D01*
X30583377Y3911396D01*
X30577027Y3912108D01*
X29485996Y3912108D01*
X29479646Y3911396D01*
X29474210Y3909466D01*
X29469283Y3906418D01*
X29465219Y3902303D01*
X29462120Y3897426D01*
X29460240Y3891940D01*
X29459529Y3885641D01*
X29459529Y2794558D01*
X29460240Y2788259D01*
X29462120Y2782773D01*
X29465219Y2777896D01*
X29469283Y2773781D01*
X29474210Y2770733D01*
X29479646Y2768803D01*
G37*
G36*
X23578667Y2768092D02*
G01*
X24669699Y2768092D01*
X24676049Y2768803D01*
X24681484Y2770733D01*
X24686412Y2773781D01*
X24690476Y2777896D01*
X24693575Y2782773D01*
X24695454Y2788259D01*
X24696216Y2794558D01*
X24696216Y3885641D01*
X24695454Y3891940D01*
X24693575Y3897426D01*
X24690476Y3902303D01*
X24686412Y3906418D01*
X24681484Y3909466D01*
X24676049Y3911396D01*
X24669699Y3912108D01*
X23578667Y3912108D01*
X23572317Y3911396D01*
X23566882Y3909466D01*
X23561954Y3906418D01*
X23557890Y3902303D01*
X23554791Y3897426D01*
X23552912Y3891940D01*
X23552200Y3885641D01*
X23552200Y2794558D01*
X23552912Y2788259D01*
X23554791Y2782773D01*
X23557890Y2777896D01*
X23561954Y2773781D01*
X23566882Y2770733D01*
X23572317Y2768803D01*
G37*
G36*
X35108286Y2768092D02*
G01*
X36199318Y2768092D01*
X36205668Y2768803D01*
X36211103Y2770733D01*
X36216031Y2773781D01*
X36220095Y2777896D01*
X36223194Y2782773D01*
X36225073Y2788259D01*
X36225835Y2794558D01*
X36225835Y3885641D01*
X36225073Y3891940D01*
X36223194Y3897426D01*
X36220095Y3902303D01*
X36216031Y3906418D01*
X36211103Y3909466D01*
X36205668Y3911396D01*
X36199318Y3912108D01*
X35108286Y3912108D01*
X35101936Y3911396D01*
X35096500Y3909466D01*
X35091573Y3906418D01*
X35087509Y3902303D01*
X35084410Y3897426D01*
X35082530Y3891940D01*
X35081819Y3885641D01*
X35081819Y2794558D01*
X35082530Y2788259D01*
X35084410Y2782773D01*
X35087509Y2777896D01*
X35091573Y2773781D01*
X35096500Y2770733D01*
X35101936Y2768803D01*
G37*
G36*
X25642773Y2768092D02*
G01*
X26733855Y2768092D01*
X26740154Y2768803D01*
X26745641Y2770733D01*
X26750518Y2773781D01*
X26754632Y2777896D01*
X26757680Y2782773D01*
X26759611Y2788259D01*
X26760322Y2794558D01*
X26760322Y3885641D01*
X26759611Y3891940D01*
X26757680Y3897426D01*
X26754632Y3902303D01*
X26750518Y3906418D01*
X26745641Y3909466D01*
X26740154Y3911396D01*
X26733855Y3912108D01*
X25642773Y3912108D01*
X25636474Y3911396D01*
X25630987Y3909466D01*
X25626110Y3906418D01*
X25621996Y3902303D01*
X25618948Y3897426D01*
X25617017Y3891940D01*
X25616306Y3885641D01*
X25616306Y2794558D01*
X25617017Y2788259D01*
X25618948Y2782773D01*
X25621996Y2777896D01*
X25626110Y2773781D01*
X25630987Y2770733D01*
X25636474Y2768803D01*
G37*
G36*
X10269982Y2768092D02*
G01*
X11361013Y2768092D01*
X11367363Y2768803D01*
X11372799Y2770733D01*
X11377726Y2773781D01*
X11381790Y2777896D01*
X11384889Y2782773D01*
X11386769Y2788259D01*
X11387531Y2794558D01*
X11387531Y3885641D01*
X11386769Y3891940D01*
X11384889Y3897426D01*
X11381790Y3902303D01*
X11377726Y3906418D01*
X11372799Y3909466D01*
X11367363Y3911396D01*
X11361013Y3912108D01*
X10269982Y3912108D01*
X10263632Y3911396D01*
X10258196Y3909466D01*
X10253268Y3906418D01*
X10249204Y3902303D01*
X10246106Y3897426D01*
X10244226Y3891940D01*
X10243515Y3885641D01*
X10243515Y2794558D01*
X10244226Y2788259D01*
X10246106Y2782773D01*
X10249204Y2777896D01*
X10253268Y2773781D01*
X10258196Y2770733D01*
X10263632Y2768803D01*
G37*
G36*
X21799600Y2768092D02*
G01*
X22890632Y2768092D01*
X22896982Y2768803D01*
X22902418Y2770733D01*
X22907345Y2773781D01*
X22911409Y2777896D01*
X22914508Y2782773D01*
X22916388Y2788259D01*
X22917150Y2794558D01*
X22917150Y3885641D01*
X22916388Y3891940D01*
X22914508Y3897426D01*
X22911409Y3902303D01*
X22907345Y3906418D01*
X22902418Y3909466D01*
X22896982Y3911396D01*
X22890632Y3912108D01*
X21799600Y3912108D01*
X21793250Y3911396D01*
X21787815Y3909466D01*
X21782887Y3906418D01*
X21778823Y3902303D01*
X21775724Y3897426D01*
X21773845Y3891940D01*
X21773134Y3885641D01*
X21773134Y2794558D01*
X21773845Y2788259D01*
X21775724Y2782773D01*
X21778823Y2777896D01*
X21782887Y2773781D01*
X21787815Y2770733D01*
X21793250Y2768803D01*
G37*
G36*
X8205876Y2768092D02*
G01*
X9296908Y2768092D01*
X9303258Y2768803D01*
X9308693Y2770733D01*
X9313621Y2773781D01*
X9317685Y2777896D01*
X9320784Y2782773D01*
X9322663Y2788259D01*
X9323425Y2794558D01*
X9323425Y3885641D01*
X9322663Y3891940D01*
X9320784Y3897426D01*
X9317685Y3902303D01*
X9313621Y3906418D01*
X9308693Y3909466D01*
X9303258Y3911396D01*
X9296908Y3912108D01*
X8205876Y3912108D01*
X8199526Y3911396D01*
X8194090Y3909466D01*
X8189163Y3906418D01*
X8185099Y3902303D01*
X8182000Y3897426D01*
X8180120Y3891940D01*
X8179409Y3885641D01*
X8179409Y2794558D01*
X8180120Y2788259D01*
X8182000Y2782773D01*
X8185099Y2777896D01*
X8189163Y2773781D01*
X8194090Y2770733D01*
X8199526Y2768803D01*
G37*
G36*
X12049048Y2768092D02*
G01*
X13140131Y2768092D01*
X13146430Y2768803D01*
X13151916Y2770733D01*
X13156793Y2773781D01*
X13160908Y2777896D01*
X13163956Y2782773D01*
X13165886Y2788259D01*
X13166598Y2794558D01*
X13166598Y3885641D01*
X13165886Y3891940D01*
X13163956Y3897426D01*
X13160908Y3902303D01*
X13156793Y3906418D01*
X13151916Y3909466D01*
X13146430Y3911396D01*
X13140131Y3912108D01*
X12049048Y3912108D01*
X12042749Y3911396D01*
X12037263Y3909466D01*
X12032386Y3906418D01*
X12028271Y3902303D01*
X12025223Y3897426D01*
X12023293Y3891940D01*
X12022582Y3885641D01*
X12022582Y2794558D01*
X12023293Y2788259D01*
X12025223Y2782773D01*
X12028271Y2777896D01*
X12032386Y2773781D01*
X12037263Y2770733D01*
X12042749Y2768803D01*
G37*
G36*
X14113154Y2768092D02*
G01*
X15204236Y2768092D01*
X15210536Y2768803D01*
X15216022Y2770733D01*
X15220899Y2773781D01*
X15225013Y2777896D01*
X15228062Y2782773D01*
X15229992Y2788259D01*
X15230703Y2794558D01*
X15230703Y3885641D01*
X15229992Y3891940D01*
X15228062Y3897426D01*
X15225013Y3902303D01*
X15220899Y3906418D01*
X15216022Y3909466D01*
X15210536Y3911396D01*
X15204236Y3912108D01*
X14113154Y3912108D01*
X14106855Y3911396D01*
X14101368Y3909466D01*
X14096492Y3906418D01*
X14092377Y3902303D01*
X14089329Y3897426D01*
X14087398Y3891940D01*
X14086687Y3885641D01*
X14086687Y2794558D01*
X14087398Y2788259D01*
X14089329Y2782773D01*
X14092377Y2777896D01*
X14096492Y2773781D01*
X14101368Y2770733D01*
X14106855Y2768803D01*
G37*
G36*
X37172392Y2768092D02*
G01*
X38263423Y2768092D01*
X38269773Y2768803D01*
X38275209Y2770733D01*
X38280136Y2773781D01*
X38284200Y2777896D01*
X38287299Y2782773D01*
X38289179Y2788259D01*
X38289941Y2794558D01*
X38289941Y3885641D01*
X38289179Y3891940D01*
X38287299Y3897426D01*
X38284200Y3902303D01*
X38280136Y3906418D01*
X38275209Y3909466D01*
X38269773Y3911396D01*
X38263423Y3912108D01*
X37172392Y3912108D01*
X37166042Y3911396D01*
X37160606Y3909466D01*
X37155678Y3906418D01*
X37151614Y3902303D01*
X37148516Y3897426D01*
X37146636Y3891940D01*
X37145925Y3885641D01*
X37145925Y2794558D01*
X37146636Y2788259D01*
X37148516Y2782773D01*
X37151614Y2777896D01*
X37155678Y2773781D01*
X37160606Y2770733D01*
X37166042Y2768803D01*
G37*
G36*
X33329168Y2768092D02*
G01*
X34420251Y2768092D01*
X34426550Y2768803D01*
X34432036Y2770733D01*
X34436913Y2773781D01*
X34441028Y2777896D01*
X34444076Y2782773D01*
X34446006Y2788259D01*
X34446718Y2794558D01*
X34446718Y3885641D01*
X34446006Y3891940D01*
X34444076Y3897426D01*
X34441028Y3902303D01*
X34436913Y3906418D01*
X34432036Y3909466D01*
X34426550Y3911396D01*
X34420251Y3912108D01*
X33329168Y3912108D01*
X33322869Y3911396D01*
X33317383Y3909466D01*
X33312506Y3906418D01*
X33308391Y3902303D01*
X33305343Y3897426D01*
X33303413Y3891940D01*
X33302702Y3885641D01*
X33302702Y2794558D01*
X33303413Y2788259D01*
X33305343Y2782773D01*
X33308391Y2777896D01*
X33312506Y2773781D01*
X33317383Y2770733D01*
X33322869Y2768803D01*
G37*
G36*
X31265063Y2768092D02*
G01*
X32356145Y2768092D01*
X32362444Y2768803D01*
X32367931Y2770733D01*
X32372808Y2773781D01*
X32376922Y2777896D01*
X32379970Y2782773D01*
X32381901Y2788259D01*
X32382612Y2794558D01*
X32382612Y3885641D01*
X32381901Y3891940D01*
X32379970Y3897426D01*
X32376922Y3902303D01*
X32372808Y3906418D01*
X32367931Y3909466D01*
X32362444Y3911396D01*
X32356145Y3912108D01*
X31265063Y3912108D01*
X31258764Y3911396D01*
X31253277Y3909466D01*
X31248400Y3906418D01*
X31244286Y3902303D01*
X31241238Y3897426D01*
X31239307Y3891940D01*
X31238596Y3885641D01*
X31238596Y2794558D01*
X31239307Y2788259D01*
X31241238Y2782773D01*
X31244286Y2777896D01*
X31248400Y2773781D01*
X31253277Y2770733D01*
X31258764Y2768803D01*
G37*
G36*
X38951458Y2768092D02*
G01*
X40042541Y2768092D01*
X40048840Y2768803D01*
X40054326Y2770733D01*
X40059203Y2773781D01*
X40063318Y2777896D01*
X40066366Y2782773D01*
X40068296Y2788259D01*
X40069008Y2794558D01*
X40069008Y3885641D01*
X40068296Y3891940D01*
X40066366Y3897426D01*
X40063318Y3902303D01*
X40059203Y3906418D01*
X40054326Y3909466D01*
X40048840Y3911396D01*
X40042541Y3912108D01*
X38951458Y3912108D01*
X38945159Y3911396D01*
X38939673Y3909466D01*
X38934796Y3906418D01*
X38930681Y3902303D01*
X38927633Y3897426D01*
X38925703Y3891940D01*
X38924992Y3885641D01*
X38924992Y2794558D01*
X38925703Y2788259D01*
X38927633Y2782773D01*
X38930681Y2777896D01*
X38934796Y2773781D01*
X38939673Y2770733D01*
X38945159Y2768803D01*
G37*
G36*
X6426758Y2768092D02*
G01*
X7517841Y2768092D01*
X7524140Y2768803D01*
X7529626Y2770733D01*
X7534503Y2773781D01*
X7538618Y2777896D01*
X7541666Y2782773D01*
X7543596Y2788259D01*
X7544308Y2794558D01*
X7544308Y3885641D01*
X7543596Y3891940D01*
X7541666Y3897426D01*
X7538618Y3902303D01*
X7534503Y3906418D01*
X7529626Y3909466D01*
X7524140Y3911396D01*
X7517841Y3912108D01*
X6426758Y3912108D01*
X6420459Y3911396D01*
X6414973Y3909466D01*
X6410096Y3906418D01*
X6405981Y3902303D01*
X6402933Y3897426D01*
X6401003Y3891940D01*
X6400292Y3885641D01*
X6400292Y2794558D01*
X6401003Y2788259D01*
X6402933Y2782773D01*
X6405981Y2777896D01*
X6410096Y2773781D01*
X6414973Y2770733D01*
X6420459Y2768803D01*
G37*
G36*
X29001618Y4449876D02*
G01*
X29016756Y4450791D01*
X29031742Y4453534D01*
X29046220Y4458055D01*
X29060089Y4464304D01*
X29073094Y4472178D01*
X29085082Y4481576D01*
X29095801Y4492294D01*
X29105199Y4504283D01*
X29113073Y4517288D01*
X29119322Y4531156D01*
X29123843Y4545634D01*
X29126586Y4560620D01*
X29127500Y4575759D01*
X29126586Y4590948D01*
X29123843Y4605934D01*
X29119322Y4620412D01*
X29113073Y4634280D01*
X29105199Y4647285D01*
X29095801Y4659274D01*
X29085082Y4669993D01*
X29073094Y4679391D01*
X29060089Y4687265D01*
X29046220Y4693513D01*
X29031742Y4698034D01*
X29016756Y4700778D01*
X29001618Y4701692D01*
X28986429Y4700778D01*
X28971443Y4698034D01*
X28956965Y4693513D01*
X28943096Y4687265D01*
X28930092Y4679391D01*
X28918103Y4669993D01*
X28907384Y4659274D01*
X28897986Y4647285D01*
X28890112Y4634280D01*
X28883864Y4620412D01*
X28879342Y4605934D01*
X28876599Y4590948D01*
X28875685Y4575759D01*
X28876599Y4560620D01*
X28879342Y4545634D01*
X28883864Y4531156D01*
X28890112Y4517288D01*
X28897986Y4504283D01*
X28907384Y4492294D01*
X28918103Y4481576D01*
X28930092Y4472178D01*
X28943096Y4464304D01*
X28956965Y4458055D01*
X28971443Y4453534D01*
X28986429Y4450791D01*
G37*
G36*
X17471999Y4449876D02*
G01*
X17487138Y4450791D01*
X17502124Y4453534D01*
X17516602Y4458055D01*
X17530470Y4464304D01*
X17543475Y4472178D01*
X17555464Y4481576D01*
X17566182Y4492294D01*
X17575580Y4504283D01*
X17583454Y4517288D01*
X17589703Y4531156D01*
X17594224Y4545634D01*
X17596967Y4560620D01*
X17597882Y4575759D01*
X17596967Y4590948D01*
X17594224Y4605934D01*
X17589703Y4620412D01*
X17583454Y4634280D01*
X17575580Y4647285D01*
X17566182Y4659274D01*
X17555464Y4669993D01*
X17543475Y4679391D01*
X17530470Y4687265D01*
X17516602Y4693513D01*
X17502124Y4698034D01*
X17487138Y4700778D01*
X17471999Y4701692D01*
X17456810Y4700778D01*
X17441824Y4698034D01*
X17427346Y4693513D01*
X17413478Y4687265D01*
X17400473Y4679391D01*
X17388484Y4669993D01*
X17377765Y4659274D01*
X17368367Y4647285D01*
X17360493Y4634280D01*
X17354245Y4620412D01*
X17349724Y4605934D01*
X17346980Y4590948D01*
X17346066Y4575759D01*
X17346980Y4560620D01*
X17349724Y4545634D01*
X17354245Y4531156D01*
X17360493Y4517288D01*
X17368367Y4504283D01*
X17377765Y4492294D01*
X17388484Y4481576D01*
X17400473Y4472178D01*
X17413478Y4464304D01*
X17427346Y4458055D01*
X17441824Y4453534D01*
X17456810Y4450791D01*
G37*
G36*
X32844790Y4449876D02*
G01*
X32859980Y4450791D01*
X32874915Y4453534D01*
X32889444Y4458055D01*
X32903312Y4464304D01*
X32916317Y4472178D01*
X32928255Y4481576D01*
X32939024Y4492294D01*
X32948372Y4504283D01*
X32956246Y4517288D01*
X32962494Y4531156D01*
X32967015Y4545634D01*
X32969758Y4560620D01*
X32970673Y4575759D01*
X32969758Y4590948D01*
X32967015Y4605934D01*
X32962494Y4620412D01*
X32956246Y4634280D01*
X32948372Y4647285D01*
X32939024Y4659274D01*
X32928255Y4669993D01*
X32916317Y4679391D01*
X32903312Y4687265D01*
X32889444Y4693513D01*
X32874915Y4698034D01*
X32859980Y4700778D01*
X32844790Y4701692D01*
X32829601Y4700778D01*
X32814666Y4698034D01*
X32800137Y4693513D01*
X32786269Y4687265D01*
X32773264Y4679391D01*
X32761326Y4669993D01*
X32750556Y4659274D01*
X32741209Y4647285D01*
X32733335Y4634280D01*
X32727087Y4620412D01*
X32722565Y4605934D01*
X32719822Y4590948D01*
X32718908Y4575759D01*
X32719822Y4560620D01*
X32722565Y4545634D01*
X32727087Y4531156D01*
X32733335Y4517288D01*
X32741209Y4504283D01*
X32750556Y4492294D01*
X32761326Y4481576D01*
X32773264Y4472178D01*
X32786269Y4464304D01*
X32800137Y4458055D01*
X32814666Y4453534D01*
X32829601Y4450791D01*
G37*
G36*
X21315172Y4449876D02*
G01*
X21330361Y4450791D01*
X21345296Y4453534D01*
X21359825Y4458055D01*
X21373693Y4464304D01*
X21386698Y4472178D01*
X21398636Y4481576D01*
X21409406Y4492294D01*
X21418753Y4504283D01*
X21426627Y4517288D01*
X21432875Y4531156D01*
X21437396Y4545634D01*
X21440140Y4560620D01*
X21441054Y4575759D01*
X21440140Y4590948D01*
X21437396Y4605934D01*
X21432875Y4620412D01*
X21426627Y4634280D01*
X21418753Y4647285D01*
X21409406Y4659274D01*
X21398636Y4669993D01*
X21386698Y4679391D01*
X21373693Y4687265D01*
X21359825Y4693513D01*
X21345296Y4698034D01*
X21330361Y4700778D01*
X21315172Y4701692D01*
X21299982Y4700778D01*
X21285047Y4698034D01*
X21270518Y4693513D01*
X21256650Y4687265D01*
X21243645Y4679391D01*
X21231707Y4669993D01*
X21220938Y4659274D01*
X21211590Y4647285D01*
X21203716Y4634280D01*
X21197468Y4620412D01*
X21192947Y4605934D01*
X21190204Y4590948D01*
X21189289Y4575759D01*
X21190204Y4560620D01*
X21192947Y4545634D01*
X21197468Y4531156D01*
X21203716Y4517288D01*
X21211590Y4504283D01*
X21220938Y4492294D01*
X21231707Y4481576D01*
X21243645Y4472178D01*
X21256650Y4464304D01*
X21270518Y4458055D01*
X21285047Y4453534D01*
X21299982Y4450791D01*
G37*
G36*
X36688014Y4449876D02*
G01*
X36703152Y4450791D01*
X36718138Y4453534D01*
X36732616Y4458055D01*
X36746484Y4464304D01*
X36759489Y4472178D01*
X36771478Y4481576D01*
X36782197Y4492294D01*
X36791595Y4504283D01*
X36799469Y4517288D01*
X36805717Y4531156D01*
X36810238Y4545634D01*
X36812982Y4560620D01*
X36813896Y4575759D01*
X36812982Y4590948D01*
X36810238Y4605934D01*
X36805717Y4620412D01*
X36799469Y4634280D01*
X36791595Y4647285D01*
X36782197Y4659274D01*
X36771478Y4669993D01*
X36759489Y4679391D01*
X36746484Y4687265D01*
X36732616Y4693513D01*
X36718138Y4698034D01*
X36703152Y4700778D01*
X36688014Y4701692D01*
X36672824Y4700778D01*
X36657838Y4698034D01*
X36643360Y4693513D01*
X36629492Y4687265D01*
X36616487Y4679391D01*
X36604498Y4669993D01*
X36593780Y4659274D01*
X36584382Y4647285D01*
X36576508Y4634280D01*
X36570259Y4620412D01*
X36565738Y4605934D01*
X36562995Y4590948D01*
X36562080Y4575759D01*
X36562995Y4560620D01*
X36565738Y4545634D01*
X36570259Y4531156D01*
X36576508Y4517288D01*
X36584382Y4504283D01*
X36593780Y4492294D01*
X36604498Y4481576D01*
X36616487Y4472178D01*
X36629492Y4464304D01*
X36643360Y4458055D01*
X36657838Y4453534D01*
X36672824Y4450791D01*
G37*
G36*
X25158395Y4449876D02*
G01*
X25173584Y4450791D01*
X25188519Y4453534D01*
X25203048Y4458055D01*
X25216916Y4464304D01*
X25229921Y4472178D01*
X25241859Y4481576D01*
X25252629Y4492294D01*
X25261976Y4504283D01*
X25269850Y4517288D01*
X25276098Y4531156D01*
X25280620Y4545634D01*
X25283363Y4560620D01*
X25284277Y4575759D01*
X25283363Y4590948D01*
X25280620Y4605934D01*
X25276098Y4620412D01*
X25269850Y4634280D01*
X25261976Y4647285D01*
X25252629Y4659274D01*
X25241859Y4669993D01*
X25229921Y4679391D01*
X25216916Y4687265D01*
X25203048Y4693513D01*
X25188519Y4698034D01*
X25173584Y4700778D01*
X25158395Y4701692D01*
X25143206Y4700778D01*
X25128270Y4698034D01*
X25113742Y4693513D01*
X25099873Y4687265D01*
X25086868Y4679391D01*
X25074930Y4669993D01*
X25064161Y4659274D01*
X25054814Y4647285D01*
X25046940Y4634280D01*
X25040691Y4620412D01*
X25036170Y4605934D01*
X25033427Y4590948D01*
X25032512Y4575759D01*
X25033427Y4560620D01*
X25036170Y4545634D01*
X25040691Y4531156D01*
X25046940Y4517288D01*
X25054814Y4504283D01*
X25064161Y4492294D01*
X25074930Y4481576D01*
X25086868Y4472178D01*
X25099873Y4464304D01*
X25113742Y4458055D01*
X25128270Y4453534D01*
X25143206Y4450791D01*
G37*
G36*
X17471999Y559917D02*
G01*
X17487138Y560832D01*
X17502124Y563575D01*
X17516602Y568096D01*
X17530470Y574344D01*
X17543475Y582218D01*
X17555464Y591566D01*
X17566182Y602335D01*
X17575580Y614273D01*
X17583454Y627278D01*
X17589703Y641146D01*
X17594224Y655675D01*
X17596967Y670610D01*
X17597882Y685800D01*
X17596967Y700989D01*
X17594224Y715924D01*
X17589703Y730453D01*
X17583454Y744321D01*
X17575580Y757326D01*
X17566182Y769264D01*
X17555464Y780034D01*
X17543475Y789381D01*
X17530470Y797255D01*
X17516602Y803503D01*
X17502124Y808024D01*
X17487138Y810768D01*
X17471999Y811682D01*
X17456810Y810768D01*
X17441824Y808024D01*
X17427346Y803503D01*
X17413478Y797255D01*
X17400473Y789381D01*
X17388484Y780034D01*
X17377765Y769264D01*
X17368367Y757326D01*
X17360493Y744321D01*
X17354245Y730453D01*
X17349724Y715924D01*
X17346980Y700989D01*
X17346066Y685800D01*
X17346980Y670610D01*
X17349724Y655675D01*
X17354245Y641146D01*
X17360493Y627278D01*
X17368367Y614273D01*
X17377765Y602335D01*
X17388484Y591566D01*
X17400473Y582218D01*
X17413478Y574344D01*
X17427346Y568096D01*
X17441824Y563575D01*
X17456810Y560832D01*
G37*
G36*
X9785604Y4449876D02*
G01*
X9800742Y4450791D01*
X9815728Y4453534D01*
X9830206Y4458055D01*
X9844074Y4464304D01*
X9857079Y4472178D01*
X9869068Y4481576D01*
X9879787Y4492294D01*
X9889185Y4504283D01*
X9897059Y4517288D01*
X9903307Y4531156D01*
X9907828Y4545634D01*
X9910572Y4560620D01*
X9911486Y4575759D01*
X9910572Y4590948D01*
X9907828Y4605934D01*
X9903307Y4620412D01*
X9897059Y4634280D01*
X9889185Y4647285D01*
X9879787Y4659274D01*
X9869068Y4669993D01*
X9857079Y4679391D01*
X9844074Y4687265D01*
X9830206Y4693513D01*
X9815728Y4698034D01*
X9800742Y4700778D01*
X9785604Y4701692D01*
X9770414Y4700778D01*
X9755428Y4698034D01*
X9740950Y4693513D01*
X9727082Y4687265D01*
X9714077Y4679391D01*
X9702088Y4669993D01*
X9691370Y4659274D01*
X9681972Y4647285D01*
X9674098Y4634280D01*
X9667849Y4620412D01*
X9663328Y4605934D01*
X9660585Y4590948D01*
X9659670Y4575759D01*
X9660585Y4560620D01*
X9663328Y4545634D01*
X9667849Y4531156D01*
X9674098Y4517288D01*
X9681972Y4504283D01*
X9691370Y4492294D01*
X9702088Y4481576D01*
X9714077Y4472178D01*
X9727082Y4464304D01*
X9740950Y4458055D01*
X9755428Y4453534D01*
X9770414Y4450791D01*
G37*
G36*
X40335200Y4934762D02*
G01*
X40345004Y4935626D01*
X40354453Y4938166D01*
X40363394Y4942281D01*
X40371420Y4947920D01*
X40378380Y4954879D01*
X40384018Y4962906D01*
X40388133Y4971846D01*
X40390673Y4981295D01*
X40391537Y4991100D01*
X40390673Y5000904D01*
X40388133Y5010353D01*
X40384018Y5019294D01*
X40378380Y5027320D01*
X40376805Y5028895D01*
X40374570Y5032197D01*
X40373808Y5036108D01*
X40373808Y7333691D01*
X40374570Y7337602D01*
X40376805Y7340904D01*
X40378380Y7342479D01*
X40384018Y7350506D01*
X40388133Y7359446D01*
X40390673Y7368895D01*
X40391537Y7378700D01*
X40390673Y7388504D01*
X40388133Y7397953D01*
X40384018Y7406894D01*
X40378380Y7414920D01*
X40371420Y7421880D01*
X40363394Y7427518D01*
X40354453Y7431633D01*
X40345004Y7434173D01*
X40335200Y7435037D01*
X40325395Y7434173D01*
X40315946Y7431633D01*
X40307006Y7427518D01*
X40298979Y7421880D01*
X40292020Y7414920D01*
X40286381Y7406894D01*
X40282266Y7397953D01*
X40279726Y7388504D01*
X40278862Y7378700D01*
X40279726Y7368895D01*
X40282266Y7359446D01*
X40286381Y7350506D01*
X40292020Y7342479D01*
X40293594Y7340904D01*
X40295830Y7337602D01*
X40296592Y7333691D01*
X40296592Y5036108D01*
X40295830Y5032197D01*
X40293594Y5028895D01*
X40292020Y5027320D01*
X40286381Y5019294D01*
X40282266Y5010353D01*
X40279726Y5000904D01*
X40278862Y4991100D01*
X40279726Y4981295D01*
X40282266Y4971846D01*
X40286381Y4962906D01*
X40292020Y4954879D01*
X40298979Y4947920D01*
X40307006Y4942281D01*
X40315946Y4938166D01*
X40325395Y4935626D01*
G37*
G36*
X5588000Y5036362D02*
G01*
X5597804Y5037226D01*
X5607253Y5039766D01*
X5616194Y5043881D01*
X5624220Y5049520D01*
X5631180Y5056479D01*
X5636818Y5064506D01*
X5640933Y5073446D01*
X5643473Y5082895D01*
X5644337Y5092700D01*
X5643473Y5102504D01*
X5640933Y5111953D01*
X5636818Y5120894D01*
X5631180Y5128920D01*
X5629605Y5130495D01*
X5627370Y5133797D01*
X5626608Y5137708D01*
X5626608Y5796991D01*
X5627370Y5800902D01*
X5629605Y5804204D01*
X5631180Y5805779D01*
X5636818Y5813806D01*
X5640933Y5822746D01*
X5643473Y5832195D01*
X5644337Y5842000D01*
X5643473Y5851804D01*
X5640933Y5861253D01*
X5636818Y5870194D01*
X5631180Y5878220D01*
X5624220Y5885180D01*
X5616194Y5890818D01*
X5607253Y5894933D01*
X5597804Y5897473D01*
X5588000Y5898337D01*
X5578195Y5897473D01*
X5568746Y5894933D01*
X5559806Y5890818D01*
X5551779Y5885180D01*
X5544820Y5878220D01*
X5539181Y5870194D01*
X5535066Y5861253D01*
X5532526Y5851804D01*
X5531662Y5842000D01*
X5532526Y5832195D01*
X5535066Y5822746D01*
X5539181Y5813806D01*
X5544820Y5805779D01*
X5546394Y5804204D01*
X5548630Y5800902D01*
X5549392Y5796991D01*
X5549392Y5137708D01*
X5548630Y5133797D01*
X5546394Y5130495D01*
X5544820Y5128920D01*
X5539181Y5120894D01*
X5535066Y5111953D01*
X5532526Y5102504D01*
X5531662Y5092700D01*
X5532526Y5082895D01*
X5535066Y5073446D01*
X5539181Y5064506D01*
X5544820Y5056479D01*
X5551779Y5049520D01*
X5559806Y5043881D01*
X5568746Y5039766D01*
X5578195Y5037226D01*
G37*
G36*
X43967400Y5036362D02*
G01*
X43977204Y5037226D01*
X43986653Y5039766D01*
X43995594Y5043881D01*
X44003620Y5049520D01*
X44010580Y5056479D01*
X44016218Y5064506D01*
X44020333Y5073446D01*
X44022873Y5082895D01*
X44023737Y5092700D01*
X44022873Y5102504D01*
X44020333Y5111953D01*
X44016218Y5120894D01*
X44010580Y5128920D01*
X44009005Y5130495D01*
X44006770Y5133797D01*
X44006008Y5137708D01*
X44006008Y6050991D01*
X44006770Y6054902D01*
X44009005Y6058204D01*
X44010580Y6059779D01*
X44016218Y6067806D01*
X44020333Y6076746D01*
X44022873Y6086195D01*
X44023737Y6096000D01*
X44022873Y6105804D01*
X44020333Y6115253D01*
X44016218Y6124194D01*
X44010580Y6132220D01*
X44003620Y6139180D01*
X43995594Y6144818D01*
X43986653Y6148933D01*
X43977204Y6151473D01*
X43967400Y6152337D01*
X43957595Y6151473D01*
X43948146Y6148933D01*
X43939206Y6144818D01*
X43931179Y6139180D01*
X43924220Y6132220D01*
X43918581Y6124194D01*
X43914466Y6115253D01*
X43911926Y6105804D01*
X43911062Y6096000D01*
X43911926Y6086195D01*
X43914466Y6076746D01*
X43918581Y6067806D01*
X43924220Y6059779D01*
X43925794Y6058204D01*
X43928030Y6054902D01*
X43928792Y6050991D01*
X43928792Y5137708D01*
X43928030Y5133797D01*
X43925794Y5130495D01*
X43924220Y5128920D01*
X43918581Y5120894D01*
X43914466Y5111953D01*
X43911926Y5102504D01*
X43911062Y5092700D01*
X43911926Y5082895D01*
X43914466Y5073446D01*
X43918581Y5064506D01*
X43924220Y5056479D01*
X43931179Y5049520D01*
X43939206Y5043881D01*
X43948146Y5039766D01*
X43957595Y5037226D01*
G37*
G36*
X28803600Y5366562D02*
G01*
X28813404Y5367426D01*
X28822853Y5369966D01*
X28831794Y5374081D01*
X28839820Y5379720D01*
X28846780Y5386679D01*
X28852418Y5394706D01*
X28856533Y5403646D01*
X28859073Y5413095D01*
X28859937Y5422900D01*
X28859073Y5432704D01*
X28856533Y5442153D01*
X28852418Y5451094D01*
X28846780Y5459120D01*
X28845205Y5460695D01*
X28842970Y5463997D01*
X28842208Y5467908D01*
X28842208Y7333691D01*
X28842970Y7337602D01*
X28845205Y7340904D01*
X28846780Y7342479D01*
X28852418Y7350506D01*
X28856533Y7359446D01*
X28859073Y7368895D01*
X28859937Y7378700D01*
X28859073Y7388504D01*
X28856533Y7397953D01*
X28852418Y7406894D01*
X28846780Y7414920D01*
X28839820Y7421880D01*
X28831794Y7427518D01*
X28822853Y7431633D01*
X28813404Y7434173D01*
X28803600Y7435037D01*
X28793795Y7434173D01*
X28784346Y7431633D01*
X28775406Y7427518D01*
X28767379Y7421880D01*
X28760420Y7414920D01*
X28754781Y7406894D01*
X28750666Y7397953D01*
X28748126Y7388504D01*
X28747262Y7378700D01*
X28748126Y7368895D01*
X28750666Y7359446D01*
X28754781Y7350506D01*
X28760420Y7342479D01*
X28761994Y7340904D01*
X28764230Y7337602D01*
X28764992Y7333691D01*
X28764992Y5467908D01*
X28764230Y5463997D01*
X28761994Y5460695D01*
X28760420Y5459120D01*
X28754781Y5451094D01*
X28750666Y5442153D01*
X28748126Y5432704D01*
X28747262Y5422900D01*
X28748126Y5413095D01*
X28750666Y5403646D01*
X28754781Y5394706D01*
X28760420Y5386679D01*
X28767379Y5379720D01*
X28775406Y5374081D01*
X28784346Y5369966D01*
X28793795Y5367426D01*
G37*
G36*
X18249900Y5366562D02*
G01*
X18259704Y5367426D01*
X18269153Y5369966D01*
X18278094Y5374081D01*
X18286120Y5379720D01*
X18293080Y5386679D01*
X18298718Y5394706D01*
X18302833Y5403646D01*
X18305373Y5413095D01*
X18306237Y5422900D01*
X18305373Y5432704D01*
X18302833Y5442153D01*
X18298718Y5451094D01*
X18293080Y5459120D01*
X18291505Y5460695D01*
X18289270Y5463997D01*
X18288508Y5467908D01*
X18288508Y7333691D01*
X18289270Y7337602D01*
X18291505Y7340904D01*
X18293080Y7342479D01*
X18298718Y7350506D01*
X18302833Y7359446D01*
X18305373Y7368895D01*
X18306237Y7378700D01*
X18305373Y7388504D01*
X18302833Y7397953D01*
X18298718Y7406894D01*
X18293080Y7414920D01*
X18286120Y7421880D01*
X18278094Y7427518D01*
X18269153Y7431633D01*
X18259704Y7434173D01*
X18249900Y7435037D01*
X18240095Y7434173D01*
X18230646Y7431633D01*
X18221706Y7427518D01*
X18213679Y7421880D01*
X18206720Y7414920D01*
X18201081Y7406894D01*
X18196966Y7397953D01*
X18194426Y7388504D01*
X18193562Y7378700D01*
X18194426Y7368895D01*
X18196966Y7359446D01*
X18201081Y7350506D01*
X18206720Y7342479D01*
X18208294Y7340904D01*
X18210530Y7337602D01*
X18211292Y7333691D01*
X18211292Y5467908D01*
X18210530Y5463997D01*
X18208294Y5460695D01*
X18206720Y5459120D01*
X18201081Y5451094D01*
X18196966Y5442153D01*
X18194426Y5432704D01*
X18193562Y5422900D01*
X18194426Y5413095D01*
X18196966Y5403646D01*
X18201081Y5394706D01*
X18206720Y5386679D01*
X18213679Y5379720D01*
X18221706Y5374081D01*
X18230646Y5369966D01*
X18240095Y5367426D01*
G37*
G36*
X33629600Y5366562D02*
G01*
X33639404Y5367426D01*
X33648853Y5369966D01*
X33657794Y5374081D01*
X33665820Y5379720D01*
X33672780Y5386679D01*
X33678418Y5394706D01*
X33682533Y5403646D01*
X33685073Y5413095D01*
X33685937Y5422900D01*
X33685073Y5432704D01*
X33682533Y5442153D01*
X33678418Y5451094D01*
X33672780Y5459120D01*
X33671205Y5460695D01*
X33668970Y5463997D01*
X33668208Y5467908D01*
X33668208Y7333691D01*
X33668970Y7337602D01*
X33671205Y7340904D01*
X33672780Y7342479D01*
X33678418Y7350506D01*
X33682533Y7359446D01*
X33685073Y7368895D01*
X33685937Y7378700D01*
X33685073Y7388504D01*
X33682533Y7397953D01*
X33678418Y7406894D01*
X33672780Y7414920D01*
X33665820Y7421880D01*
X33657794Y7427518D01*
X33648853Y7431633D01*
X33639404Y7434173D01*
X33629600Y7435037D01*
X33619795Y7434173D01*
X33610346Y7431633D01*
X33601406Y7427518D01*
X33593379Y7421880D01*
X33586420Y7414920D01*
X33580781Y7406894D01*
X33576666Y7397953D01*
X33574126Y7388504D01*
X33573262Y7378700D01*
X33574126Y7368895D01*
X33576666Y7359446D01*
X33580781Y7350506D01*
X33586420Y7342479D01*
X33587994Y7340904D01*
X33590230Y7337602D01*
X33590992Y7333691D01*
X33590992Y5467908D01*
X33590230Y5463997D01*
X33587994Y5460695D01*
X33586420Y5459120D01*
X33580781Y5451094D01*
X33576666Y5442153D01*
X33574126Y5432704D01*
X33573262Y5422900D01*
X33574126Y5413095D01*
X33576666Y5403646D01*
X33580781Y5394706D01*
X33586420Y5386679D01*
X33593379Y5379720D01*
X33601406Y5374081D01*
X33610346Y5369966D01*
X33619795Y5367426D01*
G37*
G36*
X22098000Y5366562D02*
G01*
X22107804Y5367426D01*
X22117253Y5369966D01*
X22126194Y5374081D01*
X22134220Y5379720D01*
X22141180Y5386679D01*
X22146818Y5394706D01*
X22150933Y5403646D01*
X22153473Y5413095D01*
X22154337Y5422900D01*
X22153473Y5432704D01*
X22150933Y5442153D01*
X22146818Y5451094D01*
X22141180Y5459120D01*
X22139605Y5460695D01*
X22137370Y5463997D01*
X22136608Y5467908D01*
X22136608Y7333691D01*
X22137370Y7337602D01*
X22139605Y7340904D01*
X22141180Y7342479D01*
X22146818Y7350506D01*
X22150933Y7359446D01*
X22153473Y7368895D01*
X22154337Y7378700D01*
X22153473Y7388504D01*
X22150933Y7397953D01*
X22146818Y7406894D01*
X22141180Y7414920D01*
X22134220Y7421880D01*
X22126194Y7427518D01*
X22117253Y7431633D01*
X22107804Y7434173D01*
X22098000Y7435037D01*
X22088195Y7434173D01*
X22078746Y7431633D01*
X22069806Y7427518D01*
X22061779Y7421880D01*
X22054820Y7414920D01*
X22049181Y7406894D01*
X22045066Y7397953D01*
X22042526Y7388504D01*
X22041662Y7378700D01*
X22042526Y7368895D01*
X22045066Y7359446D01*
X22049181Y7350506D01*
X22054820Y7342479D01*
X22056394Y7340904D01*
X22058630Y7337602D01*
X22059392Y7333691D01*
X22059392Y5467908D01*
X22058630Y5463997D01*
X22056394Y5460695D01*
X22054820Y5459120D01*
X22049181Y5451094D01*
X22045066Y5442153D01*
X22042526Y5432704D01*
X22041662Y5422900D01*
X22042526Y5413095D01*
X22045066Y5403646D01*
X22049181Y5394706D01*
X22054820Y5386679D01*
X22061779Y5379720D01*
X22069806Y5374081D01*
X22078746Y5369966D01*
X22088195Y5367426D01*
G37*
G36*
X10566400Y5366562D02*
G01*
X10576204Y5367426D01*
X10585653Y5369966D01*
X10594594Y5374081D01*
X10602620Y5379720D01*
X10609580Y5386679D01*
X10615218Y5394706D01*
X10619333Y5403646D01*
X10621873Y5413095D01*
X10622737Y5422900D01*
X10621873Y5432704D01*
X10619333Y5442153D01*
X10615218Y5451094D01*
X10609580Y5459120D01*
X10608005Y5460695D01*
X10605770Y5463997D01*
X10605008Y5467908D01*
X10605008Y7333691D01*
X10605770Y7337602D01*
X10608005Y7340904D01*
X10609580Y7342479D01*
X10615218Y7350506D01*
X10619333Y7359446D01*
X10621873Y7368895D01*
X10622737Y7378700D01*
X10621873Y7388504D01*
X10619333Y7397953D01*
X10615218Y7406894D01*
X10609580Y7414920D01*
X10602620Y7421880D01*
X10594594Y7427518D01*
X10585653Y7431633D01*
X10576204Y7434173D01*
X10566400Y7435037D01*
X10556595Y7434173D01*
X10547146Y7431633D01*
X10538206Y7427518D01*
X10530179Y7421880D01*
X10523220Y7414920D01*
X10517581Y7406894D01*
X10513466Y7397953D01*
X10510926Y7388504D01*
X10510062Y7378700D01*
X10510926Y7368895D01*
X10513466Y7359446D01*
X10517581Y7350506D01*
X10523220Y7342479D01*
X10524794Y7340904D01*
X10527030Y7337602D01*
X10527792Y7333691D01*
X10527792Y5467908D01*
X10527030Y5463997D01*
X10524794Y5460695D01*
X10523220Y5459120D01*
X10517581Y5451094D01*
X10513466Y5442153D01*
X10510926Y5432704D01*
X10510062Y5422900D01*
X10510926Y5413095D01*
X10513466Y5403646D01*
X10517581Y5394706D01*
X10523220Y5386679D01*
X10530179Y5379720D01*
X10538206Y5374081D01*
X10547146Y5369966D01*
X10556595Y5367426D01*
G37*
G36*
X6756400Y5366562D02*
G01*
X6766204Y5367426D01*
X6775653Y5369966D01*
X6784594Y5374081D01*
X6792620Y5379720D01*
X6799580Y5386679D01*
X6805218Y5394706D01*
X6809333Y5403646D01*
X6811873Y5413095D01*
X6812737Y5422900D01*
X6811873Y5432704D01*
X6809333Y5442153D01*
X6805218Y5451094D01*
X6799580Y5459120D01*
X6798005Y5460695D01*
X6795770Y5463997D01*
X6795008Y5467908D01*
X6795008Y7333691D01*
X6795770Y7337602D01*
X6798005Y7340904D01*
X6799580Y7342479D01*
X6805218Y7350506D01*
X6809333Y7359446D01*
X6811873Y7368895D01*
X6812737Y7378700D01*
X6811873Y7388504D01*
X6809333Y7397953D01*
X6805218Y7406894D01*
X6799580Y7414920D01*
X6792620Y7421880D01*
X6784594Y7427518D01*
X6775653Y7431633D01*
X6766204Y7434173D01*
X6756400Y7435037D01*
X6746595Y7434173D01*
X6737146Y7431633D01*
X6728206Y7427518D01*
X6720179Y7421880D01*
X6713220Y7414920D01*
X6707581Y7406894D01*
X6703466Y7397953D01*
X6700926Y7388504D01*
X6700062Y7378700D01*
X6700926Y7368895D01*
X6703466Y7359446D01*
X6707581Y7350506D01*
X6713220Y7342479D01*
X6714794Y7340904D01*
X6717030Y7337602D01*
X6717792Y7333691D01*
X6717792Y5467908D01*
X6717030Y5463997D01*
X6714794Y5460695D01*
X6713220Y5459120D01*
X6707581Y5451094D01*
X6703466Y5442153D01*
X6700926Y5432704D01*
X6700062Y5422900D01*
X6700926Y5413095D01*
X6703466Y5403646D01*
X6707581Y5394706D01*
X6713220Y5386679D01*
X6720179Y5379720D01*
X6728206Y5374081D01*
X6737146Y5369966D01*
X6746595Y5367426D01*
G37*
G36*
X5715000Y5366562D02*
G01*
X5724804Y5367426D01*
X5734253Y5369966D01*
X5743194Y5374081D01*
X5751220Y5379720D01*
X5758180Y5386679D01*
X5763818Y5394706D01*
X5767933Y5403646D01*
X5770473Y5413095D01*
X5771337Y5422900D01*
X5770473Y5432704D01*
X5767933Y5442153D01*
X5763818Y5451094D01*
X5758180Y5459120D01*
X5756605Y5460695D01*
X5754370Y5463997D01*
X5753608Y5467908D01*
X5753608Y7333691D01*
X5754370Y7337602D01*
X5756605Y7340904D01*
X5758180Y7342479D01*
X5763818Y7350506D01*
X5767933Y7359446D01*
X5770473Y7368895D01*
X5771337Y7378700D01*
X5770473Y7388504D01*
X5767933Y7397953D01*
X5763818Y7406894D01*
X5758180Y7414920D01*
X5751220Y7421880D01*
X5743194Y7427518D01*
X5734253Y7431633D01*
X5724804Y7434173D01*
X5715000Y7435037D01*
X5705195Y7434173D01*
X5695746Y7431633D01*
X5686806Y7427518D01*
X5678779Y7421880D01*
X5671820Y7414920D01*
X5666181Y7406894D01*
X5662066Y7397953D01*
X5659526Y7388504D01*
X5658662Y7378700D01*
X5659526Y7368895D01*
X5662066Y7359446D01*
X5666181Y7350506D01*
X5671820Y7342479D01*
X5673394Y7340904D01*
X5675630Y7337602D01*
X5676392Y7333691D01*
X5676392Y5467908D01*
X5675630Y5463997D01*
X5673394Y5460695D01*
X5671820Y5459120D01*
X5666181Y5451094D01*
X5662066Y5442153D01*
X5659526Y5432704D01*
X5658662Y5422900D01*
X5659526Y5413095D01*
X5662066Y5403646D01*
X5666181Y5394706D01*
X5671820Y5386679D01*
X5678779Y5379720D01*
X5686806Y5374081D01*
X5695746Y5369966D01*
X5705195Y5367426D01*
G37*
G36*
X32918400Y5366562D02*
G01*
X32928204Y5367426D01*
X32937653Y5369966D01*
X32946594Y5374081D01*
X32954620Y5379720D01*
X32961580Y5386679D01*
X32967218Y5394706D01*
X32971333Y5403646D01*
X32973873Y5413095D01*
X32974737Y5422900D01*
X32973873Y5432704D01*
X32971333Y5442153D01*
X32967218Y5451094D01*
X32961580Y5459120D01*
X32960005Y5460695D01*
X32957770Y5463997D01*
X32957008Y5467908D01*
X32957008Y7435291D01*
X32957770Y7439202D01*
X32960005Y7442504D01*
X32961580Y7444079D01*
X32967218Y7452106D01*
X32971333Y7461046D01*
X32973873Y7470495D01*
X32974737Y7480300D01*
X32973873Y7490104D01*
X32971333Y7499553D01*
X32967218Y7508494D01*
X32961580Y7516520D01*
X32954620Y7523480D01*
X32946594Y7529118D01*
X32937653Y7533233D01*
X32928204Y7535773D01*
X32918400Y7536637D01*
X32908595Y7535773D01*
X32899146Y7533233D01*
X32890206Y7529118D01*
X32882179Y7523480D01*
X32875220Y7516520D01*
X32869581Y7508494D01*
X32865466Y7499553D01*
X32862926Y7490104D01*
X32862062Y7480300D01*
X32862926Y7470495D01*
X32865466Y7461046D01*
X32869581Y7452106D01*
X32875220Y7444079D01*
X32876794Y7442504D01*
X32879030Y7439202D01*
X32879792Y7435291D01*
X32879792Y5467908D01*
X32879030Y5463997D01*
X32876794Y5460695D01*
X32875220Y5459120D01*
X32869581Y5451094D01*
X32865466Y5442153D01*
X32862926Y5432704D01*
X32862062Y5422900D01*
X32862926Y5413095D01*
X32865466Y5403646D01*
X32869581Y5394706D01*
X32875220Y5386679D01*
X32882179Y5379720D01*
X32890206Y5374081D01*
X32899146Y5369966D01*
X32908595Y5367426D01*
G37*
G36*
X26200100Y5366562D02*
G01*
X26209904Y5367426D01*
X26219353Y5369966D01*
X26228294Y5374081D01*
X26236320Y5379720D01*
X26243280Y5386679D01*
X26248918Y5394706D01*
X26253033Y5403646D01*
X26255573Y5413095D01*
X26256437Y5422900D01*
X26255573Y5432704D01*
X26253033Y5442153D01*
X26248918Y5451094D01*
X26243280Y5459120D01*
X26241705Y5460695D01*
X26239470Y5463997D01*
X26238708Y5467908D01*
X26238708Y7435291D01*
X26239470Y7439202D01*
X26241705Y7442504D01*
X26243280Y7444079D01*
X26248918Y7452106D01*
X26253033Y7461046D01*
X26255573Y7470495D01*
X26256437Y7480300D01*
X26255573Y7490104D01*
X26253033Y7499553D01*
X26248918Y7508494D01*
X26243280Y7516520D01*
X26236320Y7523480D01*
X26228294Y7529118D01*
X26219353Y7533233D01*
X26209904Y7535773D01*
X26200100Y7536637D01*
X26190295Y7535773D01*
X26180846Y7533233D01*
X26171906Y7529118D01*
X26163879Y7523480D01*
X26156920Y7516520D01*
X26151281Y7508494D01*
X26147166Y7499553D01*
X26144626Y7490104D01*
X26143762Y7480300D01*
X26144626Y7470495D01*
X26147166Y7461046D01*
X26151281Y7452106D01*
X26156920Y7444079D01*
X26158494Y7442504D01*
X26160730Y7439202D01*
X26161492Y7435291D01*
X26161492Y5467908D01*
X26160730Y5463997D01*
X26158494Y5460695D01*
X26156920Y5459120D01*
X26151281Y5451094D01*
X26147166Y5442153D01*
X26144626Y5432704D01*
X26143762Y5422900D01*
X26144626Y5413095D01*
X26147166Y5403646D01*
X26151281Y5394706D01*
X26156920Y5386679D01*
X26163879Y5379720D01*
X26171906Y5374081D01*
X26180846Y5369966D01*
X26190295Y5367426D01*
G37*
G36*
X9855200Y5366562D02*
G01*
X9865004Y5367426D01*
X9874453Y5369966D01*
X9883394Y5374081D01*
X9891420Y5379720D01*
X9898380Y5386679D01*
X9904018Y5394706D01*
X9908133Y5403646D01*
X9910673Y5413095D01*
X9911537Y5422900D01*
X9910673Y5432704D01*
X9908133Y5442153D01*
X9904018Y5451094D01*
X9898380Y5459120D01*
X9896805Y5460695D01*
X9894570Y5463997D01*
X9893808Y5467908D01*
X9893808Y7435291D01*
X9894570Y7439202D01*
X9896805Y7442504D01*
X9898380Y7444079D01*
X9904018Y7452106D01*
X9908133Y7461046D01*
X9910673Y7470495D01*
X9911537Y7480300D01*
X9910673Y7490104D01*
X9908133Y7499553D01*
X9904018Y7508494D01*
X9898380Y7516520D01*
X9891420Y7523480D01*
X9883394Y7529118D01*
X9874453Y7533233D01*
X9865004Y7535773D01*
X9855200Y7536637D01*
X9845395Y7535773D01*
X9835946Y7533233D01*
X9827006Y7529118D01*
X9818979Y7523480D01*
X9812020Y7516520D01*
X9806381Y7508494D01*
X9802266Y7499553D01*
X9799726Y7490104D01*
X9798862Y7480300D01*
X9799726Y7470495D01*
X9802266Y7461046D01*
X9806381Y7452106D01*
X9812020Y7444079D01*
X9813594Y7442504D01*
X9815830Y7439202D01*
X9816592Y7435291D01*
X9816592Y5467908D01*
X9815830Y5463997D01*
X9813594Y5460695D01*
X9812020Y5459120D01*
X9806381Y5451094D01*
X9802266Y5442153D01*
X9799726Y5432704D01*
X9798862Y5422900D01*
X9799726Y5413095D01*
X9802266Y5403646D01*
X9806381Y5394706D01*
X9812020Y5386679D01*
X9818979Y5379720D01*
X9827006Y5374081D01*
X9835946Y5369966D01*
X9845395Y5367426D01*
G37*
G36*
X21386800Y5366562D02*
G01*
X21396604Y5367426D01*
X21406053Y5369966D01*
X21414994Y5374081D01*
X21423020Y5379720D01*
X21429980Y5386679D01*
X21435618Y5394706D01*
X21439733Y5403646D01*
X21442273Y5413095D01*
X21443137Y5422900D01*
X21442273Y5432704D01*
X21439733Y5442153D01*
X21435618Y5451094D01*
X21429980Y5459120D01*
X21428405Y5460695D01*
X21426170Y5463997D01*
X21425408Y5467908D01*
X21425408Y7435291D01*
X21426170Y7439202D01*
X21428405Y7442504D01*
X21429980Y7444079D01*
X21435618Y7452106D01*
X21439733Y7461046D01*
X21442273Y7470495D01*
X21443137Y7480300D01*
X21442273Y7490104D01*
X21439733Y7499553D01*
X21435618Y7508494D01*
X21429980Y7516520D01*
X21423020Y7523480D01*
X21414994Y7529118D01*
X21406053Y7533233D01*
X21396604Y7535773D01*
X21386800Y7536637D01*
X21376995Y7535773D01*
X21367546Y7533233D01*
X21358606Y7529118D01*
X21350579Y7523480D01*
X21343620Y7516520D01*
X21337981Y7508494D01*
X21333866Y7499553D01*
X21331326Y7490104D01*
X21330462Y7480300D01*
X21331326Y7470495D01*
X21333866Y7461046D01*
X21337981Y7452106D01*
X21343620Y7444079D01*
X21345194Y7442504D01*
X21347430Y7439202D01*
X21348192Y7435291D01*
X21348192Y5467908D01*
X21347430Y5463997D01*
X21345194Y5460695D01*
X21343620Y5459120D01*
X21337981Y5451094D01*
X21333866Y5442153D01*
X21331326Y5432704D01*
X21330462Y5422900D01*
X21331326Y5413095D01*
X21333866Y5403646D01*
X21337981Y5394706D01*
X21343620Y5386679D01*
X21350579Y5379720D01*
X21358606Y5374081D01*
X21367546Y5369966D01*
X21376995Y5367426D01*
G37*
G36*
X14668500Y5366562D02*
G01*
X14678304Y5367426D01*
X14687753Y5369966D01*
X14696694Y5374081D01*
X14704720Y5379720D01*
X14711680Y5386679D01*
X14717318Y5394706D01*
X14721433Y5403646D01*
X14723973Y5413095D01*
X14724837Y5422900D01*
X14723973Y5432704D01*
X14721433Y5442153D01*
X14717318Y5451094D01*
X14711680Y5459120D01*
X14710105Y5460695D01*
X14707869Y5463997D01*
X14707107Y5467908D01*
X14707107Y7435291D01*
X14707869Y7439202D01*
X14710105Y7442504D01*
X14711680Y7444079D01*
X14717318Y7452106D01*
X14721433Y7461046D01*
X14723973Y7470495D01*
X14724837Y7480300D01*
X14723973Y7490104D01*
X14721433Y7499553D01*
X14717318Y7508494D01*
X14711680Y7516520D01*
X14704720Y7523480D01*
X14696694Y7529118D01*
X14687753Y7533233D01*
X14678304Y7535773D01*
X14668500Y7536637D01*
X14658695Y7535773D01*
X14649246Y7533233D01*
X14640306Y7529118D01*
X14632279Y7523480D01*
X14625319Y7516520D01*
X14619681Y7508494D01*
X14615566Y7499553D01*
X14613026Y7490104D01*
X14612162Y7480300D01*
X14613026Y7470495D01*
X14615566Y7461046D01*
X14619681Y7452106D01*
X14625319Y7444079D01*
X14626894Y7442504D01*
X14629130Y7439202D01*
X14629892Y7435291D01*
X14629892Y5467908D01*
X14629130Y5463997D01*
X14626894Y5460695D01*
X14625319Y5459120D01*
X14619681Y5451094D01*
X14615566Y5442153D01*
X14613026Y5432704D01*
X14612162Y5422900D01*
X14613026Y5413095D01*
X14615566Y5403646D01*
X14619681Y5394706D01*
X14625319Y5386679D01*
X14632279Y5379720D01*
X14640306Y5374081D01*
X14649246Y5369966D01*
X14658695Y5367426D01*
G37*
G36*
X37731700Y5366562D02*
G01*
X37741504Y5367426D01*
X37750953Y5369966D01*
X37759894Y5374081D01*
X37767920Y5379720D01*
X37774880Y5386679D01*
X37780518Y5394706D01*
X37784633Y5403646D01*
X37787173Y5413095D01*
X37788037Y5422900D01*
X37787173Y5432704D01*
X37784633Y5442153D01*
X37780518Y5451094D01*
X37774880Y5459120D01*
X37773305Y5460695D01*
X37771070Y5463997D01*
X37770308Y5467908D01*
X37770308Y7435291D01*
X37771070Y7439202D01*
X37773305Y7442504D01*
X37774880Y7444079D01*
X37780518Y7452106D01*
X37784633Y7461046D01*
X37787173Y7470495D01*
X37788037Y7480300D01*
X37787173Y7490104D01*
X37784633Y7499553D01*
X37780518Y7508494D01*
X37774880Y7516520D01*
X37767920Y7523480D01*
X37759894Y7529118D01*
X37750953Y7533233D01*
X37741504Y7535773D01*
X37731700Y7536637D01*
X37721895Y7535773D01*
X37712446Y7533233D01*
X37703506Y7529118D01*
X37695479Y7523480D01*
X37688520Y7516520D01*
X37682881Y7508494D01*
X37678766Y7499553D01*
X37676226Y7490104D01*
X37675362Y7480300D01*
X37676226Y7470495D01*
X37678766Y7461046D01*
X37682881Y7452106D01*
X37688520Y7444079D01*
X37690094Y7442504D01*
X37692330Y7439202D01*
X37693092Y7435291D01*
X37693092Y5467908D01*
X37692330Y5463997D01*
X37690094Y5460695D01*
X37688520Y5459120D01*
X37682881Y5451094D01*
X37678766Y5442153D01*
X37676226Y5432704D01*
X37675362Y5422900D01*
X37676226Y5413095D01*
X37678766Y5403646D01*
X37682881Y5394706D01*
X37688520Y5386679D01*
X37695479Y5379720D01*
X37703506Y5374081D01*
X37712446Y5369966D01*
X37721895Y5367426D01*
G37*
G36*
X15786100Y5366562D02*
G01*
X15795904Y5367426D01*
X15805353Y5369966D01*
X15814294Y5374081D01*
X15822320Y5379720D01*
X15829280Y5386679D01*
X15834918Y5394706D01*
X15839033Y5403646D01*
X15841573Y5413095D01*
X15842437Y5422900D01*
X15841573Y5432704D01*
X15839033Y5442153D01*
X15834918Y5451094D01*
X15829280Y5459120D01*
X15827705Y5460695D01*
X15825469Y5463997D01*
X15824707Y5467908D01*
X15824707Y8019491D01*
X15825469Y8023402D01*
X15827705Y8026704D01*
X15829280Y8028279D01*
X15834918Y8036306D01*
X15839033Y8045246D01*
X15841573Y8054695D01*
X15842437Y8064500D01*
X15841573Y8074304D01*
X15839033Y8083753D01*
X15834918Y8092694D01*
X15829280Y8100720D01*
X15822320Y8107680D01*
X15814294Y8113318D01*
X15805353Y8117433D01*
X15795904Y8119973D01*
X15786100Y8120837D01*
X15776295Y8119973D01*
X15766846Y8117433D01*
X15757906Y8113318D01*
X15749879Y8107680D01*
X15742919Y8100720D01*
X15737281Y8092694D01*
X15733166Y8083753D01*
X15730626Y8074304D01*
X15729762Y8064500D01*
X15730626Y8054695D01*
X15733166Y8045246D01*
X15737281Y8036306D01*
X15742919Y8028279D01*
X15744494Y8026704D01*
X15746730Y8023402D01*
X15747492Y8019491D01*
X15747492Y5467908D01*
X15746730Y5463997D01*
X15744494Y5460695D01*
X15742919Y5459120D01*
X15737281Y5451094D01*
X15733166Y5442153D01*
X15730626Y5432704D01*
X15729762Y5422900D01*
X15730626Y5413095D01*
X15733166Y5403646D01*
X15737281Y5394706D01*
X15742919Y5386679D01*
X15749879Y5379720D01*
X15757906Y5374081D01*
X15766846Y5369966D01*
X15776295Y5367426D01*
G37*
G36*
X11938000Y5366562D02*
G01*
X11947804Y5367426D01*
X11957253Y5369966D01*
X11966194Y5374081D01*
X11974220Y5379720D01*
X11981180Y5386679D01*
X11986818Y5394706D01*
X11990933Y5403646D01*
X11993473Y5413095D01*
X11994337Y5422900D01*
X11993473Y5432704D01*
X11990933Y5442153D01*
X11986818Y5451094D01*
X11981180Y5459120D01*
X11979605Y5460695D01*
X11977370Y5463997D01*
X11976608Y5467908D01*
X11976608Y8019491D01*
X11977370Y8023402D01*
X11979605Y8026704D01*
X11981180Y8028279D01*
X11986818Y8036306D01*
X11990933Y8045246D01*
X11993473Y8054695D01*
X11994337Y8064500D01*
X11993473Y8074304D01*
X11990933Y8083753D01*
X11986818Y8092694D01*
X11981180Y8100720D01*
X11974220Y8107680D01*
X11966194Y8113318D01*
X11957253Y8117433D01*
X11947804Y8119973D01*
X11938000Y8120837D01*
X11928195Y8119973D01*
X11918746Y8117433D01*
X11909806Y8113318D01*
X11901779Y8107680D01*
X11894820Y8100720D01*
X11889181Y8092694D01*
X11885066Y8083753D01*
X11882526Y8074304D01*
X11881662Y8064500D01*
X11882526Y8054695D01*
X11885066Y8045246D01*
X11889181Y8036306D01*
X11894820Y8028279D01*
X11896394Y8026704D01*
X11898630Y8023402D01*
X11899392Y8019491D01*
X11899392Y5467908D01*
X11898630Y5463997D01*
X11896394Y5460695D01*
X11894820Y5459120D01*
X11889181Y5451094D01*
X11885066Y5442153D01*
X11882526Y5432704D01*
X11881662Y5422900D01*
X11882526Y5413095D01*
X11885066Y5403646D01*
X11889181Y5394706D01*
X11894820Y5386679D01*
X11901779Y5379720D01*
X11909806Y5374081D01*
X11918746Y5369966D01*
X11928195Y5367426D01*
G37*
G36*
X23469600Y5366562D02*
G01*
X23479404Y5367426D01*
X23488853Y5369966D01*
X23497794Y5374081D01*
X23505820Y5379720D01*
X23512780Y5386679D01*
X23518418Y5394706D01*
X23522533Y5403646D01*
X23525073Y5413095D01*
X23525937Y5422900D01*
X23525073Y5432704D01*
X23522533Y5442153D01*
X23518418Y5451094D01*
X23512780Y5459120D01*
X23511205Y5460695D01*
X23508970Y5463997D01*
X23508208Y5467908D01*
X23508208Y8019491D01*
X23508970Y8023402D01*
X23511205Y8026704D01*
X23512780Y8028279D01*
X23518418Y8036306D01*
X23522533Y8045246D01*
X23525073Y8054695D01*
X23525937Y8064500D01*
X23525073Y8074304D01*
X23522533Y8083753D01*
X23518418Y8092694D01*
X23512780Y8100720D01*
X23505820Y8107680D01*
X23497794Y8113318D01*
X23488853Y8117433D01*
X23479404Y8119973D01*
X23469600Y8120837D01*
X23459795Y8119973D01*
X23450346Y8117433D01*
X23441406Y8113318D01*
X23433379Y8107680D01*
X23426420Y8100720D01*
X23420781Y8092694D01*
X23416666Y8083753D01*
X23414126Y8074304D01*
X23413262Y8064500D01*
X23414126Y8054695D01*
X23416666Y8045246D01*
X23420781Y8036306D01*
X23426420Y8028279D01*
X23427994Y8026704D01*
X23430230Y8023402D01*
X23430992Y8019491D01*
X23430992Y5467908D01*
X23430230Y5463997D01*
X23427994Y5460695D01*
X23426420Y5459120D01*
X23420781Y5451094D01*
X23416666Y5442153D01*
X23414126Y5432704D01*
X23413262Y5422900D01*
X23414126Y5413095D01*
X23416666Y5403646D01*
X23420781Y5394706D01*
X23426420Y5386679D01*
X23433379Y5379720D01*
X23441406Y5374081D01*
X23450346Y5369966D01*
X23459795Y5367426D01*
G37*
G36*
X35001200Y5366562D02*
G01*
X35011004Y5367426D01*
X35020453Y5369966D01*
X35029394Y5374081D01*
X35037420Y5379720D01*
X35044380Y5386679D01*
X35050018Y5394706D01*
X35054133Y5403646D01*
X35056673Y5413095D01*
X35057537Y5422900D01*
X35056673Y5432704D01*
X35054133Y5442153D01*
X35050018Y5451094D01*
X35044380Y5459120D01*
X35042805Y5460695D01*
X35040570Y5463997D01*
X35039808Y5467908D01*
X35039808Y8019491D01*
X35040570Y8023402D01*
X35042805Y8026704D01*
X35044380Y8028279D01*
X35050018Y8036306D01*
X35054133Y8045246D01*
X35056673Y8054695D01*
X35057537Y8064500D01*
X35056673Y8074304D01*
X35054133Y8083753D01*
X35050018Y8092694D01*
X35044380Y8100720D01*
X35037420Y8107680D01*
X35029394Y8113318D01*
X35020453Y8117433D01*
X35011004Y8119973D01*
X35001200Y8120837D01*
X34991395Y8119973D01*
X34981946Y8117433D01*
X34973006Y8113318D01*
X34964979Y8107680D01*
X34958020Y8100720D01*
X34952381Y8092694D01*
X34948266Y8083753D01*
X34945726Y8074304D01*
X34944862Y8064500D01*
X34945726Y8054695D01*
X34948266Y8045246D01*
X34952381Y8036306D01*
X34958020Y8028279D01*
X34959594Y8026704D01*
X34961830Y8023402D01*
X34962592Y8019491D01*
X34962592Y5467908D01*
X34961830Y5463997D01*
X34959594Y5460695D01*
X34958020Y5459120D01*
X34952381Y5451094D01*
X34948266Y5442153D01*
X34945726Y5432704D01*
X34944862Y5422900D01*
X34945726Y5413095D01*
X34948266Y5403646D01*
X34952381Y5394706D01*
X34958020Y5386679D01*
X34964979Y5379720D01*
X34973006Y5374081D01*
X34981946Y5369966D01*
X34991395Y5367426D01*
G37*
G36*
X27317700Y5366562D02*
G01*
X27327504Y5367426D01*
X27336953Y5369966D01*
X27345894Y5374081D01*
X27353920Y5379720D01*
X27360880Y5386679D01*
X27366518Y5394706D01*
X27370633Y5403646D01*
X27373173Y5413095D01*
X27374037Y5422900D01*
X27373173Y5432704D01*
X27370633Y5442153D01*
X27366518Y5451094D01*
X27360880Y5459120D01*
X27359305Y5460695D01*
X27357070Y5463997D01*
X27356308Y5467908D01*
X27356308Y8019491D01*
X27357070Y8023402D01*
X27359305Y8026704D01*
X27360880Y8028279D01*
X27366518Y8036306D01*
X27370633Y8045246D01*
X27373173Y8054695D01*
X27374037Y8064500D01*
X27373173Y8074304D01*
X27370633Y8083753D01*
X27366518Y8092694D01*
X27360880Y8100720D01*
X27353920Y8107680D01*
X27345894Y8113318D01*
X27336953Y8117433D01*
X27327504Y8119973D01*
X27317700Y8120837D01*
X27307895Y8119973D01*
X27298446Y8117433D01*
X27289506Y8113318D01*
X27281479Y8107680D01*
X27274520Y8100720D01*
X27268881Y8092694D01*
X27264766Y8083753D01*
X27262226Y8074304D01*
X27261362Y8064500D01*
X27262226Y8054695D01*
X27264766Y8045246D01*
X27268881Y8036306D01*
X27274520Y8028279D01*
X27276094Y8026704D01*
X27278330Y8023402D01*
X27279092Y8019491D01*
X27279092Y5467908D01*
X27278330Y5463997D01*
X27276094Y5460695D01*
X27274520Y5459120D01*
X27268881Y5451094D01*
X27264766Y5442153D01*
X27262226Y5432704D01*
X27261362Y5422900D01*
X27262226Y5413095D01*
X27264766Y5403646D01*
X27268881Y5394706D01*
X27274520Y5386679D01*
X27281479Y5379720D01*
X27289506Y5374081D01*
X27298446Y5369966D01*
X27307895Y5367426D01*
G37*
G36*
X38849300Y5366562D02*
G01*
X38859104Y5367426D01*
X38868553Y5369966D01*
X38877494Y5374081D01*
X38885520Y5379720D01*
X38892480Y5386679D01*
X38898118Y5394706D01*
X38902233Y5403646D01*
X38904773Y5413095D01*
X38905637Y5422900D01*
X38904773Y5432704D01*
X38902233Y5442153D01*
X38898118Y5451094D01*
X38892480Y5459120D01*
X38890905Y5460695D01*
X38888670Y5463997D01*
X38887908Y5467908D01*
X38887908Y8019491D01*
X38888670Y8023402D01*
X38890905Y8026704D01*
X38892480Y8028279D01*
X38898118Y8036306D01*
X38902233Y8045246D01*
X38904773Y8054695D01*
X38905637Y8064500D01*
X38904773Y8074304D01*
X38902233Y8083753D01*
X38898118Y8092694D01*
X38892480Y8100720D01*
X38885520Y8107680D01*
X38877494Y8113318D01*
X38868553Y8117433D01*
X38859104Y8119973D01*
X38849300Y8120837D01*
X38839495Y8119973D01*
X38830046Y8117433D01*
X38821106Y8113318D01*
X38813079Y8107680D01*
X38806120Y8100720D01*
X38800481Y8092694D01*
X38796366Y8083753D01*
X38793826Y8074304D01*
X38792962Y8064500D01*
X38793826Y8054695D01*
X38796366Y8045246D01*
X38800481Y8036306D01*
X38806120Y8028279D01*
X38807694Y8026704D01*
X38809930Y8023402D01*
X38810692Y8019491D01*
X38810692Y5467908D01*
X38809930Y5463997D01*
X38807694Y5460695D01*
X38806120Y5459120D01*
X38800481Y5451094D01*
X38796366Y5442153D01*
X38793826Y5432704D01*
X38792962Y5422900D01*
X38793826Y5413095D01*
X38796366Y5403646D01*
X38800481Y5394706D01*
X38806120Y5386679D01*
X38813079Y5379720D01*
X38821106Y5374081D01*
X38830046Y5369966D01*
X38839495Y5367426D01*
G37*
G36*
X13411200Y5468162D02*
G01*
X13421004Y5469026D01*
X13430453Y5471566D01*
X13439394Y5475681D01*
X13447420Y5481320D01*
X13454380Y5488279D01*
X13460018Y5496306D01*
X13464133Y5505246D01*
X13466673Y5514695D01*
X13467537Y5524500D01*
X13466673Y5534304D01*
X13464133Y5543753D01*
X13460018Y5552694D01*
X13454380Y5560720D01*
X13452805Y5562295D01*
X13450569Y5565597D01*
X13449807Y5569508D01*
X13449807Y7333691D01*
X13450569Y7337602D01*
X13452805Y7340904D01*
X13454380Y7342479D01*
X13460018Y7350506D01*
X13464133Y7359446D01*
X13466673Y7368895D01*
X13467537Y7378700D01*
X13466673Y7388504D01*
X13464133Y7397953D01*
X13460018Y7406894D01*
X13454380Y7414920D01*
X13447420Y7421880D01*
X13439394Y7427518D01*
X13430453Y7431633D01*
X13421004Y7434173D01*
X13411200Y7435037D01*
X13401395Y7434173D01*
X13391946Y7431633D01*
X13383006Y7427518D01*
X13374979Y7421880D01*
X13368019Y7414920D01*
X13362381Y7406894D01*
X13358266Y7397953D01*
X13355726Y7388504D01*
X13354862Y7378700D01*
X13355726Y7368895D01*
X13358266Y7359446D01*
X13362381Y7350506D01*
X13368019Y7342479D01*
X13369594Y7340904D01*
X13371830Y7337602D01*
X13372592Y7333691D01*
X13372592Y5569508D01*
X13371830Y5565597D01*
X13369594Y5562295D01*
X13368019Y5560720D01*
X13362381Y5552694D01*
X13358266Y5543753D01*
X13355726Y5534304D01*
X13354862Y5524500D01*
X13355726Y5514695D01*
X13358266Y5505246D01*
X13362381Y5496306D01*
X13368019Y5488279D01*
X13374979Y5481320D01*
X13383006Y5475681D01*
X13391946Y5471566D01*
X13401395Y5469026D01*
G37*
G36*
X24942800Y5468162D02*
G01*
X24952604Y5469026D01*
X24962053Y5471566D01*
X24970994Y5475681D01*
X24979020Y5481320D01*
X24985980Y5488279D01*
X24991618Y5496306D01*
X24995733Y5505246D01*
X24998273Y5514695D01*
X24999137Y5524500D01*
X24998273Y5534304D01*
X24995733Y5543753D01*
X24991618Y5552694D01*
X24985980Y5560720D01*
X24984405Y5562295D01*
X24982170Y5565597D01*
X24981408Y5569508D01*
X24981408Y7333691D01*
X24982170Y7337602D01*
X24984405Y7340904D01*
X24985980Y7342479D01*
X24991618Y7350506D01*
X24995733Y7359446D01*
X24998273Y7368895D01*
X24999137Y7378700D01*
X24998273Y7388504D01*
X24995733Y7397953D01*
X24991618Y7406894D01*
X24985980Y7414920D01*
X24979020Y7421880D01*
X24970994Y7427518D01*
X24962053Y7431633D01*
X24952604Y7434173D01*
X24942800Y7435037D01*
X24932995Y7434173D01*
X24923546Y7431633D01*
X24914606Y7427518D01*
X24906579Y7421880D01*
X24899620Y7414920D01*
X24893981Y7406894D01*
X24889866Y7397953D01*
X24887326Y7388504D01*
X24886462Y7378700D01*
X24887326Y7368895D01*
X24889866Y7359446D01*
X24893981Y7350506D01*
X24899620Y7342479D01*
X24901194Y7340904D01*
X24903430Y7337602D01*
X24904192Y7333691D01*
X24904192Y5569508D01*
X24903430Y5565597D01*
X24901194Y5562295D01*
X24899620Y5560720D01*
X24893981Y5552694D01*
X24889866Y5543753D01*
X24887326Y5534304D01*
X24886462Y5524500D01*
X24887326Y5514695D01*
X24889866Y5505246D01*
X24893981Y5496306D01*
X24899620Y5488279D01*
X24906579Y5481320D01*
X24914606Y5475681D01*
X24923546Y5471566D01*
X24932995Y5469026D01*
G37*
G36*
X36474400Y5468162D02*
G01*
X36484204Y5469026D01*
X36493653Y5471566D01*
X36502594Y5475681D01*
X36510620Y5481320D01*
X36517580Y5488279D01*
X36523218Y5496306D01*
X36527333Y5505246D01*
X36529873Y5514695D01*
X36530737Y5524500D01*
X36529873Y5534304D01*
X36527333Y5543753D01*
X36523218Y5552694D01*
X36517580Y5560720D01*
X36516005Y5562295D01*
X36513770Y5565597D01*
X36513008Y5569508D01*
X36513008Y7333691D01*
X36513770Y7337602D01*
X36516005Y7340904D01*
X36517580Y7342479D01*
X36523218Y7350506D01*
X36527333Y7359446D01*
X36529873Y7368895D01*
X36530737Y7378700D01*
X36529873Y7388504D01*
X36527333Y7397953D01*
X36523218Y7406894D01*
X36517580Y7414920D01*
X36510620Y7421880D01*
X36502594Y7427518D01*
X36493653Y7431633D01*
X36484204Y7434173D01*
X36474400Y7435037D01*
X36464595Y7434173D01*
X36455146Y7431633D01*
X36446206Y7427518D01*
X36438179Y7421880D01*
X36431220Y7414920D01*
X36425581Y7406894D01*
X36421466Y7397953D01*
X36418926Y7388504D01*
X36418062Y7378700D01*
X36418926Y7368895D01*
X36421466Y7359446D01*
X36425581Y7350506D01*
X36431220Y7342479D01*
X36432794Y7340904D01*
X36435030Y7337602D01*
X36435792Y7333691D01*
X36435792Y5569508D01*
X36435030Y5565597D01*
X36432794Y5562295D01*
X36431220Y5560720D01*
X36425581Y5552694D01*
X36421466Y5543753D01*
X36418926Y5534304D01*
X36418062Y5524500D01*
X36418926Y5514695D01*
X36421466Y5505246D01*
X36425581Y5496306D01*
X36431220Y5488279D01*
X36438179Y5481320D01*
X36446206Y5475681D01*
X36455146Y5471566D01*
X36464595Y5469026D01*
G37*
G36*
X32270700Y5468162D02*
G01*
X32280504Y5469026D01*
X32289953Y5471566D01*
X32298894Y5475681D01*
X32306920Y5481320D01*
X32313880Y5488279D01*
X32319518Y5496306D01*
X32323633Y5505246D01*
X32326173Y5514695D01*
X32327037Y5524500D01*
X32326173Y5534304D01*
X32323633Y5543753D01*
X32319518Y5552694D01*
X32313880Y5560720D01*
X32312305Y5562295D01*
X32310070Y5565597D01*
X32309308Y5569508D01*
X32309308Y7435291D01*
X32310070Y7439202D01*
X32312305Y7442504D01*
X32313880Y7444079D01*
X32319518Y7452106D01*
X32323633Y7461046D01*
X32326173Y7470495D01*
X32327037Y7480300D01*
X32326173Y7490104D01*
X32323633Y7499553D01*
X32319518Y7508494D01*
X32313880Y7516520D01*
X32306920Y7523480D01*
X32298894Y7529118D01*
X32289953Y7533233D01*
X32280504Y7535773D01*
X32270700Y7536637D01*
X32260895Y7535773D01*
X32251446Y7533233D01*
X32242506Y7529118D01*
X32234479Y7523480D01*
X32227520Y7516520D01*
X32221881Y7508494D01*
X32217766Y7499553D01*
X32215226Y7490104D01*
X32214362Y7480300D01*
X32215226Y7470495D01*
X32217766Y7461046D01*
X32221881Y7452106D01*
X32227520Y7444079D01*
X32229094Y7442504D01*
X32231330Y7439202D01*
X32232092Y7435291D01*
X32232092Y5569508D01*
X32231330Y5565597D01*
X32229094Y5562295D01*
X32227520Y5560720D01*
X32221881Y5552694D01*
X32217766Y5543753D01*
X32215226Y5534304D01*
X32214362Y5524500D01*
X32215226Y5514695D01*
X32217766Y5505246D01*
X32221881Y5496306D01*
X32227520Y5488279D01*
X32234479Y5481320D01*
X32242506Y5475681D01*
X32251446Y5471566D01*
X32260895Y5469026D01*
G37*
G36*
X25527000Y5468162D02*
G01*
X25536804Y5469026D01*
X25546253Y5471566D01*
X25555194Y5475681D01*
X25563220Y5481320D01*
X25570180Y5488279D01*
X25575818Y5496306D01*
X25579933Y5505246D01*
X25582473Y5514695D01*
X25583337Y5524500D01*
X25582473Y5534304D01*
X25579933Y5543753D01*
X25575818Y5552694D01*
X25570180Y5560720D01*
X25568605Y5562295D01*
X25566370Y5565597D01*
X25565608Y5569508D01*
X25565608Y7435291D01*
X25566370Y7439202D01*
X25568605Y7442504D01*
X25570180Y7444079D01*
X25575818Y7452106D01*
X25579933Y7461046D01*
X25582473Y7470495D01*
X25583337Y7480300D01*
X25582473Y7490104D01*
X25579933Y7499553D01*
X25575818Y7508494D01*
X25570180Y7516520D01*
X25563220Y7523480D01*
X25555194Y7529118D01*
X25546253Y7533233D01*
X25536804Y7535773D01*
X25527000Y7536637D01*
X25517195Y7535773D01*
X25507746Y7533233D01*
X25498806Y7529118D01*
X25490779Y7523480D01*
X25483820Y7516520D01*
X25478181Y7508494D01*
X25474066Y7499553D01*
X25471526Y7490104D01*
X25470662Y7480300D01*
X25471526Y7470495D01*
X25474066Y7461046D01*
X25478181Y7452106D01*
X25483820Y7444079D01*
X25485394Y7442504D01*
X25487630Y7439202D01*
X25488392Y7435291D01*
X25488392Y5569508D01*
X25487630Y5565597D01*
X25485394Y5562295D01*
X25483820Y5560720D01*
X25478181Y5552694D01*
X25474066Y5543753D01*
X25471526Y5534304D01*
X25470662Y5524500D01*
X25471526Y5514695D01*
X25474066Y5505246D01*
X25478181Y5496306D01*
X25483820Y5488279D01*
X25490779Y5481320D01*
X25498806Y5475681D01*
X25507746Y5471566D01*
X25517195Y5469026D01*
G37*
G36*
X37058600Y5468162D02*
G01*
X37068404Y5469026D01*
X37077853Y5471566D01*
X37086794Y5475681D01*
X37094820Y5481320D01*
X37101780Y5488279D01*
X37107418Y5496306D01*
X37111533Y5505246D01*
X37114073Y5514695D01*
X37114937Y5524500D01*
X37114073Y5534304D01*
X37111533Y5543753D01*
X37107418Y5552694D01*
X37101780Y5560720D01*
X37100205Y5562295D01*
X37097970Y5565597D01*
X37097208Y5569508D01*
X37097208Y7435291D01*
X37097970Y7439202D01*
X37100205Y7442504D01*
X37101780Y7444079D01*
X37107418Y7452106D01*
X37111533Y7461046D01*
X37114073Y7470495D01*
X37114937Y7480300D01*
X37114073Y7490104D01*
X37111533Y7499553D01*
X37107418Y7508494D01*
X37101780Y7516520D01*
X37094820Y7523480D01*
X37086794Y7529118D01*
X37077853Y7533233D01*
X37068404Y7535773D01*
X37058600Y7536637D01*
X37048795Y7535773D01*
X37039346Y7533233D01*
X37030406Y7529118D01*
X37022379Y7523480D01*
X37015420Y7516520D01*
X37009781Y7508494D01*
X37005666Y7499553D01*
X37003126Y7490104D01*
X37002262Y7480300D01*
X37003126Y7470495D01*
X37005666Y7461046D01*
X37009781Y7452106D01*
X37015420Y7444079D01*
X37016994Y7442504D01*
X37019230Y7439202D01*
X37019992Y7435291D01*
X37019992Y5569508D01*
X37019230Y5565597D01*
X37016994Y5562295D01*
X37015420Y5560720D01*
X37009781Y5552694D01*
X37005666Y5543753D01*
X37003126Y5534304D01*
X37002262Y5524500D01*
X37003126Y5514695D01*
X37005666Y5505246D01*
X37009781Y5496306D01*
X37015420Y5488279D01*
X37022379Y5481320D01*
X37030406Y5475681D01*
X37039346Y5471566D01*
X37048795Y5469026D01*
G37*
G36*
X9207500Y5468162D02*
G01*
X9217304Y5469026D01*
X9226753Y5471566D01*
X9235694Y5475681D01*
X9243720Y5481320D01*
X9250680Y5488279D01*
X9256318Y5496306D01*
X9260433Y5505246D01*
X9262973Y5514695D01*
X9263837Y5524500D01*
X9262973Y5534304D01*
X9260433Y5543753D01*
X9256318Y5552694D01*
X9250680Y5560720D01*
X9249105Y5562295D01*
X9246870Y5565597D01*
X9246108Y5569508D01*
X9246108Y7435291D01*
X9246870Y7439202D01*
X9249105Y7442504D01*
X9250680Y7444079D01*
X9256318Y7452106D01*
X9260433Y7461046D01*
X9262973Y7470495D01*
X9263837Y7480300D01*
X9262973Y7490104D01*
X9260433Y7499553D01*
X9256318Y7508494D01*
X9250680Y7516520D01*
X9243720Y7523480D01*
X9235694Y7529118D01*
X9226753Y7533233D01*
X9217304Y7535773D01*
X9207500Y7536637D01*
X9197695Y7535773D01*
X9188246Y7533233D01*
X9179306Y7529118D01*
X9171279Y7523480D01*
X9164320Y7516520D01*
X9158681Y7508494D01*
X9154566Y7499553D01*
X9152026Y7490104D01*
X9151162Y7480300D01*
X9152026Y7470495D01*
X9154566Y7461046D01*
X9158681Y7452106D01*
X9164320Y7444079D01*
X9165894Y7442504D01*
X9168130Y7439202D01*
X9168892Y7435291D01*
X9168892Y5569508D01*
X9168130Y5565597D01*
X9165894Y5562295D01*
X9164320Y5560720D01*
X9158681Y5552694D01*
X9154566Y5543753D01*
X9152026Y5534304D01*
X9151162Y5524500D01*
X9152026Y5514695D01*
X9154566Y5505246D01*
X9158681Y5496306D01*
X9164320Y5488279D01*
X9171279Y5481320D01*
X9179306Y5475681D01*
X9188246Y5471566D01*
X9197695Y5469026D01*
G37*
G36*
X20739100Y5468162D02*
G01*
X20748904Y5469026D01*
X20758353Y5471566D01*
X20767294Y5475681D01*
X20775320Y5481320D01*
X20782280Y5488279D01*
X20787918Y5496306D01*
X20792033Y5505246D01*
X20794573Y5514695D01*
X20795437Y5524500D01*
X20794573Y5534304D01*
X20792033Y5543753D01*
X20787918Y5552694D01*
X20782280Y5560720D01*
X20780705Y5562295D01*
X20778470Y5565597D01*
X20777708Y5569508D01*
X20777708Y7435291D01*
X20778470Y7439202D01*
X20780705Y7442504D01*
X20782280Y7444079D01*
X20787918Y7452106D01*
X20792033Y7461046D01*
X20794573Y7470495D01*
X20795437Y7480300D01*
X20794573Y7490104D01*
X20792033Y7499553D01*
X20787918Y7508494D01*
X20782280Y7516520D01*
X20775320Y7523480D01*
X20767294Y7529118D01*
X20758353Y7533233D01*
X20748904Y7535773D01*
X20739100Y7536637D01*
X20729295Y7535773D01*
X20719846Y7533233D01*
X20710906Y7529118D01*
X20702879Y7523480D01*
X20695920Y7516520D01*
X20690281Y7508494D01*
X20686166Y7499553D01*
X20683626Y7490104D01*
X20682762Y7480300D01*
X20683626Y7470495D01*
X20686166Y7461046D01*
X20690281Y7452106D01*
X20695920Y7444079D01*
X20697494Y7442504D01*
X20699730Y7439202D01*
X20700492Y7435291D01*
X20700492Y5569508D01*
X20699730Y5565597D01*
X20697494Y5562295D01*
X20695920Y5560720D01*
X20690281Y5552694D01*
X20686166Y5543753D01*
X20683626Y5534304D01*
X20682762Y5524500D01*
X20683626Y5514695D01*
X20686166Y5505246D01*
X20690281Y5496306D01*
X20695920Y5488279D01*
X20702879Y5481320D01*
X20710906Y5475681D01*
X20719846Y5471566D01*
X20729295Y5469026D01*
G37*
G36*
X13995400Y5468162D02*
G01*
X14005204Y5469026D01*
X14014653Y5471566D01*
X14023594Y5475681D01*
X14031620Y5481320D01*
X14038580Y5488279D01*
X14044218Y5496306D01*
X14048333Y5505246D01*
X14050873Y5514695D01*
X14051737Y5524500D01*
X14050873Y5534304D01*
X14048333Y5543753D01*
X14044218Y5552694D01*
X14038580Y5560720D01*
X14037005Y5562295D01*
X14034769Y5565597D01*
X14034007Y5569508D01*
X14034007Y7435291D01*
X14034769Y7439202D01*
X14037005Y7442504D01*
X14038580Y7444079D01*
X14044218Y7452106D01*
X14048333Y7461046D01*
X14050873Y7470495D01*
X14051737Y7480300D01*
X14050873Y7490104D01*
X14048333Y7499553D01*
X14044218Y7508494D01*
X14038580Y7516520D01*
X14031620Y7523480D01*
X14023594Y7529118D01*
X14014653Y7533233D01*
X14005204Y7535773D01*
X13995400Y7536637D01*
X13985595Y7535773D01*
X13976146Y7533233D01*
X13967206Y7529118D01*
X13959179Y7523480D01*
X13952219Y7516520D01*
X13946581Y7508494D01*
X13942466Y7499553D01*
X13939926Y7490104D01*
X13939062Y7480300D01*
X13939926Y7470495D01*
X13942466Y7461046D01*
X13946581Y7452106D01*
X13952219Y7444079D01*
X13953794Y7442504D01*
X13956030Y7439202D01*
X13956792Y7435291D01*
X13956792Y5569508D01*
X13956030Y5565597D01*
X13953794Y5562295D01*
X13952219Y5560720D01*
X13946581Y5552694D01*
X13942466Y5543753D01*
X13939926Y5534304D01*
X13939062Y5524500D01*
X13939926Y5514695D01*
X13942466Y5505246D01*
X13946581Y5496306D01*
X13952219Y5488279D01*
X13959179Y5481320D01*
X13967206Y5475681D01*
X13976146Y5471566D01*
X13985595Y5469026D01*
G37*
G36*
X19634200Y5468162D02*
G01*
X19644004Y5469026D01*
X19653453Y5471566D01*
X19662394Y5475681D01*
X19670420Y5481320D01*
X19677380Y5488279D01*
X19683018Y5496306D01*
X19687133Y5505246D01*
X19689673Y5514695D01*
X19690537Y5524500D01*
X19689673Y5534304D01*
X19687133Y5543753D01*
X19683018Y5552694D01*
X19677380Y5560720D01*
X19675805Y5562295D01*
X19673570Y5565597D01*
X19672808Y5569508D01*
X19672808Y8019491D01*
X19673570Y8023402D01*
X19675805Y8026704D01*
X19677380Y8028279D01*
X19683018Y8036306D01*
X19687133Y8045246D01*
X19689673Y8054695D01*
X19690537Y8064500D01*
X19689673Y8074304D01*
X19687133Y8083753D01*
X19683018Y8092694D01*
X19677380Y8100720D01*
X19670420Y8107680D01*
X19662394Y8113318D01*
X19653453Y8117433D01*
X19644004Y8119973D01*
X19634200Y8120837D01*
X19624395Y8119973D01*
X19614946Y8117433D01*
X19606006Y8113318D01*
X19597979Y8107680D01*
X19591020Y8100720D01*
X19585381Y8092694D01*
X19581266Y8083753D01*
X19578726Y8074304D01*
X19577862Y8064500D01*
X19578726Y8054695D01*
X19581266Y8045246D01*
X19585381Y8036306D01*
X19591020Y8028279D01*
X19592594Y8026704D01*
X19594830Y8023402D01*
X19595592Y8019491D01*
X19595592Y5569508D01*
X19594830Y5565597D01*
X19592594Y5562295D01*
X19591020Y5560720D01*
X19585381Y5552694D01*
X19581266Y5543753D01*
X19578726Y5534304D01*
X19577862Y5524500D01*
X19578726Y5514695D01*
X19581266Y5505246D01*
X19585381Y5496306D01*
X19591020Y5488279D01*
X19597979Y5481320D01*
X19606006Y5475681D01*
X19614946Y5471566D01*
X19624395Y5469026D01*
G37*
G36*
X31153100Y5468162D02*
G01*
X31162904Y5469026D01*
X31172353Y5471566D01*
X31181294Y5475681D01*
X31189320Y5481320D01*
X31196280Y5488279D01*
X31201918Y5496306D01*
X31206033Y5505246D01*
X31208573Y5514695D01*
X31209437Y5524500D01*
X31208573Y5534304D01*
X31206033Y5543753D01*
X31201918Y5552694D01*
X31196280Y5560720D01*
X31194705Y5562295D01*
X31192470Y5565597D01*
X31191708Y5569508D01*
X31191708Y8019491D01*
X31192470Y8023402D01*
X31194705Y8026704D01*
X31196280Y8028279D01*
X31201918Y8036306D01*
X31206033Y8045246D01*
X31208573Y8054695D01*
X31209437Y8064500D01*
X31208573Y8074304D01*
X31206033Y8083753D01*
X31201918Y8092694D01*
X31196280Y8100720D01*
X31189320Y8107680D01*
X31181294Y8113318D01*
X31172353Y8117433D01*
X31162904Y8119973D01*
X31153100Y8120837D01*
X31143295Y8119973D01*
X31133846Y8117433D01*
X31124906Y8113318D01*
X31116879Y8107680D01*
X31109920Y8100720D01*
X31104281Y8092694D01*
X31100166Y8083753D01*
X31097626Y8074304D01*
X31096762Y8064500D01*
X31097626Y8054695D01*
X31100166Y8045246D01*
X31104281Y8036306D01*
X31109920Y8028279D01*
X31111494Y8026704D01*
X31113730Y8023402D01*
X31114492Y8019491D01*
X31114492Y5569508D01*
X31113730Y5565597D01*
X31111494Y5562295D01*
X31109920Y5560720D01*
X31104281Y5552694D01*
X31100166Y5543753D01*
X31097626Y5534304D01*
X31096762Y5524500D01*
X31097626Y5514695D01*
X31100166Y5505246D01*
X31104281Y5496306D01*
X31109920Y5488279D01*
X31116879Y5481320D01*
X31124906Y5475681D01*
X31133846Y5471566D01*
X31143295Y5469026D01*
G37*
G36*
X8089900Y5468162D02*
G01*
X8099704Y5469026D01*
X8109153Y5471566D01*
X8118094Y5475681D01*
X8126120Y5481320D01*
X8133080Y5488279D01*
X8138718Y5496306D01*
X8142833Y5505246D01*
X8145373Y5514695D01*
X8146237Y5524500D01*
X8145373Y5534304D01*
X8142833Y5543753D01*
X8138718Y5552694D01*
X8133080Y5560720D01*
X8131505Y5562295D01*
X8129270Y5565597D01*
X8128508Y5569508D01*
X8128508Y8019491D01*
X8129270Y8023402D01*
X8131505Y8026704D01*
X8133080Y8028279D01*
X8138718Y8036306D01*
X8142833Y8045246D01*
X8145373Y8054695D01*
X8146237Y8064500D01*
X8145373Y8074304D01*
X8142833Y8083753D01*
X8138718Y8092694D01*
X8133080Y8100720D01*
X8126120Y8107680D01*
X8118094Y8113318D01*
X8109153Y8117433D01*
X8099704Y8119973D01*
X8089900Y8120837D01*
X8080095Y8119973D01*
X8070646Y8117433D01*
X8061706Y8113318D01*
X8053679Y8107680D01*
X8046720Y8100720D01*
X8041081Y8092694D01*
X8036966Y8083753D01*
X8034426Y8074304D01*
X8033562Y8064500D01*
X8034426Y8054695D01*
X8036966Y8045246D01*
X8041081Y8036306D01*
X8046720Y8028279D01*
X8048294Y8026704D01*
X8050530Y8023402D01*
X8051292Y8019491D01*
X8051292Y5569508D01*
X8050530Y5565597D01*
X8048294Y5562295D01*
X8046720Y5560720D01*
X8041081Y5552694D01*
X8036966Y5543753D01*
X8034426Y5534304D01*
X8033562Y5524500D01*
X8034426Y5514695D01*
X8036966Y5505246D01*
X8041081Y5496306D01*
X8046720Y5488279D01*
X8053679Y5481320D01*
X8061706Y5475681D01*
X8070646Y5471566D01*
X8080095Y5469026D01*
G37*
G36*
X2794000Y5785662D02*
G01*
X2803804Y5786526D01*
X2813253Y5789066D01*
X2822194Y5793181D01*
X2830220Y5798820D01*
X2837180Y5805779D01*
X2842818Y5813806D01*
X2846933Y5822746D01*
X2849473Y5832195D01*
X2850337Y5842000D01*
X2849473Y5851804D01*
X2846933Y5861253D01*
X2842818Y5870194D01*
X2837180Y5878220D01*
X2835605Y5879795D01*
X2833370Y5883097D01*
X2832608Y5887008D01*
X2832608Y7232091D01*
X2833370Y7236002D01*
X2835605Y7239304D01*
X2837180Y7240879D01*
X2842818Y7248906D01*
X2846933Y7257846D01*
X2849473Y7267295D01*
X2850337Y7277100D01*
X2849473Y7286904D01*
X2846933Y7296353D01*
X2842818Y7305294D01*
X2837180Y7313320D01*
X2830220Y7320280D01*
X2822194Y7325918D01*
X2813253Y7330033D01*
X2803804Y7332573D01*
X2794000Y7333437D01*
X2784195Y7332573D01*
X2774746Y7330033D01*
X2765806Y7325918D01*
X2757779Y7320280D01*
X2750820Y7313320D01*
X2745181Y7305294D01*
X2741066Y7296353D01*
X2738526Y7286904D01*
X2737662Y7277100D01*
X2738526Y7267295D01*
X2741066Y7257846D01*
X2745181Y7248906D01*
X2750820Y7240879D01*
X2752394Y7239304D01*
X2754630Y7236002D01*
X2755392Y7232091D01*
X2755392Y5887008D01*
X2754630Y5883097D01*
X2752394Y5879795D01*
X2750820Y5878220D01*
X2745181Y5870194D01*
X2741066Y5861253D01*
X2738526Y5851804D01*
X2737662Y5842000D01*
X2738526Y5832195D01*
X2741066Y5822746D01*
X2745181Y5813806D01*
X2750820Y5805779D01*
X2757779Y5798820D01*
X2765806Y5793181D01*
X2774746Y5789066D01*
X2784195Y5786526D01*
G37*
G36*
X41325800Y6039662D02*
G01*
X41335604Y6040526D01*
X41345053Y6043066D01*
X41353994Y6047181D01*
X41362020Y6052820D01*
X41368980Y6059779D01*
X41374618Y6067806D01*
X41378733Y6076746D01*
X41381273Y6086195D01*
X41382137Y6096000D01*
X41381273Y6105804D01*
X41378733Y6115253D01*
X41374618Y6124194D01*
X41368980Y6132220D01*
X41367405Y6133795D01*
X41365170Y6137097D01*
X41364408Y6141008D01*
X41364408Y7232091D01*
X41365170Y7236002D01*
X41367405Y7239304D01*
X41368980Y7240879D01*
X41374618Y7248906D01*
X41378733Y7257846D01*
X41381273Y7267295D01*
X41382137Y7277100D01*
X41381273Y7286904D01*
X41378733Y7296353D01*
X41374618Y7305294D01*
X41368980Y7313320D01*
X41362020Y7320280D01*
X41353994Y7325918D01*
X41345053Y7330033D01*
X41335604Y7332573D01*
X41325800Y7333437D01*
X41315995Y7332573D01*
X41306546Y7330033D01*
X41297606Y7325918D01*
X41289579Y7320280D01*
X41282620Y7313320D01*
X41276981Y7305294D01*
X41272866Y7296353D01*
X41270326Y7286904D01*
X41269462Y7277100D01*
X41270326Y7267295D01*
X41272866Y7257846D01*
X41276981Y7248906D01*
X41282620Y7240879D01*
X41284194Y7239304D01*
X41286430Y7236002D01*
X41287192Y7232091D01*
X41287192Y6141008D01*
X41286430Y6137097D01*
X41284194Y6133795D01*
X41282620Y6132220D01*
X41276981Y6124194D01*
X41272866Y6115253D01*
X41270326Y6105804D01*
X41269462Y6096000D01*
X41270326Y6086195D01*
X41272866Y6076746D01*
X41276981Y6067806D01*
X41282620Y6059779D01*
X41289579Y6052820D01*
X41297606Y6047181D01*
X41306546Y6043066D01*
X41315995Y6040526D01*
G37*
G36*
X41711270Y6353403D02*
G01*
X41880129Y6353403D01*
X41886479Y6354114D01*
X41891915Y6355994D01*
X41896842Y6359093D01*
X41900906Y6363157D01*
X41904005Y6368084D01*
X41905936Y6373520D01*
X41906647Y6379870D01*
X41906647Y6548729D01*
X41905936Y6555028D01*
X41904005Y6560515D01*
X41900906Y6565392D01*
X41896842Y6569506D01*
X41891915Y6572554D01*
X41886479Y6574485D01*
X41880129Y6575196D01*
X41711270Y6575196D01*
X41704971Y6574485D01*
X41699484Y6572554D01*
X41694608Y6569506D01*
X41690493Y6565392D01*
X41687445Y6560515D01*
X41685514Y6555028D01*
X41684803Y6548729D01*
X41684803Y6379870D01*
X41685514Y6373520D01*
X41687445Y6368084D01*
X41690493Y6363157D01*
X41694608Y6359093D01*
X41699484Y6355994D01*
X41704971Y6354114D01*
G37*
G36*
X42046144Y6353454D02*
G01*
X42060368Y6353911D01*
X42074388Y6356197D01*
X42088003Y6360210D01*
X42101008Y6365951D01*
X42113149Y6373317D01*
X42124274Y6382207D01*
X42134129Y6392418D01*
X42142664Y6403797D01*
X42149623Y6416192D01*
X42154957Y6429349D01*
X42158564Y6443065D01*
X42160393Y6457188D01*
X42160393Y6471412D01*
X42158564Y6485483D01*
X42154957Y6499250D01*
X42149623Y6512407D01*
X42142664Y6524802D01*
X42134129Y6536181D01*
X42124274Y6546392D01*
X42113149Y6555231D01*
X42101008Y6562598D01*
X42088003Y6568338D01*
X42074388Y6572402D01*
X42060368Y6574637D01*
X42046144Y6575094D01*
X42032021Y6573774D01*
X42018153Y6570573D01*
X42004843Y6565696D01*
X41992245Y6559092D01*
X41980561Y6550964D01*
X41970045Y6541414D01*
X41960850Y6530594D01*
X41953078Y6518706D01*
X41946931Y6505905D01*
X41942461Y6492392D01*
X41939718Y6478473D01*
X41938803Y6464300D01*
X41939718Y6450126D01*
X41942461Y6436156D01*
X41946931Y6422694D01*
X41953078Y6409893D01*
X41960850Y6397955D01*
X41970045Y6387134D01*
X41980561Y6377584D01*
X41992245Y6369456D01*
X42004843Y6362903D01*
X42018153Y6357975D01*
X42032021Y6354826D01*
G37*
G36*
X42554144Y6353454D02*
G01*
X42568368Y6353911D01*
X42582388Y6356197D01*
X42596003Y6360210D01*
X42609008Y6365951D01*
X42621149Y6373317D01*
X42632274Y6382207D01*
X42642129Y6392418D01*
X42650664Y6403797D01*
X42657623Y6416192D01*
X42662957Y6429349D01*
X42666564Y6443065D01*
X42668393Y6457188D01*
X42668393Y6471412D01*
X42666564Y6485483D01*
X42662957Y6499250D01*
X42657623Y6512407D01*
X42650664Y6524802D01*
X42642129Y6536181D01*
X42632274Y6546392D01*
X42621149Y6555231D01*
X42609008Y6562598D01*
X42596003Y6568338D01*
X42582388Y6572402D01*
X42568368Y6574637D01*
X42554144Y6575094D01*
X42540021Y6573774D01*
X42526153Y6570573D01*
X42512843Y6565696D01*
X42500245Y6559092D01*
X42488561Y6550964D01*
X42478045Y6541414D01*
X42468850Y6530594D01*
X42461078Y6518706D01*
X42454931Y6505905D01*
X42450461Y6492392D01*
X42447718Y6478473D01*
X42446803Y6464300D01*
X42447718Y6450126D01*
X42450461Y6436156D01*
X42454931Y6422694D01*
X42461078Y6409893D01*
X42468850Y6397955D01*
X42478045Y6387134D01*
X42488561Y6377584D01*
X42500245Y6369456D01*
X42512843Y6362903D01*
X42526153Y6357975D01*
X42540021Y6354826D01*
G37*
G36*
X42300144Y6353454D02*
G01*
X42314368Y6353911D01*
X42328388Y6356197D01*
X42342003Y6360210D01*
X42355008Y6365951D01*
X42367149Y6373317D01*
X42378274Y6382207D01*
X42388129Y6392418D01*
X42396664Y6403797D01*
X42403623Y6416192D01*
X42408957Y6429349D01*
X42412564Y6443065D01*
X42414393Y6457188D01*
X42414393Y6471412D01*
X42412564Y6485483D01*
X42408957Y6499250D01*
X42403623Y6512407D01*
X42396664Y6524802D01*
X42388129Y6536181D01*
X42378274Y6546392D01*
X42367149Y6555231D01*
X42355008Y6562598D01*
X42348353Y6565544D01*
X42345152Y6567779D01*
X42343070Y6571030D01*
X42342308Y6574840D01*
X42342308Y6762191D01*
X42343070Y6766102D01*
X42345305Y6769404D01*
X42346880Y6770979D01*
X42352518Y6779006D01*
X42356633Y6787946D01*
X42359173Y6797395D01*
X42360037Y6807200D01*
X42359173Y6817004D01*
X42356633Y6826453D01*
X42352518Y6835394D01*
X42346880Y6843420D01*
X42339920Y6850380D01*
X42331894Y6856018D01*
X42322953Y6860133D01*
X42313504Y6862673D01*
X42303700Y6863537D01*
X42293895Y6862673D01*
X42284446Y6860133D01*
X42275506Y6856018D01*
X42267479Y6850380D01*
X42260520Y6843420D01*
X42254881Y6835394D01*
X42250766Y6826453D01*
X42248226Y6817004D01*
X42247362Y6807200D01*
X42248226Y6797395D01*
X42250766Y6787946D01*
X42254881Y6779006D01*
X42260520Y6770979D01*
X42262094Y6769404D01*
X42264330Y6766102D01*
X42265092Y6762191D01*
X42265092Y6575094D01*
X42264431Y6571437D01*
X42262501Y6568338D01*
X42259605Y6566052D01*
X42246245Y6559092D01*
X42234561Y6550964D01*
X42224045Y6541414D01*
X42214850Y6530594D01*
X42207078Y6518706D01*
X42200931Y6505905D01*
X42196461Y6492392D01*
X42193718Y6478473D01*
X42192803Y6464300D01*
X42193718Y6450126D01*
X42196461Y6436156D01*
X42200931Y6422694D01*
X42207078Y6409893D01*
X42214850Y6397955D01*
X42224045Y6387134D01*
X42234561Y6377584D01*
X42246245Y6369456D01*
X42258843Y6362903D01*
X42272153Y6357975D01*
X42286021Y6354826D01*
G37*
G36*
X42824400Y6354267D02*
G01*
X42836388Y6356197D01*
X42850003Y6360210D01*
X42863008Y6365951D01*
X42875149Y6373317D01*
X42886274Y6382207D01*
X42896129Y6392418D01*
X42904664Y6403797D01*
X42911623Y6416192D01*
X42916957Y6429349D01*
X42920564Y6443065D01*
X42921631Y6451600D01*
X42824400Y6451600D01*
G37*
G36*
X43078400Y6354267D02*
G01*
X43090388Y6356197D01*
X43104003Y6360210D01*
X43117008Y6365951D01*
X43129149Y6373317D01*
X43140274Y6382207D01*
X43150129Y6392418D01*
X43158664Y6403797D01*
X43165623Y6416192D01*
X43170957Y6429349D01*
X43174564Y6443065D01*
X43175631Y6451600D01*
X43078400Y6451600D01*
G37*
G36*
X43053000Y6354318D02*
G01*
X43053000Y6451600D01*
X42955667Y6451600D01*
X42955718Y6450126D01*
X42958461Y6436156D01*
X42962931Y6422694D01*
X42969078Y6409893D01*
X42976850Y6397955D01*
X42986045Y6387134D01*
X42996561Y6377584D01*
X43008245Y6369456D01*
X43020843Y6362903D01*
X43034153Y6357975D01*
X43048021Y6354826D01*
G37*
G36*
X42799000Y6354318D02*
G01*
X42799000Y6451600D01*
X42701667Y6451600D01*
X42701718Y6450126D01*
X42704461Y6436156D01*
X42708931Y6422694D01*
X42715078Y6409893D01*
X42722850Y6397955D01*
X42732045Y6387134D01*
X42742561Y6377584D01*
X42754245Y6369456D01*
X42766843Y6362903D01*
X42780153Y6357975D01*
X42794021Y6354826D01*
G37*
G36*
X42824400Y6477000D02*
G01*
X42921631Y6477000D01*
X42920564Y6485483D01*
X42916957Y6499250D01*
X42911623Y6512407D01*
X42904664Y6524802D01*
X42896129Y6536181D01*
X42886274Y6546392D01*
X42875149Y6555231D01*
X42863008Y6562598D01*
X42850003Y6568338D01*
X42836388Y6572402D01*
X42824400Y6574332D01*
G37*
G36*
X43078400Y6477000D02*
G01*
X43175631Y6477000D01*
X43174564Y6485483D01*
X43170957Y6499250D01*
X43165623Y6512407D01*
X43158664Y6524802D01*
X43150129Y6536181D01*
X43140274Y6546392D01*
X43129149Y6555231D01*
X43117008Y6562598D01*
X43104003Y6568338D01*
X43090388Y6572402D01*
X43078400Y6574332D01*
G37*
G36*
X42955667Y6477000D02*
G01*
X43053000Y6477000D01*
X43053000Y6574231D01*
X43048021Y6573774D01*
X43034153Y6570573D01*
X43020843Y6565696D01*
X43008245Y6559092D01*
X42996561Y6550964D01*
X42986045Y6541414D01*
X42976850Y6530594D01*
X42969078Y6518706D01*
X42962931Y6505905D01*
X42958461Y6492392D01*
X42955718Y6478473D01*
G37*
G36*
X42701667Y6477000D02*
G01*
X42799000Y6477000D01*
X42799000Y6574231D01*
X42794021Y6573774D01*
X42780153Y6570573D01*
X42766843Y6565696D01*
X42754245Y6559092D01*
X42742561Y6550964D01*
X42732045Y6541414D01*
X42722850Y6530594D01*
X42715078Y6518706D01*
X42708931Y6505905D01*
X42704461Y6492392D01*
X42701718Y6478473D01*
G37*
G36*
X13628776Y4449876D02*
G01*
X13643965Y4450791D01*
X13658900Y4453534D01*
X13673429Y4458055D01*
X13687298Y4464304D01*
X13700302Y4472178D01*
X13712240Y4481576D01*
X13723010Y4492294D01*
X13732357Y4504283D01*
X13740231Y4517288D01*
X13746480Y4531156D01*
X13751001Y4545634D01*
X13753744Y4560620D01*
X13754658Y4575759D01*
X13753744Y4590948D01*
X13751001Y4605934D01*
X13746480Y4620412D01*
X13740231Y4634280D01*
X13732357Y4647285D01*
X13723010Y4659274D01*
X13712240Y4669993D01*
X13700302Y4679391D01*
X13687298Y4687265D01*
X13673429Y4693513D01*
X13658900Y4698034D01*
X13643965Y4700778D01*
X13628776Y4701692D01*
X13613587Y4700778D01*
X13598651Y4698034D01*
X13584123Y4693513D01*
X13570254Y4687265D01*
X13557250Y4679391D01*
X13545312Y4669993D01*
X13534542Y4659274D01*
X13525195Y4647285D01*
X13517321Y4634280D01*
X13511072Y4620412D01*
X13506551Y4605934D01*
X13503808Y4590948D01*
X13502894Y4575759D01*
X13503808Y4560620D01*
X13506551Y4545634D01*
X13511072Y4531156D01*
X13517321Y4517288D01*
X13525195Y4504283D01*
X13534542Y4492294D01*
X13545312Y4481576D01*
X13557250Y4472178D01*
X13570254Y4464304D01*
X13584123Y4458055D01*
X13598651Y4453534D01*
X13613587Y4450791D01*
G37*

%LPD*%
D10*
X42303700Y6807200D02*
G01*
X42303700Y6464300D01*
X2794000Y7277100D02*
G01*
X2794000Y5842000D01*
X5588000Y5092700D02*
G01*
X5588000Y5842000D01*
X5715000Y5422900D02*
G01*
X5715000Y7378700D01*
X8089900Y8064500D02*
G01*
X8089900Y5524500D01*
X9207500Y7480300D02*
G01*
X9207500Y5524500D01*
X9855200Y7480300D02*
G01*
X9855200Y5422900D01*
X43967400Y6807200D02*
G01*
X43967400Y7378700D01*
X41325800Y6096000D02*
G01*
X41325800Y7277100D01*
X43967400Y5092700D02*
G01*
X43967400Y6096000D01*
X40335200Y4991100D02*
G01*
X40335200Y7378700D01*
X38849300Y5422900D02*
G01*
X38849300Y8064500D01*
X37731700Y7480300D02*
G01*
X37731700Y5422900D01*
X37058600Y5524500D02*
G01*
X37058600Y7480300D01*
X36474400Y5524500D02*
G01*
X36474400Y7378700D01*
X35001200Y5422900D02*
G01*
X35001200Y8064500D01*
X33629600Y5422900D02*
G01*
X33629600Y7378700D01*
X32918400Y5422900D02*
G01*
X32918400Y7480300D01*
X32270700Y5524500D02*
G01*
X32270700Y7480300D01*
X31153100Y5524500D02*
G01*
X31153100Y8064500D01*
X28803600Y5422900D02*
G01*
X28803600Y7378700D01*
X27317700Y5422900D02*
G01*
X27317700Y8064500D01*
X25527000Y7480300D02*
G01*
X25527000Y5524500D01*
X24942800Y5524500D02*
G01*
X24942800Y7378700D01*
X23469600Y5422900D02*
G01*
X23469600Y8064500D01*
X22098000Y5422900D02*
G01*
X22098000Y7378700D01*
X21386800Y5422900D02*
G01*
X21386800Y7480300D01*
X20739100Y5524500D02*
G01*
X20739100Y7480300D01*
X19634200Y5524500D02*
G01*
X19634200Y8064500D01*
X18249900Y5422900D02*
G01*
X18249900Y7378700D01*
X15786100Y5422900D02*
G01*
X15786100Y8064500D01*
X14668500Y7480300D02*
G01*
X14668500Y5422900D01*
X13995400Y5524500D02*
G01*
X13995400Y7480300D01*
X13411200Y5524500D02*
G01*
X13411200Y7378700D01*
X11938000Y5422900D02*
G01*
X11938000Y8064500D01*
X10566400Y5422900D02*
G01*
X10566400Y7378700D01*
X26200100Y7480300D02*
G01*
X26200100Y5422900D01*
X6756400Y5422900D02*
G01*
X6756400Y7378700D01*
D11*
G01*
X41795715Y6464287D03*
D12*
G01*
X42049725Y6464274D03*
G01*
X42303725Y6464274D03*
G01*
X42557725Y6464274D03*
G01*
X42811725Y6464274D03*
G01*
X43065725Y6464274D03*
D13*
G01*
X3073400Y7734300D03*
G01*
X6134100Y5905500D03*
G01*
X43967400Y6807200D03*
G01*
X42303700Y6807200D03*
G01*
X41325800Y6096000D03*
G01*
X43967400Y6096000D03*
G01*
X5588000Y5842000D03*
G01*
X2794000Y5842000D03*
G01*
X2794000Y7277100D03*
G01*
X4165600Y7467600D03*
G01*
X5118100Y7467600D03*
G01*
X5715000Y7378700D03*
G01*
X3073400Y5448300D03*
G01*
X4165600Y5181600D03*
G01*
X5118100Y5181600D03*
G01*
X5588000Y5092700D03*
G01*
X5715000Y5422900D03*
G01*
X6426200Y7467600D03*
G01*
X6426200Y6540500D03*
G01*
X10566400Y7378700D03*
G01*
X10236200Y6540500D03*
G01*
X10236200Y7467600D03*
G01*
X6756400Y5422900D03*
G01*
X7531100Y5905500D03*
G01*
X7823200Y6540500D03*
G01*
X8089900Y8064500D03*
G01*
X7823200Y7467600D03*
G01*
X7683500Y8064500D03*
G01*
X8089900Y5524500D03*
G01*
X11531600Y8064500D03*
G01*
X11671300Y7467600D03*
G01*
X11938000Y8064500D03*
G01*
X11671300Y6540500D03*
G01*
X11379200Y5905500D03*
G01*
X8648700Y6007100D03*
G01*
X9296400Y6007100D03*
G01*
X8940800Y6642100D03*
G01*
X8940800Y7569200D03*
G01*
X9588500Y7569200D03*
G01*
X9588500Y6642100D03*
G01*
X9207500Y7480300D03*
G01*
X9855200Y7480300D03*
G01*
X9944100Y5905500D03*
G01*
X9207500Y5524500D03*
G01*
X12788900Y5905500D03*
G01*
X13081000Y7467600D03*
G01*
X13081000Y6540500D03*
G01*
X13411200Y7378700D03*
G01*
X9855200Y5422900D03*
G01*
X13716000Y7569200D03*
G01*
X14376400Y7569200D03*
G01*
X13716000Y6642100D03*
G01*
X14376400Y6642100D03*
G01*
X14084300Y6007100D03*
G01*
X15519400Y6540500D03*
G01*
X15786100Y8064500D03*
G01*
X15519400Y7467600D03*
G01*
X15367000Y8064500D03*
G01*
X19367500Y6540500D03*
G01*
X19634200Y8064500D03*
G01*
X19367500Y7467600D03*
G01*
X19215100Y8064500D03*
G01*
X18249900Y7378700D03*
G01*
X15227300Y5905500D03*
G01*
X17640300Y5905500D03*
G01*
X21473693Y5905500D03*
G01*
X21386800Y7480300D03*
G01*
X20739100Y7480300D03*
G01*
X21120100Y6642100D03*
G01*
X21120100Y7569200D03*
G01*
X20472400Y7569200D03*
G01*
X20472400Y6642100D03*
G01*
X20825993Y6007100D03*
G01*
X20178293Y6007100D03*
G01*
X21767800Y7467600D03*
G01*
X21767800Y6540500D03*
G01*
X22098000Y7378700D03*
G01*
X23202900Y7467600D03*
G01*
X23469600Y8064500D03*
G01*
X23202900Y6540500D03*
G01*
X27051000Y7467600D03*
G01*
X27317700Y8064500D03*
G01*
X27051000Y6540500D03*
G01*
X24942800Y7378700D03*
G01*
X24612600Y6540500D03*
G01*
X24612600Y7467600D03*
G01*
X24318518Y5905500D03*
G01*
X25613918Y6007100D03*
G01*
X25908000Y6642100D03*
G01*
X25247600Y6654800D03*
G01*
X25908000Y7569200D03*
G01*
X25247600Y7569200D03*
G01*
X28191104Y5905500D03*
G01*
X28803600Y7378700D03*
G01*
X17932400Y6540500D03*
G01*
X17932400Y7467600D03*
G01*
X28486100Y6540500D03*
G01*
X28486100Y7467600D03*
G01*
X26898600Y8064500D03*
G01*
X23063200Y8064500D03*
G01*
X19070497Y5905500D03*
G01*
X22913720Y5905500D03*
G01*
X26756918Y5905500D03*
G01*
X30600116Y5905500D03*
G01*
X30899100Y7467600D03*
G01*
X31153100Y8064500D03*
G01*
X30899100Y6540500D03*
G01*
X33629600Y7378700D03*
G01*
X33299400Y6540500D03*
G01*
X33299400Y7467600D03*
G01*
X31707912Y6007100D03*
G01*
X32355612Y6007100D03*
G01*
X32004000Y6642100D03*
G01*
X32004000Y7569200D03*
G01*
X32651700Y7569200D03*
G01*
X32651700Y6642100D03*
G01*
X32270700Y7480300D03*
G01*
X32918400Y7480300D03*
G01*
X33003312Y5905500D03*
G01*
X34734500Y6540500D03*
G01*
X35001200Y8064500D03*
G01*
X34734500Y7467600D03*
G01*
X34443314Y5905500D03*
G01*
X36144200Y7467600D03*
G01*
X36144200Y6540500D03*
G01*
X36474400Y7378700D03*
G01*
X36779200Y7569200D03*
G01*
X37439600Y7569200D03*
G01*
X36779200Y6654800D03*
G01*
X37439600Y6654800D03*
G01*
X37143512Y6007100D03*
G01*
X30734000Y8064500D03*
G01*
X34582100Y8064500D03*
G01*
X38286512Y5905500D03*
G01*
X38582600Y7467600D03*
G01*
X38849300Y8064500D03*
G01*
X38582600Y6540500D03*
G01*
X38417500Y8064500D03*
G01*
X40017700Y7467600D03*
G01*
X40017700Y6540500D03*
G01*
X39720697Y5905500D03*
G01*
X40335200Y7378700D03*
G01*
X43548300Y5181600D03*
G01*
X41505403Y5448300D03*
G01*
X43548300Y7467600D03*
G01*
X42595800Y7467600D03*
G01*
X41505403Y7734300D03*
G01*
X43967400Y7378700D03*
G01*
X41325800Y7277100D03*
G01*
X43967400Y5092700D03*
G01*
X40335200Y4991100D03*
G01*
X38849300Y5422900D03*
G01*
X37731700Y5422900D03*
G01*
X35848112Y5905500D03*
G01*
X37731700Y7480300D03*
G01*
X37058600Y5524500D03*
G01*
X37058600Y7480300D03*
G01*
X36474400Y5524500D03*
G01*
X35001200Y5422900D03*
G01*
X33629600Y5422900D03*
G01*
X32918400Y5422900D03*
G01*
X32270700Y5524500D03*
G01*
X31153100Y5524500D03*
G01*
X28803600Y5422900D03*
G01*
X27317700Y5422900D03*
G01*
X26200100Y7480300D03*
G01*
X25527000Y5524500D03*
G01*
X25527000Y7480300D03*
G01*
X24942800Y5524500D03*
G01*
X23469600Y5422900D03*
G01*
X22098000Y5422900D03*
G01*
X21386800Y5422900D03*
G01*
X20739100Y5524500D03*
G01*
X19634200Y5524500D03*
G01*
X18249900Y5422900D03*
G01*
X15786100Y5422900D03*
G01*
X14668500Y5422900D03*
G01*
X14668500Y7480300D03*
G01*
X13995400Y5524500D03*
G01*
X13995400Y7480300D03*
G01*
X13411200Y5524500D03*
G01*
X11938000Y5422900D03*
G01*
X10566400Y5422900D03*
G01*
X26200100Y5422900D03*
G01*
X6756400Y7378700D03*
G01*
X13347700Y6007100D03*
G01*
X24877318Y6007100D03*
G01*
X36406912Y6007100D03*
G01*
X42595800Y5181600D03*
M02*
