G04 Layer: BottomSilkscreenLayer*
G04 EasyEDA v6.5.34, 2023-08-29 12:17:18*
G04 ba4a484b4813477397863864965903c7,5a6b42c53f6a479593ecc07194224c93,10*
G04 Gerber Generator version 0.2*
G04 Scale: 100 percent, Rotated: No, Reflected: No *
G04 Dimensions in millimeters *
G04 leading zeros omitted , absolute positions ,4 integer and 5 decimal *
%FSLAX45Y45*%
%MOMM*%

%ADD10C,0.2032*%
%ADD11C,0.1520*%
%ADD12C,0.1524*%
%ADD13C,0.2540*%

%LPD*%
D10*
X24574500Y463989D02*
G01*
X24574500Y349445D01*
X24574500Y463989D02*
G01*
X24525409Y463989D01*
X24509046Y458536D01*
X24503590Y453082D01*
X24498137Y442173D01*
X24498137Y425808D01*
X24503590Y414898D01*
X24509046Y409445D01*
X24525409Y403989D01*
X24574500Y403989D01*
X24418500Y463989D02*
G01*
X24462135Y349445D01*
X24418500Y463989D02*
G01*
X24374863Y349445D01*
X24445772Y387626D02*
G01*
X24391228Y387626D01*
X24338864Y463989D02*
G01*
X24338864Y349445D01*
X24338864Y463989D02*
G01*
X24289773Y463989D01*
X24273410Y458536D01*
X24267955Y453082D01*
X24262501Y442173D01*
X24262501Y431264D01*
X24267955Y420354D01*
X24273410Y414898D01*
X24289773Y409445D01*
X24338864Y409445D01*
X24300682Y409445D02*
G01*
X24262501Y349445D01*
X24188318Y463989D02*
G01*
X24188318Y349445D01*
X24226499Y463989D02*
G01*
X24150137Y463989D01*
X24030137Y463989D02*
G01*
X24030137Y349445D01*
X24030137Y463989D02*
G01*
X23953774Y349445D01*
X23953774Y463989D02*
G01*
X23953774Y349445D01*
X23917772Y463989D02*
G01*
X23917772Y382173D01*
X23912319Y365808D01*
X23901410Y354898D01*
X23885047Y349445D01*
X23874138Y349445D01*
X23857772Y354898D01*
X23846866Y365808D01*
X23841410Y382173D01*
X23841410Y463989D01*
X23805410Y463989D02*
G01*
X23805410Y349445D01*
X23805410Y463989D02*
G01*
X23761773Y349445D01*
X23718138Y463989D02*
G01*
X23761773Y349445D01*
X23718138Y463989D02*
G01*
X23718138Y349445D01*
X23682137Y463989D02*
G01*
X23682137Y349445D01*
X23682137Y463989D02*
G01*
X23633046Y463989D01*
X23616683Y458536D01*
X23611230Y453082D01*
X23605774Y442173D01*
X23605774Y431264D01*
X23611230Y420354D01*
X23616683Y414898D01*
X23633046Y409445D01*
X23682137Y409445D02*
G01*
X23633046Y409445D01*
X23616683Y403989D01*
X23611230Y398536D01*
X23605774Y387626D01*
X23605774Y371264D01*
X23611230Y360354D01*
X23616683Y354898D01*
X23633046Y349445D01*
X23682137Y349445D01*
X23569775Y463989D02*
G01*
X23569775Y349445D01*
X23569775Y463989D02*
G01*
X23498865Y463989D01*
X23569775Y409445D02*
G01*
X23526137Y409445D01*
X23569775Y349445D02*
G01*
X23498865Y349445D01*
X23462866Y463989D02*
G01*
X23462866Y349445D01*
X23462866Y463989D02*
G01*
X23413775Y463989D01*
X23397410Y458536D01*
X23391957Y453082D01*
X23386501Y442173D01*
X23386501Y431264D01*
X23391957Y420354D01*
X23397410Y414898D01*
X23413775Y409445D01*
X23462866Y409445D01*
X23424685Y409445D02*
G01*
X23386501Y349445D01*
X23266501Y442173D02*
G01*
X23255592Y447626D01*
X23239229Y463989D01*
X23239229Y349445D01*
X23175958Y463989D02*
G01*
X23192320Y458536D01*
X23197774Y447626D01*
X23197774Y436717D01*
X23192320Y425808D01*
X23181411Y420354D01*
X23159593Y414898D01*
X23143230Y409445D01*
X23132321Y398536D01*
X23126867Y387626D01*
X23126867Y371264D01*
X23132321Y360354D01*
X23137774Y354898D01*
X23154139Y349445D01*
X23175958Y349445D01*
X23192320Y354898D01*
X23197774Y360354D01*
X23203230Y371264D01*
X23203230Y387626D01*
X23197774Y398536D01*
X23186867Y409445D01*
X23170502Y414898D01*
X23148683Y420354D01*
X23137774Y425808D01*
X23132321Y436717D01*
X23132321Y447626D01*
X23137774Y458536D01*
X23154139Y463989D01*
X23175958Y463989D01*
X23025412Y463989D02*
G01*
X23079956Y463989D01*
X23085412Y414898D01*
X23079956Y420354D01*
X23063593Y425808D01*
X23047231Y425808D01*
X23030865Y420354D01*
X23019956Y409445D01*
X23014503Y393082D01*
X23014503Y382173D01*
X23019956Y365808D01*
X23030865Y354898D01*
X23047231Y349445D01*
X23063593Y349445D01*
X23079956Y354898D01*
X23085412Y360354D01*
X23090865Y371264D01*
X22945775Y463989D02*
G01*
X22962138Y458536D01*
X22973047Y442173D01*
X22978503Y414898D01*
X22978503Y398536D01*
X22973047Y371264D01*
X22962138Y354898D01*
X22945775Y349445D01*
X22934866Y349445D01*
X22918503Y354898D01*
X22907594Y371264D01*
X22902138Y398536D01*
X22902138Y414898D01*
X22907594Y442173D01*
X22918503Y458536D01*
X22934866Y463989D01*
X22945775Y463989D01*
X22866139Y398536D02*
G01*
X22767958Y398536D01*
X22699230Y463989D02*
G01*
X22715593Y458536D01*
X22726502Y442173D01*
X22731958Y414898D01*
X22731958Y398536D01*
X22726502Y371264D01*
X22715593Y354898D01*
X22699230Y349445D01*
X22688321Y349445D01*
X22671958Y354898D01*
X22661049Y371264D01*
X22655593Y398536D01*
X22655593Y414898D01*
X22661049Y442173D01*
X22671958Y458536D01*
X22688321Y463989D01*
X22699230Y463989D01*
X22614140Y436717D02*
G01*
X22614140Y442173D01*
X22608684Y453082D01*
X22603231Y458536D01*
X22592322Y463989D01*
X22570503Y463989D01*
X22559594Y458536D01*
X22554140Y453082D01*
X22548684Y442173D01*
X22548684Y431264D01*
X22554140Y420354D01*
X22565050Y403989D01*
X22619594Y349445D01*
X22543231Y349445D01*
X22474504Y463989D02*
G01*
X22490866Y458536D01*
X22501776Y442173D01*
X22507232Y414898D01*
X22507232Y398536D01*
X22501776Y371264D01*
X22490866Y354898D01*
X22474504Y349445D01*
X22463594Y349445D01*
X22447232Y354898D01*
X22436322Y371264D01*
X22430866Y398536D01*
X22430866Y414898D01*
X22436322Y442173D01*
X22447232Y458536D01*
X22463594Y463989D01*
X22474504Y463989D01*
X22394867Y442173D02*
G01*
X22383958Y447626D01*
X22367595Y463989D01*
X22367595Y349445D01*
X22247595Y463989D02*
G01*
X22203958Y349445D01*
X22160323Y463989D02*
G01*
X22203958Y349445D01*
X22124322Y442173D02*
G01*
X22113415Y447626D01*
X22097050Y463989D01*
X22097050Y349445D01*
X22055594Y376717D02*
G01*
X22061050Y371264D01*
X22055594Y365808D01*
X22050141Y371264D01*
X22055594Y376717D01*
X22008685Y436717D02*
G01*
X22008685Y442173D01*
X22003232Y453082D01*
X21997776Y458536D01*
X21986869Y463989D01*
X21965051Y463989D01*
X21954142Y458536D01*
X21948686Y453082D01*
X21943232Y442173D01*
X21943232Y431264D01*
X21948686Y420354D01*
X21959595Y403989D01*
X22014141Y349445D01*
X21937776Y349445D01*
X25260137Y244426D02*
G01*
X25271046Y255336D01*
X25287409Y260789D01*
X25309228Y260789D01*
X25325590Y255336D01*
X25336500Y244426D01*
X25336500Y233517D01*
X25331046Y222608D01*
X25325590Y217154D01*
X25314681Y211698D01*
X25281953Y200789D01*
X25271046Y195336D01*
X25265590Y189882D01*
X25260137Y178973D01*
X25260137Y162608D01*
X25271046Y151698D01*
X25287409Y146245D01*
X25309228Y146245D01*
X25325590Y151698D01*
X25336500Y162608D01*
X25224135Y260789D02*
G01*
X25224135Y178973D01*
X25218682Y162608D01*
X25207772Y151698D01*
X25191410Y146245D01*
X25180500Y146245D01*
X25164135Y151698D01*
X25153228Y162608D01*
X25147772Y178973D01*
X25147772Y260789D01*
X25111773Y260789D02*
G01*
X25111773Y146245D01*
X25111773Y260789D02*
G01*
X25062682Y260789D01*
X25046317Y255336D01*
X25040864Y249882D01*
X25035410Y238973D01*
X25035410Y228064D01*
X25040864Y217154D01*
X25046317Y211698D01*
X25062682Y206245D01*
X25111773Y206245D02*
G01*
X25062682Y206245D01*
X25046317Y200789D01*
X25040864Y195336D01*
X25035410Y184426D01*
X25035410Y168064D01*
X25040864Y157154D01*
X25046317Y151698D01*
X25062682Y146245D01*
X25111773Y146245D01*
X24923046Y244426D02*
G01*
X24933955Y255336D01*
X24950318Y260789D01*
X24972136Y260789D01*
X24988499Y255336D01*
X24999408Y244426D01*
X24999408Y233517D01*
X24993955Y222608D01*
X24988499Y217154D01*
X24977590Y211698D01*
X24944865Y200789D01*
X24933955Y195336D01*
X24928499Y189882D01*
X24923046Y178973D01*
X24923046Y162608D01*
X24933955Y151698D01*
X24950318Y146245D01*
X24972136Y146245D01*
X24988499Y151698D01*
X24999408Y162608D01*
X24848865Y260789D02*
G01*
X24848865Y146245D01*
X24887047Y260789D02*
G01*
X24810681Y260789D01*
X24731047Y260789D02*
G01*
X24774682Y146245D01*
X24731047Y260789D02*
G01*
X24687410Y146245D01*
X24758319Y184426D02*
G01*
X24703773Y184426D01*
X24613229Y260789D02*
G01*
X24613229Y146245D01*
X24651411Y260789D02*
G01*
X24575046Y260789D01*
X24539046Y260789D02*
G01*
X24539046Y146245D01*
X24470319Y260789D02*
G01*
X24481228Y255336D01*
X24492137Y244426D01*
X24497591Y233517D01*
X24503047Y217154D01*
X24503047Y189882D01*
X24497591Y173517D01*
X24492137Y162608D01*
X24481228Y151698D01*
X24470319Y146245D01*
X24448500Y146245D01*
X24437591Y151698D01*
X24426684Y162608D01*
X24421228Y173517D01*
X24415775Y189882D01*
X24415775Y217154D01*
X24421228Y233517D01*
X24426684Y244426D01*
X24437591Y255336D01*
X24448500Y260789D01*
X24470319Y260789D01*
X24379773Y260789D02*
G01*
X24379773Y146245D01*
X24379773Y260789D02*
G01*
X24303410Y146245D01*
X24303410Y260789D02*
G01*
X24303410Y146245D01*
X24107048Y244426D02*
G01*
X24117957Y255336D01*
X24134320Y260789D01*
X24156139Y260789D01*
X24172501Y255336D01*
X24183411Y244426D01*
X24183411Y233517D01*
X24177957Y222608D01*
X24172501Y217154D01*
X24161592Y211698D01*
X24128867Y200789D01*
X24117957Y195336D01*
X24112501Y189882D01*
X24107048Y178973D01*
X24107048Y162608D01*
X24117957Y151698D01*
X24134320Y146245D01*
X24156139Y146245D01*
X24172501Y151698D01*
X24183411Y162608D01*
X24071049Y260789D02*
G01*
X24071049Y146245D01*
X24035047Y260789D02*
G01*
X24035047Y146245D01*
X24035047Y260789D02*
G01*
X23991412Y146245D01*
X23947775Y260789D02*
G01*
X23991412Y146245D01*
X23947775Y260789D02*
G01*
X23947775Y146245D01*
X23911775Y260789D02*
G01*
X23911775Y178973D01*
X23906319Y162608D01*
X23895413Y151698D01*
X23879048Y146245D01*
X23868138Y146245D01*
X23851776Y151698D01*
X23840866Y162608D01*
X23835413Y178973D01*
X23835413Y260789D01*
X23799411Y260789D02*
G01*
X23799411Y146245D01*
X23799411Y146245D02*
G01*
X23733958Y146245D01*
X23654321Y260789D02*
G01*
X23697958Y146245D01*
X23654321Y260789D02*
G01*
X23610684Y146245D01*
X23681593Y184426D02*
G01*
X23627049Y184426D01*
X23536503Y260789D02*
G01*
X23536503Y146245D01*
X23574684Y260789D02*
G01*
X23498322Y260789D01*
X23429595Y260789D02*
G01*
X23440504Y255336D01*
X23451413Y244426D01*
X23456866Y233517D01*
X23462322Y217154D01*
X23462322Y189882D01*
X23456866Y173517D01*
X23451413Y162608D01*
X23440504Y151698D01*
X23429595Y146245D01*
X23407776Y146245D01*
X23396867Y151698D01*
X23385957Y162608D01*
X23380504Y173517D01*
X23375048Y189882D01*
X23375048Y217154D01*
X23380504Y233517D01*
X23385957Y244426D01*
X23396867Y255336D01*
X23407776Y260789D01*
X23429595Y260789D01*
X23339049Y260789D02*
G01*
X23339049Y146245D01*
X23339049Y260789D02*
G01*
X23289958Y260789D01*
X23273595Y255336D01*
X23268139Y249882D01*
X23262686Y238973D01*
X23262686Y228064D01*
X23268139Y217154D01*
X23273595Y211698D01*
X23289958Y206245D01*
X23339049Y206245D01*
X23300867Y206245D02*
G01*
X23262686Y146245D01*
X23142686Y260789D02*
G01*
X23142686Y146245D01*
X23142686Y146245D02*
G01*
X23077230Y146245D01*
X23041231Y260789D02*
G01*
X23041231Y146245D01*
X23041231Y260789D02*
G01*
X22970322Y260789D01*
X23041231Y206245D02*
G01*
X22997594Y206245D01*
X23041231Y146245D02*
G01*
X22970322Y146245D01*
X22934322Y260789D02*
G01*
X22934322Y146245D01*
X22934322Y260789D02*
G01*
X22896141Y260789D01*
X22879776Y255336D01*
X22868869Y244426D01*
X22863413Y233517D01*
X22857960Y217154D01*
X22857960Y189882D01*
X22863413Y173517D01*
X22868869Y162608D01*
X22879776Y151698D01*
X22896141Y146245D01*
X22934322Y146245D01*
X22737960Y260789D02*
G01*
X22737960Y146245D01*
X22737960Y260789D02*
G01*
X22688870Y260789D01*
X22672504Y255336D01*
X22667051Y249882D01*
X22661595Y238973D01*
X22661595Y228064D01*
X22667051Y217154D01*
X22672504Y211698D01*
X22688870Y206245D01*
X22737960Y206245D02*
G01*
X22688870Y206245D01*
X22672504Y200789D01*
X22667051Y195336D01*
X22661595Y184426D01*
X22661595Y168064D01*
X22667051Y157154D01*
X22672504Y151698D01*
X22688870Y146245D01*
X22737960Y146245D01*
X22592868Y260789D02*
G01*
X22603777Y255336D01*
X22614686Y244426D01*
X22620142Y233517D01*
X22625596Y217154D01*
X22625596Y189882D01*
X22620142Y173517D01*
X22614686Y162608D01*
X22603777Y151698D01*
X22592868Y146245D01*
X22571052Y146245D01*
X22560142Y151698D01*
X22549233Y162608D01*
X22543777Y173517D01*
X22538324Y189882D01*
X22538324Y217154D01*
X22543777Y233517D01*
X22549233Y244426D01*
X22560142Y255336D01*
X22571052Y260789D01*
X22592868Y260789D01*
X22458687Y260789D02*
G01*
X22502324Y146245D01*
X22458687Y260789D02*
G01*
X22415050Y146245D01*
X22485959Y184426D02*
G01*
X22431415Y184426D01*
X22379050Y260789D02*
G01*
X22379050Y146245D01*
X22379050Y260789D02*
G01*
X22329960Y260789D01*
X22313597Y255336D01*
X22308141Y249882D01*
X22302688Y238973D01*
X22302688Y228064D01*
X22308141Y217154D01*
X22313597Y211698D01*
X22329960Y206245D01*
X22379050Y206245D01*
X22340869Y206245D02*
G01*
X22302688Y146245D01*
X22266689Y260789D02*
G01*
X22266689Y146245D01*
X22266689Y260789D02*
G01*
X22228505Y260789D01*
X22212142Y255336D01*
X22201233Y244426D01*
X22195779Y233517D01*
X22190323Y217154D01*
X22190323Y189882D01*
X22195779Y173517D01*
X22201233Y162608D01*
X22212142Y151698D01*
X22228505Y146245D01*
X22266689Y146245D01*
X22070324Y195336D02*
G01*
X21972143Y195336D01*
X21852143Y260789D02*
G01*
X21852143Y146245D01*
X21852143Y260789D02*
G01*
X21803052Y260789D01*
X21786689Y255336D01*
X21781234Y249882D01*
X21775780Y238973D01*
X21775780Y228064D01*
X21781234Y217154D01*
X21786689Y211698D01*
X21803052Y206245D01*
X21852143Y206245D02*
G01*
X21803052Y206245D01*
X21786689Y200789D01*
X21781234Y195336D01*
X21775780Y184426D01*
X21775780Y168064D01*
X21781234Y157154D01*
X21786689Y151698D01*
X21803052Y146245D01*
X21852143Y146245D01*
X21707053Y260789D02*
G01*
X21717962Y255336D01*
X21728871Y244426D01*
X21734325Y233517D01*
X21739778Y217154D01*
X21739778Y189882D01*
X21734325Y173517D01*
X21728871Y162608D01*
X21717962Y151698D01*
X21707053Y146245D01*
X21685234Y146245D01*
X21674325Y151698D01*
X21663416Y162608D01*
X21657962Y173517D01*
X21652506Y189882D01*
X21652506Y217154D01*
X21657962Y233517D01*
X21663416Y244426D01*
X21674325Y255336D01*
X21685234Y260789D01*
X21707053Y260789D01*
X21578326Y260789D02*
G01*
X21578326Y146245D01*
X21616507Y260789D02*
G01*
X21540144Y260789D01*
X21465961Y260789D02*
G01*
X21465961Y146245D01*
X21504142Y260789D02*
G01*
X21427780Y260789D01*
X21359053Y260789D02*
G01*
X21369962Y255336D01*
X21380871Y244426D01*
X21386325Y233517D01*
X21391780Y217154D01*
X21391780Y189882D01*
X21386325Y173517D01*
X21380871Y162608D01*
X21369962Y151698D01*
X21359053Y146245D01*
X21337234Y146245D01*
X21326325Y151698D01*
X21315418Y162608D01*
X21309962Y173517D01*
X21304509Y189882D01*
X21304509Y217154D01*
X21309962Y233517D01*
X21315418Y244426D01*
X21326325Y255336D01*
X21337234Y260789D01*
X21359053Y260789D01*
X21268507Y260789D02*
G01*
X21268507Y146245D01*
X21268507Y260789D02*
G01*
X21224872Y146245D01*
X21181235Y260789D02*
G01*
X21224872Y146245D01*
X21181235Y260789D02*
G01*
X21181235Y146245D01*
D11*
X39876846Y267751D02*
G01*
X39876846Y184624D01*
X39882043Y169037D01*
X39887237Y163842D01*
X39897629Y158648D01*
X39908020Y158648D01*
X39918411Y163842D01*
X39923608Y169037D01*
X39928802Y184624D01*
X39928802Y195016D01*
X39842556Y267751D02*
G01*
X39842556Y158648D01*
X39842556Y158648D02*
G01*
X39780212Y158648D01*
X39667990Y241774D02*
G01*
X39673187Y252166D01*
X39683578Y262557D01*
X39693966Y267751D01*
X39714749Y267751D01*
X39725140Y262557D01*
X39735531Y252166D01*
X39740728Y241774D01*
X39745922Y226187D01*
X39745922Y200210D01*
X39740728Y184624D01*
X39735531Y174233D01*
X39725140Y163842D01*
X39714749Y158648D01*
X39693966Y158648D01*
X39683578Y163842D01*
X39673187Y174233D01*
X39667990Y184624D01*
X39581747Y267751D02*
G01*
X39581747Y184624D01*
X39586941Y169037D01*
X39592138Y163842D01*
X39602526Y158648D01*
X39612917Y158648D01*
X39623309Y163842D01*
X39628505Y169037D01*
X39633700Y184624D01*
X39633700Y195016D01*
X39547457Y267751D02*
G01*
X39547457Y158648D01*
X39547457Y158648D02*
G01*
X39485110Y158648D01*
X39372887Y241774D02*
G01*
X39378084Y252166D01*
X39388475Y262557D01*
X39398867Y267751D01*
X39419646Y267751D01*
X39430037Y262557D01*
X39440429Y252166D01*
X39445625Y241774D01*
X39450820Y226187D01*
X39450820Y200210D01*
X39445625Y184624D01*
X39440429Y174233D01*
X39430037Y163842D01*
X39419646Y158648D01*
X39398867Y158648D01*
X39388475Y163842D01*
X39378084Y174233D01*
X39372887Y184624D01*
X39286644Y267751D02*
G01*
X39286644Y184624D01*
X39291839Y169037D01*
X39297035Y163842D01*
X39307427Y158648D01*
X39317818Y158648D01*
X39328206Y163842D01*
X39333403Y169037D01*
X39338597Y184624D01*
X39338597Y195016D01*
X39252354Y267751D02*
G01*
X39252354Y158648D01*
X39252354Y158648D02*
G01*
X39190007Y158648D01*
X39077788Y241774D02*
G01*
X39082982Y252166D01*
X39093373Y262557D01*
X39103764Y267751D01*
X39124547Y267751D01*
X39134938Y262557D01*
X39145326Y252166D01*
X39150523Y241774D01*
X39155717Y226187D01*
X39155717Y200210D01*
X39150523Y184624D01*
X39145326Y174233D01*
X39134938Y163842D01*
X39124547Y158648D01*
X39103764Y158648D01*
X39093373Y163842D01*
X39082982Y174233D01*
X39077788Y184624D01*
X38991542Y267751D02*
G01*
X38991542Y184624D01*
X38996736Y169037D01*
X39001933Y163842D01*
X39012324Y158648D01*
X39022715Y158648D01*
X39033107Y163842D01*
X39038301Y169037D01*
X39043498Y184624D01*
X39043498Y195016D01*
X38957252Y267751D02*
G01*
X38957252Y158648D01*
X38957252Y158648D02*
G01*
X38894908Y158648D01*
X38782685Y241774D02*
G01*
X38787880Y252166D01*
X38798271Y262557D01*
X38808662Y267751D01*
X38829444Y267751D01*
X38839835Y262557D01*
X38850227Y252166D01*
X38855421Y241774D01*
X38860618Y226187D01*
X38860618Y200210D01*
X38855421Y184624D01*
X38850227Y174233D01*
X38839835Y163842D01*
X38829444Y158648D01*
X38808662Y158648D01*
X38798271Y163842D01*
X38787880Y174233D01*
X38782685Y184624D01*
D12*
X39850867Y444962D02*
G01*
X39856064Y455353D01*
X39866455Y465744D01*
X39876844Y470938D01*
X39897626Y470938D01*
X39908017Y465744D01*
X39918408Y455353D01*
X39923605Y444962D01*
X39928800Y429374D01*
X39928800Y403397D01*
X39923605Y387812D01*
X39918408Y377421D01*
X39908017Y367029D01*
X39897626Y361835D01*
X39876844Y361835D01*
X39866455Y367029D01*
X39856064Y377421D01*
X39850867Y387812D01*
X39785404Y470938D02*
G01*
X39795795Y465744D01*
X39806186Y455353D01*
X39811383Y444962D01*
X39816577Y429374D01*
X39816577Y403397D01*
X39811383Y387812D01*
X39806186Y377421D01*
X39795795Y367029D01*
X39785404Y361835D01*
X39764624Y361835D01*
X39754233Y367029D01*
X39743842Y377421D01*
X39738645Y387812D01*
X39733451Y403397D01*
X39733451Y429374D01*
X39738645Y444962D01*
X39743842Y455353D01*
X39754233Y465744D01*
X39764624Y470938D01*
X39785404Y470938D01*
X39699161Y470938D02*
G01*
X39699161Y361835D01*
X39699161Y470938D02*
G01*
X39652402Y470938D01*
X39636814Y465744D01*
X39631620Y460547D01*
X39626425Y450156D01*
X39626425Y434571D01*
X39631620Y424179D01*
X39636814Y418985D01*
X39652402Y413788D01*
X39699161Y413788D01*
X39592135Y470938D02*
G01*
X39550571Y418985D01*
X39550571Y361835D01*
X39509006Y470938D02*
G01*
X39550571Y418985D01*
X39474716Y470938D02*
G01*
X39474716Y361835D01*
X39474716Y470938D02*
G01*
X39427957Y470938D01*
X39412372Y465744D01*
X39407175Y460547D01*
X39401981Y450156D01*
X39401981Y439765D01*
X39407175Y429374D01*
X39412372Y424179D01*
X39427957Y418985D01*
X39474716Y418985D01*
X39438348Y418985D02*
G01*
X39401981Y361835D01*
X39367691Y470938D02*
G01*
X39367691Y361835D01*
X39255468Y444962D02*
G01*
X39260665Y455353D01*
X39271054Y465744D01*
X39281445Y470938D01*
X39302227Y470938D01*
X39312618Y465744D01*
X39323009Y455353D01*
X39328204Y444962D01*
X39333401Y429374D01*
X39333401Y403397D01*
X39328204Y387812D01*
X39323009Y377421D01*
X39312618Y367029D01*
X39302227Y361835D01*
X39281445Y361835D01*
X39271054Y367029D01*
X39260665Y377421D01*
X39255468Y387812D01*
X39255468Y403397D01*
X39281445Y403397D02*
G01*
X39255468Y403397D01*
X39221178Y470938D02*
G01*
X39221178Y361835D01*
X39148443Y470938D02*
G01*
X39148443Y361835D01*
X39221178Y418985D02*
G01*
X39148443Y418985D01*
X39077785Y470938D02*
G01*
X39077785Y361835D01*
X39114153Y470938D02*
G01*
X39041415Y470938D01*
X38921921Y444962D02*
G01*
X38921921Y450156D01*
X38916724Y460547D01*
X38911529Y465744D01*
X38901138Y470938D01*
X38880356Y470938D01*
X38869965Y465744D01*
X38864771Y460547D01*
X38859574Y450156D01*
X38859574Y439765D01*
X38864771Y429374D01*
X38875162Y413788D01*
X38927115Y361835D01*
X38854379Y361835D01*
X38788916Y470938D02*
G01*
X38804504Y465744D01*
X38814895Y450156D01*
X38820090Y424179D01*
X38820090Y408594D01*
X38814895Y382615D01*
X38804504Y367029D01*
X38788916Y361835D01*
X38778525Y361835D01*
X38762940Y367029D01*
X38752548Y382615D01*
X38747354Y408594D01*
X38747354Y424179D01*
X38752548Y450156D01*
X38762940Y465744D01*
X38778525Y470938D01*
X38788916Y470938D01*
X38707867Y444962D02*
G01*
X38707867Y450156D01*
X38702673Y460547D01*
X38697476Y465744D01*
X38687085Y470938D01*
X38666305Y470938D01*
X38655914Y465744D01*
X38650717Y460547D01*
X38645523Y450156D01*
X38645523Y439765D01*
X38650717Y429374D01*
X38661108Y413788D01*
X38713064Y361835D01*
X38640326Y361835D01*
X38595645Y470938D02*
G01*
X38538495Y470938D01*
X38569668Y429374D01*
X38554083Y429374D01*
X38543692Y424179D01*
X38538495Y418985D01*
X38533301Y403397D01*
X38533301Y393006D01*
X38538495Y377421D01*
X38548886Y367029D01*
X38564474Y361835D01*
X38580059Y361835D01*
X38595645Y367029D01*
X38600842Y372224D01*
X38606036Y382615D01*
X38419001Y470938D02*
G01*
X38377436Y361835D01*
X38335874Y470938D02*
G01*
X38377436Y361835D01*
X38301584Y470938D02*
G01*
X38301584Y361835D01*
X38301584Y470938D02*
G01*
X38234043Y470938D01*
X38301584Y418985D02*
G01*
X38260020Y418985D01*
X38301584Y361835D02*
G01*
X38234043Y361835D01*
X38127015Y470938D02*
G01*
X38178971Y361835D01*
X38199753Y470938D02*
G01*
X38127015Y470938D01*
X38092725Y470938D02*
G01*
X38092725Y361835D01*
X38092725Y470938D02*
G01*
X38025184Y470938D01*
X38092725Y418985D02*
G01*
X38051163Y418985D01*
X37990894Y470938D02*
G01*
X37990894Y361835D01*
X37956604Y470938D02*
G01*
X37956604Y361835D01*
X37956604Y470938D02*
G01*
X37915042Y361835D01*
X37873477Y470938D02*
G01*
X37915042Y361835D01*
X37873477Y470938D02*
G01*
X37873477Y361835D01*
X41984467Y6718762D02*
G01*
X41989664Y6729153D01*
X42000055Y6739544D01*
X42010444Y6744738D01*
X42031226Y6744738D01*
X42041617Y6739544D01*
X42052008Y6729153D01*
X42057205Y6718762D01*
X42062400Y6703174D01*
X42062400Y6677197D01*
X42057205Y6661612D01*
X42052008Y6651221D01*
X42041617Y6640829D01*
X42031226Y6635635D01*
X42010444Y6635635D01*
X42000055Y6640829D01*
X41989664Y6651221D01*
X41984467Y6661612D01*
X41984467Y6677197D01*
X42010444Y6677197D02*
G01*
X41984467Y6677197D01*
X41950177Y6744738D02*
G01*
X41950177Y6635635D01*
X41950177Y6744738D02*
G01*
X41877442Y6635635D01*
X41877442Y6744738D02*
G01*
X41877442Y6635635D01*
X41843152Y6744738D02*
G01*
X41843152Y6635635D01*
X41843152Y6744738D02*
G01*
X41806784Y6744738D01*
X41791196Y6739544D01*
X41780805Y6729153D01*
X41775611Y6718762D01*
X41770414Y6703174D01*
X41770414Y6677197D01*
X41775611Y6661612D01*
X41780805Y6651221D01*
X41791196Y6640829D01*
X41806784Y6635635D01*
X41843152Y6635635D01*
X42354500Y6287538D02*
G01*
X42354500Y6178435D01*
X42320209Y6287538D02*
G01*
X42320209Y6178435D01*
X42320209Y6287538D02*
G01*
X42247474Y6178435D01*
X42247474Y6287538D02*
G01*
X42247474Y6178435D01*
X42965255Y6744738D02*
G01*
X43017208Y6744738D01*
X43022405Y6697979D01*
X43017208Y6703174D01*
X43001623Y6708371D01*
X42986035Y6708371D01*
X42970450Y6703174D01*
X42960058Y6692785D01*
X42954864Y6677197D01*
X42954864Y6666806D01*
X42960058Y6651221D01*
X42970450Y6640829D01*
X42986035Y6635635D01*
X43001623Y6635635D01*
X43017208Y6640829D01*
X43022405Y6646024D01*
X43027600Y6656415D01*
X42920574Y6744738D02*
G01*
X42879009Y6635635D01*
X42837445Y6744738D02*
G01*
X42879009Y6635635D01*
X43331259Y6516126D02*
G01*
X43331259Y6432999D01*
X43336456Y6417411D01*
X43341650Y6412217D01*
X43352041Y6407022D01*
X43362432Y6407022D01*
X43372824Y6412217D01*
X43378020Y6417411D01*
X43383215Y6432999D01*
X43383215Y6443390D01*
X43296969Y6495343D02*
G01*
X43286580Y6500540D01*
X43270992Y6516126D01*
X43270992Y6407022D01*
D13*
X43213715Y6337287D02*
G01*
X43213715Y6591287D01*
X41647714Y6337287D02*
G01*
X43213715Y6337287D01*
X41647714Y6591287D02*
G01*
X43213715Y6591287D01*
X41925067Y6337287D02*
G01*
X41925067Y6591287D01*
X41647714Y6337287D02*
G01*
X41647714Y6591287D01*
M02*
