G04 Layer: BoardOutlineLayer*
G04 EasyEDA v6.5.34, 2023-08-29 12:17:18*
G04 ba4a484b4813477397863864965903c7,5a6b42c53f6a479593ecc07194224c93,10*
G04 Gerber Generator version 0.2*
G04 Scale: 100 percent, Rotated: No, Reflected: No *
G04 Dimensions in millimeters *
G04 leading zeros omitted , absolute positions ,4 integer and 5 decimal *
%FSLAX45Y45*%
%MOMM*%

%ADD10C,0.2540*%
D10*
X2120900Y8204200D02*
G01*
X44361100Y8204200D01*
X44361100Y4889500D01*
X40386000Y4889500D01*
X40386000Y38100D01*
X6096000Y38100D01*
X6096000Y4889500D01*
X2120900Y4889500D01*
X2120900Y8204200D01*
X38950900Y2108200D02*
G01*
X38950900Y1016000D01*
X38950900Y1016000D02*
G01*
X40043100Y1016000D01*
X40043100Y1016000D02*
G01*
X40043100Y2108200D01*
X40043100Y2108200D02*
G01*
X38950900Y2108200D01*
X38950900Y3886200D02*
G01*
X38950900Y2794000D01*
X38950900Y2794000D02*
G01*
X40043100Y2794000D01*
X40043100Y2794000D02*
G01*
X40043100Y3886200D01*
X40043100Y3886200D02*
G01*
X38950900Y3886200D01*
X37171807Y2108200D02*
G01*
X37171807Y1016000D01*
X37171807Y1016000D02*
G01*
X38264007Y1016000D01*
X38264007Y1016000D02*
G01*
X38264007Y2108200D01*
X38264007Y2108200D02*
G01*
X37171807Y2108200D01*
X37171807Y3886200D02*
G01*
X37171807Y2794000D01*
X37171807Y2794000D02*
G01*
X38264007Y2794000D01*
X38264007Y2794000D02*
G01*
X38264007Y3886200D01*
X38264007Y3886200D02*
G01*
X37171807Y3886200D01*
X35107702Y2108200D02*
G01*
X35107702Y1016000D01*
X35107702Y1016000D02*
G01*
X36199902Y1016000D01*
X36199902Y1016000D02*
G01*
X36199902Y2108200D01*
X36199902Y2108200D02*
G01*
X35107702Y2108200D01*
X35107702Y3886200D02*
G01*
X35107702Y2794000D01*
X35107702Y2794000D02*
G01*
X36199902Y2794000D01*
X36199902Y2794000D02*
G01*
X36199902Y3886200D01*
X36199902Y3886200D02*
G01*
X35107702Y3886200D01*
X33328609Y2108200D02*
G01*
X33328609Y1016000D01*
X33328609Y1016000D02*
G01*
X34420809Y1016000D01*
X34420809Y1016000D02*
G01*
X34420809Y2108200D01*
X34420809Y2108200D02*
G01*
X33328609Y2108200D01*
X33328609Y3886200D02*
G01*
X33328609Y2794000D01*
X33328609Y2794000D02*
G01*
X34420809Y2794000D01*
X34420809Y2794000D02*
G01*
X34420809Y3886200D01*
X34420809Y3886200D02*
G01*
X33328609Y3886200D01*
X31264504Y2108200D02*
G01*
X31264504Y1016000D01*
X31264504Y1016000D02*
G01*
X32356704Y1016000D01*
X32356704Y1016000D02*
G01*
X32356704Y2108200D01*
X32356704Y2108200D02*
G01*
X31264504Y2108200D01*
X31264504Y3886200D02*
G01*
X31264504Y2794000D01*
X31264504Y2794000D02*
G01*
X32356704Y2794000D01*
X32356704Y2794000D02*
G01*
X32356704Y3886200D01*
X32356704Y3886200D02*
G01*
X31264504Y3886200D01*
X29485412Y2108200D02*
G01*
X29485412Y1016000D01*
X29485412Y1016000D02*
G01*
X30577612Y1016000D01*
X30577612Y1016000D02*
G01*
X30577612Y2108200D01*
X30577612Y2108200D02*
G01*
X29485412Y2108200D01*
X29485412Y3886200D02*
G01*
X29485412Y2794000D01*
X29485412Y2794000D02*
G01*
X30577612Y2794000D01*
X30577612Y2794000D02*
G01*
X30577612Y3886200D01*
X30577612Y3886200D02*
G01*
X29485412Y3886200D01*
X27421306Y2108200D02*
G01*
X27421306Y1016000D01*
X27421306Y1016000D02*
G01*
X28513506Y1016000D01*
X28513506Y1016000D02*
G01*
X28513506Y2108200D01*
X28513506Y2108200D02*
G01*
X27421306Y2108200D01*
X27421306Y3886200D02*
G01*
X27421306Y2794000D01*
X27421306Y2794000D02*
G01*
X28513506Y2794000D01*
X28513506Y2794000D02*
G01*
X28513506Y3886200D01*
X28513506Y3886200D02*
G01*
X27421306Y3886200D01*
X25642214Y2108200D02*
G01*
X25642214Y1016000D01*
X25642214Y1016000D02*
G01*
X26734414Y1016000D01*
X26734414Y1016000D02*
G01*
X26734414Y2108200D01*
X26734414Y2108200D02*
G01*
X25642214Y2108200D01*
X25642214Y3886200D02*
G01*
X25642214Y2794000D01*
X25642214Y2794000D02*
G01*
X26734414Y2794000D01*
X26734414Y2794000D02*
G01*
X26734414Y3886200D01*
X26734414Y3886200D02*
G01*
X25642214Y3886200D01*
X23578083Y2108200D02*
G01*
X23578083Y1016000D01*
X23578083Y1016000D02*
G01*
X24670283Y1016000D01*
X24670283Y1016000D02*
G01*
X24670283Y2108200D01*
X24670283Y2108200D02*
G01*
X23578083Y2108200D01*
X23578083Y3886200D02*
G01*
X23578083Y2794000D01*
X23578083Y2794000D02*
G01*
X24670283Y2794000D01*
X24670283Y2794000D02*
G01*
X24670283Y3886200D01*
X24670283Y3886200D02*
G01*
X23578083Y3886200D01*
X21799016Y2108200D02*
G01*
X21799016Y1016000D01*
X21799016Y1016000D02*
G01*
X22891216Y1016000D01*
X22891216Y1016000D02*
G01*
X22891216Y2108200D01*
X22891216Y2108200D02*
G01*
X21799016Y2108200D01*
X21799016Y3886200D02*
G01*
X21799016Y2794000D01*
X21799016Y2794000D02*
G01*
X22891216Y2794000D01*
X22891216Y2794000D02*
G01*
X22891216Y3886200D01*
X22891216Y3886200D02*
G01*
X21799016Y3886200D01*
X19734885Y2108200D02*
G01*
X19734885Y1016000D01*
X19734885Y1016000D02*
G01*
X20827085Y1016000D01*
X20827085Y1016000D02*
G01*
X20827085Y2108200D01*
X20827085Y2108200D02*
G01*
X19734885Y2108200D01*
X19734885Y3886200D02*
G01*
X19734885Y2794000D01*
X19734885Y2794000D02*
G01*
X20827085Y2794000D01*
X20827085Y2794000D02*
G01*
X20827085Y3886200D01*
X20827085Y3886200D02*
G01*
X19734885Y3886200D01*
X17955793Y2108200D02*
G01*
X17955793Y1016000D01*
X17955793Y1016000D02*
G01*
X19047993Y1016000D01*
X19047993Y1016000D02*
G01*
X19047993Y2108200D01*
X19047993Y2108200D02*
G01*
X17955793Y2108200D01*
X17955793Y3886200D02*
G01*
X17955793Y2794000D01*
X17955793Y2794000D02*
G01*
X19047993Y2794000D01*
X19047993Y2794000D02*
G01*
X19047993Y3886200D01*
X19047993Y3886200D02*
G01*
X17955793Y3886200D01*
X15891687Y2108200D02*
G01*
X15891687Y1016000D01*
X15891687Y1016000D02*
G01*
X16983887Y1016000D01*
X16983887Y1016000D02*
G01*
X16983887Y2108200D01*
X16983887Y2108200D02*
G01*
X15891687Y2108200D01*
X15891687Y3886200D02*
G01*
X15891687Y2794000D01*
X15891687Y2794000D02*
G01*
X16983887Y2794000D01*
X16983887Y2794000D02*
G01*
X16983887Y3886200D01*
X16983887Y3886200D02*
G01*
X15891687Y3886200D01*
X14112595Y2108200D02*
G01*
X14112595Y1016000D01*
X14112595Y1016000D02*
G01*
X15204795Y1016000D01*
X15204795Y1016000D02*
G01*
X15204795Y2108200D01*
X15204795Y2108200D02*
G01*
X14112595Y2108200D01*
X14112595Y3886200D02*
G01*
X14112595Y2794000D01*
X14112595Y2794000D02*
G01*
X15204795Y2794000D01*
X15204795Y2794000D02*
G01*
X15204795Y3886200D01*
X15204795Y3886200D02*
G01*
X14112595Y3886200D01*
X12048490Y2108200D02*
G01*
X12048490Y1016000D01*
X12048490Y1016000D02*
G01*
X13140690Y1016000D01*
X13140690Y1016000D02*
G01*
X13140690Y2108200D01*
X13140690Y2108200D02*
G01*
X12048490Y2108200D01*
X12048490Y3886200D02*
G01*
X12048490Y2794000D01*
X12048490Y2794000D02*
G01*
X13140690Y2794000D01*
X13140690Y2794000D02*
G01*
X13140690Y3886200D01*
X13140690Y3886200D02*
G01*
X12048490Y3886200D01*
X10269397Y2108200D02*
G01*
X10269397Y1016000D01*
X10269397Y1016000D02*
G01*
X11361597Y1016000D01*
X11361597Y1016000D02*
G01*
X11361597Y2108200D01*
X11361597Y2108200D02*
G01*
X10269397Y2108200D01*
X10269397Y3886200D02*
G01*
X10269397Y2794000D01*
X10269397Y2794000D02*
G01*
X11361597Y2794000D01*
X11361597Y2794000D02*
G01*
X11361597Y3886200D01*
X11361597Y3886200D02*
G01*
X10269397Y3886200D01*
X8205292Y2108200D02*
G01*
X8205292Y1016000D01*
X8205292Y1016000D02*
G01*
X9297492Y1016000D01*
X9297492Y1016000D02*
G01*
X9297492Y2108200D01*
X9297492Y2108200D02*
G01*
X8205292Y2108200D01*
X8205292Y3886200D02*
G01*
X8205292Y2794000D01*
X8205292Y2794000D02*
G01*
X9297492Y2794000D01*
X9297492Y2794000D02*
G01*
X9297492Y3886200D01*
X9297492Y3886200D02*
G01*
X8205292Y3886200D01*
X6426200Y2108200D02*
G01*
X6426200Y1016000D01*
X6426200Y1016000D02*
G01*
X7518400Y1016000D01*
X7518400Y1016000D02*
G01*
X7518400Y2108200D01*
X7518400Y2108200D02*
G01*
X6426200Y2108200D01*
X6426200Y3886200D02*
G01*
X6426200Y2794000D01*
X6426200Y2794000D02*
G01*
X7518400Y2794000D01*
X7518400Y2794000D02*
G01*
X7518400Y3886200D01*
X7518400Y3886200D02*
G01*
X6426200Y3886200D01*

%LPD*%
M02*
