G04 Layer: TopSolderMaskLayer*
G04 EasyEDA v6.5.34, 2023-08-21 18:11:39*
G04 edb4cfad772943f9a9c9805ee4eed470,5a6b42c53f6a479593ecc07194224c93,10*
G04 Gerber Generator version 0.2*
G04 Scale: 100 percent, Rotated: No, Reflected: No *
G04 Dimensions in millimeters *
G04 leading zeros omitted , absolute positions ,4 integer and 5 decimal *
%FSLAX45Y45*%
%MOMM*%

%ADD10C,0.0001*%

%LPD*%
G36*
X8683091Y8117941D02*
G01*
X8673846Y8117331D01*
X8664752Y8115909D01*
X8655812Y8113674D01*
X8651392Y8112302D01*
X8642807Y8108899D01*
X8634577Y8104784D01*
X8626703Y8099907D01*
X8619337Y8094421D01*
X8612479Y8088274D01*
X8606180Y8081518D01*
X8600490Y8074253D01*
X8595461Y8066481D01*
X8591143Y8058353D01*
X8587587Y8049869D01*
X8584742Y8041081D01*
X8582710Y8032038D01*
X8581491Y8022894D01*
X8581085Y8013700D01*
X8581491Y8004505D01*
X8582710Y7995361D01*
X8584742Y7986318D01*
X8587587Y7977530D01*
X8591143Y7969046D01*
X8595461Y7960918D01*
X8600490Y7953146D01*
X8606180Y7945881D01*
X8612479Y7939125D01*
X8619337Y7932978D01*
X8626703Y7927492D01*
X8634577Y7922615D01*
X8642807Y7918500D01*
X8651392Y7915097D01*
X8660231Y7912506D01*
X8669274Y7910677D01*
X8678468Y7909661D01*
X8687663Y7909458D01*
X8696909Y7910068D01*
X8706002Y7911490D01*
X8714943Y7913725D01*
X8719362Y7915097D01*
X8727948Y7918500D01*
X8736177Y7922615D01*
X8744051Y7927492D01*
X8751417Y7932978D01*
X8758275Y7939125D01*
X8764625Y7945881D01*
X8770264Y7953146D01*
X8775293Y7960918D01*
X8779611Y7969046D01*
X8783218Y7977530D01*
X8786012Y7986318D01*
X8788044Y7995361D01*
X8789263Y8004505D01*
X8789670Y8013700D01*
X8789263Y8022894D01*
X8788044Y8032038D01*
X8786012Y8041081D01*
X8783218Y8049869D01*
X8779611Y8058353D01*
X8775293Y8066481D01*
X8770264Y8074253D01*
X8764625Y8081518D01*
X8758275Y8088274D01*
X8751417Y8094421D01*
X8744051Y8099907D01*
X8736177Y8104784D01*
X8727948Y8108899D01*
X8719362Y8112302D01*
X8710523Y8114893D01*
X8701481Y8116722D01*
X8692286Y8117738D01*
G37*
G36*
X12526264Y8117941D02*
G01*
X12517069Y8117331D01*
X12507976Y8115909D01*
X12498984Y8113674D01*
X12494615Y8112302D01*
X12486030Y8108899D01*
X12477750Y8104784D01*
X12469926Y8099907D01*
X12462510Y8094421D01*
X12455652Y8088274D01*
X12449352Y8081518D01*
X12443663Y8074253D01*
X12438634Y8066481D01*
X12434316Y8058353D01*
X12430760Y8049869D01*
X12429236Y8045500D01*
X12426848Y8036559D01*
X12425222Y8027517D01*
X12424410Y8018322D01*
X12424410Y8009077D01*
X12425222Y7999882D01*
X12426848Y7990840D01*
X12429236Y7981899D01*
X12432436Y7973263D01*
X12436398Y7964931D01*
X12441072Y7956956D01*
X12446457Y7949438D01*
X12452451Y7942427D01*
X12459004Y7935975D01*
X12466167Y7930134D01*
X12473787Y7924952D01*
X12481864Y7920481D01*
X12490297Y7916722D01*
X12494615Y7915097D01*
X12503454Y7912506D01*
X12512497Y7910677D01*
X12521641Y7909661D01*
X12530886Y7909458D01*
X12540081Y7910068D01*
X12549225Y7911490D01*
X12558166Y7913725D01*
X12566904Y7916722D01*
X12575286Y7920481D01*
X12583363Y7924952D01*
X12590983Y7930134D01*
X12598146Y7935975D01*
X12604699Y7942427D01*
X12610744Y7949438D01*
X12616078Y7956956D01*
X12620752Y7964931D01*
X12624714Y7973263D01*
X12627914Y7981899D01*
X12630302Y7990840D01*
X12631928Y7999882D01*
X12632740Y8009077D01*
X12632740Y8018322D01*
X12631928Y8027517D01*
X12630302Y8036559D01*
X12627914Y8045500D01*
X12624714Y8054136D01*
X12620752Y8062468D01*
X12616078Y8070443D01*
X12610744Y8077962D01*
X12604699Y8084972D01*
X12598146Y8091424D01*
X12590983Y8097266D01*
X12583363Y8102447D01*
X12575286Y8106918D01*
X12566904Y8110677D01*
X12558166Y8113674D01*
X12549225Y8115909D01*
X12540081Y8117331D01*
X12530886Y8117941D01*
G37*
G36*
X10519664Y7533741D02*
G01*
X10510469Y7533131D01*
X10501376Y7531709D01*
X10492384Y7529474D01*
X10488015Y7528102D01*
X10479430Y7524699D01*
X10471150Y7520584D01*
X10463326Y7515707D01*
X10455910Y7510221D01*
X10449052Y7504074D01*
X10442752Y7497318D01*
X10437063Y7490053D01*
X10432034Y7482281D01*
X10427716Y7474153D01*
X10424160Y7465669D01*
X10422636Y7461300D01*
X10420248Y7452359D01*
X10418622Y7443317D01*
X10417810Y7434122D01*
X10417810Y7424877D01*
X10418622Y7415682D01*
X10420248Y7406640D01*
X10422636Y7397699D01*
X10425836Y7389063D01*
X10429798Y7380731D01*
X10434472Y7372756D01*
X10439857Y7365238D01*
X10445851Y7358227D01*
X10452404Y7351775D01*
X10459567Y7345934D01*
X10467187Y7340752D01*
X10475264Y7336281D01*
X10483697Y7332522D01*
X10488015Y7330897D01*
X10496854Y7328306D01*
X10505897Y7326477D01*
X10515041Y7325461D01*
X10524286Y7325258D01*
X10533481Y7325868D01*
X10542625Y7327290D01*
X10551566Y7329525D01*
X10560304Y7332522D01*
X10568686Y7336281D01*
X10576763Y7340752D01*
X10584383Y7345934D01*
X10591546Y7351775D01*
X10598099Y7358227D01*
X10604144Y7365238D01*
X10609478Y7372756D01*
X10614152Y7380731D01*
X10618114Y7389063D01*
X10621314Y7397699D01*
X10623702Y7406640D01*
X10625328Y7415682D01*
X10626140Y7424877D01*
X10626140Y7434122D01*
X10625328Y7443317D01*
X10623702Y7452359D01*
X10621314Y7461300D01*
X10618114Y7469936D01*
X10614152Y7478268D01*
X10609478Y7486243D01*
X10604144Y7493762D01*
X10598099Y7500772D01*
X10591546Y7507224D01*
X10584383Y7513066D01*
X10576763Y7518247D01*
X10568686Y7522718D01*
X10560304Y7526477D01*
X10551566Y7529474D01*
X10542625Y7531709D01*
X10533481Y7533131D01*
X10524286Y7533741D01*
G37*
G36*
X9871964Y7533741D02*
G01*
X9862769Y7533131D01*
X9853676Y7531709D01*
X9844684Y7529474D01*
X9840315Y7528102D01*
X9831730Y7524699D01*
X9823450Y7520584D01*
X9815626Y7515707D01*
X9808210Y7510221D01*
X9801352Y7504074D01*
X9795052Y7497318D01*
X9789363Y7490053D01*
X9784334Y7482281D01*
X9780016Y7474153D01*
X9776460Y7465669D01*
X9774936Y7461300D01*
X9772548Y7452359D01*
X9770922Y7443317D01*
X9770110Y7434122D01*
X9770110Y7424877D01*
X9770922Y7415682D01*
X9772548Y7406640D01*
X9774936Y7397699D01*
X9778136Y7389063D01*
X9782098Y7380731D01*
X9786772Y7372756D01*
X9792157Y7365238D01*
X9798151Y7358227D01*
X9804704Y7351775D01*
X9811867Y7345934D01*
X9819487Y7340752D01*
X9827564Y7336281D01*
X9835997Y7332522D01*
X9840315Y7330897D01*
X9849154Y7328306D01*
X9858197Y7326477D01*
X9867341Y7325461D01*
X9876586Y7325258D01*
X9885781Y7325868D01*
X9894925Y7327290D01*
X9903866Y7329525D01*
X9912604Y7332522D01*
X9920986Y7336281D01*
X9929063Y7340752D01*
X9936683Y7345934D01*
X9943846Y7351775D01*
X9950399Y7358227D01*
X9956444Y7365238D01*
X9961778Y7372756D01*
X9966452Y7380731D01*
X9970414Y7389063D01*
X9973614Y7397699D01*
X9976002Y7406640D01*
X9977628Y7415682D01*
X9978440Y7424877D01*
X9978440Y7434122D01*
X9977628Y7443317D01*
X9976002Y7452359D01*
X9973614Y7461300D01*
X9970414Y7469936D01*
X9966452Y7478268D01*
X9961778Y7486243D01*
X9956444Y7493762D01*
X9950399Y7500772D01*
X9943846Y7507224D01*
X9936683Y7513066D01*
X9929063Y7518247D01*
X9920986Y7522718D01*
X9912604Y7526477D01*
X9903866Y7529474D01*
X9894925Y7531709D01*
X9885781Y7533131D01*
X9876586Y7533741D01*
G37*
G36*
X10519664Y6619341D02*
G01*
X10510469Y6618731D01*
X10501376Y6617309D01*
X10492384Y6615074D01*
X10488015Y6613702D01*
X10479430Y6610299D01*
X10471150Y6606184D01*
X10463326Y6601307D01*
X10455910Y6595821D01*
X10449052Y6589674D01*
X10442752Y6582918D01*
X10437063Y6575653D01*
X10432034Y6567881D01*
X10427716Y6559753D01*
X10424160Y6551269D01*
X10422636Y6546900D01*
X10420248Y6537959D01*
X10418622Y6528917D01*
X10417810Y6519722D01*
X10417810Y6510477D01*
X10418622Y6501282D01*
X10420248Y6492240D01*
X10422636Y6483299D01*
X10425836Y6474663D01*
X10429798Y6466332D01*
X10434472Y6458356D01*
X10439857Y6450838D01*
X10445851Y6443827D01*
X10452404Y6437376D01*
X10459567Y6431534D01*
X10467187Y6426352D01*
X10475264Y6421882D01*
X10483697Y6418122D01*
X10488015Y6416497D01*
X10496854Y6413906D01*
X10505897Y6412077D01*
X10515041Y6411061D01*
X10524286Y6410858D01*
X10533481Y6411468D01*
X10542625Y6412890D01*
X10551566Y6415125D01*
X10560304Y6418122D01*
X10568686Y6421882D01*
X10576763Y6426352D01*
X10584383Y6431534D01*
X10591546Y6437376D01*
X10598099Y6443827D01*
X10604144Y6450838D01*
X10609478Y6458356D01*
X10614152Y6466332D01*
X10618114Y6474663D01*
X10621314Y6483299D01*
X10623702Y6492240D01*
X10625328Y6501282D01*
X10626140Y6510477D01*
X10626140Y6519722D01*
X10625328Y6528917D01*
X10623702Y6537959D01*
X10621314Y6546900D01*
X10618114Y6555536D01*
X10614152Y6563868D01*
X10609478Y6571843D01*
X10604144Y6579362D01*
X10598099Y6586372D01*
X10591546Y6592824D01*
X10584383Y6598666D01*
X10576763Y6603847D01*
X10568686Y6608318D01*
X10560304Y6612077D01*
X10551566Y6615074D01*
X10542625Y6617309D01*
X10533481Y6618731D01*
X10524286Y6619341D01*
G37*
G36*
X10519664Y5679541D02*
G01*
X10510469Y5678932D01*
X10501376Y5677509D01*
X10492384Y5675274D01*
X10488015Y5673902D01*
X10479430Y5670499D01*
X10471150Y5666384D01*
X10463326Y5661507D01*
X10455910Y5656021D01*
X10449052Y5649874D01*
X10442752Y5643118D01*
X10437063Y5635853D01*
X10432034Y5628081D01*
X10427716Y5619953D01*
X10424160Y5611469D01*
X10422636Y5607100D01*
X10420248Y5598160D01*
X10418622Y5589117D01*
X10417810Y5579922D01*
X10417810Y5570677D01*
X10418622Y5561482D01*
X10420248Y5552440D01*
X10422636Y5543499D01*
X10425836Y5534863D01*
X10429798Y5526532D01*
X10434472Y5518556D01*
X10439857Y5511038D01*
X10445851Y5504027D01*
X10452404Y5497576D01*
X10459567Y5491734D01*
X10467187Y5486552D01*
X10475264Y5482082D01*
X10483697Y5478322D01*
X10488015Y5476697D01*
X10496854Y5474106D01*
X10505897Y5472277D01*
X10515041Y5471261D01*
X10524286Y5471058D01*
X10533481Y5471668D01*
X10542625Y5473090D01*
X10551566Y5475325D01*
X10560304Y5478322D01*
X10568686Y5482082D01*
X10576763Y5486552D01*
X10584383Y5491734D01*
X10591546Y5497576D01*
X10598099Y5504027D01*
X10604144Y5511038D01*
X10609478Y5518556D01*
X10614152Y5526532D01*
X10618114Y5534863D01*
X10621314Y5543499D01*
X10623702Y5552440D01*
X10625328Y5561482D01*
X10626140Y5570677D01*
X10626140Y5579922D01*
X10625328Y5589117D01*
X10623702Y5598160D01*
X10621314Y5607100D01*
X10618114Y5615736D01*
X10614152Y5624068D01*
X10609478Y5632043D01*
X10604144Y5639562D01*
X10598099Y5646572D01*
X10591546Y5653024D01*
X10584383Y5658866D01*
X10576763Y5664047D01*
X10568686Y5668518D01*
X10560304Y5672277D01*
X10551566Y5675274D01*
X10542625Y5677509D01*
X10533481Y5678932D01*
X10524286Y5679541D01*
G37*
G36*
X9871964Y6619341D02*
G01*
X9862769Y6618731D01*
X9853676Y6617309D01*
X9844684Y6615074D01*
X9840315Y6613702D01*
X9831730Y6610299D01*
X9823450Y6606184D01*
X9815626Y6601307D01*
X9808210Y6595821D01*
X9801352Y6589674D01*
X9795052Y6582918D01*
X9789363Y6575653D01*
X9784334Y6567881D01*
X9780016Y6559753D01*
X9776460Y6551269D01*
X9774936Y6546900D01*
X9772548Y6537959D01*
X9770922Y6528917D01*
X9770110Y6519722D01*
X9770110Y6510477D01*
X9770922Y6501282D01*
X9772548Y6492240D01*
X9774936Y6483299D01*
X9778136Y6474663D01*
X9782098Y6466332D01*
X9786772Y6458356D01*
X9792157Y6450838D01*
X9798151Y6443827D01*
X9804704Y6437376D01*
X9811867Y6431534D01*
X9819487Y6426352D01*
X9827564Y6421882D01*
X9835997Y6418122D01*
X9840315Y6416497D01*
X9849154Y6413906D01*
X9858197Y6412077D01*
X9867341Y6411061D01*
X9876586Y6410858D01*
X9885781Y6411468D01*
X9894925Y6412890D01*
X9903866Y6415125D01*
X9912604Y6418122D01*
X9920986Y6421882D01*
X9929063Y6426352D01*
X9936683Y6431534D01*
X9943846Y6437376D01*
X9950399Y6443827D01*
X9956444Y6450838D01*
X9961778Y6458356D01*
X9966452Y6466332D01*
X9970414Y6474663D01*
X9973614Y6483299D01*
X9976002Y6492240D01*
X9977628Y6501282D01*
X9978440Y6510477D01*
X9978440Y6519722D01*
X9977628Y6528917D01*
X9976002Y6537959D01*
X9973614Y6546900D01*
X9970414Y6555536D01*
X9966452Y6563868D01*
X9961778Y6571843D01*
X9956444Y6579362D01*
X9950399Y6586372D01*
X9943846Y6592824D01*
X9936683Y6598666D01*
X9929063Y6603847D01*
X9920986Y6608318D01*
X9912604Y6612077D01*
X9903866Y6615074D01*
X9894925Y6617309D01*
X9885781Y6618731D01*
X9876586Y6619341D01*
G37*
G36*
X9871964Y5679541D02*
G01*
X9862769Y5678932D01*
X9853676Y5677509D01*
X9844684Y5675274D01*
X9840315Y5673902D01*
X9831730Y5670499D01*
X9823450Y5666384D01*
X9815626Y5661507D01*
X9808210Y5656021D01*
X9801352Y5649874D01*
X9795052Y5643118D01*
X9789363Y5635853D01*
X9784334Y5628081D01*
X9780016Y5619953D01*
X9776460Y5611469D01*
X9774936Y5607100D01*
X9772548Y5598160D01*
X9770922Y5589117D01*
X9770110Y5579922D01*
X9770110Y5570677D01*
X9770922Y5561482D01*
X9772548Y5552440D01*
X9774936Y5543499D01*
X9778136Y5534863D01*
X9782098Y5526532D01*
X9786772Y5518556D01*
X9792157Y5511038D01*
X9798151Y5504027D01*
X9804704Y5497576D01*
X9811867Y5491734D01*
X9819487Y5486552D01*
X9827564Y5482082D01*
X9835997Y5478322D01*
X9840315Y5476697D01*
X9849154Y5474106D01*
X9858197Y5472277D01*
X9867341Y5471261D01*
X9876586Y5471058D01*
X9885781Y5471668D01*
X9894925Y5473090D01*
X9903866Y5475325D01*
X9912604Y5478322D01*
X9920986Y5482082D01*
X9929063Y5486552D01*
X9936683Y5491734D01*
X9943846Y5497576D01*
X9950399Y5504027D01*
X9956444Y5511038D01*
X9961778Y5518556D01*
X9966452Y5526532D01*
X9970414Y5534863D01*
X9973614Y5543499D01*
X9976002Y5552440D01*
X9977628Y5561482D01*
X9978440Y5570677D01*
X9978440Y5579922D01*
X9977628Y5589117D01*
X9976002Y5598160D01*
X9973614Y5607100D01*
X9970414Y5615736D01*
X9966452Y5624068D01*
X9961778Y5632043D01*
X9956444Y5639562D01*
X9950399Y5646572D01*
X9943846Y5653024D01*
X9936683Y5658866D01*
X9929063Y5664047D01*
X9920986Y5668518D01*
X9912604Y5672277D01*
X9903866Y5675274D01*
X9894925Y5677509D01*
X9885781Y5678932D01*
X9876586Y5679541D01*
G37*
G36*
X21401582Y5679541D02*
G01*
X21392337Y5678932D01*
X21383244Y5677509D01*
X21374303Y5675274D01*
X21369883Y5673902D01*
X21361298Y5670499D01*
X21353068Y5666384D01*
X21345194Y5661507D01*
X21337828Y5656021D01*
X21330970Y5649874D01*
X21324671Y5643118D01*
X21318982Y5635853D01*
X21313952Y5628081D01*
X21309634Y5619953D01*
X21306078Y5611469D01*
X21303234Y5602681D01*
X21301202Y5593638D01*
X21299982Y5584494D01*
X21299576Y5575300D01*
X21299982Y5566105D01*
X21301202Y5556961D01*
X21303234Y5547918D01*
X21306078Y5539130D01*
X21309634Y5530646D01*
X21313952Y5522518D01*
X21318982Y5514746D01*
X21324671Y5507482D01*
X21330970Y5500725D01*
X21337828Y5494578D01*
X21345194Y5489092D01*
X21353068Y5484215D01*
X21361298Y5480100D01*
X21369883Y5476697D01*
X21378722Y5474106D01*
X21387765Y5472277D01*
X21396960Y5471261D01*
X21406154Y5471058D01*
X21415400Y5471668D01*
X21424493Y5473090D01*
X21433434Y5475325D01*
X21437854Y5476697D01*
X21446439Y5480100D01*
X21454668Y5484215D01*
X21462542Y5489092D01*
X21469908Y5494578D01*
X21476766Y5500725D01*
X21483116Y5507482D01*
X21488755Y5514746D01*
X21493784Y5522518D01*
X21498102Y5530646D01*
X21501709Y5539130D01*
X21504503Y5547918D01*
X21506535Y5556961D01*
X21507754Y5566105D01*
X21508161Y5575300D01*
X21507754Y5584494D01*
X21506535Y5593638D01*
X21504503Y5602681D01*
X21501709Y5611469D01*
X21498102Y5619953D01*
X21493784Y5628081D01*
X21488755Y5635853D01*
X21483116Y5643118D01*
X21476766Y5649874D01*
X21469908Y5656021D01*
X21462542Y5661507D01*
X21454668Y5666384D01*
X21446439Y5670499D01*
X21437854Y5673902D01*
X21429014Y5676493D01*
X21419972Y5678322D01*
X21410777Y5679338D01*
G37*
G36*
X21401582Y6619341D02*
G01*
X21392337Y6618731D01*
X21383244Y6617309D01*
X21374303Y6615074D01*
X21369883Y6613702D01*
X21361298Y6610299D01*
X21353068Y6606184D01*
X21345194Y6601307D01*
X21337828Y6595821D01*
X21330970Y6589674D01*
X21324671Y6582918D01*
X21318982Y6575653D01*
X21313952Y6567881D01*
X21309634Y6559753D01*
X21306078Y6551269D01*
X21303234Y6542481D01*
X21301202Y6533438D01*
X21299982Y6524294D01*
X21299576Y6515100D01*
X21299982Y6505905D01*
X21301202Y6496761D01*
X21303234Y6487718D01*
X21306078Y6478930D01*
X21309634Y6470446D01*
X21313952Y6462318D01*
X21318982Y6454546D01*
X21324671Y6447282D01*
X21330970Y6440525D01*
X21337828Y6434378D01*
X21345194Y6428892D01*
X21353068Y6424015D01*
X21361298Y6419900D01*
X21369883Y6416497D01*
X21378722Y6413906D01*
X21387765Y6412077D01*
X21396960Y6411061D01*
X21406154Y6410858D01*
X21415400Y6411468D01*
X21424493Y6412890D01*
X21433434Y6415125D01*
X21437854Y6416497D01*
X21446439Y6419900D01*
X21454668Y6424015D01*
X21462542Y6428892D01*
X21469908Y6434378D01*
X21476766Y6440525D01*
X21483116Y6447282D01*
X21488755Y6454546D01*
X21493784Y6462318D01*
X21498102Y6470446D01*
X21501709Y6478930D01*
X21504503Y6487718D01*
X21506535Y6496761D01*
X21507754Y6505905D01*
X21508161Y6515100D01*
X21507754Y6524294D01*
X21506535Y6533438D01*
X21504503Y6542481D01*
X21501709Y6551269D01*
X21498102Y6559753D01*
X21493784Y6567881D01*
X21488755Y6575653D01*
X21483116Y6582918D01*
X21476766Y6589674D01*
X21469908Y6595821D01*
X21462542Y6601307D01*
X21454668Y6606184D01*
X21446439Y6610299D01*
X21437854Y6613702D01*
X21429014Y6616293D01*
X21419972Y6618122D01*
X21410777Y6619138D01*
G37*
G36*
X21401582Y7533741D02*
G01*
X21392337Y7533131D01*
X21383244Y7531709D01*
X21374303Y7529474D01*
X21369883Y7528102D01*
X21361298Y7524699D01*
X21353068Y7520584D01*
X21345194Y7515707D01*
X21337828Y7510221D01*
X21330970Y7504074D01*
X21324671Y7497318D01*
X21318982Y7490053D01*
X21313952Y7482281D01*
X21309634Y7474153D01*
X21306078Y7465669D01*
X21303234Y7456881D01*
X21301202Y7447838D01*
X21299982Y7438694D01*
X21299576Y7429500D01*
X21299982Y7420305D01*
X21301202Y7411161D01*
X21303234Y7402118D01*
X21306078Y7393330D01*
X21309634Y7384846D01*
X21313952Y7376718D01*
X21318982Y7368946D01*
X21324671Y7361681D01*
X21330970Y7354925D01*
X21337828Y7348778D01*
X21345194Y7343292D01*
X21353068Y7338415D01*
X21361298Y7334300D01*
X21369883Y7330897D01*
X21378722Y7328306D01*
X21387765Y7326477D01*
X21396960Y7325461D01*
X21406154Y7325258D01*
X21415400Y7325868D01*
X21424493Y7327290D01*
X21433434Y7329525D01*
X21437854Y7330897D01*
X21446439Y7334300D01*
X21454668Y7338415D01*
X21462542Y7343292D01*
X21469908Y7348778D01*
X21476766Y7354925D01*
X21483116Y7361681D01*
X21488755Y7368946D01*
X21493784Y7376718D01*
X21498102Y7384846D01*
X21501709Y7393330D01*
X21504503Y7402118D01*
X21506535Y7411161D01*
X21507754Y7420305D01*
X21508161Y7429500D01*
X21507754Y7438694D01*
X21506535Y7447838D01*
X21504503Y7456881D01*
X21501709Y7465669D01*
X21498102Y7474153D01*
X21493784Y7482281D01*
X21488755Y7490053D01*
X21483116Y7497318D01*
X21476766Y7504074D01*
X21469908Y7510221D01*
X21462542Y7515707D01*
X21454668Y7520584D01*
X21446439Y7524699D01*
X21437854Y7528102D01*
X21429014Y7530693D01*
X21419972Y7532522D01*
X21410777Y7533538D01*
G37*
G36*
X7357364Y5577941D02*
G01*
X7348169Y5577332D01*
X7339075Y5575909D01*
X7330084Y5573674D01*
X7325715Y5572302D01*
X7317130Y5568899D01*
X7308850Y5564784D01*
X7301026Y5559907D01*
X7293609Y5554421D01*
X7286752Y5548274D01*
X7280452Y5541518D01*
X7274763Y5534253D01*
X7269734Y5526481D01*
X7265416Y5518353D01*
X7261859Y5509869D01*
X7260336Y5505500D01*
X7257948Y5496560D01*
X7256322Y5487517D01*
X7255509Y5478322D01*
X7255509Y5469077D01*
X7256322Y5459882D01*
X7257948Y5450840D01*
X7260336Y5441899D01*
X7263536Y5433263D01*
X7267498Y5424932D01*
X7272172Y5416956D01*
X7277557Y5409438D01*
X7283551Y5402427D01*
X7290104Y5395976D01*
X7297267Y5390134D01*
X7304887Y5384952D01*
X7312964Y5380482D01*
X7321397Y5376722D01*
X7325715Y5375097D01*
X7334554Y5372506D01*
X7343597Y5370677D01*
X7352741Y5369661D01*
X7361986Y5369458D01*
X7371181Y5370068D01*
X7380325Y5371490D01*
X7389266Y5373725D01*
X7398003Y5376722D01*
X7406386Y5380482D01*
X7414463Y5384952D01*
X7422083Y5390134D01*
X7429246Y5395976D01*
X7435799Y5402427D01*
X7441844Y5409438D01*
X7447178Y5416956D01*
X7451852Y5424932D01*
X7455814Y5433263D01*
X7459014Y5441899D01*
X7461402Y5450840D01*
X7463028Y5459882D01*
X7463840Y5469077D01*
X7463840Y5478322D01*
X7463028Y5487517D01*
X7461402Y5496560D01*
X7459014Y5505500D01*
X7455814Y5514136D01*
X7451852Y5522468D01*
X7447178Y5530443D01*
X7441844Y5537962D01*
X7435799Y5544972D01*
X7429246Y5551424D01*
X7422083Y5557266D01*
X7414463Y5562447D01*
X7406386Y5566918D01*
X7398003Y5570677D01*
X7389266Y5573674D01*
X7380325Y5575909D01*
X7371181Y5577332D01*
X7361986Y5577941D01*
G37*
G36*
X7357364Y7432141D02*
G01*
X7348169Y7431531D01*
X7339075Y7430109D01*
X7330084Y7427874D01*
X7325715Y7426502D01*
X7317130Y7423099D01*
X7308850Y7418984D01*
X7301026Y7414107D01*
X7293609Y7408621D01*
X7286752Y7402474D01*
X7280452Y7395718D01*
X7274763Y7388453D01*
X7269734Y7380681D01*
X7265416Y7372553D01*
X7261859Y7364069D01*
X7260336Y7359700D01*
X7257948Y7350759D01*
X7256322Y7341717D01*
X7255509Y7332522D01*
X7255509Y7323277D01*
X7256322Y7314082D01*
X7257948Y7305040D01*
X7260336Y7296099D01*
X7263536Y7287463D01*
X7267498Y7279131D01*
X7272172Y7271156D01*
X7277557Y7263638D01*
X7283551Y7256627D01*
X7290104Y7250175D01*
X7297267Y7244334D01*
X7304887Y7239152D01*
X7312964Y7234681D01*
X7321397Y7230922D01*
X7325715Y7229297D01*
X7334554Y7226706D01*
X7343597Y7224877D01*
X7352741Y7223861D01*
X7361986Y7223658D01*
X7371181Y7224268D01*
X7380325Y7225690D01*
X7389266Y7227925D01*
X7398003Y7230922D01*
X7406386Y7234681D01*
X7414463Y7239152D01*
X7422083Y7244334D01*
X7429246Y7250175D01*
X7435799Y7256627D01*
X7441844Y7263638D01*
X7447178Y7271156D01*
X7451852Y7279131D01*
X7455814Y7287463D01*
X7459014Y7296099D01*
X7461402Y7305040D01*
X7463028Y7314082D01*
X7463840Y7323277D01*
X7463840Y7332522D01*
X7463028Y7341717D01*
X7461402Y7350759D01*
X7459014Y7359700D01*
X7455814Y7368336D01*
X7451852Y7376668D01*
X7447178Y7384643D01*
X7441844Y7392162D01*
X7435799Y7399172D01*
X7429246Y7405624D01*
X7422083Y7411466D01*
X7414463Y7416647D01*
X7406386Y7421118D01*
X7398003Y7424877D01*
X7389266Y7427874D01*
X7380325Y7430109D01*
X7371181Y7431531D01*
X7361986Y7432141D01*
G37*
G36*
X7357364Y6505041D02*
G01*
X7348169Y6504431D01*
X7339075Y6503009D01*
X7330084Y6500774D01*
X7325715Y6499402D01*
X7317130Y6495999D01*
X7308850Y6491884D01*
X7301026Y6487007D01*
X7293609Y6481521D01*
X7286752Y6475374D01*
X7280452Y6468618D01*
X7274763Y6461353D01*
X7269734Y6453581D01*
X7265416Y6445453D01*
X7261859Y6436969D01*
X7260336Y6432600D01*
X7257948Y6423660D01*
X7256322Y6414617D01*
X7255509Y6405422D01*
X7255509Y6396177D01*
X7256322Y6386982D01*
X7257948Y6377940D01*
X7260336Y6368999D01*
X7263536Y6360363D01*
X7267498Y6352032D01*
X7272172Y6344056D01*
X7277557Y6336538D01*
X7283551Y6329527D01*
X7290104Y6323076D01*
X7297267Y6317234D01*
X7304887Y6312052D01*
X7312964Y6307582D01*
X7321397Y6303822D01*
X7325715Y6302197D01*
X7334554Y6299606D01*
X7343597Y6297777D01*
X7352741Y6296761D01*
X7361986Y6296558D01*
X7371181Y6297168D01*
X7380325Y6298590D01*
X7389266Y6300825D01*
X7398003Y6303822D01*
X7406386Y6307582D01*
X7414463Y6312052D01*
X7422083Y6317234D01*
X7429246Y6323076D01*
X7435799Y6329527D01*
X7441844Y6336538D01*
X7447178Y6344056D01*
X7451852Y6352032D01*
X7455814Y6360363D01*
X7459014Y6368999D01*
X7461402Y6377940D01*
X7463028Y6386982D01*
X7463840Y6396177D01*
X7463840Y6405422D01*
X7463028Y6414617D01*
X7461402Y6423660D01*
X7459014Y6432600D01*
X7455814Y6441236D01*
X7451852Y6449568D01*
X7447178Y6457543D01*
X7441844Y6465062D01*
X7435799Y6472072D01*
X7429246Y6478524D01*
X7422083Y6484366D01*
X7414463Y6489547D01*
X7406386Y6494018D01*
X7398003Y6497777D01*
X7389266Y6500774D01*
X7380325Y6503009D01*
X7371181Y6504431D01*
X7361986Y6505041D01*
G37*
G36*
X11167364Y6517741D02*
G01*
X11158169Y6517131D01*
X11149076Y6515709D01*
X11140084Y6513474D01*
X11135715Y6512102D01*
X11127130Y6508699D01*
X11118850Y6504584D01*
X11111026Y6499707D01*
X11103610Y6494221D01*
X11096752Y6488074D01*
X11090452Y6481318D01*
X11084763Y6474053D01*
X11079734Y6466281D01*
X11075416Y6458153D01*
X11071860Y6449669D01*
X11070336Y6445300D01*
X11067948Y6436360D01*
X11066322Y6427317D01*
X11065510Y6418122D01*
X11065510Y6408877D01*
X11066322Y6399682D01*
X11067948Y6390640D01*
X11070336Y6381699D01*
X11073536Y6373063D01*
X11077498Y6364732D01*
X11082172Y6356756D01*
X11087557Y6349238D01*
X11093551Y6342227D01*
X11100104Y6335776D01*
X11107267Y6329934D01*
X11114887Y6324752D01*
X11122964Y6320282D01*
X11131397Y6316522D01*
X11135715Y6314897D01*
X11144554Y6312306D01*
X11153597Y6310477D01*
X11162741Y6309461D01*
X11171986Y6309258D01*
X11181181Y6309868D01*
X11190325Y6311290D01*
X11199266Y6313525D01*
X11208004Y6316522D01*
X11216386Y6320282D01*
X11224463Y6324752D01*
X11232083Y6329934D01*
X11239246Y6335776D01*
X11245799Y6342227D01*
X11251844Y6349238D01*
X11257178Y6356756D01*
X11261852Y6364732D01*
X11265814Y6373063D01*
X11269014Y6381699D01*
X11271402Y6390640D01*
X11273028Y6399682D01*
X11273840Y6408877D01*
X11273840Y6418122D01*
X11273028Y6427317D01*
X11271402Y6436360D01*
X11269014Y6445300D01*
X11265814Y6453936D01*
X11261852Y6462268D01*
X11257178Y6470243D01*
X11251844Y6477762D01*
X11245799Y6484772D01*
X11239246Y6491224D01*
X11232083Y6497066D01*
X11224463Y6502247D01*
X11216386Y6506718D01*
X11208004Y6510477D01*
X11199266Y6513474D01*
X11190325Y6515709D01*
X11181181Y6517131D01*
X11171986Y6517741D01*
G37*
G36*
X11167364Y7432141D02*
G01*
X11158169Y7431531D01*
X11149076Y7430109D01*
X11140084Y7427874D01*
X11135715Y7426502D01*
X11127130Y7423099D01*
X11118850Y7418984D01*
X11111026Y7414107D01*
X11103610Y7408621D01*
X11096752Y7402474D01*
X11090452Y7395718D01*
X11084763Y7388453D01*
X11079734Y7380681D01*
X11075416Y7372553D01*
X11071860Y7364069D01*
X11070336Y7359700D01*
X11067948Y7350759D01*
X11066322Y7341717D01*
X11065510Y7332522D01*
X11065510Y7323277D01*
X11066322Y7314082D01*
X11067948Y7305040D01*
X11070336Y7296099D01*
X11073536Y7287463D01*
X11077498Y7279131D01*
X11082172Y7271156D01*
X11087557Y7263638D01*
X11093551Y7256627D01*
X11100104Y7250175D01*
X11107267Y7244334D01*
X11114887Y7239152D01*
X11122964Y7234681D01*
X11131397Y7230922D01*
X11135715Y7229297D01*
X11144554Y7226706D01*
X11153597Y7224877D01*
X11162741Y7223861D01*
X11171986Y7223658D01*
X11181181Y7224268D01*
X11190325Y7225690D01*
X11199266Y7227925D01*
X11208004Y7230922D01*
X11216386Y7234681D01*
X11224463Y7239152D01*
X11232083Y7244334D01*
X11239246Y7250175D01*
X11245799Y7256627D01*
X11251844Y7263638D01*
X11257178Y7271156D01*
X11261852Y7279131D01*
X11265814Y7287463D01*
X11269014Y7296099D01*
X11271402Y7305040D01*
X11273028Y7314082D01*
X11273840Y7323277D01*
X11273840Y7332522D01*
X11273028Y7341717D01*
X11271402Y7350759D01*
X11269014Y7359700D01*
X11265814Y7368336D01*
X11261852Y7376668D01*
X11257178Y7384643D01*
X11251844Y7392162D01*
X11245799Y7399172D01*
X11239246Y7405624D01*
X11232083Y7411466D01*
X11224463Y7416647D01*
X11216386Y7421118D01*
X11208004Y7424877D01*
X11199266Y7427874D01*
X11190325Y7430109D01*
X11181181Y7431531D01*
X11171986Y7432141D01*
G37*
G36*
X11167364Y5577941D02*
G01*
X11158169Y5577332D01*
X11149076Y5575909D01*
X11140084Y5573674D01*
X11135715Y5572302D01*
X11127130Y5568899D01*
X11118850Y5564784D01*
X11111026Y5559907D01*
X11103610Y5554421D01*
X11096752Y5548274D01*
X11090452Y5541518D01*
X11084763Y5534253D01*
X11079734Y5526481D01*
X11075416Y5518353D01*
X11071860Y5509869D01*
X11070336Y5505500D01*
X11067948Y5496560D01*
X11066322Y5487517D01*
X11065510Y5478322D01*
X11065510Y5469077D01*
X11066322Y5459882D01*
X11067948Y5450840D01*
X11070336Y5441899D01*
X11073536Y5433263D01*
X11077498Y5424932D01*
X11082172Y5416956D01*
X11087557Y5409438D01*
X11093551Y5402427D01*
X11100104Y5395976D01*
X11107267Y5390134D01*
X11114887Y5384952D01*
X11122964Y5380482D01*
X11131397Y5376722D01*
X11135715Y5375097D01*
X11144554Y5372506D01*
X11153597Y5370677D01*
X11162741Y5369661D01*
X11171986Y5369458D01*
X11181181Y5370068D01*
X11190325Y5371490D01*
X11199266Y5373725D01*
X11208004Y5376722D01*
X11216386Y5380482D01*
X11224463Y5384952D01*
X11232083Y5390134D01*
X11239246Y5395976D01*
X11245799Y5402427D01*
X11251844Y5409438D01*
X11257178Y5416956D01*
X11261852Y5424932D01*
X11265814Y5433263D01*
X11269014Y5441899D01*
X11271402Y5450840D01*
X11273028Y5459882D01*
X11273840Y5469077D01*
X11273840Y5478322D01*
X11273028Y5487517D01*
X11271402Y5496560D01*
X11269014Y5505500D01*
X11265814Y5514136D01*
X11261852Y5522468D01*
X11257178Y5530443D01*
X11251844Y5537962D01*
X11245799Y5544972D01*
X11239246Y5551424D01*
X11232083Y5557266D01*
X11224463Y5562447D01*
X11216386Y5566918D01*
X11208004Y5570677D01*
X11199266Y5573674D01*
X11190325Y5575909D01*
X11181181Y5577332D01*
X11171986Y5577941D01*
G37*
G36*
X8754364Y5577941D02*
G01*
X8745169Y5577332D01*
X8736076Y5575909D01*
X8727084Y5573674D01*
X8722715Y5572302D01*
X8714130Y5568899D01*
X8705850Y5564784D01*
X8698026Y5559907D01*
X8690610Y5554421D01*
X8683752Y5548274D01*
X8677452Y5541518D01*
X8671763Y5534253D01*
X8666734Y5526481D01*
X8662416Y5518353D01*
X8658860Y5509869D01*
X8657336Y5505500D01*
X8654948Y5496560D01*
X8653322Y5487517D01*
X8652510Y5478322D01*
X8652510Y5469077D01*
X8653322Y5459882D01*
X8654948Y5450840D01*
X8657336Y5441899D01*
X8660536Y5433263D01*
X8664498Y5424932D01*
X8669172Y5416956D01*
X8674557Y5409438D01*
X8680551Y5402427D01*
X8687104Y5395976D01*
X8694267Y5390134D01*
X8701887Y5384952D01*
X8709964Y5380482D01*
X8718397Y5376722D01*
X8722715Y5375097D01*
X8731554Y5372506D01*
X8740597Y5370677D01*
X8749741Y5369661D01*
X8758986Y5369458D01*
X8768181Y5370068D01*
X8777325Y5371490D01*
X8786266Y5373725D01*
X8795004Y5376722D01*
X8803386Y5380482D01*
X8811463Y5384952D01*
X8819083Y5390134D01*
X8826246Y5395976D01*
X8832799Y5402427D01*
X8838844Y5409438D01*
X8844178Y5416956D01*
X8848852Y5424932D01*
X8852814Y5433263D01*
X8856014Y5441899D01*
X8858402Y5450840D01*
X8860028Y5459882D01*
X8860840Y5469077D01*
X8860840Y5478322D01*
X8860028Y5487517D01*
X8858402Y5496560D01*
X8856014Y5505500D01*
X8852814Y5514136D01*
X8848852Y5522468D01*
X8844178Y5530443D01*
X8838844Y5537962D01*
X8832799Y5544972D01*
X8826246Y5551424D01*
X8819083Y5557266D01*
X8811463Y5562447D01*
X8803386Y5566918D01*
X8795004Y5570677D01*
X8786266Y5573674D01*
X8777325Y5575909D01*
X8768181Y5577332D01*
X8758986Y5577941D01*
G37*
G36*
X8754364Y7432141D02*
G01*
X8745169Y7431531D01*
X8736076Y7430109D01*
X8727084Y7427874D01*
X8722715Y7426502D01*
X8714130Y7423099D01*
X8705850Y7418984D01*
X8698026Y7414107D01*
X8690610Y7408621D01*
X8683752Y7402474D01*
X8677452Y7395718D01*
X8671763Y7388453D01*
X8666734Y7380681D01*
X8662416Y7372553D01*
X8658860Y7364069D01*
X8657336Y7359700D01*
X8654948Y7350759D01*
X8653322Y7341717D01*
X8652510Y7332522D01*
X8652510Y7323277D01*
X8653322Y7314082D01*
X8654948Y7305040D01*
X8657336Y7296099D01*
X8660536Y7287463D01*
X8664498Y7279131D01*
X8669172Y7271156D01*
X8674557Y7263638D01*
X8680551Y7256627D01*
X8687104Y7250175D01*
X8694267Y7244334D01*
X8701887Y7239152D01*
X8709964Y7234681D01*
X8718397Y7230922D01*
X8722715Y7229297D01*
X8731554Y7226706D01*
X8740597Y7224877D01*
X8749741Y7223861D01*
X8758986Y7223658D01*
X8768181Y7224268D01*
X8777325Y7225690D01*
X8786266Y7227925D01*
X8795004Y7230922D01*
X8803386Y7234681D01*
X8811463Y7239152D01*
X8819083Y7244334D01*
X8826246Y7250175D01*
X8832799Y7256627D01*
X8838844Y7263638D01*
X8844178Y7271156D01*
X8848852Y7279131D01*
X8852814Y7287463D01*
X8856014Y7296099D01*
X8858402Y7305040D01*
X8860028Y7314082D01*
X8860840Y7323277D01*
X8860840Y7332522D01*
X8860028Y7341717D01*
X8858402Y7350759D01*
X8856014Y7359700D01*
X8852814Y7368336D01*
X8848852Y7376668D01*
X8844178Y7384643D01*
X8838844Y7392162D01*
X8832799Y7399172D01*
X8826246Y7405624D01*
X8819083Y7411466D01*
X8811463Y7416647D01*
X8803386Y7421118D01*
X8795004Y7424877D01*
X8786266Y7427874D01*
X8777325Y7430109D01*
X8768181Y7431531D01*
X8758986Y7432141D01*
G37*
G36*
X8754364Y6505041D02*
G01*
X8745169Y6504431D01*
X8736076Y6503009D01*
X8727084Y6500774D01*
X8722715Y6499402D01*
X8714130Y6495999D01*
X8705850Y6491884D01*
X8698026Y6487007D01*
X8690610Y6481521D01*
X8683752Y6475374D01*
X8677452Y6468618D01*
X8671763Y6461353D01*
X8666734Y6453581D01*
X8662416Y6445453D01*
X8658860Y6436969D01*
X8657336Y6432600D01*
X8654948Y6423660D01*
X8653322Y6414617D01*
X8652510Y6405422D01*
X8652510Y6396177D01*
X8653322Y6386982D01*
X8654948Y6377940D01*
X8657336Y6368999D01*
X8660536Y6360363D01*
X8664498Y6352032D01*
X8669172Y6344056D01*
X8674557Y6336538D01*
X8680551Y6329527D01*
X8687104Y6323076D01*
X8694267Y6317234D01*
X8701887Y6312052D01*
X8709964Y6307582D01*
X8718397Y6303822D01*
X8722715Y6302197D01*
X8731554Y6299606D01*
X8740597Y6297777D01*
X8749741Y6296761D01*
X8758986Y6296558D01*
X8768181Y6297168D01*
X8777325Y6298590D01*
X8786266Y6300825D01*
X8795004Y6303822D01*
X8803386Y6307582D01*
X8811463Y6312052D01*
X8819083Y6317234D01*
X8826246Y6323076D01*
X8832799Y6329527D01*
X8838844Y6336538D01*
X8844178Y6344056D01*
X8848852Y6352032D01*
X8852814Y6360363D01*
X8856014Y6368999D01*
X8858402Y6377940D01*
X8860028Y6386982D01*
X8860840Y6396177D01*
X8860840Y6405422D01*
X8860028Y6414617D01*
X8858402Y6423660D01*
X8856014Y6432600D01*
X8852814Y6441236D01*
X8848852Y6449568D01*
X8844178Y6457543D01*
X8838844Y6465062D01*
X8832799Y6472072D01*
X8826246Y6478524D01*
X8819083Y6484366D01*
X8811463Y6489547D01*
X8803386Y6494018D01*
X8795004Y6497777D01*
X8786266Y6500774D01*
X8777325Y6503009D01*
X8768181Y6504431D01*
X8758986Y6505041D01*
G37*
G36*
X12597587Y6505041D02*
G01*
X12588341Y6504431D01*
X12579248Y6503009D01*
X12570307Y6500774D01*
X12565888Y6499402D01*
X12557302Y6495999D01*
X12549073Y6491884D01*
X12541199Y6487007D01*
X12533833Y6481521D01*
X12526975Y6475374D01*
X12520676Y6468618D01*
X12514986Y6461353D01*
X12509957Y6453581D01*
X12505639Y6445453D01*
X12502083Y6436969D01*
X12499238Y6428181D01*
X12497206Y6419138D01*
X12495987Y6409994D01*
X12495580Y6400800D01*
X12495987Y6391605D01*
X12497206Y6382461D01*
X12499238Y6373418D01*
X12502083Y6364630D01*
X12505639Y6356146D01*
X12509957Y6348018D01*
X12514986Y6340246D01*
X12520676Y6332982D01*
X12526975Y6326225D01*
X12533833Y6320078D01*
X12541199Y6314592D01*
X12549073Y6309715D01*
X12557302Y6305600D01*
X12565888Y6302197D01*
X12574727Y6299606D01*
X12583769Y6297777D01*
X12592964Y6296761D01*
X12602159Y6296558D01*
X12611404Y6297168D01*
X12620498Y6298590D01*
X12629438Y6300825D01*
X12633858Y6302197D01*
X12642443Y6305600D01*
X12650673Y6309715D01*
X12658547Y6314592D01*
X12665913Y6320078D01*
X12672771Y6326225D01*
X12679121Y6332982D01*
X12684760Y6340246D01*
X12689789Y6348018D01*
X12694107Y6356146D01*
X12697714Y6364630D01*
X12700508Y6373418D01*
X12702540Y6382461D01*
X12703759Y6391605D01*
X12704165Y6400800D01*
X12703759Y6409994D01*
X12702540Y6419138D01*
X12700508Y6428181D01*
X12697714Y6436969D01*
X12694107Y6445453D01*
X12689789Y6453581D01*
X12684760Y6461353D01*
X12679121Y6468618D01*
X12672771Y6475374D01*
X12665913Y6481521D01*
X12658547Y6487007D01*
X12650673Y6491884D01*
X12642443Y6495999D01*
X12633858Y6499402D01*
X12625019Y6501993D01*
X12615976Y6503822D01*
X12606782Y6504838D01*
G37*
G36*
X12597587Y7432141D02*
G01*
X12588341Y7431531D01*
X12579248Y7430109D01*
X12570307Y7427874D01*
X12565888Y7426502D01*
X12557302Y7423099D01*
X12549073Y7418984D01*
X12541199Y7414107D01*
X12533833Y7408621D01*
X12526975Y7402474D01*
X12520676Y7395718D01*
X12514986Y7388453D01*
X12509957Y7380681D01*
X12505639Y7372553D01*
X12502083Y7364069D01*
X12499238Y7355281D01*
X12497206Y7346238D01*
X12495987Y7337094D01*
X12495580Y7327900D01*
X12495987Y7318705D01*
X12497206Y7309561D01*
X12499238Y7300518D01*
X12502083Y7291730D01*
X12505639Y7283246D01*
X12509957Y7275118D01*
X12514986Y7267346D01*
X12520676Y7260081D01*
X12526975Y7253325D01*
X12533833Y7247178D01*
X12541199Y7241692D01*
X12549073Y7236815D01*
X12557302Y7232700D01*
X12565888Y7229297D01*
X12574727Y7226706D01*
X12583769Y7224877D01*
X12592964Y7223861D01*
X12602159Y7223658D01*
X12611404Y7224268D01*
X12620498Y7225690D01*
X12629438Y7227925D01*
X12633858Y7229297D01*
X12642443Y7232700D01*
X12650673Y7236815D01*
X12658547Y7241692D01*
X12665913Y7247178D01*
X12672771Y7253325D01*
X12679121Y7260081D01*
X12684760Y7267346D01*
X12689789Y7275118D01*
X12694107Y7283246D01*
X12697714Y7291730D01*
X12700508Y7300518D01*
X12702540Y7309561D01*
X12703759Y7318705D01*
X12704165Y7327900D01*
X12703759Y7337094D01*
X12702540Y7346238D01*
X12700508Y7355281D01*
X12697714Y7364069D01*
X12694107Y7372553D01*
X12689789Y7380681D01*
X12684760Y7388453D01*
X12679121Y7395718D01*
X12672771Y7402474D01*
X12665913Y7408621D01*
X12658547Y7414107D01*
X12650673Y7418984D01*
X12642443Y7423099D01*
X12633858Y7426502D01*
X12625019Y7429093D01*
X12615976Y7430922D01*
X12606782Y7431938D01*
G37*
G36*
X12597587Y5577941D02*
G01*
X12588341Y5577332D01*
X12579248Y5575909D01*
X12570307Y5573674D01*
X12565888Y5572302D01*
X12557302Y5568899D01*
X12549073Y5564784D01*
X12541199Y5559907D01*
X12533833Y5554421D01*
X12526975Y5548274D01*
X12520676Y5541518D01*
X12514986Y5534253D01*
X12509957Y5526481D01*
X12505639Y5518353D01*
X12502083Y5509869D01*
X12499238Y5501081D01*
X12497206Y5492038D01*
X12495987Y5482894D01*
X12495580Y5473700D01*
X12495987Y5464505D01*
X12497206Y5455361D01*
X12499238Y5446318D01*
X12502083Y5437530D01*
X12505639Y5429046D01*
X12509957Y5420918D01*
X12514986Y5413146D01*
X12520676Y5405882D01*
X12526975Y5399125D01*
X12533833Y5392978D01*
X12541199Y5387492D01*
X12549073Y5382615D01*
X12557302Y5378500D01*
X12565888Y5375097D01*
X12574727Y5372506D01*
X12583769Y5370677D01*
X12592964Y5369661D01*
X12602159Y5369458D01*
X12611404Y5370068D01*
X12620498Y5371490D01*
X12629438Y5373725D01*
X12633858Y5375097D01*
X12642443Y5378500D01*
X12650673Y5382615D01*
X12658547Y5387492D01*
X12665913Y5392978D01*
X12672771Y5399125D01*
X12679121Y5405882D01*
X12684760Y5413146D01*
X12689789Y5420918D01*
X12694107Y5429046D01*
X12697714Y5437530D01*
X12700508Y5446318D01*
X12702540Y5455361D01*
X12703759Y5464505D01*
X12704165Y5473700D01*
X12703759Y5482894D01*
X12702540Y5492038D01*
X12700508Y5501081D01*
X12697714Y5509869D01*
X12694107Y5518353D01*
X12689789Y5526481D01*
X12684760Y5534253D01*
X12679121Y5541518D01*
X12672771Y5548274D01*
X12665913Y5554421D01*
X12658547Y5559907D01*
X12650673Y5564784D01*
X12642443Y5568899D01*
X12633858Y5572302D01*
X12625019Y5574893D01*
X12615976Y5576722D01*
X12606782Y5577738D01*
G37*
G36*
X20283982Y6505041D02*
G01*
X20274737Y6504431D01*
X20265644Y6503009D01*
X20256703Y6500774D01*
X20252283Y6499402D01*
X20243698Y6495999D01*
X20235468Y6491884D01*
X20227594Y6487007D01*
X20220228Y6481521D01*
X20213370Y6475374D01*
X20207071Y6468618D01*
X20201382Y6461353D01*
X20196352Y6453581D01*
X20192034Y6445453D01*
X20188478Y6436969D01*
X20185634Y6428181D01*
X20183602Y6419138D01*
X20182382Y6409994D01*
X20181976Y6400800D01*
X20182382Y6391605D01*
X20183602Y6382461D01*
X20185634Y6373418D01*
X20188478Y6364630D01*
X20192034Y6356146D01*
X20196352Y6348018D01*
X20201382Y6340246D01*
X20207071Y6332982D01*
X20213370Y6326225D01*
X20220228Y6320078D01*
X20227594Y6314592D01*
X20235468Y6309715D01*
X20243698Y6305600D01*
X20252283Y6302197D01*
X20261122Y6299606D01*
X20270165Y6297777D01*
X20279360Y6296761D01*
X20288554Y6296558D01*
X20297800Y6297168D01*
X20306893Y6298590D01*
X20315834Y6300825D01*
X20320254Y6302197D01*
X20328839Y6305600D01*
X20337068Y6309715D01*
X20344942Y6314592D01*
X20352308Y6320078D01*
X20359166Y6326225D01*
X20365516Y6332982D01*
X20371155Y6340246D01*
X20376184Y6348018D01*
X20380502Y6356146D01*
X20384109Y6364630D01*
X20386903Y6373418D01*
X20388935Y6382461D01*
X20390154Y6391605D01*
X20390561Y6400800D01*
X20390154Y6409994D01*
X20388935Y6419138D01*
X20386903Y6428181D01*
X20384109Y6436969D01*
X20380502Y6445453D01*
X20376184Y6453581D01*
X20371155Y6461353D01*
X20365516Y6468618D01*
X20359166Y6475374D01*
X20352308Y6481521D01*
X20344942Y6487007D01*
X20337068Y6491884D01*
X20328839Y6495999D01*
X20320254Y6499402D01*
X20311414Y6501993D01*
X20302372Y6503822D01*
X20293177Y6504838D01*
G37*
G36*
X20283982Y7432141D02*
G01*
X20274737Y7431531D01*
X20265644Y7430109D01*
X20256703Y7427874D01*
X20252283Y7426502D01*
X20243698Y7423099D01*
X20235468Y7418984D01*
X20227594Y7414107D01*
X20220228Y7408621D01*
X20213370Y7402474D01*
X20207071Y7395718D01*
X20201382Y7388453D01*
X20196352Y7380681D01*
X20192034Y7372553D01*
X20188478Y7364069D01*
X20185634Y7355281D01*
X20183602Y7346238D01*
X20182382Y7337094D01*
X20181976Y7327900D01*
X20182382Y7318705D01*
X20183602Y7309561D01*
X20185634Y7300518D01*
X20188478Y7291730D01*
X20192034Y7283246D01*
X20196352Y7275118D01*
X20201382Y7267346D01*
X20207071Y7260081D01*
X20213370Y7253325D01*
X20220228Y7247178D01*
X20227594Y7241692D01*
X20235468Y7236815D01*
X20243698Y7232700D01*
X20252283Y7229297D01*
X20261122Y7226706D01*
X20270165Y7224877D01*
X20279360Y7223861D01*
X20288554Y7223658D01*
X20297800Y7224268D01*
X20306893Y7225690D01*
X20315834Y7227925D01*
X20320254Y7229297D01*
X20328839Y7232700D01*
X20337068Y7236815D01*
X20344942Y7241692D01*
X20352308Y7247178D01*
X20359166Y7253325D01*
X20365516Y7260081D01*
X20371155Y7267346D01*
X20376184Y7275118D01*
X20380502Y7283246D01*
X20384109Y7291730D01*
X20386903Y7300518D01*
X20388935Y7309561D01*
X20390154Y7318705D01*
X20390561Y7327900D01*
X20390154Y7337094D01*
X20388935Y7346238D01*
X20386903Y7355281D01*
X20384109Y7364069D01*
X20380502Y7372553D01*
X20376184Y7380681D01*
X20371155Y7388453D01*
X20365516Y7395718D01*
X20359166Y7402474D01*
X20352308Y7408621D01*
X20344942Y7414107D01*
X20337068Y7418984D01*
X20328839Y7423099D01*
X20320254Y7426502D01*
X20311414Y7429093D01*
X20302372Y7430922D01*
X20293177Y7431938D01*
G37*
G36*
X20283982Y5577941D02*
G01*
X20274737Y5577332D01*
X20265644Y5575909D01*
X20256703Y5573674D01*
X20252283Y5572302D01*
X20243698Y5568899D01*
X20235468Y5564784D01*
X20227594Y5559907D01*
X20220228Y5554421D01*
X20213370Y5548274D01*
X20207071Y5541518D01*
X20201382Y5534253D01*
X20196352Y5526481D01*
X20192034Y5518353D01*
X20188478Y5509869D01*
X20185634Y5501081D01*
X20183602Y5492038D01*
X20182382Y5482894D01*
X20181976Y5473700D01*
X20182382Y5464505D01*
X20183602Y5455361D01*
X20185634Y5446318D01*
X20188478Y5437530D01*
X20192034Y5429046D01*
X20196352Y5420918D01*
X20201382Y5413146D01*
X20207071Y5405882D01*
X20213370Y5399125D01*
X20220228Y5392978D01*
X20227594Y5387492D01*
X20235468Y5382615D01*
X20243698Y5378500D01*
X20252283Y5375097D01*
X20261122Y5372506D01*
X20270165Y5370677D01*
X20279360Y5369661D01*
X20288554Y5369458D01*
X20297800Y5370068D01*
X20306893Y5371490D01*
X20315834Y5373725D01*
X20320254Y5375097D01*
X20328839Y5378500D01*
X20337068Y5382615D01*
X20344942Y5387492D01*
X20352308Y5392978D01*
X20359166Y5399125D01*
X20365516Y5405882D01*
X20371155Y5413146D01*
X20376184Y5420918D01*
X20380502Y5429046D01*
X20384109Y5437530D01*
X20386903Y5446318D01*
X20388935Y5455361D01*
X20390154Y5464505D01*
X20390561Y5473700D01*
X20390154Y5482894D01*
X20388935Y5492038D01*
X20386903Y5501081D01*
X20384109Y5509869D01*
X20380502Y5518353D01*
X20376184Y5526481D01*
X20371155Y5534253D01*
X20365516Y5541518D01*
X20359166Y5548274D01*
X20352308Y5554421D01*
X20344942Y5559907D01*
X20337068Y5564784D01*
X20328839Y5568899D01*
X20320254Y5572302D01*
X20311414Y5574893D01*
X20302372Y5576722D01*
X20293177Y5577738D01*
G37*
G36*
X14024863Y5577941D02*
G01*
X14015669Y5577332D01*
X14006576Y5575909D01*
X13997584Y5573674D01*
X13993215Y5572302D01*
X13984630Y5568899D01*
X13976350Y5564784D01*
X13968526Y5559907D01*
X13961110Y5554421D01*
X13954251Y5548274D01*
X13947952Y5541518D01*
X13942263Y5534253D01*
X13937234Y5526481D01*
X13932916Y5518353D01*
X13929360Y5509869D01*
X13927836Y5505500D01*
X13925448Y5496560D01*
X13923822Y5487517D01*
X13923010Y5478322D01*
X13923010Y5469077D01*
X13923822Y5459882D01*
X13925448Y5450840D01*
X13927836Y5441899D01*
X13931036Y5433263D01*
X13934998Y5424932D01*
X13939672Y5416956D01*
X13945057Y5409438D01*
X13951051Y5402427D01*
X13957604Y5395976D01*
X13964767Y5390134D01*
X13972387Y5384952D01*
X13980464Y5380482D01*
X13988897Y5376722D01*
X13993215Y5375097D01*
X14002054Y5372506D01*
X14011097Y5370677D01*
X14020241Y5369661D01*
X14029486Y5369458D01*
X14038681Y5370068D01*
X14047825Y5371490D01*
X14056766Y5373725D01*
X14065504Y5376722D01*
X14073886Y5380482D01*
X14081963Y5384952D01*
X14089583Y5390134D01*
X14096746Y5395976D01*
X14103299Y5402427D01*
X14109344Y5409438D01*
X14114678Y5416956D01*
X14119351Y5424932D01*
X14123314Y5433263D01*
X14126514Y5441899D01*
X14128902Y5450840D01*
X14130528Y5459882D01*
X14131340Y5469077D01*
X14131340Y5478322D01*
X14130528Y5487517D01*
X14128902Y5496560D01*
X14126514Y5505500D01*
X14123314Y5514136D01*
X14119351Y5522468D01*
X14114678Y5530443D01*
X14109344Y5537962D01*
X14103299Y5544972D01*
X14096746Y5551424D01*
X14089583Y5557266D01*
X14081963Y5562447D01*
X14073886Y5566918D01*
X14065504Y5570677D01*
X14056766Y5573674D01*
X14047825Y5575909D01*
X14038681Y5577332D01*
X14029486Y5577941D01*
G37*
G36*
X14024863Y7432141D02*
G01*
X14015669Y7431531D01*
X14006576Y7430109D01*
X13997584Y7427874D01*
X13993215Y7426502D01*
X13984630Y7423099D01*
X13976350Y7418984D01*
X13968526Y7414107D01*
X13961110Y7408621D01*
X13954251Y7402474D01*
X13947952Y7395718D01*
X13942263Y7388453D01*
X13937234Y7380681D01*
X13932916Y7372553D01*
X13929360Y7364069D01*
X13927836Y7359700D01*
X13925448Y7350759D01*
X13923822Y7341717D01*
X13923010Y7332522D01*
X13923010Y7323277D01*
X13923822Y7314082D01*
X13925448Y7305040D01*
X13927836Y7296099D01*
X13931036Y7287463D01*
X13934998Y7279131D01*
X13939672Y7271156D01*
X13945057Y7263638D01*
X13951051Y7256627D01*
X13957604Y7250175D01*
X13964767Y7244334D01*
X13972387Y7239152D01*
X13980464Y7234681D01*
X13988897Y7230922D01*
X13993215Y7229297D01*
X14002054Y7226706D01*
X14011097Y7224877D01*
X14020241Y7223861D01*
X14029486Y7223658D01*
X14038681Y7224268D01*
X14047825Y7225690D01*
X14056766Y7227925D01*
X14065504Y7230922D01*
X14073886Y7234681D01*
X14081963Y7239152D01*
X14089583Y7244334D01*
X14096746Y7250175D01*
X14103299Y7256627D01*
X14109344Y7263638D01*
X14114678Y7271156D01*
X14119351Y7279131D01*
X14123314Y7287463D01*
X14126514Y7296099D01*
X14128902Y7305040D01*
X14130528Y7314082D01*
X14131340Y7323277D01*
X14131340Y7332522D01*
X14130528Y7341717D01*
X14128902Y7350759D01*
X14126514Y7359700D01*
X14123314Y7368336D01*
X14119351Y7376668D01*
X14114678Y7384643D01*
X14109344Y7392162D01*
X14103299Y7399172D01*
X14096746Y7405624D01*
X14089583Y7411466D01*
X14081963Y7416647D01*
X14073886Y7421118D01*
X14065504Y7424877D01*
X14056766Y7427874D01*
X14047825Y7430109D01*
X14038681Y7431531D01*
X14029486Y7432141D01*
G37*
G36*
X14024863Y6517741D02*
G01*
X14015669Y6517131D01*
X14006576Y6515709D01*
X13997584Y6513474D01*
X13993215Y6512102D01*
X13984630Y6508699D01*
X13976350Y6504584D01*
X13968526Y6499707D01*
X13961110Y6494221D01*
X13954251Y6488074D01*
X13947952Y6481318D01*
X13942263Y6474053D01*
X13937234Y6466281D01*
X13932916Y6458153D01*
X13929360Y6449669D01*
X13927836Y6445300D01*
X13925448Y6436360D01*
X13923822Y6427317D01*
X13923010Y6418122D01*
X13923010Y6408877D01*
X13923822Y6399682D01*
X13925448Y6390640D01*
X13927836Y6381699D01*
X13931036Y6373063D01*
X13934998Y6364732D01*
X13939672Y6356756D01*
X13945057Y6349238D01*
X13951051Y6342227D01*
X13957604Y6335776D01*
X13964767Y6329934D01*
X13972387Y6324752D01*
X13980464Y6320282D01*
X13988897Y6316522D01*
X13993215Y6314897D01*
X14002054Y6312306D01*
X14011097Y6310477D01*
X14020241Y6309461D01*
X14029486Y6309258D01*
X14038681Y6309868D01*
X14047825Y6311290D01*
X14056766Y6313525D01*
X14065504Y6316522D01*
X14073886Y6320282D01*
X14081963Y6324752D01*
X14089583Y6329934D01*
X14096746Y6335776D01*
X14103299Y6342227D01*
X14109344Y6349238D01*
X14114678Y6356756D01*
X14119351Y6364732D01*
X14123314Y6373063D01*
X14126514Y6381699D01*
X14128902Y6390640D01*
X14130528Y6399682D01*
X14131340Y6408877D01*
X14131340Y6418122D01*
X14130528Y6427317D01*
X14128902Y6436360D01*
X14126514Y6445300D01*
X14123314Y6453936D01*
X14119351Y6462268D01*
X14114678Y6470243D01*
X14109344Y6477762D01*
X14103299Y6484772D01*
X14096746Y6491224D01*
X14089583Y6497066D01*
X14081963Y6502247D01*
X14073886Y6506718D01*
X14065504Y6510477D01*
X14056766Y6513474D01*
X14047825Y6515709D01*
X14038681Y6517131D01*
X14029486Y6517741D01*
G37*
G36*
X18853759Y6517741D02*
G01*
X18844564Y6517131D01*
X18835471Y6515709D01*
X18826480Y6513474D01*
X18822111Y6512102D01*
X18813526Y6508699D01*
X18805245Y6504584D01*
X18797422Y6499707D01*
X18790005Y6494221D01*
X18783147Y6488074D01*
X18776848Y6481318D01*
X18771158Y6474053D01*
X18766129Y6466281D01*
X18761811Y6458153D01*
X18758255Y6449669D01*
X18756731Y6445300D01*
X18754344Y6436360D01*
X18752718Y6427317D01*
X18751905Y6418122D01*
X18751905Y6408877D01*
X18752718Y6399682D01*
X18754344Y6390640D01*
X18756731Y6381699D01*
X18759932Y6373063D01*
X18763894Y6364732D01*
X18768568Y6356756D01*
X18773952Y6349238D01*
X18779947Y6342227D01*
X18786500Y6335776D01*
X18793663Y6329934D01*
X18801283Y6324752D01*
X18809360Y6320282D01*
X18817793Y6316522D01*
X18822111Y6314897D01*
X18830950Y6312306D01*
X18839992Y6310477D01*
X18849136Y6309461D01*
X18858382Y6309258D01*
X18867577Y6309868D01*
X18876721Y6311290D01*
X18885662Y6313525D01*
X18894399Y6316522D01*
X18902781Y6320282D01*
X18910858Y6324752D01*
X18918478Y6329934D01*
X18925641Y6335776D01*
X18932194Y6342227D01*
X18938240Y6349238D01*
X18943574Y6356756D01*
X18948247Y6364732D01*
X18952210Y6373063D01*
X18955410Y6381699D01*
X18957798Y6390640D01*
X18959423Y6399682D01*
X18960236Y6408877D01*
X18960236Y6418122D01*
X18959423Y6427317D01*
X18957798Y6436360D01*
X18955410Y6445300D01*
X18952210Y6453936D01*
X18948247Y6462268D01*
X18943574Y6470243D01*
X18938240Y6477762D01*
X18932194Y6484772D01*
X18925641Y6491224D01*
X18918478Y6497066D01*
X18910858Y6502247D01*
X18902781Y6506718D01*
X18894399Y6510477D01*
X18885662Y6513474D01*
X18876721Y6515709D01*
X18867577Y6517131D01*
X18858382Y6517741D01*
G37*
G36*
X18853759Y7432141D02*
G01*
X18844564Y7431531D01*
X18835471Y7430109D01*
X18826480Y7427874D01*
X18822111Y7426502D01*
X18813526Y7423099D01*
X18805245Y7418984D01*
X18797422Y7414107D01*
X18790005Y7408621D01*
X18783147Y7402474D01*
X18776848Y7395718D01*
X18771158Y7388453D01*
X18766129Y7380681D01*
X18761811Y7372553D01*
X18758255Y7364069D01*
X18756731Y7359700D01*
X18754344Y7350759D01*
X18752718Y7341717D01*
X18751905Y7332522D01*
X18751905Y7323277D01*
X18752718Y7314082D01*
X18754344Y7305040D01*
X18756731Y7296099D01*
X18759932Y7287463D01*
X18763894Y7279131D01*
X18768568Y7271156D01*
X18773952Y7263638D01*
X18779947Y7256627D01*
X18786500Y7250175D01*
X18793663Y7244334D01*
X18801283Y7239152D01*
X18809360Y7234681D01*
X18817793Y7230922D01*
X18822111Y7229297D01*
X18830950Y7226706D01*
X18839992Y7224877D01*
X18849136Y7223861D01*
X18858382Y7223658D01*
X18867577Y7224268D01*
X18876721Y7225690D01*
X18885662Y7227925D01*
X18894399Y7230922D01*
X18902781Y7234681D01*
X18910858Y7239152D01*
X18918478Y7244334D01*
X18925641Y7250175D01*
X18932194Y7256627D01*
X18938240Y7263638D01*
X18943574Y7271156D01*
X18948247Y7279131D01*
X18952210Y7287463D01*
X18955410Y7296099D01*
X18957798Y7305040D01*
X18959423Y7314082D01*
X18960236Y7323277D01*
X18960236Y7332522D01*
X18959423Y7341717D01*
X18957798Y7350759D01*
X18955410Y7359700D01*
X18952210Y7368336D01*
X18948247Y7376668D01*
X18943574Y7384643D01*
X18938240Y7392162D01*
X18932194Y7399172D01*
X18925641Y7405624D01*
X18918478Y7411466D01*
X18910858Y7416647D01*
X18902781Y7421118D01*
X18894399Y7424877D01*
X18885662Y7427874D01*
X18876721Y7430109D01*
X18867577Y7431531D01*
X18858382Y7432141D01*
G37*
G36*
X18853759Y5577941D02*
G01*
X18844564Y5577332D01*
X18835471Y5575909D01*
X18826480Y5573674D01*
X18822111Y5572302D01*
X18813526Y5568899D01*
X18805245Y5564784D01*
X18797422Y5559907D01*
X18790005Y5554421D01*
X18783147Y5548274D01*
X18776848Y5541518D01*
X18771158Y5534253D01*
X18766129Y5526481D01*
X18761811Y5518353D01*
X18758255Y5509869D01*
X18756731Y5505500D01*
X18754344Y5496560D01*
X18752718Y5487517D01*
X18751905Y5478322D01*
X18751905Y5469077D01*
X18752718Y5459882D01*
X18754344Y5450840D01*
X18756731Y5441899D01*
X18759932Y5433263D01*
X18763894Y5424932D01*
X18768568Y5416956D01*
X18773952Y5409438D01*
X18779947Y5402427D01*
X18786500Y5395976D01*
X18793663Y5390134D01*
X18801283Y5384952D01*
X18809360Y5380482D01*
X18817793Y5376722D01*
X18822111Y5375097D01*
X18830950Y5372506D01*
X18839992Y5370677D01*
X18849136Y5369661D01*
X18858382Y5369458D01*
X18867577Y5370068D01*
X18876721Y5371490D01*
X18885662Y5373725D01*
X18894399Y5376722D01*
X18902781Y5380482D01*
X18910858Y5384952D01*
X18918478Y5390134D01*
X18925641Y5395976D01*
X18932194Y5402427D01*
X18938240Y5409438D01*
X18943574Y5416956D01*
X18948247Y5424932D01*
X18952210Y5433263D01*
X18955410Y5441899D01*
X18957798Y5450840D01*
X18959423Y5459882D01*
X18960236Y5469077D01*
X18960236Y5478322D01*
X18959423Y5487517D01*
X18957798Y5496560D01*
X18955410Y5505500D01*
X18952210Y5514136D01*
X18948247Y5522468D01*
X18943574Y5530443D01*
X18938240Y5537962D01*
X18932194Y5544972D01*
X18925641Y5551424D01*
X18918478Y5557266D01*
X18910858Y5562447D01*
X18902781Y5566918D01*
X18894399Y5570677D01*
X18885662Y5573674D01*
X18876721Y5575909D01*
X18867577Y5577332D01*
X18858382Y5577941D01*
G37*
G36*
X24127206Y5577941D02*
G01*
X24117960Y5577332D01*
X24108867Y5575909D01*
X24099926Y5573674D01*
X24095506Y5572302D01*
X24086921Y5568899D01*
X24078692Y5564784D01*
X24070818Y5559907D01*
X24063452Y5554421D01*
X24056594Y5548274D01*
X24050294Y5541518D01*
X24044605Y5534253D01*
X24039576Y5526481D01*
X24035258Y5518353D01*
X24031702Y5509869D01*
X24028857Y5501081D01*
X24026825Y5492038D01*
X24025606Y5482894D01*
X24025199Y5473700D01*
X24025606Y5464505D01*
X24026825Y5455361D01*
X24028857Y5446318D01*
X24031702Y5437530D01*
X24035258Y5429046D01*
X24039576Y5420918D01*
X24044605Y5413146D01*
X24050294Y5405882D01*
X24056594Y5399125D01*
X24063452Y5392978D01*
X24070818Y5387492D01*
X24078692Y5382615D01*
X24086921Y5378500D01*
X24095506Y5375097D01*
X24104346Y5372506D01*
X24113388Y5370677D01*
X24122583Y5369661D01*
X24131778Y5369458D01*
X24141023Y5370068D01*
X24150116Y5371490D01*
X24159057Y5373725D01*
X24163477Y5375097D01*
X24172062Y5378500D01*
X24180292Y5382615D01*
X24188166Y5387492D01*
X24195532Y5392978D01*
X24202390Y5399125D01*
X24208740Y5405882D01*
X24214378Y5413146D01*
X24219408Y5420918D01*
X24223726Y5429046D01*
X24227332Y5437530D01*
X24230126Y5446318D01*
X24232158Y5455361D01*
X24233378Y5464505D01*
X24233784Y5473700D01*
X24233378Y5482894D01*
X24232158Y5492038D01*
X24230126Y5501081D01*
X24227332Y5509869D01*
X24223726Y5518353D01*
X24219408Y5526481D01*
X24214378Y5534253D01*
X24208740Y5541518D01*
X24202390Y5548274D01*
X24195532Y5554421D01*
X24188166Y5559907D01*
X24180292Y5564784D01*
X24172062Y5568899D01*
X24163477Y5572302D01*
X24154638Y5574893D01*
X24145595Y5576722D01*
X24136400Y5577738D01*
G37*
M02*
