G04 Layer: TopPasteMaskLayer*
G04 EasyEDA v6.5.29, 2023-07-19 22:01:03*
G04 8eb2f2613b91424b8de75a29ec9d0e09,5a6b42c53f6a479593ecc07194224c93,10*
G04 Gerber Generator version 0.2*
G04 Scale: 100 percent, Rotated: No, Reflected: No *
G04 Dimensions in millimeters *
G04 leading zeros omitted , absolute positions ,4 integer and 5 decimal *
%FSLAX45Y45*%
%MOMM*%

%AMMACRO1*21,1,$1,$2,0,0,$3*%
%ADD10R,0.5320X1.0720*%
%ADD11R,0.8000X0.9000*%
%ADD12R,0.9000X0.8000*%
%ADD13R,0.9500X1.2000*%
%ADD14R,1.0500X2.4650*%
%ADD15MACRO1,3.54X2.465X0.0000*%
%ADD16MACRO1,2.592X2.2075X0.0000*%
%ADD17R,2.5920X2.2075*%
%ADD18MACRO1,1.2X1.4X90.0000*%
%ADD19R,1.4000X1.2000*%
%ADD20MACRO1,1.2X1.4X-90.0000*%
%ADD21R,0.6000X0.2800*%
%ADD22R,0.3000X1.7000*%
%ADD23R,0.5500X0.5500*%
%ADD24R,0.6000X1.5500*%
%ADD25R,1.5000X2.0000*%
%ADD26R,0.8000X0.8000*%
%ADD27O,0.6020054X1.9709892*%
%ADD28R,1.8000X2.0000*%
%ADD29O,0.5739892X2.3880064*%
%ADD30O,0.0168X2.3880064*%

%LPD*%
G36*
X10259720Y6106820D02*
G01*
X10254691Y6101791D01*
X10254691Y6016802D01*
X10259720Y6011773D01*
X10339679Y6011773D01*
X10344708Y6016802D01*
X10344708Y6101791D01*
X10339679Y6106820D01*
X10314686Y6106820D01*
X10314686Y6076797D01*
X10284714Y6076797D01*
X10284714Y6106820D01*
G37*
G36*
X10259720Y6281775D02*
G01*
X10254691Y6276797D01*
X10254691Y6191808D01*
X10259720Y6186779D01*
X10284714Y6186779D01*
X10284714Y6216802D01*
X10314686Y6216802D01*
X10314686Y6186779D01*
X10339679Y6186779D01*
X10344708Y6191808D01*
X10344708Y6276797D01*
X10339679Y6281775D01*
G37*
G36*
X15673222Y9341408D02*
G01*
X15668193Y9336379D01*
X15668193Y9313621D01*
X15705175Y9313621D01*
X15705175Y9280601D01*
X15668193Y9280601D01*
X15668193Y9256420D01*
X15673222Y9251391D01*
X15753181Y9251391D01*
X15758210Y9256420D01*
X15758210Y9336379D01*
X15753181Y9341408D01*
G37*
G36*
X15514218Y9341408D02*
G01*
X15509189Y9336379D01*
X15509189Y9256420D01*
X15514218Y9251391D01*
X15593212Y9251391D01*
X15598190Y9256420D01*
X15598190Y9280601D01*
X15560192Y9280601D01*
X15560192Y9313621D01*
X15598190Y9313621D01*
X15598190Y9336379D01*
X15593212Y9341408D01*
G37*
G36*
X13681252Y5831382D02*
G01*
X13634466Y5792876D01*
X13634466Y5724144D01*
X13644473Y5714136D01*
X13762126Y5714136D01*
X13772134Y5724144D01*
X13772134Y5792876D01*
X13725347Y5831382D01*
G37*
G36*
X13644473Y6020663D02*
G01*
X13634466Y6010656D01*
X13634466Y5941923D01*
X13681252Y5903417D01*
X13725347Y5903417D01*
X13772134Y5941923D01*
X13772134Y6010656D01*
X13762126Y6020663D01*
G37*
G36*
X11128095Y7856016D02*
G01*
X11123117Y7849006D01*
X11123117Y7801000D01*
X11128095Y7796022D01*
X11173104Y7796022D01*
X11178082Y7801000D01*
X11178082Y7849006D01*
X11173104Y7856016D01*
G37*
G36*
X11128095Y7951978D02*
G01*
X11123117Y7946999D01*
X11123117Y7898993D01*
X11128095Y7891983D01*
X11173104Y7891983D01*
X11178082Y7898993D01*
X11178082Y7946999D01*
X11173104Y7951978D01*
G37*
G36*
X10921593Y7863382D02*
G01*
X10914583Y7858404D01*
X10914583Y7813395D01*
X10921593Y7808417D01*
X10969599Y7808417D01*
X10974578Y7813395D01*
X10974578Y7858404D01*
X10969599Y7863382D01*
G37*
G36*
X10823600Y7863382D02*
G01*
X10818622Y7858404D01*
X10818622Y7813395D01*
X10823600Y7808417D01*
X10871606Y7808417D01*
X10878616Y7813395D01*
X10878616Y7858404D01*
X10871606Y7863382D01*
G37*
G36*
X11229695Y7853984D02*
G01*
X11224717Y7849006D01*
X11224717Y7796022D01*
X11229695Y7790992D01*
X11274704Y7790992D01*
X11279682Y7796022D01*
X11279682Y7849006D01*
X11274704Y7853984D01*
G37*
G36*
X11229695Y7957007D02*
G01*
X11224717Y7951978D01*
X11224717Y7898993D01*
X11229695Y7894015D01*
X11274704Y7894015D01*
X11279682Y7898993D01*
X11279682Y7951978D01*
X11274704Y7957007D01*
G37*
G36*
X10158222Y6771182D02*
G01*
X10153192Y6766204D01*
X10153192Y6721195D01*
X10158222Y6716217D01*
X10211206Y6716217D01*
X10216184Y6721195D01*
X10216184Y6766204D01*
X10211206Y6771182D01*
G37*
G36*
X10261193Y6771182D02*
G01*
X10256215Y6766204D01*
X10256215Y6721195D01*
X10261193Y6716217D01*
X10314178Y6716217D01*
X10319207Y6721195D01*
X10319207Y6766204D01*
X10314178Y6771182D01*
G37*
G36*
X10882122Y6758482D02*
G01*
X10877092Y6753504D01*
X10877092Y6708495D01*
X10882122Y6703517D01*
X10935106Y6703517D01*
X10940084Y6708495D01*
X10940084Y6753504D01*
X10935106Y6758482D01*
G37*
G36*
X10985093Y6758482D02*
G01*
X10980115Y6753504D01*
X10980115Y6708495D01*
X10985093Y6703517D01*
X11038078Y6703517D01*
X11043107Y6708495D01*
X11043107Y6753504D01*
X11038078Y6758482D01*
G37*
G36*
X10882122Y6860082D02*
G01*
X10877092Y6855104D01*
X10877092Y6810095D01*
X10882122Y6805117D01*
X10935106Y6805117D01*
X10940084Y6810095D01*
X10940084Y6855104D01*
X10935106Y6860082D01*
G37*
G36*
X10985093Y6860082D02*
G01*
X10980115Y6855104D01*
X10980115Y6810095D01*
X10985093Y6805117D01*
X11038078Y6805117D01*
X11043107Y6810095D01*
X11043107Y6855104D01*
X11038078Y6860082D01*
G37*
G36*
X10397693Y7636002D02*
G01*
X10397693Y7615986D01*
X10507675Y7615986D01*
X10507675Y7636002D01*
G37*
G36*
X10397693Y7596022D02*
G01*
X10397693Y7576007D01*
X10507675Y7576007D01*
X10507675Y7596022D01*
G37*
G36*
X10397693Y7555992D02*
G01*
X10397693Y7535976D01*
X10507675Y7535976D01*
X10507675Y7555992D01*
G37*
G36*
X10397693Y7515961D02*
G01*
X10397693Y7495997D01*
X10507675Y7495997D01*
X10507675Y7515961D01*
G37*
G36*
X10397693Y7476032D02*
G01*
X10397693Y7456017D01*
X10507675Y7456017D01*
X10507675Y7476032D01*
G37*
G36*
X10397693Y7436002D02*
G01*
X10397693Y7415987D01*
X10507675Y7415987D01*
X10507675Y7436002D01*
G37*
G36*
X10397693Y7396022D02*
G01*
X10397693Y7376007D01*
X10507675Y7376007D01*
X10507675Y7396022D01*
G37*
G36*
X10397693Y7355992D02*
G01*
X10397693Y7335977D01*
X10507675Y7335977D01*
X10507675Y7355992D01*
G37*
G36*
X10397693Y7316012D02*
G01*
X10397693Y7295997D01*
X10507675Y7295997D01*
X10507675Y7316012D01*
G37*
G36*
X10397693Y7276033D02*
G01*
X10397693Y7256018D01*
X10507675Y7256018D01*
X10507675Y7276033D01*
G37*
G36*
X10397693Y7236002D02*
G01*
X10397693Y7215987D01*
X10507675Y7215987D01*
X10507675Y7236002D01*
G37*
G36*
X10397693Y7195972D02*
G01*
X10397693Y7176008D01*
X10507675Y7176008D01*
X10507675Y7195972D01*
G37*
G36*
X10397693Y7155992D02*
G01*
X10397693Y7135977D01*
X10507675Y7135977D01*
X10507675Y7155992D01*
G37*
G36*
X10397693Y7116013D02*
G01*
X10397693Y7095998D01*
X10507675Y7095998D01*
X10507675Y7116013D01*
G37*
G36*
X10537698Y7066025D02*
G01*
X10537698Y6955993D01*
X10557713Y6955993D01*
X10557713Y7066025D01*
G37*
G36*
X10577677Y7066025D02*
G01*
X10577677Y6955993D01*
X10597692Y6955993D01*
X10597692Y7066025D01*
G37*
G36*
X10617708Y7066025D02*
G01*
X10617708Y6955993D01*
X10637672Y6955993D01*
X10637672Y7066025D01*
G37*
G36*
X10657687Y7066025D02*
G01*
X10657687Y6955993D01*
X10677702Y6955993D01*
X10677702Y7066025D01*
G37*
G36*
X10697718Y7066025D02*
G01*
X10697718Y6955993D01*
X10717682Y6955993D01*
X10717682Y7066025D01*
G37*
G36*
X10737697Y7066025D02*
G01*
X10737697Y6955993D01*
X10757712Y6955993D01*
X10757712Y7066025D01*
G37*
G36*
X10777677Y7066025D02*
G01*
X10777677Y6955993D01*
X10797692Y6955993D01*
X10797692Y7066025D01*
G37*
G36*
X10817707Y7066025D02*
G01*
X10817707Y6955993D01*
X10837672Y6955993D01*
X10837672Y7066025D01*
G37*
G36*
X10857687Y7066025D02*
G01*
X10857687Y6955993D01*
X10877702Y6955993D01*
X10877702Y7066025D01*
G37*
G36*
X10897717Y7066025D02*
G01*
X10897717Y6955993D01*
X10917682Y6955993D01*
X10917682Y7066025D01*
G37*
G36*
X10937697Y7066025D02*
G01*
X10937697Y6955993D01*
X10957712Y6955993D01*
X10957712Y7066025D01*
G37*
G36*
X10977676Y7066025D02*
G01*
X10977676Y6955993D01*
X10997692Y6955993D01*
X10997692Y7066025D01*
G37*
G36*
X11017707Y7066025D02*
G01*
X11017707Y6955993D01*
X11037671Y6955993D01*
X11037671Y7066025D01*
G37*
G36*
X11057686Y7066025D02*
G01*
X11057686Y6955993D01*
X11077702Y6955993D01*
X11077702Y7066025D01*
G37*
G36*
X11107724Y7116013D02*
G01*
X11107724Y7095998D01*
X11217706Y7095998D01*
X11217706Y7116013D01*
G37*
G36*
X11107724Y7155992D02*
G01*
X11107724Y7135977D01*
X11217706Y7135977D01*
X11217706Y7155992D01*
G37*
G36*
X11107724Y7195972D02*
G01*
X11107724Y7176008D01*
X11217706Y7176008D01*
X11217706Y7195972D01*
G37*
G36*
X11107724Y7236002D02*
G01*
X11107724Y7215987D01*
X11217706Y7215987D01*
X11217706Y7236002D01*
G37*
G36*
X11107724Y7276033D02*
G01*
X11107724Y7256018D01*
X11217706Y7256018D01*
X11217706Y7276033D01*
G37*
G36*
X11107724Y7316012D02*
G01*
X11107724Y7295997D01*
X11217706Y7295997D01*
X11217706Y7316012D01*
G37*
G36*
X11107724Y7355992D02*
G01*
X11107724Y7335977D01*
X11217706Y7335977D01*
X11217706Y7355992D01*
G37*
G36*
X11107724Y7396022D02*
G01*
X11107724Y7376007D01*
X11217706Y7376007D01*
X11217706Y7396022D01*
G37*
G36*
X11107724Y7436002D02*
G01*
X11107724Y7415987D01*
X11217706Y7415987D01*
X11217706Y7436002D01*
G37*
G36*
X11107724Y7476032D02*
G01*
X11107724Y7456017D01*
X11217706Y7456017D01*
X11217706Y7476032D01*
G37*
G36*
X11107724Y7515961D02*
G01*
X11107724Y7495997D01*
X11217706Y7495997D01*
X11217706Y7515961D01*
G37*
G36*
X11107724Y7555992D02*
G01*
X11107724Y7535976D01*
X11217706Y7535976D01*
X11217706Y7555992D01*
G37*
G36*
X11107724Y7596022D02*
G01*
X11107724Y7576007D01*
X11217706Y7576007D01*
X11217706Y7596022D01*
G37*
G36*
X11107724Y7636002D02*
G01*
X11107724Y7615986D01*
X11217706Y7615986D01*
X11217706Y7636002D01*
G37*
G36*
X11057686Y7776006D02*
G01*
X11057686Y7665974D01*
X11077702Y7665974D01*
X11077702Y7776006D01*
G37*
G36*
X11017707Y7776006D02*
G01*
X11017707Y7665974D01*
X11037671Y7665974D01*
X11037671Y7776006D01*
G37*
G36*
X10977676Y7776006D02*
G01*
X10977676Y7665974D01*
X10997692Y7665974D01*
X10997692Y7776006D01*
G37*
G36*
X10937697Y7776006D02*
G01*
X10937697Y7665974D01*
X10957712Y7665974D01*
X10957712Y7776006D01*
G37*
G36*
X10897717Y7776006D02*
G01*
X10897717Y7665974D01*
X10917682Y7665974D01*
X10917682Y7776006D01*
G37*
G36*
X10857687Y7776006D02*
G01*
X10857687Y7665974D01*
X10877702Y7665974D01*
X10877702Y7776006D01*
G37*
G36*
X10817707Y7776006D02*
G01*
X10817707Y7665974D01*
X10837672Y7665974D01*
X10837672Y7776006D01*
G37*
G36*
X10777677Y7776006D02*
G01*
X10777677Y7665974D01*
X10797692Y7665974D01*
X10797692Y7776006D01*
G37*
G36*
X10737697Y7776006D02*
G01*
X10737697Y7665974D01*
X10757712Y7665974D01*
X10757712Y7776006D01*
G37*
G36*
X10697718Y7776006D02*
G01*
X10697718Y7665974D01*
X10717682Y7665974D01*
X10717682Y7776006D01*
G37*
G36*
X10657687Y7776006D02*
G01*
X10657687Y7665974D01*
X10677702Y7665974D01*
X10677702Y7776006D01*
G37*
G36*
X10617708Y7776006D02*
G01*
X10617708Y7665974D01*
X10637672Y7665974D01*
X10637672Y7776006D01*
G37*
G36*
X10577677Y7776006D02*
G01*
X10577677Y7665974D01*
X10597692Y7665974D01*
X10597692Y7776006D01*
G37*
G36*
X10537698Y7776006D02*
G01*
X10537698Y7665974D01*
X10557713Y7665974D01*
X10557713Y7776006D01*
G37*
G36*
X10872724Y7510983D02*
G01*
X10872724Y7431024D01*
X10952683Y7431024D01*
X10952683Y7510983D01*
G37*
G36*
X10662716Y7510983D02*
G01*
X10662716Y7431024D01*
X10742726Y7431024D01*
X10742726Y7510983D01*
G37*
G36*
X10662716Y7301026D02*
G01*
X10662716Y7221016D01*
X10742676Y7221016D01*
X10742676Y7301026D01*
G37*
G36*
X10872673Y7301026D02*
G01*
X10872673Y7221016D01*
X10952683Y7221016D01*
X10952683Y7301026D01*
G37*
G36*
X10872673Y7405979D02*
G01*
X10872673Y7325969D01*
X10952683Y7325969D01*
X10952683Y7405979D01*
G37*
G36*
X10767720Y7511034D02*
G01*
X10767720Y7431024D01*
X10847679Y7431024D01*
X10847679Y7511034D01*
G37*
G36*
X10662716Y7405979D02*
G01*
X10662716Y7325969D01*
X10742676Y7325969D01*
X10742676Y7405979D01*
G37*
G36*
X10767720Y7405979D02*
G01*
X10767720Y7326020D01*
X10847679Y7326020D01*
X10847679Y7405979D01*
G37*
G36*
X10767720Y7300518D02*
G01*
X10767720Y7220508D01*
X10847679Y7220508D01*
X10847679Y7300518D01*
G37*
G36*
X10921593Y7964982D02*
G01*
X10916615Y7960004D01*
X10916615Y7914995D01*
X10921593Y7910017D01*
X10974578Y7910017D01*
X10979607Y7914995D01*
X10979607Y7960004D01*
X10974578Y7964982D01*
G37*
G36*
X10818622Y7964982D02*
G01*
X10813592Y7960004D01*
X10813592Y7914995D01*
X10818622Y7910017D01*
X10871606Y7910017D01*
X10876584Y7914995D01*
X10876584Y7960004D01*
X10871606Y7964982D01*
G37*
G36*
X11123422Y6961682D02*
G01*
X11118392Y6956704D01*
X11118392Y6911695D01*
X11123422Y6906717D01*
X11176406Y6906717D01*
X11181384Y6911695D01*
X11181384Y6956704D01*
X11176406Y6961682D01*
G37*
G36*
X11226393Y6961682D02*
G01*
X11221415Y6956704D01*
X11221415Y6911695D01*
X11226393Y6906717D01*
X11279378Y6906717D01*
X11284407Y6911695D01*
X11284407Y6956704D01*
X11279378Y6961682D01*
G37*
G36*
X11301222Y7291882D02*
G01*
X11296192Y7286904D01*
X11296192Y7241895D01*
X11301222Y7236917D01*
X11354206Y7236917D01*
X11359184Y7241895D01*
X11359184Y7286904D01*
X11354206Y7291882D01*
G37*
G36*
X11404193Y7291882D02*
G01*
X11399215Y7286904D01*
X11399215Y7241895D01*
X11404193Y7236917D01*
X11457178Y7236917D01*
X11462207Y7241895D01*
X11462207Y7286904D01*
X11457178Y7291882D01*
G37*
G36*
X10289895Y7664907D02*
G01*
X10284917Y7659878D01*
X10284917Y7606893D01*
X10289895Y7601915D01*
X10334904Y7601915D01*
X10339882Y7606893D01*
X10339882Y7659878D01*
X10334904Y7664907D01*
G37*
G36*
X10289895Y7561884D02*
G01*
X10284917Y7556906D01*
X10284917Y7503922D01*
X10289895Y7498892D01*
X10334904Y7498892D01*
X10339882Y7503922D01*
X10339882Y7556906D01*
X10334904Y7561884D01*
G37*
G36*
X10188295Y7664907D02*
G01*
X10183317Y7659878D01*
X10183317Y7606893D01*
X10188295Y7601915D01*
X10233304Y7601915D01*
X10238282Y7606893D01*
X10238282Y7659878D01*
X10233304Y7664907D01*
G37*
G36*
X10188295Y7561884D02*
G01*
X10183317Y7556906D01*
X10183317Y7503922D01*
X10188295Y7498892D01*
X10233304Y7498892D01*
X10238282Y7503922D01*
X10238282Y7556906D01*
X10233304Y7561884D01*
G37*
G36*
X10273893Y7279182D02*
G01*
X10268915Y7274204D01*
X10268915Y7229195D01*
X10273893Y7224217D01*
X10326878Y7224217D01*
X10331907Y7229195D01*
X10331907Y7274204D01*
X10326878Y7279182D01*
G37*
G36*
X10170922Y7279182D02*
G01*
X10165892Y7274204D01*
X10165892Y7229195D01*
X10170922Y7224217D01*
X10223906Y7224217D01*
X10228884Y7229195D01*
X10228884Y7274204D01*
X10223906Y7279182D01*
G37*
G36*
X10070693Y6999782D02*
G01*
X10065715Y6994804D01*
X10065715Y6949795D01*
X10070693Y6944817D01*
X10123678Y6944817D01*
X10128707Y6949795D01*
X10128707Y6994804D01*
X10123678Y6999782D01*
G37*
G36*
X9967722Y6999782D02*
G01*
X9962692Y6994804D01*
X9962692Y6949795D01*
X9967722Y6944817D01*
X10020706Y6944817D01*
X10025684Y6949795D01*
X10025684Y6994804D01*
X10020706Y6999782D01*
G37*
G36*
X13678052Y5589676D02*
G01*
X13668044Y5579668D01*
X13668044Y5459018D01*
X13678052Y5449011D01*
X13773505Y5449011D01*
X13783513Y5459018D01*
X13783513Y5486806D01*
X13793520Y5496814D01*
X13892479Y5496814D01*
X13902486Y5486806D01*
X13902486Y5459018D01*
X13912494Y5449011D01*
X14007947Y5449011D01*
X14017955Y5459018D01*
X14017955Y5579668D01*
X14007947Y5589676D01*
G37*
G36*
X13678052Y5218988D02*
G01*
X13668044Y5208981D01*
X13668044Y5088331D01*
X13678052Y5078323D01*
X14007947Y5078323D01*
X14017955Y5088331D01*
X14017955Y5208981D01*
X14007947Y5218988D01*
X13912494Y5218988D01*
X13902486Y5208981D01*
X13902486Y5181193D01*
X13892479Y5171186D01*
X13793520Y5171186D01*
X13783513Y5181193D01*
X13783513Y5208981D01*
X13773505Y5218988D01*
G37*
G36*
X7770520Y4150410D02*
G01*
X7765491Y4145381D01*
X7765491Y4065422D01*
X7770520Y4060393D01*
X7793278Y4060393D01*
X7793278Y4097426D01*
X7826298Y4097426D01*
X7826298Y4060393D01*
X7850479Y4060393D01*
X7855508Y4065422D01*
X7855508Y4145381D01*
X7850479Y4150410D01*
G37*
G36*
X7770520Y3990390D02*
G01*
X7765491Y3985412D01*
X7765491Y3906418D01*
X7770520Y3901389D01*
X7850479Y3901389D01*
X7855508Y3906418D01*
X7855508Y3985412D01*
X7850479Y3990390D01*
X7826298Y3990390D01*
X7826298Y3952392D01*
X7793278Y3952392D01*
X7793278Y3990390D01*
G37*
G36*
X7922920Y4150410D02*
G01*
X7917891Y4145381D01*
X7917891Y4065422D01*
X7922920Y4060393D01*
X7945678Y4060393D01*
X7945678Y4097426D01*
X7978698Y4097426D01*
X7978698Y4060393D01*
X8002879Y4060393D01*
X8007908Y4065422D01*
X8007908Y4145381D01*
X8002879Y4150410D01*
G37*
G36*
X7922920Y3990390D02*
G01*
X7917891Y3985412D01*
X7917891Y3906418D01*
X7922920Y3901389D01*
X8002879Y3901389D01*
X8007908Y3906418D01*
X8007908Y3985412D01*
X8002879Y3990390D01*
X7978698Y3990390D01*
X7978698Y3952392D01*
X7945678Y3952392D01*
X7945678Y3990390D01*
G37*
G36*
X9548520Y4150410D02*
G01*
X9543491Y4145381D01*
X9543491Y4065422D01*
X9548520Y4060393D01*
X9571278Y4060393D01*
X9571278Y4097426D01*
X9604298Y4097426D01*
X9604298Y4060393D01*
X9628479Y4060393D01*
X9633508Y4065422D01*
X9633508Y4145381D01*
X9628479Y4150410D01*
G37*
G36*
X9548520Y3990390D02*
G01*
X9543491Y3985412D01*
X9543491Y3906418D01*
X9548520Y3901389D01*
X9628479Y3901389D01*
X9633508Y3906418D01*
X9633508Y3985412D01*
X9628479Y3990390D01*
X9604298Y3990390D01*
X9604298Y3952392D01*
X9571278Y3952392D01*
X9571278Y3990390D01*
G37*
G36*
X9700920Y4150410D02*
G01*
X9695891Y4145381D01*
X9695891Y4065422D01*
X9700920Y4060393D01*
X9723678Y4060393D01*
X9723678Y4097426D01*
X9756698Y4097426D01*
X9756698Y4060393D01*
X9780879Y4060393D01*
X9785908Y4065422D01*
X9785908Y4145381D01*
X9780879Y4150410D01*
G37*
G36*
X9700920Y3990390D02*
G01*
X9695891Y3985412D01*
X9695891Y3906418D01*
X9700920Y3901389D01*
X9780879Y3901389D01*
X9785908Y3906418D01*
X9785908Y3985412D01*
X9780879Y3990390D01*
X9756698Y3990390D01*
X9756698Y3952392D01*
X9723678Y3952392D01*
X9723678Y3990390D01*
G37*
G36*
X7922920Y2372410D02*
G01*
X7917891Y2367381D01*
X7917891Y2287422D01*
X7922920Y2282393D01*
X7945678Y2282393D01*
X7945678Y2319426D01*
X7978698Y2319426D01*
X7978698Y2282393D01*
X8002879Y2282393D01*
X8007908Y2287422D01*
X8007908Y2367381D01*
X8002879Y2372410D01*
G37*
G36*
X7922920Y2212390D02*
G01*
X7917891Y2207412D01*
X7917891Y2128418D01*
X7922920Y2123389D01*
X8002879Y2123389D01*
X8007908Y2128418D01*
X8007908Y2207412D01*
X8002879Y2212390D01*
X7978698Y2212390D01*
X7978698Y2174392D01*
X7945678Y2174392D01*
X7945678Y2212390D01*
G37*
G36*
X7770520Y2372410D02*
G01*
X7765491Y2367381D01*
X7765491Y2287422D01*
X7770520Y2282393D01*
X7793278Y2282393D01*
X7793278Y2319426D01*
X7826298Y2319426D01*
X7826298Y2282393D01*
X7850479Y2282393D01*
X7855508Y2287422D01*
X7855508Y2367381D01*
X7850479Y2372410D01*
G37*
G36*
X7770520Y2212390D02*
G01*
X7765491Y2207412D01*
X7765491Y2128418D01*
X7770520Y2123389D01*
X7850479Y2123389D01*
X7855508Y2128418D01*
X7855508Y2207412D01*
X7850479Y2212390D01*
X7826298Y2212390D01*
X7826298Y2174392D01*
X7793278Y2174392D01*
X7793278Y2212390D01*
G37*
G36*
X9548520Y2372410D02*
G01*
X9543491Y2367381D01*
X9543491Y2287422D01*
X9548520Y2282393D01*
X9571278Y2282393D01*
X9571278Y2319426D01*
X9604298Y2319426D01*
X9604298Y2282393D01*
X9628479Y2282393D01*
X9633508Y2287422D01*
X9633508Y2367381D01*
X9628479Y2372410D01*
G37*
G36*
X9548520Y2212390D02*
G01*
X9543491Y2207412D01*
X9543491Y2128418D01*
X9548520Y2123389D01*
X9628479Y2123389D01*
X9633508Y2128418D01*
X9633508Y2207412D01*
X9628479Y2212390D01*
X9604298Y2212390D01*
X9604298Y2174392D01*
X9571278Y2174392D01*
X9571278Y2212390D01*
G37*
G36*
X9700920Y2372410D02*
G01*
X9695891Y2367381D01*
X9695891Y2287422D01*
X9700920Y2282393D01*
X9723678Y2282393D01*
X9723678Y2319426D01*
X9756698Y2319426D01*
X9756698Y2282393D01*
X9780879Y2282393D01*
X9785908Y2287422D01*
X9785908Y2367381D01*
X9780879Y2372410D01*
G37*
G36*
X9700920Y2212390D02*
G01*
X9695891Y2207412D01*
X9695891Y2128418D01*
X9700920Y2123389D01*
X9780879Y2123389D01*
X9785908Y2128418D01*
X9785908Y2207412D01*
X9780879Y2212390D01*
X9756698Y2212390D01*
X9756698Y2174392D01*
X9723678Y2174392D01*
X9723678Y2212390D01*
G37*
G36*
X11618620Y4150410D02*
G01*
X11613591Y4145381D01*
X11613591Y4065422D01*
X11618620Y4060393D01*
X11641378Y4060393D01*
X11641378Y4097426D01*
X11674398Y4097426D01*
X11674398Y4060393D01*
X11698579Y4060393D01*
X11703608Y4065422D01*
X11703608Y4145381D01*
X11698579Y4150410D01*
G37*
G36*
X11618620Y3990390D02*
G01*
X11613591Y3985412D01*
X11613591Y3906418D01*
X11618620Y3901389D01*
X11698579Y3901389D01*
X11703608Y3906418D01*
X11703608Y3985412D01*
X11698579Y3990390D01*
X11674398Y3990390D01*
X11674398Y3952392D01*
X11641378Y3952392D01*
X11641378Y3990390D01*
G37*
G36*
X11771020Y4150410D02*
G01*
X11765991Y4145381D01*
X11765991Y4065422D01*
X11771020Y4060393D01*
X11793778Y4060393D01*
X11793778Y4097426D01*
X11826798Y4097426D01*
X11826798Y4060393D01*
X11850979Y4060393D01*
X11856008Y4065422D01*
X11856008Y4145381D01*
X11850979Y4150410D01*
G37*
G36*
X11771020Y3990390D02*
G01*
X11765991Y3985412D01*
X11765991Y3906418D01*
X11771020Y3901389D01*
X11850979Y3901389D01*
X11856008Y3906418D01*
X11856008Y3985412D01*
X11850979Y3990390D01*
X11826798Y3990390D01*
X11826798Y3952392D01*
X11793778Y3952392D01*
X11793778Y3990390D01*
G37*
G36*
X13396620Y4150410D02*
G01*
X13391591Y4145381D01*
X13391591Y4065422D01*
X13396620Y4060393D01*
X13419378Y4060393D01*
X13419378Y4097426D01*
X13452398Y4097426D01*
X13452398Y4060393D01*
X13476579Y4060393D01*
X13481608Y4065422D01*
X13481608Y4145381D01*
X13476579Y4150410D01*
G37*
G36*
X13396620Y3990390D02*
G01*
X13391591Y3985412D01*
X13391591Y3906418D01*
X13396620Y3901389D01*
X13476579Y3901389D01*
X13481608Y3906418D01*
X13481608Y3985412D01*
X13476579Y3990390D01*
X13452398Y3990390D01*
X13452398Y3952392D01*
X13419378Y3952392D01*
X13419378Y3990390D01*
G37*
G36*
X13549020Y4150410D02*
G01*
X13543991Y4145381D01*
X13543991Y4065422D01*
X13549020Y4060393D01*
X13571778Y4060393D01*
X13571778Y4097426D01*
X13604798Y4097426D01*
X13604798Y4060393D01*
X13628979Y4060393D01*
X13634008Y4065422D01*
X13634008Y4145381D01*
X13628979Y4150410D01*
G37*
G36*
X13549020Y3990390D02*
G01*
X13543991Y3985412D01*
X13543991Y3906418D01*
X13549020Y3901389D01*
X13628979Y3901389D01*
X13634008Y3906418D01*
X13634008Y3985412D01*
X13628979Y3990390D01*
X13604798Y3990390D01*
X13604798Y3952392D01*
X13571778Y3952392D01*
X13571778Y3990390D01*
G37*
G36*
X11618620Y2372410D02*
G01*
X11613591Y2367381D01*
X11613591Y2287422D01*
X11618620Y2282393D01*
X11641378Y2282393D01*
X11641378Y2319426D01*
X11674398Y2319426D01*
X11674398Y2282393D01*
X11698579Y2282393D01*
X11703608Y2287422D01*
X11703608Y2367381D01*
X11698579Y2372410D01*
G37*
G36*
X11618620Y2212390D02*
G01*
X11613591Y2207412D01*
X11613591Y2128418D01*
X11618620Y2123389D01*
X11698579Y2123389D01*
X11703608Y2128418D01*
X11703608Y2207412D01*
X11698579Y2212390D01*
X11674398Y2212390D01*
X11674398Y2174392D01*
X11641378Y2174392D01*
X11641378Y2212390D01*
G37*
G36*
X11771020Y2372410D02*
G01*
X11765991Y2367381D01*
X11765991Y2287422D01*
X11771020Y2282393D01*
X11793778Y2282393D01*
X11793778Y2319426D01*
X11826798Y2319426D01*
X11826798Y2282393D01*
X11850979Y2282393D01*
X11856008Y2287422D01*
X11856008Y2367381D01*
X11850979Y2372410D01*
G37*
G36*
X11771020Y2212390D02*
G01*
X11765991Y2207412D01*
X11765991Y2128418D01*
X11771020Y2123389D01*
X11850979Y2123389D01*
X11856008Y2128418D01*
X11856008Y2207412D01*
X11850979Y2212390D01*
X11826798Y2212390D01*
X11826798Y2174392D01*
X11793778Y2174392D01*
X11793778Y2212390D01*
G37*
G36*
X13396620Y2372410D02*
G01*
X13391591Y2367381D01*
X13391591Y2287422D01*
X13396620Y2282393D01*
X13419378Y2282393D01*
X13419378Y2319426D01*
X13452398Y2319426D01*
X13452398Y2282393D01*
X13476579Y2282393D01*
X13481608Y2287422D01*
X13481608Y2367381D01*
X13476579Y2372410D01*
G37*
G36*
X13396620Y2212390D02*
G01*
X13391591Y2207412D01*
X13391591Y2128418D01*
X13396620Y2123389D01*
X13476579Y2123389D01*
X13481608Y2128418D01*
X13481608Y2207412D01*
X13476579Y2212390D01*
X13452398Y2212390D01*
X13452398Y2174392D01*
X13419378Y2174392D01*
X13419378Y2212390D01*
G37*
G36*
X13549020Y2372410D02*
G01*
X13543991Y2367381D01*
X13543991Y2287422D01*
X13549020Y2282393D01*
X13571778Y2282393D01*
X13571778Y2319426D01*
X13604798Y2319426D01*
X13604798Y2282393D01*
X13628979Y2282393D01*
X13634008Y2287422D01*
X13634008Y2367381D01*
X13628979Y2372410D01*
G37*
G36*
X13549020Y2212390D02*
G01*
X13543991Y2207412D01*
X13543991Y2128418D01*
X13549020Y2123389D01*
X13628979Y2123389D01*
X13634008Y2128418D01*
X13634008Y2207412D01*
X13628979Y2212390D01*
X13604798Y2212390D01*
X13604798Y2174392D01*
X13571778Y2174392D01*
X13571778Y2212390D01*
G37*
G36*
X15454020Y4150410D02*
G01*
X15448991Y4145381D01*
X15448991Y4065422D01*
X15454020Y4060393D01*
X15476778Y4060393D01*
X15476778Y4097426D01*
X15509798Y4097426D01*
X15509798Y4060393D01*
X15533979Y4060393D01*
X15539008Y4065422D01*
X15539008Y4145381D01*
X15533979Y4150410D01*
G37*
G36*
X15454020Y3990390D02*
G01*
X15448991Y3985412D01*
X15448991Y3906418D01*
X15454020Y3901389D01*
X15533979Y3901389D01*
X15539008Y3906418D01*
X15539008Y3985412D01*
X15533979Y3990390D01*
X15509798Y3990390D01*
X15509798Y3952392D01*
X15476778Y3952392D01*
X15476778Y3990390D01*
G37*
G36*
X15606420Y4150410D02*
G01*
X15601391Y4145381D01*
X15601391Y4065422D01*
X15606420Y4060393D01*
X15629178Y4060393D01*
X15629178Y4097426D01*
X15662198Y4097426D01*
X15662198Y4060393D01*
X15686379Y4060393D01*
X15691408Y4065422D01*
X15691408Y4145381D01*
X15686379Y4150410D01*
G37*
G36*
X15606420Y3990390D02*
G01*
X15601391Y3985412D01*
X15601391Y3906418D01*
X15606420Y3901389D01*
X15686379Y3901389D01*
X15691408Y3906418D01*
X15691408Y3985412D01*
X15686379Y3990390D01*
X15662198Y3990390D01*
X15662198Y3952392D01*
X15629178Y3952392D01*
X15629178Y3990390D01*
G37*
G36*
X17232020Y4150410D02*
G01*
X17226991Y4145381D01*
X17226991Y4065422D01*
X17232020Y4060393D01*
X17254778Y4060393D01*
X17254778Y4097426D01*
X17287798Y4097426D01*
X17287798Y4060393D01*
X17311979Y4060393D01*
X17317008Y4065422D01*
X17317008Y4145381D01*
X17311979Y4150410D01*
G37*
G36*
X17232020Y3990390D02*
G01*
X17226991Y3985412D01*
X17226991Y3906418D01*
X17232020Y3901389D01*
X17311979Y3901389D01*
X17317008Y3906418D01*
X17317008Y3985412D01*
X17311979Y3990390D01*
X17287798Y3990390D01*
X17287798Y3952392D01*
X17254778Y3952392D01*
X17254778Y3990390D01*
G37*
G36*
X17384420Y4150410D02*
G01*
X17379391Y4145381D01*
X17379391Y4065422D01*
X17384420Y4060393D01*
X17407178Y4060393D01*
X17407178Y4097426D01*
X17440198Y4097426D01*
X17440198Y4060393D01*
X17464379Y4060393D01*
X17469408Y4065422D01*
X17469408Y4145381D01*
X17464379Y4150410D01*
G37*
G36*
X17384420Y3990390D02*
G01*
X17379391Y3985412D01*
X17379391Y3906418D01*
X17384420Y3901389D01*
X17464379Y3901389D01*
X17469408Y3906418D01*
X17469408Y3985412D01*
X17464379Y3990390D01*
X17440198Y3990390D01*
X17440198Y3952392D01*
X17407178Y3952392D01*
X17407178Y3990390D01*
G37*
G36*
X15454020Y2372410D02*
G01*
X15448991Y2367381D01*
X15448991Y2287422D01*
X15454020Y2282393D01*
X15476778Y2282393D01*
X15476778Y2319426D01*
X15509798Y2319426D01*
X15509798Y2282393D01*
X15533979Y2282393D01*
X15539008Y2287422D01*
X15539008Y2367381D01*
X15533979Y2372410D01*
G37*
G36*
X15454020Y2212390D02*
G01*
X15448991Y2207412D01*
X15448991Y2128418D01*
X15454020Y2123389D01*
X15533979Y2123389D01*
X15539008Y2128418D01*
X15539008Y2207412D01*
X15533979Y2212390D01*
X15509798Y2212390D01*
X15509798Y2174392D01*
X15476778Y2174392D01*
X15476778Y2212390D01*
G37*
G36*
X15606420Y2372410D02*
G01*
X15601391Y2367381D01*
X15601391Y2287422D01*
X15606420Y2282393D01*
X15629178Y2282393D01*
X15629178Y2319426D01*
X15662198Y2319426D01*
X15662198Y2282393D01*
X15686379Y2282393D01*
X15691408Y2287422D01*
X15691408Y2367381D01*
X15686379Y2372410D01*
G37*
G36*
X15606420Y2212390D02*
G01*
X15601391Y2207412D01*
X15601391Y2128418D01*
X15606420Y2123389D01*
X15686379Y2123389D01*
X15691408Y2128418D01*
X15691408Y2207412D01*
X15686379Y2212390D01*
X15662198Y2212390D01*
X15662198Y2174392D01*
X15629178Y2174392D01*
X15629178Y2212390D01*
G37*
G36*
X17232020Y2372410D02*
G01*
X17226991Y2367381D01*
X17226991Y2287422D01*
X17232020Y2282393D01*
X17254778Y2282393D01*
X17254778Y2319426D01*
X17287798Y2319426D01*
X17287798Y2282393D01*
X17311979Y2282393D01*
X17317008Y2287422D01*
X17317008Y2367381D01*
X17311979Y2372410D01*
G37*
G36*
X17232020Y2212390D02*
G01*
X17226991Y2207412D01*
X17226991Y2128418D01*
X17232020Y2123389D01*
X17311979Y2123389D01*
X17317008Y2128418D01*
X17317008Y2207412D01*
X17311979Y2212390D01*
X17287798Y2212390D01*
X17287798Y2174392D01*
X17254778Y2174392D01*
X17254778Y2212390D01*
G37*
G36*
X17384420Y2372410D02*
G01*
X17379391Y2367381D01*
X17379391Y2287422D01*
X17384420Y2282393D01*
X17407178Y2282393D01*
X17407178Y2319426D01*
X17440198Y2319426D01*
X17440198Y2282393D01*
X17464379Y2282393D01*
X17469408Y2287422D01*
X17469408Y2367381D01*
X17464379Y2372410D01*
G37*
G36*
X17384420Y2212390D02*
G01*
X17379391Y2207412D01*
X17379391Y2128418D01*
X17384420Y2123389D01*
X17464379Y2123389D01*
X17469408Y2128418D01*
X17469408Y2207412D01*
X17464379Y2212390D01*
X17440198Y2212390D01*
X17440198Y2174392D01*
X17407178Y2174392D01*
X17407178Y2212390D01*
G37*
G36*
X12842087Y5022799D02*
G01*
X12801092Y5022291D01*
X12796113Y5017312D01*
X12796113Y4902301D01*
X12801092Y4897272D01*
X12929108Y4897272D01*
X12934086Y4902301D01*
X12934086Y5017312D01*
X12929108Y5022291D01*
X12887096Y5021783D01*
X12887096Y4977790D01*
X12842087Y4977790D01*
G37*
G36*
X12801092Y5237276D02*
G01*
X12796113Y5232298D01*
X12796113Y5117287D01*
X12801092Y5112308D01*
X12842087Y5112816D01*
X12842087Y5156809D01*
X12887096Y5156809D01*
X12887096Y5112308D01*
X12929108Y5112308D01*
X12934086Y5117287D01*
X12934086Y5232298D01*
X12929108Y5237276D01*
G37*
G36*
X13057987Y5022799D02*
G01*
X13016992Y5022291D01*
X13012013Y5017312D01*
X13012013Y4902301D01*
X13016992Y4897272D01*
X13145007Y4897272D01*
X13149986Y4902301D01*
X13149986Y5017312D01*
X13145007Y5022291D01*
X13102996Y5021783D01*
X13102996Y4977790D01*
X13057987Y4977790D01*
G37*
G36*
X13016992Y5237276D02*
G01*
X13012013Y5232298D01*
X13012013Y5117287D01*
X13016992Y5112308D01*
X13057987Y5112816D01*
X13057987Y5156809D01*
X13102996Y5156809D01*
X13102996Y5112308D01*
X13145007Y5112308D01*
X13149986Y5117287D01*
X13149986Y5232298D01*
X13145007Y5237276D01*
G37*
G36*
X13993520Y7788706D02*
G01*
X13988491Y7783677D01*
X13988491Y7703718D01*
X13993520Y7698689D01*
X14073479Y7698689D01*
X14078508Y7703718D01*
X14078508Y7783677D01*
X14073479Y7788706D01*
X14050721Y7788706D01*
X14050721Y7751673D01*
X14017701Y7751673D01*
X14017701Y7788706D01*
G37*
G36*
X13993520Y7947710D02*
G01*
X13988491Y7942681D01*
X13988491Y7863687D01*
X13993520Y7858709D01*
X14017701Y7858709D01*
X14017701Y7896707D01*
X14050721Y7896707D01*
X14050721Y7858709D01*
X14073479Y7858709D01*
X14078508Y7863687D01*
X14078508Y7942681D01*
X14073479Y7947710D01*
G37*
G36*
X14145920Y7788706D02*
G01*
X14140891Y7783677D01*
X14140891Y7703718D01*
X14145920Y7698689D01*
X14225879Y7698689D01*
X14230908Y7703718D01*
X14230908Y7783677D01*
X14225879Y7788706D01*
X14203121Y7788706D01*
X14203121Y7751673D01*
X14170101Y7751673D01*
X14170101Y7788706D01*
G37*
G36*
X14145920Y7947710D02*
G01*
X14140891Y7942681D01*
X14140891Y7863687D01*
X14145920Y7858709D01*
X14170101Y7858709D01*
X14170101Y7896707D01*
X14203121Y7896707D01*
X14203121Y7858709D01*
X14225879Y7858709D01*
X14230908Y7863687D01*
X14230908Y7942681D01*
X14225879Y7947710D01*
G37*
G36*
X14958720Y7788706D02*
G01*
X14953691Y7783677D01*
X14953691Y7703718D01*
X14958720Y7698689D01*
X15038679Y7698689D01*
X15043708Y7703718D01*
X15043708Y7783677D01*
X15038679Y7788706D01*
X15015921Y7788706D01*
X15015921Y7751673D01*
X14982901Y7751673D01*
X14982901Y7788706D01*
G37*
G36*
X14958720Y7947710D02*
G01*
X14953691Y7942681D01*
X14953691Y7863687D01*
X14958720Y7858709D01*
X14982901Y7858709D01*
X14982901Y7896707D01*
X15015921Y7896707D01*
X15015921Y7858709D01*
X15038679Y7858709D01*
X15043708Y7863687D01*
X15043708Y7942681D01*
X15038679Y7947710D01*
G37*
G36*
X14806320Y7788706D02*
G01*
X14801291Y7783677D01*
X14801291Y7703718D01*
X14806320Y7698689D01*
X14886279Y7698689D01*
X14891308Y7703718D01*
X14891308Y7783677D01*
X14886279Y7788706D01*
X14863521Y7788706D01*
X14863521Y7751673D01*
X14830501Y7751673D01*
X14830501Y7788706D01*
G37*
G36*
X14806320Y7947710D02*
G01*
X14801291Y7942681D01*
X14801291Y7863687D01*
X14806320Y7858709D01*
X14830501Y7858709D01*
X14830501Y7896707D01*
X14863521Y7896707D01*
X14863521Y7858709D01*
X14886279Y7858709D01*
X14891308Y7863687D01*
X14891308Y7942681D01*
X14886279Y7947710D01*
G37*
D10*
G01*
X14421104Y8368690D03*
G01*
X14516100Y8368690D03*
G01*
X14611095Y8368690D03*
G01*
X14611095Y8598509D03*
G01*
X14516100Y8598509D03*
G01*
X14421104Y8598509D03*
D11*
G01*
X8502802Y8128000D03*
G01*
X8362797Y8128000D03*
G01*
X12350902Y8128000D03*
G01*
X12210897Y8128000D03*
G01*
X16186302Y8128000D03*
G01*
X16046297Y8128000D03*
G01*
X12135002Y6210300D03*
G01*
X11994997Y6210300D03*
D12*
G01*
X11976100Y5606897D03*
G01*
X11976100Y5746902D03*
G01*
X13195300Y5606897D03*
G01*
X13195300Y5746902D03*
D11*
G01*
X12338202Y5168900D03*
G01*
X12198197Y5168900D03*
G01*
X12655702Y5168900D03*
G01*
X12515697Y5168900D03*
D10*
G01*
X10585704Y8368690D03*
G01*
X10680700Y8368690D03*
G01*
X10775695Y8368690D03*
G01*
X10775695Y8598509D03*
G01*
X10680700Y8598509D03*
G01*
X10585704Y8598509D03*
D13*
G01*
X13970000Y5710097D03*
G01*
X13970000Y6050102D03*
D14*
G01*
X14590902Y6407150D03*
G01*
X14820900Y6407150D03*
G01*
X15050897Y6407150D03*
D15*
G01*
X14820900Y6978650D03*
D16*
G01*
X14820900Y5951824D03*
D17*
G01*
X14820900Y5249570D03*
D18*
G01*
X10494502Y6684109D03*
G01*
X10714502Y6684109D03*
D19*
G01*
X10714507Y6854113D03*
D20*
G01*
X10494502Y6854111D03*
D21*
G01*
X10463149Y7773593D03*
G01*
X10463149Y7823606D03*
G01*
X10463149Y7873593D03*
G01*
X10463149Y7923606D03*
G01*
X10161650Y7773593D03*
G01*
X10161650Y7823606D03*
G01*
X10161650Y7873593D03*
G01*
X10161650Y7923606D03*
D22*
G01*
X10312400Y7848600D03*
D23*
G01*
X10321797Y6873976D03*
G01*
X10321797Y6968997D03*
G01*
X10226776Y6968997D03*
G01*
X10226776Y6873976D03*
D24*
G01*
X10780699Y9166148D03*
G01*
X10680700Y9166148D03*
G01*
X10580700Y9166148D03*
D25*
G01*
X10450702Y9553651D03*
G01*
X10910697Y9553651D03*
D24*
G01*
X14616099Y9166148D03*
G01*
X14516100Y9166148D03*
G01*
X14416100Y9166148D03*
D25*
G01*
X14286102Y9553651D03*
G01*
X14746097Y9553651D03*
D26*
G01*
X10553700Y6061710D03*
G01*
X10553700Y6231889D03*
D27*
G01*
X12141200Y5403342D03*
G01*
X12268200Y5403342D03*
G01*
X12395200Y5403342D03*
G01*
X12522200Y5403342D03*
G01*
X12649200Y5403342D03*
G01*
X12776200Y5403342D03*
G01*
X12903200Y5403342D03*
G01*
X13030200Y5403342D03*
G01*
X12141200Y5950457D03*
G01*
X12268200Y5950457D03*
G01*
X12395200Y5950457D03*
G01*
X12522200Y5950457D03*
G01*
X12649200Y5950457D03*
G01*
X12776200Y5950457D03*
G01*
X12903200Y5950457D03*
G01*
X13030200Y5950457D03*
D28*
G01*
X12763500Y3648100D03*
G01*
X12763500Y4048099D03*
G01*
X12395200Y3648100D03*
G01*
X12395200Y4048099D03*
D29*
G01*
X13423900Y7840395D03*
G01*
X13296900Y7840395D03*
G01*
X13169900Y7840395D03*
G01*
X13042900Y7840395D03*
G01*
X12915900Y7840395D03*
G01*
X12788900Y7840395D03*
G01*
X12661900Y7840395D03*
G01*
X12534900Y7840395D03*
G01*
X12407900Y7840395D03*
G01*
X12280900Y7840395D03*
G01*
X12153900Y7840395D03*
G01*
X12026900Y7840395D03*
G01*
X11899900Y7840395D03*
G01*
X11772900Y7840395D03*
G01*
X13423900Y6891604D03*
G01*
X13296900Y6891604D03*
G01*
X13169900Y6891604D03*
G01*
X13042900Y6891604D03*
G01*
X12915900Y6891604D03*
G01*
X12788900Y6891604D03*
G01*
X12661900Y6891604D03*
G01*
X12534900Y6891604D03*
G01*
X12407900Y6891604D03*
G01*
X12280900Y6891604D03*
G01*
X12153900Y6891604D03*
G01*
X12026900Y6891604D03*
G01*
X11899900Y6891604D03*
G01*
X11772900Y6891604D03*
G01*
X9575800Y7840395D03*
G01*
X9448800Y7840395D03*
G01*
X9321800Y7840395D03*
G01*
X9194800Y7840395D03*
G01*
X9067800Y7840395D03*
G01*
X8940800Y7840395D03*
G01*
X8813800Y7840395D03*
G01*
X8686800Y7840395D03*
G01*
X8559800Y7840395D03*
G01*
X8432800Y7840395D03*
G01*
X8305800Y7840395D03*
G01*
X8178800Y7840395D03*
G01*
X8051800Y7840395D03*
G01*
X7924800Y7840395D03*
G01*
X9575800Y6891604D03*
G01*
X9448800Y6891604D03*
G01*
X9321800Y6891604D03*
G01*
X9194800Y6891604D03*
G01*
X9067800Y6891604D03*
G01*
X8940800Y6891604D03*
G01*
X8813800Y6891604D03*
G01*
X8686800Y6891604D03*
G01*
X8559800Y6891604D03*
G01*
X8432800Y6891604D03*
G01*
X8305800Y6891604D03*
G01*
X8178800Y6891604D03*
G01*
X8051800Y6891604D03*
G01*
X7924800Y6891604D03*
G01*
X17259300Y7840395D03*
G01*
X17132300Y7840395D03*
G01*
X17005300Y7840395D03*
G01*
X16878300Y7840395D03*
G01*
X16751300Y7840395D03*
G01*
X16624300Y7840395D03*
G01*
X16497300Y7840395D03*
G01*
X16370300Y7840395D03*
G01*
X16243300Y7840395D03*
G01*
X16116300Y7840395D03*
G01*
X15989300Y7840395D03*
G01*
X15862300Y7840395D03*
G01*
X15735300Y7840395D03*
G01*
X15608300Y7840395D03*
G01*
X17259300Y6891604D03*
G01*
X17132300Y6891604D03*
G01*
X17005300Y6891604D03*
G01*
X16878300Y6891604D03*
G01*
X16751300Y6891604D03*
G01*
X16624300Y6891604D03*
G01*
X16497300Y6891604D03*
G01*
X16370300Y6891604D03*
G01*
X16243300Y6891604D03*
G01*
X16116300Y6891604D03*
G01*
X15989300Y6891604D03*
G01*
X15862300Y6891604D03*
G01*
X15735300Y6891604D03*
G01*
X15608300Y6891604D03*
M02*
