M48
METRIC,LZ,000.000
;FILE_FORMAT=3:3
;TYPE=NON_PLATED
;Layer: NPTH_Through
;EasyEDA v6.5.34, 2023-08-21 18:11:39
;473cf98a722f4b1b92428232cfd1038c,5a6b42c53f6a479593ecc07194224c93,10
;Gerber Generator version 0.2
;Holesize 1 = 2.000 mm
T01C2.000
;Holesize 2 = 3.000 mm
T02C3.000
;Holesize 3 = 3.501 mm
T03C3.501
%
G05
G90
T01
X035449Y006858
X183520Y006858
X106656Y006858
X145088Y006858
X221952Y006858
X260384Y006858
X298816Y006858
X337248Y006858
X375680Y006858
X419769Y006858
X446919Y006858
X035449Y006858
X062599Y006858
X419772Y128270
X446922Y128270
X381340Y128270
X408490Y128270
X342908Y128270
X370058Y128270
X304476Y128270
X331626Y128270
X266044Y128270
X293194Y128270
X227612Y128270
X254762Y128270
X189180Y128270
X216330Y128270
X150748Y128270
X177898Y128270
X112316Y128270
X139466Y128270
X073884Y128270
X101034Y128270
X062602Y128270
X035452Y128270
X375680Y045758
X337248Y045758
X298816Y045758
X260384Y045758
X221952Y045758
X183520Y045758
X145088Y045758
X106656Y045758
X446919Y045758
X419769Y045758
X035449Y045758
X062599Y045758
X419772Y089370
X446922Y089370
X381340Y089370
X408490Y089370
X342908Y089370
X370058Y089370
X304476Y089370
X331626Y089370
X266044Y089370
X293194Y089370
X227612Y089370
X254762Y089370
X189180Y089370
X216330Y089370
X150748Y089370
X177898Y089370
X112316Y089370
X139466Y089370
X073884Y089370
X101034Y089370
X062602Y089370
X035452Y089370
T02
X425614Y077343
X425614Y054483
X407961Y059055
X393610Y059055
X382180Y060071
X375576Y060071
X369226Y059055
X355129Y059055
X340778Y059055
X334301Y060071
X327824Y060071
X316775Y059055
X292645Y059055
X278294Y059055
X266737Y060071
X260260Y060071
X253910Y059055
X239813Y059055
X225462Y059055
X218985Y060071
X212508Y060071
X201459Y059055
X187108Y059055
X162978Y059055
X151548Y060071
X144944Y060071
X138594Y059055
X124497Y059055
X110146Y059055
X103669Y060071
X097192Y060071
X086016Y059055
X072046Y059055
X041312Y054483
X041312Y077343
T03
X444809Y050419
X435284Y050419
X425632Y050419
X444809Y073279
X435284Y073279
X425632Y073279
X409436Y054737
X409436Y064008
X409436Y073279
X395094Y054737
X395094Y064008
X395094Y073279
X394459Y080137
X383664Y055753
X383664Y065151
X383664Y074295
X377060Y055753
X377060Y065151
X377060Y074295
X370710Y054737
X370710Y064008
X370710Y073279
X356662Y054737
X356662Y064008
X356662Y073279
X356027Y080137
X342262Y054737
X342262Y064008
X342262Y073279
X335785Y055753
X335785Y065151
X335785Y074295
X329308Y055753
X329308Y065151
X329308Y074295
X318230Y054737
X318230Y064008
X318230Y073279
X317595Y080137
X294140Y054737
X294140Y064008
X294140Y073279
X279798Y054737
X279798Y064008
X279798Y073279
X279163Y080137
X268368Y055753
X268368Y065151
X268368Y074295
X261764Y055753
X261764Y065151
X261764Y074295
X255414Y054737
X255414Y064008
X255414Y073279
X241366Y054737
X241366Y064008
X241366Y073279
X240731Y080137
X226966Y054737
X226966Y064008
X226966Y073279
X220489Y055753
X220489Y065151
X220489Y074295
X214012Y055753
X214012Y065151
X214012Y074295
X202934Y054737
X202934Y064008
X202934Y073279
X202299Y080137
X188632Y054737
X188632Y064008
X188632Y073279
X164502Y054737
X164502Y064008
X164502Y073279
X163867Y080137
X153072Y055753
X153072Y065151
X153072Y074295
X146468Y055753
X146468Y065151
X146468Y074295
X140118Y054737
X140118Y064008
X140118Y073279
X126021Y054737
X126021Y064008
X126021Y073279
X125386Y080137
X111670Y054737
X111670Y064008
X111670Y073279
X105193Y055753
X105193Y065151
X105193Y074295
X098716Y055753
X098716Y065151
X098716Y074295
X087540Y054737
X087540Y064008
X087540Y073279
X086905Y080137
X073570Y073279
X073570Y064008
X060489Y050419
X073570Y054737
X050964Y050419
X041312Y050419
X060489Y073279
X050964Y073279
X041312Y073279
M30
