G04 Layer: TopSilkscreenLayer*
G04 EasyEDA v6.5.34, 2023-08-21 18:11:39*
G04 473cf98a722f4b1b92428232cfd1038c,5a6b42c53f6a479593ecc07194224c93,10*
G04 Gerber Generator version 0.2*
G04 Scale: 100 percent, Rotated: No, Reflected: No *
G04 Dimensions in millimeters *
G04 leading zeros omitted , absolute positions ,4 integer and 5 decimal *
%FSLAX45Y45*%
%MOMM*%

%ADD10C,0.2032*%
%ADD11C,0.2540*%

%LPD*%
D10*
X22783901Y464057D02*
G01*
X22783901Y349504D01*
X22783901Y464057D02*
G01*
X22832923Y464057D01*
X22849179Y458470D01*
X22854767Y453136D01*
X22860101Y442213D01*
X22860101Y425704D01*
X22854767Y414781D01*
X22849179Y409447D01*
X22832923Y404113D01*
X22783901Y404113D01*
X22939857Y464057D02*
G01*
X22896169Y349504D01*
X22939857Y464057D02*
G01*
X22983545Y349504D01*
X22912425Y387604D02*
G01*
X22967035Y387604D01*
X23019359Y464057D02*
G01*
X23019359Y349504D01*
X23019359Y464057D02*
G01*
X23068635Y464057D01*
X23084891Y458470D01*
X23090225Y453136D01*
X23095813Y442213D01*
X23095813Y431292D01*
X23090225Y420370D01*
X23084891Y414781D01*
X23068635Y409447D01*
X23019359Y409447D01*
X23057713Y409447D02*
G01*
X23095813Y349504D01*
X23169981Y464057D02*
G01*
X23169981Y349504D01*
X23131881Y464057D02*
G01*
X23208081Y464057D01*
X23328223Y464057D02*
G01*
X23328223Y349504D01*
X23328223Y464057D02*
G01*
X23404423Y349504D01*
X23404423Y464057D02*
G01*
X23404423Y349504D01*
X23440491Y464057D02*
G01*
X23440491Y382270D01*
X23446079Y365760D01*
X23457001Y354837D01*
X23473257Y349504D01*
X23484179Y349504D01*
X23500435Y354837D01*
X23511357Y365760D01*
X23516945Y382270D01*
X23516945Y464057D01*
X23553013Y464057D02*
G01*
X23553013Y349504D01*
X23553013Y464057D02*
G01*
X23596447Y349504D01*
X23640135Y464057D02*
G01*
X23596447Y349504D01*
X23640135Y464057D02*
G01*
X23640135Y349504D01*
X23676203Y464057D02*
G01*
X23676203Y349504D01*
X23676203Y464057D02*
G01*
X23725225Y464057D01*
X23741735Y458470D01*
X23747069Y453136D01*
X23752403Y442213D01*
X23752403Y431292D01*
X23747069Y420370D01*
X23741735Y414781D01*
X23725225Y409447D01*
X23676203Y409447D02*
G01*
X23725225Y409447D01*
X23741735Y404113D01*
X23747069Y398526D01*
X23752403Y387604D01*
X23752403Y371347D01*
X23747069Y360426D01*
X23741735Y354837D01*
X23725225Y349504D01*
X23676203Y349504D01*
X23788471Y464057D02*
G01*
X23788471Y349504D01*
X23788471Y464057D02*
G01*
X23859337Y464057D01*
X23788471Y409447D02*
G01*
X23832159Y409447D01*
X23788471Y349504D02*
G01*
X23859337Y349504D01*
X23895405Y464057D02*
G01*
X23895405Y349504D01*
X23895405Y464057D02*
G01*
X23944427Y464057D01*
X23960937Y458470D01*
X23966271Y453136D01*
X23971859Y442213D01*
X23971859Y431292D01*
X23966271Y420370D01*
X23960937Y414781D01*
X23944427Y409447D01*
X23895405Y409447D01*
X23933505Y409447D02*
G01*
X23971859Y349504D01*
X24091747Y442213D02*
G01*
X24102669Y447547D01*
X24119179Y464057D01*
X24119179Y349504D01*
X24182425Y464057D02*
G01*
X24165915Y458470D01*
X24160581Y447547D01*
X24160581Y436626D01*
X24165915Y425704D01*
X24176837Y420370D01*
X24198681Y414781D01*
X24215191Y409447D01*
X24225859Y398526D01*
X24231447Y387604D01*
X24231447Y371347D01*
X24225859Y360426D01*
X24220525Y354837D01*
X24204269Y349504D01*
X24182425Y349504D01*
X24165915Y354837D01*
X24160581Y360426D01*
X24154993Y371347D01*
X24154993Y387604D01*
X24160581Y398526D01*
X24171503Y409447D01*
X24187759Y414781D01*
X24209603Y420370D01*
X24220525Y425704D01*
X24225859Y436626D01*
X24225859Y447547D01*
X24220525Y458470D01*
X24204269Y464057D01*
X24182425Y464057D01*
X24332793Y464057D02*
G01*
X24278437Y464057D01*
X24272849Y414781D01*
X24278437Y420370D01*
X24294693Y425704D01*
X24310949Y425704D01*
X24327459Y420370D01*
X24338381Y409447D01*
X24343715Y393192D01*
X24343715Y382270D01*
X24338381Y365760D01*
X24327459Y354837D01*
X24310949Y349504D01*
X24294693Y349504D01*
X24278437Y354837D01*
X24272849Y360426D01*
X24267515Y371347D01*
X24412549Y464057D02*
G01*
X24396039Y458470D01*
X24385371Y442213D01*
X24379783Y414781D01*
X24379783Y398526D01*
X24385371Y371347D01*
X24396039Y354837D01*
X24412549Y349504D01*
X24423471Y349504D01*
X24439727Y354837D01*
X24450649Y371347D01*
X24456237Y398526D01*
X24456237Y414781D01*
X24450649Y442213D01*
X24439727Y458470D01*
X24423471Y464057D01*
X24412549Y464057D01*
X24492051Y398526D02*
G01*
X24590349Y398526D01*
X24659183Y464057D02*
G01*
X24642673Y458470D01*
X24631751Y442213D01*
X24626417Y414781D01*
X24626417Y398526D01*
X24631751Y371347D01*
X24642673Y354837D01*
X24659183Y349504D01*
X24669851Y349504D01*
X24686361Y354837D01*
X24697283Y371347D01*
X24702617Y398526D01*
X24702617Y414781D01*
X24697283Y442213D01*
X24686361Y458470D01*
X24669851Y464057D01*
X24659183Y464057D01*
X24744273Y436626D02*
G01*
X24744273Y442213D01*
X24749607Y453136D01*
X24755195Y458470D01*
X24765863Y464057D01*
X24787707Y464057D01*
X24798629Y458470D01*
X24804217Y453136D01*
X24809551Y442213D01*
X24809551Y431292D01*
X24804217Y420370D01*
X24793295Y404113D01*
X24738685Y349504D01*
X24815139Y349504D01*
X24883719Y464057D02*
G01*
X24867463Y458470D01*
X24856541Y442213D01*
X24850953Y414781D01*
X24850953Y398526D01*
X24856541Y371347D01*
X24867463Y354837D01*
X24883719Y349504D01*
X24894641Y349504D01*
X24911151Y354837D01*
X24922073Y371347D01*
X24927407Y398526D01*
X24927407Y414781D01*
X24922073Y442213D01*
X24911151Y458470D01*
X24894641Y464057D01*
X24883719Y464057D01*
X24974397Y464057D02*
G01*
X25034341Y464057D01*
X25001575Y420370D01*
X25018085Y420370D01*
X25029007Y414781D01*
X25034341Y409447D01*
X25039675Y393192D01*
X25039675Y382270D01*
X25034341Y365760D01*
X25023419Y354837D01*
X25007163Y349504D01*
X24990653Y349504D01*
X24974397Y354837D01*
X24968809Y360426D01*
X24963475Y371347D01*
X25159817Y464057D02*
G01*
X25203505Y349504D01*
X25247193Y464057D02*
G01*
X25203505Y349504D01*
X25315773Y464057D02*
G01*
X25299517Y458470D01*
X25288595Y442213D01*
X25283007Y414781D01*
X25283007Y398526D01*
X25288595Y371347D01*
X25299517Y354837D01*
X25315773Y349504D01*
X25326695Y349504D01*
X25342951Y354837D01*
X25353873Y371347D01*
X25359461Y398526D01*
X25359461Y414781D01*
X25353873Y442213D01*
X25342951Y458470D01*
X25326695Y464057D01*
X25315773Y464057D01*
X25400863Y376681D02*
G01*
X25395529Y371347D01*
X25400863Y365760D01*
X25406451Y371347D01*
X25400863Y376681D01*
X25447853Y436626D02*
G01*
X25447853Y442213D01*
X25453187Y453136D01*
X25458775Y458470D01*
X25469697Y464057D01*
X25491541Y464057D01*
X25502463Y458470D01*
X25507797Y453136D01*
X25513131Y442213D01*
X25513131Y431292D01*
X25507797Y420370D01*
X25496875Y404113D01*
X25442265Y349504D01*
X25518719Y349504D01*
X22254362Y244347D02*
G01*
X22243440Y255270D01*
X22226930Y260857D01*
X22205086Y260857D01*
X22188830Y255270D01*
X22177908Y244347D01*
X22177908Y233426D01*
X22183242Y222504D01*
X22188830Y217170D01*
X22199752Y211581D01*
X22232518Y200913D01*
X22243440Y195326D01*
X22248774Y189992D01*
X22254362Y179070D01*
X22254362Y162560D01*
X22243440Y151637D01*
X22226930Y146304D01*
X22205086Y146304D01*
X22188830Y151637D01*
X22177908Y162560D01*
X22290176Y260857D02*
G01*
X22290176Y179070D01*
X22295764Y162560D01*
X22306686Y151637D01*
X22322942Y146304D01*
X22333864Y146304D01*
X22350374Y151637D01*
X22361296Y162560D01*
X22366630Y179070D01*
X22366630Y260857D01*
X22402698Y260857D02*
G01*
X22402698Y146304D01*
X22402698Y260857D02*
G01*
X22451720Y260857D01*
X22467976Y255270D01*
X22473564Y249936D01*
X22478898Y239013D01*
X22478898Y228092D01*
X22473564Y217170D01*
X22467976Y211581D01*
X22451720Y206247D01*
X22402698Y206247D02*
G01*
X22451720Y206247D01*
X22467976Y200913D01*
X22473564Y195326D01*
X22478898Y184404D01*
X22478898Y168147D01*
X22473564Y157226D01*
X22467976Y151637D01*
X22451720Y146304D01*
X22402698Y146304D01*
X22591420Y244347D02*
G01*
X22580498Y255270D01*
X22563988Y260857D01*
X22542144Y260857D01*
X22525888Y255270D01*
X22514966Y244347D01*
X22514966Y233426D01*
X22520554Y222504D01*
X22525888Y217170D01*
X22536810Y211581D01*
X22569576Y200913D01*
X22580498Y195326D01*
X22585832Y189992D01*
X22591420Y179070D01*
X22591420Y162560D01*
X22580498Y151637D01*
X22563988Y146304D01*
X22542144Y146304D01*
X22525888Y151637D01*
X22514966Y162560D01*
X22665588Y260857D02*
G01*
X22665588Y146304D01*
X22627488Y260857D02*
G01*
X22703688Y260857D01*
X22783444Y260857D02*
G01*
X22739756Y146304D01*
X22783444Y260857D02*
G01*
X22826878Y146304D01*
X22756012Y184404D02*
G01*
X22810622Y184404D01*
X22901300Y260857D02*
G01*
X22901300Y146304D01*
X22862946Y260857D02*
G01*
X22939400Y260857D01*
X22975468Y260857D02*
G01*
X22975468Y146304D01*
X23044048Y260857D02*
G01*
X23033126Y255270D01*
X23022204Y244347D01*
X23016870Y233426D01*
X23011282Y217170D01*
X23011282Y189992D01*
X23016870Y173481D01*
X23022204Y162560D01*
X23033126Y151637D01*
X23044048Y146304D01*
X23065892Y146304D01*
X23076814Y151637D01*
X23087736Y162560D01*
X23093070Y173481D01*
X23098658Y189992D01*
X23098658Y217170D01*
X23093070Y233426D01*
X23087736Y244347D01*
X23076814Y255270D01*
X23065892Y260857D01*
X23044048Y260857D01*
X23134726Y260857D02*
G01*
X23134726Y146304D01*
X23134726Y260857D02*
G01*
X23210926Y146304D01*
X23210926Y260857D02*
G01*
X23210926Y146304D01*
X23407268Y244347D02*
G01*
X23396346Y255270D01*
X23380090Y260857D01*
X23358246Y260857D01*
X23341990Y255270D01*
X23331068Y244347D01*
X23331068Y233426D01*
X23336402Y222504D01*
X23341990Y217170D01*
X23352912Y211581D01*
X23385424Y200913D01*
X23396346Y195326D01*
X23401934Y189992D01*
X23407268Y179070D01*
X23407268Y162560D01*
X23396346Y151637D01*
X23380090Y146304D01*
X23358246Y146304D01*
X23341990Y151637D01*
X23331068Y162560D01*
X23443336Y260857D02*
G01*
X23443336Y146304D01*
X23479404Y260857D02*
G01*
X23479404Y146304D01*
X23479404Y260857D02*
G01*
X23523092Y146304D01*
X23566526Y260857D02*
G01*
X23523092Y146304D01*
X23566526Y260857D02*
G01*
X23566526Y146304D01*
X23602594Y260857D02*
G01*
X23602594Y179070D01*
X23608182Y162560D01*
X23619104Y151637D01*
X23635360Y146304D01*
X23646282Y146304D01*
X23662538Y151637D01*
X23673460Y162560D01*
X23679048Y179070D01*
X23679048Y260857D01*
X23715116Y260857D02*
G01*
X23715116Y146304D01*
X23715116Y146304D02*
G01*
X23780394Y146304D01*
X23860150Y260857D02*
G01*
X23816462Y146304D01*
X23860150Y260857D02*
G01*
X23903838Y146304D01*
X23832718Y184404D02*
G01*
X23887328Y184404D01*
X23978006Y260857D02*
G01*
X23978006Y146304D01*
X23939652Y260857D02*
G01*
X24016106Y260857D01*
X24084940Y260857D02*
G01*
X24074018Y255270D01*
X24063096Y244347D01*
X24057508Y233426D01*
X24052174Y217170D01*
X24052174Y189992D01*
X24057508Y173481D01*
X24063096Y162560D01*
X24074018Y151637D01*
X24084940Y146304D01*
X24106530Y146304D01*
X24117452Y151637D01*
X24128374Y162560D01*
X24133962Y173481D01*
X24139296Y189992D01*
X24139296Y217170D01*
X24133962Y233426D01*
X24128374Y244347D01*
X24117452Y255270D01*
X24106530Y260857D01*
X24084940Y260857D01*
X24175364Y260857D02*
G01*
X24175364Y146304D01*
X24175364Y260857D02*
G01*
X24224386Y260857D01*
X24240896Y255270D01*
X24246230Y249936D01*
X24251818Y239013D01*
X24251818Y228092D01*
X24246230Y217170D01*
X24240896Y211581D01*
X24224386Y206247D01*
X24175364Y206247D01*
X24213464Y206247D02*
G01*
X24251818Y146304D01*
X24371706Y260857D02*
G01*
X24371706Y146304D01*
X24371706Y146304D02*
G01*
X24437238Y146304D01*
X24473052Y260857D02*
G01*
X24473052Y146304D01*
X24473052Y260857D02*
G01*
X24544172Y260857D01*
X24473052Y206247D02*
G01*
X24516740Y206247D01*
X24473052Y146304D02*
G01*
X24544172Y146304D01*
X24579986Y260857D02*
G01*
X24579986Y146304D01*
X24579986Y260857D02*
G01*
X24618340Y260857D01*
X24634596Y255270D01*
X24645518Y244347D01*
X24651106Y233426D01*
X24656440Y217170D01*
X24656440Y189992D01*
X24651106Y173481D01*
X24645518Y162560D01*
X24634596Y151637D01*
X24618340Y146304D01*
X24579986Y146304D01*
X24852782Y244347D02*
G01*
X24841860Y255270D01*
X24825604Y260857D01*
X24803760Y260857D01*
X24787250Y255270D01*
X24776328Y244347D01*
X24776328Y233426D01*
X24781916Y222504D01*
X24787250Y217170D01*
X24798172Y211581D01*
X24830938Y200913D01*
X24841860Y195326D01*
X24847448Y189992D01*
X24852782Y179070D01*
X24852782Y162560D01*
X24841860Y151637D01*
X24825604Y146304D01*
X24803760Y146304D01*
X24787250Y151637D01*
X24776328Y162560D01*
X24888850Y260857D02*
G01*
X24888850Y146304D01*
X24888850Y260857D02*
G01*
X24937872Y260857D01*
X24954382Y255270D01*
X24959716Y249936D01*
X24965050Y239013D01*
X24965050Y222504D01*
X24959716Y211581D01*
X24954382Y206247D01*
X24937872Y200913D01*
X24888850Y200913D01*
X25044806Y260857D02*
G01*
X25001118Y146304D01*
X25044806Y260857D02*
G01*
X25088494Y146304D01*
X25017628Y184404D02*
G01*
X25071984Y184404D01*
X25206350Y233426D02*
G01*
X25200762Y244347D01*
X25189840Y255270D01*
X25178918Y260857D01*
X25157074Y260857D01*
X25146152Y255270D01*
X25135230Y244347D01*
X25129896Y233426D01*
X25124562Y217170D01*
X25124562Y189992D01*
X25129896Y173481D01*
X25135230Y162560D01*
X25146152Y151637D01*
X25157074Y146304D01*
X25178918Y146304D01*
X25189840Y151637D01*
X25200762Y162560D01*
X25206350Y173481D01*
X25242164Y260857D02*
G01*
X25242164Y146304D01*
X25242164Y260857D02*
G01*
X25313284Y260857D01*
X25242164Y206247D02*
G01*
X25285852Y206247D01*
X25242164Y146304D02*
G01*
X25313284Y146304D01*
X25349098Y260857D02*
G01*
X25349098Y146304D01*
X25349098Y260857D02*
G01*
X25398374Y260857D01*
X25414630Y255270D01*
X25419964Y249936D01*
X25425552Y239013D01*
X25425552Y228092D01*
X25419964Y217170D01*
X25414630Y211581D01*
X25398374Y206247D01*
X25349098Y206247D01*
X25387452Y206247D02*
G01*
X25425552Y146304D01*
X25461620Y195326D02*
G01*
X25559664Y195326D01*
X25717906Y260857D02*
G01*
X25717906Y146304D01*
X25679806Y260857D02*
G01*
X25756006Y260857D01*
X25824840Y260857D02*
G01*
X25813918Y255270D01*
X25802996Y244347D01*
X25797662Y233426D01*
X25792074Y217170D01*
X25792074Y189992D01*
X25797662Y173481D01*
X25802996Y162560D01*
X25813918Y151637D01*
X25824840Y146304D01*
X25846684Y146304D01*
X25857606Y151637D01*
X25868528Y162560D01*
X25873862Y173481D01*
X25879450Y189992D01*
X25879450Y217170D01*
X25873862Y233426D01*
X25868528Y244347D01*
X25857606Y255270D01*
X25846684Y260857D01*
X25824840Y260857D01*
X25915264Y260857D02*
G01*
X25915264Y146304D01*
X25915264Y260857D02*
G01*
X25964540Y260857D01*
X25980796Y255270D01*
X25986384Y249936D01*
X25991718Y239013D01*
X25991718Y222504D01*
X25986384Y211581D01*
X25980796Y206247D01*
X25964540Y200913D01*
X25915264Y200913D01*
D11*
X18628009Y13115317D02*
G01*
X21930009Y13115317D01*
X22184009Y12861317D01*
X22184009Y8543317D01*
X21930009Y8289317D01*
X18628009Y8289310D01*
X18374009Y8543310D01*
X18374009Y12861317D01*
X18628009Y13115317D01*
X3255218Y13115317D02*
G01*
X6557218Y13115317D01*
X6811218Y12861317D01*
X6811218Y8543317D01*
X6557218Y8289317D01*
X3255218Y8289310D01*
X3001218Y8543310D01*
X3001218Y12861317D01*
X3255218Y13115317D01*
X41686906Y4864100D02*
G01*
X44988906Y4864100D01*
X45242906Y4610100D01*
X45242906Y292100D01*
X44988906Y38100D01*
X41686906Y38100D01*
X41432906Y292100D01*
X41432906Y4610100D01*
X41686906Y4864100D01*
X3254908Y4864100D02*
G01*
X6556908Y4864100D01*
X6810908Y4610100D01*
X6810908Y292100D01*
X6556908Y38100D01*
X3254908Y38100D01*
X3000908Y292100D01*
X3000908Y4610100D01*
X3254908Y4864100D01*
X41687216Y13115317D02*
G01*
X44989216Y13115317D01*
X45243216Y12861317D01*
X45243216Y8543317D01*
X44989216Y8289317D01*
X41687216Y8289310D01*
X41433216Y8543310D01*
X41433216Y12861317D01*
X41687216Y13115317D01*
X37844016Y13115317D02*
G01*
X41146016Y13115317D01*
X41400016Y12861317D01*
X41400016Y8543317D01*
X41146016Y8289317D01*
X37844016Y8289310D01*
X37590016Y8543310D01*
X37590016Y12861317D01*
X37844016Y13115317D01*
X34000826Y13115317D02*
G01*
X37302826Y13115317D01*
X37556826Y12861317D01*
X37556826Y8543317D01*
X37302826Y8289317D01*
X34000826Y8289310D01*
X33746826Y8543310D01*
X33746826Y12861317D01*
X34000826Y13115317D01*
X30157625Y13115317D02*
G01*
X33459625Y13115317D01*
X33713625Y12861317D01*
X33713625Y8543317D01*
X33459625Y8289317D01*
X30157625Y8289310D01*
X29903625Y8543310D01*
X29903625Y12861317D01*
X30157625Y13115317D01*
X26314425Y13115317D02*
G01*
X29616425Y13115317D01*
X29870425Y12861317D01*
X29870425Y8543317D01*
X29616425Y8289317D01*
X26314425Y8289310D01*
X26060425Y8543310D01*
X26060425Y12861317D01*
X26314425Y13115317D01*
X22471225Y13115317D02*
G01*
X25773225Y13115317D01*
X26027225Y12861317D01*
X26027225Y8543317D01*
X25773225Y8289317D01*
X22471225Y8289310D01*
X22217225Y8543310D01*
X22217225Y12861317D01*
X22471225Y13115317D01*
X14784809Y13115317D02*
G01*
X18086809Y13115317D01*
X18340809Y12861317D01*
X18340809Y8543317D01*
X18086809Y8289317D01*
X14784809Y8289310D01*
X14530809Y8543310D01*
X14530809Y12861317D01*
X14784809Y13115317D01*
X10941608Y13115317D02*
G01*
X14243608Y13115317D01*
X14497608Y12861317D01*
X14497608Y8543317D01*
X14243608Y8289317D01*
X10941608Y8289310D01*
X10687608Y8543310D01*
X10687608Y12861317D01*
X10941608Y13115317D01*
X7098405Y13115317D02*
G01*
X10400405Y13115317D01*
X10654405Y12861317D01*
X10654405Y8543317D01*
X10400405Y8289317D01*
X7098405Y8289310D01*
X6844405Y8543310D01*
X6844405Y12861317D01*
X7098405Y13115317D01*
M02*
