G04 Layer: BoardOutlineLayer*
G04 EasyEDA v6.5.34, 2023-08-21 18:11:39*
G04 b0c215f11f5c46fba8be08c724f20454,5a6b42c53f6a479593ecc07194224c93,10*
G04 Gerber Generator version 0.2*
G04 Scale: 100 percent, Rotated: No, Reflected: No *
G04 Dimensions in millimeters *
G04 leading zeros omitted , absolute positions ,4 integer and 5 decimal *
%FSLAX45Y45*%
%MOMM*%

%ADD10C,0.2540*%
D10*
X0Y13296900D02*
G01*
X48260000Y13296900D01*
X48260000Y0D01*
X0Y-3070D01*
X0Y13296900D01*
G75*
G01*
X711200Y9486900D02*
G02*
X1361597Y9486900I325199J0D01*
G75*
G01*
X1361597Y9486900D02*
G02*
X711200Y9486900I-325198J0D01*
X711200Y9486900D02*
G01*
X711200Y9486900D01*
X579198Y9811893D02*
G01*
X579198Y9161881D01*
X579198Y9161881D02*
G01*
X1036398Y9161881D01*
X1036398Y9161881D02*
G01*
X1036398Y9811893D01*
X1036398Y9811893D02*
G01*
X579198Y9811893D01*
G75*
G01*
X254000Y9486900D02*
G02*
X904397Y9486900I325199J0D01*
G75*
G01*
X904397Y9486900D02*
G02*
X254000Y9486900I-325198J0D01*
X254000Y9486900D02*
G01*
X254000Y9486900D01*
G75*
G01*
X254000Y3810000D02*
G02*
X904397Y3810000I325199J0D01*
G75*
G01*
X904397Y3810000D02*
G02*
X254000Y3810000I-325198J0D01*
X254000Y3810000D02*
G01*
X254000Y3810000D01*
X579198Y4134993D02*
G01*
X579198Y3484981D01*
X579198Y3484981D02*
G01*
X1036398Y3484981D01*
X1036398Y3484981D02*
G01*
X1036398Y4134993D01*
X1036398Y4134993D02*
G01*
X579198Y4134993D01*
G75*
G01*
X711200Y3810000D02*
G02*
X1361597Y3810000I325199J0D01*
G75*
G01*
X1361597Y3810000D02*
G02*
X711200Y3810000I-325198J0D01*
X711200Y3810000D02*
G01*
X711200Y3810000D01*
G75*
G01*
X47365696Y3810000D02*
G02*
X48016094Y3810000I325199J0D01*
G75*
G01*
X48016094Y3810000D02*
G02*
X47365696Y3810000I-325199J0D01*
X47365696Y3810000D02*
G01*
X47365696Y3810000D01*
X47233695Y4134993D02*
G01*
X47233695Y3484981D01*
X47233695Y3484981D02*
G01*
X47690895Y3484981D01*
X47690895Y3484981D02*
G01*
X47690895Y4134993D01*
X47690895Y4134993D02*
G01*
X47233695Y4134993D01*
G75*
G01*
X46908496Y3810000D02*
G02*
X47558894Y3810000I325199J0D01*
G75*
G01*
X47558894Y3810000D02*
G02*
X46908496Y3810000I-325199J0D01*
X46908496Y3810000D02*
G01*
X46908496Y3810000D01*
G75*
G01*
X46908496Y9486900D02*
G02*
X47558894Y9486900I325199J0D01*
G75*
G01*
X47558894Y9486900D02*
G02*
X46908496Y9486900I-325199J0D01*
X46908496Y9486900D02*
G01*
X46908496Y9486900D01*
X47233695Y9811893D02*
G01*
X47233695Y9161881D01*
X47233695Y9161881D02*
G01*
X47690895Y9161881D01*
X47690895Y9161881D02*
G01*
X47690895Y9811893D01*
X47690895Y9811893D02*
G01*
X47233695Y9811893D01*
G75*
G01*
X47365696Y9486900D02*
G02*
X48016094Y9486900I325199J0D01*
G75*
G01*
X48016094Y9486900D02*
G02*
X47365696Y9486900I-325199J0D01*
X47365696Y9486900D02*
G01*
X47365696Y9486900D01*
X4292592Y12445974D02*
G01*
X4292592Y8889982D01*
X4292592Y8889982D02*
G01*
X11861777Y8889982D01*
X11861777Y8889982D02*
G01*
X11861777Y12445974D01*
X11861777Y12445974D02*
G01*
X4292592Y12445974D01*
X36398126Y4317989D02*
G01*
X36398126Y761997D01*
X36398126Y761997D02*
G01*
X43967311Y761997D01*
X43967311Y761997D02*
G01*
X43967311Y4317989D01*
X43967311Y4317989D02*
G01*
X36398126Y4317989D01*
X28371744Y4317992D02*
G01*
X28371744Y762000D01*
X28371744Y762000D02*
G01*
X35940928Y762000D01*
X35940928Y762000D02*
G01*
X35940928Y4317992D01*
X35940928Y4317992D02*
G01*
X28371744Y4317992D01*
X36398126Y8381982D02*
G01*
X36398126Y4825989D01*
X36398126Y4825989D02*
G01*
X43967311Y4825989D01*
X43967311Y4825989D02*
G01*
X43967311Y8381982D01*
X43967311Y8381982D02*
G01*
X36398126Y8381982D01*
X4292592Y4317992D02*
G01*
X4292592Y762000D01*
X4292592Y762000D02*
G01*
X11861774Y762000D01*
X11861774Y762000D02*
G01*
X11861774Y4317992D01*
X11861774Y4317992D02*
G01*
X4292592Y4317992D01*
X4292594Y8381982D02*
G01*
X4292594Y4825989D01*
X4292594Y4825989D02*
G01*
X11861794Y4825989D01*
X11861794Y4825989D02*
G01*
X11861794Y8381982D01*
X11861794Y8381982D02*
G01*
X4292594Y8381982D01*
X12318974Y12445974D02*
G01*
X12318974Y8889982D01*
X12318974Y8889982D02*
G01*
X19888159Y8889982D01*
X19888159Y8889982D02*
G01*
X19888159Y12445974D01*
X19888159Y12445974D02*
G01*
X12318974Y12445974D01*
X12318974Y8381982D02*
G01*
X12318974Y4825989D01*
X12318974Y4825989D02*
G01*
X19888159Y4825989D01*
X19888159Y4825989D02*
G01*
X19888159Y8381982D01*
X19888159Y8381982D02*
G01*
X12318974Y8381982D01*
X12318974Y4317992D02*
G01*
X12318974Y762000D01*
X12318974Y762000D02*
G01*
X19888161Y762000D01*
X19888161Y762000D02*
G01*
X19888161Y4317992D01*
X19888161Y4317992D02*
G01*
X12318974Y4317992D01*
X20345361Y12445977D02*
G01*
X20345361Y8889984D01*
X20345361Y8889984D02*
G01*
X27914546Y8889984D01*
X27914546Y8889984D02*
G01*
X27914546Y12445977D01*
X27914546Y12445977D02*
G01*
X20345361Y12445977D01*
X20345361Y8381984D02*
G01*
X20345361Y4825992D01*
X20345361Y4825992D02*
G01*
X27914546Y4825992D01*
X27914546Y4825992D02*
G01*
X27914546Y8381984D01*
X27914546Y8381984D02*
G01*
X20345361Y8381984D01*
X20345361Y4317989D02*
G01*
X20345361Y761997D01*
X20345361Y761997D02*
G01*
X27914546Y761997D01*
X27914546Y761997D02*
G01*
X27914546Y4317989D01*
X27914546Y4317989D02*
G01*
X20345361Y4317989D01*
X28371744Y12445974D02*
G01*
X28371744Y8889982D01*
X28371744Y8889982D02*
G01*
X35940928Y8889982D01*
X35940928Y8889982D02*
G01*
X35940928Y12445974D01*
X35940928Y12445974D02*
G01*
X28371744Y12445974D01*
X36398126Y12445977D02*
G01*
X36398126Y8889984D01*
X36398126Y8889984D02*
G01*
X43967311Y8889984D01*
X43967311Y8889984D02*
G01*
X43967311Y12445977D01*
X43967311Y12445977D02*
G01*
X36398126Y12445977D01*
X28371744Y8381982D02*
G01*
X28371744Y4825989D01*
X28371744Y4825989D02*
G01*
X35940928Y4825989D01*
X35940928Y4825989D02*
G01*
X35940928Y8381982D01*
X35940928Y8381982D02*
G01*
X28371744Y8381982D01*

%LPD*%
M02*
