G04 Layer: BottomSilkscreenLayer*
G04 EasyEDA v6.5.34, 2023-08-21 18:11:39*
G04 32b375108a2c43bb8d569144ed7c1066,5a6b42c53f6a479593ecc07194224c93,10*
G04 Gerber Generator version 0.2*
G04 Scale: 100 percent, Rotated: No, Reflected: No *
G04 Dimensions in millimeters *
G04 leading zeros omitted , absolute positions ,4 integer and 5 decimal *
%FSLAX45Y45*%
%MOMM*%

%ADD10C,0.2032*%
%ADD11C,0.1520*%
%ADD12C,0.2540*%

%LPD*%
D10*
X40872295Y197289D02*
G01*
X40872295Y82745D01*
X40872295Y197289D02*
G01*
X40823205Y197289D01*
X40806842Y191836D01*
X40801386Y186382D01*
X40795933Y175473D01*
X40795933Y159108D01*
X40801386Y148198D01*
X40806842Y142745D01*
X40823205Y137289D01*
X40872295Y137289D01*
X40716296Y197289D02*
G01*
X40759931Y82745D01*
X40716296Y197289D02*
G01*
X40672659Y82745D01*
X40743568Y120926D02*
G01*
X40689024Y120926D01*
X40636659Y197289D02*
G01*
X40636659Y82745D01*
X40636659Y197289D02*
G01*
X40587569Y197289D01*
X40571206Y191836D01*
X40565750Y186382D01*
X40560297Y175473D01*
X40560297Y164564D01*
X40565750Y153654D01*
X40571206Y148198D01*
X40587569Y142745D01*
X40636659Y142745D01*
X40598478Y142745D02*
G01*
X40560297Y82745D01*
X40486114Y197289D02*
G01*
X40486114Y82745D01*
X40524295Y197289D02*
G01*
X40447932Y197289D01*
X40327933Y197289D02*
G01*
X40327933Y82745D01*
X40327933Y197289D02*
G01*
X40251570Y82745D01*
X40251570Y197289D02*
G01*
X40251570Y82745D01*
X40215568Y197289D02*
G01*
X40215568Y115473D01*
X40210115Y99108D01*
X40199205Y88198D01*
X40182843Y82745D01*
X40171933Y82745D01*
X40155568Y88198D01*
X40144661Y99108D01*
X40139205Y115473D01*
X40139205Y197289D01*
X40103206Y197289D02*
G01*
X40103206Y82745D01*
X40103206Y197289D02*
G01*
X40059569Y82745D01*
X40015934Y197289D02*
G01*
X40059569Y82745D01*
X40015934Y197289D02*
G01*
X40015934Y82745D01*
X39979932Y197289D02*
G01*
X39979932Y82745D01*
X39979932Y197289D02*
G01*
X39930842Y197289D01*
X39914479Y191836D01*
X39909026Y186382D01*
X39903570Y175473D01*
X39903570Y164564D01*
X39909026Y153654D01*
X39914479Y148198D01*
X39930842Y142745D01*
X39979932Y142745D02*
G01*
X39930842Y142745D01*
X39914479Y137289D01*
X39909026Y131836D01*
X39903570Y120926D01*
X39903570Y104564D01*
X39909026Y93654D01*
X39914479Y88198D01*
X39930842Y82745D01*
X39979932Y82745D01*
X39867570Y197289D02*
G01*
X39867570Y82745D01*
X39867570Y197289D02*
G01*
X39796661Y197289D01*
X39867570Y142745D02*
G01*
X39823933Y142745D01*
X39867570Y82745D02*
G01*
X39796661Y82745D01*
X39760662Y197289D02*
G01*
X39760662Y82745D01*
X39760662Y197289D02*
G01*
X39711571Y197289D01*
X39695206Y191836D01*
X39689752Y186382D01*
X39684297Y175473D01*
X39684297Y164564D01*
X39689752Y153654D01*
X39695206Y148198D01*
X39711571Y142745D01*
X39760662Y142745D01*
X39722480Y142745D02*
G01*
X39684297Y82745D01*
X39564297Y175473D02*
G01*
X39553388Y180926D01*
X39537025Y197289D01*
X39537025Y82745D01*
X39473753Y197289D02*
G01*
X39490116Y191836D01*
X39495569Y180926D01*
X39495569Y170017D01*
X39490116Y159108D01*
X39479207Y153654D01*
X39457388Y148198D01*
X39441026Y142745D01*
X39430116Y131836D01*
X39424663Y120926D01*
X39424663Y104564D01*
X39430116Y93654D01*
X39435570Y88198D01*
X39451935Y82745D01*
X39473753Y82745D01*
X39490116Y88198D01*
X39495569Y93654D01*
X39501025Y104564D01*
X39501025Y120926D01*
X39495569Y131836D01*
X39484663Y142745D01*
X39468298Y148198D01*
X39446479Y153654D01*
X39435570Y159108D01*
X39430116Y170017D01*
X39430116Y180926D01*
X39435570Y191836D01*
X39451935Y197289D01*
X39473753Y197289D01*
X39323208Y197289D02*
G01*
X39377752Y197289D01*
X39383208Y148198D01*
X39377752Y153654D01*
X39361389Y159108D01*
X39345026Y159108D01*
X39328661Y153654D01*
X39317752Y142745D01*
X39312298Y126382D01*
X39312298Y115473D01*
X39317752Y99108D01*
X39328661Y88198D01*
X39345026Y82745D01*
X39361389Y82745D01*
X39377752Y88198D01*
X39383208Y93654D01*
X39388661Y104564D01*
X39243571Y197289D02*
G01*
X39259934Y191836D01*
X39270843Y175473D01*
X39276299Y148198D01*
X39276299Y131836D01*
X39270843Y104564D01*
X39259934Y88198D01*
X39243571Y82745D01*
X39232662Y82745D01*
X39216299Y88198D01*
X39205390Y104564D01*
X39199934Y131836D01*
X39199934Y148198D01*
X39205390Y175473D01*
X39216299Y191836D01*
X39232662Y197289D01*
X39243571Y197289D01*
X39163934Y131836D02*
G01*
X39065753Y131836D01*
X38997026Y197289D02*
G01*
X39013389Y191836D01*
X39024298Y175473D01*
X39029754Y148198D01*
X39029754Y131836D01*
X39024298Y104564D01*
X39013389Y88198D01*
X38997026Y82745D01*
X38986117Y82745D01*
X38969754Y88198D01*
X38958845Y104564D01*
X38953389Y131836D01*
X38953389Y148198D01*
X38958845Y175473D01*
X38969754Y191836D01*
X38986117Y197289D01*
X38997026Y197289D01*
X38917389Y175473D02*
G01*
X38906480Y180926D01*
X38890117Y197289D01*
X38890117Y82745D01*
X38821390Y197289D02*
G01*
X38837753Y191836D01*
X38848662Y175473D01*
X38854118Y148198D01*
X38854118Y131836D01*
X38848662Y104564D01*
X38837753Y88198D01*
X38821390Y82745D01*
X38810481Y82745D01*
X38794118Y88198D01*
X38783209Y104564D01*
X38777753Y131836D01*
X38777753Y148198D01*
X38783209Y175473D01*
X38794118Y191836D01*
X38810481Y197289D01*
X38821390Y197289D01*
X38741753Y175473D02*
G01*
X38730844Y180926D01*
X38714481Y197289D01*
X38714481Y82745D01*
X40872295Y400489D02*
G01*
X40872295Y285945D01*
X40872295Y400489D02*
G01*
X40823205Y400489D01*
X40806842Y395036D01*
X40801386Y389582D01*
X40795933Y378673D01*
X40795933Y367764D01*
X40801386Y356854D01*
X40806842Y351398D01*
X40823205Y345945D01*
X40872295Y345945D02*
G01*
X40823205Y345945D01*
X40806842Y340489D01*
X40801386Y335036D01*
X40795933Y324126D01*
X40795933Y307764D01*
X40801386Y296854D01*
X40806842Y291398D01*
X40823205Y285945D01*
X40872295Y285945D01*
X40759933Y400489D02*
G01*
X40759933Y285945D01*
X40759933Y400489D02*
G01*
X40710840Y400489D01*
X40694477Y395036D01*
X40689024Y389582D01*
X40683568Y378673D01*
X40683568Y367764D01*
X40689024Y356854D01*
X40694477Y351398D01*
X40710840Y345945D01*
X40759933Y345945D01*
X40721749Y345945D02*
G01*
X40683568Y285945D01*
X40647569Y400489D02*
G01*
X40647569Y285945D01*
X40647569Y400489D02*
G01*
X40576660Y400489D01*
X40647569Y345945D02*
G01*
X40603932Y345945D01*
X40647569Y285945D02*
G01*
X40576660Y285945D01*
X40497023Y400489D02*
G01*
X40540660Y285945D01*
X40497023Y400489D02*
G01*
X40453388Y285945D01*
X40524295Y324126D02*
G01*
X40469751Y324126D01*
X40417386Y400489D02*
G01*
X40417386Y285945D01*
X40341024Y400489D02*
G01*
X40417386Y324126D01*
X40390114Y351398D02*
G01*
X40341024Y285945D01*
X40305024Y400489D02*
G01*
X40305024Y285945D01*
X40305024Y400489D02*
G01*
X40234115Y400489D01*
X40305024Y345945D02*
G01*
X40261387Y345945D01*
X40305024Y285945D02*
G01*
X40234115Y285945D01*
X40198116Y400489D02*
G01*
X40198116Y285945D01*
X40198116Y400489D02*
G01*
X40149025Y400489D01*
X40132660Y395036D01*
X40127207Y389582D01*
X40121751Y378673D01*
X40121751Y367764D01*
X40127207Y356854D01*
X40132660Y351398D01*
X40149025Y345945D01*
X40198116Y345945D01*
X40159934Y345945D02*
G01*
X40121751Y285945D01*
X39958116Y400489D02*
G01*
X40001751Y285945D01*
X39958116Y400489D02*
G01*
X39914479Y285945D01*
X39985388Y324126D02*
G01*
X39930842Y324126D01*
X39878480Y400489D02*
G01*
X39878480Y285945D01*
X39878480Y400489D02*
G01*
X39802114Y285945D01*
X39802114Y400489D02*
G01*
X39802114Y285945D01*
X39766115Y400489D02*
G01*
X39766115Y285945D01*
X39766115Y400489D02*
G01*
X39727934Y400489D01*
X39711571Y395036D01*
X39700662Y384126D01*
X39695206Y373217D01*
X39689752Y356854D01*
X39689752Y329582D01*
X39695206Y313217D01*
X39700662Y302308D01*
X39711571Y291398D01*
X39727934Y285945D01*
X39766115Y285945D01*
X39526116Y400489D02*
G01*
X39569753Y285945D01*
X39526116Y400489D02*
G01*
X39482481Y285945D01*
X39553390Y324126D02*
G01*
X39498844Y324126D01*
X39362481Y400489D02*
G01*
X39362481Y285945D01*
X39286116Y400489D02*
G01*
X39286116Y285945D01*
X39362481Y345945D02*
G01*
X39286116Y345945D01*
X39206479Y400489D02*
G01*
X39250117Y285945D01*
X39206479Y400489D02*
G01*
X39162845Y285945D01*
X39233754Y324126D02*
G01*
X39179207Y324126D01*
X39126845Y400489D02*
G01*
X39126845Y285945D01*
X39126845Y285945D02*
G01*
X39061390Y285945D01*
X39025390Y400489D02*
G01*
X39025390Y285945D01*
X39025390Y400489D02*
G01*
X38954481Y400489D01*
X39025390Y345945D02*
G01*
X38981753Y345945D01*
X38834481Y400489D02*
G01*
X38834481Y285945D01*
X38834481Y400489D02*
G01*
X38763572Y400489D01*
X38834481Y345945D02*
G01*
X38790844Y345945D01*
X38727573Y400489D02*
G01*
X38727573Y285945D01*
X38727573Y400489D02*
G01*
X38678482Y400489D01*
X38662117Y395036D01*
X38656663Y389582D01*
X38651210Y378673D01*
X38651210Y367764D01*
X38656663Y356854D01*
X38662117Y351398D01*
X38678482Y345945D01*
X38727573Y345945D01*
X38689391Y345945D02*
G01*
X38651210Y285945D01*
X38582483Y400489D02*
G01*
X38593392Y395036D01*
X38604299Y384126D01*
X38609755Y373217D01*
X38615208Y356854D01*
X38615208Y329582D01*
X38609755Y313217D01*
X38604299Y302308D01*
X38593392Y291398D01*
X38582483Y285945D01*
X38560664Y285945D01*
X38549755Y291398D01*
X38538845Y302308D01*
X38533392Y313217D01*
X38527936Y329582D01*
X38527936Y356854D01*
X38533392Y373217D01*
X38538845Y384126D01*
X38549755Y395036D01*
X38560664Y400489D01*
X38582483Y400489D01*
X38491937Y400489D02*
G01*
X38491937Y285945D01*
X38491937Y400489D02*
G01*
X38415574Y285945D01*
X38415574Y400489D02*
G01*
X38415574Y285945D01*
X38341391Y400489D02*
G01*
X38341391Y285945D01*
X38379572Y400489D02*
G01*
X38303210Y400489D01*
X38183210Y400489D02*
G01*
X38183210Y285945D01*
X38183210Y400489D02*
G01*
X38134119Y400489D01*
X38117757Y395036D01*
X38112301Y389582D01*
X38106847Y378673D01*
X38106847Y362308D01*
X38112301Y351398D01*
X38117757Y345945D01*
X38134119Y340489D01*
X38183210Y340489D01*
X38027211Y400489D02*
G01*
X38070845Y285945D01*
X38027211Y400489D02*
G01*
X37983574Y285945D01*
X38054483Y324126D02*
G01*
X37999939Y324126D01*
X37947574Y400489D02*
G01*
X37947574Y285945D01*
X37947574Y400489D02*
G01*
X37871212Y285945D01*
X37871212Y400489D02*
G01*
X37871212Y285945D01*
X37835210Y400489D02*
G01*
X37835210Y285945D01*
X37835210Y400489D02*
G01*
X37764300Y400489D01*
X37835210Y345945D02*
G01*
X37791575Y345945D01*
X37835210Y285945D02*
G01*
X37764300Y285945D01*
X37728301Y400489D02*
G01*
X37728301Y285945D01*
X37728301Y285945D02*
G01*
X37662848Y285945D01*
X37542848Y400489D02*
G01*
X37499211Y285945D01*
X37455576Y400489D02*
G01*
X37499211Y285945D01*
X37386849Y400489D02*
G01*
X37403211Y395036D01*
X37414121Y378673D01*
X37419574Y351398D01*
X37419574Y335036D01*
X37414121Y307764D01*
X37403211Y291398D01*
X37386849Y285945D01*
X37375939Y285945D01*
X37359574Y291398D01*
X37348665Y307764D01*
X37343212Y335036D01*
X37343212Y351398D01*
X37348665Y378673D01*
X37359574Y395036D01*
X37375939Y400489D01*
X37386849Y400489D01*
X37301756Y313217D02*
G01*
X37307212Y307764D01*
X37301756Y302308D01*
X37296303Y307764D01*
X37301756Y313217D01*
X37249394Y400489D02*
G01*
X37189394Y400489D01*
X37222120Y356854D01*
X37205757Y356854D01*
X37194848Y351398D01*
X37189394Y345945D01*
X37183938Y329582D01*
X37183938Y318673D01*
X37189394Y302308D01*
X37200304Y291398D01*
X37216666Y285945D01*
X37233029Y285945D01*
X37249394Y291398D01*
X37254848Y296854D01*
X37260303Y307764D01*
D11*
X47974143Y191551D02*
G01*
X47974143Y108424D01*
X47979340Y92837D01*
X47984534Y87642D01*
X47994925Y82448D01*
X48005316Y82448D01*
X48015707Y87642D01*
X48020904Y92837D01*
X48026099Y108424D01*
X48026099Y118816D01*
X47939853Y191551D02*
G01*
X47939853Y82448D01*
X47939853Y82448D02*
G01*
X47877509Y82448D01*
X47765286Y165574D02*
G01*
X47770483Y175966D01*
X47780874Y186357D01*
X47791263Y191551D01*
X47812045Y191551D01*
X47822436Y186357D01*
X47832827Y175966D01*
X47838024Y165574D01*
X47843219Y149987D01*
X47843219Y124010D01*
X47838024Y108424D01*
X47832827Y98033D01*
X47822436Y87642D01*
X47812045Y82448D01*
X47791263Y82448D01*
X47780874Y87642D01*
X47770483Y98033D01*
X47765286Y108424D01*
X47679043Y191551D02*
G01*
X47679043Y108424D01*
X47684237Y92837D01*
X47689434Y87642D01*
X47699823Y82448D01*
X47710214Y82448D01*
X47720605Y87642D01*
X47725802Y92837D01*
X47730996Y108424D01*
X47730996Y118816D01*
X47644753Y191551D02*
G01*
X47644753Y82448D01*
X47644753Y82448D02*
G01*
X47582406Y82448D01*
X47470184Y165574D02*
G01*
X47475381Y175966D01*
X47485772Y186357D01*
X47496163Y191551D01*
X47516943Y191551D01*
X47527334Y186357D01*
X47537725Y175966D01*
X47542922Y165574D01*
X47548116Y149987D01*
X47548116Y124010D01*
X47542922Y108424D01*
X47537725Y98033D01*
X47527334Y87642D01*
X47516943Y82448D01*
X47496163Y82448D01*
X47485772Y87642D01*
X47475381Y98033D01*
X47470184Y108424D01*
X47383941Y191551D02*
G01*
X47383941Y108424D01*
X47389135Y92837D01*
X47394332Y87642D01*
X47404723Y82448D01*
X47415114Y82448D01*
X47425503Y87642D01*
X47430700Y92837D01*
X47435894Y108424D01*
X47435894Y118816D01*
X47349651Y191551D02*
G01*
X47349651Y82448D01*
X47349651Y82448D02*
G01*
X47287304Y82448D01*
X47175084Y165574D02*
G01*
X47180279Y175966D01*
X47190670Y186357D01*
X47201061Y191551D01*
X47221843Y191551D01*
X47232234Y186357D01*
X47242623Y175966D01*
X47247820Y165574D01*
X47253014Y149987D01*
X47253014Y124010D01*
X47247820Y108424D01*
X47242623Y98033D01*
X47232234Y87642D01*
X47221843Y82448D01*
X47201061Y82448D01*
X47190670Y87642D01*
X47180279Y98033D01*
X47175084Y108424D01*
X47088839Y191551D02*
G01*
X47088839Y108424D01*
X47094033Y92837D01*
X47099230Y87642D01*
X47109621Y82448D01*
X47120012Y82448D01*
X47130403Y87642D01*
X47135597Y92837D01*
X47140794Y108424D01*
X47140794Y118816D01*
X47054549Y191551D02*
G01*
X47054549Y82448D01*
X47054549Y82448D02*
G01*
X46992204Y82448D01*
X46879982Y165574D02*
G01*
X46885176Y175966D01*
X46895567Y186357D01*
X46905959Y191551D01*
X46926741Y191551D01*
X46937132Y186357D01*
X46947523Y175966D01*
X46952717Y165574D01*
X46957914Y149987D01*
X46957914Y124010D01*
X46952717Y108424D01*
X46947523Y98033D01*
X46937132Y87642D01*
X46926741Y82448D01*
X46905959Y82448D01*
X46895567Y87642D01*
X46885176Y98033D01*
X46879982Y108424D01*
D12*
X3254895Y4864100D02*
G01*
X6556895Y4864100D01*
X6810895Y4610100D01*
X6810895Y292100D01*
X6556895Y38100D01*
X3254895Y38100D01*
X3000895Y292100D01*
X3000895Y4610100D01*
X3254895Y4864100D01*
X41686894Y4864100D02*
G01*
X44988894Y4864100D01*
X45242894Y4610100D01*
X45242894Y292100D01*
X44988894Y38100D01*
X41686894Y38100D01*
X41432894Y292100D01*
X41432894Y4610100D01*
X41686894Y4864100D01*
X41687191Y13115317D02*
G01*
X44989191Y13115317D01*
X45243191Y12861317D01*
X45243191Y8543317D01*
X44989191Y8289317D01*
X41687191Y8289317D01*
X41433191Y8543317D01*
X41433191Y12861317D01*
X41687191Y13115317D01*
X37844003Y13115317D02*
G01*
X41146003Y13115317D01*
X41400003Y12861317D01*
X41400003Y8543317D01*
X41146003Y8289317D01*
X37844003Y8289317D01*
X37590003Y8543317D01*
X37590003Y12861317D01*
X37844003Y13115317D01*
X34000803Y13115317D02*
G01*
X37302803Y13115317D01*
X37556803Y12861317D01*
X37556803Y8543317D01*
X37302803Y8289317D01*
X34000803Y8289317D01*
X33746803Y8543317D01*
X33746803Y12861317D01*
X34000803Y13115317D01*
X30157600Y13115317D02*
G01*
X33459600Y13115317D01*
X33713600Y12861317D01*
X33713600Y8543317D01*
X33459600Y8289317D01*
X30157600Y8289317D01*
X29903600Y8543317D01*
X29903600Y12861317D01*
X30157600Y13115317D01*
X26314400Y13115317D02*
G01*
X29616400Y13115317D01*
X29870400Y12861317D01*
X29870400Y8543317D01*
X29616400Y8289317D01*
X26314400Y8289317D01*
X26060400Y8543317D01*
X26060400Y12861317D01*
X26314400Y13115317D01*
X22471199Y13115317D02*
G01*
X25773199Y13115317D01*
X26027199Y12861317D01*
X26027199Y8543317D01*
X25773199Y8289317D01*
X22471199Y8289317D01*
X22217199Y8543317D01*
X22217199Y12861317D01*
X22471199Y13115317D01*
X18627996Y13115317D02*
G01*
X21929996Y13115317D01*
X22183996Y12861317D01*
X22183996Y8543317D01*
X21929996Y8289317D01*
X18627996Y8289317D01*
X18373996Y8543317D01*
X18373996Y12861317D01*
X18627996Y13115317D01*
X14784796Y13115317D02*
G01*
X18086796Y13115317D01*
X18340796Y12861317D01*
X18340796Y8543317D01*
X18086796Y8289317D01*
X14784796Y8289317D01*
X14530796Y8543317D01*
X14530796Y12861317D01*
X14784796Y13115317D01*
X10941596Y13115317D02*
G01*
X14243596Y13115317D01*
X14497596Y12861317D01*
X14497596Y8543317D01*
X14243596Y8289317D01*
X10941596Y8289317D01*
X10687596Y8543317D01*
X10687596Y12861317D01*
X10941596Y13115317D01*
X7098393Y13115317D02*
G01*
X10400393Y13115317D01*
X10654393Y12861317D01*
X10654393Y8543317D01*
X10400393Y8289317D01*
X7098393Y8289317D01*
X6844393Y8543317D01*
X6844393Y12861317D01*
X7098393Y13115317D01*
X3255192Y13115317D02*
G01*
X6557192Y13115317D01*
X6811192Y12861317D01*
X6811192Y8543317D01*
X6557192Y8289317D01*
X3255192Y8289317D01*
X3001192Y8543317D01*
X3001192Y12861317D01*
X3255192Y13115317D01*
X3306013Y13102615D02*
G01*
X6506006Y13102615D01*
X6506006Y8702624D01*
X3306013Y8702624D01*
X3306013Y13102615D01*
X7149211Y13102615D02*
G01*
X10349204Y13102615D01*
X10349204Y8702624D01*
X7149211Y8702624D01*
X7149211Y13102615D01*
X10992408Y13102615D02*
G01*
X14192402Y13102615D01*
X14192402Y8702624D01*
X10992408Y8702624D01*
X10992408Y13102615D01*
X14835606Y13102615D02*
G01*
X18035600Y13102615D01*
X18035600Y8702624D01*
X14835606Y8702624D01*
X14835606Y13102615D01*
X18678804Y13102615D02*
G01*
X21878798Y13102615D01*
X21878798Y8702624D01*
X18678804Y8702624D01*
X18678804Y13102615D01*
X22522027Y13102615D02*
G01*
X25722021Y13102615D01*
X25722021Y8702624D01*
X22522027Y8702624D01*
X22522027Y13102615D01*
X26365225Y13102615D02*
G01*
X29565219Y13102615D01*
X29565219Y8702624D01*
X26365225Y8702624D01*
X26365225Y13102615D01*
X30208423Y13102615D02*
G01*
X33408416Y13102615D01*
X33408416Y8702624D01*
X30208423Y8702624D01*
X30208423Y13102615D01*
X34051621Y13102615D02*
G01*
X37251614Y13102615D01*
X37251614Y8702624D01*
X34051621Y8702624D01*
X34051621Y13102615D01*
X37894818Y13102615D02*
G01*
X41094812Y13102615D01*
X41094812Y8702624D01*
X37894818Y8702624D01*
X37894818Y13102615D01*
X41738016Y13102615D02*
G01*
X44938010Y13102615D01*
X44938010Y8702624D01*
X41738016Y8702624D01*
X41738016Y13102615D01*
X0Y13299973D02*
G01*
X1799996Y13299973D01*
X1799996Y0D01*
X0Y0D01*
X0Y13299973D01*
X46463991Y13296900D02*
G01*
X48263987Y13296900D01*
X48263987Y-3073D01*
X46463991Y-3073D01*
X46463991Y13296900D01*
X3305683Y4851400D02*
G01*
X6505676Y4851400D01*
X6505676Y451408D01*
X3305683Y451408D01*
X3305683Y4851400D01*
X41737711Y4851400D02*
G01*
X44937705Y4851400D01*
X44937705Y451408D01*
X41737711Y451408D01*
X41737711Y4851400D01*
M02*
