M48
METRIC,LZ,000.000
;FILE_FORMAT=3:3
;TYPE=PLATED
;Layer: PTH_Through
;EasyEDA v6.5.34, 2023-08-27 23:32:40
;d061e9a780f541beb3afb4a1d4dccede,5a6b42c53f6a479593ecc07194224c93,10
;Gerber Generator version 0.2
;Holesize 1 = 0.305 mm
T01C0.305
;Holesize 2 = 1.000 mm
T02C1.000
%
G05
G90
T01
X030734Y077343
X061341Y059055
X439674Y068072
X423037Y068072
X413258Y060960
X439674Y060960
X055880Y058420
X027940Y058420
X027940Y072364
X041614Y075184
X051139Y075184
X057150Y074194
X030734Y054483
X041614Y052324
X051139Y052324
X055880Y051333
X057150Y053823
X064220Y075184
X064220Y065913
X105664Y074168
X102320Y065913
X102320Y075184
X067564Y053823
X075311Y059055
X078190Y065913
X080899Y081051
X078190Y075184
X076708Y081026
X080899Y053823
X115189Y081026
X116671Y075184
X119380Y081051
X116671Y065913
X113792Y059055
X086487Y060071
X092964Y060071
X089366Y067056
X089366Y076200
X095843Y076200
X095843Y067056
X092075Y075209
X098552Y075209
X099441Y059055
X092075Y054838
X127889Y059055
X130768Y075184
X130768Y065913
X134112Y074168
X098552Y053822
X137118Y076200
X143722Y076200
X137118Y067056
X143722Y067056
X140843Y060071
X155152Y065913
X157861Y081051
X155152Y075184
X153670Y081026
X193584Y065913
X196293Y081051
X193584Y075184
X192151Y081026
X182528Y074168
X152273Y059055
X176403Y059055
X214737Y059055
X213848Y075209
X207371Y075209
X211139Y067056
X211139Y076200
X204662Y076200
X204662Y067056
X208260Y060071
X201783Y060071
X217616Y075184
X217616Y065913
X220960Y074168
X232016Y075184
X234725Y081051
X232016Y065913
X270448Y075184
X273157Y081051
X270448Y065913
X249408Y074168
X246064Y065913
X246064Y075184
X243185Y059055
X256139Y060071
X259018Y067056
X252414Y067056
X259018Y076200
X252414Y076200
X281911Y059055
X288036Y074168
X179282Y065913
X179282Y075184
X284790Y065913
X284790Y075184
X268859Y081026
X230505Y081026
X190705Y059055
X229137Y059055
X267569Y059055
X306001Y059055
X308880Y075184
X311589Y081051
X308880Y065913
X336256Y074168
X332912Y065913
X332912Y075184
X317079Y060071
X323556Y060071
X319958Y067056
X319958Y076200
X326435Y076200
X326435Y067056
X322667Y075209
X329144Y075209
X330033Y059055
X347312Y065913
X350021Y081051
X347312Y075184
X344433Y059055
X361360Y075184
X361360Y065913
X364704Y074168
X367710Y076200
X374314Y076200
X367710Y067056
X374314Y067056
X371435Y060071
X307340Y081026
X345821Y081026
X382865Y059055
X385744Y075184
X388453Y081051
X385744Y065913
X384175Y081026
X400086Y075184
X400086Y065913
X397207Y059055
X403332Y074168
X435459Y052324
X425934Y052324
X415054Y054483
X435459Y075184
X425934Y075184
X415054Y077343
X439674Y074194
X413258Y072364
X439674Y051333
X403332Y049504
X388453Y053822
X377277Y053822
X358481Y059055
X377277Y075210
X370546Y054838
X370546Y075210
X364704Y054838
X350021Y053822
X336256Y053822
X329144Y053822
X322667Y054838
X311589Y054838
X288036Y053822
X273157Y053822
X261981Y075210
X255250Y054838
X255250Y075210
X249408Y054838
X234725Y053822
X220960Y053822
X213848Y053822
X207371Y054838
X196293Y054838
X182528Y053822
X157861Y053822
X146685Y053822
X146686Y075210
X139954Y054838
X139955Y075210
X134112Y054838
X119380Y053822
X105664Y053823
X261981Y053822
X067564Y074194
X133477Y060071
X248773Y060071
X364069Y060071
T02
X417957Y064643
X420497Y064643
X423037Y064643
X425577Y064643
X428117Y064643
X430657Y064643
M30
