G04 Layer: BottomLayer*
G04 EasyEDA v6.5.34, 2023-08-27 23:32:40*
G04 d061e9a780f541beb3afb4a1d4dccede,5a6b42c53f6a479593ecc07194224c93,10*
G04 Gerber Generator version 0.2*
G04 Scale: 100 percent, Rotated: No, Reflected: No *
G04 Dimensions in millimeters *
G04 leading zeros omitted , absolute positions ,4 integer and 5 decimal *
%FSLAX45Y45*%
%MOMM*%

%AMMACRO1*21,1,$1,$2,0,0,$3*%
%ADD10C,0.2540*%
%ADD11MACRO1,1.7X1.7X0.0000*%
%ADD12C,1.7000*%
%ADD13C,0.6096*%

%LPD*%
G36*
X6132068Y64008D02*
G01*
X6128156Y64769D01*
X6124905Y67005D01*
X6122670Y70256D01*
X6121908Y74168D01*
X6121908Y4888890D01*
X6121095Y4895392D01*
X6119012Y4900930D01*
X6115456Y4906060D01*
X6112459Y4909108D01*
X6108852Y4911750D01*
X6103315Y4914239D01*
X6095847Y4915408D01*
X2156968Y4915408D01*
X2153056Y4916170D01*
X2149805Y4918405D01*
X2147570Y4921656D01*
X2146808Y4925568D01*
X2146808Y8168131D01*
X2147570Y8172043D01*
X2149805Y8175294D01*
X2153056Y8177530D01*
X2156968Y8178292D01*
X8068868Y8178292D01*
X8072932Y8177428D01*
X8076285Y8175040D01*
X8078419Y8171484D01*
X8078978Y8167370D01*
X8077809Y8163407D01*
X8075168Y8160207D01*
X8061706Y8153958D01*
X8053679Y8148320D01*
X8046720Y8141360D01*
X8041081Y8133334D01*
X8036966Y8124393D01*
X8034426Y8114944D01*
X8033562Y8105140D01*
X8034426Y8095335D01*
X8036966Y8085886D01*
X8041081Y8076946D01*
X8046720Y8068919D01*
X8048294Y8067344D01*
X8050530Y8064042D01*
X8051292Y8060131D01*
X8051292Y5427268D01*
X8050530Y5423357D01*
X8048294Y5420055D01*
X8046720Y5418480D01*
X8041081Y5410454D01*
X8036966Y5401513D01*
X8034426Y5392064D01*
X8033562Y5382260D01*
X8034426Y5372455D01*
X8036966Y5363006D01*
X8041081Y5354066D01*
X8046720Y5346039D01*
X8053679Y5339080D01*
X8061706Y5333441D01*
X8070646Y5329326D01*
X8080095Y5326786D01*
X8089900Y5325922D01*
X8099704Y5326786D01*
X8109153Y5329326D01*
X8118094Y5333441D01*
X8126120Y5339080D01*
X8133080Y5346039D01*
X8138718Y5354066D01*
X8142833Y5363006D01*
X8145373Y5372455D01*
X8146237Y5382260D01*
X8145373Y5392064D01*
X8142833Y5401513D01*
X8138718Y5410454D01*
X8133080Y5418480D01*
X8131505Y5420055D01*
X8129270Y5423357D01*
X8128508Y5427268D01*
X8128508Y8060131D01*
X8129270Y8064042D01*
X8131505Y8067344D01*
X8133080Y8068919D01*
X8138718Y8076946D01*
X8142833Y8085886D01*
X8145373Y8095335D01*
X8146237Y8105140D01*
X8145373Y8114944D01*
X8142833Y8124393D01*
X8138718Y8133334D01*
X8133080Y8141360D01*
X8126120Y8148320D01*
X8118094Y8153958D01*
X8104631Y8160207D01*
X8101990Y8163407D01*
X8100822Y8167370D01*
X8101380Y8171484D01*
X8103514Y8175040D01*
X8106867Y8177428D01*
X8110931Y8178292D01*
X11916968Y8178292D01*
X11921032Y8177428D01*
X11924385Y8175040D01*
X11926519Y8171484D01*
X11927078Y8167370D01*
X11925909Y8163407D01*
X11923268Y8160207D01*
X11909806Y8153958D01*
X11901779Y8148320D01*
X11894820Y8141360D01*
X11889181Y8133334D01*
X11885066Y8124393D01*
X11882526Y8114944D01*
X11881662Y8105140D01*
X11882526Y8095335D01*
X11885066Y8085886D01*
X11889181Y8076946D01*
X11894820Y8068919D01*
X11896394Y8067344D01*
X11898630Y8064042D01*
X11899392Y8060131D01*
X11899392Y5427167D01*
X11898630Y5423306D01*
X11896394Y5420004D01*
X11894820Y5418429D01*
X11889181Y5410352D01*
X11885066Y5401462D01*
X11882526Y5391962D01*
X11881662Y5382158D01*
X11882526Y5372404D01*
X11885066Y5362905D01*
X11889181Y5354015D01*
X11894820Y5345938D01*
X11901779Y5339029D01*
X11909806Y5333390D01*
X11918746Y5329224D01*
X11928195Y5326684D01*
X11938000Y5325821D01*
X11947804Y5326684D01*
X11957253Y5329224D01*
X11966194Y5333390D01*
X11974220Y5339029D01*
X11981180Y5345938D01*
X11986818Y5354015D01*
X11990933Y5362905D01*
X11993473Y5372404D01*
X11994337Y5382158D01*
X11993473Y5391962D01*
X11990933Y5401462D01*
X11986818Y5410352D01*
X11981180Y5418429D01*
X11979605Y5420004D01*
X11977370Y5423306D01*
X11976608Y5427167D01*
X11976608Y8060131D01*
X11977370Y8064042D01*
X11979605Y8067344D01*
X11981180Y8068919D01*
X11986818Y8076946D01*
X11990933Y8085886D01*
X11993473Y8095335D01*
X11994337Y8105140D01*
X11993473Y8114944D01*
X11990933Y8124393D01*
X11986818Y8133334D01*
X11981180Y8141360D01*
X11974220Y8148320D01*
X11966194Y8153958D01*
X11952732Y8160207D01*
X11950090Y8163407D01*
X11948922Y8167370D01*
X11949480Y8171484D01*
X11951614Y8175040D01*
X11954967Y8177428D01*
X11959031Y8178292D01*
X15765068Y8178292D01*
X15769132Y8177428D01*
X15772485Y8175040D01*
X15774619Y8171484D01*
X15775178Y8167370D01*
X15774009Y8163407D01*
X15771368Y8160207D01*
X15757906Y8153958D01*
X15749879Y8148320D01*
X15742919Y8141360D01*
X15737281Y8133334D01*
X15733166Y8124393D01*
X15730626Y8114944D01*
X15729762Y8105140D01*
X15730626Y8095335D01*
X15733166Y8085886D01*
X15737281Y8076946D01*
X15742919Y8068919D01*
X15744494Y8067344D01*
X15746730Y8064042D01*
X15747492Y8060131D01*
X15747492Y5427167D01*
X15746730Y5423306D01*
X15744494Y5420004D01*
X15742919Y5418429D01*
X15737281Y5410352D01*
X15733166Y5401462D01*
X15730626Y5391962D01*
X15729762Y5382158D01*
X15730626Y5372404D01*
X15733166Y5362905D01*
X15737281Y5354015D01*
X15742919Y5345938D01*
X15749879Y5339029D01*
X15757906Y5333390D01*
X15766846Y5329224D01*
X15776295Y5326684D01*
X15786100Y5325821D01*
X15795904Y5326684D01*
X15805353Y5329224D01*
X15814294Y5333390D01*
X15822320Y5339029D01*
X15829280Y5345938D01*
X15834918Y5354015D01*
X15839033Y5362905D01*
X15841573Y5372404D01*
X15842437Y5382158D01*
X15841573Y5391962D01*
X15839033Y5401462D01*
X15834918Y5410352D01*
X15829280Y5418429D01*
X15827705Y5420004D01*
X15825469Y5423306D01*
X15824707Y5427167D01*
X15824707Y8060131D01*
X15825469Y8064042D01*
X15827705Y8067344D01*
X15829280Y8068919D01*
X15834918Y8076946D01*
X15839033Y8085886D01*
X15841573Y8095335D01*
X15842437Y8105140D01*
X15841573Y8114944D01*
X15839033Y8124393D01*
X15834918Y8133334D01*
X15829280Y8141360D01*
X15822320Y8148320D01*
X15814294Y8153958D01*
X15800832Y8160207D01*
X15798190Y8163407D01*
X15797022Y8167370D01*
X15797580Y8171484D01*
X15799714Y8175040D01*
X15803067Y8177428D01*
X15807131Y8178292D01*
X19608241Y8178292D01*
X19612305Y8177428D01*
X19615708Y8175040D01*
X19617842Y8171484D01*
X19618350Y8167370D01*
X19617232Y8163407D01*
X19614591Y8160207D01*
X19601129Y8153958D01*
X19593052Y8148320D01*
X19586143Y8141360D01*
X19580504Y8133334D01*
X19576338Y8124393D01*
X19573798Y8114944D01*
X19572935Y8105140D01*
X19573798Y8095335D01*
X19576338Y8085886D01*
X19580504Y8076946D01*
X19586143Y8068919D01*
X19587718Y8067344D01*
X19589902Y8064042D01*
X19590715Y8060131D01*
X19590664Y5528767D01*
X19589902Y5524855D01*
X19587718Y5521553D01*
X19586143Y5520029D01*
X19580504Y5511952D01*
X19576338Y5503062D01*
X19573798Y5493562D01*
X19572935Y5483758D01*
X19573798Y5474004D01*
X19576338Y5464505D01*
X19580504Y5455615D01*
X19586143Y5447538D01*
X19593052Y5440629D01*
X19601129Y5434990D01*
X19610019Y5430824D01*
X19619518Y5428284D01*
X19629323Y5427421D01*
X19639076Y5428284D01*
X19648576Y5430824D01*
X19657466Y5434990D01*
X19665543Y5440629D01*
X19672452Y5447538D01*
X19678091Y5455615D01*
X19682256Y5464505D01*
X19684796Y5474004D01*
X19685660Y5483758D01*
X19684796Y5493562D01*
X19682256Y5503062D01*
X19678091Y5511952D01*
X19672452Y5520029D01*
X19670877Y5521604D01*
X19668693Y5524906D01*
X19667880Y5528767D01*
X19667931Y8060131D01*
X19668693Y8064042D01*
X19670877Y8067344D01*
X19672452Y8068919D01*
X19678091Y8076946D01*
X19682256Y8085886D01*
X19684796Y8095335D01*
X19685660Y8105140D01*
X19684796Y8114944D01*
X19682256Y8124393D01*
X19678091Y8133334D01*
X19672452Y8141360D01*
X19665543Y8148320D01*
X19657466Y8153958D01*
X19644004Y8160207D01*
X19641362Y8163407D01*
X19640245Y8167370D01*
X19640753Y8171484D01*
X19642886Y8175040D01*
X19646290Y8177428D01*
X19650354Y8178292D01*
X23451464Y8178292D01*
X23455528Y8177428D01*
X23458932Y8175040D01*
X23461065Y8171484D01*
X23461573Y8167370D01*
X23460456Y8163407D01*
X23457814Y8160207D01*
X23444352Y8153958D01*
X23436275Y8148320D01*
X23429366Y8141360D01*
X23423727Y8133334D01*
X23419562Y8124393D01*
X23417022Y8114944D01*
X23416158Y8105140D01*
X23417022Y8095335D01*
X23419562Y8085886D01*
X23423727Y8076946D01*
X23429366Y8068919D01*
X23430941Y8067344D01*
X23433125Y8064042D01*
X23433938Y8060131D01*
X23433887Y5427167D01*
X23433125Y5423255D01*
X23430941Y5420004D01*
X23429366Y5418429D01*
X23423727Y5410352D01*
X23419562Y5401462D01*
X23417022Y5391962D01*
X23416158Y5382158D01*
X23417022Y5372404D01*
X23419562Y5362905D01*
X23423727Y5354015D01*
X23429366Y5345938D01*
X23436275Y5339029D01*
X23444352Y5333390D01*
X23453242Y5329224D01*
X23462742Y5326684D01*
X23472546Y5325821D01*
X23482300Y5326684D01*
X23491799Y5329224D01*
X23500689Y5333390D01*
X23508766Y5339029D01*
X23515675Y5345938D01*
X23521314Y5354015D01*
X23525480Y5362905D01*
X23528020Y5372404D01*
X23528883Y5382158D01*
X23528020Y5391962D01*
X23525480Y5401462D01*
X23521314Y5410352D01*
X23515675Y5418429D01*
X23514100Y5420004D01*
X23511916Y5423306D01*
X23511103Y5427167D01*
X23511154Y8060181D01*
X23511916Y8064042D01*
X23514100Y8067344D01*
X23515675Y8068919D01*
X23521314Y8076946D01*
X23525480Y8085886D01*
X23528020Y8095335D01*
X23528883Y8105140D01*
X23528020Y8114944D01*
X23525480Y8124393D01*
X23521314Y8133334D01*
X23515675Y8141360D01*
X23508766Y8148320D01*
X23500689Y8153958D01*
X23487227Y8160207D01*
X23484586Y8163407D01*
X23483468Y8167370D01*
X23483976Y8171484D01*
X23486110Y8175040D01*
X23489513Y8177428D01*
X23493577Y8178292D01*
X27294687Y8178292D01*
X27298751Y8177428D01*
X27302104Y8175040D01*
X27304238Y8171484D01*
X27304796Y8167370D01*
X27303628Y8163407D01*
X27300986Y8160207D01*
X27287524Y8153958D01*
X27279498Y8148320D01*
X27272538Y8141360D01*
X27266900Y8133334D01*
X27262785Y8124393D01*
X27260245Y8114944D01*
X27259381Y8105140D01*
X27260245Y8095335D01*
X27262785Y8085886D01*
X27266900Y8076946D01*
X27272538Y8068919D01*
X27274113Y8067344D01*
X27276348Y8064042D01*
X27277110Y8060131D01*
X27277110Y5427167D01*
X27276348Y5423255D01*
X27274113Y5420004D01*
X27272538Y5418429D01*
X27266900Y5410352D01*
X27262785Y5401462D01*
X27260245Y5391962D01*
X27259381Y5382158D01*
X27260245Y5372404D01*
X27262785Y5362905D01*
X27266900Y5354015D01*
X27272538Y5345938D01*
X27279498Y5339029D01*
X27287524Y5333390D01*
X27296465Y5329224D01*
X27305914Y5326684D01*
X27315718Y5325821D01*
X27325523Y5326684D01*
X27334972Y5329224D01*
X27343912Y5333390D01*
X27351939Y5339029D01*
X27358898Y5345938D01*
X27364537Y5354015D01*
X27368652Y5362905D01*
X27371192Y5372404D01*
X27372056Y5382158D01*
X27371192Y5391962D01*
X27368652Y5401462D01*
X27364537Y5410352D01*
X27358898Y5418429D01*
X27357324Y5420004D01*
X27355088Y5423306D01*
X27354326Y5427167D01*
X27354326Y8060131D01*
X27355088Y8064042D01*
X27357324Y8067344D01*
X27358898Y8068919D01*
X27364537Y8076946D01*
X27368652Y8085886D01*
X27371192Y8095335D01*
X27372056Y8105140D01*
X27371192Y8114944D01*
X27368652Y8124393D01*
X27364537Y8133334D01*
X27358898Y8141360D01*
X27351939Y8148320D01*
X27343912Y8153958D01*
X27330450Y8160207D01*
X27327809Y8163407D01*
X27326640Y8167370D01*
X27327199Y8171484D01*
X27329333Y8175040D01*
X27332686Y8177428D01*
X27336750Y8178292D01*
X31137860Y8178292D01*
X31141924Y8177428D01*
X31145327Y8175040D01*
X31147461Y8171484D01*
X31147969Y8167370D01*
X31146851Y8163407D01*
X31144210Y8160207D01*
X31130748Y8153958D01*
X31122670Y8148320D01*
X31115762Y8141360D01*
X31110123Y8133334D01*
X31105957Y8124393D01*
X31103417Y8114944D01*
X31102553Y8105140D01*
X31103417Y8095335D01*
X31105957Y8085886D01*
X31110123Y8076946D01*
X31115762Y8068919D01*
X31117336Y8067344D01*
X31119521Y8064042D01*
X31120283Y8060131D01*
X31120283Y5528767D01*
X31119521Y5524855D01*
X31117336Y5521553D01*
X31115762Y5520029D01*
X31110123Y5511952D01*
X31105957Y5503062D01*
X31103417Y5493562D01*
X31102553Y5483758D01*
X31103417Y5474004D01*
X31105957Y5464505D01*
X31110123Y5455615D01*
X31115762Y5447538D01*
X31122670Y5440629D01*
X31130748Y5434990D01*
X31139638Y5430824D01*
X31149137Y5428284D01*
X31158942Y5427421D01*
X31168695Y5428284D01*
X31178195Y5430824D01*
X31187085Y5434990D01*
X31195162Y5440629D01*
X31202071Y5447538D01*
X31207710Y5455615D01*
X31211875Y5464505D01*
X31214415Y5474004D01*
X31215279Y5483758D01*
X31214415Y5493562D01*
X31211875Y5503062D01*
X31207710Y5511952D01*
X31202071Y5520029D01*
X31200496Y5521604D01*
X31198261Y5524906D01*
X31197499Y5528767D01*
X31197499Y8060131D01*
X31198312Y8064042D01*
X31200496Y8067344D01*
X31202071Y8068919D01*
X31207710Y8076946D01*
X31211875Y8085886D01*
X31214415Y8095335D01*
X31215279Y8105140D01*
X31214415Y8114944D01*
X31211875Y8124393D01*
X31207710Y8133334D01*
X31202071Y8141360D01*
X31195162Y8148320D01*
X31187085Y8153958D01*
X31173623Y8160207D01*
X31170981Y8163407D01*
X31169864Y8167370D01*
X31170372Y8171484D01*
X31172505Y8175040D01*
X31175909Y8177428D01*
X31179973Y8178292D01*
X34981083Y8178292D01*
X34985147Y8177428D01*
X34988500Y8175040D01*
X34990633Y8171484D01*
X34991192Y8167370D01*
X34990024Y8163407D01*
X34987382Y8160207D01*
X34973920Y8153958D01*
X34965894Y8148320D01*
X34958934Y8141360D01*
X34953295Y8133334D01*
X34949180Y8124393D01*
X34946640Y8114944D01*
X34945777Y8105140D01*
X34946640Y8095335D01*
X34949180Y8085886D01*
X34953295Y8076946D01*
X34958934Y8068919D01*
X34960509Y8067344D01*
X34962744Y8064042D01*
X34963506Y8060131D01*
X34963506Y5427167D01*
X34962744Y5423255D01*
X34960509Y5419953D01*
X34958934Y5418429D01*
X34953295Y5410352D01*
X34949180Y5401462D01*
X34946640Y5391962D01*
X34945777Y5382158D01*
X34946640Y5372404D01*
X34949180Y5362905D01*
X34953295Y5354015D01*
X34958934Y5345938D01*
X34965894Y5339029D01*
X34973920Y5333390D01*
X34982861Y5329224D01*
X34992310Y5326684D01*
X35002114Y5325821D01*
X35011918Y5326684D01*
X35021367Y5329224D01*
X35030308Y5333390D01*
X35038334Y5339029D01*
X35045294Y5345938D01*
X35050933Y5354015D01*
X35055048Y5362905D01*
X35057588Y5372404D01*
X35058451Y5382158D01*
X35057588Y5391962D01*
X35055048Y5401462D01*
X35050933Y5410352D01*
X35045294Y5418429D01*
X35043668Y5420004D01*
X35041484Y5423306D01*
X35040722Y5427167D01*
X35040722Y8060131D01*
X35041484Y8064042D01*
X35043719Y8067344D01*
X35045294Y8068919D01*
X35050933Y8076946D01*
X35055048Y8085886D01*
X35057588Y8095335D01*
X35058451Y8105140D01*
X35057588Y8114944D01*
X35055048Y8124393D01*
X35050933Y8133334D01*
X35045294Y8141360D01*
X35038334Y8148320D01*
X35030308Y8153958D01*
X35016846Y8160207D01*
X35014204Y8163407D01*
X35013036Y8167370D01*
X35013595Y8171484D01*
X35015728Y8175040D01*
X35019081Y8177428D01*
X35023145Y8178292D01*
X38824255Y8178292D01*
X38828319Y8177428D01*
X38831723Y8175040D01*
X38833856Y8171484D01*
X38834364Y8167370D01*
X38833247Y8163407D01*
X38830605Y8160207D01*
X38817143Y8153958D01*
X38809066Y8148320D01*
X38802157Y8141360D01*
X38796518Y8133334D01*
X38792353Y8124393D01*
X38789813Y8114944D01*
X38788949Y8105140D01*
X38789813Y8095335D01*
X38792353Y8085886D01*
X38796518Y8076946D01*
X38802157Y8068919D01*
X38803732Y8067344D01*
X38805916Y8064042D01*
X38806678Y8060181D01*
X38806678Y5427167D01*
X38805916Y5423255D01*
X38803732Y5420004D01*
X38802157Y5418429D01*
X38796518Y5410352D01*
X38792353Y5401462D01*
X38789813Y5391962D01*
X38788949Y5382158D01*
X38789813Y5372404D01*
X38792353Y5362905D01*
X38796518Y5354015D01*
X38802157Y5345938D01*
X38809066Y5339029D01*
X38817143Y5333390D01*
X38826033Y5329224D01*
X38835533Y5326684D01*
X38845337Y5325821D01*
X38855091Y5326684D01*
X38864590Y5329224D01*
X38873480Y5333390D01*
X38881558Y5339029D01*
X38888466Y5345938D01*
X38894105Y5354015D01*
X38898271Y5362905D01*
X38900811Y5372404D01*
X38901674Y5382158D01*
X38900811Y5391962D01*
X38898271Y5401462D01*
X38894105Y5410352D01*
X38888466Y5418429D01*
X38886892Y5420004D01*
X38884707Y5423306D01*
X38883894Y5427167D01*
X38883894Y8060131D01*
X38884707Y8064042D01*
X38886892Y8067344D01*
X38888466Y8068919D01*
X38894105Y8076946D01*
X38898271Y8085886D01*
X38900811Y8095335D01*
X38901674Y8105140D01*
X38900811Y8114944D01*
X38898271Y8124393D01*
X38894105Y8133334D01*
X38888466Y8141360D01*
X38881558Y8148320D01*
X38873480Y8153958D01*
X38860018Y8160207D01*
X38857377Y8163407D01*
X38856259Y8167370D01*
X38856767Y8171484D01*
X38858901Y8175040D01*
X38862304Y8177428D01*
X38866368Y8178292D01*
X44325032Y8178292D01*
X44328943Y8177530D01*
X44332194Y8175294D01*
X44334430Y8172043D01*
X44335192Y8168131D01*
X44335192Y4925568D01*
X44334430Y4921656D01*
X44332194Y4918405D01*
X44328943Y4916170D01*
X44325032Y4915408D01*
X40394788Y4915408D01*
X40390775Y4916220D01*
X40387473Y4918506D01*
X40385288Y4921910D01*
X40384628Y4925923D01*
X40388692Y4940604D01*
X40389556Y4950358D01*
X40388692Y4960162D01*
X40386152Y4969662D01*
X40381986Y4978552D01*
X40376348Y4986629D01*
X40374773Y4988204D01*
X40372588Y4991506D01*
X40371776Y4995367D01*
X40371776Y7371791D01*
X40372588Y7375702D01*
X40374773Y7379004D01*
X40376348Y7380579D01*
X40381986Y7388606D01*
X40386152Y7397546D01*
X40388692Y7406995D01*
X40389556Y7416800D01*
X40388692Y7426604D01*
X40386152Y7436053D01*
X40381986Y7444994D01*
X40376348Y7453020D01*
X40369439Y7459980D01*
X40361362Y7465618D01*
X40352472Y7469733D01*
X40342972Y7472273D01*
X40333218Y7473137D01*
X40323414Y7472273D01*
X40313914Y7469733D01*
X40305024Y7465618D01*
X40296947Y7459980D01*
X40290038Y7453020D01*
X40284400Y7444994D01*
X40280234Y7436053D01*
X40277694Y7426604D01*
X40276830Y7416800D01*
X40277694Y7406995D01*
X40280234Y7397546D01*
X40284400Y7388606D01*
X40290038Y7380579D01*
X40291613Y7379004D01*
X40293798Y7375702D01*
X40294560Y7371791D01*
X40294560Y4995367D01*
X40293798Y4991455D01*
X40291613Y4988204D01*
X40290038Y4986629D01*
X40284400Y4978552D01*
X40280234Y4969662D01*
X40277694Y4960162D01*
X40276830Y4950358D01*
X40277694Y4940604D01*
X40280234Y4931105D01*
X40284400Y4922215D01*
X40290038Y4914138D01*
X40296947Y4907229D01*
X40305024Y4901590D01*
X40313914Y4897424D01*
X40323414Y4894884D01*
X40333218Y4894021D01*
X40342972Y4894884D01*
X40347290Y4896053D01*
X40350998Y4896358D01*
X40354554Y4895291D01*
X40357501Y4893056D01*
X40359431Y4889855D01*
X40360092Y4886248D01*
X40360092Y74168D01*
X40359330Y70256D01*
X40357094Y67005D01*
X40353843Y64769D01*
X40349932Y64008D01*
G37*

%LPC*%
G36*
X43967400Y6750862D02*
G01*
X43977204Y6751726D01*
X43986653Y6754266D01*
X43995594Y6758381D01*
X44003620Y6764020D01*
X44010580Y6770979D01*
X44016218Y6779006D01*
X44020333Y6787946D01*
X44022873Y6797395D01*
X44023737Y6807200D01*
X44022873Y6817004D01*
X44020333Y6826453D01*
X44016218Y6835394D01*
X44010580Y6843420D01*
X44009005Y6844995D01*
X44006770Y6848297D01*
X44006008Y6852208D01*
X44006008Y7374381D01*
X44006770Y7378293D01*
X44009005Y7381595D01*
X44010580Y7383170D01*
X44016218Y7391196D01*
X44020333Y7400137D01*
X44022873Y7409586D01*
X44023737Y7419390D01*
X44022873Y7429195D01*
X44020333Y7438644D01*
X44016218Y7447584D01*
X44010580Y7455611D01*
X44003620Y7462570D01*
X43995594Y7468209D01*
X43986653Y7472324D01*
X43977204Y7474864D01*
X43967400Y7475728D01*
X43957595Y7474864D01*
X43948146Y7472324D01*
X43939206Y7468209D01*
X43931179Y7462570D01*
X43924220Y7455611D01*
X43918581Y7447584D01*
X43914466Y7438644D01*
X43911926Y7429195D01*
X43911062Y7419390D01*
X43911926Y7409586D01*
X43914466Y7400137D01*
X43918581Y7391196D01*
X43924220Y7383170D01*
X43925794Y7381595D01*
X43928030Y7378293D01*
X43928792Y7374381D01*
X43928792Y6852208D01*
X43928030Y6848297D01*
X43925794Y6844995D01*
X43924220Y6843420D01*
X43918581Y6835394D01*
X43914466Y6826453D01*
X43911926Y6817004D01*
X43911062Y6807200D01*
X43911926Y6797395D01*
X43914466Y6787946D01*
X43918581Y6779006D01*
X43924220Y6770979D01*
X43931179Y6764020D01*
X43939206Y6758381D01*
X43948146Y6754266D01*
X43957595Y6751726D01*
G37*
G36*
X17471999Y559917D02*
G01*
X17487138Y560832D01*
X17502124Y563575D01*
X17516602Y568096D01*
X17530470Y574344D01*
X17543475Y582218D01*
X17555464Y591566D01*
X17566182Y602335D01*
X17575580Y614273D01*
X17583454Y627278D01*
X17589703Y641146D01*
X17594224Y655675D01*
X17596967Y670610D01*
X17597882Y685800D01*
X17596967Y700989D01*
X17594224Y715924D01*
X17589703Y730453D01*
X17583454Y744321D01*
X17575580Y757326D01*
X17566182Y769264D01*
X17555464Y780034D01*
X17543475Y789381D01*
X17530470Y797255D01*
X17516602Y803503D01*
X17502124Y808024D01*
X17487138Y810768D01*
X17471999Y811682D01*
X17456810Y810768D01*
X17441824Y808024D01*
X17427346Y803503D01*
X17413478Y797255D01*
X17400473Y789381D01*
X17388484Y780034D01*
X17377765Y769264D01*
X17368367Y757326D01*
X17360493Y744321D01*
X17354245Y730453D01*
X17349724Y715924D01*
X17346980Y700989D01*
X17346066Y685800D01*
X17346980Y670610D01*
X17349724Y655675D01*
X17354245Y641146D01*
X17360493Y627278D01*
X17368367Y614273D01*
X17377765Y602335D01*
X17388484Y591566D01*
X17400473Y582218D01*
X17413478Y574344D01*
X17427346Y568096D01*
X17441824Y563575D01*
X17456810Y560832D01*
G37*
G36*
X32844790Y559917D02*
G01*
X32859980Y560832D01*
X32874915Y563575D01*
X32889444Y568096D01*
X32903312Y574344D01*
X32916317Y582218D01*
X32928255Y591566D01*
X32939024Y602335D01*
X32948372Y614273D01*
X32956246Y627278D01*
X32962494Y641146D01*
X32967015Y655675D01*
X32969758Y670610D01*
X32970673Y685800D01*
X32969758Y700989D01*
X32967015Y715924D01*
X32962494Y730453D01*
X32956246Y744321D01*
X32948372Y757326D01*
X32939024Y769264D01*
X32928255Y780034D01*
X32916317Y789381D01*
X32903312Y797255D01*
X32889444Y803503D01*
X32874915Y808024D01*
X32859980Y810768D01*
X32844790Y811682D01*
X32829601Y810768D01*
X32814666Y808024D01*
X32800137Y803503D01*
X32786269Y797255D01*
X32773264Y789381D01*
X32761326Y780034D01*
X32750556Y769264D01*
X32741209Y757326D01*
X32733335Y744321D01*
X32727087Y730453D01*
X32722565Y715924D01*
X32719822Y700989D01*
X32718908Y685800D01*
X32719822Y670610D01*
X32722565Y655675D01*
X32727087Y641146D01*
X32733335Y627278D01*
X32741209Y614273D01*
X32750556Y602335D01*
X32761326Y591566D01*
X32773264Y582218D01*
X32786269Y574344D01*
X32800137Y568096D01*
X32814666Y563575D01*
X32829601Y560832D01*
G37*
G36*
X13628776Y559917D02*
G01*
X13643965Y560832D01*
X13658900Y563575D01*
X13673429Y568096D01*
X13687298Y574344D01*
X13700302Y582218D01*
X13712240Y591566D01*
X13723010Y602335D01*
X13732357Y614273D01*
X13740231Y627278D01*
X13746480Y641146D01*
X13751001Y655675D01*
X13753744Y670610D01*
X13754658Y685800D01*
X13753744Y700989D01*
X13751001Y715924D01*
X13746480Y730453D01*
X13740231Y744321D01*
X13732357Y757326D01*
X13723010Y769264D01*
X13712240Y780034D01*
X13700302Y789381D01*
X13687298Y797255D01*
X13673429Y803503D01*
X13658900Y808024D01*
X13643965Y810768D01*
X13628776Y811682D01*
X13613587Y810768D01*
X13598651Y808024D01*
X13584123Y803503D01*
X13570254Y797255D01*
X13557250Y789381D01*
X13545312Y780034D01*
X13534542Y769264D01*
X13525195Y757326D01*
X13517321Y744321D01*
X13511072Y730453D01*
X13506551Y715924D01*
X13503808Y700989D01*
X13502894Y685800D01*
X13503808Y670610D01*
X13506551Y655675D01*
X13511072Y641146D01*
X13517321Y627278D01*
X13525195Y614273D01*
X13534542Y602335D01*
X13545312Y591566D01*
X13557250Y582218D01*
X13570254Y574344D01*
X13584123Y568096D01*
X13598651Y563575D01*
X13613587Y560832D01*
G37*
G36*
X25158395Y559917D02*
G01*
X25173584Y560832D01*
X25188519Y563575D01*
X25203048Y568096D01*
X25216916Y574344D01*
X25229921Y582218D01*
X25241859Y591566D01*
X25252629Y602335D01*
X25261976Y614273D01*
X25269850Y627278D01*
X25276098Y641146D01*
X25280620Y655675D01*
X25283363Y670610D01*
X25284277Y685800D01*
X25283363Y700989D01*
X25280620Y715924D01*
X25276098Y730453D01*
X25269850Y744321D01*
X25261976Y757326D01*
X25252629Y769264D01*
X25241859Y780034D01*
X25229921Y789381D01*
X25216916Y797255D01*
X25203048Y803503D01*
X25188519Y808024D01*
X25173584Y810768D01*
X25158395Y811682D01*
X25143206Y810768D01*
X25128270Y808024D01*
X25113742Y803503D01*
X25099873Y797255D01*
X25086868Y789381D01*
X25074930Y780034D01*
X25064161Y769264D01*
X25054814Y757326D01*
X25046940Y744321D01*
X25040691Y730453D01*
X25036170Y715924D01*
X25033427Y700989D01*
X25032512Y685800D01*
X25033427Y670610D01*
X25036170Y655675D01*
X25040691Y641146D01*
X25046940Y627278D01*
X25054814Y614273D01*
X25064161Y602335D01*
X25074930Y591566D01*
X25086868Y582218D01*
X25099873Y574344D01*
X25113742Y568096D01*
X25128270Y563575D01*
X25143206Y560832D01*
G37*
G36*
X36688014Y559917D02*
G01*
X36703152Y560832D01*
X36718138Y563575D01*
X36732616Y568096D01*
X36746484Y574344D01*
X36759489Y582218D01*
X36771478Y591566D01*
X36782197Y602335D01*
X36791595Y614273D01*
X36799469Y627278D01*
X36805717Y641146D01*
X36810238Y655675D01*
X36812982Y670610D01*
X36813896Y685800D01*
X36812982Y700989D01*
X36810238Y715924D01*
X36805717Y730453D01*
X36799469Y744321D01*
X36791595Y757326D01*
X36782197Y769264D01*
X36771478Y780034D01*
X36759489Y789381D01*
X36746484Y797255D01*
X36732616Y803503D01*
X36718138Y808024D01*
X36703152Y810768D01*
X36688014Y811682D01*
X36672824Y810768D01*
X36657838Y808024D01*
X36643360Y803503D01*
X36629492Y797255D01*
X36616487Y789381D01*
X36604498Y780034D01*
X36593780Y769264D01*
X36584382Y757326D01*
X36576508Y744321D01*
X36570259Y730453D01*
X36565738Y715924D01*
X36562995Y700989D01*
X36562080Y685800D01*
X36562995Y670610D01*
X36565738Y655675D01*
X36570259Y641146D01*
X36576508Y627278D01*
X36584382Y614273D01*
X36593780Y602335D01*
X36604498Y591566D01*
X36616487Y582218D01*
X36629492Y574344D01*
X36643360Y568096D01*
X36657838Y563575D01*
X36672824Y560832D01*
G37*
G36*
X21315172Y559917D02*
G01*
X21330361Y560832D01*
X21345296Y563575D01*
X21359825Y568096D01*
X21373693Y574344D01*
X21386698Y582218D01*
X21398636Y591566D01*
X21409406Y602335D01*
X21418753Y614273D01*
X21426627Y627278D01*
X21432875Y641146D01*
X21437396Y655675D01*
X21440140Y670610D01*
X21441054Y685800D01*
X21440140Y700989D01*
X21437396Y715924D01*
X21432875Y730453D01*
X21426627Y744321D01*
X21418753Y757326D01*
X21409406Y769264D01*
X21398636Y780034D01*
X21386698Y789381D01*
X21373693Y797255D01*
X21359825Y803503D01*
X21345296Y808024D01*
X21330361Y810768D01*
X21315172Y811682D01*
X21299982Y810768D01*
X21285047Y808024D01*
X21270518Y803503D01*
X21256650Y797255D01*
X21243645Y789381D01*
X21231707Y780034D01*
X21220938Y769264D01*
X21211590Y757326D01*
X21203716Y744321D01*
X21197468Y730453D01*
X21192947Y715924D01*
X21190204Y700989D01*
X21189289Y685800D01*
X21190204Y670610D01*
X21192947Y655675D01*
X21197468Y641146D01*
X21203716Y627278D01*
X21211590Y614273D01*
X21220938Y602335D01*
X21231707Y591566D01*
X21243645Y582218D01*
X21256650Y574344D01*
X21270518Y568096D01*
X21285047Y563575D01*
X21299982Y560832D01*
G37*
G36*
X9785604Y559917D02*
G01*
X9800742Y560832D01*
X9815728Y563575D01*
X9830206Y568096D01*
X9844074Y574344D01*
X9857079Y582218D01*
X9869068Y591566D01*
X9879787Y602335D01*
X9889185Y614273D01*
X9897059Y627278D01*
X9903307Y641146D01*
X9907828Y655675D01*
X9910572Y670610D01*
X9911486Y685800D01*
X9910572Y700989D01*
X9907828Y715924D01*
X9903307Y730453D01*
X9897059Y744321D01*
X9889185Y757326D01*
X9879787Y769264D01*
X9869068Y780034D01*
X9857079Y789381D01*
X9844074Y797255D01*
X9830206Y803503D01*
X9815728Y808024D01*
X9800742Y810768D01*
X9785604Y811682D01*
X9770414Y810768D01*
X9755428Y808024D01*
X9740950Y803503D01*
X9727082Y797255D01*
X9714077Y789381D01*
X9702088Y780034D01*
X9691370Y769264D01*
X9681972Y757326D01*
X9674098Y744321D01*
X9667849Y730453D01*
X9663328Y715924D01*
X9660585Y700989D01*
X9659670Y685800D01*
X9660585Y670610D01*
X9663328Y655675D01*
X9667849Y641146D01*
X9674098Y627278D01*
X9681972Y614273D01*
X9691370Y602335D01*
X9702088Y591566D01*
X9714077Y582218D01*
X9727082Y574344D01*
X9740950Y568096D01*
X9755428Y563575D01*
X9770414Y560832D01*
G37*
G36*
X14113154Y990092D02*
G01*
X15204236Y990092D01*
X15210536Y990803D01*
X15216022Y992733D01*
X15220899Y995781D01*
X15225013Y999896D01*
X15228062Y1004773D01*
X15229992Y1010259D01*
X15230703Y1016558D01*
X15230703Y2107641D01*
X15229992Y2113940D01*
X15228062Y2119426D01*
X15225013Y2124303D01*
X15220899Y2128418D01*
X15216022Y2131466D01*
X15210536Y2133396D01*
X15204236Y2134108D01*
X14113154Y2134108D01*
X14106855Y2133396D01*
X14101368Y2131466D01*
X14096492Y2128418D01*
X14092377Y2124303D01*
X14089329Y2119426D01*
X14087398Y2113940D01*
X14086687Y2107641D01*
X14086687Y1016558D01*
X14087398Y1010259D01*
X14089329Y1004773D01*
X14092377Y999896D01*
X14096492Y995781D01*
X14101368Y992733D01*
X14106855Y990803D01*
G37*
G36*
X31265063Y990092D02*
G01*
X32356145Y990092D01*
X32362444Y990803D01*
X32367931Y992733D01*
X32372808Y995781D01*
X32376922Y999896D01*
X32379970Y1004773D01*
X32381901Y1010259D01*
X32382612Y1016558D01*
X32382612Y2107641D01*
X32381901Y2113940D01*
X32379970Y2119426D01*
X32376922Y2124303D01*
X32372808Y2128418D01*
X32367931Y2131466D01*
X32362444Y2133396D01*
X32356145Y2134108D01*
X31265063Y2134108D01*
X31258764Y2133396D01*
X31253277Y2131466D01*
X31248400Y2128418D01*
X31244286Y2124303D01*
X31241238Y2119426D01*
X31239307Y2113940D01*
X31238596Y2107641D01*
X31238596Y1016558D01*
X31239307Y1010259D01*
X31241238Y1004773D01*
X31244286Y999896D01*
X31248400Y995781D01*
X31253277Y992733D01*
X31258764Y990803D01*
G37*
G36*
X29485996Y990092D02*
G01*
X30577027Y990092D01*
X30583377Y990803D01*
X30588813Y992733D01*
X30593741Y995781D01*
X30597805Y999896D01*
X30600903Y1004773D01*
X30602783Y1010259D01*
X30603545Y1016558D01*
X30603545Y2107641D01*
X30602783Y2113940D01*
X30600903Y2119426D01*
X30597805Y2124303D01*
X30593741Y2128418D01*
X30588813Y2131466D01*
X30583377Y2133396D01*
X30577027Y2134108D01*
X29485996Y2134108D01*
X29479646Y2133396D01*
X29474210Y2131466D01*
X29469283Y2128418D01*
X29465219Y2124303D01*
X29462120Y2119426D01*
X29460240Y2113940D01*
X29459529Y2107641D01*
X29459529Y1016558D01*
X29460240Y1010259D01*
X29462120Y1004773D01*
X29465219Y999896D01*
X29469283Y995781D01*
X29474210Y992733D01*
X29479646Y990803D01*
G37*
G36*
X12049048Y990092D02*
G01*
X13140131Y990092D01*
X13146430Y990803D01*
X13151916Y992733D01*
X13156793Y995781D01*
X13160908Y999896D01*
X13163956Y1004773D01*
X13165886Y1010259D01*
X13166598Y1016558D01*
X13166598Y2107641D01*
X13165886Y2113940D01*
X13163956Y2119426D01*
X13160908Y2124303D01*
X13156793Y2128418D01*
X13151916Y2131466D01*
X13146430Y2133396D01*
X13140131Y2134108D01*
X12049048Y2134108D01*
X12042749Y2133396D01*
X12037263Y2131466D01*
X12032386Y2128418D01*
X12028271Y2124303D01*
X12025223Y2119426D01*
X12023293Y2113940D01*
X12022582Y2107641D01*
X12022582Y1016558D01*
X12023293Y1010259D01*
X12025223Y1004773D01*
X12028271Y999896D01*
X12032386Y995781D01*
X12037263Y992733D01*
X12042749Y990803D01*
G37*
G36*
X33329168Y990092D02*
G01*
X34420251Y990092D01*
X34426550Y990803D01*
X34432036Y992733D01*
X34436913Y995781D01*
X34441028Y999896D01*
X34444076Y1004773D01*
X34446006Y1010259D01*
X34446718Y1016558D01*
X34446718Y2107641D01*
X34446006Y2113940D01*
X34444076Y2119426D01*
X34441028Y2124303D01*
X34436913Y2128418D01*
X34432036Y2131466D01*
X34426550Y2133396D01*
X34420251Y2134108D01*
X33329168Y2134108D01*
X33322869Y2133396D01*
X33317383Y2131466D01*
X33312506Y2128418D01*
X33308391Y2124303D01*
X33305343Y2119426D01*
X33303413Y2113940D01*
X33302702Y2107641D01*
X33302702Y1016558D01*
X33303413Y1010259D01*
X33305343Y1004773D01*
X33308391Y999896D01*
X33312506Y995781D01*
X33317383Y992733D01*
X33322869Y990803D01*
G37*
G36*
X15892272Y990092D02*
G01*
X16983303Y990092D01*
X16989653Y990803D01*
X16995089Y992733D01*
X17000016Y995781D01*
X17004080Y999896D01*
X17007179Y1004773D01*
X17009059Y1010259D01*
X17009821Y1016558D01*
X17009821Y2107641D01*
X17009059Y2113940D01*
X17007179Y2119426D01*
X17004080Y2124303D01*
X17000016Y2128418D01*
X16995089Y2131466D01*
X16989653Y2133396D01*
X16983303Y2134108D01*
X15892272Y2134108D01*
X15885922Y2133396D01*
X15880486Y2131466D01*
X15875558Y2128418D01*
X15871494Y2124303D01*
X15868396Y2119426D01*
X15866516Y2113940D01*
X15865805Y2107641D01*
X15865805Y1016558D01*
X15866516Y1010259D01*
X15868396Y1004773D01*
X15871494Y999896D01*
X15875558Y995781D01*
X15880486Y992733D01*
X15885922Y990803D01*
G37*
G36*
X27421890Y990092D02*
G01*
X28512922Y990092D01*
X28519272Y990803D01*
X28524708Y992733D01*
X28529635Y995781D01*
X28533699Y999896D01*
X28536798Y1004773D01*
X28538677Y1010259D01*
X28539439Y1016558D01*
X28539439Y2107641D01*
X28538677Y2113940D01*
X28536798Y2119426D01*
X28533699Y2124303D01*
X28529635Y2128418D01*
X28524708Y2131466D01*
X28519272Y2133396D01*
X28512922Y2134108D01*
X27421890Y2134108D01*
X27415540Y2133396D01*
X27410105Y2131466D01*
X27405177Y2128418D01*
X27401113Y2124303D01*
X27398014Y2119426D01*
X27396135Y2113940D01*
X27395424Y2107641D01*
X27395424Y1016558D01*
X27396135Y1010259D01*
X27398014Y1004773D01*
X27401113Y999896D01*
X27405177Y995781D01*
X27410105Y992733D01*
X27415540Y990803D01*
G37*
G36*
X10269982Y990092D02*
G01*
X11361013Y990092D01*
X11367363Y990803D01*
X11372799Y992733D01*
X11377726Y995781D01*
X11381790Y999896D01*
X11384889Y1004773D01*
X11386769Y1010259D01*
X11387531Y1016558D01*
X11387531Y2107641D01*
X11386769Y2113940D01*
X11384889Y2119426D01*
X11381790Y2124303D01*
X11377726Y2128418D01*
X11372799Y2131466D01*
X11367363Y2133396D01*
X11361013Y2134108D01*
X10269982Y2134108D01*
X10263632Y2133396D01*
X10258196Y2131466D01*
X10253268Y2128418D01*
X10249204Y2124303D01*
X10246106Y2119426D01*
X10244226Y2113940D01*
X10243515Y2107641D01*
X10243515Y1016558D01*
X10244226Y1010259D01*
X10246106Y1004773D01*
X10249204Y999896D01*
X10253268Y995781D01*
X10258196Y992733D01*
X10263632Y990803D01*
G37*
G36*
X35108286Y990092D02*
G01*
X36199318Y990092D01*
X36205668Y990803D01*
X36211103Y992733D01*
X36216031Y995781D01*
X36220095Y999896D01*
X36223194Y1004773D01*
X36225073Y1010259D01*
X36225835Y1016558D01*
X36225835Y2107641D01*
X36225073Y2113940D01*
X36223194Y2119426D01*
X36220095Y2124303D01*
X36216031Y2128418D01*
X36211103Y2131466D01*
X36205668Y2133396D01*
X36199318Y2134108D01*
X35108286Y2134108D01*
X35101936Y2133396D01*
X35096500Y2131466D01*
X35091573Y2128418D01*
X35087509Y2124303D01*
X35084410Y2119426D01*
X35082530Y2113940D01*
X35081819Y2107641D01*
X35081819Y1016558D01*
X35082530Y1010259D01*
X35084410Y1004773D01*
X35087509Y999896D01*
X35091573Y995781D01*
X35096500Y992733D01*
X35101936Y990803D01*
G37*
G36*
X17956377Y990092D02*
G01*
X19047409Y990092D01*
X19053759Y990803D01*
X19059194Y992733D01*
X19064122Y995781D01*
X19068186Y999896D01*
X19071285Y1004773D01*
X19073164Y1010259D01*
X19073926Y1016558D01*
X19073926Y2107641D01*
X19073164Y2113940D01*
X19071285Y2119426D01*
X19068186Y2124303D01*
X19064122Y2128418D01*
X19059194Y2131466D01*
X19053759Y2133396D01*
X19047409Y2134108D01*
X17956377Y2134108D01*
X17950027Y2133396D01*
X17944592Y2131466D01*
X17939664Y2128418D01*
X17935600Y2124303D01*
X17932501Y2119426D01*
X17930622Y2113940D01*
X17929910Y2107641D01*
X17929910Y1016558D01*
X17930622Y1010259D01*
X17932501Y1004773D01*
X17935600Y999896D01*
X17939664Y995781D01*
X17944592Y992733D01*
X17950027Y990803D01*
G37*
G36*
X25642773Y990092D02*
G01*
X26733855Y990092D01*
X26740154Y990803D01*
X26745641Y992733D01*
X26750518Y995781D01*
X26754632Y999896D01*
X26757680Y1004773D01*
X26759611Y1010259D01*
X26760322Y1016558D01*
X26760322Y2107641D01*
X26759611Y2113940D01*
X26757680Y2119426D01*
X26754632Y2124303D01*
X26750518Y2128418D01*
X26745641Y2131466D01*
X26740154Y2133396D01*
X26733855Y2134108D01*
X25642773Y2134108D01*
X25636474Y2133396D01*
X25630987Y2131466D01*
X25626110Y2128418D01*
X25621996Y2124303D01*
X25618948Y2119426D01*
X25617017Y2113940D01*
X25616306Y2107641D01*
X25616306Y1016558D01*
X25617017Y1010259D01*
X25618948Y1004773D01*
X25621996Y999896D01*
X25626110Y995781D01*
X25630987Y992733D01*
X25636474Y990803D01*
G37*
G36*
X19735444Y990092D02*
G01*
X20826526Y990092D01*
X20832826Y990803D01*
X20838312Y992733D01*
X20843189Y995781D01*
X20847304Y999896D01*
X20850352Y1004773D01*
X20852282Y1010259D01*
X20852993Y1016558D01*
X20852993Y2107641D01*
X20852282Y2113940D01*
X20850352Y2119426D01*
X20847304Y2124303D01*
X20843189Y2128418D01*
X20838312Y2131466D01*
X20832826Y2133396D01*
X20826526Y2134108D01*
X19735444Y2134108D01*
X19729145Y2133396D01*
X19723658Y2131466D01*
X19718782Y2128418D01*
X19714667Y2124303D01*
X19711619Y2119426D01*
X19709688Y2113940D01*
X19708977Y2107641D01*
X19708977Y1016558D01*
X19709688Y1010259D01*
X19711619Y1004773D01*
X19714667Y999896D01*
X19718782Y995781D01*
X19723658Y992733D01*
X19729145Y990803D01*
G37*
G36*
X8205876Y990092D02*
G01*
X9296908Y990092D01*
X9303258Y990803D01*
X9308693Y992733D01*
X9313621Y995781D01*
X9317685Y999896D01*
X9320784Y1004773D01*
X9322663Y1010259D01*
X9323425Y1016558D01*
X9323425Y2107641D01*
X9322663Y2113940D01*
X9320784Y2119426D01*
X9317685Y2124303D01*
X9313621Y2128418D01*
X9308693Y2131466D01*
X9303258Y2133396D01*
X9296908Y2134108D01*
X8205876Y2134108D01*
X8199526Y2133396D01*
X8194090Y2131466D01*
X8189163Y2128418D01*
X8185099Y2124303D01*
X8182000Y2119426D01*
X8180120Y2113940D01*
X8179409Y2107641D01*
X8179409Y1016558D01*
X8180120Y1010259D01*
X8182000Y1004773D01*
X8185099Y999896D01*
X8189163Y995781D01*
X8194090Y992733D01*
X8199526Y990803D01*
G37*
G36*
X23578667Y990092D02*
G01*
X24669699Y990092D01*
X24676049Y990803D01*
X24681484Y992733D01*
X24686412Y995781D01*
X24690476Y999896D01*
X24693575Y1004773D01*
X24695454Y1010259D01*
X24696216Y1016558D01*
X24696216Y2107641D01*
X24695454Y2113940D01*
X24693575Y2119426D01*
X24690476Y2124303D01*
X24686412Y2128418D01*
X24681484Y2131466D01*
X24676049Y2133396D01*
X24669699Y2134108D01*
X23578667Y2134108D01*
X23572317Y2133396D01*
X23566882Y2131466D01*
X23561954Y2128418D01*
X23557890Y2124303D01*
X23554791Y2119426D01*
X23552912Y2113940D01*
X23552200Y2107641D01*
X23552200Y1016558D01*
X23552912Y1010259D01*
X23554791Y1004773D01*
X23557890Y999896D01*
X23561954Y995781D01*
X23566882Y992733D01*
X23572317Y990803D01*
G37*
G36*
X21799600Y990092D02*
G01*
X22890632Y990092D01*
X22896982Y990803D01*
X22902418Y992733D01*
X22907345Y995781D01*
X22911409Y999896D01*
X22914508Y1004773D01*
X22916388Y1010259D01*
X22917150Y1016558D01*
X22917150Y2107641D01*
X22916388Y2113940D01*
X22914508Y2119426D01*
X22911409Y2124303D01*
X22907345Y2128418D01*
X22902418Y2131466D01*
X22896982Y2133396D01*
X22890632Y2134108D01*
X21799600Y2134108D01*
X21793250Y2133396D01*
X21787815Y2131466D01*
X21782887Y2128418D01*
X21778823Y2124303D01*
X21775724Y2119426D01*
X21773845Y2113940D01*
X21773134Y2107641D01*
X21773134Y1016558D01*
X21773845Y1010259D01*
X21775724Y1004773D01*
X21778823Y999896D01*
X21782887Y995781D01*
X21787815Y992733D01*
X21793250Y990803D01*
G37*
G36*
X6426758Y990092D02*
G01*
X7517841Y990092D01*
X7524140Y990803D01*
X7529626Y992733D01*
X7534503Y995781D01*
X7538618Y999896D01*
X7541666Y1004773D01*
X7543596Y1010259D01*
X7544308Y1016558D01*
X7544308Y2107641D01*
X7543596Y2113940D01*
X7541666Y2119426D01*
X7538618Y2124303D01*
X7534503Y2128418D01*
X7529626Y2131466D01*
X7524140Y2133396D01*
X7517841Y2134108D01*
X6426758Y2134108D01*
X6420459Y2133396D01*
X6414973Y2131466D01*
X6410096Y2128418D01*
X6405981Y2124303D01*
X6402933Y2119426D01*
X6401003Y2113940D01*
X6400292Y2107641D01*
X6400292Y1016558D01*
X6401003Y1010259D01*
X6402933Y1004773D01*
X6405981Y999896D01*
X6410096Y995781D01*
X6414973Y992733D01*
X6420459Y990803D01*
G37*
G36*
X38951458Y990092D02*
G01*
X40042541Y990092D01*
X40048840Y990803D01*
X40054326Y992733D01*
X40059203Y995781D01*
X40063318Y999896D01*
X40066366Y1004773D01*
X40068296Y1010259D01*
X40069008Y1016558D01*
X40069008Y2107641D01*
X40068296Y2113940D01*
X40066366Y2119426D01*
X40063318Y2124303D01*
X40059203Y2128418D01*
X40054326Y2131466D01*
X40048840Y2133396D01*
X40042541Y2134108D01*
X38951458Y2134108D01*
X38945159Y2133396D01*
X38939673Y2131466D01*
X38934796Y2128418D01*
X38930681Y2124303D01*
X38927633Y2119426D01*
X38925703Y2113940D01*
X38924992Y2107641D01*
X38924992Y1016558D01*
X38925703Y1010259D01*
X38927633Y1004773D01*
X38930681Y999896D01*
X38934796Y995781D01*
X38939673Y992733D01*
X38945159Y990803D01*
G37*
G36*
X37172392Y990092D02*
G01*
X38263423Y990092D01*
X38269773Y990803D01*
X38275209Y992733D01*
X38280136Y995781D01*
X38284200Y999896D01*
X38287299Y1004773D01*
X38289179Y1010259D01*
X38289941Y1016558D01*
X38289941Y2107641D01*
X38289179Y2113940D01*
X38287299Y2119426D01*
X38284200Y2124303D01*
X38280136Y2128418D01*
X38275209Y2131466D01*
X38269773Y2133396D01*
X38263423Y2134108D01*
X37172392Y2134108D01*
X37166042Y2133396D01*
X37160606Y2131466D01*
X37155678Y2128418D01*
X37151614Y2124303D01*
X37148516Y2119426D01*
X37146636Y2113940D01*
X37145925Y2107641D01*
X37145925Y1016558D01*
X37146636Y1010259D01*
X37148516Y1004773D01*
X37151614Y999896D01*
X37155678Y995781D01*
X37160606Y992733D01*
X37166042Y990803D01*
G37*
G36*
X31265063Y2768092D02*
G01*
X32356145Y2768092D01*
X32362444Y2768803D01*
X32367931Y2770733D01*
X32372808Y2773781D01*
X32376922Y2777896D01*
X32379970Y2782773D01*
X32381901Y2788259D01*
X32382612Y2794558D01*
X32382612Y3885641D01*
X32381901Y3891940D01*
X32379970Y3897426D01*
X32376922Y3902303D01*
X32372808Y3906418D01*
X32367931Y3909466D01*
X32362444Y3911396D01*
X32356145Y3912108D01*
X31265063Y3912108D01*
X31258764Y3911396D01*
X31253277Y3909466D01*
X31248400Y3906418D01*
X31244286Y3902303D01*
X31241238Y3897426D01*
X31239307Y3891940D01*
X31238596Y3885641D01*
X31238596Y2794558D01*
X31239307Y2788259D01*
X31241238Y2782773D01*
X31244286Y2777896D01*
X31248400Y2773781D01*
X31253277Y2770733D01*
X31258764Y2768803D01*
G37*
G36*
X14113154Y2768092D02*
G01*
X15204236Y2768092D01*
X15210536Y2768803D01*
X15216022Y2770733D01*
X15220899Y2773781D01*
X15225013Y2777896D01*
X15228062Y2782773D01*
X15229992Y2788259D01*
X15230703Y2794558D01*
X15230703Y3885641D01*
X15229992Y3891940D01*
X15228062Y3897426D01*
X15225013Y3902303D01*
X15220899Y3906418D01*
X15216022Y3909466D01*
X15210536Y3911396D01*
X15204236Y3912108D01*
X14113154Y3912108D01*
X14106855Y3911396D01*
X14101368Y3909466D01*
X14096492Y3906418D01*
X14092377Y3902303D01*
X14089329Y3897426D01*
X14087398Y3891940D01*
X14086687Y3885641D01*
X14086687Y2794558D01*
X14087398Y2788259D01*
X14089329Y2782773D01*
X14092377Y2777896D01*
X14096492Y2773781D01*
X14101368Y2770733D01*
X14106855Y2768803D01*
G37*
G36*
X12049048Y2768092D02*
G01*
X13140131Y2768092D01*
X13146430Y2768803D01*
X13151916Y2770733D01*
X13156793Y2773781D01*
X13160908Y2777896D01*
X13163956Y2782773D01*
X13165886Y2788259D01*
X13166598Y2794558D01*
X13166598Y3885641D01*
X13165886Y3891940D01*
X13163956Y3897426D01*
X13160908Y3902303D01*
X13156793Y3906418D01*
X13151916Y3909466D01*
X13146430Y3911396D01*
X13140131Y3912108D01*
X12049048Y3912108D01*
X12042749Y3911396D01*
X12037263Y3909466D01*
X12032386Y3906418D01*
X12028271Y3902303D01*
X12025223Y3897426D01*
X12023293Y3891940D01*
X12022582Y3885641D01*
X12022582Y2794558D01*
X12023293Y2788259D01*
X12025223Y2782773D01*
X12028271Y2777896D01*
X12032386Y2773781D01*
X12037263Y2770733D01*
X12042749Y2768803D01*
G37*
G36*
X33329168Y2768092D02*
G01*
X34420251Y2768092D01*
X34426550Y2768803D01*
X34432036Y2770733D01*
X34436913Y2773781D01*
X34441028Y2777896D01*
X34444076Y2782773D01*
X34446006Y2788259D01*
X34446718Y2794558D01*
X34446718Y3885641D01*
X34446006Y3891940D01*
X34444076Y3897426D01*
X34441028Y3902303D01*
X34436913Y3906418D01*
X34432036Y3909466D01*
X34426550Y3911396D01*
X34420251Y3912108D01*
X33329168Y3912108D01*
X33322869Y3911396D01*
X33317383Y3909466D01*
X33312506Y3906418D01*
X33308391Y3902303D01*
X33305343Y3897426D01*
X33303413Y3891940D01*
X33302702Y3885641D01*
X33302702Y2794558D01*
X33303413Y2788259D01*
X33305343Y2782773D01*
X33308391Y2777896D01*
X33312506Y2773781D01*
X33317383Y2770733D01*
X33322869Y2768803D01*
G37*
G36*
X29485996Y2768092D02*
G01*
X30577027Y2768092D01*
X30583377Y2768803D01*
X30588813Y2770733D01*
X30593741Y2773781D01*
X30597805Y2777896D01*
X30600903Y2782773D01*
X30602783Y2788259D01*
X30603545Y2794558D01*
X30603545Y3885641D01*
X30602783Y3891940D01*
X30600903Y3897426D01*
X30597805Y3902303D01*
X30593741Y3906418D01*
X30588813Y3909466D01*
X30583377Y3911396D01*
X30577027Y3912108D01*
X29485996Y3912108D01*
X29479646Y3911396D01*
X29474210Y3909466D01*
X29469283Y3906418D01*
X29465219Y3902303D01*
X29462120Y3897426D01*
X29460240Y3891940D01*
X29459529Y3885641D01*
X29459529Y2794558D01*
X29460240Y2788259D01*
X29462120Y2782773D01*
X29465219Y2777896D01*
X29469283Y2773781D01*
X29474210Y2770733D01*
X29479646Y2768803D01*
G37*
G36*
X15892272Y2768092D02*
G01*
X16983303Y2768092D01*
X16989653Y2768803D01*
X16995089Y2770733D01*
X17000016Y2773781D01*
X17004080Y2777896D01*
X17007179Y2782773D01*
X17009059Y2788259D01*
X17009821Y2794558D01*
X17009821Y3885641D01*
X17009059Y3891940D01*
X17007179Y3897426D01*
X17004080Y3902303D01*
X17000016Y3906418D01*
X16995089Y3909466D01*
X16989653Y3911396D01*
X16983303Y3912108D01*
X15892272Y3912108D01*
X15885922Y3911396D01*
X15880486Y3909466D01*
X15875558Y3906418D01*
X15871494Y3902303D01*
X15868396Y3897426D01*
X15866516Y3891940D01*
X15865805Y3885641D01*
X15865805Y2794558D01*
X15866516Y2788259D01*
X15868396Y2782773D01*
X15871494Y2777896D01*
X15875558Y2773781D01*
X15880486Y2770733D01*
X15885922Y2768803D01*
G37*
G36*
X10269982Y2768092D02*
G01*
X11361013Y2768092D01*
X11367363Y2768803D01*
X11372799Y2770733D01*
X11377726Y2773781D01*
X11381790Y2777896D01*
X11384889Y2782773D01*
X11386769Y2788259D01*
X11387531Y2794558D01*
X11387531Y3885641D01*
X11386769Y3891940D01*
X11384889Y3897426D01*
X11381790Y3902303D01*
X11377726Y3906418D01*
X11372799Y3909466D01*
X11367363Y3911396D01*
X11361013Y3912108D01*
X10269982Y3912108D01*
X10263632Y3911396D01*
X10258196Y3909466D01*
X10253268Y3906418D01*
X10249204Y3902303D01*
X10246106Y3897426D01*
X10244226Y3891940D01*
X10243515Y3885641D01*
X10243515Y2794558D01*
X10244226Y2788259D01*
X10246106Y2782773D01*
X10249204Y2777896D01*
X10253268Y2773781D01*
X10258196Y2770733D01*
X10263632Y2768803D01*
G37*
G36*
X35108286Y2768092D02*
G01*
X36199318Y2768092D01*
X36205668Y2768803D01*
X36211103Y2770733D01*
X36216031Y2773781D01*
X36220095Y2777896D01*
X36223194Y2782773D01*
X36225073Y2788259D01*
X36225835Y2794558D01*
X36225835Y3885641D01*
X36225073Y3891940D01*
X36223194Y3897426D01*
X36220095Y3902303D01*
X36216031Y3906418D01*
X36211103Y3909466D01*
X36205668Y3911396D01*
X36199318Y3912108D01*
X35108286Y3912108D01*
X35101936Y3911396D01*
X35096500Y3909466D01*
X35091573Y3906418D01*
X35087509Y3902303D01*
X35084410Y3897426D01*
X35082530Y3891940D01*
X35081819Y3885641D01*
X35081819Y2794558D01*
X35082530Y2788259D01*
X35084410Y2782773D01*
X35087509Y2777896D01*
X35091573Y2773781D01*
X35096500Y2770733D01*
X35101936Y2768803D01*
G37*
G36*
X27421890Y2768092D02*
G01*
X28512922Y2768092D01*
X28519272Y2768803D01*
X28524708Y2770733D01*
X28529635Y2773781D01*
X28533699Y2777896D01*
X28536798Y2782773D01*
X28538677Y2788259D01*
X28539439Y2794558D01*
X28539439Y3885641D01*
X28538677Y3891940D01*
X28536798Y3897426D01*
X28533699Y3902303D01*
X28529635Y3906418D01*
X28524708Y3909466D01*
X28519272Y3911396D01*
X28512922Y3912108D01*
X27421890Y3912108D01*
X27415540Y3911396D01*
X27410105Y3909466D01*
X27405177Y3906418D01*
X27401113Y3902303D01*
X27398014Y3897426D01*
X27396135Y3891940D01*
X27395424Y3885641D01*
X27395424Y2794558D01*
X27396135Y2788259D01*
X27398014Y2782773D01*
X27401113Y2777896D01*
X27405177Y2773781D01*
X27410105Y2770733D01*
X27415540Y2768803D01*
G37*
G36*
X25642773Y2768092D02*
G01*
X26733855Y2768092D01*
X26740154Y2768803D01*
X26745641Y2770733D01*
X26750518Y2773781D01*
X26754632Y2777896D01*
X26757680Y2782773D01*
X26759611Y2788259D01*
X26760322Y2794558D01*
X26760322Y3885641D01*
X26759611Y3891940D01*
X26757680Y3897426D01*
X26754632Y3902303D01*
X26750518Y3906418D01*
X26745641Y3909466D01*
X26740154Y3911396D01*
X26733855Y3912108D01*
X25642773Y3912108D01*
X25636474Y3911396D01*
X25630987Y3909466D01*
X25626110Y3906418D01*
X25621996Y3902303D01*
X25618948Y3897426D01*
X25617017Y3891940D01*
X25616306Y3885641D01*
X25616306Y2794558D01*
X25617017Y2788259D01*
X25618948Y2782773D01*
X25621996Y2777896D01*
X25626110Y2773781D01*
X25630987Y2770733D01*
X25636474Y2768803D01*
G37*
G36*
X19735444Y2768092D02*
G01*
X20826526Y2768092D01*
X20832826Y2768803D01*
X20838312Y2770733D01*
X20843189Y2773781D01*
X20847304Y2777896D01*
X20850352Y2782773D01*
X20852282Y2788259D01*
X20852993Y2794558D01*
X20852993Y3885641D01*
X20852282Y3891940D01*
X20850352Y3897426D01*
X20847304Y3902303D01*
X20843189Y3906418D01*
X20838312Y3909466D01*
X20832826Y3911396D01*
X20826526Y3912108D01*
X19735444Y3912108D01*
X19729145Y3911396D01*
X19723658Y3909466D01*
X19718782Y3906418D01*
X19714667Y3902303D01*
X19711619Y3897426D01*
X19709688Y3891940D01*
X19708977Y3885641D01*
X19708977Y2794558D01*
X19709688Y2788259D01*
X19711619Y2782773D01*
X19714667Y2777896D01*
X19718782Y2773781D01*
X19723658Y2770733D01*
X19729145Y2768803D01*
G37*
G36*
X6426758Y2768092D02*
G01*
X7517841Y2768092D01*
X7524140Y2768803D01*
X7529626Y2770733D01*
X7534503Y2773781D01*
X7538618Y2777896D01*
X7541666Y2782773D01*
X7543596Y2788259D01*
X7544308Y2794558D01*
X7544308Y3885641D01*
X7543596Y3891940D01*
X7541666Y3897426D01*
X7538618Y3902303D01*
X7534503Y3906418D01*
X7529626Y3909466D01*
X7524140Y3911396D01*
X7517841Y3912108D01*
X6426758Y3912108D01*
X6420459Y3911396D01*
X6414973Y3909466D01*
X6410096Y3906418D01*
X6405981Y3902303D01*
X6402933Y3897426D01*
X6401003Y3891940D01*
X6400292Y3885641D01*
X6400292Y2794558D01*
X6401003Y2788259D01*
X6402933Y2782773D01*
X6405981Y2777896D01*
X6410096Y2773781D01*
X6414973Y2770733D01*
X6420459Y2768803D01*
G37*
G36*
X38951458Y2768092D02*
G01*
X40042541Y2768092D01*
X40048840Y2768803D01*
X40054326Y2770733D01*
X40059203Y2773781D01*
X40063318Y2777896D01*
X40066366Y2782773D01*
X40068296Y2788259D01*
X40069008Y2794558D01*
X40069008Y3885641D01*
X40068296Y3891940D01*
X40066366Y3897426D01*
X40063318Y3902303D01*
X40059203Y3906418D01*
X40054326Y3909466D01*
X40048840Y3911396D01*
X40042541Y3912108D01*
X38951458Y3912108D01*
X38945159Y3911396D01*
X38939673Y3909466D01*
X38934796Y3906418D01*
X38930681Y3902303D01*
X38927633Y3897426D01*
X38925703Y3891940D01*
X38924992Y3885641D01*
X38924992Y2794558D01*
X38925703Y2788259D01*
X38927633Y2782773D01*
X38930681Y2777896D01*
X38934796Y2773781D01*
X38939673Y2770733D01*
X38945159Y2768803D01*
G37*
G36*
X23578667Y2768092D02*
G01*
X24669699Y2768092D01*
X24676049Y2768803D01*
X24681484Y2770733D01*
X24686412Y2773781D01*
X24690476Y2777896D01*
X24693575Y2782773D01*
X24695454Y2788259D01*
X24696216Y2794558D01*
X24696216Y3885641D01*
X24695454Y3891940D01*
X24693575Y3897426D01*
X24690476Y3902303D01*
X24686412Y3906418D01*
X24681484Y3909466D01*
X24676049Y3911396D01*
X24669699Y3912108D01*
X23578667Y3912108D01*
X23572317Y3911396D01*
X23566882Y3909466D01*
X23561954Y3906418D01*
X23557890Y3902303D01*
X23554791Y3897426D01*
X23552912Y3891940D01*
X23552200Y3885641D01*
X23552200Y2794558D01*
X23552912Y2788259D01*
X23554791Y2782773D01*
X23557890Y2777896D01*
X23561954Y2773781D01*
X23566882Y2770733D01*
X23572317Y2768803D01*
G37*
G36*
X17956377Y2768092D02*
G01*
X19047409Y2768092D01*
X19053759Y2768803D01*
X19059194Y2770733D01*
X19064122Y2773781D01*
X19068186Y2777896D01*
X19071285Y2782773D01*
X19073164Y2788259D01*
X19073926Y2794558D01*
X19073926Y3885641D01*
X19073164Y3891940D01*
X19071285Y3897426D01*
X19068186Y3902303D01*
X19064122Y3906418D01*
X19059194Y3909466D01*
X19053759Y3911396D01*
X19047409Y3912108D01*
X17956377Y3912108D01*
X17950027Y3911396D01*
X17944592Y3909466D01*
X17939664Y3906418D01*
X17935600Y3902303D01*
X17932501Y3897426D01*
X17930622Y3891940D01*
X17929910Y3885641D01*
X17929910Y2794558D01*
X17930622Y2788259D01*
X17932501Y2782773D01*
X17935600Y2777896D01*
X17939664Y2773781D01*
X17944592Y2770733D01*
X17950027Y2768803D01*
G37*
G36*
X21799600Y2768092D02*
G01*
X22890632Y2768092D01*
X22896982Y2768803D01*
X22902418Y2770733D01*
X22907345Y2773781D01*
X22911409Y2777896D01*
X22914508Y2782773D01*
X22916388Y2788259D01*
X22917150Y2794558D01*
X22917150Y3885641D01*
X22916388Y3891940D01*
X22914508Y3897426D01*
X22911409Y3902303D01*
X22907345Y3906418D01*
X22902418Y3909466D01*
X22896982Y3911396D01*
X22890632Y3912108D01*
X21799600Y3912108D01*
X21793250Y3911396D01*
X21787815Y3909466D01*
X21782887Y3906418D01*
X21778823Y3902303D01*
X21775724Y3897426D01*
X21773845Y3891940D01*
X21773134Y3885641D01*
X21773134Y2794558D01*
X21773845Y2788259D01*
X21775724Y2782773D01*
X21778823Y2777896D01*
X21782887Y2773781D01*
X21787815Y2770733D01*
X21793250Y2768803D01*
G37*
G36*
X8205876Y2768092D02*
G01*
X9296908Y2768092D01*
X9303258Y2768803D01*
X9308693Y2770733D01*
X9313621Y2773781D01*
X9317685Y2777896D01*
X9320784Y2782773D01*
X9322663Y2788259D01*
X9323425Y2794558D01*
X9323425Y3885641D01*
X9322663Y3891940D01*
X9320784Y3897426D01*
X9317685Y3902303D01*
X9313621Y3906418D01*
X9308693Y3909466D01*
X9303258Y3911396D01*
X9296908Y3912108D01*
X8205876Y3912108D01*
X8199526Y3911396D01*
X8194090Y3909466D01*
X8189163Y3906418D01*
X8185099Y3902303D01*
X8182000Y3897426D01*
X8180120Y3891940D01*
X8179409Y3885641D01*
X8179409Y2794558D01*
X8180120Y2788259D01*
X8182000Y2782773D01*
X8185099Y2777896D01*
X8189163Y2773781D01*
X8194090Y2770733D01*
X8199526Y2768803D01*
G37*
G36*
X37172392Y2768092D02*
G01*
X38263423Y2768092D01*
X38269773Y2768803D01*
X38275209Y2770733D01*
X38280136Y2773781D01*
X38284200Y2777896D01*
X38287299Y2782773D01*
X38289179Y2788259D01*
X38289941Y2794558D01*
X38289941Y3885641D01*
X38289179Y3891940D01*
X38287299Y3897426D01*
X38284200Y3902303D01*
X38280136Y3906418D01*
X38275209Y3909466D01*
X38269773Y3911396D01*
X38263423Y3912108D01*
X37172392Y3912108D01*
X37166042Y3911396D01*
X37160606Y3909466D01*
X37155678Y3906418D01*
X37151614Y3902303D01*
X37148516Y3897426D01*
X37146636Y3891940D01*
X37145925Y3885641D01*
X37145925Y2794558D01*
X37146636Y2788259D01*
X37148516Y2782773D01*
X37151614Y2777896D01*
X37155678Y2773781D01*
X37160606Y2770733D01*
X37166042Y2768803D01*
G37*
G36*
X13628776Y4449876D02*
G01*
X13643965Y4450791D01*
X13658900Y4453534D01*
X13673429Y4458055D01*
X13687298Y4464304D01*
X13700302Y4472178D01*
X13712240Y4481576D01*
X13723010Y4492294D01*
X13732357Y4504283D01*
X13740231Y4517288D01*
X13746480Y4531156D01*
X13751001Y4545634D01*
X13753744Y4560620D01*
X13754658Y4575759D01*
X13753744Y4590948D01*
X13751001Y4605934D01*
X13746480Y4620412D01*
X13740231Y4634280D01*
X13732357Y4647285D01*
X13723010Y4659274D01*
X13712240Y4669993D01*
X13700302Y4679391D01*
X13687298Y4687265D01*
X13673429Y4693513D01*
X13658900Y4698034D01*
X13643965Y4700778D01*
X13628776Y4701692D01*
X13613587Y4700778D01*
X13598651Y4698034D01*
X13584123Y4693513D01*
X13570254Y4687265D01*
X13557250Y4679391D01*
X13545312Y4669993D01*
X13534542Y4659274D01*
X13525195Y4647285D01*
X13517321Y4634280D01*
X13511072Y4620412D01*
X13506551Y4605934D01*
X13503808Y4590948D01*
X13502894Y4575759D01*
X13503808Y4560620D01*
X13506551Y4545634D01*
X13511072Y4531156D01*
X13517321Y4517288D01*
X13525195Y4504283D01*
X13534542Y4492294D01*
X13545312Y4481576D01*
X13557250Y4472178D01*
X13570254Y4464304D01*
X13584123Y4458055D01*
X13598651Y4453534D01*
X13613587Y4450791D01*
G37*
G36*
X32844790Y4449876D02*
G01*
X32859980Y4450791D01*
X32874915Y4453534D01*
X32889444Y4458055D01*
X32903312Y4464304D01*
X32916317Y4472178D01*
X32928255Y4481576D01*
X32939024Y4492294D01*
X32948372Y4504283D01*
X32956246Y4517288D01*
X32962494Y4531156D01*
X32967015Y4545634D01*
X32969758Y4560620D01*
X32970673Y4575759D01*
X32969758Y4590948D01*
X32967015Y4605934D01*
X32962494Y4620412D01*
X32956246Y4634280D01*
X32948372Y4647285D01*
X32939024Y4659274D01*
X32928255Y4669993D01*
X32916317Y4679391D01*
X32903312Y4687265D01*
X32889444Y4693513D01*
X32874915Y4698034D01*
X32859980Y4700778D01*
X32844790Y4701692D01*
X32829601Y4700778D01*
X32814666Y4698034D01*
X32800137Y4693513D01*
X32786269Y4687265D01*
X32773264Y4679391D01*
X32761326Y4669993D01*
X32750556Y4659274D01*
X32741209Y4647285D01*
X32733335Y4634280D01*
X32727087Y4620412D01*
X32722565Y4605934D01*
X32719822Y4590948D01*
X32718908Y4575759D01*
X32719822Y4560620D01*
X32722565Y4545634D01*
X32727087Y4531156D01*
X32733335Y4517288D01*
X32741209Y4504283D01*
X32750556Y4492294D01*
X32761326Y4481576D01*
X32773264Y4472178D01*
X32786269Y4464304D01*
X32800137Y4458055D01*
X32814666Y4453534D01*
X32829601Y4450791D01*
G37*
G36*
X17471999Y4449876D02*
G01*
X17487138Y4450791D01*
X17502124Y4453534D01*
X17516602Y4458055D01*
X17530470Y4464304D01*
X17543475Y4472178D01*
X17555464Y4481576D01*
X17566182Y4492294D01*
X17575580Y4504283D01*
X17583454Y4517288D01*
X17589703Y4531156D01*
X17594224Y4545634D01*
X17596967Y4560620D01*
X17597882Y4575759D01*
X17596967Y4590948D01*
X17594224Y4605934D01*
X17589703Y4620412D01*
X17583454Y4634280D01*
X17575580Y4647285D01*
X17566182Y4659274D01*
X17555464Y4669993D01*
X17543475Y4679391D01*
X17530470Y4687265D01*
X17516602Y4693513D01*
X17502124Y4698034D01*
X17487138Y4700778D01*
X17471999Y4701692D01*
X17456810Y4700778D01*
X17441824Y4698034D01*
X17427346Y4693513D01*
X17413478Y4687265D01*
X17400473Y4679391D01*
X17388484Y4669993D01*
X17377765Y4659274D01*
X17368367Y4647285D01*
X17360493Y4634280D01*
X17354245Y4620412D01*
X17349724Y4605934D01*
X17346980Y4590948D01*
X17346066Y4575759D01*
X17346980Y4560620D01*
X17349724Y4545634D01*
X17354245Y4531156D01*
X17360493Y4517288D01*
X17368367Y4504283D01*
X17377765Y4492294D01*
X17388484Y4481576D01*
X17400473Y4472178D01*
X17413478Y4464304D01*
X17427346Y4458055D01*
X17441824Y4453534D01*
X17456810Y4450791D01*
G37*
G36*
X29001618Y4449876D02*
G01*
X29016756Y4450791D01*
X29031742Y4453534D01*
X29046220Y4458055D01*
X29060089Y4464304D01*
X29073094Y4472178D01*
X29085082Y4481576D01*
X29095801Y4492294D01*
X29105199Y4504283D01*
X29113073Y4517288D01*
X29119322Y4531156D01*
X29123843Y4545634D01*
X29126586Y4560620D01*
X29127500Y4575759D01*
X29126586Y4590948D01*
X29123843Y4605934D01*
X29119322Y4620412D01*
X29113073Y4634280D01*
X29105199Y4647285D01*
X29095801Y4659274D01*
X29085082Y4669993D01*
X29073094Y4679391D01*
X29060089Y4687265D01*
X29046220Y4693513D01*
X29031742Y4698034D01*
X29016756Y4700778D01*
X29001618Y4701692D01*
X28986429Y4700778D01*
X28971443Y4698034D01*
X28956965Y4693513D01*
X28943096Y4687265D01*
X28930092Y4679391D01*
X28918103Y4669993D01*
X28907384Y4659274D01*
X28897986Y4647285D01*
X28890112Y4634280D01*
X28883864Y4620412D01*
X28879342Y4605934D01*
X28876599Y4590948D01*
X28875685Y4575759D01*
X28876599Y4560620D01*
X28879342Y4545634D01*
X28883864Y4531156D01*
X28890112Y4517288D01*
X28897986Y4504283D01*
X28907384Y4492294D01*
X28918103Y4481576D01*
X28930092Y4472178D01*
X28943096Y4464304D01*
X28956965Y4458055D01*
X28971443Y4453534D01*
X28986429Y4450791D01*
G37*
G36*
X21315172Y4449876D02*
G01*
X21330361Y4450791D01*
X21345296Y4453534D01*
X21359825Y4458055D01*
X21373693Y4464304D01*
X21386698Y4472178D01*
X21398636Y4481576D01*
X21409406Y4492294D01*
X21418753Y4504283D01*
X21426627Y4517288D01*
X21432875Y4531156D01*
X21437396Y4545634D01*
X21440140Y4560620D01*
X21441054Y4575759D01*
X21440140Y4590948D01*
X21437396Y4605934D01*
X21432875Y4620412D01*
X21426627Y4634280D01*
X21418753Y4647285D01*
X21409406Y4659274D01*
X21398636Y4669993D01*
X21386698Y4679391D01*
X21373693Y4687265D01*
X21359825Y4693513D01*
X21345296Y4698034D01*
X21330361Y4700778D01*
X21315172Y4701692D01*
X21299982Y4700778D01*
X21285047Y4698034D01*
X21270518Y4693513D01*
X21256650Y4687265D01*
X21243645Y4679391D01*
X21231707Y4669993D01*
X21220938Y4659274D01*
X21211590Y4647285D01*
X21203716Y4634280D01*
X21197468Y4620412D01*
X21192947Y4605934D01*
X21190204Y4590948D01*
X21189289Y4575759D01*
X21190204Y4560620D01*
X21192947Y4545634D01*
X21197468Y4531156D01*
X21203716Y4517288D01*
X21211590Y4504283D01*
X21220938Y4492294D01*
X21231707Y4481576D01*
X21243645Y4472178D01*
X21256650Y4464304D01*
X21270518Y4458055D01*
X21285047Y4453534D01*
X21299982Y4450791D01*
G37*
G36*
X9785604Y4449876D02*
G01*
X9800742Y4450791D01*
X9815728Y4453534D01*
X9830206Y4458055D01*
X9844074Y4464304D01*
X9857079Y4472178D01*
X9869068Y4481576D01*
X9879787Y4492294D01*
X9889185Y4504283D01*
X9897059Y4517288D01*
X9903307Y4531156D01*
X9907828Y4545634D01*
X9910572Y4560620D01*
X9911486Y4575759D01*
X9910572Y4590948D01*
X9907828Y4605934D01*
X9903307Y4620412D01*
X9897059Y4634280D01*
X9889185Y4647285D01*
X9879787Y4659274D01*
X9869068Y4669993D01*
X9857079Y4679391D01*
X9844074Y4687265D01*
X9830206Y4693513D01*
X9815728Y4698034D01*
X9800742Y4700778D01*
X9785604Y4701692D01*
X9770414Y4700778D01*
X9755428Y4698034D01*
X9740950Y4693513D01*
X9727082Y4687265D01*
X9714077Y4679391D01*
X9702088Y4669993D01*
X9691370Y4659274D01*
X9681972Y4647285D01*
X9674098Y4634280D01*
X9667849Y4620412D01*
X9663328Y4605934D01*
X9660585Y4590948D01*
X9659670Y4575759D01*
X9660585Y4560620D01*
X9663328Y4545634D01*
X9667849Y4531156D01*
X9674098Y4517288D01*
X9681972Y4504283D01*
X9691370Y4492294D01*
X9702088Y4481576D01*
X9714077Y4472178D01*
X9727082Y4464304D01*
X9740950Y4458055D01*
X9755428Y4453534D01*
X9770414Y4450791D01*
G37*
G36*
X29001618Y559917D02*
G01*
X29016756Y560832D01*
X29031742Y563575D01*
X29046220Y568096D01*
X29060089Y574344D01*
X29073094Y582218D01*
X29085082Y591566D01*
X29095801Y602335D01*
X29105199Y614273D01*
X29113073Y627278D01*
X29119322Y641146D01*
X29123843Y655675D01*
X29126586Y670610D01*
X29127500Y685800D01*
X29126586Y700989D01*
X29123843Y715924D01*
X29119322Y730453D01*
X29113073Y744321D01*
X29105199Y757326D01*
X29095801Y769264D01*
X29085082Y780034D01*
X29073094Y789381D01*
X29060089Y797255D01*
X29046220Y803503D01*
X29031742Y808024D01*
X29016756Y810768D01*
X29001618Y811682D01*
X28986429Y810768D01*
X28971443Y808024D01*
X28956965Y803503D01*
X28943096Y797255D01*
X28930092Y789381D01*
X28918103Y780034D01*
X28907384Y769264D01*
X28897986Y757326D01*
X28890112Y744321D01*
X28883864Y730453D01*
X28879342Y715924D01*
X28876599Y700989D01*
X28875685Y685800D01*
X28876599Y670610D01*
X28879342Y655675D01*
X28883864Y641146D01*
X28890112Y627278D01*
X28897986Y614273D01*
X28907384Y602335D01*
X28918103Y591566D01*
X28930092Y582218D01*
X28943096Y574344D01*
X28956965Y568096D01*
X28971443Y563575D01*
X28986429Y560832D01*
G37*
G36*
X36688014Y4449876D02*
G01*
X36703152Y4450791D01*
X36718138Y4453534D01*
X36732616Y4458055D01*
X36746484Y4464304D01*
X36759489Y4472178D01*
X36771478Y4481576D01*
X36782197Y4492294D01*
X36791595Y4504283D01*
X36799469Y4517288D01*
X36805717Y4531156D01*
X36810238Y4545634D01*
X36812982Y4560620D01*
X36813896Y4575759D01*
X36812982Y4590948D01*
X36810238Y4605934D01*
X36805717Y4620412D01*
X36799469Y4634280D01*
X36791595Y4647285D01*
X36782197Y4659274D01*
X36771478Y4669993D01*
X36759489Y4679391D01*
X36746484Y4687265D01*
X36732616Y4693513D01*
X36718138Y4698034D01*
X36703152Y4700778D01*
X36688014Y4701692D01*
X36672824Y4700778D01*
X36657838Y4698034D01*
X36643360Y4693513D01*
X36629492Y4687265D01*
X36616487Y4679391D01*
X36604498Y4669993D01*
X36593780Y4659274D01*
X36584382Y4647285D01*
X36576508Y4634280D01*
X36570259Y4620412D01*
X36565738Y4605934D01*
X36562995Y4590948D01*
X36562080Y4575759D01*
X36562995Y4560620D01*
X36565738Y4545634D01*
X36570259Y4531156D01*
X36576508Y4517288D01*
X36584382Y4504283D01*
X36593780Y4492294D01*
X36604498Y4481576D01*
X36616487Y4472178D01*
X36629492Y4464304D01*
X36643360Y4458055D01*
X36657838Y4453534D01*
X36672824Y4450791D01*
G37*
G36*
X42955616Y6477000D02*
G01*
X43053000Y6477000D01*
X43053000Y6574231D01*
X43048021Y6573774D01*
X43034153Y6570624D01*
X43020792Y6565696D01*
X43008194Y6559143D01*
X42996561Y6551015D01*
X42986045Y6541465D01*
X42976850Y6530644D01*
X42969078Y6518706D01*
X42962931Y6505905D01*
X42958461Y6492443D01*
X42955718Y6478473D01*
G37*
G36*
X42701616Y6477000D02*
G01*
X42799000Y6477000D01*
X42799000Y6574231D01*
X42794021Y6573774D01*
X42780153Y6570624D01*
X42766792Y6565696D01*
X42754194Y6559143D01*
X42742561Y6551015D01*
X42732045Y6541465D01*
X42722850Y6530644D01*
X42715078Y6518706D01*
X42708931Y6505905D01*
X42704461Y6492443D01*
X42701718Y6478473D01*
G37*
G36*
X5588000Y5077002D02*
G01*
X5597804Y5077866D01*
X5607253Y5080406D01*
X5616194Y5084521D01*
X5624220Y5090160D01*
X5631180Y5097119D01*
X5636818Y5105146D01*
X5640933Y5114086D01*
X5643473Y5123535D01*
X5644337Y5133340D01*
X5643473Y5143144D01*
X5640933Y5152593D01*
X5636818Y5161534D01*
X5631180Y5169560D01*
X5629605Y5171135D01*
X5627370Y5174437D01*
X5626608Y5178348D01*
X5626608Y5796991D01*
X5627370Y5800902D01*
X5629605Y5804204D01*
X5631180Y5805779D01*
X5636818Y5813806D01*
X5640933Y5822746D01*
X5643473Y5832195D01*
X5644337Y5842000D01*
X5643473Y5851804D01*
X5640933Y5861253D01*
X5636818Y5870194D01*
X5631180Y5878220D01*
X5624220Y5885180D01*
X5616194Y5890818D01*
X5607253Y5894933D01*
X5597804Y5897473D01*
X5588000Y5898337D01*
X5578195Y5897473D01*
X5568746Y5894933D01*
X5559806Y5890818D01*
X5551779Y5885180D01*
X5544820Y5878220D01*
X5539181Y5870194D01*
X5535066Y5861253D01*
X5532526Y5851804D01*
X5531662Y5842000D01*
X5532526Y5832195D01*
X5535066Y5822746D01*
X5539181Y5813806D01*
X5544820Y5805779D01*
X5546394Y5804204D01*
X5548630Y5800902D01*
X5549392Y5796991D01*
X5549392Y5178348D01*
X5548630Y5174437D01*
X5546394Y5171135D01*
X5544820Y5169560D01*
X5539181Y5161534D01*
X5535066Y5152593D01*
X5532526Y5143144D01*
X5531662Y5133340D01*
X5532526Y5123535D01*
X5535066Y5114086D01*
X5539181Y5105146D01*
X5544820Y5097119D01*
X5551779Y5090160D01*
X5559806Y5084521D01*
X5568746Y5080406D01*
X5578195Y5077866D01*
G37*
G36*
X43967450Y5077002D02*
G01*
X43977204Y5077866D01*
X43986704Y5080406D01*
X43995594Y5084521D01*
X44003671Y5090160D01*
X44010580Y5097119D01*
X44016218Y5105146D01*
X44020384Y5114086D01*
X44022924Y5123535D01*
X44023788Y5133340D01*
X44022924Y5143144D01*
X44020384Y5152593D01*
X44016218Y5161534D01*
X44010580Y5169560D01*
X44009005Y5171135D01*
X44006770Y5174437D01*
X44006008Y5178348D01*
X44006008Y6050991D01*
X44006770Y6054902D01*
X44009005Y6058204D01*
X44010580Y6059779D01*
X44016218Y6067806D01*
X44020333Y6076746D01*
X44022873Y6086195D01*
X44023737Y6096000D01*
X44022873Y6105804D01*
X44020333Y6115253D01*
X44016218Y6124194D01*
X44010580Y6132220D01*
X44003620Y6139180D01*
X43995594Y6144818D01*
X43986653Y6148933D01*
X43977204Y6151473D01*
X43967400Y6152337D01*
X43957595Y6151473D01*
X43948146Y6148933D01*
X43939206Y6144818D01*
X43931179Y6139180D01*
X43924220Y6132220D01*
X43918581Y6124194D01*
X43914466Y6115253D01*
X43911926Y6105804D01*
X43911062Y6096000D01*
X43911926Y6086195D01*
X43914466Y6076746D01*
X43918581Y6067806D01*
X43924220Y6059779D01*
X43925794Y6058204D01*
X43928030Y6054902D01*
X43928792Y6050991D01*
X43928792Y5178298D01*
X43928030Y5174437D01*
X43925845Y5171135D01*
X43924270Y5169560D01*
X43918632Y5161534D01*
X43914466Y5152593D01*
X43911926Y5143144D01*
X43911062Y5133340D01*
X43911926Y5123535D01*
X43914466Y5114086D01*
X43918632Y5105146D01*
X43924270Y5097119D01*
X43931179Y5090160D01*
X43939256Y5084521D01*
X43948146Y5080406D01*
X43957646Y5077866D01*
G37*
G36*
X28803600Y5325821D02*
G01*
X28813404Y5326684D01*
X28822853Y5329224D01*
X28831794Y5333390D01*
X28839820Y5339029D01*
X28846780Y5345938D01*
X28852418Y5354015D01*
X28856533Y5362905D01*
X28859073Y5372404D01*
X28859937Y5382158D01*
X28859073Y5391962D01*
X28856533Y5401462D01*
X28852418Y5410352D01*
X28846780Y5418429D01*
X28845205Y5420004D01*
X28842970Y5423306D01*
X28842208Y5427167D01*
X28842208Y7371791D01*
X28842970Y7375702D01*
X28845205Y7379004D01*
X28846780Y7380579D01*
X28852418Y7388606D01*
X28856533Y7397546D01*
X28859073Y7406995D01*
X28859937Y7416800D01*
X28859073Y7426604D01*
X28856533Y7436053D01*
X28852418Y7444994D01*
X28846780Y7453020D01*
X28839820Y7459980D01*
X28831794Y7465618D01*
X28822853Y7469733D01*
X28813404Y7472273D01*
X28803600Y7473137D01*
X28793795Y7472273D01*
X28784346Y7469733D01*
X28775406Y7465618D01*
X28767379Y7459980D01*
X28760420Y7453020D01*
X28754781Y7444994D01*
X28750666Y7436053D01*
X28748126Y7426604D01*
X28747262Y7416800D01*
X28748126Y7406995D01*
X28750666Y7397546D01*
X28754781Y7388606D01*
X28760420Y7380579D01*
X28761994Y7379004D01*
X28764230Y7375702D01*
X28764992Y7371791D01*
X28764992Y5427167D01*
X28764230Y5423306D01*
X28761994Y5420004D01*
X28760420Y5418429D01*
X28754781Y5410352D01*
X28750666Y5401462D01*
X28748126Y5391962D01*
X28747262Y5382158D01*
X28748126Y5372404D01*
X28750666Y5362905D01*
X28754781Y5354015D01*
X28760420Y5345938D01*
X28767379Y5339029D01*
X28775406Y5333390D01*
X28784346Y5329224D01*
X28793795Y5326684D01*
G37*
G36*
X22096018Y5325821D02*
G01*
X22105772Y5326684D01*
X22115272Y5329224D01*
X22124162Y5333390D01*
X22132239Y5339029D01*
X22139148Y5345938D01*
X22144786Y5354015D01*
X22148952Y5362905D01*
X22151492Y5372404D01*
X22152356Y5382158D01*
X22151492Y5391962D01*
X22148952Y5401462D01*
X22144786Y5410352D01*
X22139148Y5418429D01*
X22137573Y5420004D01*
X22135388Y5423306D01*
X22134576Y5427167D01*
X22134576Y7371791D01*
X22135388Y7375702D01*
X22137573Y7379004D01*
X22139148Y7380579D01*
X22144786Y7388606D01*
X22148952Y7397546D01*
X22151492Y7406995D01*
X22152356Y7416800D01*
X22151492Y7426604D01*
X22148952Y7436053D01*
X22144786Y7444994D01*
X22139148Y7453020D01*
X22132239Y7459980D01*
X22124162Y7465618D01*
X22115272Y7469733D01*
X22105772Y7472273D01*
X22096018Y7473137D01*
X22086214Y7472273D01*
X22076714Y7469733D01*
X22067824Y7465618D01*
X22059747Y7459980D01*
X22052838Y7453020D01*
X22047200Y7444994D01*
X22043034Y7436053D01*
X22040494Y7426604D01*
X22039630Y7416800D01*
X22040494Y7406995D01*
X22043034Y7397546D01*
X22047200Y7388606D01*
X22052838Y7380579D01*
X22054413Y7379004D01*
X22056598Y7375702D01*
X22057360Y7371791D01*
X22057360Y5427167D01*
X22056598Y5423255D01*
X22054413Y5420004D01*
X22052838Y5418429D01*
X22047200Y5410352D01*
X22043034Y5401462D01*
X22040494Y5391962D01*
X22039630Y5382158D01*
X22040494Y5372404D01*
X22043034Y5362905D01*
X22047200Y5354015D01*
X22052838Y5345938D01*
X22059747Y5339029D01*
X22067824Y5333390D01*
X22076714Y5329224D01*
X22086214Y5326684D01*
G37*
G36*
X18252795Y5325821D02*
G01*
X18262600Y5326684D01*
X18272048Y5329224D01*
X18280989Y5333390D01*
X18289016Y5339029D01*
X18295975Y5345938D01*
X18301614Y5354015D01*
X18305729Y5362905D01*
X18308269Y5372404D01*
X18309132Y5382158D01*
X18308269Y5391962D01*
X18305729Y5401462D01*
X18301614Y5410352D01*
X18295975Y5418429D01*
X18294350Y5420004D01*
X18292165Y5423306D01*
X18291403Y5427167D01*
X18291403Y7371791D01*
X18292165Y7375702D01*
X18294350Y7379004D01*
X18295975Y7380579D01*
X18301614Y7388606D01*
X18305729Y7397546D01*
X18308269Y7406995D01*
X18309132Y7416800D01*
X18308269Y7426604D01*
X18305729Y7436053D01*
X18301614Y7444994D01*
X18295975Y7453020D01*
X18289016Y7459980D01*
X18280989Y7465618D01*
X18272048Y7469733D01*
X18262600Y7472273D01*
X18252795Y7473137D01*
X18242991Y7472273D01*
X18233542Y7469733D01*
X18224601Y7465618D01*
X18216575Y7459980D01*
X18209615Y7453020D01*
X18203976Y7444994D01*
X18199862Y7436053D01*
X18197322Y7426604D01*
X18196458Y7416800D01*
X18197322Y7406995D01*
X18199862Y7397546D01*
X18203976Y7388606D01*
X18209615Y7380579D01*
X18211190Y7379004D01*
X18213425Y7375702D01*
X18214187Y7371842D01*
X18214187Y5427167D01*
X18213425Y5423255D01*
X18211190Y5420004D01*
X18209615Y5418429D01*
X18203976Y5410352D01*
X18199862Y5401462D01*
X18197322Y5391962D01*
X18196458Y5382158D01*
X18197322Y5372404D01*
X18199862Y5362905D01*
X18203976Y5354015D01*
X18209615Y5345938D01*
X18216575Y5339029D01*
X18224601Y5333390D01*
X18233542Y5329224D01*
X18242991Y5326684D01*
G37*
G36*
X33625637Y5325821D02*
G01*
X33635391Y5326684D01*
X33644890Y5329224D01*
X33653780Y5333390D01*
X33661858Y5339029D01*
X33668766Y5345938D01*
X33674405Y5354015D01*
X33678571Y5362905D01*
X33681111Y5372404D01*
X33681974Y5382158D01*
X33681111Y5391962D01*
X33678571Y5401462D01*
X33674405Y5410352D01*
X33668766Y5418429D01*
X33667192Y5420004D01*
X33665007Y5423306D01*
X33664194Y5427167D01*
X33664194Y7371791D01*
X33665007Y7375702D01*
X33667192Y7379004D01*
X33668766Y7380579D01*
X33674405Y7388606D01*
X33678571Y7397546D01*
X33681111Y7406995D01*
X33681974Y7416800D01*
X33681111Y7426604D01*
X33678571Y7436053D01*
X33674405Y7444994D01*
X33668766Y7453020D01*
X33661858Y7459980D01*
X33653780Y7465618D01*
X33644890Y7469733D01*
X33635391Y7472273D01*
X33625637Y7473137D01*
X33615833Y7472273D01*
X33606333Y7469733D01*
X33597443Y7465618D01*
X33589366Y7459980D01*
X33582457Y7453020D01*
X33576818Y7444994D01*
X33572653Y7436053D01*
X33570113Y7426604D01*
X33569249Y7416800D01*
X33570113Y7406995D01*
X33572653Y7397546D01*
X33576818Y7388606D01*
X33582457Y7380579D01*
X33584032Y7379004D01*
X33586216Y7375702D01*
X33586978Y7371842D01*
X33586978Y5427167D01*
X33586216Y5423255D01*
X33584032Y5420004D01*
X33582457Y5418429D01*
X33576818Y5410352D01*
X33572653Y5401462D01*
X33570113Y5391962D01*
X33569249Y5382158D01*
X33570113Y5372404D01*
X33572653Y5362905D01*
X33576818Y5354015D01*
X33582457Y5345938D01*
X33589366Y5339029D01*
X33597443Y5333390D01*
X33606333Y5329224D01*
X33615833Y5326684D01*
G37*
G36*
X21384818Y5325821D02*
G01*
X21394572Y5326684D01*
X21404072Y5329224D01*
X21412962Y5333390D01*
X21421039Y5339029D01*
X21427948Y5345938D01*
X21433586Y5354015D01*
X21437752Y5362905D01*
X21440292Y5372404D01*
X21441156Y5382158D01*
X21440292Y5391962D01*
X21437752Y5401462D01*
X21433586Y5410352D01*
X21427948Y5418429D01*
X21426373Y5420004D01*
X21424188Y5423306D01*
X21423376Y5427167D01*
X21423376Y7475931D01*
X21424188Y7479842D01*
X21426373Y7483144D01*
X21427948Y7484719D01*
X21433586Y7492746D01*
X21437752Y7501686D01*
X21440292Y7511135D01*
X21441156Y7520940D01*
X21440292Y7530744D01*
X21437752Y7540193D01*
X21433586Y7549134D01*
X21427948Y7557160D01*
X21421039Y7564120D01*
X21412962Y7569758D01*
X21404072Y7573873D01*
X21394572Y7576413D01*
X21384818Y7577277D01*
X21375014Y7576413D01*
X21365514Y7573873D01*
X21356624Y7569758D01*
X21348547Y7564120D01*
X21341638Y7557160D01*
X21336000Y7549134D01*
X21331834Y7540193D01*
X21329294Y7530744D01*
X21328430Y7520940D01*
X21329294Y7511135D01*
X21331834Y7501686D01*
X21336000Y7492746D01*
X21341638Y7484719D01*
X21343213Y7483144D01*
X21345398Y7479842D01*
X21346160Y7475931D01*
X21346160Y5427167D01*
X21345398Y5423255D01*
X21343213Y5420004D01*
X21341638Y5418429D01*
X21336000Y5410352D01*
X21331834Y5401462D01*
X21329294Y5391962D01*
X21328430Y5382158D01*
X21329294Y5372404D01*
X21331834Y5362905D01*
X21336000Y5354015D01*
X21341638Y5345938D01*
X21348547Y5339029D01*
X21356624Y5333390D01*
X21365514Y5329224D01*
X21375014Y5326684D01*
G37*
G36*
X9855200Y5325821D02*
G01*
X9865004Y5326684D01*
X9874453Y5329224D01*
X9883394Y5333390D01*
X9891420Y5339029D01*
X9898380Y5345938D01*
X9904018Y5354015D01*
X9908133Y5362905D01*
X9910673Y5372404D01*
X9911537Y5382158D01*
X9910673Y5391962D01*
X9908133Y5401462D01*
X9904018Y5410352D01*
X9898380Y5418429D01*
X9896805Y5420004D01*
X9894570Y5423306D01*
X9893808Y5427167D01*
X9893808Y7475931D01*
X9894570Y7479842D01*
X9896805Y7483144D01*
X9898380Y7484719D01*
X9904018Y7492746D01*
X9908133Y7501686D01*
X9910673Y7511135D01*
X9911537Y7520940D01*
X9910673Y7530744D01*
X9908133Y7540193D01*
X9904018Y7549134D01*
X9898380Y7557160D01*
X9891420Y7564120D01*
X9883394Y7569758D01*
X9874453Y7573873D01*
X9865004Y7576413D01*
X9855200Y7577277D01*
X9845395Y7576413D01*
X9835946Y7573873D01*
X9827006Y7569758D01*
X9818979Y7564120D01*
X9812020Y7557160D01*
X9806381Y7549134D01*
X9802266Y7540193D01*
X9799726Y7530744D01*
X9798862Y7520940D01*
X9799726Y7511135D01*
X9802266Y7501686D01*
X9806381Y7492746D01*
X9812020Y7484719D01*
X9813594Y7483144D01*
X9815830Y7479842D01*
X9816592Y7475931D01*
X9816592Y5427167D01*
X9815830Y5423306D01*
X9813594Y5420004D01*
X9812020Y5418429D01*
X9806381Y5410352D01*
X9802266Y5401462D01*
X9799726Y5391962D01*
X9798862Y5382158D01*
X9799726Y5372404D01*
X9802266Y5362905D01*
X9806381Y5354015D01*
X9812020Y5345938D01*
X9818979Y5339029D01*
X9827006Y5333390D01*
X9835946Y5329224D01*
X9845395Y5326684D01*
G37*
G36*
X32914437Y5325821D02*
G01*
X32924191Y5326684D01*
X32933690Y5329224D01*
X32942580Y5333390D01*
X32950658Y5339029D01*
X32957566Y5345938D01*
X32963205Y5354015D01*
X32967371Y5362905D01*
X32969911Y5372404D01*
X32970774Y5382158D01*
X32969911Y5391962D01*
X32967371Y5401462D01*
X32963205Y5410352D01*
X32957566Y5418429D01*
X32955992Y5420004D01*
X32953807Y5423306D01*
X32952994Y5427167D01*
X32952994Y7475931D01*
X32953807Y7479842D01*
X32955992Y7483144D01*
X32957566Y7484719D01*
X32963205Y7492746D01*
X32967371Y7501686D01*
X32969911Y7511135D01*
X32970774Y7520940D01*
X32969911Y7530744D01*
X32967371Y7540193D01*
X32963205Y7549134D01*
X32957566Y7557160D01*
X32950658Y7564120D01*
X32942580Y7569758D01*
X32933690Y7573873D01*
X32924191Y7576413D01*
X32914437Y7577277D01*
X32904633Y7576413D01*
X32895133Y7573873D01*
X32886243Y7569758D01*
X32878166Y7564120D01*
X32871257Y7557160D01*
X32865618Y7549134D01*
X32861453Y7540193D01*
X32858913Y7530744D01*
X32858049Y7520940D01*
X32858913Y7511135D01*
X32861453Y7501686D01*
X32865618Y7492746D01*
X32871257Y7484719D01*
X32872832Y7483144D01*
X32875016Y7479842D01*
X32875778Y7475981D01*
X32875778Y5427167D01*
X32875016Y5423255D01*
X32872832Y5420004D01*
X32871257Y5418429D01*
X32865618Y5410352D01*
X32861453Y5401462D01*
X32858913Y5391962D01*
X32858049Y5382158D01*
X32858913Y5372404D01*
X32861453Y5362905D01*
X32865618Y5354015D01*
X32871257Y5345938D01*
X32878166Y5339029D01*
X32886243Y5333390D01*
X32895133Y5329224D01*
X32904633Y5326684D01*
G37*
G36*
X37727737Y5325821D02*
G01*
X37737491Y5326684D01*
X37746990Y5329224D01*
X37755880Y5333390D01*
X37763958Y5339029D01*
X37770866Y5345938D01*
X37776505Y5354015D01*
X37780671Y5362905D01*
X37783211Y5372404D01*
X37784074Y5382158D01*
X37783211Y5391962D01*
X37780671Y5401462D01*
X37776505Y5410352D01*
X37770866Y5418429D01*
X37769292Y5420004D01*
X37767107Y5423306D01*
X37766294Y5427167D01*
X37766294Y7475981D01*
X37767107Y7479893D01*
X37769292Y7483195D01*
X37770866Y7484770D01*
X37776505Y7492796D01*
X37780671Y7501737D01*
X37783211Y7511186D01*
X37784074Y7520990D01*
X37783211Y7530795D01*
X37780671Y7540244D01*
X37776505Y7549184D01*
X37770866Y7557211D01*
X37763958Y7564170D01*
X37755880Y7569809D01*
X37746990Y7573924D01*
X37737491Y7576464D01*
X37727737Y7577328D01*
X37717933Y7576464D01*
X37708433Y7573924D01*
X37699543Y7569809D01*
X37691466Y7564170D01*
X37684557Y7557211D01*
X37678918Y7549184D01*
X37674753Y7540244D01*
X37672213Y7530795D01*
X37671349Y7520990D01*
X37672213Y7511186D01*
X37674753Y7501737D01*
X37678918Y7492796D01*
X37684557Y7484770D01*
X37686132Y7483195D01*
X37688316Y7479893D01*
X37689078Y7476032D01*
X37689078Y5427167D01*
X37688316Y5423255D01*
X37686132Y5420004D01*
X37684557Y5418429D01*
X37678918Y5410352D01*
X37674753Y5401462D01*
X37672213Y5391962D01*
X37671349Y5382158D01*
X37672213Y5372404D01*
X37674753Y5362905D01*
X37678918Y5354015D01*
X37684557Y5345938D01*
X37691466Y5339029D01*
X37699543Y5333390D01*
X37708433Y5329224D01*
X37717933Y5326684D01*
G37*
G36*
X26198118Y5325821D02*
G01*
X26207923Y5326684D01*
X26217372Y5329224D01*
X26226312Y5333390D01*
X26234339Y5339029D01*
X26241298Y5345938D01*
X26246937Y5354015D01*
X26251052Y5362905D01*
X26253592Y5372404D01*
X26254456Y5382158D01*
X26253592Y5391962D01*
X26251052Y5401462D01*
X26246937Y5410352D01*
X26241298Y5418429D01*
X26239724Y5420004D01*
X26237488Y5423306D01*
X26236726Y5427167D01*
X26236726Y7475981D01*
X26237488Y7479893D01*
X26239724Y7483195D01*
X26241298Y7484770D01*
X26246937Y7492796D01*
X26251052Y7501737D01*
X26253592Y7511186D01*
X26254456Y7520990D01*
X26253592Y7530795D01*
X26251052Y7540244D01*
X26246937Y7549184D01*
X26241298Y7557211D01*
X26234339Y7564170D01*
X26226312Y7569809D01*
X26217372Y7573924D01*
X26207923Y7576464D01*
X26198118Y7577328D01*
X26188314Y7576464D01*
X26178865Y7573924D01*
X26169924Y7569809D01*
X26161898Y7564170D01*
X26154938Y7557211D01*
X26149300Y7549184D01*
X26145185Y7540244D01*
X26142645Y7530795D01*
X26141781Y7520990D01*
X26142645Y7511186D01*
X26145185Y7501737D01*
X26149300Y7492796D01*
X26154938Y7484770D01*
X26156513Y7483195D01*
X26158748Y7479893D01*
X26159510Y7475981D01*
X26159510Y5427167D01*
X26158748Y5423255D01*
X26156513Y5420004D01*
X26154938Y5418429D01*
X26149300Y5410352D01*
X26145185Y5401462D01*
X26142645Y5391962D01*
X26141781Y5382158D01*
X26142645Y5372404D01*
X26145185Y5362905D01*
X26149300Y5354015D01*
X26154938Y5345938D01*
X26161898Y5339029D01*
X26169924Y5333390D01*
X26178865Y5329224D01*
X26188314Y5326684D01*
G37*
G36*
X14668500Y5325821D02*
G01*
X14678304Y5326684D01*
X14687753Y5329224D01*
X14696694Y5333390D01*
X14704720Y5339029D01*
X14711680Y5345938D01*
X14717318Y5354015D01*
X14721433Y5362905D01*
X14723973Y5372404D01*
X14724837Y5382158D01*
X14723973Y5391962D01*
X14721433Y5401462D01*
X14717318Y5410352D01*
X14711680Y5418429D01*
X14710105Y5420004D01*
X14707869Y5423306D01*
X14707107Y5427167D01*
X14707158Y7475981D01*
X14707920Y7479893D01*
X14710105Y7483195D01*
X14711730Y7484770D01*
X14717369Y7492796D01*
X14721484Y7501737D01*
X14724024Y7511186D01*
X14724888Y7520990D01*
X14724024Y7530795D01*
X14721484Y7540244D01*
X14717369Y7549184D01*
X14711730Y7557211D01*
X14704771Y7564170D01*
X14696744Y7569809D01*
X14687804Y7573924D01*
X14678355Y7576464D01*
X14668550Y7577328D01*
X14658746Y7576464D01*
X14649297Y7573924D01*
X14640356Y7569809D01*
X14632330Y7564170D01*
X14625370Y7557211D01*
X14619732Y7549184D01*
X14615617Y7540244D01*
X14613077Y7530795D01*
X14612213Y7520990D01*
X14613077Y7511186D01*
X14615617Y7501737D01*
X14619732Y7492796D01*
X14625370Y7484770D01*
X14626945Y7483195D01*
X14629180Y7479893D01*
X14629942Y7476032D01*
X14629892Y5427167D01*
X14629130Y5423306D01*
X14626894Y5420004D01*
X14625319Y5418429D01*
X14619681Y5410352D01*
X14615566Y5401462D01*
X14613026Y5391962D01*
X14612162Y5382158D01*
X14613026Y5372404D01*
X14615566Y5362905D01*
X14619681Y5354015D01*
X14625319Y5345938D01*
X14632279Y5339029D01*
X14640306Y5333390D01*
X14649246Y5329224D01*
X14658695Y5326684D01*
G37*
G36*
X43078400Y6477000D02*
G01*
X43175631Y6477000D01*
X43174564Y6485483D01*
X43170957Y6499250D01*
X43165623Y6512407D01*
X43158613Y6524802D01*
X43150129Y6536181D01*
X43140274Y6546392D01*
X43129149Y6555231D01*
X43117008Y6562598D01*
X43104003Y6568338D01*
X43090388Y6572402D01*
X43078400Y6574332D01*
G37*
G36*
X42824400Y6477000D02*
G01*
X42921631Y6477000D01*
X42920564Y6485483D01*
X42916957Y6499250D01*
X42911623Y6512407D01*
X42904613Y6524802D01*
X42896129Y6536181D01*
X42886274Y6546392D01*
X42875149Y6555231D01*
X42863008Y6562598D01*
X42850003Y6568338D01*
X42836388Y6572402D01*
X42824400Y6574332D01*
G37*
G36*
X43053000Y6354368D02*
G01*
X43053000Y6451600D01*
X42955616Y6451600D01*
X42955718Y6450126D01*
X42958461Y6436156D01*
X42962931Y6422694D01*
X42969078Y6409893D01*
X42976850Y6397955D01*
X42986045Y6387134D01*
X42996561Y6377584D01*
X43008194Y6369456D01*
X43020792Y6362903D01*
X43034153Y6357975D01*
X43048021Y6354826D01*
G37*
G36*
X42799000Y6354368D02*
G01*
X42799000Y6451600D01*
X42701616Y6451600D01*
X42701718Y6450126D01*
X42704461Y6436156D01*
X42708931Y6422694D01*
X42715078Y6409893D01*
X42722850Y6397955D01*
X42732045Y6387134D01*
X42742561Y6377584D01*
X42754194Y6369456D01*
X42766792Y6362903D01*
X42780153Y6357975D01*
X42794021Y6354826D01*
G37*
G36*
X43078400Y6354267D02*
G01*
X43090388Y6356197D01*
X43104003Y6360210D01*
X43117008Y6366002D01*
X43129149Y6373368D01*
X43140274Y6382207D01*
X43150129Y6392418D01*
X43158613Y6403797D01*
X43165623Y6416192D01*
X43170957Y6429349D01*
X43174564Y6443116D01*
X43175631Y6451600D01*
X43078400Y6451600D01*
G37*
G36*
X42824400Y6354267D02*
G01*
X42836388Y6356197D01*
X42850003Y6360210D01*
X42863008Y6366002D01*
X42875149Y6373368D01*
X42886274Y6382207D01*
X42896129Y6392418D01*
X42904613Y6403797D01*
X42911623Y6416192D01*
X42916957Y6429349D01*
X42920564Y6443116D01*
X42921631Y6451600D01*
X42824400Y6451600D01*
G37*
G36*
X10566400Y5325922D02*
G01*
X10576204Y5326786D01*
X10585653Y5329326D01*
X10594594Y5333441D01*
X10602620Y5339080D01*
X10609580Y5346039D01*
X10615218Y5354066D01*
X10619333Y5363006D01*
X10621873Y5372455D01*
X10622737Y5382260D01*
X10621873Y5392064D01*
X10619333Y5401513D01*
X10615218Y5410454D01*
X10609580Y5418480D01*
X10608005Y5420055D01*
X10605770Y5423357D01*
X10605008Y5427268D01*
X10605008Y7371791D01*
X10605770Y7375702D01*
X10608005Y7379004D01*
X10609580Y7380579D01*
X10615218Y7388606D01*
X10619333Y7397546D01*
X10621873Y7406995D01*
X10622737Y7416800D01*
X10621873Y7426604D01*
X10619333Y7436053D01*
X10615218Y7444994D01*
X10609580Y7453020D01*
X10602620Y7459980D01*
X10594594Y7465618D01*
X10585653Y7469733D01*
X10576204Y7472273D01*
X10566400Y7473137D01*
X10556595Y7472273D01*
X10547146Y7469733D01*
X10538206Y7465618D01*
X10530179Y7459980D01*
X10523220Y7453020D01*
X10517581Y7444994D01*
X10513466Y7436053D01*
X10510926Y7426604D01*
X10510062Y7416800D01*
X10510926Y7406995D01*
X10513466Y7397546D01*
X10517581Y7388606D01*
X10523220Y7380579D01*
X10524794Y7379004D01*
X10527030Y7375702D01*
X10527792Y7371791D01*
X10527792Y5427268D01*
X10527030Y5423357D01*
X10524794Y5420055D01*
X10523220Y5418480D01*
X10517581Y5410454D01*
X10513466Y5401513D01*
X10510926Y5392064D01*
X10510062Y5382260D01*
X10510926Y5372455D01*
X10513466Y5363006D01*
X10517581Y5354066D01*
X10523220Y5346039D01*
X10530179Y5339080D01*
X10538206Y5333441D01*
X10547146Y5329326D01*
X10556595Y5326786D01*
G37*
G36*
X5715000Y5325922D02*
G01*
X5724804Y5326786D01*
X5734253Y5329326D01*
X5743194Y5333441D01*
X5751220Y5339080D01*
X5758180Y5346039D01*
X5763818Y5354066D01*
X5767933Y5363006D01*
X5770473Y5372455D01*
X5771337Y5382260D01*
X5770473Y5392064D01*
X5767933Y5401513D01*
X5763818Y5410454D01*
X5758180Y5418480D01*
X5756605Y5420055D01*
X5754370Y5423357D01*
X5753608Y5427268D01*
X5753608Y7374381D01*
X5754370Y7378293D01*
X5756605Y7381595D01*
X5758180Y7383170D01*
X5763818Y7391196D01*
X5767933Y7400137D01*
X5770473Y7409586D01*
X5771337Y7419390D01*
X5770473Y7429195D01*
X5767933Y7438644D01*
X5763818Y7447584D01*
X5758180Y7455611D01*
X5751220Y7462570D01*
X5743194Y7468209D01*
X5734253Y7472324D01*
X5724804Y7474864D01*
X5715000Y7475728D01*
X5705195Y7474864D01*
X5695746Y7472324D01*
X5686806Y7468209D01*
X5678779Y7462570D01*
X5671820Y7455611D01*
X5666181Y7447584D01*
X5662066Y7438644D01*
X5659526Y7429195D01*
X5658662Y7419390D01*
X5659526Y7409586D01*
X5662066Y7400137D01*
X5666181Y7391196D01*
X5671820Y7383170D01*
X5673394Y7381595D01*
X5675630Y7378293D01*
X5676392Y7374381D01*
X5676392Y5427268D01*
X5675630Y5423357D01*
X5673394Y5420055D01*
X5671820Y5418480D01*
X5666181Y5410454D01*
X5662066Y5401513D01*
X5659526Y5392064D01*
X5658662Y5382260D01*
X5659526Y5372455D01*
X5662066Y5363006D01*
X5666181Y5354066D01*
X5671820Y5346039D01*
X5678779Y5339080D01*
X5686806Y5333441D01*
X5695746Y5329326D01*
X5705195Y5326786D01*
G37*
G36*
X6756400Y5325922D02*
G01*
X6766204Y5326786D01*
X6775653Y5329326D01*
X6784594Y5333441D01*
X6792620Y5339080D01*
X6799580Y5346039D01*
X6805218Y5354066D01*
X6809333Y5363006D01*
X6811873Y5372455D01*
X6812737Y5382260D01*
X6811873Y5392064D01*
X6809333Y5401513D01*
X6805218Y5410454D01*
X6799580Y5418480D01*
X6798005Y5420055D01*
X6795770Y5423357D01*
X6795008Y5427268D01*
X6795008Y7374381D01*
X6795820Y7378293D01*
X6798005Y7381595D01*
X6799580Y7383170D01*
X6805218Y7391196D01*
X6809384Y7400137D01*
X6811924Y7409586D01*
X6812788Y7419390D01*
X6811924Y7429195D01*
X6809384Y7438644D01*
X6805218Y7447584D01*
X6799580Y7455611D01*
X6792671Y7462570D01*
X6784594Y7468209D01*
X6775703Y7472324D01*
X6766204Y7474864D01*
X6756450Y7475728D01*
X6746646Y7474864D01*
X6737146Y7472324D01*
X6728256Y7468209D01*
X6720179Y7462570D01*
X6713270Y7455611D01*
X6707631Y7447584D01*
X6703466Y7438644D01*
X6700926Y7429195D01*
X6700062Y7419390D01*
X6700926Y7409586D01*
X6703466Y7400137D01*
X6707631Y7391196D01*
X6713270Y7383170D01*
X6714845Y7381595D01*
X6717030Y7378293D01*
X6717792Y7374381D01*
X6717792Y5427268D01*
X6717030Y5423357D01*
X6714794Y5420055D01*
X6713220Y5418480D01*
X6707581Y5410454D01*
X6703466Y5401513D01*
X6700926Y5392064D01*
X6700062Y5382260D01*
X6700926Y5372455D01*
X6703466Y5363006D01*
X6707581Y5354066D01*
X6713220Y5346039D01*
X6720179Y5339080D01*
X6728206Y5333441D01*
X6737146Y5329326D01*
X6746595Y5326786D01*
G37*
G36*
X42300144Y6353454D02*
G01*
X42314368Y6353911D01*
X42328388Y6356197D01*
X42342003Y6360210D01*
X42355008Y6366002D01*
X42367149Y6373368D01*
X42378274Y6382207D01*
X42388129Y6392418D01*
X42396613Y6403797D01*
X42403623Y6416192D01*
X42408957Y6429349D01*
X42412564Y6443116D01*
X42414342Y6457188D01*
X42414342Y6471412D01*
X42412564Y6485483D01*
X42408957Y6499250D01*
X42403623Y6512407D01*
X42396613Y6524802D01*
X42388129Y6536181D01*
X42378274Y6546392D01*
X42367149Y6555231D01*
X42355008Y6562598D01*
X42348353Y6565544D01*
X42345152Y6567779D01*
X42343070Y6571030D01*
X42342308Y6574840D01*
X42342308Y6762191D01*
X42343070Y6766102D01*
X42345305Y6769404D01*
X42346880Y6770979D01*
X42352518Y6779006D01*
X42356633Y6787946D01*
X42359173Y6797395D01*
X42360037Y6807200D01*
X42359173Y6817004D01*
X42356633Y6826453D01*
X42352518Y6835394D01*
X42346880Y6843420D01*
X42339920Y6850380D01*
X42331894Y6856018D01*
X42322953Y6860133D01*
X42313504Y6862673D01*
X42303700Y6863537D01*
X42293895Y6862673D01*
X42284446Y6860133D01*
X42275506Y6856018D01*
X42267479Y6850380D01*
X42260520Y6843420D01*
X42254881Y6835394D01*
X42250766Y6826453D01*
X42248226Y6817004D01*
X42247362Y6807200D01*
X42248226Y6797395D01*
X42250766Y6787946D01*
X42254881Y6779006D01*
X42260520Y6770979D01*
X42262094Y6769404D01*
X42264330Y6766102D01*
X42265092Y6762191D01*
X42265092Y6575094D01*
X42264431Y6571488D01*
X42262501Y6568338D01*
X42259605Y6566052D01*
X42246194Y6559092D01*
X42234561Y6551015D01*
X42224045Y6541465D01*
X42214850Y6530644D01*
X42207078Y6518706D01*
X42200931Y6505905D01*
X42196461Y6492443D01*
X42193718Y6478473D01*
X42192803Y6464300D01*
X42193718Y6450126D01*
X42196461Y6436156D01*
X42200931Y6422694D01*
X42207078Y6409893D01*
X42214850Y6397955D01*
X42224045Y6387134D01*
X42234561Y6377584D01*
X42246194Y6369456D01*
X42258792Y6362903D01*
X42272153Y6357975D01*
X42286021Y6354826D01*
G37*
G36*
X13411250Y5427421D02*
G01*
X13421004Y5428284D01*
X13430504Y5430824D01*
X13439394Y5434990D01*
X13447471Y5440629D01*
X13454380Y5447538D01*
X13460018Y5455615D01*
X13464184Y5464505D01*
X13466724Y5474004D01*
X13467588Y5483758D01*
X13466724Y5493562D01*
X13464184Y5503062D01*
X13460018Y5511952D01*
X13454380Y5520029D01*
X13452805Y5521604D01*
X13450620Y5524906D01*
X13449807Y5528767D01*
X13449807Y7371791D01*
X13450569Y7375702D01*
X13452805Y7379004D01*
X13454380Y7380579D01*
X13460018Y7388606D01*
X13464133Y7397546D01*
X13466673Y7406995D01*
X13467537Y7416800D01*
X13466673Y7426604D01*
X13464133Y7436053D01*
X13460018Y7444994D01*
X13454380Y7453020D01*
X13447420Y7459980D01*
X13439394Y7465618D01*
X13430453Y7469733D01*
X13421004Y7472273D01*
X13411200Y7473137D01*
X13401395Y7472273D01*
X13391946Y7469733D01*
X13383006Y7465618D01*
X13374979Y7459980D01*
X13368019Y7453020D01*
X13362381Y7444994D01*
X13358266Y7436053D01*
X13355726Y7426604D01*
X13354862Y7416800D01*
X13355726Y7406995D01*
X13358266Y7397546D01*
X13362381Y7388606D01*
X13368019Y7380579D01*
X13369594Y7379004D01*
X13371830Y7375702D01*
X13372592Y7371791D01*
X13372592Y5528767D01*
X13371830Y5524906D01*
X13369645Y5521604D01*
X13368070Y5520029D01*
X13362432Y5511952D01*
X13358266Y5503062D01*
X13355726Y5493562D01*
X13354862Y5483758D01*
X13355726Y5474004D01*
X13358266Y5464505D01*
X13362432Y5455615D01*
X13368070Y5447538D01*
X13374979Y5440629D01*
X13383056Y5434990D01*
X13391946Y5430824D01*
X13401446Y5428284D01*
G37*
G36*
X24940869Y5427421D02*
G01*
X24950623Y5428284D01*
X24960122Y5430824D01*
X24969012Y5434990D01*
X24977090Y5440629D01*
X24983998Y5447538D01*
X24989637Y5455615D01*
X24993803Y5464505D01*
X24996343Y5474004D01*
X24997206Y5483758D01*
X24996343Y5493562D01*
X24993803Y5503062D01*
X24989637Y5511952D01*
X24983998Y5520029D01*
X24982424Y5521604D01*
X24980239Y5524906D01*
X24979426Y5528767D01*
X24979426Y7371791D01*
X24980188Y7375702D01*
X24982424Y7379004D01*
X24983998Y7380579D01*
X24989637Y7388606D01*
X24993752Y7397546D01*
X24996292Y7406995D01*
X24997156Y7416800D01*
X24996292Y7426604D01*
X24993752Y7436053D01*
X24989637Y7444994D01*
X24983998Y7453020D01*
X24977039Y7459980D01*
X24969012Y7465618D01*
X24960072Y7469733D01*
X24950623Y7472273D01*
X24940818Y7473137D01*
X24931014Y7472273D01*
X24921565Y7469733D01*
X24912624Y7465618D01*
X24904598Y7459980D01*
X24897638Y7453020D01*
X24892000Y7444994D01*
X24887885Y7436053D01*
X24885345Y7426604D01*
X24884481Y7416800D01*
X24885345Y7406995D01*
X24887885Y7397546D01*
X24892000Y7388606D01*
X24897638Y7380579D01*
X24899213Y7379004D01*
X24901448Y7375702D01*
X24902210Y7371791D01*
X24902210Y5528767D01*
X24901448Y5524855D01*
X24899264Y5521604D01*
X24897689Y5520029D01*
X24892050Y5511952D01*
X24887885Y5503062D01*
X24885345Y5493562D01*
X24884481Y5483758D01*
X24885345Y5474004D01*
X24887885Y5464505D01*
X24892050Y5455615D01*
X24897689Y5447538D01*
X24904598Y5440629D01*
X24912675Y5434990D01*
X24921565Y5430824D01*
X24931065Y5428284D01*
G37*
G36*
X36470437Y5427421D02*
G01*
X36480242Y5428284D01*
X36489690Y5430824D01*
X36498631Y5434990D01*
X36506658Y5440629D01*
X36513617Y5447538D01*
X36519256Y5455615D01*
X36523371Y5464505D01*
X36525911Y5474004D01*
X36526774Y5483758D01*
X36525911Y5493562D01*
X36523371Y5503062D01*
X36519256Y5511952D01*
X36513617Y5520029D01*
X36511992Y5521604D01*
X36509807Y5524906D01*
X36509045Y5528767D01*
X36508994Y7371791D01*
X36509807Y7375702D01*
X36511992Y7379004D01*
X36513566Y7380579D01*
X36519205Y7388606D01*
X36523371Y7397546D01*
X36525911Y7406995D01*
X36526774Y7416800D01*
X36525911Y7426604D01*
X36523371Y7436053D01*
X36519205Y7444994D01*
X36513566Y7453020D01*
X36506658Y7459980D01*
X36498580Y7465618D01*
X36489690Y7469733D01*
X36480191Y7472273D01*
X36470437Y7473137D01*
X36460633Y7472273D01*
X36451133Y7469733D01*
X36442243Y7465618D01*
X36434166Y7459980D01*
X36427257Y7453020D01*
X36421618Y7444994D01*
X36417453Y7436053D01*
X36414913Y7426604D01*
X36414049Y7416800D01*
X36414913Y7406995D01*
X36417453Y7397546D01*
X36421618Y7388606D01*
X36427257Y7380579D01*
X36428832Y7379004D01*
X36431016Y7375702D01*
X36431778Y7371842D01*
X36431829Y5528767D01*
X36431067Y5524855D01*
X36428832Y5521604D01*
X36427257Y5520029D01*
X36421618Y5511952D01*
X36417504Y5503062D01*
X36414964Y5493562D01*
X36414100Y5483758D01*
X36414964Y5474004D01*
X36417504Y5464505D01*
X36421618Y5455615D01*
X36427257Y5447538D01*
X36434217Y5440629D01*
X36442243Y5434990D01*
X36451184Y5430824D01*
X36460633Y5428284D01*
G37*
G36*
X9207500Y5427421D02*
G01*
X9217304Y5428284D01*
X9226753Y5430824D01*
X9235694Y5434990D01*
X9243720Y5440629D01*
X9250680Y5447538D01*
X9256318Y5455615D01*
X9260433Y5464505D01*
X9262973Y5474004D01*
X9263837Y5483758D01*
X9262973Y5493562D01*
X9260433Y5503062D01*
X9256318Y5511952D01*
X9250680Y5520029D01*
X9249105Y5521604D01*
X9246870Y5524906D01*
X9246108Y5528767D01*
X9246108Y7475931D01*
X9246870Y7479842D01*
X9249105Y7483144D01*
X9250680Y7484719D01*
X9256318Y7492746D01*
X9260433Y7501686D01*
X9262973Y7511135D01*
X9263837Y7520940D01*
X9262973Y7530744D01*
X9260433Y7540193D01*
X9256318Y7549134D01*
X9250680Y7557160D01*
X9243720Y7564120D01*
X9235694Y7569758D01*
X9226753Y7573873D01*
X9217304Y7576413D01*
X9207500Y7577277D01*
X9197695Y7576413D01*
X9188246Y7573873D01*
X9179306Y7569758D01*
X9171279Y7564120D01*
X9164320Y7557160D01*
X9158681Y7549134D01*
X9154566Y7540193D01*
X9152026Y7530744D01*
X9151162Y7520940D01*
X9152026Y7511135D01*
X9154566Y7501686D01*
X9158681Y7492746D01*
X9164320Y7484719D01*
X9165894Y7483144D01*
X9168130Y7479842D01*
X9168892Y7475931D01*
X9168892Y5528767D01*
X9168130Y5524906D01*
X9165894Y5521604D01*
X9164320Y5520029D01*
X9158681Y5511952D01*
X9154566Y5503062D01*
X9152026Y5493562D01*
X9151162Y5483758D01*
X9152026Y5474004D01*
X9154566Y5464505D01*
X9158681Y5455615D01*
X9164320Y5447538D01*
X9171279Y5440629D01*
X9179306Y5434990D01*
X9188246Y5430824D01*
X9197695Y5428284D01*
G37*
G36*
X32266737Y5427421D02*
G01*
X32276491Y5428284D01*
X32285990Y5430824D01*
X32294880Y5434990D01*
X32302958Y5440629D01*
X32309866Y5447538D01*
X32315505Y5455615D01*
X32319671Y5464505D01*
X32322211Y5474004D01*
X32323074Y5483758D01*
X32322211Y5493562D01*
X32319671Y5503062D01*
X32315505Y5511952D01*
X32309866Y5520029D01*
X32308292Y5521604D01*
X32306107Y5524906D01*
X32305294Y5528767D01*
X32305294Y7475931D01*
X32306107Y7479842D01*
X32308292Y7483144D01*
X32309866Y7484719D01*
X32315505Y7492746D01*
X32319671Y7501686D01*
X32322211Y7511135D01*
X32323074Y7520940D01*
X32322211Y7530744D01*
X32319671Y7540193D01*
X32315505Y7549134D01*
X32309866Y7557160D01*
X32302958Y7564120D01*
X32294880Y7569758D01*
X32285990Y7573873D01*
X32276491Y7576413D01*
X32266737Y7577277D01*
X32256933Y7576413D01*
X32247433Y7573873D01*
X32238543Y7569758D01*
X32230466Y7564120D01*
X32223557Y7557160D01*
X32217918Y7549134D01*
X32213753Y7540193D01*
X32211213Y7530744D01*
X32210349Y7520940D01*
X32211213Y7511135D01*
X32213753Y7501686D01*
X32217918Y7492746D01*
X32223557Y7484719D01*
X32225132Y7483144D01*
X32227316Y7479842D01*
X32228078Y7475981D01*
X32228078Y5528767D01*
X32227316Y5524855D01*
X32225132Y5521604D01*
X32223557Y5520029D01*
X32217918Y5511952D01*
X32213753Y5503062D01*
X32211213Y5493562D01*
X32210349Y5483758D01*
X32211213Y5474004D01*
X32213753Y5464505D01*
X32217918Y5455615D01*
X32223557Y5447538D01*
X32230466Y5440629D01*
X32238543Y5434990D01*
X32247433Y5430824D01*
X32256933Y5428284D01*
G37*
G36*
X20737118Y5427421D02*
G01*
X20746872Y5428284D01*
X20756372Y5430824D01*
X20765262Y5434990D01*
X20773339Y5440629D01*
X20780248Y5447538D01*
X20785886Y5455615D01*
X20790052Y5464505D01*
X20792592Y5474004D01*
X20793456Y5483758D01*
X20792592Y5493562D01*
X20790052Y5503062D01*
X20785886Y5511952D01*
X20780248Y5520029D01*
X20778673Y5521604D01*
X20776488Y5524906D01*
X20775676Y5528767D01*
X20775676Y7475931D01*
X20776488Y7479842D01*
X20778673Y7483144D01*
X20780248Y7484719D01*
X20785886Y7492746D01*
X20790052Y7501686D01*
X20792592Y7511135D01*
X20793456Y7520940D01*
X20792592Y7530744D01*
X20790052Y7540193D01*
X20785886Y7549134D01*
X20780248Y7557160D01*
X20773339Y7564120D01*
X20765262Y7569758D01*
X20756372Y7573873D01*
X20746872Y7576413D01*
X20737118Y7577277D01*
X20727314Y7576413D01*
X20717814Y7573873D01*
X20708924Y7569758D01*
X20700847Y7564120D01*
X20693938Y7557160D01*
X20688300Y7549134D01*
X20684134Y7540193D01*
X20681594Y7530744D01*
X20680730Y7520940D01*
X20681594Y7511135D01*
X20684134Y7501686D01*
X20688300Y7492746D01*
X20693938Y7484719D01*
X20695513Y7483144D01*
X20697698Y7479842D01*
X20698460Y7475931D01*
X20698460Y5528767D01*
X20697698Y5524855D01*
X20695513Y5521604D01*
X20693938Y5520029D01*
X20688300Y5511952D01*
X20684134Y5503062D01*
X20681594Y5493562D01*
X20680730Y5483758D01*
X20681594Y5474004D01*
X20684134Y5464505D01*
X20688300Y5455615D01*
X20693938Y5447538D01*
X20700847Y5440629D01*
X20708924Y5434990D01*
X20717814Y5430824D01*
X20727314Y5428284D01*
G37*
G36*
X37054637Y5427421D02*
G01*
X37064391Y5428284D01*
X37073890Y5430824D01*
X37082780Y5434990D01*
X37090858Y5440629D01*
X37097766Y5447538D01*
X37103405Y5455615D01*
X37107571Y5464505D01*
X37110111Y5474004D01*
X37110974Y5483758D01*
X37110111Y5493562D01*
X37107571Y5503062D01*
X37103405Y5511952D01*
X37097766Y5520029D01*
X37096192Y5521604D01*
X37094007Y5524906D01*
X37093194Y5528767D01*
X37093194Y7475981D01*
X37094007Y7479893D01*
X37096192Y7483195D01*
X37097766Y7484770D01*
X37103405Y7492796D01*
X37107571Y7501737D01*
X37110111Y7511186D01*
X37110974Y7520990D01*
X37110111Y7530795D01*
X37107571Y7540244D01*
X37103405Y7549184D01*
X37097766Y7557211D01*
X37090858Y7564170D01*
X37082780Y7569809D01*
X37073890Y7573924D01*
X37064391Y7576464D01*
X37054637Y7577328D01*
X37044833Y7576464D01*
X37035333Y7573924D01*
X37026443Y7569809D01*
X37018366Y7564170D01*
X37011457Y7557211D01*
X37005818Y7549184D01*
X37001653Y7540244D01*
X36999113Y7530795D01*
X36998249Y7520990D01*
X36999113Y7511186D01*
X37001653Y7501737D01*
X37005818Y7492796D01*
X37011457Y7484770D01*
X37013032Y7483195D01*
X37015216Y7479893D01*
X37015978Y7476032D01*
X37015978Y5528767D01*
X37015216Y5524855D01*
X37013032Y5521604D01*
X37011457Y5520029D01*
X37005818Y5511952D01*
X37001653Y5503062D01*
X36999113Y5493562D01*
X36998249Y5483758D01*
X36999113Y5474004D01*
X37001653Y5464505D01*
X37005818Y5455615D01*
X37011457Y5447538D01*
X37018366Y5440629D01*
X37026443Y5434990D01*
X37035333Y5430824D01*
X37044833Y5428284D01*
G37*
G36*
X25525018Y5427421D02*
G01*
X25534823Y5428284D01*
X25544272Y5430824D01*
X25553212Y5434990D01*
X25561239Y5440629D01*
X25568198Y5447538D01*
X25573837Y5455615D01*
X25577952Y5464505D01*
X25580492Y5474004D01*
X25581356Y5483758D01*
X25580492Y5493562D01*
X25577952Y5503062D01*
X25573837Y5511952D01*
X25568198Y5520029D01*
X25566624Y5521604D01*
X25564388Y5524906D01*
X25563626Y5528767D01*
X25563626Y7475981D01*
X25564388Y7479893D01*
X25566624Y7483195D01*
X25568198Y7484770D01*
X25573837Y7492796D01*
X25577952Y7501737D01*
X25580492Y7511186D01*
X25581356Y7520990D01*
X25580492Y7530795D01*
X25577952Y7540244D01*
X25573837Y7549184D01*
X25568198Y7557211D01*
X25561239Y7564170D01*
X25553212Y7569809D01*
X25544272Y7573924D01*
X25534823Y7576464D01*
X25525018Y7577328D01*
X25515214Y7576464D01*
X25505765Y7573924D01*
X25496824Y7569809D01*
X25488798Y7564170D01*
X25481838Y7557211D01*
X25476200Y7549184D01*
X25472085Y7540244D01*
X25469545Y7530795D01*
X25468681Y7520990D01*
X25469545Y7511186D01*
X25472085Y7501737D01*
X25476200Y7492796D01*
X25481838Y7484770D01*
X25483413Y7483195D01*
X25485648Y7479893D01*
X25486410Y7475981D01*
X25486410Y5528767D01*
X25485648Y5524855D01*
X25483413Y5521604D01*
X25481838Y5520029D01*
X25476200Y5511952D01*
X25472085Y5503062D01*
X25469545Y5493562D01*
X25468681Y5483758D01*
X25469545Y5474004D01*
X25472085Y5464505D01*
X25476200Y5455615D01*
X25481838Y5447538D01*
X25488798Y5440629D01*
X25496824Y5434990D01*
X25505765Y5430824D01*
X25515214Y5428284D01*
G37*
G36*
X13995400Y5427421D02*
G01*
X14005204Y5428284D01*
X14014653Y5430824D01*
X14023594Y5434990D01*
X14031620Y5440629D01*
X14038580Y5447538D01*
X14044218Y5455615D01*
X14048333Y5464505D01*
X14050873Y5474004D01*
X14051737Y5483758D01*
X14050873Y5493562D01*
X14048333Y5503062D01*
X14044218Y5511952D01*
X14038580Y5520029D01*
X14037005Y5521604D01*
X14034769Y5524906D01*
X14034007Y5528767D01*
X14034058Y7475981D01*
X14034820Y7479893D01*
X14037005Y7483195D01*
X14038630Y7484770D01*
X14044269Y7492796D01*
X14048384Y7501737D01*
X14050924Y7511186D01*
X14051788Y7520990D01*
X14050924Y7530795D01*
X14048384Y7540244D01*
X14044269Y7549184D01*
X14038630Y7557211D01*
X14031671Y7564170D01*
X14023644Y7569809D01*
X14014704Y7573924D01*
X14005255Y7576464D01*
X13995450Y7577328D01*
X13985646Y7576464D01*
X13976197Y7573924D01*
X13967256Y7569809D01*
X13959230Y7564170D01*
X13952270Y7557211D01*
X13946632Y7549184D01*
X13942517Y7540244D01*
X13939977Y7530795D01*
X13939113Y7520990D01*
X13939977Y7511186D01*
X13942517Y7501737D01*
X13946632Y7492796D01*
X13952270Y7484770D01*
X13953845Y7483195D01*
X13956080Y7479893D01*
X13956842Y7476032D01*
X13956792Y5528767D01*
X13956030Y5524906D01*
X13953794Y5521604D01*
X13952219Y5520029D01*
X13946581Y5511952D01*
X13942466Y5503062D01*
X13939926Y5493562D01*
X13939062Y5483758D01*
X13939926Y5474004D01*
X13942466Y5464505D01*
X13946581Y5455615D01*
X13952219Y5447538D01*
X13959179Y5440629D01*
X13967206Y5434990D01*
X13976146Y5430824D01*
X13985595Y5428284D01*
G37*
G36*
X42554144Y6353454D02*
G01*
X42568368Y6353911D01*
X42582388Y6356197D01*
X42596003Y6360210D01*
X42609008Y6366002D01*
X42621149Y6373368D01*
X42632274Y6382207D01*
X42642129Y6392418D01*
X42650613Y6403797D01*
X42657623Y6416192D01*
X42662957Y6429349D01*
X42666564Y6443116D01*
X42668342Y6457188D01*
X42668342Y6471412D01*
X42666564Y6485483D01*
X42662957Y6499250D01*
X42657623Y6512407D01*
X42650613Y6524802D01*
X42642129Y6536181D01*
X42632274Y6546392D01*
X42621149Y6555231D01*
X42609008Y6562598D01*
X42596003Y6568338D01*
X42582388Y6572402D01*
X42568368Y6574688D01*
X42554144Y6575145D01*
X42540021Y6573774D01*
X42526153Y6570624D01*
X42512792Y6565696D01*
X42500194Y6559143D01*
X42488561Y6551015D01*
X42478045Y6541465D01*
X42468850Y6530644D01*
X42461078Y6518706D01*
X42454931Y6505905D01*
X42450461Y6492443D01*
X42447718Y6478473D01*
X42446803Y6464300D01*
X42447718Y6450126D01*
X42450461Y6436156D01*
X42454931Y6422694D01*
X42461078Y6409893D01*
X42468850Y6397955D01*
X42478045Y6387134D01*
X42488561Y6377584D01*
X42500194Y6369456D01*
X42512792Y6362903D01*
X42526153Y6357975D01*
X42540021Y6354826D01*
G37*
G36*
X42046144Y6353454D02*
G01*
X42060368Y6353911D01*
X42074388Y6356197D01*
X42088003Y6360210D01*
X42101008Y6366002D01*
X42113149Y6373368D01*
X42124274Y6382207D01*
X42134129Y6392418D01*
X42142613Y6403797D01*
X42149623Y6416192D01*
X42154957Y6429349D01*
X42158564Y6443116D01*
X42160342Y6457188D01*
X42160342Y6471412D01*
X42158564Y6485483D01*
X42154957Y6499250D01*
X42149623Y6512407D01*
X42142613Y6524802D01*
X42134129Y6536181D01*
X42124274Y6546392D01*
X42113149Y6555231D01*
X42101008Y6562598D01*
X42088003Y6568338D01*
X42074388Y6572402D01*
X42060368Y6574688D01*
X42046144Y6575145D01*
X42032021Y6573774D01*
X42018153Y6570624D01*
X42004792Y6565696D01*
X41992194Y6559143D01*
X41980561Y6551015D01*
X41970045Y6541465D01*
X41960850Y6530644D01*
X41953078Y6518706D01*
X41946931Y6505905D01*
X41942461Y6492443D01*
X41939718Y6478473D01*
X41938803Y6464300D01*
X41939718Y6450126D01*
X41942461Y6436156D01*
X41946931Y6422694D01*
X41953078Y6409893D01*
X41960850Y6397955D01*
X41970045Y6387134D01*
X41980561Y6377584D01*
X41992194Y6369456D01*
X42004792Y6362903D01*
X42018153Y6357975D01*
X42032021Y6354826D01*
G37*
G36*
X2794000Y5785662D02*
G01*
X2803804Y5786526D01*
X2813253Y5789066D01*
X2822194Y5793181D01*
X2830220Y5798820D01*
X2837180Y5805779D01*
X2842818Y5813806D01*
X2846933Y5822746D01*
X2849473Y5832195D01*
X2850337Y5842000D01*
X2849473Y5851804D01*
X2846933Y5861253D01*
X2842818Y5870194D01*
X2837180Y5878220D01*
X2835605Y5879795D01*
X2833370Y5883097D01*
X2832608Y5887008D01*
X2832608Y7191400D01*
X2833370Y7195261D01*
X2835605Y7198563D01*
X2837180Y7200138D01*
X2842818Y7208215D01*
X2846933Y7217105D01*
X2849473Y7226604D01*
X2850337Y7236358D01*
X2849473Y7246162D01*
X2846933Y7255662D01*
X2842818Y7264552D01*
X2837180Y7272629D01*
X2830220Y7279538D01*
X2822194Y7285177D01*
X2813253Y7289342D01*
X2803804Y7291882D01*
X2794000Y7292746D01*
X2784195Y7291882D01*
X2774746Y7289342D01*
X2765806Y7285177D01*
X2757779Y7279538D01*
X2750820Y7272629D01*
X2745181Y7264552D01*
X2741066Y7255662D01*
X2738526Y7246162D01*
X2737662Y7236358D01*
X2738526Y7226604D01*
X2741066Y7217105D01*
X2745181Y7208215D01*
X2750820Y7200138D01*
X2752394Y7198563D01*
X2754630Y7195261D01*
X2755392Y7191400D01*
X2755392Y5887008D01*
X2754630Y5883097D01*
X2752394Y5879795D01*
X2750820Y5878220D01*
X2745181Y5870194D01*
X2741066Y5861253D01*
X2738526Y5851804D01*
X2737662Y5842000D01*
X2738526Y5832195D01*
X2741066Y5822746D01*
X2745181Y5813806D01*
X2750820Y5805779D01*
X2757779Y5798820D01*
X2765806Y5793181D01*
X2774746Y5789066D01*
X2784195Y5786526D01*
G37*
G36*
X41325800Y6039662D02*
G01*
X41335604Y6040526D01*
X41345053Y6043066D01*
X41353994Y6047181D01*
X41362020Y6052820D01*
X41368980Y6059779D01*
X41374618Y6067806D01*
X41378733Y6076746D01*
X41381273Y6086195D01*
X41382137Y6096000D01*
X41381273Y6105804D01*
X41378733Y6115253D01*
X41374618Y6124194D01*
X41368980Y6132220D01*
X41367405Y6133795D01*
X41365170Y6137097D01*
X41364408Y6141008D01*
X41364408Y7191400D01*
X41365170Y7195261D01*
X41367405Y7198563D01*
X41368980Y7200138D01*
X41374618Y7208215D01*
X41378733Y7217105D01*
X41381273Y7226604D01*
X41382137Y7236358D01*
X41381273Y7246162D01*
X41378733Y7255662D01*
X41374618Y7264552D01*
X41368980Y7272629D01*
X41362020Y7279538D01*
X41353994Y7285177D01*
X41345053Y7289342D01*
X41335604Y7291882D01*
X41325800Y7292746D01*
X41315995Y7291882D01*
X41306546Y7289342D01*
X41297606Y7285177D01*
X41289579Y7279538D01*
X41282620Y7272629D01*
X41276981Y7264552D01*
X41272866Y7255662D01*
X41270326Y7246162D01*
X41269462Y7236358D01*
X41270326Y7226604D01*
X41272866Y7217105D01*
X41276981Y7208215D01*
X41282620Y7200138D01*
X41284194Y7198563D01*
X41286430Y7195261D01*
X41287192Y7191400D01*
X41287192Y6141008D01*
X41286430Y6137097D01*
X41284194Y6133795D01*
X41282620Y6132220D01*
X41276981Y6124194D01*
X41272866Y6115253D01*
X41270326Y6105804D01*
X41269462Y6096000D01*
X41270326Y6086195D01*
X41272866Y6076746D01*
X41276981Y6067806D01*
X41282620Y6059779D01*
X41289579Y6052820D01*
X41297606Y6047181D01*
X41306546Y6043066D01*
X41315995Y6040526D01*
G37*
G36*
X41711270Y6353403D02*
G01*
X41880129Y6353403D01*
X41886428Y6354114D01*
X41891915Y6355994D01*
X41896792Y6359093D01*
X41900906Y6363208D01*
X41904005Y6368084D01*
X41905885Y6373571D01*
X41906596Y6379870D01*
X41906596Y6548729D01*
X41905885Y6555028D01*
X41904005Y6560515D01*
X41900906Y6565392D01*
X41896792Y6569506D01*
X41891915Y6572605D01*
X41886428Y6574485D01*
X41880129Y6575196D01*
X41711270Y6575196D01*
X41704971Y6574485D01*
X41699484Y6572605D01*
X41694608Y6569506D01*
X41690493Y6565392D01*
X41687394Y6560515D01*
X41685514Y6555028D01*
X41684803Y6548729D01*
X41684803Y6379870D01*
X41685514Y6373571D01*
X41687394Y6368084D01*
X41690493Y6363208D01*
X41694608Y6359093D01*
X41699484Y6355994D01*
X41704971Y6354114D01*
G37*
G36*
X25158395Y4449876D02*
G01*
X25173584Y4450791D01*
X25188519Y4453534D01*
X25203048Y4458055D01*
X25216916Y4464304D01*
X25229921Y4472178D01*
X25241859Y4481576D01*
X25252629Y4492294D01*
X25261976Y4504283D01*
X25269850Y4517288D01*
X25276098Y4531156D01*
X25280620Y4545634D01*
X25283363Y4560620D01*
X25284277Y4575759D01*
X25283363Y4590948D01*
X25280620Y4605934D01*
X25276098Y4620412D01*
X25269850Y4634280D01*
X25261976Y4647285D01*
X25252629Y4659274D01*
X25241859Y4669993D01*
X25229921Y4679391D01*
X25216916Y4687265D01*
X25203048Y4693513D01*
X25188519Y4698034D01*
X25173584Y4700778D01*
X25158395Y4701692D01*
X25143206Y4700778D01*
X25128270Y4698034D01*
X25113742Y4693513D01*
X25099873Y4687265D01*
X25086868Y4679391D01*
X25074930Y4669993D01*
X25064161Y4659274D01*
X25054814Y4647285D01*
X25046940Y4634280D01*
X25040691Y4620412D01*
X25036170Y4605934D01*
X25033427Y4590948D01*
X25032512Y4575759D01*
X25033427Y4560620D01*
X25036170Y4545634D01*
X25040691Y4531156D01*
X25046940Y4517288D01*
X25054814Y4504283D01*
X25064161Y4492294D01*
X25074930Y4481576D01*
X25086868Y4472178D01*
X25099873Y4464304D01*
X25113742Y4458055D01*
X25128270Y4453534D01*
X25143206Y4450791D01*
G37*

%LPD*%
D10*
X42303700Y6807200D02*
G01*
X42303700Y6464300D01*
X2794000Y7236391D02*
G01*
X2794000Y5842000D01*
X5588000Y5133342D02*
G01*
X5588000Y5842000D01*
X5715000Y5384800D02*
G01*
X5715000Y7419398D01*
X8089900Y8105139D02*
G01*
X8089900Y5382260D01*
X9207500Y7520942D02*
G01*
X9207500Y5483788D01*
X9855200Y7520942D02*
G01*
X9855200Y5382188D01*
X43967400Y6807200D02*
G01*
X43967400Y7419398D01*
X41325800Y6096000D02*
G01*
X41325800Y7236388D01*
X43967412Y5133347D02*
G01*
X43967400Y6096000D01*
X40333190Y4950388D02*
G01*
X40333190Y7416800D01*
X38845307Y5382188D02*
G01*
X38845307Y8105142D01*
X37727707Y7520998D02*
G01*
X37727707Y5382188D01*
X37054607Y5483788D02*
G01*
X37054607Y7520998D01*
X36470432Y5483788D02*
G01*
X36470407Y7416800D01*
X35002104Y5382196D02*
G01*
X35002116Y8105142D01*
X33625607Y5382188D02*
G01*
X33625607Y7416800D01*
X32914407Y5382188D02*
G01*
X32914407Y7520942D01*
X32266707Y5483788D02*
G01*
X32266707Y7520942D01*
X31158903Y5483796D02*
G01*
X31158916Y8105142D01*
X28803600Y5382188D02*
G01*
X28803600Y7416800D01*
X27315716Y5382188D02*
G01*
X27315716Y8105142D01*
X25525016Y7520998D02*
G01*
X25525016Y5483788D01*
X24940841Y5483788D02*
G01*
X24940816Y7416800D01*
X23472513Y5382196D02*
G01*
X23472526Y8105142D01*
X22095990Y5382188D02*
G01*
X22095990Y7416800D01*
X21384790Y5382188D02*
G01*
X21384790Y7520942D01*
X20737090Y5483788D02*
G01*
X20737090Y7520942D01*
X19629287Y5483796D02*
G01*
X19629300Y8105142D01*
X18252790Y5382188D02*
G01*
X18252790Y7416800D01*
X15786100Y5382188D02*
G01*
X15786100Y8105142D01*
X14668538Y7520993D02*
G01*
X14668500Y5382188D01*
X13995400Y5483788D02*
G01*
X13995438Y7520993D01*
X13411225Y5483788D02*
G01*
X13411200Y7416800D01*
X11938000Y5382188D02*
G01*
X11938000Y8105142D01*
X10566400Y5382257D02*
G01*
X10566400Y7416800D01*
X26198116Y7520998D02*
G01*
X26198116Y5382188D01*
X6756400Y5382257D02*
G01*
X6756425Y7419393D01*
D11*
G01*
X41795700Y6464300D03*
D12*
G01*
X42049700Y6464300D03*
G01*
X42303700Y6464300D03*
G01*
X42557700Y6464300D03*
G01*
X42811700Y6464300D03*
G01*
X43065700Y6464300D03*
D13*
G01*
X3073400Y7734300D03*
G01*
X6134100Y5905500D03*
G01*
X43967400Y6807200D03*
G01*
X42303700Y6807200D03*
G01*
X41325800Y6096000D03*
G01*
X43967400Y6096000D03*
G01*
X5588000Y5842000D03*
G01*
X2794000Y5842000D03*
G01*
X2794000Y7236383D03*
G01*
X4161409Y7518400D03*
G01*
X5113909Y7518400D03*
G01*
X5715000Y7419390D03*
G01*
X3073400Y5448300D03*
G01*
X4161409Y5232400D03*
G01*
X5113909Y5232400D03*
G01*
X5588000Y5133339D03*
G01*
X5715000Y5382260D03*
G01*
X6422009Y7518400D03*
G01*
X6422009Y6591300D03*
G01*
X10566400Y7416800D03*
G01*
X10232009Y6591300D03*
G01*
X10232009Y7518400D03*
G01*
X6756400Y5382260D03*
G01*
X7531100Y5905500D03*
G01*
X7819009Y6591300D03*
G01*
X8089900Y8105139D03*
G01*
X7819009Y7518400D03*
G01*
X7670800Y8102600D03*
G01*
X8089900Y5382260D03*
G01*
X11518900Y8102600D03*
G01*
X11667109Y7518400D03*
G01*
X11938000Y8105139D03*
G01*
X11667109Y6591300D03*
G01*
X11379200Y5905500D03*
G01*
X8648700Y6007100D03*
G01*
X9296400Y6007100D03*
G01*
X8936609Y6705600D03*
G01*
X8936609Y7620000D03*
G01*
X9584309Y7620000D03*
G01*
X9584309Y6705600D03*
G01*
X9207500Y7520939D03*
G01*
X9855200Y7520939D03*
G01*
X9944100Y5905500D03*
G01*
X9207500Y5483783D03*
G01*
X12788900Y5905500D03*
G01*
X13076809Y7518400D03*
G01*
X13076809Y6591300D03*
G01*
X13411200Y7416800D03*
G01*
X9855200Y5382183D03*
G01*
X13711809Y7620000D03*
G01*
X14372209Y7620000D03*
G01*
X13711809Y6705600D03*
G01*
X14372209Y6705600D03*
G01*
X14084300Y6007100D03*
G01*
X15515209Y6591300D03*
G01*
X15786100Y8105139D03*
G01*
X15515209Y7518400D03*
G01*
X15367000Y8102600D03*
G01*
X19358406Y6591300D03*
G01*
X19629297Y8105139D03*
G01*
X19358406Y7518400D03*
G01*
X19215100Y8102600D03*
G01*
X18252795Y7416800D03*
G01*
X15227300Y5905500D03*
G01*
X17640300Y5905500D03*
G01*
X21473693Y5905500D03*
G01*
X21384793Y7520939D03*
G01*
X20737093Y7520939D03*
G01*
X21113902Y6705600D03*
G01*
X21113902Y7620000D03*
G01*
X20466202Y7620000D03*
G01*
X20466202Y6705600D03*
G01*
X20825993Y6007100D03*
G01*
X20178293Y6007100D03*
G01*
X21761602Y7518400D03*
G01*
X21761602Y6591300D03*
G01*
X22095993Y7416800D03*
G01*
X23201629Y7518400D03*
G01*
X23472520Y8105139D03*
G01*
X23201629Y6591300D03*
G01*
X27044827Y7518400D03*
G01*
X27315718Y8105139D03*
G01*
X27044827Y6591300D03*
G01*
X24940818Y7416800D03*
G01*
X24606427Y6591300D03*
G01*
X24606427Y7518400D03*
G01*
X24318518Y5905500D03*
G01*
X25613918Y6007100D03*
G01*
X25901827Y6705600D03*
G01*
X25241427Y6705600D03*
G01*
X25901827Y7620000D03*
G01*
X25241427Y7620000D03*
G01*
X28191104Y5905500D03*
G01*
X28803600Y7416800D03*
G01*
X17928209Y6591300D03*
G01*
X17928209Y7518400D03*
G01*
X28479013Y6591300D03*
G01*
X28479013Y7518400D03*
G01*
X26885900Y8102600D03*
G01*
X23050500Y8102600D03*
G01*
X19070497Y5905500D03*
G01*
X22913720Y5905500D03*
G01*
X26756918Y5905500D03*
G01*
X30600116Y5905500D03*
G01*
X30888025Y7518400D03*
G01*
X31158916Y8105139D03*
G01*
X30888025Y6591300D03*
G01*
X33625612Y7416800D03*
G01*
X33291221Y6591300D03*
G01*
X33291221Y7518400D03*
G01*
X31707912Y6007100D03*
G01*
X32355612Y6007100D03*
G01*
X31995821Y6705600D03*
G01*
X31995821Y7620000D03*
G01*
X32643521Y7620000D03*
G01*
X32643521Y6705600D03*
G01*
X32266712Y7520939D03*
G01*
X32914412Y7520939D03*
G01*
X33003312Y5905500D03*
G01*
X34731223Y6591300D03*
G01*
X35002114Y8105139D03*
G01*
X34731223Y7518400D03*
G01*
X34443314Y5905500D03*
G01*
X36136021Y7518400D03*
G01*
X36136021Y6591300D03*
G01*
X36470412Y7416800D03*
G01*
X36771021Y7620000D03*
G01*
X37431421Y7620000D03*
G01*
X36771021Y6705600D03*
G01*
X37431421Y6705600D03*
G01*
X37143512Y6007100D03*
G01*
X30734000Y8102600D03*
G01*
X34582100Y8102600D03*
G01*
X38286512Y5905500D03*
G01*
X38574421Y7518400D03*
G01*
X38845312Y8105139D03*
G01*
X38574421Y6591300D03*
G01*
X38417500Y8102600D03*
G01*
X40008606Y7518400D03*
G01*
X40008606Y6591300D03*
G01*
X39720697Y5905500D03*
G01*
X40333193Y7416800D03*
G01*
X43545912Y5232400D03*
G01*
X42593412Y5232400D03*
G01*
X41505403Y5448300D03*
G01*
X43545912Y7518400D03*
G01*
X42593412Y7518400D03*
G01*
X41505403Y7734300D03*
G01*
X43967400Y7419390D03*
G01*
X41325800Y7236383D03*
G01*
X43967425Y5133339D03*
G01*
X40333193Y4950383D03*
G01*
X38845312Y5382183D03*
G01*
X37727712Y5382183D03*
G01*
X35848112Y5905500D03*
G01*
X37727712Y7520990D03*
G01*
X37054612Y5483783D03*
G01*
X37054612Y7520990D03*
G01*
X36470437Y5483783D03*
G01*
X35002114Y5382183D03*
G01*
X33625612Y5382183D03*
G01*
X32914412Y5382183D03*
G01*
X32266712Y5483783D03*
G01*
X31158916Y5483783D03*
G01*
X28803600Y5382183D03*
G01*
X27315718Y5382183D03*
G01*
X26198118Y7520990D03*
G01*
X25525018Y5483783D03*
G01*
X25525018Y7520990D03*
G01*
X24940844Y5483783D03*
G01*
X23472520Y5382183D03*
G01*
X22095993Y5382183D03*
G01*
X21384793Y5382183D03*
G01*
X20737093Y5483783D03*
G01*
X19629297Y5483783D03*
G01*
X18252795Y5382183D03*
G01*
X15786100Y5382183D03*
G01*
X14668500Y5382183D03*
G01*
X14668550Y7520990D03*
G01*
X13995400Y5483783D03*
G01*
X13995450Y7520990D03*
G01*
X13411225Y5483783D03*
G01*
X11938000Y5382183D03*
G01*
X10566400Y5382260D03*
G01*
X26198118Y5382183D03*
G01*
X6756425Y7419390D03*
G01*
X13347700Y6007100D03*
G01*
X24877318Y6007100D03*
G01*
X36406912Y6007100D03*
M02*
