G04 Layer: BottomSilkscreenLayer*
G04 EasyEDA v6.5.34, 2023-08-27 23:32:40*
G04 d061e9a780f541beb3afb4a1d4dccede,5a6b42c53f6a479593ecc07194224c93,10*
G04 Gerber Generator version 0.2*
G04 Scale: 100 percent, Rotated: No, Reflected: No *
G04 Dimensions in millimeters *
G04 leading zeros omitted , absolute positions ,4 integer and 5 decimal *
%FSLAX45Y45*%
%MOMM*%

%ADD10C,0.2032*%
%ADD11C,0.1520*%
%ADD12C,0.1524*%
%ADD13C,0.2540*%

%LPD*%
D10*
X24320804Y463989D02*
G01*
X24320804Y349445D01*
X24320804Y463989D02*
G01*
X24271714Y463989D01*
X24255351Y458536D01*
X24249895Y453082D01*
X24244442Y442173D01*
X24244442Y425808D01*
X24249895Y414898D01*
X24255351Y409445D01*
X24271714Y403989D01*
X24320804Y403989D01*
X24164805Y463989D02*
G01*
X24208440Y349445D01*
X24164805Y463989D02*
G01*
X24121168Y349445D01*
X24192077Y387626D02*
G01*
X24137533Y387626D01*
X24085168Y463989D02*
G01*
X24085168Y349445D01*
X24085168Y463989D02*
G01*
X24036078Y463989D01*
X24019715Y458536D01*
X24014259Y453082D01*
X24008806Y442173D01*
X24008806Y431264D01*
X24014259Y420354D01*
X24019715Y414898D01*
X24036078Y409445D01*
X24085168Y409445D01*
X24046987Y409445D02*
G01*
X24008806Y349445D01*
X23934623Y463989D02*
G01*
X23934623Y349445D01*
X23972804Y463989D02*
G01*
X23896441Y463989D01*
X23776442Y463989D02*
G01*
X23776442Y349445D01*
X23776442Y463989D02*
G01*
X23700079Y349445D01*
X23700079Y463989D02*
G01*
X23700079Y349445D01*
X23664077Y463989D02*
G01*
X23664077Y382173D01*
X23658624Y365808D01*
X23647714Y354898D01*
X23631352Y349445D01*
X23620442Y349445D01*
X23604077Y354898D01*
X23593170Y365808D01*
X23587715Y382173D01*
X23587715Y463989D01*
X23551715Y463989D02*
G01*
X23551715Y349445D01*
X23551715Y463989D02*
G01*
X23508078Y349445D01*
X23464443Y463989D02*
G01*
X23508078Y349445D01*
X23464443Y463989D02*
G01*
X23464443Y349445D01*
X23428441Y463989D02*
G01*
X23428441Y349445D01*
X23428441Y463989D02*
G01*
X23379351Y463989D01*
X23362988Y458536D01*
X23357535Y453082D01*
X23352079Y442173D01*
X23352079Y431264D01*
X23357535Y420354D01*
X23362988Y414898D01*
X23379351Y409445D01*
X23428441Y409445D02*
G01*
X23379351Y409445D01*
X23362988Y403989D01*
X23357535Y398536D01*
X23352079Y387626D01*
X23352079Y371264D01*
X23357535Y360354D01*
X23362988Y354898D01*
X23379351Y349445D01*
X23428441Y349445D01*
X23316079Y463989D02*
G01*
X23316079Y349445D01*
X23316079Y463989D02*
G01*
X23245170Y463989D01*
X23316079Y409445D02*
G01*
X23272442Y409445D01*
X23316079Y349445D02*
G01*
X23245170Y349445D01*
X23209171Y463989D02*
G01*
X23209171Y349445D01*
X23209171Y463989D02*
G01*
X23160080Y463989D01*
X23143715Y458536D01*
X23138262Y453082D01*
X23132806Y442173D01*
X23132806Y431264D01*
X23138262Y420354D01*
X23143715Y414898D01*
X23160080Y409445D01*
X23209171Y409445D01*
X23170989Y409445D02*
G01*
X23132806Y349445D01*
X23012806Y442173D02*
G01*
X23001897Y447626D01*
X22985534Y463989D01*
X22985534Y349445D01*
X22922263Y463989D02*
G01*
X22938625Y458536D01*
X22944079Y447626D01*
X22944079Y436717D01*
X22938625Y425808D01*
X22927716Y420354D01*
X22905897Y414898D01*
X22889535Y409445D01*
X22878625Y398536D01*
X22873172Y387626D01*
X22873172Y371264D01*
X22878625Y360354D01*
X22884079Y354898D01*
X22900444Y349445D01*
X22922263Y349445D01*
X22938625Y354898D01*
X22944079Y360354D01*
X22949534Y371264D01*
X22949534Y387626D01*
X22944079Y398536D01*
X22933172Y409445D01*
X22916807Y414898D01*
X22894988Y420354D01*
X22884079Y425808D01*
X22878625Y436717D01*
X22878625Y447626D01*
X22884079Y458536D01*
X22900444Y463989D01*
X22922263Y463989D01*
X22771717Y463989D02*
G01*
X22826261Y463989D01*
X22831717Y414898D01*
X22826261Y420354D01*
X22809898Y425808D01*
X22793535Y425808D01*
X22777170Y420354D01*
X22766261Y409445D01*
X22760807Y393082D01*
X22760807Y382173D01*
X22766261Y365808D01*
X22777170Y354898D01*
X22793535Y349445D01*
X22809898Y349445D01*
X22826261Y354898D01*
X22831717Y360354D01*
X22837170Y371264D01*
X22692080Y463989D02*
G01*
X22708443Y458536D01*
X22719352Y442173D01*
X22724808Y414898D01*
X22724808Y398536D01*
X22719352Y371264D01*
X22708443Y354898D01*
X22692080Y349445D01*
X22681171Y349445D01*
X22664808Y354898D01*
X22653899Y371264D01*
X22648443Y398536D01*
X22648443Y414898D01*
X22653899Y442173D01*
X22664808Y458536D01*
X22681171Y463989D01*
X22692080Y463989D01*
X22612443Y398536D02*
G01*
X22514262Y398536D01*
X22445535Y463989D02*
G01*
X22461898Y458536D01*
X22472807Y442173D01*
X22478263Y414898D01*
X22478263Y398536D01*
X22472807Y371264D01*
X22461898Y354898D01*
X22445535Y349445D01*
X22434626Y349445D01*
X22418263Y354898D01*
X22407354Y371264D01*
X22401898Y398536D01*
X22401898Y414898D01*
X22407354Y442173D01*
X22418263Y458536D01*
X22434626Y463989D01*
X22445535Y463989D01*
X22360445Y436717D02*
G01*
X22360445Y442173D01*
X22354989Y453082D01*
X22349536Y458536D01*
X22338626Y463989D01*
X22316808Y463989D01*
X22305899Y458536D01*
X22300445Y453082D01*
X22294989Y442173D01*
X22294989Y431264D01*
X22300445Y420354D01*
X22311354Y403989D01*
X22365898Y349445D01*
X22289536Y349445D01*
X22220809Y463989D02*
G01*
X22237171Y458536D01*
X22248080Y442173D01*
X22253536Y414898D01*
X22253536Y398536D01*
X22248080Y371264D01*
X22237171Y354898D01*
X22220809Y349445D01*
X22209899Y349445D01*
X22193537Y354898D01*
X22182627Y371264D01*
X22177171Y398536D01*
X22177171Y414898D01*
X22182627Y442173D01*
X22193537Y458536D01*
X22209899Y463989D01*
X22220809Y463989D01*
X22141172Y442173D02*
G01*
X22130263Y447626D01*
X22113900Y463989D01*
X22113900Y349445D01*
X25437937Y244426D02*
G01*
X25448846Y255336D01*
X25465209Y260789D01*
X25487028Y260789D01*
X25503390Y255336D01*
X25514300Y244426D01*
X25514300Y233517D01*
X25508846Y222608D01*
X25503390Y217154D01*
X25492481Y211698D01*
X25459753Y200789D01*
X25448846Y195336D01*
X25443390Y189882D01*
X25437937Y178973D01*
X25437937Y162608D01*
X25448846Y151698D01*
X25465209Y146245D01*
X25487028Y146245D01*
X25503390Y151698D01*
X25514300Y162608D01*
X25401935Y260789D02*
G01*
X25401935Y178973D01*
X25396482Y162608D01*
X25385572Y151698D01*
X25369210Y146245D01*
X25358300Y146245D01*
X25341935Y151698D01*
X25331028Y162608D01*
X25325572Y178973D01*
X25325572Y260789D01*
X25289573Y260789D02*
G01*
X25289573Y146245D01*
X25289573Y260789D02*
G01*
X25240482Y260789D01*
X25224117Y255336D01*
X25218664Y249882D01*
X25213210Y238973D01*
X25213210Y228064D01*
X25218664Y217154D01*
X25224117Y211698D01*
X25240482Y206245D01*
X25289573Y206245D02*
G01*
X25240482Y206245D01*
X25224117Y200789D01*
X25218664Y195336D01*
X25213210Y184426D01*
X25213210Y168064D01*
X25218664Y157154D01*
X25224117Y151698D01*
X25240482Y146245D01*
X25289573Y146245D01*
X25100846Y244426D02*
G01*
X25111755Y255336D01*
X25128118Y260789D01*
X25149936Y260789D01*
X25166299Y255336D01*
X25177208Y244426D01*
X25177208Y233517D01*
X25171755Y222608D01*
X25166299Y217154D01*
X25155390Y211698D01*
X25122665Y200789D01*
X25111755Y195336D01*
X25106299Y189882D01*
X25100846Y178973D01*
X25100846Y162608D01*
X25111755Y151698D01*
X25128118Y146245D01*
X25149936Y146245D01*
X25166299Y151698D01*
X25177208Y162608D01*
X25026665Y260789D02*
G01*
X25026665Y146245D01*
X25064847Y260789D02*
G01*
X24988481Y260789D01*
X24908847Y260789D02*
G01*
X24952482Y146245D01*
X24908847Y260789D02*
G01*
X24865210Y146245D01*
X24936119Y184426D02*
G01*
X24881573Y184426D01*
X24791029Y260789D02*
G01*
X24791029Y146245D01*
X24829211Y260789D02*
G01*
X24752846Y260789D01*
X24716846Y260789D02*
G01*
X24716846Y146245D01*
X24648119Y260789D02*
G01*
X24659028Y255336D01*
X24669937Y244426D01*
X24675391Y233517D01*
X24680847Y217154D01*
X24680847Y189882D01*
X24675391Y173517D01*
X24669937Y162608D01*
X24659028Y151698D01*
X24648119Y146245D01*
X24626300Y146245D01*
X24615391Y151698D01*
X24604484Y162608D01*
X24599028Y173517D01*
X24593575Y189882D01*
X24593575Y217154D01*
X24599028Y233517D01*
X24604484Y244426D01*
X24615391Y255336D01*
X24626300Y260789D01*
X24648119Y260789D01*
X24557573Y260789D02*
G01*
X24557573Y146245D01*
X24557573Y260789D02*
G01*
X24481210Y146245D01*
X24481210Y260789D02*
G01*
X24481210Y146245D01*
X24284848Y244426D02*
G01*
X24295757Y255336D01*
X24312120Y260789D01*
X24333939Y260789D01*
X24350301Y255336D01*
X24361211Y244426D01*
X24361211Y233517D01*
X24355757Y222608D01*
X24350301Y217154D01*
X24339392Y211698D01*
X24306667Y200789D01*
X24295757Y195336D01*
X24290301Y189882D01*
X24284848Y178973D01*
X24284848Y162608D01*
X24295757Y151698D01*
X24312120Y146245D01*
X24333939Y146245D01*
X24350301Y151698D01*
X24361211Y162608D01*
X24248849Y260789D02*
G01*
X24248849Y146245D01*
X24212847Y260789D02*
G01*
X24212847Y146245D01*
X24212847Y260789D02*
G01*
X24169212Y146245D01*
X24125575Y260789D02*
G01*
X24169212Y146245D01*
X24125575Y260789D02*
G01*
X24125575Y146245D01*
X24089575Y260789D02*
G01*
X24089575Y178973D01*
X24084119Y162608D01*
X24073213Y151698D01*
X24056848Y146245D01*
X24045938Y146245D01*
X24029576Y151698D01*
X24018666Y162608D01*
X24013213Y178973D01*
X24013213Y260789D01*
X23977211Y260789D02*
G01*
X23977211Y146245D01*
X23977211Y146245D02*
G01*
X23911758Y146245D01*
X23832121Y260789D02*
G01*
X23875758Y146245D01*
X23832121Y260789D02*
G01*
X23788484Y146245D01*
X23859393Y184426D02*
G01*
X23804849Y184426D01*
X23714303Y260789D02*
G01*
X23714303Y146245D01*
X23752484Y260789D02*
G01*
X23676122Y260789D01*
X23607395Y260789D02*
G01*
X23618304Y255336D01*
X23629213Y244426D01*
X23634666Y233517D01*
X23640122Y217154D01*
X23640122Y189882D01*
X23634666Y173517D01*
X23629213Y162608D01*
X23618304Y151698D01*
X23607395Y146245D01*
X23585576Y146245D01*
X23574667Y151698D01*
X23563757Y162608D01*
X23558304Y173517D01*
X23552848Y189882D01*
X23552848Y217154D01*
X23558304Y233517D01*
X23563757Y244426D01*
X23574667Y255336D01*
X23585576Y260789D01*
X23607395Y260789D01*
X23516849Y260789D02*
G01*
X23516849Y146245D01*
X23516849Y260789D02*
G01*
X23467758Y260789D01*
X23451395Y255336D01*
X23445939Y249882D01*
X23440486Y238973D01*
X23440486Y228064D01*
X23445939Y217154D01*
X23451395Y211698D01*
X23467758Y206245D01*
X23516849Y206245D01*
X23478667Y206245D02*
G01*
X23440486Y146245D01*
X23320486Y260789D02*
G01*
X23320486Y146245D01*
X23320486Y146245D02*
G01*
X23255030Y146245D01*
X23219031Y260789D02*
G01*
X23219031Y146245D01*
X23219031Y260789D02*
G01*
X23148122Y260789D01*
X23219031Y206245D02*
G01*
X23175394Y206245D01*
X23219031Y146245D02*
G01*
X23148122Y146245D01*
X23112122Y260789D02*
G01*
X23112122Y146245D01*
X23112122Y260789D02*
G01*
X23073941Y260789D01*
X23057576Y255336D01*
X23046669Y244426D01*
X23041213Y233517D01*
X23035760Y217154D01*
X23035760Y189882D01*
X23041213Y173517D01*
X23046669Y162608D01*
X23057576Y151698D01*
X23073941Y146245D01*
X23112122Y146245D01*
X22915760Y260789D02*
G01*
X22915760Y146245D01*
X22915760Y260789D02*
G01*
X22866670Y260789D01*
X22850304Y255336D01*
X22844851Y249882D01*
X22839395Y238973D01*
X22839395Y228064D01*
X22844851Y217154D01*
X22850304Y211698D01*
X22866670Y206245D01*
X22915760Y206245D02*
G01*
X22866670Y206245D01*
X22850304Y200789D01*
X22844851Y195336D01*
X22839395Y184426D01*
X22839395Y168064D01*
X22844851Y157154D01*
X22850304Y151698D01*
X22866670Y146245D01*
X22915760Y146245D01*
X22770668Y260789D02*
G01*
X22781577Y255336D01*
X22792486Y244426D01*
X22797942Y233517D01*
X22803396Y217154D01*
X22803396Y189882D01*
X22797942Y173517D01*
X22792486Y162608D01*
X22781577Y151698D01*
X22770668Y146245D01*
X22748852Y146245D01*
X22737942Y151698D01*
X22727033Y162608D01*
X22721577Y173517D01*
X22716124Y189882D01*
X22716124Y217154D01*
X22721577Y233517D01*
X22727033Y244426D01*
X22737942Y255336D01*
X22748852Y260789D01*
X22770668Y260789D01*
X22636487Y260789D02*
G01*
X22680124Y146245D01*
X22636487Y260789D02*
G01*
X22592850Y146245D01*
X22663759Y184426D02*
G01*
X22609215Y184426D01*
X22556850Y260789D02*
G01*
X22556850Y146245D01*
X22556850Y260789D02*
G01*
X22507760Y260789D01*
X22491397Y255336D01*
X22485941Y249882D01*
X22480488Y238973D01*
X22480488Y228064D01*
X22485941Y217154D01*
X22491397Y211698D01*
X22507760Y206245D01*
X22556850Y206245D01*
X22518669Y206245D02*
G01*
X22480488Y146245D01*
X22444489Y260789D02*
G01*
X22444489Y146245D01*
X22444489Y260789D02*
G01*
X22406305Y260789D01*
X22389942Y255336D01*
X22379033Y244426D01*
X22373579Y233517D01*
X22368123Y217154D01*
X22368123Y189882D01*
X22373579Y173517D01*
X22379033Y162608D01*
X22389942Y151698D01*
X22406305Y146245D01*
X22444489Y146245D01*
X22248124Y260789D02*
G01*
X22204489Y146245D01*
X22160852Y260789D02*
G01*
X22204489Y146245D01*
X22124852Y238973D02*
G01*
X22113943Y244426D01*
X22097578Y260789D01*
X22097578Y146245D01*
X22056125Y173517D02*
G01*
X22061578Y168064D01*
X22056125Y162608D01*
X22050669Y168064D01*
X22056125Y173517D01*
X22014670Y238973D02*
G01*
X22003760Y244426D01*
X21987398Y260789D01*
X21987398Y146245D01*
X21867398Y195336D02*
G01*
X21769217Y195336D01*
X21649217Y260789D02*
G01*
X21649217Y146245D01*
X21649217Y260789D02*
G01*
X21600126Y260789D01*
X21583761Y255336D01*
X21578308Y249882D01*
X21572852Y238973D01*
X21572852Y228064D01*
X21578308Y217154D01*
X21583761Y211698D01*
X21600126Y206245D01*
X21649217Y206245D02*
G01*
X21600126Y206245D01*
X21583761Y200789D01*
X21578308Y195336D01*
X21572852Y184426D01*
X21572852Y168064D01*
X21578308Y157154D01*
X21583761Y151698D01*
X21600126Y146245D01*
X21649217Y146245D01*
X21504125Y260789D02*
G01*
X21515034Y255336D01*
X21525943Y244426D01*
X21531399Y233517D01*
X21536853Y217154D01*
X21536853Y189882D01*
X21531399Y173517D01*
X21525943Y162608D01*
X21515034Y151698D01*
X21504125Y146245D01*
X21482309Y146245D01*
X21471399Y151698D01*
X21460490Y162608D01*
X21455034Y173517D01*
X21449581Y189882D01*
X21449581Y217154D01*
X21455034Y233517D01*
X21460490Y244426D01*
X21471399Y255336D01*
X21482309Y260789D01*
X21504125Y260789D01*
X21375397Y260789D02*
G01*
X21375397Y146245D01*
X21413581Y260789D02*
G01*
X21337216Y260789D01*
X21263035Y260789D02*
G01*
X21263035Y146245D01*
X21301217Y260789D02*
G01*
X21224854Y260789D01*
X21156127Y260789D02*
G01*
X21167036Y255336D01*
X21177945Y244426D01*
X21183399Y233517D01*
X21188855Y217154D01*
X21188855Y189882D01*
X21183399Y173517D01*
X21177945Y162608D01*
X21167036Y151698D01*
X21156127Y146245D01*
X21134308Y146245D01*
X21123399Y151698D01*
X21112490Y162608D01*
X21107036Y173517D01*
X21101580Y189882D01*
X21101580Y217154D01*
X21107036Y233517D01*
X21112490Y244426D01*
X21123399Y255336D01*
X21134308Y260789D01*
X21156127Y260789D01*
X21065581Y260789D02*
G01*
X21065581Y146245D01*
X21065581Y260789D02*
G01*
X21021944Y146245D01*
X20978309Y260789D02*
G01*
X21021944Y146245D01*
X20978309Y260789D02*
G01*
X20978309Y146245D01*
D11*
X39876846Y267751D02*
G01*
X39876846Y184624D01*
X39882043Y169037D01*
X39887237Y163842D01*
X39897629Y158648D01*
X39908020Y158648D01*
X39918411Y163842D01*
X39923608Y169037D01*
X39928802Y184624D01*
X39928802Y195016D01*
X39842556Y267751D02*
G01*
X39842556Y158648D01*
X39842556Y158648D02*
G01*
X39780212Y158648D01*
X39667990Y241774D02*
G01*
X39673187Y252166D01*
X39683578Y262557D01*
X39693966Y267751D01*
X39714749Y267751D01*
X39725140Y262557D01*
X39735531Y252166D01*
X39740728Y241774D01*
X39745922Y226187D01*
X39745922Y200210D01*
X39740728Y184624D01*
X39735531Y174233D01*
X39725140Y163842D01*
X39714749Y158648D01*
X39693966Y158648D01*
X39683578Y163842D01*
X39673187Y174233D01*
X39667990Y184624D01*
X39581747Y267751D02*
G01*
X39581747Y184624D01*
X39586941Y169037D01*
X39592138Y163842D01*
X39602526Y158648D01*
X39612917Y158648D01*
X39623309Y163842D01*
X39628505Y169037D01*
X39633700Y184624D01*
X39633700Y195016D01*
X39547457Y267751D02*
G01*
X39547457Y158648D01*
X39547457Y158648D02*
G01*
X39485110Y158648D01*
X39372887Y241774D02*
G01*
X39378084Y252166D01*
X39388475Y262557D01*
X39398867Y267751D01*
X39419646Y267751D01*
X39430037Y262557D01*
X39440429Y252166D01*
X39445625Y241774D01*
X39450820Y226187D01*
X39450820Y200210D01*
X39445625Y184624D01*
X39440429Y174233D01*
X39430037Y163842D01*
X39419646Y158648D01*
X39398867Y158648D01*
X39388475Y163842D01*
X39378084Y174233D01*
X39372887Y184624D01*
X39286644Y267751D02*
G01*
X39286644Y184624D01*
X39291839Y169037D01*
X39297035Y163842D01*
X39307427Y158648D01*
X39317818Y158648D01*
X39328206Y163842D01*
X39333403Y169037D01*
X39338597Y184624D01*
X39338597Y195016D01*
X39252354Y267751D02*
G01*
X39252354Y158648D01*
X39252354Y158648D02*
G01*
X39190007Y158648D01*
X39077788Y241774D02*
G01*
X39082982Y252166D01*
X39093373Y262557D01*
X39103764Y267751D01*
X39124547Y267751D01*
X39134938Y262557D01*
X39145326Y252166D01*
X39150523Y241774D01*
X39155717Y226187D01*
X39155717Y200210D01*
X39150523Y184624D01*
X39145326Y174233D01*
X39134938Y163842D01*
X39124547Y158648D01*
X39103764Y158648D01*
X39093373Y163842D01*
X39082982Y174233D01*
X39077788Y184624D01*
X38991542Y267751D02*
G01*
X38991542Y184624D01*
X38996736Y169037D01*
X39001933Y163842D01*
X39012324Y158648D01*
X39022715Y158648D01*
X39033107Y163842D01*
X39038301Y169037D01*
X39043498Y184624D01*
X39043498Y195016D01*
X38957252Y267751D02*
G01*
X38957252Y158648D01*
X38957252Y158648D02*
G01*
X38894908Y158648D01*
X38782685Y241774D02*
G01*
X38787880Y252166D01*
X38798271Y262557D01*
X38808662Y267751D01*
X38829444Y267751D01*
X38839835Y262557D01*
X38850227Y252166D01*
X38855421Y241774D01*
X38860618Y226187D01*
X38860618Y200210D01*
X38855421Y184624D01*
X38850227Y174233D01*
X38839835Y163842D01*
X38829444Y158648D01*
X38808662Y158648D01*
X38798271Y163842D01*
X38787880Y174233D01*
X38782685Y184624D01*
D12*
X39850867Y444962D02*
G01*
X39856064Y455353D01*
X39866455Y465744D01*
X39876844Y470938D01*
X39897626Y470938D01*
X39908017Y465744D01*
X39918408Y455353D01*
X39923605Y444962D01*
X39928800Y429374D01*
X39928800Y403397D01*
X39923605Y387812D01*
X39918408Y377421D01*
X39908017Y367029D01*
X39897626Y361835D01*
X39876844Y361835D01*
X39866455Y367029D01*
X39856064Y377421D01*
X39850867Y387812D01*
X39785404Y470938D02*
G01*
X39795795Y465744D01*
X39806186Y455353D01*
X39811383Y444962D01*
X39816577Y429374D01*
X39816577Y403397D01*
X39811383Y387812D01*
X39806186Y377421D01*
X39795795Y367029D01*
X39785404Y361835D01*
X39764624Y361835D01*
X39754233Y367029D01*
X39743842Y377421D01*
X39738645Y387812D01*
X39733451Y403397D01*
X39733451Y429374D01*
X39738645Y444962D01*
X39743842Y455353D01*
X39754233Y465744D01*
X39764624Y470938D01*
X39785404Y470938D01*
X39699161Y470938D02*
G01*
X39699161Y361835D01*
X39699161Y470938D02*
G01*
X39652402Y470938D01*
X39636814Y465744D01*
X39631620Y460547D01*
X39626425Y450156D01*
X39626425Y434571D01*
X39631620Y424179D01*
X39636814Y418985D01*
X39652402Y413788D01*
X39699161Y413788D01*
X39592135Y470938D02*
G01*
X39550571Y418985D01*
X39550571Y361835D01*
X39509006Y470938D02*
G01*
X39550571Y418985D01*
X39474716Y470938D02*
G01*
X39474716Y361835D01*
X39474716Y470938D02*
G01*
X39427957Y470938D01*
X39412372Y465744D01*
X39407175Y460547D01*
X39401981Y450156D01*
X39401981Y439765D01*
X39407175Y429374D01*
X39412372Y424179D01*
X39427957Y418985D01*
X39474716Y418985D01*
X39438348Y418985D02*
G01*
X39401981Y361835D01*
X39367691Y470938D02*
G01*
X39367691Y361835D01*
X39255468Y444962D02*
G01*
X39260665Y455353D01*
X39271054Y465744D01*
X39281445Y470938D01*
X39302227Y470938D01*
X39312618Y465744D01*
X39323009Y455353D01*
X39328204Y444962D01*
X39333401Y429374D01*
X39333401Y403397D01*
X39328204Y387812D01*
X39323009Y377421D01*
X39312618Y367029D01*
X39302227Y361835D01*
X39281445Y361835D01*
X39271054Y367029D01*
X39260665Y377421D01*
X39255468Y387812D01*
X39255468Y403397D01*
X39281445Y403397D02*
G01*
X39255468Y403397D01*
X39221178Y470938D02*
G01*
X39221178Y361835D01*
X39148443Y470938D02*
G01*
X39148443Y361835D01*
X39221178Y418985D02*
G01*
X39148443Y418985D01*
X39077785Y470938D02*
G01*
X39077785Y361835D01*
X39114153Y470938D02*
G01*
X39041415Y470938D01*
X38921921Y444962D02*
G01*
X38921921Y450156D01*
X38916724Y460547D01*
X38911529Y465744D01*
X38901138Y470938D01*
X38880356Y470938D01*
X38869965Y465744D01*
X38864771Y460547D01*
X38859574Y450156D01*
X38859574Y439765D01*
X38864771Y429374D01*
X38875162Y413788D01*
X38927115Y361835D01*
X38854379Y361835D01*
X38788916Y470938D02*
G01*
X38804504Y465744D01*
X38814895Y450156D01*
X38820090Y424179D01*
X38820090Y408594D01*
X38814895Y382615D01*
X38804504Y367029D01*
X38788916Y361835D01*
X38778525Y361835D01*
X38762940Y367029D01*
X38752548Y382615D01*
X38747354Y408594D01*
X38747354Y424179D01*
X38752548Y450156D01*
X38762940Y465744D01*
X38778525Y470938D01*
X38788916Y470938D01*
X38707867Y444962D02*
G01*
X38707867Y450156D01*
X38702673Y460547D01*
X38697476Y465744D01*
X38687085Y470938D01*
X38666305Y470938D01*
X38655914Y465744D01*
X38650717Y460547D01*
X38645523Y450156D01*
X38645523Y439765D01*
X38650717Y429374D01*
X38661108Y413788D01*
X38713064Y361835D01*
X38640326Y361835D01*
X38595645Y470938D02*
G01*
X38538495Y470938D01*
X38569668Y429374D01*
X38554083Y429374D01*
X38543692Y424179D01*
X38538495Y418985D01*
X38533301Y403397D01*
X38533301Y393006D01*
X38538495Y377421D01*
X38548886Y367029D01*
X38564474Y361835D01*
X38580059Y361835D01*
X38595645Y367029D01*
X38600842Y372224D01*
X38606036Y382615D01*
X38419001Y470938D02*
G01*
X38377436Y361835D01*
X38335874Y470938D02*
G01*
X38377436Y361835D01*
X38301584Y470938D02*
G01*
X38301584Y361835D01*
X38301584Y470938D02*
G01*
X38234043Y470938D01*
X38301584Y418985D02*
G01*
X38260020Y418985D01*
X38301584Y361835D02*
G01*
X38234043Y361835D01*
X38127015Y470938D02*
G01*
X38178971Y361835D01*
X38199753Y470938D02*
G01*
X38127015Y470938D01*
X38092725Y470938D02*
G01*
X38092725Y361835D01*
X38092725Y470938D02*
G01*
X38025184Y470938D01*
X38092725Y418985D02*
G01*
X38051163Y418985D01*
X37990894Y470938D02*
G01*
X37990894Y361835D01*
X37956604Y470938D02*
G01*
X37956604Y361835D01*
X37956604Y470938D02*
G01*
X37915042Y361835D01*
X37873477Y470938D02*
G01*
X37915042Y361835D01*
X37873477Y470938D02*
G01*
X37873477Y361835D01*
X41984467Y6718762D02*
G01*
X41989664Y6729153D01*
X42000055Y6739544D01*
X42010444Y6744738D01*
X42031226Y6744738D01*
X42041617Y6739544D01*
X42052008Y6729153D01*
X42057205Y6718762D01*
X42062400Y6703174D01*
X42062400Y6677197D01*
X42057205Y6661612D01*
X42052008Y6651221D01*
X42041617Y6640829D01*
X42031226Y6635635D01*
X42010444Y6635635D01*
X42000055Y6640829D01*
X41989664Y6651221D01*
X41984467Y6661612D01*
X41984467Y6677197D01*
X42010444Y6677197D02*
G01*
X41984467Y6677197D01*
X41950177Y6744738D02*
G01*
X41950177Y6635635D01*
X41950177Y6744738D02*
G01*
X41877442Y6635635D01*
X41877442Y6744738D02*
G01*
X41877442Y6635635D01*
X41843152Y6744738D02*
G01*
X41843152Y6635635D01*
X41843152Y6744738D02*
G01*
X41806784Y6744738D01*
X41791196Y6739544D01*
X41780805Y6729153D01*
X41775611Y6718762D01*
X41770414Y6703174D01*
X41770414Y6677197D01*
X41775611Y6661612D01*
X41780805Y6651221D01*
X41791196Y6640829D01*
X41806784Y6635635D01*
X41843152Y6635635D01*
X42354500Y6287538D02*
G01*
X42354500Y6178435D01*
X42320209Y6287538D02*
G01*
X42320209Y6178435D01*
X42320209Y6287538D02*
G01*
X42247474Y6178435D01*
X42247474Y6287538D02*
G01*
X42247474Y6178435D01*
X42965255Y6744738D02*
G01*
X43017208Y6744738D01*
X43022405Y6697979D01*
X43017208Y6703174D01*
X43001623Y6708371D01*
X42986035Y6708371D01*
X42970450Y6703174D01*
X42960058Y6692785D01*
X42954864Y6677197D01*
X42954864Y6666806D01*
X42960058Y6651221D01*
X42970450Y6640829D01*
X42986035Y6635635D01*
X43001623Y6635635D01*
X43017208Y6640829D01*
X43022405Y6646024D01*
X43027600Y6656415D01*
X42920574Y6744738D02*
G01*
X42879009Y6635635D01*
X42837445Y6744738D02*
G01*
X42879009Y6635635D01*
X43331244Y6516138D02*
G01*
X43331244Y6433012D01*
X43336441Y6417424D01*
X43341635Y6412229D01*
X43352026Y6407035D01*
X43362417Y6407035D01*
X43372808Y6412229D01*
X43378005Y6417424D01*
X43383200Y6433012D01*
X43383200Y6443403D01*
X43296954Y6495356D02*
G01*
X43286565Y6500553D01*
X43270977Y6516138D01*
X43270977Y6407035D01*
D13*
X43213700Y6337300D02*
G01*
X43213700Y6591300D01*
X41647699Y6337300D02*
G01*
X43213700Y6337300D01*
X41647699Y6591300D02*
G01*
X43213700Y6591300D01*
X41925052Y6337300D02*
G01*
X41925052Y6591300D01*
X41647699Y6337300D02*
G01*
X41647699Y6591300D01*
M02*
