G04 Layer: TopSilkscreenLayer*
G04 EasyEDA v6.5.34, 2023-08-27 23:32:40*
G04 d061e9a780f541beb3afb4a1d4dccede,5a6b42c53f6a479593ecc07194224c93,10*
G04 Gerber Generator version 0.2*
G04 Scale: 100 percent, Rotated: No, Reflected: No *
G04 Dimensions in millimeters *
G04 leading zeros omitted , absolute positions ,4 integer and 5 decimal *
%FSLAX45Y45*%
%MOMM*%

%ADD10C,0.2032*%
%ADD11C,0.1524*%
%ADD12C,0.2540*%

%LPD*%
D10*
X21234654Y244347D02*
G01*
X21223731Y255270D01*
X21207222Y260857D01*
X21185377Y260857D01*
X21169122Y255270D01*
X21158200Y244347D01*
X21158200Y233426D01*
X21163534Y222504D01*
X21169122Y217170D01*
X21180043Y211581D01*
X21212809Y200913D01*
X21223731Y195326D01*
X21229066Y189992D01*
X21234654Y179070D01*
X21234654Y162560D01*
X21223731Y151637D01*
X21207222Y146304D01*
X21185377Y146304D01*
X21169122Y151637D01*
X21158200Y162560D01*
X21270468Y260857D02*
G01*
X21270468Y179070D01*
X21276056Y162560D01*
X21286977Y151637D01*
X21303234Y146304D01*
X21314156Y146304D01*
X21330666Y151637D01*
X21341588Y162560D01*
X21346922Y179070D01*
X21346922Y260857D01*
X21382990Y260857D02*
G01*
X21382990Y146304D01*
X21382990Y260857D02*
G01*
X21432011Y260857D01*
X21448268Y255270D01*
X21453856Y249936D01*
X21459190Y239013D01*
X21459190Y228092D01*
X21453856Y217170D01*
X21448268Y211581D01*
X21432011Y206247D01*
X21382990Y206247D02*
G01*
X21432011Y206247D01*
X21448268Y200913D01*
X21453856Y195326D01*
X21459190Y184404D01*
X21459190Y168147D01*
X21453856Y157226D01*
X21448268Y151637D01*
X21432011Y146304D01*
X21382990Y146304D01*
X21571711Y244347D02*
G01*
X21560790Y255270D01*
X21544279Y260857D01*
X21522436Y260857D01*
X21506179Y255270D01*
X21495258Y244347D01*
X21495258Y233426D01*
X21500845Y222504D01*
X21506179Y217170D01*
X21517102Y211581D01*
X21549868Y200913D01*
X21560790Y195326D01*
X21566124Y189992D01*
X21571711Y179070D01*
X21571711Y162560D01*
X21560790Y151637D01*
X21544279Y146304D01*
X21522436Y146304D01*
X21506179Y151637D01*
X21495258Y162560D01*
X21645879Y260857D02*
G01*
X21645879Y146304D01*
X21607779Y260857D02*
G01*
X21683979Y260857D01*
X21763736Y260857D02*
G01*
X21720048Y146304D01*
X21763736Y260857D02*
G01*
X21807170Y146304D01*
X21736304Y184404D02*
G01*
X21790913Y184404D01*
X21881591Y260857D02*
G01*
X21881591Y146304D01*
X21843238Y260857D02*
G01*
X21919691Y260857D01*
X21955759Y260857D02*
G01*
X21955759Y146304D01*
X22024340Y260857D02*
G01*
X22013418Y255270D01*
X22002495Y244347D01*
X21997161Y233426D01*
X21991574Y217170D01*
X21991574Y189992D01*
X21997161Y173481D01*
X22002495Y162560D01*
X22013418Y151637D01*
X22024340Y146304D01*
X22046184Y146304D01*
X22057106Y151637D01*
X22068027Y162560D01*
X22073361Y173481D01*
X22078950Y189992D01*
X22078950Y217170D01*
X22073361Y233426D01*
X22068027Y244347D01*
X22057106Y255270D01*
X22046184Y260857D01*
X22024340Y260857D01*
X22115018Y260857D02*
G01*
X22115018Y146304D01*
X22115018Y260857D02*
G01*
X22191218Y146304D01*
X22191218Y260857D02*
G01*
X22191218Y146304D01*
X22387559Y244347D02*
G01*
X22376638Y255270D01*
X22360381Y260857D01*
X22338538Y260857D01*
X22322281Y255270D01*
X22311359Y244347D01*
X22311359Y233426D01*
X22316693Y222504D01*
X22322281Y217170D01*
X22333204Y211581D01*
X22365716Y200913D01*
X22376638Y195326D01*
X22382225Y189992D01*
X22387559Y179070D01*
X22387559Y162560D01*
X22376638Y151637D01*
X22360381Y146304D01*
X22338538Y146304D01*
X22322281Y151637D01*
X22311359Y162560D01*
X22423627Y260857D02*
G01*
X22423627Y146304D01*
X22459695Y260857D02*
G01*
X22459695Y146304D01*
X22459695Y260857D02*
G01*
X22503384Y146304D01*
X22546818Y260857D02*
G01*
X22503384Y146304D01*
X22546818Y260857D02*
G01*
X22546818Y146304D01*
X22582886Y260857D02*
G01*
X22582886Y179070D01*
X22588474Y162560D01*
X22599395Y151637D01*
X22615652Y146304D01*
X22626574Y146304D01*
X22642829Y151637D01*
X22653752Y162560D01*
X22659340Y179070D01*
X22659340Y260857D01*
X22695408Y260857D02*
G01*
X22695408Y146304D01*
X22695408Y146304D02*
G01*
X22760686Y146304D01*
X22840441Y260857D02*
G01*
X22796754Y146304D01*
X22840441Y260857D02*
G01*
X22884129Y146304D01*
X22813009Y184404D02*
G01*
X22867620Y184404D01*
X22958298Y260857D02*
G01*
X22958298Y146304D01*
X22919943Y260857D02*
G01*
X22996398Y260857D01*
X23065231Y260857D02*
G01*
X23054309Y255270D01*
X23043388Y244347D01*
X23037800Y233426D01*
X23032466Y217170D01*
X23032466Y189992D01*
X23037800Y173481D01*
X23043388Y162560D01*
X23054309Y151637D01*
X23065231Y146304D01*
X23086822Y146304D01*
X23097743Y151637D01*
X23108666Y162560D01*
X23114254Y173481D01*
X23119588Y189992D01*
X23119588Y217170D01*
X23114254Y233426D01*
X23108666Y244347D01*
X23097743Y255270D01*
X23086822Y260857D01*
X23065231Y260857D01*
X23155656Y260857D02*
G01*
X23155656Y146304D01*
X23155656Y260857D02*
G01*
X23204677Y260857D01*
X23221188Y255270D01*
X23226522Y249936D01*
X23232109Y239013D01*
X23232109Y228092D01*
X23226522Y217170D01*
X23221188Y211581D01*
X23204677Y206247D01*
X23155656Y206247D01*
X23193756Y206247D02*
G01*
X23232109Y146304D01*
X23351998Y260857D02*
G01*
X23351998Y146304D01*
X23351998Y146304D02*
G01*
X23417529Y146304D01*
X23453343Y260857D02*
G01*
X23453343Y146304D01*
X23453343Y260857D02*
G01*
X23524463Y260857D01*
X23453343Y206247D02*
G01*
X23497031Y206247D01*
X23453343Y146304D02*
G01*
X23524463Y146304D01*
X23560277Y260857D02*
G01*
X23560277Y146304D01*
X23560277Y260857D02*
G01*
X23598631Y260857D01*
X23614888Y255270D01*
X23625809Y244347D01*
X23631398Y233426D01*
X23636731Y217170D01*
X23636731Y189992D01*
X23631398Y173481D01*
X23625809Y162560D01*
X23614888Y151637D01*
X23598631Y146304D01*
X23560277Y146304D01*
X23756620Y260857D02*
G01*
X23756620Y146304D01*
X23756620Y260857D02*
G01*
X23805895Y260857D01*
X23822152Y255270D01*
X23827740Y249936D01*
X23833074Y239013D01*
X23833074Y228092D01*
X23827740Y217170D01*
X23822152Y211581D01*
X23805895Y206247D01*
X23756620Y206247D02*
G01*
X23805895Y206247D01*
X23822152Y200913D01*
X23827740Y195326D01*
X23833074Y184404D01*
X23833074Y168147D01*
X23827740Y157226D01*
X23822152Y151637D01*
X23805895Y146304D01*
X23756620Y146304D01*
X23901908Y260857D02*
G01*
X23890986Y255270D01*
X23880063Y244347D01*
X23874475Y233426D01*
X23869141Y217170D01*
X23869141Y189992D01*
X23874475Y173481D01*
X23880063Y162560D01*
X23890986Y151637D01*
X23901908Y146304D01*
X23923752Y146304D01*
X23934674Y151637D01*
X23945341Y162560D01*
X23950929Y173481D01*
X23956263Y189992D01*
X23956263Y217170D01*
X23950929Y233426D01*
X23945341Y244347D01*
X23934674Y255270D01*
X23923752Y260857D01*
X23901908Y260857D01*
X24036020Y260857D02*
G01*
X23992331Y146304D01*
X24036020Y260857D02*
G01*
X24079708Y146304D01*
X24008841Y184404D02*
G01*
X24063198Y184404D01*
X24115522Y260857D02*
G01*
X24115522Y146304D01*
X24115522Y260857D02*
G01*
X24164798Y260857D01*
X24181054Y255270D01*
X24186641Y249936D01*
X24191975Y239013D01*
X24191975Y228092D01*
X24186641Y217170D01*
X24181054Y211581D01*
X24164798Y206247D01*
X24115522Y206247D01*
X24153875Y206247D02*
G01*
X24191975Y146304D01*
X24228043Y260857D02*
G01*
X24228043Y146304D01*
X24228043Y260857D02*
G01*
X24266143Y260857D01*
X24282654Y255270D01*
X24293575Y244347D01*
X24298909Y233426D01*
X24304498Y217170D01*
X24304498Y189992D01*
X24298909Y173481D01*
X24293575Y162560D01*
X24282654Y151637D01*
X24266143Y146304D01*
X24228043Y146304D01*
X24424386Y260857D02*
G01*
X24468074Y146304D01*
X24511761Y260857D02*
G01*
X24468074Y146304D01*
X24547575Y239013D02*
G01*
X24558498Y244347D01*
X24575008Y260857D01*
X24575008Y146304D01*
X24616409Y173481D02*
G01*
X24610822Y168147D01*
X24616409Y162560D01*
X24621743Y168147D01*
X24616409Y173481D01*
X24657811Y239013D02*
G01*
X24668734Y244347D01*
X24684990Y260857D01*
X24684990Y146304D01*
X24805131Y195326D02*
G01*
X24903175Y195326D01*
X25061418Y260857D02*
G01*
X25061418Y146304D01*
X25023318Y260857D02*
G01*
X25099772Y260857D01*
X25168352Y260857D02*
G01*
X25157429Y255270D01*
X25146508Y244347D01*
X25141174Y233426D01*
X25135586Y217170D01*
X25135586Y189992D01*
X25141174Y173481D01*
X25146508Y162560D01*
X25157429Y151637D01*
X25168352Y146304D01*
X25190195Y146304D01*
X25201118Y151637D01*
X25212040Y162560D01*
X25217374Y173481D01*
X25222961Y189992D01*
X25222961Y217170D01*
X25217374Y233426D01*
X25212040Y244347D01*
X25201118Y255270D01*
X25190195Y260857D01*
X25168352Y260857D01*
X25259029Y260857D02*
G01*
X25259029Y146304D01*
X25259029Y260857D02*
G01*
X25308052Y260857D01*
X25324308Y255270D01*
X25329895Y249936D01*
X25335229Y239013D01*
X25335229Y222504D01*
X25329895Y211581D01*
X25324308Y206247D01*
X25308052Y200913D01*
X25259029Y200913D01*
X22110700Y463989D02*
G01*
X22110700Y349445D01*
X22110700Y463989D02*
G01*
X22159790Y463989D01*
X22176153Y458536D01*
X22181609Y453082D01*
X22187062Y442173D01*
X22187062Y425808D01*
X22181609Y414898D01*
X22176153Y409445D01*
X22159790Y403989D01*
X22110700Y403989D01*
X22266699Y463989D02*
G01*
X22223064Y349445D01*
X22266699Y463989D02*
G01*
X22310336Y349445D01*
X22239427Y387626D02*
G01*
X22293971Y387626D01*
X22346335Y463989D02*
G01*
X22346335Y349445D01*
X22346335Y463989D02*
G01*
X22395426Y463989D01*
X22411789Y458536D01*
X22417244Y453082D01*
X22422698Y442173D01*
X22422698Y431264D01*
X22417244Y420354D01*
X22411789Y414898D01*
X22395426Y409445D01*
X22346335Y409445D01*
X22384517Y409445D02*
G01*
X22422698Y349445D01*
X22496881Y463989D02*
G01*
X22496881Y349445D01*
X22458700Y463989D02*
G01*
X22535062Y463989D01*
X22655062Y463989D02*
G01*
X22655062Y349445D01*
X22655062Y463989D02*
G01*
X22731425Y349445D01*
X22731425Y463989D02*
G01*
X22731425Y349445D01*
X22767427Y463989D02*
G01*
X22767427Y382173D01*
X22772880Y365808D01*
X22783789Y354898D01*
X22800152Y349445D01*
X22811061Y349445D01*
X22827427Y354898D01*
X22838333Y365808D01*
X22843789Y382173D01*
X22843789Y463989D01*
X22879789Y463989D02*
G01*
X22879789Y349445D01*
X22879789Y463989D02*
G01*
X22923426Y349445D01*
X22967061Y463989D02*
G01*
X22923426Y349445D01*
X22967061Y463989D02*
G01*
X22967061Y349445D01*
X23003062Y463989D02*
G01*
X23003062Y349445D01*
X23003062Y463989D02*
G01*
X23052153Y463989D01*
X23068516Y458536D01*
X23073969Y453082D01*
X23079425Y442173D01*
X23079425Y431264D01*
X23073969Y420354D01*
X23068516Y414898D01*
X23052153Y409445D01*
X23003062Y409445D02*
G01*
X23052153Y409445D01*
X23068516Y403989D01*
X23073969Y398536D01*
X23079425Y387626D01*
X23079425Y371264D01*
X23073969Y360354D01*
X23068516Y354898D01*
X23052153Y349445D01*
X23003062Y349445D01*
X23115424Y463989D02*
G01*
X23115424Y349445D01*
X23115424Y463989D02*
G01*
X23186334Y463989D01*
X23115424Y409445D02*
G01*
X23159062Y409445D01*
X23115424Y349445D02*
G01*
X23186334Y349445D01*
X23222333Y463989D02*
G01*
X23222333Y349445D01*
X23222333Y463989D02*
G01*
X23271424Y463989D01*
X23287789Y458536D01*
X23293242Y453082D01*
X23298698Y442173D01*
X23298698Y431264D01*
X23293242Y420354D01*
X23287789Y414898D01*
X23271424Y409445D01*
X23222333Y409445D01*
X23260514Y409445D02*
G01*
X23298698Y349445D01*
X23418698Y442173D02*
G01*
X23429607Y447626D01*
X23445970Y463989D01*
X23445970Y349445D01*
X23509241Y463989D02*
G01*
X23492879Y458536D01*
X23487425Y447626D01*
X23487425Y436717D01*
X23492879Y425808D01*
X23503788Y420354D01*
X23525606Y414898D01*
X23541969Y409445D01*
X23552878Y398536D01*
X23558332Y387626D01*
X23558332Y371264D01*
X23552878Y360354D01*
X23547425Y354898D01*
X23531060Y349445D01*
X23509241Y349445D01*
X23492879Y354898D01*
X23487425Y360354D01*
X23481969Y371264D01*
X23481969Y387626D01*
X23487425Y398536D01*
X23498332Y409445D01*
X23514697Y414898D01*
X23536516Y420354D01*
X23547425Y425808D01*
X23552878Y436717D01*
X23552878Y447626D01*
X23547425Y458536D01*
X23531060Y463989D01*
X23509241Y463989D01*
X23659787Y463989D02*
G01*
X23605243Y463989D01*
X23599787Y414898D01*
X23605243Y420354D01*
X23621606Y425808D01*
X23637968Y425808D01*
X23654334Y420354D01*
X23665243Y409445D01*
X23670696Y393082D01*
X23670696Y382173D01*
X23665243Y365808D01*
X23654334Y354898D01*
X23637968Y349445D01*
X23621606Y349445D01*
X23605243Y354898D01*
X23599787Y360354D01*
X23594334Y371264D01*
X23739424Y463989D02*
G01*
X23723061Y458536D01*
X23712152Y442173D01*
X23706696Y414898D01*
X23706696Y398536D01*
X23712152Y371264D01*
X23723061Y354898D01*
X23739424Y349445D01*
X23750333Y349445D01*
X23766696Y354898D01*
X23777605Y371264D01*
X23783061Y398536D01*
X23783061Y414898D01*
X23777605Y442173D01*
X23766696Y458536D01*
X23750333Y463989D01*
X23739424Y463989D01*
X23819060Y398536D02*
G01*
X23917241Y398536D01*
X23985969Y463989D02*
G01*
X23969606Y458536D01*
X23958697Y442173D01*
X23953241Y414898D01*
X23953241Y398536D01*
X23958697Y371264D01*
X23969606Y354898D01*
X23985969Y349445D01*
X23996878Y349445D01*
X24013241Y354898D01*
X24024150Y371264D01*
X24029606Y398536D01*
X24029606Y414898D01*
X24024150Y442173D01*
X24013241Y458536D01*
X23996878Y463989D01*
X23985969Y463989D01*
X24071059Y436717D02*
G01*
X24071059Y442173D01*
X24076515Y453082D01*
X24081968Y458536D01*
X24092877Y463989D01*
X24114696Y463989D01*
X24125605Y458536D01*
X24131059Y453082D01*
X24136515Y442173D01*
X24136515Y431264D01*
X24131059Y420354D01*
X24120149Y403989D01*
X24065605Y349445D01*
X24141968Y349445D01*
X24210695Y463989D02*
G01*
X24194333Y458536D01*
X24183423Y442173D01*
X24177967Y414898D01*
X24177967Y398536D01*
X24183423Y371264D01*
X24194333Y354898D01*
X24210695Y349445D01*
X24221605Y349445D01*
X24237967Y354898D01*
X24248877Y371264D01*
X24254333Y398536D01*
X24254333Y414898D01*
X24248877Y442173D01*
X24237967Y458536D01*
X24221605Y463989D01*
X24210695Y463989D01*
X24290332Y442173D02*
G01*
X24301241Y447626D01*
X24317604Y463989D01*
X24317604Y349445D01*
D11*
X13559668Y6197033D02*
G01*
X13555350Y6206177D01*
X13546206Y6215067D01*
X13537062Y6219639D01*
X13518774Y6219639D01*
X13509884Y6215067D01*
X13500740Y6206177D01*
X13496168Y6197033D01*
X13491596Y6183317D01*
X13491596Y6160711D01*
X13496168Y6146995D01*
X13500740Y6137851D01*
X13509884Y6128707D01*
X13518774Y6124135D01*
X13537062Y6124135D01*
X13546206Y6128707D01*
X13555350Y6137851D01*
X13559668Y6146995D01*
X13594212Y6197033D02*
G01*
X13594212Y6201605D01*
X13598784Y6210495D01*
X13603356Y6215067D01*
X13612500Y6219639D01*
X13630788Y6219639D01*
X13639678Y6215067D01*
X13644250Y6210495D01*
X13648822Y6201605D01*
X13648822Y6192461D01*
X13644250Y6183317D01*
X13635106Y6169601D01*
X13589894Y6124135D01*
X13653394Y6124135D01*
X13737976Y6206177D02*
G01*
X13733404Y6215067D01*
X13719688Y6219639D01*
X13710798Y6219639D01*
X13697082Y6215067D01*
X13687938Y6201605D01*
X13683366Y6178745D01*
X13683366Y6156139D01*
X13687938Y6137851D01*
X13697082Y6128707D01*
X13710798Y6124135D01*
X13715116Y6124135D01*
X13728832Y6128707D01*
X13737976Y6137851D01*
X13742548Y6151567D01*
X13742548Y6156139D01*
X13737976Y6169601D01*
X13728832Y6178745D01*
X13715116Y6183317D01*
X13710798Y6183317D01*
X13697082Y6178745D01*
X13687938Y6169601D01*
X13683366Y6156139D01*
X14207368Y6197033D02*
G01*
X14203050Y6206177D01*
X14193906Y6215067D01*
X14184762Y6219639D01*
X14166474Y6219639D01*
X14157584Y6215067D01*
X14148440Y6206177D01*
X14143868Y6197033D01*
X14139296Y6183317D01*
X14139296Y6160711D01*
X14143868Y6146995D01*
X14148440Y6137851D01*
X14157584Y6128707D01*
X14166474Y6124135D01*
X14184762Y6124135D01*
X14193906Y6128707D01*
X14203050Y6137851D01*
X14207368Y6146995D01*
X14241912Y6197033D02*
G01*
X14241912Y6201605D01*
X14246484Y6210495D01*
X14251056Y6215067D01*
X14260200Y6219639D01*
X14278488Y6219639D01*
X14287378Y6215067D01*
X14291950Y6210495D01*
X14296522Y6201605D01*
X14296522Y6192461D01*
X14291950Y6183317D01*
X14282806Y6169601D01*
X14237594Y6124135D01*
X14301094Y6124135D01*
X14385676Y6219639D02*
G01*
X14340210Y6219639D01*
X14335638Y6178745D01*
X14340210Y6183317D01*
X14353926Y6187889D01*
X14367388Y6187889D01*
X14381104Y6183317D01*
X14390248Y6174173D01*
X14394820Y6160711D01*
X14394820Y6151567D01*
X14390248Y6137851D01*
X14381104Y6128707D01*
X14367388Y6124135D01*
X14353926Y6124135D01*
X14340210Y6128707D01*
X14335638Y6133279D01*
X14331066Y6142423D01*
X15676372Y5932931D02*
G01*
X15672054Y5942076D01*
X15662909Y5950965D01*
X15653766Y5955537D01*
X15635477Y5955537D01*
X15626588Y5950965D01*
X15617443Y5942076D01*
X15612872Y5932931D01*
X15608300Y5919215D01*
X15608300Y5896610D01*
X15612872Y5882894D01*
X15617443Y5873750D01*
X15626588Y5864605D01*
X15635477Y5860034D01*
X15653766Y5860034D01*
X15662909Y5864605D01*
X15672054Y5873750D01*
X15676372Y5882894D01*
X15710916Y5932931D02*
G01*
X15710916Y5937504D01*
X15715488Y5946394D01*
X15720059Y5950965D01*
X15729204Y5955537D01*
X15747491Y5955537D01*
X15756381Y5950965D01*
X15760954Y5946394D01*
X15765525Y5937504D01*
X15765525Y5928360D01*
X15760954Y5919215D01*
X15751809Y5905500D01*
X15706597Y5860034D01*
X15770097Y5860034D01*
X15845536Y5955537D02*
G01*
X15800070Y5892037D01*
X15868395Y5892037D01*
X15845536Y5955537D02*
G01*
X15845536Y5860034D01*
X15722600Y6450837D02*
G01*
X15722600Y6355587D01*
X15722600Y6450837D02*
G01*
X15754350Y6450837D01*
X15768066Y6446265D01*
X15777209Y6437376D01*
X15781781Y6428231D01*
X15786354Y6414515D01*
X15786354Y6391910D01*
X15781781Y6378194D01*
X15777209Y6369050D01*
X15768066Y6359905D01*
X15754350Y6355587D01*
X15722600Y6355587D01*
X15879825Y6450837D02*
G01*
X15834359Y6355587D01*
X15816325Y6450837D02*
G01*
X15879825Y6450837D01*
X15932658Y6450837D02*
G01*
X15918941Y6446265D01*
X15914370Y6437376D01*
X15914370Y6428231D01*
X15918941Y6419087D01*
X15928086Y6414515D01*
X15946120Y6409944D01*
X15959836Y6405371D01*
X15968979Y6396481D01*
X15973552Y6387337D01*
X15973552Y6373621D01*
X15968979Y6364478D01*
X15964408Y6359905D01*
X15950691Y6355587D01*
X15932658Y6355587D01*
X15918941Y6359905D01*
X15914370Y6364478D01*
X15909797Y6373621D01*
X15909797Y6387337D01*
X15914370Y6396481D01*
X15923513Y6405371D01*
X15937229Y6409944D01*
X15955263Y6414515D01*
X15964408Y6419087D01*
X15968979Y6428231D01*
X15968979Y6437376D01*
X15964408Y6446265D01*
X15950691Y6450837D01*
X15932658Y6450837D01*
X15722600Y7377937D02*
G01*
X15722600Y7282687D01*
X15722600Y7377937D02*
G01*
X15754350Y7377937D01*
X15768066Y7373365D01*
X15777209Y7364476D01*
X15781781Y7355331D01*
X15786354Y7341615D01*
X15786354Y7319010D01*
X15781781Y7305294D01*
X15777209Y7296150D01*
X15768066Y7287005D01*
X15754350Y7282687D01*
X15722600Y7282687D01*
X15879825Y7377937D02*
G01*
X15834359Y7282687D01*
X15816325Y7377937D02*
G01*
X15879825Y7377937D01*
X15973552Y7377937D02*
G01*
X15928086Y7282687D01*
X15909797Y7377937D02*
G01*
X15973552Y7377937D01*
X15659100Y8063737D02*
G01*
X15659100Y7968487D01*
X15659100Y8063737D02*
G01*
X15690850Y8063737D01*
X15704566Y8059165D01*
X15713709Y8050276D01*
X15718281Y8041131D01*
X15722854Y8027415D01*
X15722854Y8004810D01*
X15718281Y7991094D01*
X15713709Y7981950D01*
X15704566Y7972805D01*
X15690850Y7968487D01*
X15659100Y7968487D01*
X15816325Y8063737D02*
G01*
X15770859Y7968487D01*
X15752825Y8063737D02*
G01*
X15816325Y8063737D01*
X15900908Y8050276D02*
G01*
X15896336Y8059165D01*
X15882620Y8063737D01*
X15873729Y8063737D01*
X15860013Y8059165D01*
X15850870Y8045704D01*
X15846297Y8022844D01*
X15846297Y8000237D01*
X15850870Y7981950D01*
X15860013Y7972805D01*
X15873729Y7968487D01*
X15878302Y7968487D01*
X15891763Y7972805D01*
X15900908Y7981950D01*
X15905479Y7995665D01*
X15905479Y8000237D01*
X15900908Y8013700D01*
X15891763Y8022844D01*
X15878302Y8027415D01*
X15873729Y8027415D01*
X15860013Y8022844D01*
X15850870Y8013700D01*
X15846297Y8000237D01*
X15722600Y5523737D02*
G01*
X15722600Y5428487D01*
X15722600Y5523737D02*
G01*
X15754350Y5523737D01*
X15768066Y5519165D01*
X15777209Y5510276D01*
X15781781Y5501131D01*
X15786354Y5487415D01*
X15786354Y5464810D01*
X15781781Y5451094D01*
X15777209Y5441950D01*
X15768066Y5432805D01*
X15754350Y5428487D01*
X15722600Y5428487D01*
X15879825Y5523737D02*
G01*
X15834359Y5428487D01*
X15816325Y5523737D02*
G01*
X15879825Y5523737D01*
X15968979Y5491987D02*
G01*
X15964408Y5478271D01*
X15955263Y5469381D01*
X15941802Y5464810D01*
X15937229Y5464810D01*
X15923513Y5469381D01*
X15914370Y5478271D01*
X15909797Y5491987D01*
X15909797Y5496560D01*
X15914370Y5510276D01*
X15923513Y5519165D01*
X15937229Y5523737D01*
X15941802Y5523737D01*
X15955263Y5519165D01*
X15964408Y5510276D01*
X15968979Y5491987D01*
X15968979Y5469381D01*
X15964408Y5446521D01*
X15955263Y5432805D01*
X15941802Y5428487D01*
X15932658Y5428487D01*
X15918941Y5432805D01*
X15914370Y5441950D01*
X19519645Y5932931D02*
G01*
X19515074Y5942076D01*
X19505929Y5950965D01*
X19497040Y5955537D01*
X19478752Y5955537D01*
X19469608Y5950965D01*
X19460463Y5942076D01*
X19456145Y5932931D01*
X19451574Y5919215D01*
X19451574Y5896610D01*
X19456145Y5882894D01*
X19460463Y5873750D01*
X19469608Y5864605D01*
X19478752Y5860034D01*
X19497040Y5860034D01*
X19505929Y5864605D01*
X19515074Y5873750D01*
X19519645Y5882894D01*
X19554190Y5932931D02*
G01*
X19554190Y5937504D01*
X19558761Y5946394D01*
X19563334Y5950965D01*
X19572477Y5955537D01*
X19590511Y5955537D01*
X19599656Y5950965D01*
X19604227Y5946394D01*
X19608800Y5937504D01*
X19608800Y5928360D01*
X19604227Y5919215D01*
X19595084Y5905500D01*
X19549618Y5860034D01*
X19613372Y5860034D01*
X19647916Y5932931D02*
G01*
X19647916Y5937504D01*
X19652488Y5946394D01*
X19657059Y5950965D01*
X19665950Y5955537D01*
X19684238Y5955537D01*
X19693381Y5950965D01*
X19697954Y5946394D01*
X19702525Y5937504D01*
X19702525Y5928360D01*
X19697954Y5919215D01*
X19688809Y5905500D01*
X19643343Y5860034D01*
X19706843Y5860034D01*
X19565874Y6450837D02*
G01*
X19565874Y6355587D01*
X19565874Y6450837D02*
G01*
X19597624Y6450837D01*
X19611340Y6446265D01*
X19620229Y6437376D01*
X19624802Y6428231D01*
X19629374Y6414515D01*
X19629374Y6391910D01*
X19624802Y6378194D01*
X19620229Y6369050D01*
X19611340Y6359905D01*
X19597624Y6355587D01*
X19565874Y6355587D01*
X19723100Y6450837D02*
G01*
X19677634Y6355587D01*
X19659345Y6450837D02*
G01*
X19723100Y6450837D01*
X19753072Y6432804D02*
G01*
X19762216Y6437376D01*
X19775931Y6450837D01*
X19775931Y6355587D01*
X19565874Y7377937D02*
G01*
X19565874Y7282687D01*
X19565874Y7377937D02*
G01*
X19597624Y7377937D01*
X19611340Y7373365D01*
X19620229Y7364476D01*
X19624802Y7355331D01*
X19629374Y7341615D01*
X19629374Y7319010D01*
X19624802Y7305294D01*
X19620229Y7296150D01*
X19611340Y7287005D01*
X19597624Y7282687D01*
X19565874Y7282687D01*
X19723100Y7377937D02*
G01*
X19677634Y7282687D01*
X19659345Y7377937D02*
G01*
X19723100Y7377937D01*
X19780250Y7377937D02*
G01*
X19766788Y7373365D01*
X19757643Y7359904D01*
X19753072Y7337044D01*
X19753072Y7323581D01*
X19757643Y7300721D01*
X19766788Y7287005D01*
X19780250Y7282687D01*
X19789393Y7282687D01*
X19803109Y7287005D01*
X19812254Y7300721D01*
X19816825Y7323581D01*
X19816825Y7337044D01*
X19812254Y7359904D01*
X19803109Y7373365D01*
X19789393Y7377937D01*
X19780250Y7377937D01*
X19502374Y8063737D02*
G01*
X19502374Y7968487D01*
X19502374Y8063737D02*
G01*
X19534124Y8063737D01*
X19547840Y8059165D01*
X19556729Y8050276D01*
X19561302Y8041131D01*
X19565874Y8027415D01*
X19565874Y8004810D01*
X19561302Y7991094D01*
X19556729Y7981950D01*
X19547840Y7972805D01*
X19534124Y7968487D01*
X19502374Y7968487D01*
X19650456Y8050276D02*
G01*
X19645884Y8059165D01*
X19632422Y8063737D01*
X19623277Y8063737D01*
X19609561Y8059165D01*
X19600418Y8045704D01*
X19595845Y8022844D01*
X19595845Y8000237D01*
X19600418Y7981950D01*
X19609561Y7972805D01*
X19623277Y7968487D01*
X19627850Y7968487D01*
X19641311Y7972805D01*
X19650456Y7981950D01*
X19655027Y7995665D01*
X19655027Y8000237D01*
X19650456Y8013700D01*
X19641311Y8022844D01*
X19627850Y8027415D01*
X19623277Y8027415D01*
X19609561Y8022844D01*
X19600418Y8013700D01*
X19595845Y8000237D01*
X19744181Y8031987D02*
G01*
X19739609Y8018271D01*
X19730466Y8009381D01*
X19716750Y8004810D01*
X19712431Y8004810D01*
X19698716Y8009381D01*
X19689572Y8018271D01*
X19685000Y8031987D01*
X19685000Y8036560D01*
X19689572Y8050276D01*
X19698716Y8059165D01*
X19712431Y8063737D01*
X19716750Y8063737D01*
X19730466Y8059165D01*
X19739609Y8050276D01*
X19744181Y8031987D01*
X19744181Y8009381D01*
X19739609Y7986521D01*
X19730466Y7972805D01*
X19716750Y7968487D01*
X19707859Y7968487D01*
X19694143Y7972805D01*
X19689572Y7981950D01*
X19565874Y5523737D02*
G01*
X19565874Y5428487D01*
X19565874Y5523737D02*
G01*
X19597624Y5523737D01*
X19611340Y5519165D01*
X19620229Y5510276D01*
X19624802Y5501131D01*
X19629374Y5487415D01*
X19629374Y5464810D01*
X19624802Y5451094D01*
X19620229Y5441950D01*
X19611340Y5432805D01*
X19597624Y5428487D01*
X19565874Y5428487D01*
X19723100Y5523737D02*
G01*
X19677634Y5428487D01*
X19659345Y5523737D02*
G01*
X19723100Y5523737D01*
X19757643Y5501131D02*
G01*
X19757643Y5505704D01*
X19762216Y5514847D01*
X19766788Y5519165D01*
X19775931Y5523737D01*
X19793966Y5523737D01*
X19803109Y5519165D01*
X19807681Y5514847D01*
X19812254Y5505704D01*
X19812254Y5496560D01*
X19807681Y5487415D01*
X19798538Y5473700D01*
X19753072Y5428487D01*
X19816825Y5428487D01*
X18135600Y7377937D02*
G01*
X18135600Y7282687D01*
X18135600Y7377937D02*
G01*
X18167350Y7377937D01*
X18181066Y7373365D01*
X18190209Y7364476D01*
X18194781Y7355331D01*
X18199354Y7341615D01*
X18199354Y7319010D01*
X18194781Y7305294D01*
X18190209Y7296150D01*
X18181066Y7287005D01*
X18167350Y7282687D01*
X18135600Y7282687D01*
X18292825Y7377937D02*
G01*
X18247359Y7282687D01*
X18229325Y7377937D02*
G01*
X18292825Y7377937D01*
X18331941Y7377937D02*
G01*
X18381979Y7377937D01*
X18354802Y7341615D01*
X18368263Y7341615D01*
X18377408Y7337044D01*
X18381979Y7332471D01*
X18386552Y7319010D01*
X18386552Y7309865D01*
X18381979Y7296150D01*
X18372836Y7287005D01*
X18359120Y7282687D01*
X18345658Y7282687D01*
X18331941Y7287005D01*
X18327370Y7291578D01*
X18322798Y7300721D01*
X18135600Y6450837D02*
G01*
X18135600Y6355587D01*
X18135600Y6450837D02*
G01*
X18167350Y6450837D01*
X18181066Y6446265D01*
X18190209Y6437376D01*
X18194781Y6428231D01*
X18199354Y6414515D01*
X18199354Y6391910D01*
X18194781Y6378194D01*
X18190209Y6369050D01*
X18181066Y6359905D01*
X18167350Y6355587D01*
X18135600Y6355587D01*
X18292825Y6450837D02*
G01*
X18247359Y6355587D01*
X18229325Y6450837D02*
G01*
X18292825Y6450837D01*
X18368263Y6450837D02*
G01*
X18322798Y6387337D01*
X18391124Y6387337D01*
X18368263Y6450837D02*
G01*
X18368263Y6355587D01*
X18135600Y5523737D02*
G01*
X18135600Y5428487D01*
X18135600Y5523737D02*
G01*
X18167350Y5523737D01*
X18181066Y5519165D01*
X18190209Y5510276D01*
X18194781Y5501131D01*
X18199354Y5487415D01*
X18199354Y5464810D01*
X18194781Y5451094D01*
X18190209Y5441950D01*
X18181066Y5432805D01*
X18167350Y5428487D01*
X18135600Y5428487D01*
X18292825Y5523737D02*
G01*
X18247359Y5428487D01*
X18229325Y5523737D02*
G01*
X18292825Y5523737D01*
X18377408Y5523737D02*
G01*
X18331941Y5523737D01*
X18327370Y5482844D01*
X18331941Y5487415D01*
X18345658Y5491987D01*
X18359120Y5491987D01*
X18372836Y5487415D01*
X18381979Y5478271D01*
X18386552Y5464810D01*
X18386552Y5455665D01*
X18381979Y5441950D01*
X18372836Y5432805D01*
X18359120Y5428487D01*
X18345658Y5428487D01*
X18331941Y5432805D01*
X18327370Y5437378D01*
X18322798Y5446521D01*
X18089372Y5932931D02*
G01*
X18085054Y5942076D01*
X18075909Y5950965D01*
X18066766Y5955537D01*
X18048477Y5955537D01*
X18039588Y5950965D01*
X18030443Y5942076D01*
X18025872Y5932931D01*
X18021300Y5919215D01*
X18021300Y5896610D01*
X18025872Y5882894D01*
X18030443Y5873750D01*
X18039588Y5864605D01*
X18048477Y5860034D01*
X18066766Y5860034D01*
X18075909Y5864605D01*
X18085054Y5873750D01*
X18089372Y5882894D01*
X18123916Y5932931D02*
G01*
X18123916Y5937504D01*
X18128488Y5946394D01*
X18133059Y5950965D01*
X18142204Y5955537D01*
X18160491Y5955537D01*
X18169381Y5950965D01*
X18173954Y5946394D01*
X18178525Y5937504D01*
X18178525Y5928360D01*
X18173954Y5919215D01*
X18164809Y5905500D01*
X18119598Y5860034D01*
X18183098Y5860034D01*
X18222213Y5955537D02*
G01*
X18272252Y5955537D01*
X18244820Y5919215D01*
X18258536Y5919215D01*
X18267679Y5914644D01*
X18272252Y5910071D01*
X18276824Y5896610D01*
X18276824Y5887465D01*
X18272252Y5873750D01*
X18263108Y5864605D01*
X18249391Y5860034D01*
X18235929Y5860034D01*
X18222213Y5864605D01*
X18217641Y5869178D01*
X18213070Y5878321D01*
X21968968Y5523737D02*
G01*
X21968968Y5428487D01*
X21968968Y5523737D02*
G01*
X22000718Y5523737D01*
X22014434Y5519165D01*
X22023577Y5510276D01*
X22028150Y5501131D01*
X22032722Y5487415D01*
X22032722Y5464810D01*
X22028150Y5451094D01*
X22023577Y5441950D01*
X22014434Y5432805D01*
X22000718Y5428487D01*
X21968968Y5428487D01*
X22117304Y5510276D02*
G01*
X22112731Y5519165D01*
X22099016Y5523737D01*
X22089872Y5523737D01*
X22076156Y5519165D01*
X22067266Y5505704D01*
X22062693Y5482844D01*
X22062693Y5460237D01*
X22067266Y5441950D01*
X22076156Y5432805D01*
X22089872Y5428487D01*
X22094443Y5428487D01*
X22108159Y5432805D01*
X22117304Y5441950D01*
X22121622Y5455665D01*
X22121622Y5460237D01*
X22117304Y5473700D01*
X22108159Y5482844D01*
X22094443Y5487415D01*
X22089872Y5487415D01*
X22076156Y5482844D01*
X22067266Y5473700D01*
X22062693Y5460237D01*
X22156166Y5501131D02*
G01*
X22156166Y5505704D01*
X22160738Y5514847D01*
X22165309Y5519165D01*
X22174454Y5523737D01*
X22192741Y5523737D01*
X22201631Y5519165D01*
X22206204Y5514847D01*
X22210775Y5505704D01*
X22210775Y5496560D01*
X22206204Y5487415D01*
X22197059Y5473700D01*
X22151848Y5428487D01*
X22215348Y5428487D01*
X21968968Y6450837D02*
G01*
X21968968Y6355587D01*
X21968968Y6450837D02*
G01*
X22000718Y6450837D01*
X22014434Y6446265D01*
X22023577Y6437376D01*
X22028150Y6428231D01*
X22032722Y6414515D01*
X22032722Y6391910D01*
X22028150Y6378194D01*
X22023577Y6369050D01*
X22014434Y6359905D01*
X22000718Y6355587D01*
X21968968Y6355587D01*
X22117304Y6437376D02*
G01*
X22112731Y6446265D01*
X22099016Y6450837D01*
X22089872Y6450837D01*
X22076156Y6446265D01*
X22067266Y6432804D01*
X22062693Y6409944D01*
X22062693Y6387337D01*
X22067266Y6369050D01*
X22076156Y6359905D01*
X22089872Y6355587D01*
X22094443Y6355587D01*
X22108159Y6359905D01*
X22117304Y6369050D01*
X22121622Y6382765D01*
X22121622Y6387337D01*
X22117304Y6400800D01*
X22108159Y6409944D01*
X22094443Y6414515D01*
X22089872Y6414515D01*
X22076156Y6409944D01*
X22067266Y6400800D01*
X22062693Y6387337D01*
X22151848Y6432804D02*
G01*
X22160738Y6437376D01*
X22174454Y6450837D01*
X22174454Y6355587D01*
X21968968Y7377937D02*
G01*
X21968968Y7282687D01*
X21968968Y7377937D02*
G01*
X22000718Y7377937D01*
X22014434Y7373365D01*
X22023577Y7364476D01*
X22028150Y7355331D01*
X22032722Y7341615D01*
X22032722Y7319010D01*
X22028150Y7305294D01*
X22023577Y7296150D01*
X22014434Y7287005D01*
X22000718Y7282687D01*
X21968968Y7282687D01*
X22117304Y7364476D02*
G01*
X22112731Y7373365D01*
X22099016Y7377937D01*
X22089872Y7377937D01*
X22076156Y7373365D01*
X22067266Y7359904D01*
X22062693Y7337044D01*
X22062693Y7314437D01*
X22067266Y7296150D01*
X22076156Y7287005D01*
X22089872Y7282687D01*
X22094443Y7282687D01*
X22108159Y7287005D01*
X22117304Y7296150D01*
X22121622Y7309865D01*
X22121622Y7314437D01*
X22117304Y7327900D01*
X22108159Y7337044D01*
X22094443Y7341615D01*
X22089872Y7341615D01*
X22076156Y7337044D01*
X22067266Y7327900D01*
X22062693Y7314437D01*
X22179025Y7377937D02*
G01*
X22165309Y7373365D01*
X22156166Y7359904D01*
X22151848Y7337044D01*
X22151848Y7323581D01*
X22156166Y7300721D01*
X22165309Y7287005D01*
X22179025Y7282687D01*
X22188170Y7282687D01*
X22201631Y7287005D01*
X22210775Y7300721D01*
X22215348Y7323581D01*
X22215348Y7337044D01*
X22210775Y7359904D01*
X22201631Y7373365D01*
X22188170Y7377937D01*
X22179025Y7377937D01*
X21922993Y5932931D02*
G01*
X21918422Y5942076D01*
X21909277Y5950965D01*
X21900134Y5955537D01*
X21881845Y5955537D01*
X21872956Y5950965D01*
X21863811Y5942076D01*
X21859240Y5932931D01*
X21854668Y5919215D01*
X21854668Y5896610D01*
X21859240Y5882894D01*
X21863811Y5873750D01*
X21872956Y5864605D01*
X21881845Y5860034D01*
X21900134Y5860034D01*
X21909277Y5864605D01*
X21918422Y5873750D01*
X21922993Y5882894D01*
X21952966Y5937504D02*
G01*
X21961856Y5942076D01*
X21975572Y5955537D01*
X21975572Y5860034D01*
X22064725Y5923787D02*
G01*
X22060154Y5910071D01*
X22051009Y5901181D01*
X22037293Y5896610D01*
X22032975Y5896610D01*
X22019259Y5901181D01*
X22010116Y5910071D01*
X22005543Y5923787D01*
X22005543Y5928360D01*
X22010116Y5942076D01*
X22019259Y5950965D01*
X22032975Y5955537D01*
X22037293Y5955537D01*
X22051009Y5950965D01*
X22060154Y5942076D01*
X22064725Y5923787D01*
X22064725Y5901181D01*
X22060154Y5878321D01*
X22051009Y5864605D01*
X22037293Y5860034D01*
X22028404Y5860034D01*
X22014688Y5864605D01*
X22010116Y5873750D01*
X20945093Y6199631D02*
G01*
X20940522Y6208776D01*
X20931377Y6217665D01*
X20922234Y6222237D01*
X20903945Y6222237D01*
X20895056Y6217665D01*
X20885911Y6208776D01*
X20881340Y6199631D01*
X20876768Y6185915D01*
X20876768Y6163310D01*
X20881340Y6149594D01*
X20885911Y6140450D01*
X20895056Y6131305D01*
X20903945Y6126734D01*
X20922234Y6126734D01*
X20931377Y6131305D01*
X20940522Y6140450D01*
X20945093Y6149594D01*
X20979638Y6199631D02*
G01*
X20979638Y6204204D01*
X20983956Y6213094D01*
X20988527Y6217665D01*
X20997672Y6222237D01*
X21015959Y6222237D01*
X21024850Y6217665D01*
X21029422Y6213094D01*
X21033993Y6204204D01*
X21033993Y6195060D01*
X21029422Y6185915D01*
X21020531Y6172200D01*
X20975066Y6126734D01*
X21038566Y6126734D01*
X21095970Y6222237D02*
G01*
X21082254Y6217665D01*
X21073109Y6204204D01*
X21068538Y6181344D01*
X21068538Y6167881D01*
X21073109Y6145021D01*
X21082254Y6131305D01*
X21095970Y6126734D01*
X21104859Y6126734D01*
X21118575Y6131305D01*
X21127720Y6145021D01*
X21132291Y6167881D01*
X21132291Y6181344D01*
X21127720Y6204204D01*
X21118575Y6217665D01*
X21104859Y6222237D01*
X21095970Y6222237D01*
X20310093Y6199631D02*
G01*
X20305522Y6208776D01*
X20296377Y6217665D01*
X20287234Y6222237D01*
X20268945Y6222237D01*
X20260056Y6217665D01*
X20250911Y6208776D01*
X20246340Y6199631D01*
X20241768Y6185915D01*
X20241768Y6163310D01*
X20246340Y6149594D01*
X20250911Y6140450D01*
X20260056Y6131305D01*
X20268945Y6126734D01*
X20287234Y6126734D01*
X20296377Y6131305D01*
X20305522Y6140450D01*
X20310093Y6149594D01*
X20344638Y6199631D02*
G01*
X20344638Y6204204D01*
X20348956Y6213094D01*
X20353527Y6217665D01*
X20362672Y6222237D01*
X20380959Y6222237D01*
X20389850Y6217665D01*
X20394422Y6213094D01*
X20398993Y6204204D01*
X20398993Y6195060D01*
X20394422Y6185915D01*
X20385531Y6172200D01*
X20340066Y6126734D01*
X20403566Y6126734D01*
X20433538Y6204204D02*
G01*
X20442681Y6208776D01*
X20456398Y6222237D01*
X20456398Y6126734D01*
X21321268Y7479537D02*
G01*
X21321268Y7384287D01*
X21321268Y7479537D02*
G01*
X21353018Y7479537D01*
X21366734Y7474965D01*
X21375877Y7466076D01*
X21380450Y7456931D01*
X21385022Y7443215D01*
X21385022Y7420610D01*
X21380450Y7406894D01*
X21375877Y7397750D01*
X21366734Y7388605D01*
X21353018Y7384287D01*
X21321268Y7384287D01*
X21469604Y7466076D02*
G01*
X21465031Y7474965D01*
X21451316Y7479537D01*
X21442172Y7479537D01*
X21428456Y7474965D01*
X21419566Y7461504D01*
X21414993Y7438644D01*
X21414993Y7416037D01*
X21419566Y7397750D01*
X21428456Y7388605D01*
X21442172Y7384287D01*
X21446743Y7384287D01*
X21460459Y7388605D01*
X21469604Y7397750D01*
X21473922Y7411465D01*
X21473922Y7416037D01*
X21469604Y7429500D01*
X21460459Y7438644D01*
X21446743Y7443215D01*
X21442172Y7443215D01*
X21428456Y7438644D01*
X21419566Y7429500D01*
X21414993Y7416037D01*
X21513038Y7479537D02*
G01*
X21563075Y7479537D01*
X21535898Y7443215D01*
X21549359Y7443215D01*
X21558504Y7438644D01*
X21563075Y7434071D01*
X21567648Y7420610D01*
X21567648Y7411465D01*
X21563075Y7397750D01*
X21553931Y7388605D01*
X21540470Y7384287D01*
X21526754Y7384287D01*
X21513038Y7388605D01*
X21508466Y7393178D01*
X21504148Y7402321D01*
X21321268Y6565137D02*
G01*
X21321268Y6469887D01*
X21321268Y6565137D02*
G01*
X21353018Y6565137D01*
X21366734Y6560565D01*
X21375877Y6551676D01*
X21380450Y6542531D01*
X21385022Y6528815D01*
X21385022Y6506210D01*
X21380450Y6492494D01*
X21375877Y6483350D01*
X21366734Y6474205D01*
X21353018Y6469887D01*
X21321268Y6469887D01*
X21469604Y6551676D02*
G01*
X21465031Y6560565D01*
X21451316Y6565137D01*
X21442172Y6565137D01*
X21428456Y6560565D01*
X21419566Y6547104D01*
X21414993Y6524244D01*
X21414993Y6501637D01*
X21419566Y6483350D01*
X21428456Y6474205D01*
X21442172Y6469887D01*
X21446743Y6469887D01*
X21460459Y6474205D01*
X21469604Y6483350D01*
X21473922Y6497065D01*
X21473922Y6501637D01*
X21469604Y6515100D01*
X21460459Y6524244D01*
X21446743Y6528815D01*
X21442172Y6528815D01*
X21428456Y6524244D01*
X21419566Y6515100D01*
X21414993Y6501637D01*
X21549359Y6565137D02*
G01*
X21504148Y6501637D01*
X21572220Y6501637D01*
X21549359Y6565137D02*
G01*
X21549359Y6469887D01*
X21321268Y5625337D02*
G01*
X21321268Y5530087D01*
X21321268Y5625337D02*
G01*
X21353018Y5625337D01*
X21366734Y5620765D01*
X21375877Y5611876D01*
X21380450Y5602731D01*
X21385022Y5589015D01*
X21385022Y5566410D01*
X21380450Y5552694D01*
X21375877Y5543550D01*
X21366734Y5534405D01*
X21353018Y5530087D01*
X21321268Y5530087D01*
X21469604Y5611876D02*
G01*
X21465031Y5620765D01*
X21451316Y5625337D01*
X21442172Y5625337D01*
X21428456Y5620765D01*
X21419566Y5607304D01*
X21414993Y5584444D01*
X21414993Y5561837D01*
X21419566Y5543550D01*
X21428456Y5534405D01*
X21442172Y5530087D01*
X21446743Y5530087D01*
X21460459Y5534405D01*
X21469604Y5543550D01*
X21473922Y5557265D01*
X21473922Y5561837D01*
X21469604Y5575300D01*
X21460459Y5584444D01*
X21446743Y5589015D01*
X21442172Y5589015D01*
X21428456Y5584444D01*
X21419566Y5575300D01*
X21414993Y5561837D01*
X21558504Y5625337D02*
G01*
X21513038Y5625337D01*
X21508466Y5584444D01*
X21513038Y5589015D01*
X21526754Y5593587D01*
X21540470Y5593587D01*
X21553931Y5589015D01*
X21563075Y5579871D01*
X21567648Y5566410D01*
X21567648Y5557265D01*
X21563075Y5543550D01*
X21553931Y5534405D01*
X21540470Y5530087D01*
X21526754Y5530087D01*
X21513038Y5534405D01*
X21508466Y5538978D01*
X21504148Y5548121D01*
X20673568Y7479537D02*
G01*
X20673568Y7384287D01*
X20673568Y7479537D02*
G01*
X20705318Y7479537D01*
X20719034Y7474965D01*
X20728177Y7466076D01*
X20732750Y7456931D01*
X20737322Y7443215D01*
X20737322Y7420610D01*
X20732750Y7406894D01*
X20728177Y7397750D01*
X20719034Y7388605D01*
X20705318Y7384287D01*
X20673568Y7384287D01*
X20821904Y7466076D02*
G01*
X20817331Y7474965D01*
X20803616Y7479537D01*
X20794472Y7479537D01*
X20780756Y7474965D01*
X20771866Y7461504D01*
X20767293Y7438644D01*
X20767293Y7416037D01*
X20771866Y7397750D01*
X20780756Y7388605D01*
X20794472Y7384287D01*
X20799043Y7384287D01*
X20812759Y7388605D01*
X20821904Y7397750D01*
X20826222Y7411465D01*
X20826222Y7416037D01*
X20821904Y7429500D01*
X20812759Y7438644D01*
X20799043Y7443215D01*
X20794472Y7443215D01*
X20780756Y7438644D01*
X20771866Y7429500D01*
X20767293Y7416037D01*
X20910804Y7466076D02*
G01*
X20906231Y7474965D01*
X20892770Y7479537D01*
X20883625Y7479537D01*
X20869909Y7474965D01*
X20860766Y7461504D01*
X20856448Y7438644D01*
X20856448Y7416037D01*
X20860766Y7397750D01*
X20869909Y7388605D01*
X20883625Y7384287D01*
X20888198Y7384287D01*
X20901659Y7388605D01*
X20910804Y7397750D01*
X20915375Y7411465D01*
X20915375Y7416037D01*
X20910804Y7429500D01*
X20901659Y7438644D01*
X20888198Y7443215D01*
X20883625Y7443215D01*
X20869909Y7438644D01*
X20860766Y7429500D01*
X20856448Y7416037D01*
X20673568Y6565137D02*
G01*
X20673568Y6469887D01*
X20673568Y6565137D02*
G01*
X20705318Y6565137D01*
X20719034Y6560565D01*
X20728177Y6551676D01*
X20732750Y6542531D01*
X20737322Y6528815D01*
X20737322Y6506210D01*
X20732750Y6492494D01*
X20728177Y6483350D01*
X20719034Y6474205D01*
X20705318Y6469887D01*
X20673568Y6469887D01*
X20821904Y6551676D02*
G01*
X20817331Y6560565D01*
X20803616Y6565137D01*
X20794472Y6565137D01*
X20780756Y6560565D01*
X20771866Y6547104D01*
X20767293Y6524244D01*
X20767293Y6501637D01*
X20771866Y6483350D01*
X20780756Y6474205D01*
X20794472Y6469887D01*
X20799043Y6469887D01*
X20812759Y6474205D01*
X20821904Y6483350D01*
X20826222Y6497065D01*
X20826222Y6501637D01*
X20821904Y6515100D01*
X20812759Y6524244D01*
X20799043Y6528815D01*
X20794472Y6528815D01*
X20780756Y6524244D01*
X20771866Y6515100D01*
X20767293Y6501637D01*
X20919948Y6565137D02*
G01*
X20874481Y6469887D01*
X20856448Y6565137D02*
G01*
X20919948Y6565137D01*
X20673568Y5625337D02*
G01*
X20673568Y5530087D01*
X20673568Y5625337D02*
G01*
X20705318Y5625337D01*
X20719034Y5620765D01*
X20728177Y5611876D01*
X20732750Y5602731D01*
X20737322Y5589015D01*
X20737322Y5566410D01*
X20732750Y5552694D01*
X20728177Y5543550D01*
X20719034Y5534405D01*
X20705318Y5530087D01*
X20673568Y5530087D01*
X20821904Y5611876D02*
G01*
X20817331Y5620765D01*
X20803616Y5625337D01*
X20794472Y5625337D01*
X20780756Y5620765D01*
X20771866Y5607304D01*
X20767293Y5584444D01*
X20767293Y5561837D01*
X20771866Y5543550D01*
X20780756Y5534405D01*
X20794472Y5530087D01*
X20799043Y5530087D01*
X20812759Y5534405D01*
X20821904Y5543550D01*
X20826222Y5557265D01*
X20826222Y5561837D01*
X20821904Y5575300D01*
X20812759Y5584444D01*
X20799043Y5589015D01*
X20794472Y5589015D01*
X20780756Y5584444D01*
X20771866Y5575300D01*
X20767293Y5561837D01*
X20879054Y5625337D02*
G01*
X20865338Y5620765D01*
X20860766Y5611876D01*
X20860766Y5602731D01*
X20865338Y5593587D01*
X20874481Y5589015D01*
X20892770Y5584444D01*
X20906231Y5579871D01*
X20915375Y5570981D01*
X20919948Y5561837D01*
X20919948Y5548121D01*
X20915375Y5538978D01*
X20910804Y5534405D01*
X20897341Y5530087D01*
X20879054Y5530087D01*
X20865338Y5534405D01*
X20860766Y5538978D01*
X20856448Y5548121D01*
X20856448Y5561837D01*
X20860766Y5570981D01*
X20869909Y5579871D01*
X20883625Y5584444D01*
X20901659Y5589015D01*
X20910804Y5593587D01*
X20915375Y5602731D01*
X20915375Y5611876D01*
X20910804Y5620765D01*
X20897341Y5625337D01*
X20879054Y5625337D01*
X23409148Y5523737D02*
G01*
X23409148Y5428487D01*
X23409148Y5523737D02*
G01*
X23440898Y5523737D01*
X23454359Y5519165D01*
X23463504Y5510276D01*
X23468075Y5501131D01*
X23472648Y5487415D01*
X23472648Y5464810D01*
X23468075Y5451094D01*
X23463504Y5441950D01*
X23454359Y5432805D01*
X23440898Y5428487D01*
X23409148Y5428487D01*
X23557229Y5523737D02*
G01*
X23511763Y5523737D01*
X23507191Y5482844D01*
X23511763Y5487415D01*
X23525479Y5491987D01*
X23538941Y5491987D01*
X23552658Y5487415D01*
X23561802Y5478271D01*
X23566374Y5464810D01*
X23566374Y5455665D01*
X23561802Y5441950D01*
X23552658Y5432805D01*
X23538941Y5428487D01*
X23525479Y5428487D01*
X23511763Y5432805D01*
X23507191Y5437378D01*
X23502620Y5446521D01*
X23655274Y5491987D02*
G01*
X23650956Y5478271D01*
X23641811Y5469381D01*
X23628095Y5464810D01*
X23623524Y5464810D01*
X23610061Y5469381D01*
X23600918Y5478271D01*
X23596345Y5491987D01*
X23596345Y5496560D01*
X23600918Y5510276D01*
X23610061Y5519165D01*
X23623524Y5523737D01*
X23628095Y5523737D01*
X23641811Y5519165D01*
X23650956Y5510276D01*
X23655274Y5491987D01*
X23655274Y5469381D01*
X23650956Y5446521D01*
X23641811Y5432805D01*
X23628095Y5428487D01*
X23618952Y5428487D01*
X23605490Y5432805D01*
X23600918Y5441950D01*
X23345648Y8063737D02*
G01*
X23345648Y7968487D01*
X23345648Y8063737D02*
G01*
X23377398Y8063737D01*
X23390859Y8059165D01*
X23400004Y8050276D01*
X23404575Y8041131D01*
X23409148Y8027415D01*
X23409148Y8004810D01*
X23404575Y7991094D01*
X23400004Y7981950D01*
X23390859Y7972805D01*
X23377398Y7968487D01*
X23345648Y7968487D01*
X23493729Y8063737D02*
G01*
X23448263Y8063737D01*
X23443691Y8022844D01*
X23448263Y8027415D01*
X23461979Y8031987D01*
X23475441Y8031987D01*
X23489158Y8027415D01*
X23498302Y8018271D01*
X23502874Y8004810D01*
X23502874Y7995665D01*
X23498302Y7981950D01*
X23489158Y7972805D01*
X23475441Y7968487D01*
X23461979Y7968487D01*
X23448263Y7972805D01*
X23443691Y7977378D01*
X23439120Y7986521D01*
X23587456Y8050276D02*
G01*
X23582884Y8059165D01*
X23569168Y8063737D01*
X23560024Y8063737D01*
X23546561Y8059165D01*
X23537418Y8045704D01*
X23532845Y8022844D01*
X23532845Y8000237D01*
X23537418Y7981950D01*
X23546561Y7972805D01*
X23560024Y7968487D01*
X23564595Y7968487D01*
X23578311Y7972805D01*
X23587456Y7981950D01*
X23591774Y7995665D01*
X23591774Y8000237D01*
X23587456Y8013700D01*
X23578311Y8022844D01*
X23564595Y8027415D01*
X23560024Y8027415D01*
X23546561Y8022844D01*
X23537418Y8013700D01*
X23532845Y8000237D01*
X23409148Y7377937D02*
G01*
X23409148Y7282687D01*
X23409148Y7377937D02*
G01*
X23440898Y7377937D01*
X23454359Y7373365D01*
X23463504Y7364476D01*
X23468075Y7355331D01*
X23472648Y7341615D01*
X23472648Y7319010D01*
X23468075Y7305294D01*
X23463504Y7296150D01*
X23454359Y7287005D01*
X23440898Y7282687D01*
X23409148Y7282687D01*
X23557229Y7377937D02*
G01*
X23511763Y7377937D01*
X23507191Y7337044D01*
X23511763Y7341615D01*
X23525479Y7346187D01*
X23538941Y7346187D01*
X23552658Y7341615D01*
X23561802Y7332471D01*
X23566374Y7319010D01*
X23566374Y7309865D01*
X23561802Y7296150D01*
X23552658Y7287005D01*
X23538941Y7282687D01*
X23525479Y7282687D01*
X23511763Y7287005D01*
X23507191Y7291578D01*
X23502620Y7300721D01*
X23659845Y7377937D02*
G01*
X23614379Y7282687D01*
X23596345Y7377937D02*
G01*
X23659845Y7377937D01*
X23409148Y6450837D02*
G01*
X23409148Y6355587D01*
X23409148Y6450837D02*
G01*
X23440898Y6450837D01*
X23454359Y6446265D01*
X23463504Y6437376D01*
X23468075Y6428231D01*
X23472648Y6414515D01*
X23472648Y6391910D01*
X23468075Y6378194D01*
X23463504Y6369050D01*
X23454359Y6359905D01*
X23440898Y6355587D01*
X23409148Y6355587D01*
X23557229Y6450837D02*
G01*
X23511763Y6450837D01*
X23507191Y6409944D01*
X23511763Y6414515D01*
X23525479Y6419087D01*
X23538941Y6419087D01*
X23552658Y6414515D01*
X23561802Y6405371D01*
X23566374Y6391910D01*
X23566374Y6382765D01*
X23561802Y6369050D01*
X23552658Y6359905D01*
X23538941Y6355587D01*
X23525479Y6355587D01*
X23511763Y6359905D01*
X23507191Y6364478D01*
X23502620Y6373621D01*
X23618952Y6450837D02*
G01*
X23605490Y6446265D01*
X23600918Y6437376D01*
X23600918Y6428231D01*
X23605490Y6419087D01*
X23614379Y6414515D01*
X23632668Y6409944D01*
X23646384Y6405371D01*
X23655274Y6396481D01*
X23659845Y6387337D01*
X23659845Y6373621D01*
X23655274Y6364478D01*
X23650956Y6359905D01*
X23637240Y6355587D01*
X23618952Y6355587D01*
X23605490Y6359905D01*
X23600918Y6364478D01*
X23596345Y6373621D01*
X23596345Y6387337D01*
X23600918Y6396481D01*
X23610061Y6405371D01*
X23623524Y6409944D01*
X23641811Y6414515D01*
X23650956Y6419087D01*
X23655274Y6428231D01*
X23655274Y6437376D01*
X23650956Y6446265D01*
X23637240Y6450837D01*
X23618952Y6450837D01*
X23362920Y5932931D02*
G01*
X23358348Y5942076D01*
X23349204Y5950965D01*
X23340059Y5955537D01*
X23322025Y5955537D01*
X23312881Y5950965D01*
X23303738Y5942076D01*
X23299166Y5932931D01*
X23294848Y5919215D01*
X23294848Y5896610D01*
X23299166Y5882894D01*
X23303738Y5873750D01*
X23312881Y5864605D01*
X23322025Y5860034D01*
X23340059Y5860034D01*
X23349204Y5864605D01*
X23358348Y5873750D01*
X23362920Y5882894D01*
X23392891Y5937504D02*
G01*
X23402036Y5942076D01*
X23415752Y5955537D01*
X23415752Y5860034D01*
X23468329Y5955537D02*
G01*
X23454613Y5950965D01*
X23450295Y5942076D01*
X23450295Y5932931D01*
X23454613Y5923787D01*
X23463758Y5919215D01*
X23482045Y5914644D01*
X23495508Y5910071D01*
X23504652Y5901181D01*
X23509224Y5892037D01*
X23509224Y5878321D01*
X23504652Y5869178D01*
X23500079Y5864605D01*
X23486618Y5860034D01*
X23468329Y5860034D01*
X23454613Y5864605D01*
X23450295Y5869178D01*
X23445724Y5878321D01*
X23445724Y5892037D01*
X23450295Y5901181D01*
X23459186Y5910071D01*
X23472902Y5914644D01*
X23491190Y5919215D01*
X23500079Y5923787D01*
X23504652Y5932931D01*
X23504652Y5942076D01*
X23500079Y5950965D01*
X23486618Y5955537D01*
X23468329Y5955537D01*
X27252168Y5523737D02*
G01*
X27252168Y5428487D01*
X27252168Y5523737D02*
G01*
X27284172Y5523737D01*
X27297634Y5519165D01*
X27306777Y5510276D01*
X27311350Y5501131D01*
X27315922Y5487415D01*
X27315922Y5464810D01*
X27311350Y5451094D01*
X27306777Y5441950D01*
X27297634Y5432805D01*
X27284172Y5428487D01*
X27252168Y5428487D01*
X27391359Y5523737D02*
G01*
X27345893Y5460237D01*
X27413965Y5460237D01*
X27391359Y5523737D02*
G01*
X27391359Y5428487D01*
X27498548Y5510276D02*
G01*
X27493975Y5519165D01*
X27480513Y5523737D01*
X27471370Y5523737D01*
X27457654Y5519165D01*
X27448509Y5505704D01*
X27443938Y5482844D01*
X27443938Y5460237D01*
X27448509Y5441950D01*
X27457654Y5432805D01*
X27471370Y5428487D01*
X27475941Y5428487D01*
X27489404Y5432805D01*
X27498548Y5441950D01*
X27503120Y5455665D01*
X27503120Y5460237D01*
X27498548Y5473700D01*
X27489404Y5482844D01*
X27475941Y5487415D01*
X27471370Y5487415D01*
X27457654Y5482844D01*
X27448509Y5473700D01*
X27443938Y5460237D01*
X27188668Y8063737D02*
G01*
X27188668Y7968487D01*
X27188668Y8063737D02*
G01*
X27220672Y8063737D01*
X27234134Y8059165D01*
X27243277Y8050276D01*
X27247850Y8041131D01*
X27252422Y8027415D01*
X27252422Y8004810D01*
X27247850Y7991094D01*
X27243277Y7981950D01*
X27234134Y7972805D01*
X27220672Y7968487D01*
X27188668Y7968487D01*
X27327859Y8063737D02*
G01*
X27282393Y8000237D01*
X27350465Y8000237D01*
X27327859Y8063737D02*
G01*
X27327859Y7968487D01*
X27389582Y8063737D02*
G01*
X27439620Y8063737D01*
X27412441Y8027415D01*
X27425904Y8027415D01*
X27435048Y8022844D01*
X27439620Y8018271D01*
X27444191Y8004810D01*
X27444191Y7995665D01*
X27439620Y7981950D01*
X27430475Y7972805D01*
X27417013Y7968487D01*
X27403298Y7968487D01*
X27389582Y7972805D01*
X27385009Y7977378D01*
X27380438Y7986521D01*
X27252168Y7377937D02*
G01*
X27252168Y7282687D01*
X27252168Y7377937D02*
G01*
X27284172Y7377937D01*
X27297634Y7373365D01*
X27306777Y7364476D01*
X27311350Y7355331D01*
X27315922Y7341615D01*
X27315922Y7319010D01*
X27311350Y7305294D01*
X27306777Y7296150D01*
X27297634Y7287005D01*
X27284172Y7282687D01*
X27252168Y7282687D01*
X27391359Y7377937D02*
G01*
X27345893Y7314437D01*
X27413965Y7314437D01*
X27391359Y7377937D02*
G01*
X27391359Y7282687D01*
X27489404Y7377937D02*
G01*
X27443938Y7314437D01*
X27512263Y7314437D01*
X27489404Y7377937D02*
G01*
X27489404Y7282687D01*
X27252168Y6450837D02*
G01*
X27252168Y6355587D01*
X27252168Y6450837D02*
G01*
X27284172Y6450837D01*
X27297634Y6446265D01*
X27306777Y6437376D01*
X27311350Y6428231D01*
X27315922Y6414515D01*
X27315922Y6391910D01*
X27311350Y6378194D01*
X27306777Y6369050D01*
X27297634Y6359905D01*
X27284172Y6355587D01*
X27252168Y6355587D01*
X27391359Y6450837D02*
G01*
X27345893Y6387337D01*
X27413965Y6387337D01*
X27391359Y6450837D02*
G01*
X27391359Y6355587D01*
X27498548Y6450837D02*
G01*
X27453082Y6450837D01*
X27448509Y6409944D01*
X27453082Y6414515D01*
X27466798Y6419087D01*
X27480513Y6419087D01*
X27493975Y6414515D01*
X27503120Y6405371D01*
X27507691Y6391910D01*
X27507691Y6382765D01*
X27503120Y6369050D01*
X27493975Y6359905D01*
X27480513Y6355587D01*
X27466798Y6355587D01*
X27453082Y6359905D01*
X27448509Y6364478D01*
X27443938Y6373621D01*
X27206193Y5932931D02*
G01*
X27201622Y5942076D01*
X27192477Y5950965D01*
X27183334Y5955537D01*
X27165300Y5955537D01*
X27156156Y5950965D01*
X27147011Y5942076D01*
X27142440Y5932931D01*
X27137868Y5919215D01*
X27137868Y5896610D01*
X27142440Y5882894D01*
X27147011Y5873750D01*
X27156156Y5864605D01*
X27165300Y5860034D01*
X27183334Y5860034D01*
X27192477Y5864605D01*
X27201622Y5873750D01*
X27206193Y5882894D01*
X27236165Y5937504D02*
G01*
X27245309Y5942076D01*
X27258772Y5955537D01*
X27258772Y5860034D01*
X27334209Y5955537D02*
G01*
X27288743Y5892037D01*
X27357070Y5892037D01*
X27334209Y5955537D02*
G01*
X27334209Y5860034D01*
X24767793Y5932931D02*
G01*
X24763222Y5942076D01*
X24754077Y5950965D01*
X24744934Y5955537D01*
X24726900Y5955537D01*
X24717756Y5950965D01*
X24708611Y5942076D01*
X24704040Y5932931D01*
X24699468Y5919215D01*
X24699468Y5896610D01*
X24704040Y5882894D01*
X24708611Y5873750D01*
X24717756Y5864605D01*
X24726900Y5860034D01*
X24744934Y5860034D01*
X24754077Y5864605D01*
X24763222Y5873750D01*
X24767793Y5882894D01*
X24797766Y5937504D02*
G01*
X24806909Y5942076D01*
X24820372Y5955537D01*
X24820372Y5860034D01*
X24914098Y5955537D02*
G01*
X24868631Y5860034D01*
X24850343Y5955537D02*
G01*
X24914098Y5955537D01*
X24813768Y7377937D02*
G01*
X24813768Y7282687D01*
X24813768Y7377937D02*
G01*
X24845772Y7377937D01*
X24859234Y7373365D01*
X24868377Y7364476D01*
X24872950Y7355331D01*
X24877522Y7341615D01*
X24877522Y7319010D01*
X24872950Y7305294D01*
X24868377Y7296150D01*
X24859234Y7287005D01*
X24845772Y7282687D01*
X24813768Y7282687D01*
X24962104Y7377937D02*
G01*
X24916638Y7377937D01*
X24912066Y7337044D01*
X24916638Y7341615D01*
X24930100Y7346187D01*
X24943816Y7346187D01*
X24957531Y7341615D01*
X24966675Y7332471D01*
X24970993Y7319010D01*
X24970993Y7309865D01*
X24966675Y7296150D01*
X24957531Y7287005D01*
X24943816Y7282687D01*
X24930100Y7282687D01*
X24916638Y7287005D01*
X24912066Y7291578D01*
X24907493Y7300721D01*
X25010109Y7377937D02*
G01*
X25060148Y7377937D01*
X25032970Y7341615D01*
X25046431Y7341615D01*
X25055575Y7337044D01*
X25060148Y7332471D01*
X25064720Y7319010D01*
X25064720Y7309865D01*
X25060148Y7296150D01*
X25051004Y7287005D01*
X25037541Y7282687D01*
X25023825Y7282687D01*
X25010109Y7287005D01*
X25005538Y7291578D01*
X25001220Y7300721D01*
X24813768Y6450837D02*
G01*
X24813768Y6355587D01*
X24813768Y6450837D02*
G01*
X24845772Y6450837D01*
X24859234Y6446265D01*
X24868377Y6437376D01*
X24872950Y6428231D01*
X24877522Y6414515D01*
X24877522Y6391910D01*
X24872950Y6378194D01*
X24868377Y6369050D01*
X24859234Y6359905D01*
X24845772Y6355587D01*
X24813768Y6355587D01*
X24962104Y6450837D02*
G01*
X24916638Y6450837D01*
X24912066Y6409944D01*
X24916638Y6414515D01*
X24930100Y6419087D01*
X24943816Y6419087D01*
X24957531Y6414515D01*
X24966675Y6405371D01*
X24970993Y6391910D01*
X24970993Y6382765D01*
X24966675Y6369050D01*
X24957531Y6359905D01*
X24943816Y6355587D01*
X24930100Y6355587D01*
X24916638Y6359905D01*
X24912066Y6364478D01*
X24907493Y6373621D01*
X25046431Y6450837D02*
G01*
X25001220Y6387337D01*
X25069291Y6387337D01*
X25046431Y6450837D02*
G01*
X25046431Y6355587D01*
X24813768Y5523737D02*
G01*
X24813768Y5428487D01*
X24813768Y5523737D02*
G01*
X24845772Y5523737D01*
X24859234Y5519165D01*
X24868377Y5510276D01*
X24872950Y5501131D01*
X24877522Y5487415D01*
X24877522Y5464810D01*
X24872950Y5451094D01*
X24868377Y5441950D01*
X24859234Y5432805D01*
X24845772Y5428487D01*
X24813768Y5428487D01*
X24962104Y5523737D02*
G01*
X24916638Y5523737D01*
X24912066Y5482844D01*
X24916638Y5487415D01*
X24930100Y5491987D01*
X24943816Y5491987D01*
X24957531Y5487415D01*
X24966675Y5478271D01*
X24970993Y5464810D01*
X24970993Y5455665D01*
X24966675Y5441950D01*
X24957531Y5432805D01*
X24943816Y5428487D01*
X24930100Y5428487D01*
X24916638Y5432805D01*
X24912066Y5437378D01*
X24907493Y5446521D01*
X25055575Y5523737D02*
G01*
X25010109Y5523737D01*
X25005538Y5482844D01*
X25010109Y5487415D01*
X25023825Y5491987D01*
X25037541Y5491987D01*
X25051004Y5487415D01*
X25060148Y5478271D01*
X25064720Y5464810D01*
X25064720Y5455665D01*
X25060148Y5441950D01*
X25051004Y5432805D01*
X25037541Y5428487D01*
X25023825Y5428487D01*
X25010109Y5432805D01*
X25005538Y5437378D01*
X25001220Y5446521D01*
X26109168Y5625337D02*
G01*
X26109168Y5530087D01*
X26109168Y5625337D02*
G01*
X26141172Y5625337D01*
X26154634Y5620765D01*
X26163777Y5611876D01*
X26168350Y5602731D01*
X26172922Y5589015D01*
X26172922Y5566410D01*
X26168350Y5552694D01*
X26163777Y5543550D01*
X26154634Y5534405D01*
X26141172Y5530087D01*
X26109168Y5530087D01*
X26248359Y5625337D02*
G01*
X26202893Y5561837D01*
X26270965Y5561837D01*
X26248359Y5625337D02*
G01*
X26248359Y5530087D01*
X26360120Y5593587D02*
G01*
X26355548Y5579871D01*
X26346404Y5570981D01*
X26332941Y5566410D01*
X26328370Y5566410D01*
X26314654Y5570981D01*
X26305509Y5579871D01*
X26300938Y5593587D01*
X26300938Y5598160D01*
X26305509Y5611876D01*
X26314654Y5620765D01*
X26328370Y5625337D01*
X26332941Y5625337D01*
X26346404Y5620765D01*
X26355548Y5611876D01*
X26360120Y5593587D01*
X26360120Y5570981D01*
X26355548Y5548121D01*
X26346404Y5534405D01*
X26332941Y5530087D01*
X26323798Y5530087D01*
X26310082Y5534405D01*
X26305509Y5543550D01*
X26109168Y6565137D02*
G01*
X26109168Y6469887D01*
X26109168Y6565137D02*
G01*
X26141172Y6565137D01*
X26154634Y6560565D01*
X26163777Y6551676D01*
X26168350Y6542531D01*
X26172922Y6528815D01*
X26172922Y6506210D01*
X26168350Y6492494D01*
X26163777Y6483350D01*
X26154634Y6474205D01*
X26141172Y6469887D01*
X26109168Y6469887D01*
X26248359Y6565137D02*
G01*
X26202893Y6501637D01*
X26270965Y6501637D01*
X26248359Y6565137D02*
G01*
X26248359Y6469887D01*
X26323798Y6565137D02*
G01*
X26310082Y6560565D01*
X26305509Y6551676D01*
X26305509Y6542531D01*
X26310082Y6533387D01*
X26319225Y6528815D01*
X26337513Y6524244D01*
X26350975Y6519671D01*
X26360120Y6510781D01*
X26364691Y6501637D01*
X26364691Y6487921D01*
X26360120Y6478778D01*
X26355548Y6474205D01*
X26341832Y6469887D01*
X26323798Y6469887D01*
X26310082Y6474205D01*
X26305509Y6478778D01*
X26300938Y6487921D01*
X26300938Y6501637D01*
X26305509Y6510781D01*
X26314654Y6519671D01*
X26328370Y6524244D01*
X26346404Y6528815D01*
X26355548Y6533387D01*
X26360120Y6542531D01*
X26360120Y6551676D01*
X26355548Y6560565D01*
X26341832Y6565137D01*
X26323798Y6565137D01*
X26109168Y7479537D02*
G01*
X26109168Y7384287D01*
X26109168Y7479537D02*
G01*
X26141172Y7479537D01*
X26154634Y7474965D01*
X26163777Y7466076D01*
X26168350Y7456931D01*
X26172922Y7443215D01*
X26172922Y7420610D01*
X26168350Y7406894D01*
X26163777Y7397750D01*
X26154634Y7388605D01*
X26141172Y7384287D01*
X26109168Y7384287D01*
X26248359Y7479537D02*
G01*
X26202893Y7416037D01*
X26270965Y7416037D01*
X26248359Y7479537D02*
G01*
X26248359Y7384287D01*
X26364691Y7479537D02*
G01*
X26319225Y7384287D01*
X26300938Y7479537D02*
G01*
X26364691Y7479537D01*
X25448768Y5625337D02*
G01*
X25448768Y5530087D01*
X25448768Y5625337D02*
G01*
X25480772Y5625337D01*
X25494234Y5620765D01*
X25503377Y5611876D01*
X25507950Y5602731D01*
X25512522Y5589015D01*
X25512522Y5566410D01*
X25507950Y5552694D01*
X25503377Y5543550D01*
X25494234Y5534405D01*
X25480772Y5530087D01*
X25448768Y5530087D01*
X25597104Y5625337D02*
G01*
X25551638Y5625337D01*
X25547066Y5584444D01*
X25551638Y5589015D01*
X25565100Y5593587D01*
X25578816Y5593587D01*
X25592531Y5589015D01*
X25601675Y5579871D01*
X25605993Y5566410D01*
X25605993Y5557265D01*
X25601675Y5543550D01*
X25592531Y5534405D01*
X25578816Y5530087D01*
X25565100Y5530087D01*
X25551638Y5534405D01*
X25547066Y5538978D01*
X25542493Y5548121D01*
X25640538Y5602731D02*
G01*
X25640538Y5607304D01*
X25645109Y5616447D01*
X25649681Y5620765D01*
X25658825Y5625337D01*
X25677113Y5625337D01*
X25686004Y5620765D01*
X25690575Y5616447D01*
X25695148Y5607304D01*
X25695148Y5598160D01*
X25690575Y5589015D01*
X25681431Y5575300D01*
X25636220Y5530087D01*
X25699720Y5530087D01*
X25448768Y6565137D02*
G01*
X25448768Y6469887D01*
X25448768Y6565137D02*
G01*
X25480772Y6565137D01*
X25494234Y6560565D01*
X25503377Y6551676D01*
X25507950Y6542531D01*
X25512522Y6528815D01*
X25512522Y6506210D01*
X25507950Y6492494D01*
X25503377Y6483350D01*
X25494234Y6474205D01*
X25480772Y6469887D01*
X25448768Y6469887D01*
X25597104Y6565137D02*
G01*
X25551638Y6565137D01*
X25547066Y6524244D01*
X25551638Y6528815D01*
X25565100Y6533387D01*
X25578816Y6533387D01*
X25592531Y6528815D01*
X25601675Y6519671D01*
X25605993Y6506210D01*
X25605993Y6497065D01*
X25601675Y6483350D01*
X25592531Y6474205D01*
X25578816Y6469887D01*
X25565100Y6469887D01*
X25551638Y6474205D01*
X25547066Y6478778D01*
X25542493Y6487921D01*
X25636220Y6547104D02*
G01*
X25645109Y6551676D01*
X25658825Y6565137D01*
X25658825Y6469887D01*
X25448768Y7479537D02*
G01*
X25448768Y7384287D01*
X25448768Y7479537D02*
G01*
X25480772Y7479537D01*
X25494234Y7474965D01*
X25503377Y7466076D01*
X25507950Y7456931D01*
X25512522Y7443215D01*
X25512522Y7420610D01*
X25507950Y7406894D01*
X25503377Y7397750D01*
X25494234Y7388605D01*
X25480772Y7384287D01*
X25448768Y7384287D01*
X25597104Y7479537D02*
G01*
X25551638Y7479537D01*
X25547066Y7438644D01*
X25551638Y7443215D01*
X25565100Y7447787D01*
X25578816Y7447787D01*
X25592531Y7443215D01*
X25601675Y7434071D01*
X25605993Y7420610D01*
X25605993Y7411465D01*
X25601675Y7397750D01*
X25592531Y7388605D01*
X25578816Y7384287D01*
X25565100Y7384287D01*
X25551638Y7388605D01*
X25547066Y7393178D01*
X25542493Y7402321D01*
X25663398Y7479537D02*
G01*
X25649681Y7474965D01*
X25640538Y7461504D01*
X25636220Y7438644D01*
X25636220Y7425181D01*
X25640538Y7402321D01*
X25649681Y7388605D01*
X25663398Y7384287D01*
X25672541Y7384287D01*
X25686004Y7388605D01*
X25695148Y7402321D01*
X25699720Y7425181D01*
X25699720Y7438644D01*
X25695148Y7461504D01*
X25686004Y7474965D01*
X25672541Y7479537D01*
X25663398Y7479537D01*
X25772943Y6199690D02*
G01*
X25768371Y6208580D01*
X25759227Y6217724D01*
X25750337Y6222296D01*
X25732049Y6222296D01*
X25722905Y6217724D01*
X25714015Y6208580D01*
X25709443Y6199690D01*
X25704871Y6185974D01*
X25704871Y6163114D01*
X25709443Y6149652D01*
X25714015Y6140508D01*
X25722905Y6131364D01*
X25732049Y6126792D01*
X25750337Y6126792D01*
X25759227Y6131364D01*
X25768371Y6140508D01*
X25772943Y6149652D01*
X25802915Y6204008D02*
G01*
X25812059Y6208580D01*
X25825775Y6222296D01*
X25825775Y6126792D01*
X25910357Y6222296D02*
G01*
X25864891Y6222296D01*
X25860319Y6181402D01*
X25864891Y6185974D01*
X25878353Y6190546D01*
X25892069Y6190546D01*
X25905785Y6185974D01*
X25914675Y6176830D01*
X25919247Y6163114D01*
X25919247Y6154224D01*
X25914675Y6140508D01*
X25905785Y6131364D01*
X25892069Y6126792D01*
X25878353Y6126792D01*
X25864891Y6131364D01*
X25860319Y6135936D01*
X25855747Y6145080D01*
X25125243Y6199690D02*
G01*
X25120671Y6208580D01*
X25111527Y6217724D01*
X25102637Y6222296D01*
X25084349Y6222296D01*
X25075205Y6217724D01*
X25066315Y6208580D01*
X25061743Y6199690D01*
X25057171Y6185974D01*
X25057171Y6163114D01*
X25061743Y6149652D01*
X25066315Y6140508D01*
X25075205Y6131364D01*
X25084349Y6126792D01*
X25102637Y6126792D01*
X25111527Y6131364D01*
X25120671Y6140508D01*
X25125243Y6149652D01*
X25155215Y6204008D02*
G01*
X25164359Y6208580D01*
X25178075Y6222296D01*
X25178075Y6126792D01*
X25262657Y6208580D02*
G01*
X25258085Y6217724D01*
X25244369Y6222296D01*
X25235225Y6222296D01*
X25221763Y6217724D01*
X25212619Y6204008D01*
X25208047Y6181402D01*
X25208047Y6158796D01*
X25212619Y6140508D01*
X25221763Y6131364D01*
X25235225Y6126792D01*
X25239797Y6126792D01*
X25253513Y6131364D01*
X25262657Y6140508D01*
X25266975Y6154224D01*
X25266975Y6158796D01*
X25262657Y6172258D01*
X25253513Y6181402D01*
X25239797Y6185974D01*
X25235225Y6185974D01*
X25221763Y6181402D01*
X25212619Y6172258D01*
X25208047Y6158796D01*
X28640277Y5932931D02*
G01*
X28635706Y5942076D01*
X28626561Y5950965D01*
X28617672Y5955537D01*
X28599384Y5955537D01*
X28590240Y5950965D01*
X28581095Y5942076D01*
X28576524Y5932931D01*
X28572206Y5919215D01*
X28572206Y5896610D01*
X28576524Y5882894D01*
X28581095Y5873750D01*
X28590240Y5864605D01*
X28599384Y5860034D01*
X28617672Y5860034D01*
X28626561Y5864605D01*
X28635706Y5873750D01*
X28640277Y5882894D01*
X28670250Y5937504D02*
G01*
X28679393Y5942076D01*
X28693109Y5955537D01*
X28693109Y5860034D01*
X28732225Y5955537D02*
G01*
X28782009Y5955537D01*
X28754832Y5919215D01*
X28768548Y5919215D01*
X28777438Y5914644D01*
X28782009Y5910071D01*
X28786582Y5896610D01*
X28786582Y5887465D01*
X28782009Y5873750D01*
X28773120Y5864605D01*
X28759404Y5860034D01*
X28745688Y5860034D01*
X28732225Y5864605D01*
X28727654Y5869178D01*
X28723082Y5878321D01*
X28686506Y5523737D02*
G01*
X28686506Y5428487D01*
X28686506Y5523737D02*
G01*
X28718256Y5523737D01*
X28731972Y5519165D01*
X28740861Y5510276D01*
X28745434Y5501131D01*
X28750006Y5487415D01*
X28750006Y5464810D01*
X28745434Y5451094D01*
X28740861Y5441950D01*
X28731972Y5432805D01*
X28718256Y5428487D01*
X28686506Y5428487D01*
X28825443Y5523737D02*
G01*
X28779977Y5460237D01*
X28848304Y5460237D01*
X28825443Y5523737D02*
G01*
X28825443Y5428487D01*
X28882848Y5501131D02*
G01*
X28882848Y5505704D01*
X28887420Y5514847D01*
X28891991Y5519165D01*
X28900882Y5523737D01*
X28919170Y5523737D01*
X28928313Y5519165D01*
X28932886Y5514847D01*
X28937204Y5505704D01*
X28937204Y5496560D01*
X28932886Y5487415D01*
X28923741Y5473700D01*
X28878275Y5428487D01*
X28941775Y5428487D01*
X28686506Y6450837D02*
G01*
X28686506Y6355587D01*
X28686506Y6450837D02*
G01*
X28718256Y6450837D01*
X28731972Y6446265D01*
X28740861Y6437376D01*
X28745434Y6428231D01*
X28750006Y6414515D01*
X28750006Y6391910D01*
X28745434Y6378194D01*
X28740861Y6369050D01*
X28731972Y6359905D01*
X28718256Y6355587D01*
X28686506Y6355587D01*
X28825443Y6450837D02*
G01*
X28779977Y6387337D01*
X28848304Y6387337D01*
X28825443Y6450837D02*
G01*
X28825443Y6355587D01*
X28878275Y6432804D02*
G01*
X28887420Y6437376D01*
X28900882Y6450837D01*
X28900882Y6355587D01*
X28686506Y7377937D02*
G01*
X28686506Y7282687D01*
X28686506Y7377937D02*
G01*
X28718256Y7377937D01*
X28731972Y7373365D01*
X28740861Y7364476D01*
X28745434Y7355331D01*
X28750006Y7341615D01*
X28750006Y7319010D01*
X28745434Y7305294D01*
X28740861Y7296150D01*
X28731972Y7287005D01*
X28718256Y7282687D01*
X28686506Y7282687D01*
X28825443Y7377937D02*
G01*
X28779977Y7314437D01*
X28848304Y7314437D01*
X28825443Y7377937D02*
G01*
X28825443Y7282687D01*
X28905454Y7377937D02*
G01*
X28891991Y7373365D01*
X28882848Y7359904D01*
X28878275Y7337044D01*
X28878275Y7323581D01*
X28882848Y7300721D01*
X28891991Y7287005D01*
X28905454Y7282687D01*
X28914598Y7282687D01*
X28928313Y7287005D01*
X28937204Y7300721D01*
X28941775Y7323581D01*
X28941775Y7337044D01*
X28937204Y7359904D01*
X28928313Y7373365D01*
X28914598Y7377937D01*
X28905454Y7377937D01*
X31095441Y5523737D02*
G01*
X31095441Y5428487D01*
X31095441Y5523737D02*
G01*
X31127191Y5523737D01*
X31140908Y5519165D01*
X31150052Y5510276D01*
X31154624Y5501131D01*
X31158941Y5487415D01*
X31158941Y5464810D01*
X31154624Y5451094D01*
X31150052Y5441950D01*
X31140908Y5432805D01*
X31127191Y5428487D01*
X31095441Y5428487D01*
X31198058Y5523737D02*
G01*
X31248095Y5523737D01*
X31220918Y5487415D01*
X31234634Y5487415D01*
X31243524Y5482844D01*
X31248095Y5478271D01*
X31252668Y5464810D01*
X31252668Y5455665D01*
X31248095Y5441950D01*
X31238952Y5432805D01*
X31225490Y5428487D01*
X31211774Y5428487D01*
X31198058Y5432805D01*
X31193486Y5437378D01*
X31189168Y5446521D01*
X31341822Y5491987D02*
G01*
X31337250Y5478271D01*
X31328106Y5469381D01*
X31314643Y5464810D01*
X31310072Y5464810D01*
X31296356Y5469381D01*
X31287211Y5478271D01*
X31282640Y5491987D01*
X31282640Y5496560D01*
X31287211Y5510276D01*
X31296356Y5519165D01*
X31310072Y5523737D01*
X31314643Y5523737D01*
X31328106Y5519165D01*
X31337250Y5510276D01*
X31341822Y5491987D01*
X31341822Y5469381D01*
X31337250Y5446521D01*
X31328106Y5432805D01*
X31314643Y5428487D01*
X31305500Y5428487D01*
X31291784Y5432805D01*
X31287211Y5441950D01*
X31031941Y8063737D02*
G01*
X31031941Y7968487D01*
X31031941Y8063737D02*
G01*
X31063691Y8063737D01*
X31077408Y8059165D01*
X31086552Y8050276D01*
X31091124Y8041131D01*
X31095441Y8027415D01*
X31095441Y8004810D01*
X31091124Y7991094D01*
X31086552Y7981950D01*
X31077408Y7972805D01*
X31063691Y7968487D01*
X31031941Y7968487D01*
X31134558Y8063737D02*
G01*
X31184595Y8063737D01*
X31157418Y8027415D01*
X31171134Y8027415D01*
X31180024Y8022844D01*
X31184595Y8018271D01*
X31189168Y8004810D01*
X31189168Y7995665D01*
X31184595Y7981950D01*
X31175452Y7972805D01*
X31161990Y7968487D01*
X31148274Y7968487D01*
X31134558Y7972805D01*
X31129986Y7977378D01*
X31125668Y7986521D01*
X31273750Y8050276D02*
G01*
X31269177Y8059165D01*
X31255461Y8063737D01*
X31246572Y8063737D01*
X31232856Y8059165D01*
X31223711Y8045704D01*
X31219140Y8022844D01*
X31219140Y8000237D01*
X31223711Y7981950D01*
X31232856Y7972805D01*
X31246572Y7968487D01*
X31251143Y7968487D01*
X31264606Y7972805D01*
X31273750Y7981950D01*
X31278322Y7995665D01*
X31278322Y8000237D01*
X31273750Y8013700D01*
X31264606Y8022844D01*
X31251143Y8027415D01*
X31246572Y8027415D01*
X31232856Y8022844D01*
X31223711Y8013700D01*
X31219140Y8000237D01*
X31095441Y7377937D02*
G01*
X31095441Y7282687D01*
X31095441Y7377937D02*
G01*
X31127191Y7377937D01*
X31140908Y7373365D01*
X31150052Y7364476D01*
X31154624Y7355331D01*
X31158941Y7341615D01*
X31158941Y7319010D01*
X31154624Y7305294D01*
X31150052Y7296150D01*
X31140908Y7287005D01*
X31127191Y7282687D01*
X31095441Y7282687D01*
X31198058Y7377937D02*
G01*
X31248095Y7377937D01*
X31220918Y7341615D01*
X31234634Y7341615D01*
X31243524Y7337044D01*
X31248095Y7332471D01*
X31252668Y7319010D01*
X31252668Y7309865D01*
X31248095Y7296150D01*
X31238952Y7287005D01*
X31225490Y7282687D01*
X31211774Y7282687D01*
X31198058Y7287005D01*
X31193486Y7291578D01*
X31189168Y7300721D01*
X31346393Y7377937D02*
G01*
X31300927Y7282687D01*
X31282640Y7377937D02*
G01*
X31346393Y7377937D01*
X31095441Y6450837D02*
G01*
X31095441Y6355587D01*
X31095441Y6450837D02*
G01*
X31127191Y6450837D01*
X31140908Y6446265D01*
X31150052Y6437376D01*
X31154624Y6428231D01*
X31158941Y6414515D01*
X31158941Y6391910D01*
X31154624Y6378194D01*
X31150052Y6369050D01*
X31140908Y6359905D01*
X31127191Y6355587D01*
X31095441Y6355587D01*
X31198058Y6450837D02*
G01*
X31248095Y6450837D01*
X31220918Y6414515D01*
X31234634Y6414515D01*
X31243524Y6409944D01*
X31248095Y6405371D01*
X31252668Y6391910D01*
X31252668Y6382765D01*
X31248095Y6369050D01*
X31238952Y6359905D01*
X31225490Y6355587D01*
X31211774Y6355587D01*
X31198058Y6359905D01*
X31193486Y6364478D01*
X31189168Y6373621D01*
X31305500Y6450837D02*
G01*
X31291784Y6446265D01*
X31287211Y6437376D01*
X31287211Y6428231D01*
X31291784Y6419087D01*
X31300927Y6414515D01*
X31318961Y6409944D01*
X31332677Y6405371D01*
X31341822Y6396481D01*
X31346393Y6387337D01*
X31346393Y6373621D01*
X31341822Y6364478D01*
X31337250Y6359905D01*
X31323534Y6355587D01*
X31305500Y6355587D01*
X31291784Y6359905D01*
X31287211Y6364478D01*
X31282640Y6373621D01*
X31282640Y6387337D01*
X31287211Y6396481D01*
X31296356Y6405371D01*
X31310072Y6409944D01*
X31328106Y6414515D01*
X31337250Y6419087D01*
X31341822Y6428231D01*
X31341822Y6437376D01*
X31337250Y6446265D01*
X31323534Y6450837D01*
X31305500Y6450837D01*
X31049213Y5932931D02*
G01*
X31044641Y5942076D01*
X31035752Y5950965D01*
X31026608Y5955537D01*
X31008320Y5955537D01*
X30999175Y5950965D01*
X30990286Y5942076D01*
X30985713Y5932931D01*
X30981141Y5919215D01*
X30981141Y5896610D01*
X30985713Y5882894D01*
X30990286Y5873750D01*
X30999175Y5864605D01*
X31008320Y5860034D01*
X31026608Y5860034D01*
X31035752Y5864605D01*
X31044641Y5873750D01*
X31049213Y5882894D01*
X31079186Y5937504D02*
G01*
X31088329Y5942076D01*
X31102045Y5955537D01*
X31102045Y5860034D01*
X31136590Y5932931D02*
G01*
X31136590Y5937504D01*
X31141161Y5946394D01*
X31145734Y5950965D01*
X31154877Y5955537D01*
X31172911Y5955537D01*
X31182056Y5950965D01*
X31186627Y5946394D01*
X31191200Y5937504D01*
X31191200Y5928360D01*
X31186627Y5919215D01*
X31177484Y5905500D01*
X31132018Y5860034D01*
X31195772Y5860034D01*
X32203136Y5625337D02*
G01*
X32203136Y5530087D01*
X32203136Y5625337D02*
G01*
X32235140Y5625337D01*
X32248602Y5620765D01*
X32257745Y5611876D01*
X32262318Y5602731D01*
X32266890Y5589015D01*
X32266890Y5566410D01*
X32262318Y5552694D01*
X32257745Y5543550D01*
X32248602Y5534405D01*
X32235140Y5530087D01*
X32203136Y5530087D01*
X32306006Y5625337D02*
G01*
X32356043Y5625337D01*
X32328611Y5589015D01*
X32342327Y5589015D01*
X32351472Y5584444D01*
X32356043Y5579871D01*
X32360615Y5566410D01*
X32360615Y5557265D01*
X32356043Y5543550D01*
X32346900Y5534405D01*
X32333184Y5530087D01*
X32319468Y5530087D01*
X32306006Y5534405D01*
X32301434Y5538978D01*
X32296861Y5548121D01*
X32444943Y5625337D02*
G01*
X32399477Y5625337D01*
X32395159Y5584444D01*
X32399477Y5589015D01*
X32413193Y5593587D01*
X32426909Y5593587D01*
X32440372Y5589015D01*
X32449515Y5579871D01*
X32454088Y5566410D01*
X32454088Y5557265D01*
X32449515Y5543550D01*
X32440372Y5534405D01*
X32426909Y5530087D01*
X32413193Y5530087D01*
X32399477Y5534405D01*
X32395159Y5538978D01*
X32390588Y5548121D01*
X32203136Y6565137D02*
G01*
X32203136Y6469887D01*
X32203136Y6565137D02*
G01*
X32235140Y6565137D01*
X32248602Y6560565D01*
X32257745Y6551676D01*
X32262318Y6542531D01*
X32266890Y6528815D01*
X32266890Y6506210D01*
X32262318Y6492494D01*
X32257745Y6483350D01*
X32248602Y6474205D01*
X32235140Y6469887D01*
X32203136Y6469887D01*
X32306006Y6565137D02*
G01*
X32356043Y6565137D01*
X32328611Y6528815D01*
X32342327Y6528815D01*
X32351472Y6524244D01*
X32356043Y6519671D01*
X32360615Y6506210D01*
X32360615Y6497065D01*
X32356043Y6483350D01*
X32346900Y6474205D01*
X32333184Y6469887D01*
X32319468Y6469887D01*
X32306006Y6474205D01*
X32301434Y6478778D01*
X32296861Y6487921D01*
X32436054Y6565137D02*
G01*
X32390588Y6501637D01*
X32458659Y6501637D01*
X32436054Y6565137D02*
G01*
X32436054Y6469887D01*
X32203136Y7479537D02*
G01*
X32203136Y7384287D01*
X32203136Y7479537D02*
G01*
X32235140Y7479537D01*
X32248602Y7474965D01*
X32257745Y7466076D01*
X32262318Y7456931D01*
X32266890Y7443215D01*
X32266890Y7420610D01*
X32262318Y7406894D01*
X32257745Y7397750D01*
X32248602Y7388605D01*
X32235140Y7384287D01*
X32203136Y7384287D01*
X32306006Y7479537D02*
G01*
X32356043Y7479537D01*
X32328611Y7443215D01*
X32342327Y7443215D01*
X32351472Y7438644D01*
X32356043Y7434071D01*
X32360615Y7420610D01*
X32360615Y7411465D01*
X32356043Y7397750D01*
X32346900Y7388605D01*
X32333184Y7384287D01*
X32319468Y7384287D01*
X32306006Y7388605D01*
X32301434Y7393178D01*
X32296861Y7402321D01*
X32399477Y7479537D02*
G01*
X32449515Y7479537D01*
X32422338Y7443215D01*
X32436054Y7443215D01*
X32444943Y7438644D01*
X32449515Y7434071D01*
X32454088Y7420610D01*
X32454088Y7411465D01*
X32449515Y7397750D01*
X32440372Y7388605D01*
X32426909Y7384287D01*
X32413193Y7384287D01*
X32399477Y7388605D01*
X32395159Y7393178D01*
X32390588Y7402321D01*
X32850836Y5625337D02*
G01*
X32850836Y5530087D01*
X32850836Y5625337D02*
G01*
X32882840Y5625337D01*
X32896302Y5620765D01*
X32905445Y5611876D01*
X32910018Y5602731D01*
X32914590Y5589015D01*
X32914590Y5566410D01*
X32910018Y5552694D01*
X32905445Y5543550D01*
X32896302Y5534405D01*
X32882840Y5530087D01*
X32850836Y5530087D01*
X32953706Y5625337D02*
G01*
X33003743Y5625337D01*
X32976311Y5589015D01*
X32990027Y5589015D01*
X32999172Y5584444D01*
X33003743Y5579871D01*
X33008315Y5566410D01*
X33008315Y5557265D01*
X33003743Y5543550D01*
X32994600Y5534405D01*
X32980884Y5530087D01*
X32967168Y5530087D01*
X32953706Y5534405D01*
X32949134Y5538978D01*
X32944561Y5548121D01*
X33042859Y5602731D02*
G01*
X33042859Y5607304D01*
X33047177Y5616447D01*
X33051750Y5620765D01*
X33060893Y5625337D01*
X33079182Y5625337D01*
X33088072Y5620765D01*
X33092643Y5616447D01*
X33097215Y5607304D01*
X33097215Y5598160D01*
X33092643Y5589015D01*
X33083754Y5575300D01*
X33038288Y5530087D01*
X33101788Y5530087D01*
X32850836Y6565137D02*
G01*
X32850836Y6469887D01*
X32850836Y6565137D02*
G01*
X32882840Y6565137D01*
X32896302Y6560565D01*
X32905445Y6551676D01*
X32910018Y6542531D01*
X32914590Y6528815D01*
X32914590Y6506210D01*
X32910018Y6492494D01*
X32905445Y6483350D01*
X32896302Y6474205D01*
X32882840Y6469887D01*
X32850836Y6469887D01*
X32953706Y6565137D02*
G01*
X33003743Y6565137D01*
X32976311Y6528815D01*
X32990027Y6528815D01*
X32999172Y6524244D01*
X33003743Y6519671D01*
X33008315Y6506210D01*
X33008315Y6497065D01*
X33003743Y6483350D01*
X32994600Y6474205D01*
X32980884Y6469887D01*
X32967168Y6469887D01*
X32953706Y6474205D01*
X32949134Y6478778D01*
X32944561Y6487921D01*
X33038288Y6547104D02*
G01*
X33047177Y6551676D01*
X33060893Y6565137D01*
X33060893Y6469887D01*
X32850836Y7479537D02*
G01*
X32850836Y7384287D01*
X32850836Y7479537D02*
G01*
X32882840Y7479537D01*
X32896302Y7474965D01*
X32905445Y7466076D01*
X32910018Y7456931D01*
X32914590Y7443215D01*
X32914590Y7420610D01*
X32910018Y7406894D01*
X32905445Y7397750D01*
X32896302Y7388605D01*
X32882840Y7384287D01*
X32850836Y7384287D01*
X32953706Y7479537D02*
G01*
X33003743Y7479537D01*
X32976311Y7443215D01*
X32990027Y7443215D01*
X32999172Y7438644D01*
X33003743Y7434071D01*
X33008315Y7420610D01*
X33008315Y7411465D01*
X33003743Y7397750D01*
X32994600Y7388605D01*
X32980884Y7384287D01*
X32967168Y7384287D01*
X32953706Y7388605D01*
X32949134Y7393178D01*
X32944561Y7402321D01*
X33065465Y7479537D02*
G01*
X33051750Y7474965D01*
X33042859Y7461504D01*
X33038288Y7438644D01*
X33038288Y7425181D01*
X33042859Y7402321D01*
X33051750Y7388605D01*
X33065465Y7384287D01*
X33074609Y7384287D01*
X33088072Y7388605D01*
X33097215Y7402321D01*
X33101788Y7425181D01*
X33101788Y7438644D01*
X33097215Y7461504D01*
X33088072Y7474965D01*
X33074609Y7479537D01*
X33065465Y7479537D01*
X31869049Y6199631D02*
G01*
X31864477Y6208776D01*
X31855333Y6217665D01*
X31846189Y6222237D01*
X31828155Y6222237D01*
X31819011Y6217665D01*
X31809867Y6208776D01*
X31805295Y6199631D01*
X31800723Y6185915D01*
X31800723Y6163310D01*
X31805295Y6149594D01*
X31809867Y6140450D01*
X31819011Y6131305D01*
X31828155Y6126734D01*
X31846189Y6126734D01*
X31855333Y6131305D01*
X31864477Y6140450D01*
X31869049Y6149594D01*
X31899021Y6204204D02*
G01*
X31908165Y6208776D01*
X31921627Y6222237D01*
X31921627Y6126734D01*
X31951599Y6204204D02*
G01*
X31960743Y6208776D01*
X31974459Y6222237D01*
X31974459Y6126734D01*
X32504049Y6199631D02*
G01*
X32499477Y6208776D01*
X32490333Y6217665D01*
X32481189Y6222237D01*
X32463155Y6222237D01*
X32454011Y6217665D01*
X32444867Y6208776D01*
X32440295Y6199631D01*
X32435723Y6185915D01*
X32435723Y6163310D01*
X32440295Y6149594D01*
X32444867Y6140450D01*
X32454011Y6131305D01*
X32463155Y6126734D01*
X32481189Y6126734D01*
X32490333Y6131305D01*
X32499477Y6140450D01*
X32504049Y6149594D01*
X32534021Y6204204D02*
G01*
X32543165Y6208776D01*
X32556627Y6222237D01*
X32556627Y6126734D01*
X32614031Y6222237D02*
G01*
X32600315Y6217665D01*
X32591171Y6204204D01*
X32586599Y6181344D01*
X32586599Y6167881D01*
X32591171Y6145021D01*
X32600315Y6131305D01*
X32614031Y6126734D01*
X32623175Y6126734D01*
X32636637Y6131305D01*
X32645781Y6145021D01*
X32650353Y6167881D01*
X32650353Y6181344D01*
X32645781Y6204204D01*
X32636637Y6217665D01*
X32623175Y6222237D01*
X32614031Y6222237D01*
X33452561Y5932931D02*
G01*
X33447990Y5942076D01*
X33438845Y5950965D01*
X33429702Y5955537D01*
X33411668Y5955537D01*
X33402524Y5950965D01*
X33393379Y5942076D01*
X33388808Y5932931D01*
X33384236Y5919215D01*
X33384236Y5896610D01*
X33388808Y5882894D01*
X33393379Y5873750D01*
X33402524Y5864605D01*
X33411668Y5860034D01*
X33429702Y5860034D01*
X33438845Y5864605D01*
X33447990Y5873750D01*
X33452561Y5882894D01*
X33541461Y5923787D02*
G01*
X33537143Y5910071D01*
X33528000Y5901181D01*
X33514284Y5896610D01*
X33509711Y5896610D01*
X33496250Y5901181D01*
X33487106Y5910071D01*
X33482534Y5923787D01*
X33482534Y5928360D01*
X33487106Y5942076D01*
X33496250Y5950965D01*
X33509711Y5955537D01*
X33514284Y5955537D01*
X33528000Y5950965D01*
X33537143Y5942076D01*
X33541461Y5923787D01*
X33541461Y5901181D01*
X33537143Y5878321D01*
X33528000Y5864605D01*
X33514284Y5860034D01*
X33505140Y5860034D01*
X33491677Y5864605D01*
X33487106Y5873750D01*
X33498536Y7377937D02*
G01*
X33498536Y7282687D01*
X33498536Y7377937D02*
G01*
X33530540Y7377937D01*
X33544002Y7373365D01*
X33553145Y7364476D01*
X33557718Y7355331D01*
X33562290Y7341615D01*
X33562290Y7319010D01*
X33557718Y7305294D01*
X33553145Y7296150D01*
X33544002Y7287005D01*
X33530540Y7282687D01*
X33498536Y7282687D01*
X33596834Y7355331D02*
G01*
X33596834Y7359904D01*
X33601406Y7369047D01*
X33605977Y7373365D01*
X33614868Y7377937D01*
X33633156Y7377937D01*
X33642300Y7373365D01*
X33646872Y7369047D01*
X33651443Y7359904D01*
X33651443Y7350760D01*
X33646872Y7341615D01*
X33637727Y7327900D01*
X33592261Y7282687D01*
X33656016Y7282687D01*
X33749488Y7377937D02*
G01*
X33704022Y7282687D01*
X33685988Y7377937D02*
G01*
X33749488Y7377937D01*
X33498536Y6450837D02*
G01*
X33498536Y6355587D01*
X33498536Y6450837D02*
G01*
X33530540Y6450837D01*
X33544002Y6446265D01*
X33553145Y6437376D01*
X33557718Y6428231D01*
X33562290Y6414515D01*
X33562290Y6391910D01*
X33557718Y6378194D01*
X33553145Y6369050D01*
X33544002Y6359905D01*
X33530540Y6355587D01*
X33498536Y6355587D01*
X33596834Y6428231D02*
G01*
X33596834Y6432804D01*
X33601406Y6441947D01*
X33605977Y6446265D01*
X33614868Y6450837D01*
X33633156Y6450837D01*
X33642300Y6446265D01*
X33646872Y6441947D01*
X33651443Y6432804D01*
X33651443Y6423660D01*
X33646872Y6414515D01*
X33637727Y6400800D01*
X33592261Y6355587D01*
X33656016Y6355587D01*
X33708593Y6450837D02*
G01*
X33694877Y6446265D01*
X33690559Y6437376D01*
X33690559Y6428231D01*
X33694877Y6419087D01*
X33704022Y6414515D01*
X33722309Y6409944D01*
X33735772Y6405371D01*
X33744916Y6396481D01*
X33749488Y6387337D01*
X33749488Y6373621D01*
X33744916Y6364478D01*
X33740343Y6359905D01*
X33726882Y6355587D01*
X33708593Y6355587D01*
X33694877Y6359905D01*
X33690559Y6364478D01*
X33685988Y6373621D01*
X33685988Y6387337D01*
X33690559Y6396481D01*
X33699450Y6405371D01*
X33713166Y6409944D01*
X33731454Y6414515D01*
X33740343Y6419087D01*
X33744916Y6428231D01*
X33744916Y6437376D01*
X33740343Y6446265D01*
X33726882Y6450837D01*
X33708593Y6450837D01*
X33498536Y5523737D02*
G01*
X33498536Y5428487D01*
X33498536Y5523737D02*
G01*
X33530540Y5523737D01*
X33544002Y5519165D01*
X33553145Y5510276D01*
X33557718Y5501131D01*
X33562290Y5487415D01*
X33562290Y5464810D01*
X33557718Y5451094D01*
X33553145Y5441950D01*
X33544002Y5432805D01*
X33530540Y5428487D01*
X33498536Y5428487D01*
X33596834Y5501131D02*
G01*
X33596834Y5505704D01*
X33601406Y5514847D01*
X33605977Y5519165D01*
X33614868Y5523737D01*
X33633156Y5523737D01*
X33642300Y5519165D01*
X33646872Y5514847D01*
X33651443Y5505704D01*
X33651443Y5496560D01*
X33646872Y5487415D01*
X33637727Y5473700D01*
X33592261Y5428487D01*
X33656016Y5428487D01*
X33744916Y5491987D02*
G01*
X33740343Y5478271D01*
X33731454Y5469381D01*
X33717738Y5464810D01*
X33713166Y5464810D01*
X33699450Y5469381D01*
X33690559Y5478271D01*
X33685988Y5491987D01*
X33685988Y5496560D01*
X33690559Y5510276D01*
X33699450Y5519165D01*
X33713166Y5523737D01*
X33717738Y5523737D01*
X33731454Y5519165D01*
X33740343Y5510276D01*
X33744916Y5491987D01*
X33744916Y5469381D01*
X33740343Y5446521D01*
X33731454Y5432805D01*
X33717738Y5428487D01*
X33708593Y5428487D01*
X33694877Y5432805D01*
X33690559Y5441950D01*
X34892488Y5932931D02*
G01*
X34887916Y5942076D01*
X34878772Y5950965D01*
X34869882Y5955537D01*
X34851593Y5955537D01*
X34842450Y5950965D01*
X34833306Y5942076D01*
X34828734Y5932931D01*
X34824416Y5919215D01*
X34824416Y5896610D01*
X34828734Y5882894D01*
X34833306Y5873750D01*
X34842450Y5864605D01*
X34851593Y5860034D01*
X34869882Y5860034D01*
X34878772Y5864605D01*
X34887916Y5873750D01*
X34892488Y5882894D01*
X34945320Y5955537D02*
G01*
X34931604Y5950965D01*
X34927032Y5942076D01*
X34927032Y5932931D01*
X34931604Y5923787D01*
X34940748Y5919215D01*
X34958782Y5914644D01*
X34972498Y5910071D01*
X34981641Y5901181D01*
X34986213Y5892037D01*
X34986213Y5878321D01*
X34981641Y5869178D01*
X34977070Y5864605D01*
X34963354Y5860034D01*
X34945320Y5860034D01*
X34931604Y5864605D01*
X34927032Y5869178D01*
X34922459Y5878321D01*
X34922459Y5892037D01*
X34927032Y5901181D01*
X34936175Y5910071D01*
X34949891Y5914644D01*
X34967925Y5919215D01*
X34977070Y5923787D01*
X34981641Y5932931D01*
X34981641Y5942076D01*
X34977070Y5950965D01*
X34963354Y5955537D01*
X34945320Y5955537D01*
X34938716Y6450837D02*
G01*
X34938716Y6355587D01*
X34938716Y6450837D02*
G01*
X34970466Y6450837D01*
X34984182Y6446265D01*
X34993072Y6437376D01*
X34997643Y6428231D01*
X35002216Y6414515D01*
X35002216Y6391910D01*
X34997643Y6378194D01*
X34993072Y6369050D01*
X34984182Y6359905D01*
X34970466Y6355587D01*
X34938716Y6355587D01*
X35036759Y6428231D02*
G01*
X35036759Y6432804D01*
X35041332Y6441947D01*
X35045904Y6446265D01*
X35055048Y6450837D01*
X35073082Y6450837D01*
X35082225Y6446265D01*
X35086798Y6441947D01*
X35091370Y6432804D01*
X35091370Y6423660D01*
X35086798Y6414515D01*
X35077654Y6400800D01*
X35032188Y6355587D01*
X35095941Y6355587D01*
X35180524Y6450837D02*
G01*
X35135058Y6450837D01*
X35130486Y6409944D01*
X35135058Y6414515D01*
X35148520Y6419087D01*
X35162236Y6419087D01*
X35175952Y6414515D01*
X35185096Y6405371D01*
X35189413Y6391910D01*
X35189413Y6382765D01*
X35185096Y6369050D01*
X35175952Y6359905D01*
X35162236Y6355587D01*
X35148520Y6355587D01*
X35135058Y6359905D01*
X35130486Y6364478D01*
X35125913Y6373621D01*
X34938716Y7377937D02*
G01*
X34938716Y7282687D01*
X34938716Y7377937D02*
G01*
X34970466Y7377937D01*
X34984182Y7373365D01*
X34993072Y7364476D01*
X34997643Y7355331D01*
X35002216Y7341615D01*
X35002216Y7319010D01*
X34997643Y7305294D01*
X34993072Y7296150D01*
X34984182Y7287005D01*
X34970466Y7282687D01*
X34938716Y7282687D01*
X35036759Y7355331D02*
G01*
X35036759Y7359904D01*
X35041332Y7369047D01*
X35045904Y7373365D01*
X35055048Y7377937D01*
X35073082Y7377937D01*
X35082225Y7373365D01*
X35086798Y7369047D01*
X35091370Y7359904D01*
X35091370Y7350760D01*
X35086798Y7341615D01*
X35077654Y7327900D01*
X35032188Y7282687D01*
X35095941Y7282687D01*
X35171379Y7377937D02*
G01*
X35125913Y7314437D01*
X35193986Y7314437D01*
X35171379Y7377937D02*
G01*
X35171379Y7282687D01*
X34875216Y8063737D02*
G01*
X34875216Y7968487D01*
X34875216Y8063737D02*
G01*
X34906966Y8063737D01*
X34920682Y8059165D01*
X34929572Y8050276D01*
X34934143Y8041131D01*
X34938716Y8027415D01*
X34938716Y8004810D01*
X34934143Y7991094D01*
X34929572Y7981950D01*
X34920682Y7972805D01*
X34906966Y7968487D01*
X34875216Y7968487D01*
X34973259Y8041131D02*
G01*
X34973259Y8045704D01*
X34977832Y8054847D01*
X34982404Y8059165D01*
X34991548Y8063737D01*
X35009582Y8063737D01*
X35018725Y8059165D01*
X35023298Y8054847D01*
X35027870Y8045704D01*
X35027870Y8036560D01*
X35023298Y8027415D01*
X35014154Y8013700D01*
X34968688Y7968487D01*
X35032441Y7968487D01*
X35071558Y8063737D02*
G01*
X35121596Y8063737D01*
X35094163Y8027415D01*
X35107879Y8027415D01*
X35117024Y8022844D01*
X35121596Y8018271D01*
X35125913Y8004810D01*
X35125913Y7995665D01*
X35121596Y7981950D01*
X35112452Y7972805D01*
X35098736Y7968487D01*
X35085020Y7968487D01*
X35071558Y7972805D01*
X35066986Y7977378D01*
X35062413Y7986521D01*
X34938716Y5523737D02*
G01*
X34938716Y5428487D01*
X34938716Y5523737D02*
G01*
X34970466Y5523737D01*
X34984182Y5519165D01*
X34993072Y5510276D01*
X34997643Y5501131D01*
X35002216Y5487415D01*
X35002216Y5464810D01*
X34997643Y5451094D01*
X34993072Y5441950D01*
X34984182Y5432805D01*
X34970466Y5428487D01*
X34938716Y5428487D01*
X35036759Y5501131D02*
G01*
X35036759Y5505704D01*
X35041332Y5514847D01*
X35045904Y5519165D01*
X35055048Y5523737D01*
X35073082Y5523737D01*
X35082225Y5519165D01*
X35086798Y5514847D01*
X35091370Y5505704D01*
X35091370Y5496560D01*
X35086798Y5487415D01*
X35077654Y5473700D01*
X35032188Y5428487D01*
X35095941Y5428487D01*
X35180524Y5510276D02*
G01*
X35175952Y5519165D01*
X35162236Y5523737D01*
X35153091Y5523737D01*
X35139629Y5519165D01*
X35130486Y5505704D01*
X35125913Y5482844D01*
X35125913Y5460237D01*
X35130486Y5441950D01*
X35139629Y5432805D01*
X35153091Y5428487D01*
X35157663Y5428487D01*
X35171379Y5432805D01*
X35180524Y5441950D01*
X35185096Y5455665D01*
X35185096Y5460237D01*
X35180524Y5473700D01*
X35171379Y5482844D01*
X35157663Y5487415D01*
X35153091Y5487415D01*
X35139629Y5482844D01*
X35130486Y5473700D01*
X35125913Y5460237D01*
X36343336Y5523737D02*
G01*
X36343336Y5428487D01*
X36343336Y5523737D02*
G01*
X36375340Y5523737D01*
X36388802Y5519165D01*
X36397946Y5510276D01*
X36402518Y5501131D01*
X36407090Y5487415D01*
X36407090Y5464810D01*
X36402518Y5451094D01*
X36397946Y5441950D01*
X36388802Y5432805D01*
X36375340Y5428487D01*
X36343336Y5428487D01*
X36441634Y5501131D02*
G01*
X36441634Y5505704D01*
X36446206Y5514847D01*
X36450777Y5519165D01*
X36459668Y5523737D01*
X36477956Y5523737D01*
X36487100Y5519165D01*
X36491672Y5514847D01*
X36496243Y5505704D01*
X36496243Y5496560D01*
X36491672Y5487415D01*
X36482527Y5473700D01*
X36437061Y5428487D01*
X36500816Y5428487D01*
X36535359Y5501131D02*
G01*
X36535359Y5505704D01*
X36539677Y5514847D01*
X36544250Y5519165D01*
X36553393Y5523737D01*
X36571682Y5523737D01*
X36580572Y5519165D01*
X36585143Y5514847D01*
X36589716Y5505704D01*
X36589716Y5496560D01*
X36585143Y5487415D01*
X36576254Y5473700D01*
X36530788Y5428487D01*
X36594288Y5428487D01*
X36343336Y6450837D02*
G01*
X36343336Y6355587D01*
X36343336Y6450837D02*
G01*
X36375340Y6450837D01*
X36388802Y6446265D01*
X36397946Y6437376D01*
X36402518Y6428231D01*
X36407090Y6414515D01*
X36407090Y6391910D01*
X36402518Y6378194D01*
X36397946Y6369050D01*
X36388802Y6359905D01*
X36375340Y6355587D01*
X36343336Y6355587D01*
X36441634Y6428231D02*
G01*
X36441634Y6432804D01*
X36446206Y6441947D01*
X36450777Y6446265D01*
X36459668Y6450837D01*
X36477956Y6450837D01*
X36487100Y6446265D01*
X36491672Y6441947D01*
X36496243Y6432804D01*
X36496243Y6423660D01*
X36491672Y6414515D01*
X36482527Y6400800D01*
X36437061Y6355587D01*
X36500816Y6355587D01*
X36530788Y6432804D02*
G01*
X36539677Y6437376D01*
X36553393Y6450837D01*
X36553393Y6355587D01*
X36343336Y7377937D02*
G01*
X36343336Y7282687D01*
X36343336Y7377937D02*
G01*
X36375340Y7377937D01*
X36388802Y7373365D01*
X36397946Y7364476D01*
X36402518Y7355331D01*
X36407090Y7341615D01*
X36407090Y7319010D01*
X36402518Y7305294D01*
X36397946Y7296150D01*
X36388802Y7287005D01*
X36375340Y7282687D01*
X36343336Y7282687D01*
X36441634Y7355331D02*
G01*
X36441634Y7359904D01*
X36446206Y7369047D01*
X36450777Y7373365D01*
X36459668Y7377937D01*
X36477956Y7377937D01*
X36487100Y7373365D01*
X36491672Y7369047D01*
X36496243Y7359904D01*
X36496243Y7350760D01*
X36491672Y7341615D01*
X36482527Y7327900D01*
X36437061Y7282687D01*
X36500816Y7282687D01*
X36557966Y7377937D02*
G01*
X36544250Y7373365D01*
X36535359Y7359904D01*
X36530788Y7337044D01*
X36530788Y7323581D01*
X36535359Y7300721D01*
X36544250Y7287005D01*
X36557966Y7282687D01*
X36567109Y7282687D01*
X36580572Y7287005D01*
X36589716Y7300721D01*
X36594288Y7323581D01*
X36594288Y7337044D01*
X36589716Y7359904D01*
X36580572Y7373365D01*
X36567109Y7377937D01*
X36557966Y7377937D01*
X36297361Y5932931D02*
G01*
X36292790Y5942076D01*
X36283646Y5950965D01*
X36274502Y5955537D01*
X36256468Y5955537D01*
X36247324Y5950965D01*
X36238179Y5942076D01*
X36233608Y5932931D01*
X36229036Y5919215D01*
X36229036Y5896610D01*
X36233608Y5882894D01*
X36238179Y5873750D01*
X36247324Y5864605D01*
X36256468Y5860034D01*
X36274502Y5860034D01*
X36283646Y5864605D01*
X36292790Y5873750D01*
X36297361Y5882894D01*
X36390834Y5955537D02*
G01*
X36345368Y5860034D01*
X36327334Y5955537D02*
G01*
X36390834Y5955537D01*
X36669517Y6199690D02*
G01*
X36664945Y6208580D01*
X36656055Y6217724D01*
X36646911Y6222296D01*
X36628623Y6222296D01*
X36619479Y6217724D01*
X36610589Y6208580D01*
X36606017Y6199690D01*
X36601445Y6185974D01*
X36601445Y6163114D01*
X36606017Y6149652D01*
X36610589Y6140508D01*
X36619479Y6131364D01*
X36628623Y6126792D01*
X36646911Y6126792D01*
X36656055Y6131364D01*
X36664945Y6140508D01*
X36669517Y6149652D01*
X36754099Y6208580D02*
G01*
X36749527Y6217724D01*
X36736065Y6222296D01*
X36726921Y6222296D01*
X36713205Y6217724D01*
X36704061Y6204008D01*
X36699489Y6181402D01*
X36699489Y6158796D01*
X36704061Y6140508D01*
X36713205Y6131364D01*
X36726921Y6126792D01*
X36731493Y6126792D01*
X36744955Y6131364D01*
X36754099Y6140508D01*
X36758671Y6154224D01*
X36758671Y6158796D01*
X36754099Y6172258D01*
X36744955Y6181402D01*
X36731493Y6185974D01*
X36726921Y6185974D01*
X36713205Y6181402D01*
X36704061Y6172258D01*
X36699489Y6158796D01*
X37317217Y6199690D02*
G01*
X37312645Y6208580D01*
X37303755Y6217724D01*
X37294611Y6222296D01*
X37276323Y6222296D01*
X37267179Y6217724D01*
X37258289Y6208580D01*
X37253717Y6199690D01*
X37249145Y6185974D01*
X37249145Y6163114D01*
X37253717Y6149652D01*
X37258289Y6140508D01*
X37267179Y6131364D01*
X37276323Y6126792D01*
X37294611Y6126792D01*
X37303755Y6131364D01*
X37312645Y6140508D01*
X37317217Y6149652D01*
X37401799Y6222296D02*
G01*
X37356333Y6222296D01*
X37351761Y6181402D01*
X37356333Y6185974D01*
X37370049Y6190546D01*
X37383765Y6190546D01*
X37397227Y6185974D01*
X37406371Y6176830D01*
X37410943Y6163114D01*
X37410943Y6154224D01*
X37406371Y6140508D01*
X37397227Y6131364D01*
X37383765Y6126792D01*
X37370049Y6126792D01*
X37356333Y6131364D01*
X37351761Y6135936D01*
X37347189Y6145080D01*
X36978336Y7479537D02*
G01*
X36978336Y7384287D01*
X36978336Y7479537D02*
G01*
X37010340Y7479537D01*
X37023802Y7474965D01*
X37032946Y7466076D01*
X37037518Y7456931D01*
X37042090Y7443215D01*
X37042090Y7420610D01*
X37037518Y7406894D01*
X37032946Y7397750D01*
X37023802Y7388605D01*
X37010340Y7384287D01*
X36978336Y7384287D01*
X37072061Y7461504D02*
G01*
X37081206Y7466076D01*
X37094668Y7479537D01*
X37094668Y7384287D01*
X37188393Y7479537D02*
G01*
X37142927Y7384287D01*
X37124893Y7479537D02*
G01*
X37188393Y7479537D01*
X36978336Y6565137D02*
G01*
X36978336Y6469887D01*
X36978336Y6565137D02*
G01*
X37010340Y6565137D01*
X37023802Y6560565D01*
X37032946Y6551676D01*
X37037518Y6542531D01*
X37042090Y6528815D01*
X37042090Y6506210D01*
X37037518Y6492494D01*
X37032946Y6483350D01*
X37023802Y6474205D01*
X37010340Y6469887D01*
X36978336Y6469887D01*
X37072061Y6547104D02*
G01*
X37081206Y6551676D01*
X37094668Y6565137D01*
X37094668Y6469887D01*
X37147500Y6565137D02*
G01*
X37133784Y6560565D01*
X37129211Y6551676D01*
X37129211Y6542531D01*
X37133784Y6533387D01*
X37142927Y6528815D01*
X37161216Y6524244D01*
X37174677Y6519671D01*
X37183822Y6510781D01*
X37188393Y6501637D01*
X37188393Y6487921D01*
X37183822Y6478778D01*
X37179250Y6474205D01*
X37165788Y6469887D01*
X37147500Y6469887D01*
X37133784Y6474205D01*
X37129211Y6478778D01*
X37124893Y6487921D01*
X37124893Y6501637D01*
X37129211Y6510781D01*
X37138356Y6519671D01*
X37152072Y6524244D01*
X37170359Y6528815D01*
X37179250Y6533387D01*
X37183822Y6542531D01*
X37183822Y6551676D01*
X37179250Y6560565D01*
X37165788Y6565137D01*
X37147500Y6565137D01*
X36978336Y5625337D02*
G01*
X36978336Y5530087D01*
X36978336Y5625337D02*
G01*
X37010340Y5625337D01*
X37023802Y5620765D01*
X37032946Y5611876D01*
X37037518Y5602731D01*
X37042090Y5589015D01*
X37042090Y5566410D01*
X37037518Y5552694D01*
X37032946Y5543550D01*
X37023802Y5534405D01*
X37010340Y5530087D01*
X36978336Y5530087D01*
X37072061Y5607304D02*
G01*
X37081206Y5611876D01*
X37094668Y5625337D01*
X37094668Y5530087D01*
X37183822Y5593587D02*
G01*
X37179250Y5579871D01*
X37170359Y5570981D01*
X37156643Y5566410D01*
X37152072Y5566410D01*
X37138356Y5570981D01*
X37129211Y5579871D01*
X37124893Y5593587D01*
X37124893Y5598160D01*
X37129211Y5611876D01*
X37138356Y5620765D01*
X37152072Y5625337D01*
X37156643Y5625337D01*
X37170359Y5620765D01*
X37179250Y5611876D01*
X37183822Y5593587D01*
X37183822Y5570981D01*
X37179250Y5548121D01*
X37170359Y5534405D01*
X37156643Y5530087D01*
X37147500Y5530087D01*
X37133784Y5534405D01*
X37129211Y5543550D01*
X37638736Y7479537D02*
G01*
X37638736Y7384287D01*
X37638736Y7479537D02*
G01*
X37670740Y7479537D01*
X37684202Y7474965D01*
X37693346Y7466076D01*
X37697918Y7456931D01*
X37702490Y7443215D01*
X37702490Y7420610D01*
X37697918Y7406894D01*
X37693346Y7397750D01*
X37684202Y7388605D01*
X37670740Y7384287D01*
X37638736Y7384287D01*
X37732461Y7461504D02*
G01*
X37741606Y7466076D01*
X37755068Y7479537D01*
X37755068Y7384287D01*
X37830759Y7479537D02*
G01*
X37785293Y7416037D01*
X37853366Y7416037D01*
X37830759Y7479537D02*
G01*
X37830759Y7384287D01*
X37638736Y6565137D02*
G01*
X37638736Y6469887D01*
X37638736Y6565137D02*
G01*
X37670740Y6565137D01*
X37684202Y6560565D01*
X37693346Y6551676D01*
X37697918Y6542531D01*
X37702490Y6528815D01*
X37702490Y6506210D01*
X37697918Y6492494D01*
X37693346Y6483350D01*
X37684202Y6474205D01*
X37670740Y6469887D01*
X37638736Y6469887D01*
X37732461Y6547104D02*
G01*
X37741606Y6551676D01*
X37755068Y6565137D01*
X37755068Y6469887D01*
X37839650Y6565137D02*
G01*
X37794184Y6565137D01*
X37789611Y6524244D01*
X37794184Y6528815D01*
X37807900Y6533387D01*
X37821616Y6533387D01*
X37835077Y6528815D01*
X37844222Y6519671D01*
X37848793Y6506210D01*
X37848793Y6497065D01*
X37844222Y6483350D01*
X37835077Y6474205D01*
X37821616Y6469887D01*
X37807900Y6469887D01*
X37794184Y6474205D01*
X37789611Y6478778D01*
X37785293Y6487921D01*
X37638736Y5625337D02*
G01*
X37638736Y5530087D01*
X37638736Y5625337D02*
G01*
X37670740Y5625337D01*
X37684202Y5620765D01*
X37693346Y5611876D01*
X37697918Y5602731D01*
X37702490Y5589015D01*
X37702490Y5566410D01*
X37697918Y5552694D01*
X37693346Y5543550D01*
X37684202Y5534405D01*
X37670740Y5530087D01*
X37638736Y5530087D01*
X37732461Y5607304D02*
G01*
X37741606Y5611876D01*
X37755068Y5625337D01*
X37755068Y5530087D01*
X37839650Y5611876D02*
G01*
X37835077Y5620765D01*
X37821616Y5625337D01*
X37812472Y5625337D01*
X37798756Y5620765D01*
X37789611Y5607304D01*
X37785293Y5584444D01*
X37785293Y5561837D01*
X37789611Y5543550D01*
X37798756Y5534405D01*
X37812472Y5530087D01*
X37817043Y5530087D01*
X37830759Y5534405D01*
X37839650Y5543550D01*
X37844222Y5557265D01*
X37844222Y5561837D01*
X37839650Y5575300D01*
X37830759Y5584444D01*
X37817043Y5589015D01*
X37812472Y5589015D01*
X37798756Y5584444D01*
X37789611Y5575300D01*
X37785293Y5561837D01*
X38781736Y5523737D02*
G01*
X38781736Y5428487D01*
X38781736Y5523737D02*
G01*
X38813740Y5523737D01*
X38827202Y5519165D01*
X38836346Y5510276D01*
X38840918Y5501131D01*
X38845490Y5487415D01*
X38845490Y5464810D01*
X38840918Y5451094D01*
X38836346Y5441950D01*
X38827202Y5432805D01*
X38813740Y5428487D01*
X38781736Y5428487D01*
X38875461Y5505704D02*
G01*
X38884606Y5510276D01*
X38898068Y5523737D01*
X38898068Y5428487D01*
X38937184Y5523737D02*
G01*
X38987222Y5523737D01*
X38960043Y5487415D01*
X38973759Y5487415D01*
X38982650Y5482844D01*
X38987222Y5478271D01*
X38991793Y5464810D01*
X38991793Y5455665D01*
X38987222Y5441950D01*
X38978077Y5432805D01*
X38964616Y5428487D01*
X38950900Y5428487D01*
X38937184Y5432805D01*
X38932611Y5437378D01*
X38928293Y5446521D01*
X38718236Y8063737D02*
G01*
X38718236Y7968487D01*
X38718236Y8063737D02*
G01*
X38750240Y8063737D01*
X38763702Y8059165D01*
X38772846Y8050276D01*
X38777418Y8041131D01*
X38781990Y8027415D01*
X38781990Y8004810D01*
X38777418Y7991094D01*
X38772846Y7981950D01*
X38763702Y7972805D01*
X38750240Y7968487D01*
X38718236Y7968487D01*
X38811961Y8045704D02*
G01*
X38821106Y8050276D01*
X38834568Y8063737D01*
X38834568Y7968487D01*
X38891972Y8063737D02*
G01*
X38878256Y8059165D01*
X38869111Y8045704D01*
X38864793Y8022844D01*
X38864793Y8009381D01*
X38869111Y7986521D01*
X38878256Y7972805D01*
X38891972Y7968487D01*
X38901116Y7968487D01*
X38914577Y7972805D01*
X38923722Y7986521D01*
X38928293Y8009381D01*
X38928293Y8022844D01*
X38923722Y8045704D01*
X38914577Y8059165D01*
X38901116Y8063737D01*
X38891972Y8063737D01*
X38781736Y7377937D02*
G01*
X38781736Y7282687D01*
X38781736Y7377937D02*
G01*
X38813740Y7377937D01*
X38827202Y7373365D01*
X38836346Y7364476D01*
X38840918Y7355331D01*
X38845490Y7341615D01*
X38845490Y7319010D01*
X38840918Y7305294D01*
X38836346Y7296150D01*
X38827202Y7287005D01*
X38813740Y7282687D01*
X38781736Y7282687D01*
X38875461Y7359904D02*
G01*
X38884606Y7364476D01*
X38898068Y7377937D01*
X38898068Y7282687D01*
X38928293Y7359904D02*
G01*
X38937184Y7364476D01*
X38950900Y7377937D01*
X38950900Y7282687D01*
X38781736Y6450837D02*
G01*
X38781736Y6355587D01*
X38781736Y6450837D02*
G01*
X38813740Y6450837D01*
X38827202Y6446265D01*
X38836346Y6437376D01*
X38840918Y6428231D01*
X38845490Y6414515D01*
X38845490Y6391910D01*
X38840918Y6378194D01*
X38836346Y6369050D01*
X38827202Y6359905D01*
X38813740Y6355587D01*
X38781736Y6355587D01*
X38875461Y6432804D02*
G01*
X38884606Y6437376D01*
X38898068Y6450837D01*
X38898068Y6355587D01*
X38932611Y6428231D02*
G01*
X38932611Y6432804D01*
X38937184Y6441947D01*
X38941756Y6446265D01*
X38950900Y6450837D01*
X38969188Y6450837D01*
X38978077Y6446265D01*
X38982650Y6441947D01*
X38987222Y6432804D01*
X38987222Y6423660D01*
X38982650Y6414515D01*
X38973759Y6400800D01*
X38928293Y6355587D01*
X38991793Y6355587D01*
X38735761Y5932931D02*
G01*
X38731190Y5942076D01*
X38722046Y5950965D01*
X38712902Y5955537D01*
X38694868Y5955537D01*
X38685724Y5950965D01*
X38676579Y5942076D01*
X38672008Y5932931D01*
X38667436Y5919215D01*
X38667436Y5896610D01*
X38672008Y5882894D01*
X38676579Y5873750D01*
X38685724Y5864605D01*
X38694868Y5860034D01*
X38712902Y5860034D01*
X38722046Y5864605D01*
X38731190Y5873750D01*
X38735761Y5882894D01*
X38811200Y5955537D02*
G01*
X38765734Y5892037D01*
X38833806Y5892037D01*
X38811200Y5955537D02*
G01*
X38811200Y5860034D01*
X40169846Y5932931D02*
G01*
X40165274Y5942076D01*
X40156129Y5950965D01*
X40147240Y5955537D01*
X40128952Y5955537D01*
X40119808Y5950965D01*
X40110663Y5942076D01*
X40106346Y5932931D01*
X40101774Y5919215D01*
X40101774Y5896610D01*
X40106346Y5882894D01*
X40110663Y5873750D01*
X40119808Y5864605D01*
X40128952Y5860034D01*
X40147240Y5860034D01*
X40156129Y5864605D01*
X40165274Y5873750D01*
X40169846Y5882894D01*
X40208961Y5955537D02*
G01*
X40259000Y5955537D01*
X40231822Y5919215D01*
X40245284Y5919215D01*
X40254427Y5914644D01*
X40259000Y5910071D01*
X40263572Y5896610D01*
X40263572Y5887465D01*
X40259000Y5873750D01*
X40249856Y5864605D01*
X40236140Y5860034D01*
X40222677Y5860034D01*
X40208961Y5864605D01*
X40204390Y5869178D01*
X40199818Y5878321D01*
X40216074Y5523737D02*
G01*
X40216074Y5428487D01*
X40216074Y5523737D02*
G01*
X40247824Y5523737D01*
X40261540Y5519165D01*
X40270429Y5510276D01*
X40275002Y5501131D01*
X40279574Y5487415D01*
X40279574Y5464810D01*
X40275002Y5451094D01*
X40270429Y5441950D01*
X40261540Y5432805D01*
X40247824Y5428487D01*
X40216074Y5428487D01*
X40368727Y5491987D02*
G01*
X40364156Y5478271D01*
X40355011Y5469381D01*
X40341550Y5464810D01*
X40336977Y5464810D01*
X40323261Y5469381D01*
X40314118Y5478271D01*
X40309546Y5491987D01*
X40309546Y5496560D01*
X40314118Y5510276D01*
X40323261Y5519165D01*
X40336977Y5523737D01*
X40341550Y5523737D01*
X40355011Y5519165D01*
X40364156Y5510276D01*
X40368727Y5491987D01*
X40368727Y5469381D01*
X40364156Y5446521D01*
X40355011Y5432805D01*
X40341550Y5428487D01*
X40332406Y5428487D01*
X40318690Y5432805D01*
X40314118Y5441950D01*
X40216074Y6450837D02*
G01*
X40216074Y6355587D01*
X40216074Y6450837D02*
G01*
X40247824Y6450837D01*
X40261540Y6446265D01*
X40270429Y6437376D01*
X40275002Y6428231D01*
X40279574Y6414515D01*
X40279574Y6391910D01*
X40275002Y6378194D01*
X40270429Y6369050D01*
X40261540Y6359905D01*
X40247824Y6355587D01*
X40216074Y6355587D01*
X40332406Y6450837D02*
G01*
X40318690Y6446265D01*
X40314118Y6437376D01*
X40314118Y6428231D01*
X40318690Y6419087D01*
X40327834Y6414515D01*
X40346122Y6409944D01*
X40359584Y6405371D01*
X40368727Y6396481D01*
X40373300Y6387337D01*
X40373300Y6373621D01*
X40368727Y6364478D01*
X40364156Y6359905D01*
X40350440Y6355587D01*
X40332406Y6355587D01*
X40318690Y6359905D01*
X40314118Y6364478D01*
X40309546Y6373621D01*
X40309546Y6387337D01*
X40314118Y6396481D01*
X40323261Y6405371D01*
X40336977Y6409944D01*
X40355011Y6414515D01*
X40364156Y6419087D01*
X40368727Y6428231D01*
X40368727Y6437376D01*
X40364156Y6446265D01*
X40350440Y6450837D01*
X40332406Y6450837D01*
X40216074Y7377937D02*
G01*
X40216074Y7282687D01*
X40216074Y7377937D02*
G01*
X40247824Y7377937D01*
X40261540Y7373365D01*
X40270429Y7364476D01*
X40275002Y7355331D01*
X40279574Y7341615D01*
X40279574Y7319010D01*
X40275002Y7305294D01*
X40270429Y7296150D01*
X40261540Y7287005D01*
X40247824Y7282687D01*
X40216074Y7282687D01*
X40373300Y7377937D02*
G01*
X40327834Y7282687D01*
X40309546Y7377937D02*
G01*
X40373300Y7377937D01*
X43753277Y5091937D02*
G01*
X43753277Y4996687D01*
X43753277Y5091937D02*
G01*
X43785027Y5091937D01*
X43798743Y5087365D01*
X43807888Y5078476D01*
X43812459Y5069331D01*
X43817032Y5055615D01*
X43817032Y5033010D01*
X43812459Y5019294D01*
X43807888Y5010150D01*
X43798743Y5001005D01*
X43785027Y4996687D01*
X43753277Y4996687D01*
X43892470Y5091937D02*
G01*
X43847004Y5028437D01*
X43915075Y5028437D01*
X43892470Y5091937D02*
G01*
X43892470Y4996687D01*
X42800777Y5091937D02*
G01*
X42800777Y4996687D01*
X42800777Y5091937D02*
G01*
X42832527Y5091937D01*
X42846243Y5087365D01*
X42855388Y5078476D01*
X42859959Y5069331D01*
X42864532Y5055615D01*
X42864532Y5033010D01*
X42859959Y5019294D01*
X42855388Y5010150D01*
X42846243Y5001005D01*
X42832527Y4996687D01*
X42800777Y4996687D01*
X42949113Y5091937D02*
G01*
X42903648Y5091937D01*
X42899075Y5051044D01*
X42903648Y5055615D01*
X42917109Y5060187D01*
X42930825Y5060187D01*
X42944541Y5055615D01*
X42953432Y5046471D01*
X42958004Y5033010D01*
X42958004Y5023865D01*
X42953432Y5010150D01*
X42944541Y5001005D01*
X42930825Y4996687D01*
X42917109Y4996687D01*
X42903648Y5001005D01*
X42899075Y5005578D01*
X42894504Y5014721D01*
X41942004Y5475731D02*
G01*
X41937432Y5484876D01*
X41928288Y5493765D01*
X41919143Y5498337D01*
X41900856Y5498337D01*
X41891966Y5493765D01*
X41882822Y5484876D01*
X41878250Y5475731D01*
X41873677Y5462015D01*
X41873677Y5439410D01*
X41878250Y5425694D01*
X41882822Y5416550D01*
X41891966Y5407405D01*
X41900856Y5402834D01*
X41919143Y5402834D01*
X41928288Y5407405D01*
X41937432Y5416550D01*
X41942004Y5425694D01*
X41976548Y5475731D02*
G01*
X41976548Y5480304D01*
X41980866Y5489194D01*
X41985438Y5493765D01*
X41994582Y5498337D01*
X42012870Y5498337D01*
X42021759Y5493765D01*
X42026332Y5489194D01*
X42030904Y5480304D01*
X42030904Y5471160D01*
X42026332Y5462015D01*
X42017441Y5448300D01*
X41971975Y5402834D01*
X42035475Y5402834D01*
X41835577Y5091937D02*
G01*
X41835577Y4996687D01*
X41835577Y5091937D02*
G01*
X41867327Y5091937D01*
X41881043Y5087365D01*
X41890188Y5078476D01*
X41894759Y5069331D01*
X41899332Y5055615D01*
X41899332Y5033010D01*
X41894759Y5019294D01*
X41890188Y5010150D01*
X41881043Y5001005D01*
X41867327Y4996687D01*
X41835577Y4996687D01*
X41983913Y5078476D02*
G01*
X41979341Y5087365D01*
X41965625Y5091937D01*
X41956482Y5091937D01*
X41942766Y5087365D01*
X41933875Y5073904D01*
X41929304Y5051044D01*
X41929304Y5028437D01*
X41933875Y5010150D01*
X41942766Y5001005D01*
X41956482Y4996687D01*
X41961054Y4996687D01*
X41974770Y5001005D01*
X41983913Y5010150D01*
X41988232Y5023865D01*
X41988232Y5028437D01*
X41983913Y5041900D01*
X41974770Y5051044D01*
X41961054Y5055615D01*
X41956482Y5055615D01*
X41942766Y5051044D01*
X41933875Y5041900D01*
X41929304Y5028437D01*
X41942004Y7761731D02*
G01*
X41937432Y7770876D01*
X41928288Y7779765D01*
X41919143Y7784337D01*
X41900856Y7784337D01*
X41891966Y7779765D01*
X41882822Y7770876D01*
X41878250Y7761731D01*
X41873677Y7748015D01*
X41873677Y7725410D01*
X41878250Y7711694D01*
X41882822Y7702550D01*
X41891966Y7693405D01*
X41900856Y7688834D01*
X41919143Y7688834D01*
X41928288Y7693405D01*
X41937432Y7702550D01*
X41942004Y7711694D01*
X41971975Y7766304D02*
G01*
X41980866Y7770876D01*
X41994582Y7784337D01*
X41994582Y7688834D01*
X43753277Y7377937D02*
G01*
X43753277Y7282687D01*
X43753277Y7377937D02*
G01*
X43785027Y7377937D01*
X43798743Y7373365D01*
X43807888Y7364476D01*
X43812459Y7355331D01*
X43817032Y7341615D01*
X43817032Y7319010D01*
X43812459Y7305294D01*
X43807888Y7296150D01*
X43798743Y7287005D01*
X43785027Y7282687D01*
X43753277Y7282687D01*
X43847004Y7359904D02*
G01*
X43856148Y7364476D01*
X43869609Y7377937D01*
X43869609Y7282687D01*
X42800777Y7377937D02*
G01*
X42800777Y7282687D01*
X42800777Y7377937D02*
G01*
X42832527Y7377937D01*
X42846243Y7373365D01*
X42855388Y7364476D01*
X42859959Y7355331D01*
X42864532Y7341615D01*
X42864532Y7319010D01*
X42859959Y7305294D01*
X42855388Y7296150D01*
X42846243Y7287005D01*
X42832527Y7282687D01*
X42800777Y7282687D01*
X42899075Y7355331D02*
G01*
X42899075Y7359904D01*
X42903648Y7369047D01*
X42907966Y7373365D01*
X42917109Y7377937D01*
X42935398Y7377937D01*
X42944541Y7373365D01*
X42949113Y7369047D01*
X42953432Y7359904D01*
X42953432Y7350760D01*
X42949113Y7341615D01*
X42939970Y7327900D01*
X42894504Y7282687D01*
X42958004Y7282687D01*
X41835577Y7377937D02*
G01*
X41835577Y7282687D01*
X41835577Y7377937D02*
G01*
X41867327Y7377937D01*
X41881043Y7373365D01*
X41890188Y7364476D01*
X41894759Y7355331D01*
X41899332Y7341615D01*
X41899332Y7319010D01*
X41894759Y7305294D01*
X41890188Y7296150D01*
X41881043Y7287005D01*
X41867327Y7282687D01*
X41835577Y7282687D01*
X41938448Y7377937D02*
G01*
X41988232Y7377937D01*
X41961054Y7341615D01*
X41974770Y7341615D01*
X41983913Y7337044D01*
X41988232Y7332471D01*
X41992804Y7319010D01*
X41992804Y7309865D01*
X41988232Y7296150D01*
X41979341Y7287005D01*
X41965625Y7282687D01*
X41951909Y7282687D01*
X41938448Y7287005D01*
X41933875Y7291578D01*
X41929304Y7300721D01*
X13284200Y5523737D02*
G01*
X13284200Y5428487D01*
X13284200Y5523737D02*
G01*
X13315950Y5523737D01*
X13329666Y5519165D01*
X13338809Y5510276D01*
X13343381Y5501131D01*
X13347954Y5487415D01*
X13347954Y5464810D01*
X13343381Y5451094D01*
X13338809Y5441950D01*
X13329666Y5432805D01*
X13315950Y5428487D01*
X13284200Y5428487D01*
X13400531Y5523737D02*
G01*
X13386816Y5519165D01*
X13382497Y5510276D01*
X13382497Y5501131D01*
X13386816Y5491987D01*
X13395959Y5487415D01*
X13414247Y5482844D01*
X13427963Y5478271D01*
X13436854Y5469381D01*
X13441425Y5460237D01*
X13441425Y5446521D01*
X13436854Y5437378D01*
X13432281Y5432805D01*
X13418820Y5428487D01*
X13400531Y5428487D01*
X13386816Y5432805D01*
X13382497Y5437378D01*
X13377925Y5446521D01*
X13377925Y5460237D01*
X13382497Y5469381D01*
X13391388Y5478271D01*
X13405104Y5482844D01*
X13423391Y5487415D01*
X13432281Y5491987D01*
X13436854Y5501131D01*
X13436854Y5510276D01*
X13432281Y5519165D01*
X13418820Y5523737D01*
X13400531Y5523737D01*
X13494258Y5523737D02*
G01*
X13480541Y5519165D01*
X13475970Y5510276D01*
X13475970Y5501131D01*
X13480541Y5491987D01*
X13489686Y5487415D01*
X13507720Y5482844D01*
X13521436Y5478271D01*
X13530579Y5469381D01*
X13535152Y5460237D01*
X13535152Y5446521D01*
X13530579Y5437378D01*
X13526008Y5432805D01*
X13512291Y5428487D01*
X13494258Y5428487D01*
X13480541Y5432805D01*
X13475970Y5437378D01*
X13471397Y5446521D01*
X13471397Y5460237D01*
X13475970Y5469381D01*
X13485113Y5478271D01*
X13498829Y5482844D01*
X13516863Y5487415D01*
X13526008Y5491987D01*
X13530579Y5501131D01*
X13530579Y5510276D01*
X13526008Y5519165D01*
X13512291Y5523737D01*
X13494258Y5523737D01*
X13284200Y6450837D02*
G01*
X13284200Y6355587D01*
X13284200Y6450837D02*
G01*
X13315950Y6450837D01*
X13329666Y6446265D01*
X13338809Y6437376D01*
X13343381Y6428231D01*
X13347954Y6414515D01*
X13347954Y6391910D01*
X13343381Y6378194D01*
X13338809Y6369050D01*
X13329666Y6359905D01*
X13315950Y6355587D01*
X13284200Y6355587D01*
X13400531Y6450837D02*
G01*
X13386816Y6446265D01*
X13382497Y6437376D01*
X13382497Y6428231D01*
X13386816Y6419087D01*
X13395959Y6414515D01*
X13414247Y6409944D01*
X13427963Y6405371D01*
X13436854Y6396481D01*
X13441425Y6387337D01*
X13441425Y6373621D01*
X13436854Y6364478D01*
X13432281Y6359905D01*
X13418820Y6355587D01*
X13400531Y6355587D01*
X13386816Y6359905D01*
X13382497Y6364478D01*
X13377925Y6373621D01*
X13377925Y6387337D01*
X13382497Y6396481D01*
X13391388Y6405371D01*
X13405104Y6409944D01*
X13423391Y6414515D01*
X13432281Y6419087D01*
X13436854Y6428231D01*
X13436854Y6437376D01*
X13432281Y6446265D01*
X13418820Y6450837D01*
X13400531Y6450837D01*
X13535152Y6450837D02*
G01*
X13489686Y6355587D01*
X13471397Y6450837D02*
G01*
X13535152Y6450837D01*
X13284200Y7377937D02*
G01*
X13284200Y7282687D01*
X13284200Y7377937D02*
G01*
X13315950Y7377937D01*
X13329666Y7373365D01*
X13338809Y7364476D01*
X13343381Y7355331D01*
X13347954Y7341615D01*
X13347954Y7319010D01*
X13343381Y7305294D01*
X13338809Y7296150D01*
X13329666Y7287005D01*
X13315950Y7282687D01*
X13284200Y7282687D01*
X13400531Y7377937D02*
G01*
X13386816Y7373365D01*
X13382497Y7364476D01*
X13382497Y7355331D01*
X13386816Y7346187D01*
X13395959Y7341615D01*
X13414247Y7337044D01*
X13427963Y7332471D01*
X13436854Y7323581D01*
X13441425Y7314437D01*
X13441425Y7300721D01*
X13436854Y7291578D01*
X13432281Y7287005D01*
X13418820Y7282687D01*
X13400531Y7282687D01*
X13386816Y7287005D01*
X13382497Y7291578D01*
X13377925Y7300721D01*
X13377925Y7314437D01*
X13382497Y7323581D01*
X13391388Y7332471D01*
X13405104Y7337044D01*
X13423391Y7341615D01*
X13432281Y7346187D01*
X13436854Y7355331D01*
X13436854Y7364476D01*
X13432281Y7373365D01*
X13418820Y7377937D01*
X13400531Y7377937D01*
X13526008Y7364476D02*
G01*
X13521436Y7373365D01*
X13507720Y7377937D01*
X13498829Y7377937D01*
X13485113Y7373365D01*
X13475970Y7359904D01*
X13471397Y7337044D01*
X13471397Y7314437D01*
X13475970Y7296150D01*
X13485113Y7287005D01*
X13498829Y7282687D01*
X13503402Y7282687D01*
X13516863Y7287005D01*
X13526008Y7296150D01*
X13530579Y7309865D01*
X13530579Y7314437D01*
X13526008Y7327900D01*
X13516863Y7337044D01*
X13503402Y7341615D01*
X13498829Y7341615D01*
X13485113Y7337044D01*
X13475970Y7327900D01*
X13471397Y7314437D01*
X13237972Y5932931D02*
G01*
X13233654Y5942076D01*
X13224509Y5950965D01*
X13215366Y5955537D01*
X13197077Y5955537D01*
X13188188Y5950965D01*
X13179043Y5942076D01*
X13174472Y5932931D01*
X13169900Y5919215D01*
X13169900Y5896610D01*
X13174472Y5882894D01*
X13179043Y5873750D01*
X13188188Y5864605D01*
X13197077Y5860034D01*
X13215366Y5860034D01*
X13224509Y5864605D01*
X13233654Y5873750D01*
X13237972Y5882894D01*
X13272516Y5932931D02*
G01*
X13272516Y5937504D01*
X13277088Y5946394D01*
X13281659Y5950965D01*
X13290804Y5955537D01*
X13309091Y5955537D01*
X13317981Y5950965D01*
X13322554Y5946394D01*
X13327125Y5937504D01*
X13327125Y5928360D01*
X13322554Y5919215D01*
X13313409Y5905500D01*
X13268197Y5860034D01*
X13331697Y5860034D01*
X13425424Y5955537D02*
G01*
X13379958Y5860034D01*
X13361670Y5955537D02*
G01*
X13425424Y5955537D01*
X13919200Y7479537D02*
G01*
X13919200Y7384287D01*
X13919200Y7479537D02*
G01*
X13950950Y7479537D01*
X13964666Y7474965D01*
X13973809Y7466076D01*
X13978381Y7456931D01*
X13982954Y7443215D01*
X13982954Y7420610D01*
X13978381Y7406894D01*
X13973809Y7397750D01*
X13964666Y7388605D01*
X13950950Y7384287D01*
X13919200Y7384287D01*
X14035531Y7479537D02*
G01*
X14021816Y7474965D01*
X14017497Y7466076D01*
X14017497Y7456931D01*
X14021816Y7447787D01*
X14030959Y7443215D01*
X14049247Y7438644D01*
X14062963Y7434071D01*
X14071854Y7425181D01*
X14076425Y7416037D01*
X14076425Y7402321D01*
X14071854Y7393178D01*
X14067281Y7388605D01*
X14053820Y7384287D01*
X14035531Y7384287D01*
X14021816Y7388605D01*
X14017497Y7393178D01*
X14012925Y7402321D01*
X14012925Y7416037D01*
X14017497Y7425181D01*
X14026388Y7434071D01*
X14040104Y7438644D01*
X14058391Y7443215D01*
X14067281Y7447787D01*
X14071854Y7456931D01*
X14071854Y7466076D01*
X14067281Y7474965D01*
X14053820Y7479537D01*
X14035531Y7479537D01*
X14115541Y7479537D02*
G01*
X14165579Y7479537D01*
X14138402Y7443215D01*
X14151863Y7443215D01*
X14161008Y7438644D01*
X14165579Y7434071D01*
X14170152Y7420610D01*
X14170152Y7411465D01*
X14165579Y7397750D01*
X14156436Y7388605D01*
X14142720Y7384287D01*
X14129258Y7384287D01*
X14115541Y7388605D01*
X14110970Y7393178D01*
X14106397Y7402321D01*
X13919200Y6565137D02*
G01*
X13919200Y6469887D01*
X13919200Y6565137D02*
G01*
X13950950Y6565137D01*
X13964666Y6560565D01*
X13973809Y6551676D01*
X13978381Y6542531D01*
X13982954Y6528815D01*
X13982954Y6506210D01*
X13978381Y6492494D01*
X13973809Y6483350D01*
X13964666Y6474205D01*
X13950950Y6469887D01*
X13919200Y6469887D01*
X14035531Y6565137D02*
G01*
X14021816Y6560565D01*
X14017497Y6551676D01*
X14017497Y6542531D01*
X14021816Y6533387D01*
X14030959Y6528815D01*
X14049247Y6524244D01*
X14062963Y6519671D01*
X14071854Y6510781D01*
X14076425Y6501637D01*
X14076425Y6487921D01*
X14071854Y6478778D01*
X14067281Y6474205D01*
X14053820Y6469887D01*
X14035531Y6469887D01*
X14021816Y6474205D01*
X14017497Y6478778D01*
X14012925Y6487921D01*
X14012925Y6501637D01*
X14017497Y6510781D01*
X14026388Y6519671D01*
X14040104Y6524244D01*
X14058391Y6528815D01*
X14067281Y6533387D01*
X14071854Y6542531D01*
X14071854Y6551676D01*
X14067281Y6560565D01*
X14053820Y6565137D01*
X14035531Y6565137D01*
X14151863Y6565137D02*
G01*
X14106397Y6501637D01*
X14174724Y6501637D01*
X14151863Y6565137D02*
G01*
X14151863Y6469887D01*
X13919200Y5625337D02*
G01*
X13919200Y5530087D01*
X13919200Y5625337D02*
G01*
X13950950Y5625337D01*
X13964666Y5620765D01*
X13973809Y5611876D01*
X13978381Y5602731D01*
X13982954Y5589015D01*
X13982954Y5566410D01*
X13978381Y5552694D01*
X13973809Y5543550D01*
X13964666Y5534405D01*
X13950950Y5530087D01*
X13919200Y5530087D01*
X14035531Y5625337D02*
G01*
X14021816Y5620765D01*
X14017497Y5611876D01*
X14017497Y5602731D01*
X14021816Y5593587D01*
X14030959Y5589015D01*
X14049247Y5584444D01*
X14062963Y5579871D01*
X14071854Y5570981D01*
X14076425Y5561837D01*
X14076425Y5548121D01*
X14071854Y5538978D01*
X14067281Y5534405D01*
X14053820Y5530087D01*
X14035531Y5530087D01*
X14021816Y5534405D01*
X14017497Y5538978D01*
X14012925Y5548121D01*
X14012925Y5561837D01*
X14017497Y5570981D01*
X14026388Y5579871D01*
X14040104Y5584444D01*
X14058391Y5589015D01*
X14067281Y5593587D01*
X14071854Y5602731D01*
X14071854Y5611876D01*
X14067281Y5620765D01*
X14053820Y5625337D01*
X14035531Y5625337D01*
X14161008Y5625337D02*
G01*
X14115541Y5625337D01*
X14110970Y5584444D01*
X14115541Y5589015D01*
X14129258Y5593587D01*
X14142720Y5593587D01*
X14156436Y5589015D01*
X14165579Y5579871D01*
X14170152Y5566410D01*
X14170152Y5557265D01*
X14165579Y5543550D01*
X14156436Y5534405D01*
X14142720Y5530087D01*
X14129258Y5530087D01*
X14115541Y5534405D01*
X14110970Y5538978D01*
X14106397Y5548121D01*
X14579600Y7479537D02*
G01*
X14579600Y7384287D01*
X14579600Y7479537D02*
G01*
X14611350Y7479537D01*
X14625066Y7474965D01*
X14634209Y7466076D01*
X14638781Y7456931D01*
X14643354Y7443215D01*
X14643354Y7420610D01*
X14638781Y7406894D01*
X14634209Y7397750D01*
X14625066Y7388605D01*
X14611350Y7384287D01*
X14579600Y7384287D01*
X14695931Y7479537D02*
G01*
X14682216Y7474965D01*
X14677897Y7466076D01*
X14677897Y7456931D01*
X14682216Y7447787D01*
X14691359Y7443215D01*
X14709647Y7438644D01*
X14723363Y7434071D01*
X14732254Y7425181D01*
X14736825Y7416037D01*
X14736825Y7402321D01*
X14732254Y7393178D01*
X14727681Y7388605D01*
X14714220Y7384287D01*
X14695931Y7384287D01*
X14682216Y7388605D01*
X14677897Y7393178D01*
X14673325Y7402321D01*
X14673325Y7416037D01*
X14677897Y7425181D01*
X14686788Y7434071D01*
X14700504Y7438644D01*
X14718791Y7443215D01*
X14727681Y7447787D01*
X14732254Y7456931D01*
X14732254Y7466076D01*
X14727681Y7474965D01*
X14714220Y7479537D01*
X14695931Y7479537D01*
X14794229Y7479537D02*
G01*
X14780513Y7474965D01*
X14771370Y7461504D01*
X14766797Y7438644D01*
X14766797Y7425181D01*
X14771370Y7402321D01*
X14780513Y7388605D01*
X14794229Y7384287D01*
X14803120Y7384287D01*
X14816836Y7388605D01*
X14825979Y7402321D01*
X14830552Y7425181D01*
X14830552Y7438644D01*
X14825979Y7461504D01*
X14816836Y7474965D01*
X14803120Y7479537D01*
X14794229Y7479537D01*
X14579600Y6565137D02*
G01*
X14579600Y6469887D01*
X14579600Y6565137D02*
G01*
X14611350Y6565137D01*
X14625066Y6560565D01*
X14634209Y6551676D01*
X14638781Y6542531D01*
X14643354Y6528815D01*
X14643354Y6506210D01*
X14638781Y6492494D01*
X14634209Y6483350D01*
X14625066Y6474205D01*
X14611350Y6469887D01*
X14579600Y6469887D01*
X14695931Y6565137D02*
G01*
X14682216Y6560565D01*
X14677897Y6551676D01*
X14677897Y6542531D01*
X14682216Y6533387D01*
X14691359Y6528815D01*
X14709647Y6524244D01*
X14723363Y6519671D01*
X14732254Y6510781D01*
X14736825Y6501637D01*
X14736825Y6487921D01*
X14732254Y6478778D01*
X14727681Y6474205D01*
X14714220Y6469887D01*
X14695931Y6469887D01*
X14682216Y6474205D01*
X14677897Y6478778D01*
X14673325Y6487921D01*
X14673325Y6501637D01*
X14677897Y6510781D01*
X14686788Y6519671D01*
X14700504Y6524244D01*
X14718791Y6528815D01*
X14727681Y6533387D01*
X14732254Y6542531D01*
X14732254Y6551676D01*
X14727681Y6560565D01*
X14714220Y6565137D01*
X14695931Y6565137D01*
X14766797Y6547104D02*
G01*
X14775941Y6551676D01*
X14789658Y6565137D01*
X14789658Y6469887D01*
X14579600Y5625337D02*
G01*
X14579600Y5530087D01*
X14579600Y5625337D02*
G01*
X14611350Y5625337D01*
X14625066Y5620765D01*
X14634209Y5611876D01*
X14638781Y5602731D01*
X14643354Y5589015D01*
X14643354Y5566410D01*
X14638781Y5552694D01*
X14634209Y5543550D01*
X14625066Y5534405D01*
X14611350Y5530087D01*
X14579600Y5530087D01*
X14695931Y5625337D02*
G01*
X14682216Y5620765D01*
X14677897Y5611876D01*
X14677897Y5602731D01*
X14682216Y5593587D01*
X14691359Y5589015D01*
X14709647Y5584444D01*
X14723363Y5579871D01*
X14732254Y5570981D01*
X14736825Y5561837D01*
X14736825Y5548121D01*
X14732254Y5538978D01*
X14727681Y5534405D01*
X14714220Y5530087D01*
X14695931Y5530087D01*
X14682216Y5534405D01*
X14677897Y5538978D01*
X14673325Y5548121D01*
X14673325Y5561837D01*
X14677897Y5570981D01*
X14686788Y5579871D01*
X14700504Y5584444D01*
X14718791Y5589015D01*
X14727681Y5593587D01*
X14732254Y5602731D01*
X14732254Y5611876D01*
X14727681Y5620765D01*
X14714220Y5625337D01*
X14695931Y5625337D01*
X14771370Y5602731D02*
G01*
X14771370Y5607304D01*
X14775941Y5616447D01*
X14780513Y5620765D01*
X14789658Y5625337D01*
X14807691Y5625337D01*
X14816836Y5620765D01*
X14821408Y5616447D01*
X14825979Y5607304D01*
X14825979Y5598160D01*
X14821408Y5589015D01*
X14812263Y5575300D01*
X14766797Y5530087D01*
X14830552Y5530087D01*
X11874500Y5523737D02*
G01*
X11874500Y5428487D01*
X11874500Y5523737D02*
G01*
X11906250Y5523737D01*
X11919965Y5519165D01*
X11929109Y5510276D01*
X11933681Y5501131D01*
X11938254Y5487415D01*
X11938254Y5464810D01*
X11933681Y5451094D01*
X11929109Y5441950D01*
X11919965Y5432805D01*
X11906250Y5428487D01*
X11874500Y5428487D01*
X12027154Y5491987D02*
G01*
X12022581Y5478271D01*
X12013691Y5469381D01*
X11999975Y5464810D01*
X11995404Y5464810D01*
X11981688Y5469381D01*
X11972797Y5478271D01*
X11968225Y5491987D01*
X11968225Y5496560D01*
X11972797Y5510276D01*
X11981688Y5519165D01*
X11995404Y5523737D01*
X11999975Y5523737D01*
X12013691Y5519165D01*
X12022581Y5510276D01*
X12027154Y5491987D01*
X12027154Y5469381D01*
X12022581Y5446521D01*
X12013691Y5432805D01*
X11999975Y5428487D01*
X11990831Y5428487D01*
X11977115Y5432805D01*
X11972797Y5441950D01*
X12061697Y5501131D02*
G01*
X12061697Y5505704D01*
X12066270Y5514847D01*
X12070841Y5519165D01*
X12079986Y5523737D01*
X12098020Y5523737D01*
X12107163Y5519165D01*
X12111736Y5514847D01*
X12116308Y5505704D01*
X12116308Y5496560D01*
X12111736Y5487415D01*
X12102591Y5473700D01*
X12057125Y5428487D01*
X12120879Y5428487D01*
X11811000Y8063737D02*
G01*
X11811000Y7968487D01*
X11811000Y8063737D02*
G01*
X11842750Y8063737D01*
X11856465Y8059165D01*
X11865609Y8050276D01*
X11870181Y8041131D01*
X11874754Y8027415D01*
X11874754Y8004810D01*
X11870181Y7991094D01*
X11865609Y7981950D01*
X11856465Y7972805D01*
X11842750Y7968487D01*
X11811000Y7968487D01*
X11927331Y8063737D02*
G01*
X11913615Y8059165D01*
X11909297Y8050276D01*
X11909297Y8041131D01*
X11913615Y8031987D01*
X11922759Y8027415D01*
X11941047Y8022844D01*
X11954763Y8018271D01*
X11963654Y8009381D01*
X11968225Y8000237D01*
X11968225Y7986521D01*
X11963654Y7977378D01*
X11959081Y7972805D01*
X11945620Y7968487D01*
X11927331Y7968487D01*
X11913615Y7972805D01*
X11909297Y7977378D01*
X11904725Y7986521D01*
X11904725Y8000237D01*
X11909297Y8009381D01*
X11918188Y8018271D01*
X11931904Y8022844D01*
X11950191Y8027415D01*
X11959081Y8031987D01*
X11963654Y8041131D01*
X11963654Y8050276D01*
X11959081Y8059165D01*
X11945620Y8063737D01*
X11927331Y8063737D01*
X12057379Y8031987D02*
G01*
X12052808Y8018271D01*
X12043663Y8009381D01*
X12030202Y8004810D01*
X12025629Y8004810D01*
X12011913Y8009381D01*
X12002770Y8018271D01*
X11998197Y8031987D01*
X11998197Y8036560D01*
X12002770Y8050276D01*
X12011913Y8059165D01*
X12025629Y8063737D01*
X12030202Y8063737D01*
X12043663Y8059165D01*
X12052808Y8050276D01*
X12057379Y8031987D01*
X12057379Y8009381D01*
X12052808Y7986521D01*
X12043663Y7972805D01*
X12030202Y7968487D01*
X12021058Y7968487D01*
X12007341Y7972805D01*
X12002770Y7981950D01*
X11874500Y7377937D02*
G01*
X11874500Y7282687D01*
X11874500Y7377937D02*
G01*
X11906250Y7377937D01*
X11919965Y7373365D01*
X11929109Y7364476D01*
X11933681Y7355331D01*
X11938254Y7341615D01*
X11938254Y7319010D01*
X11933681Y7305294D01*
X11929109Y7296150D01*
X11919965Y7287005D01*
X11906250Y7282687D01*
X11874500Y7282687D01*
X12027154Y7346187D02*
G01*
X12022581Y7332471D01*
X12013691Y7323581D01*
X11999975Y7319010D01*
X11995404Y7319010D01*
X11981688Y7323581D01*
X11972797Y7332471D01*
X11968225Y7346187D01*
X11968225Y7350760D01*
X11972797Y7364476D01*
X11981688Y7373365D01*
X11995404Y7377937D01*
X11999975Y7377937D01*
X12013691Y7373365D01*
X12022581Y7364476D01*
X12027154Y7346187D01*
X12027154Y7323581D01*
X12022581Y7300721D01*
X12013691Y7287005D01*
X11999975Y7282687D01*
X11990831Y7282687D01*
X11977115Y7287005D01*
X11972797Y7296150D01*
X12084558Y7377937D02*
G01*
X12070841Y7373365D01*
X12061697Y7359904D01*
X12057125Y7337044D01*
X12057125Y7323581D01*
X12061697Y7300721D01*
X12070841Y7287005D01*
X12084558Y7282687D01*
X12093702Y7282687D01*
X12107163Y7287005D01*
X12116308Y7300721D01*
X12120879Y7323581D01*
X12120879Y7337044D01*
X12116308Y7359904D01*
X12107163Y7373365D01*
X12093702Y7377937D01*
X12084558Y7377937D01*
X11874500Y6450837D02*
G01*
X11874500Y6355587D01*
X11874500Y6450837D02*
G01*
X11906250Y6450837D01*
X11919965Y6446265D01*
X11929109Y6437376D01*
X11933681Y6428231D01*
X11938254Y6414515D01*
X11938254Y6391910D01*
X11933681Y6378194D01*
X11929109Y6369050D01*
X11919965Y6359905D01*
X11906250Y6355587D01*
X11874500Y6355587D01*
X12027154Y6419087D02*
G01*
X12022581Y6405371D01*
X12013691Y6396481D01*
X11999975Y6391910D01*
X11995404Y6391910D01*
X11981688Y6396481D01*
X11972797Y6405371D01*
X11968225Y6419087D01*
X11968225Y6423660D01*
X11972797Y6437376D01*
X11981688Y6446265D01*
X11995404Y6450837D01*
X11999975Y6450837D01*
X12013691Y6446265D01*
X12022581Y6437376D01*
X12027154Y6419087D01*
X12027154Y6396481D01*
X12022581Y6373621D01*
X12013691Y6359905D01*
X11999975Y6355587D01*
X11990831Y6355587D01*
X11977115Y6359905D01*
X11972797Y6369050D01*
X12057125Y6432804D02*
G01*
X12066270Y6437376D01*
X12079986Y6450837D01*
X12079986Y6355587D01*
X11828272Y5932931D02*
G01*
X11823954Y5942076D01*
X11814809Y5950965D01*
X11805665Y5955537D01*
X11787377Y5955537D01*
X11778488Y5950965D01*
X11769343Y5942076D01*
X11764772Y5932931D01*
X11760200Y5919215D01*
X11760200Y5896610D01*
X11764772Y5882894D01*
X11769343Y5873750D01*
X11778488Y5864605D01*
X11787377Y5860034D01*
X11805665Y5860034D01*
X11814809Y5864605D01*
X11823954Y5873750D01*
X11828272Y5882894D01*
X11862815Y5932931D02*
G01*
X11862815Y5937504D01*
X11867388Y5946394D01*
X11871959Y5950965D01*
X11881104Y5955537D01*
X11899391Y5955537D01*
X11908281Y5950965D01*
X11912854Y5946394D01*
X11917425Y5937504D01*
X11917425Y5928360D01*
X11912854Y5919215D01*
X11903709Y5905500D01*
X11858497Y5860034D01*
X11921997Y5860034D01*
X11974829Y5955537D02*
G01*
X11961113Y5950965D01*
X11956541Y5942076D01*
X11956541Y5932931D01*
X11961113Y5923787D01*
X11970258Y5919215D01*
X11988291Y5914644D01*
X12002008Y5910071D01*
X12011152Y5901181D01*
X12015724Y5892037D01*
X12015724Y5878321D01*
X12011152Y5869178D01*
X12006579Y5864605D01*
X11992863Y5860034D01*
X11974829Y5860034D01*
X11961113Y5864605D01*
X11956541Y5869178D01*
X11951970Y5878321D01*
X11951970Y5892037D01*
X11956541Y5901181D01*
X11965686Y5910071D01*
X11979402Y5914644D01*
X11997436Y5919215D01*
X12006579Y5923787D01*
X12011152Y5932931D01*
X12011152Y5942076D01*
X12006579Y5950965D01*
X11992863Y5955537D01*
X11974829Y5955537D01*
X9144000Y5625337D02*
G01*
X9144000Y5530087D01*
X9144000Y5625337D02*
G01*
X9175750Y5625337D01*
X9189465Y5620765D01*
X9198609Y5611876D01*
X9203181Y5602731D01*
X9207754Y5589015D01*
X9207754Y5566410D01*
X9203181Y5552694D01*
X9198609Y5543550D01*
X9189465Y5534405D01*
X9175750Y5530087D01*
X9144000Y5530087D01*
X9237725Y5607304D02*
G01*
X9246615Y5611876D01*
X9260331Y5625337D01*
X9260331Y5530087D01*
X9317736Y5625337D02*
G01*
X9304020Y5620765D01*
X9294875Y5607304D01*
X9290304Y5584444D01*
X9290304Y5570981D01*
X9294875Y5548121D01*
X9304020Y5534405D01*
X9317736Y5530087D01*
X9326625Y5530087D01*
X9340341Y5534405D01*
X9349486Y5548121D01*
X9354058Y5570981D01*
X9354058Y5584444D01*
X9349486Y5607304D01*
X9340341Y5620765D01*
X9326625Y5625337D01*
X9317736Y5625337D01*
X9384029Y5607304D02*
G01*
X9393174Y5611876D01*
X9406636Y5625337D01*
X9406636Y5530087D01*
X9144000Y6565137D02*
G01*
X9144000Y6469887D01*
X9144000Y6565137D02*
G01*
X9175750Y6565137D01*
X9189465Y6560565D01*
X9198609Y6551676D01*
X9203181Y6542531D01*
X9207754Y6528815D01*
X9207754Y6506210D01*
X9203181Y6492494D01*
X9198609Y6483350D01*
X9189465Y6474205D01*
X9175750Y6469887D01*
X9144000Y6469887D01*
X9237725Y6547104D02*
G01*
X9246615Y6551676D01*
X9260331Y6565137D01*
X9260331Y6469887D01*
X9317736Y6565137D02*
G01*
X9304020Y6560565D01*
X9294875Y6547104D01*
X9290304Y6524244D01*
X9290304Y6510781D01*
X9294875Y6487921D01*
X9304020Y6474205D01*
X9317736Y6469887D01*
X9326625Y6469887D01*
X9340341Y6474205D01*
X9349486Y6487921D01*
X9354058Y6510781D01*
X9354058Y6524244D01*
X9349486Y6547104D01*
X9340341Y6560565D01*
X9326625Y6565137D01*
X9317736Y6565137D01*
X9411208Y6565137D02*
G01*
X9397745Y6560565D01*
X9388602Y6547104D01*
X9384029Y6524244D01*
X9384029Y6510781D01*
X9388602Y6487921D01*
X9397745Y6474205D01*
X9411208Y6469887D01*
X9420352Y6469887D01*
X9434068Y6474205D01*
X9443211Y6487921D01*
X9447529Y6510781D01*
X9447529Y6524244D01*
X9443211Y6547104D01*
X9434068Y6560565D01*
X9420352Y6565137D01*
X9411208Y6565137D01*
X9144000Y7479537D02*
G01*
X9144000Y7384287D01*
X9144000Y7479537D02*
G01*
X9175750Y7479537D01*
X9189465Y7474965D01*
X9198609Y7466076D01*
X9203181Y7456931D01*
X9207754Y7443215D01*
X9207754Y7420610D01*
X9203181Y7406894D01*
X9198609Y7397750D01*
X9189465Y7388605D01*
X9175750Y7384287D01*
X9144000Y7384287D01*
X9296654Y7447787D02*
G01*
X9292081Y7434071D01*
X9283191Y7425181D01*
X9269475Y7420610D01*
X9264904Y7420610D01*
X9251188Y7425181D01*
X9242297Y7434071D01*
X9237725Y7447787D01*
X9237725Y7452360D01*
X9242297Y7466076D01*
X9251188Y7474965D01*
X9264904Y7479537D01*
X9269475Y7479537D01*
X9283191Y7474965D01*
X9292081Y7466076D01*
X9296654Y7447787D01*
X9296654Y7425181D01*
X9292081Y7402321D01*
X9283191Y7388605D01*
X9269475Y7384287D01*
X9260331Y7384287D01*
X9246615Y7388605D01*
X9242297Y7397750D01*
X9385808Y7447787D02*
G01*
X9381236Y7434071D01*
X9372091Y7425181D01*
X9358629Y7420610D01*
X9354058Y7420610D01*
X9340341Y7425181D01*
X9331197Y7434071D01*
X9326625Y7447787D01*
X9326625Y7452360D01*
X9331197Y7466076D01*
X9340341Y7474965D01*
X9354058Y7479537D01*
X9358629Y7479537D01*
X9372091Y7474965D01*
X9381236Y7466076D01*
X9385808Y7447787D01*
X9385808Y7425181D01*
X9381236Y7402321D01*
X9372091Y7388605D01*
X9358629Y7384287D01*
X9349486Y7384287D01*
X9335770Y7388605D01*
X9331197Y7397750D01*
X9791700Y5625337D02*
G01*
X9791700Y5530087D01*
X9791700Y5625337D02*
G01*
X9823450Y5625337D01*
X9837165Y5620765D01*
X9846309Y5611876D01*
X9850881Y5602731D01*
X9855454Y5589015D01*
X9855454Y5566410D01*
X9850881Y5552694D01*
X9846309Y5543550D01*
X9837165Y5534405D01*
X9823450Y5530087D01*
X9791700Y5530087D01*
X9944354Y5593587D02*
G01*
X9939781Y5579871D01*
X9930891Y5570981D01*
X9917175Y5566410D01*
X9912604Y5566410D01*
X9898888Y5570981D01*
X9889997Y5579871D01*
X9885425Y5593587D01*
X9885425Y5598160D01*
X9889997Y5611876D01*
X9898888Y5620765D01*
X9912604Y5625337D01*
X9917175Y5625337D01*
X9930891Y5620765D01*
X9939781Y5611876D01*
X9944354Y5593587D01*
X9944354Y5570981D01*
X9939781Y5548121D01*
X9930891Y5534405D01*
X9917175Y5530087D01*
X9908031Y5530087D01*
X9894315Y5534405D01*
X9889997Y5543550D01*
X9997186Y5625337D02*
G01*
X9983470Y5620765D01*
X9978897Y5611876D01*
X9978897Y5602731D01*
X9983470Y5593587D01*
X9992613Y5589015D01*
X10010902Y5584444D01*
X10024363Y5579871D01*
X10033508Y5570981D01*
X10038079Y5561837D01*
X10038079Y5548121D01*
X10033508Y5538978D01*
X10028936Y5534405D01*
X10015220Y5530087D01*
X9997186Y5530087D01*
X9983470Y5534405D01*
X9978897Y5538978D01*
X9974325Y5548121D01*
X9974325Y5561837D01*
X9978897Y5570981D01*
X9988041Y5579871D01*
X10001758Y5584444D01*
X10019791Y5589015D01*
X10028936Y5593587D01*
X10033508Y5602731D01*
X10033508Y5611876D01*
X10028936Y5620765D01*
X10015220Y5625337D01*
X9997186Y5625337D01*
X9791700Y6565137D02*
G01*
X9791700Y6469887D01*
X9791700Y6565137D02*
G01*
X9823450Y6565137D01*
X9837165Y6560565D01*
X9846309Y6551676D01*
X9850881Y6542531D01*
X9855454Y6528815D01*
X9855454Y6506210D01*
X9850881Y6492494D01*
X9846309Y6483350D01*
X9837165Y6474205D01*
X9823450Y6469887D01*
X9791700Y6469887D01*
X9944354Y6533387D02*
G01*
X9939781Y6519671D01*
X9930891Y6510781D01*
X9917175Y6506210D01*
X9912604Y6506210D01*
X9898888Y6510781D01*
X9889997Y6519671D01*
X9885425Y6533387D01*
X9885425Y6537960D01*
X9889997Y6551676D01*
X9898888Y6560565D01*
X9912604Y6565137D01*
X9917175Y6565137D01*
X9930891Y6560565D01*
X9939781Y6551676D01*
X9944354Y6533387D01*
X9944354Y6510781D01*
X9939781Y6487921D01*
X9930891Y6474205D01*
X9917175Y6469887D01*
X9908031Y6469887D01*
X9894315Y6474205D01*
X9889997Y6483350D01*
X10038079Y6565137D02*
G01*
X9992613Y6469887D01*
X9974325Y6565137D02*
G01*
X10038079Y6565137D01*
X9791700Y7479537D02*
G01*
X9791700Y7384287D01*
X9791700Y7479537D02*
G01*
X9823450Y7479537D01*
X9837165Y7474965D01*
X9846309Y7466076D01*
X9850881Y7456931D01*
X9855454Y7443215D01*
X9855454Y7420610D01*
X9850881Y7406894D01*
X9846309Y7397750D01*
X9837165Y7388605D01*
X9823450Y7384287D01*
X9791700Y7384287D01*
X9944354Y7447787D02*
G01*
X9939781Y7434071D01*
X9930891Y7425181D01*
X9917175Y7420610D01*
X9912604Y7420610D01*
X9898888Y7425181D01*
X9889997Y7434071D01*
X9885425Y7447787D01*
X9885425Y7452360D01*
X9889997Y7466076D01*
X9898888Y7474965D01*
X9912604Y7479537D01*
X9917175Y7479537D01*
X9930891Y7474965D01*
X9939781Y7466076D01*
X9944354Y7447787D01*
X9944354Y7425181D01*
X9939781Y7402321D01*
X9930891Y7388605D01*
X9917175Y7384287D01*
X9908031Y7384287D01*
X9894315Y7388605D01*
X9889997Y7397750D01*
X10028936Y7466076D02*
G01*
X10024363Y7474965D01*
X10010902Y7479537D01*
X10001758Y7479537D01*
X9988041Y7474965D01*
X9978897Y7461504D01*
X9974325Y7438644D01*
X9974325Y7416037D01*
X9978897Y7397750D01*
X9988041Y7388605D01*
X10001758Y7384287D01*
X10006329Y7384287D01*
X10019791Y7388605D01*
X10028936Y7397750D01*
X10033508Y7411465D01*
X10033508Y7416037D01*
X10028936Y7429500D01*
X10019791Y7438644D01*
X10006329Y7443215D01*
X10001758Y7443215D01*
X9988041Y7438644D01*
X9978897Y7429500D01*
X9974325Y7416037D01*
X8780272Y6199631D02*
G01*
X8775954Y6208776D01*
X8766809Y6217665D01*
X8757665Y6222237D01*
X8739377Y6222237D01*
X8730488Y6217665D01*
X8721343Y6208776D01*
X8716772Y6199631D01*
X8712200Y6185915D01*
X8712200Y6163310D01*
X8716772Y6149594D01*
X8721343Y6140450D01*
X8730488Y6131305D01*
X8739377Y6126734D01*
X8757665Y6126734D01*
X8766809Y6131305D01*
X8775954Y6140450D01*
X8780272Y6149594D01*
X8819388Y6222237D02*
G01*
X8869425Y6222237D01*
X8842247Y6185915D01*
X8855709Y6185915D01*
X8864854Y6181344D01*
X8869425Y6176771D01*
X8873997Y6163310D01*
X8873997Y6154165D01*
X8869425Y6140450D01*
X8860281Y6131305D01*
X8846820Y6126734D01*
X8833104Y6126734D01*
X8819388Y6131305D01*
X8814815Y6135878D01*
X8810497Y6145021D01*
X8903970Y6204204D02*
G01*
X8913113Y6208776D01*
X8926829Y6222237D01*
X8926829Y6126734D01*
X9415272Y6199631D02*
G01*
X9410954Y6208776D01*
X9401809Y6217665D01*
X9392665Y6222237D01*
X9374377Y6222237D01*
X9365488Y6217665D01*
X9356343Y6208776D01*
X9351772Y6199631D01*
X9347200Y6185915D01*
X9347200Y6163310D01*
X9351772Y6149594D01*
X9356343Y6140450D01*
X9365488Y6131305D01*
X9374377Y6126734D01*
X9392665Y6126734D01*
X9401809Y6131305D01*
X9410954Y6140450D01*
X9415272Y6149594D01*
X9454388Y6222237D02*
G01*
X9504425Y6222237D01*
X9477247Y6185915D01*
X9490709Y6185915D01*
X9499854Y6181344D01*
X9504425Y6176771D01*
X9508997Y6163310D01*
X9508997Y6154165D01*
X9504425Y6140450D01*
X9495281Y6131305D01*
X9481820Y6126734D01*
X9468104Y6126734D01*
X9454388Y6131305D01*
X9449815Y6135878D01*
X9445497Y6145021D01*
X9566402Y6222237D02*
G01*
X9552686Y6217665D01*
X9543541Y6204204D01*
X9538970Y6181344D01*
X9538970Y6167881D01*
X9543541Y6145021D01*
X9552686Y6131305D01*
X9566402Y6126734D01*
X9575291Y6126734D01*
X9589008Y6131305D01*
X9598152Y6145021D01*
X9602724Y6167881D01*
X9602724Y6181344D01*
X9598152Y6204204D01*
X9589008Y6217665D01*
X9575291Y6222237D01*
X9566402Y6222237D01*
X7980172Y5932931D02*
G01*
X7975854Y5942076D01*
X7966709Y5950965D01*
X7957565Y5955537D01*
X7939277Y5955537D01*
X7930388Y5950965D01*
X7921243Y5942076D01*
X7916672Y5932931D01*
X7912100Y5919215D01*
X7912100Y5896610D01*
X7916672Y5882894D01*
X7921243Y5873750D01*
X7930388Y5864605D01*
X7939277Y5860034D01*
X7957565Y5860034D01*
X7966709Y5864605D01*
X7975854Y5873750D01*
X7980172Y5882894D01*
X8019288Y5955537D02*
G01*
X8069325Y5955537D01*
X8042147Y5919215D01*
X8055609Y5919215D01*
X8064754Y5914644D01*
X8069325Y5910071D01*
X8073897Y5896610D01*
X8073897Y5887465D01*
X8069325Y5873750D01*
X8060181Y5864605D01*
X8046720Y5860034D01*
X8033004Y5860034D01*
X8019288Y5864605D01*
X8014715Y5869178D01*
X8010397Y5878321D01*
X8108441Y5932931D02*
G01*
X8108441Y5937504D01*
X8113013Y5946394D01*
X8117586Y5950965D01*
X8126729Y5955537D01*
X8144763Y5955537D01*
X8153908Y5950965D01*
X8158479Y5946394D01*
X8163052Y5937504D01*
X8163052Y5928360D01*
X8158479Y5919215D01*
X8149336Y5905500D01*
X8103870Y5860034D01*
X8167624Y5860034D01*
X8026400Y6450837D02*
G01*
X8026400Y6355587D01*
X8026400Y6450837D02*
G01*
X8058150Y6450837D01*
X8071865Y6446265D01*
X8081009Y6437376D01*
X8085581Y6428231D01*
X8090154Y6414515D01*
X8090154Y6391910D01*
X8085581Y6378194D01*
X8081009Y6369050D01*
X8071865Y6359905D01*
X8058150Y6355587D01*
X8026400Y6355587D01*
X8120125Y6432804D02*
G01*
X8129015Y6437376D01*
X8142731Y6450837D01*
X8142731Y6355587D01*
X8200136Y6450837D02*
G01*
X8186420Y6446265D01*
X8177275Y6432804D01*
X8172704Y6409944D01*
X8172704Y6396481D01*
X8177275Y6373621D01*
X8186420Y6359905D01*
X8200136Y6355587D01*
X8209025Y6355587D01*
X8222741Y6359905D01*
X8231886Y6373621D01*
X8236458Y6396481D01*
X8236458Y6409944D01*
X8231886Y6432804D01*
X8222741Y6446265D01*
X8209025Y6450837D01*
X8200136Y6450837D01*
X8311895Y6450837D02*
G01*
X8266429Y6387337D01*
X8334502Y6387337D01*
X8311895Y6450837D02*
G01*
X8311895Y6355587D01*
X8026400Y7377937D02*
G01*
X8026400Y7282687D01*
X8026400Y7377937D02*
G01*
X8058150Y7377937D01*
X8071865Y7373365D01*
X8081009Y7364476D01*
X8085581Y7355331D01*
X8090154Y7341615D01*
X8090154Y7319010D01*
X8085581Y7305294D01*
X8081009Y7296150D01*
X8071865Y7287005D01*
X8058150Y7282687D01*
X8026400Y7282687D01*
X8120125Y7359904D02*
G01*
X8129015Y7364476D01*
X8142731Y7377937D01*
X8142731Y7282687D01*
X8200136Y7377937D02*
G01*
X8186420Y7373365D01*
X8177275Y7359904D01*
X8172704Y7337044D01*
X8172704Y7323581D01*
X8177275Y7300721D01*
X8186420Y7287005D01*
X8200136Y7282687D01*
X8209025Y7282687D01*
X8222741Y7287005D01*
X8231886Y7300721D01*
X8236458Y7323581D01*
X8236458Y7337044D01*
X8231886Y7359904D01*
X8222741Y7373365D01*
X8209025Y7377937D01*
X8200136Y7377937D01*
X8275574Y7377937D02*
G01*
X8325611Y7377937D01*
X8298179Y7341615D01*
X8311895Y7341615D01*
X8321040Y7337044D01*
X8325611Y7332471D01*
X8329929Y7319010D01*
X8329929Y7309865D01*
X8325611Y7296150D01*
X8316468Y7287005D01*
X8302752Y7282687D01*
X8289036Y7282687D01*
X8275574Y7287005D01*
X8271002Y7291578D01*
X8266429Y7300721D01*
X7962900Y8063737D02*
G01*
X7962900Y7968487D01*
X7962900Y8063737D02*
G01*
X7994650Y8063737D01*
X8008365Y8059165D01*
X8017509Y8050276D01*
X8022081Y8041131D01*
X8026654Y8027415D01*
X8026654Y8004810D01*
X8022081Y7991094D01*
X8017509Y7981950D01*
X8008365Y7972805D01*
X7994650Y7968487D01*
X7962900Y7968487D01*
X8056625Y8045704D02*
G01*
X8065515Y8050276D01*
X8079231Y8063737D01*
X8079231Y7968487D01*
X8136636Y8063737D02*
G01*
X8122920Y8059165D01*
X8113775Y8045704D01*
X8109204Y8022844D01*
X8109204Y8009381D01*
X8113775Y7986521D01*
X8122920Y7972805D01*
X8136636Y7968487D01*
X8145525Y7968487D01*
X8159241Y7972805D01*
X8168386Y7986521D01*
X8172958Y8009381D01*
X8172958Y8022844D01*
X8168386Y8045704D01*
X8159241Y8059165D01*
X8145525Y8063737D01*
X8136636Y8063737D01*
X8207502Y8041131D02*
G01*
X8207502Y8045704D01*
X8212074Y8054847D01*
X8216645Y8059165D01*
X8225536Y8063737D01*
X8243824Y8063737D01*
X8252968Y8059165D01*
X8257540Y8054847D01*
X8262111Y8045704D01*
X8262111Y8036560D01*
X8257540Y8027415D01*
X8248395Y8013700D01*
X8202929Y7968487D01*
X8266429Y7968487D01*
X10393172Y5932931D02*
G01*
X10388854Y5942076D01*
X10379709Y5950965D01*
X10370565Y5955537D01*
X10352277Y5955537D01*
X10343388Y5950965D01*
X10334243Y5942076D01*
X10329672Y5932931D01*
X10325100Y5919215D01*
X10325100Y5896610D01*
X10329672Y5882894D01*
X10334243Y5873750D01*
X10343388Y5864605D01*
X10352277Y5860034D01*
X10370565Y5860034D01*
X10379709Y5864605D01*
X10388854Y5873750D01*
X10393172Y5882894D01*
X10427715Y5932931D02*
G01*
X10427715Y5937504D01*
X10432288Y5946394D01*
X10436859Y5950965D01*
X10446004Y5955537D01*
X10464291Y5955537D01*
X10473181Y5950965D01*
X10477754Y5946394D01*
X10482325Y5937504D01*
X10482325Y5928360D01*
X10477754Y5919215D01*
X10468609Y5905500D01*
X10423397Y5860034D01*
X10486897Y5860034D01*
X10576052Y5923787D02*
G01*
X10571479Y5910071D01*
X10562336Y5901181D01*
X10548620Y5896610D01*
X10544302Y5896610D01*
X10530586Y5901181D01*
X10521441Y5910071D01*
X10516870Y5923787D01*
X10516870Y5928360D01*
X10521441Y5942076D01*
X10530586Y5950965D01*
X10544302Y5955537D01*
X10548620Y5955537D01*
X10562336Y5950965D01*
X10571479Y5942076D01*
X10576052Y5923787D01*
X10576052Y5901181D01*
X10571479Y5878321D01*
X10562336Y5864605D01*
X10548620Y5860034D01*
X10539729Y5860034D01*
X10526013Y5864605D01*
X10521441Y5873750D01*
X10439400Y7377937D02*
G01*
X10439400Y7282687D01*
X10439400Y7377937D02*
G01*
X10471150Y7377937D01*
X10484865Y7373365D01*
X10494009Y7364476D01*
X10498581Y7355331D01*
X10503154Y7341615D01*
X10503154Y7319010D01*
X10498581Y7305294D01*
X10494009Y7296150D01*
X10484865Y7287005D01*
X10471150Y7282687D01*
X10439400Y7282687D01*
X10592054Y7346187D02*
G01*
X10587481Y7332471D01*
X10578591Y7323581D01*
X10564875Y7319010D01*
X10560304Y7319010D01*
X10546588Y7323581D01*
X10537697Y7332471D01*
X10533125Y7346187D01*
X10533125Y7350760D01*
X10537697Y7364476D01*
X10546588Y7373365D01*
X10560304Y7377937D01*
X10564875Y7377937D01*
X10578591Y7373365D01*
X10587481Y7364476D01*
X10592054Y7346187D01*
X10592054Y7323581D01*
X10587481Y7300721D01*
X10578591Y7287005D01*
X10564875Y7282687D01*
X10555731Y7282687D01*
X10542015Y7287005D01*
X10537697Y7296150D01*
X10631170Y7377937D02*
G01*
X10681208Y7377937D01*
X10654029Y7341615D01*
X10667491Y7341615D01*
X10676636Y7337044D01*
X10681208Y7332471D01*
X10685779Y7319010D01*
X10685779Y7309865D01*
X10681208Y7296150D01*
X10672063Y7287005D01*
X10658602Y7282687D01*
X10644886Y7282687D01*
X10631170Y7287005D01*
X10626597Y7291578D01*
X10622025Y7300721D01*
X10439400Y6450837D02*
G01*
X10439400Y6355587D01*
X10439400Y6450837D02*
G01*
X10471150Y6450837D01*
X10484865Y6446265D01*
X10494009Y6437376D01*
X10498581Y6428231D01*
X10503154Y6414515D01*
X10503154Y6391910D01*
X10498581Y6378194D01*
X10494009Y6369050D01*
X10484865Y6359905D01*
X10471150Y6355587D01*
X10439400Y6355587D01*
X10592054Y6419087D02*
G01*
X10587481Y6405371D01*
X10578591Y6396481D01*
X10564875Y6391910D01*
X10560304Y6391910D01*
X10546588Y6396481D01*
X10537697Y6405371D01*
X10533125Y6419087D01*
X10533125Y6423660D01*
X10537697Y6437376D01*
X10546588Y6446265D01*
X10560304Y6450837D01*
X10564875Y6450837D01*
X10578591Y6446265D01*
X10587481Y6437376D01*
X10592054Y6419087D01*
X10592054Y6396481D01*
X10587481Y6373621D01*
X10578591Y6359905D01*
X10564875Y6355587D01*
X10555731Y6355587D01*
X10542015Y6359905D01*
X10537697Y6369050D01*
X10667491Y6450837D02*
G01*
X10622025Y6387337D01*
X10690352Y6387337D01*
X10667491Y6450837D02*
G01*
X10667491Y6355587D01*
X10439400Y5523737D02*
G01*
X10439400Y5428487D01*
X10439400Y5523737D02*
G01*
X10471150Y5523737D01*
X10484865Y5519165D01*
X10494009Y5510276D01*
X10498581Y5501131D01*
X10503154Y5487415D01*
X10503154Y5464810D01*
X10498581Y5451094D01*
X10494009Y5441950D01*
X10484865Y5432805D01*
X10471150Y5428487D01*
X10439400Y5428487D01*
X10592054Y5491987D02*
G01*
X10587481Y5478271D01*
X10578591Y5469381D01*
X10564875Y5464810D01*
X10560304Y5464810D01*
X10546588Y5469381D01*
X10537697Y5478271D01*
X10533125Y5491987D01*
X10533125Y5496560D01*
X10537697Y5510276D01*
X10546588Y5519165D01*
X10560304Y5523737D01*
X10564875Y5523737D01*
X10578591Y5519165D01*
X10587481Y5510276D01*
X10592054Y5491987D01*
X10592054Y5469381D01*
X10587481Y5446521D01*
X10578591Y5432805D01*
X10564875Y5428487D01*
X10555731Y5428487D01*
X10542015Y5432805D01*
X10537697Y5441950D01*
X10676636Y5523737D02*
G01*
X10631170Y5523737D01*
X10626597Y5482844D01*
X10631170Y5487415D01*
X10644886Y5491987D01*
X10658602Y5491987D01*
X10672063Y5487415D01*
X10681208Y5478271D01*
X10685779Y5464810D01*
X10685779Y5455665D01*
X10681208Y5441950D01*
X10672063Y5432805D01*
X10658602Y5428487D01*
X10644886Y5428487D01*
X10631170Y5432805D01*
X10626597Y5437378D01*
X10622025Y5446521D01*
X8026400Y5523737D02*
G01*
X8026400Y5428487D01*
X8026400Y5523737D02*
G01*
X8058150Y5523737D01*
X8071865Y5519165D01*
X8081009Y5510276D01*
X8085581Y5501131D01*
X8090154Y5487415D01*
X8090154Y5464810D01*
X8085581Y5451094D01*
X8081009Y5441950D01*
X8071865Y5432805D01*
X8058150Y5428487D01*
X8026400Y5428487D01*
X8120125Y5505704D02*
G01*
X8129015Y5510276D01*
X8142731Y5523737D01*
X8142731Y5428487D01*
X8200136Y5523737D02*
G01*
X8186420Y5519165D01*
X8177275Y5505704D01*
X8172704Y5482844D01*
X8172704Y5469381D01*
X8177275Y5446521D01*
X8186420Y5432805D01*
X8200136Y5428487D01*
X8209025Y5428487D01*
X8222741Y5432805D01*
X8231886Y5446521D01*
X8236458Y5469381D01*
X8236458Y5482844D01*
X8231886Y5505704D01*
X8222741Y5519165D01*
X8209025Y5523737D01*
X8200136Y5523737D01*
X8321040Y5523737D02*
G01*
X8275574Y5523737D01*
X8271002Y5482844D01*
X8275574Y5487415D01*
X8289036Y5491987D01*
X8302752Y5491987D01*
X8316468Y5487415D01*
X8325611Y5478271D01*
X8329929Y5464810D01*
X8329929Y5455665D01*
X8325611Y5441950D01*
X8316468Y5432805D01*
X8302752Y5428487D01*
X8289036Y5428487D01*
X8275574Y5432805D01*
X8271002Y5437378D01*
X8266429Y5446521D01*
X6629400Y5523737D02*
G01*
X6629400Y5428487D01*
X6629400Y5523737D02*
G01*
X6661150Y5523737D01*
X6674865Y5519165D01*
X6684009Y5510276D01*
X6688581Y5501131D01*
X6693154Y5487415D01*
X6693154Y5464810D01*
X6688581Y5451094D01*
X6684009Y5441950D01*
X6674865Y5432805D01*
X6661150Y5428487D01*
X6629400Y5428487D01*
X6723125Y5505704D02*
G01*
X6732015Y5510276D01*
X6745731Y5523737D01*
X6745731Y5428487D01*
X6803136Y5523737D02*
G01*
X6789420Y5519165D01*
X6780275Y5505704D01*
X6775704Y5482844D01*
X6775704Y5469381D01*
X6780275Y5446521D01*
X6789420Y5432805D01*
X6803136Y5428487D01*
X6812025Y5428487D01*
X6825741Y5432805D01*
X6834886Y5446521D01*
X6839458Y5469381D01*
X6839458Y5482844D01*
X6834886Y5505704D01*
X6825741Y5519165D01*
X6812025Y5523737D01*
X6803136Y5523737D01*
X6892036Y5523737D02*
G01*
X6878574Y5519165D01*
X6874002Y5510276D01*
X6874002Y5501131D01*
X6878574Y5491987D01*
X6887718Y5487415D01*
X6905752Y5482844D01*
X6919468Y5478271D01*
X6928611Y5469381D01*
X6932929Y5460237D01*
X6932929Y5446521D01*
X6928611Y5437378D01*
X6924040Y5432805D01*
X6910324Y5428487D01*
X6892036Y5428487D01*
X6878574Y5432805D01*
X6874002Y5437378D01*
X6869429Y5446521D01*
X6869429Y5460237D01*
X6874002Y5469381D01*
X6883145Y5478271D01*
X6896608Y5482844D01*
X6914895Y5487415D01*
X6924040Y5491987D01*
X6928611Y5501131D01*
X6928611Y5510276D01*
X6924040Y5519165D01*
X6910324Y5523737D01*
X6892036Y5523737D01*
X6629400Y6450837D02*
G01*
X6629400Y6355587D01*
X6629400Y6450837D02*
G01*
X6661150Y6450837D01*
X6674865Y6446265D01*
X6684009Y6437376D01*
X6688581Y6428231D01*
X6693154Y6414515D01*
X6693154Y6391910D01*
X6688581Y6378194D01*
X6684009Y6369050D01*
X6674865Y6359905D01*
X6661150Y6355587D01*
X6629400Y6355587D01*
X6723125Y6432804D02*
G01*
X6732015Y6437376D01*
X6745731Y6450837D01*
X6745731Y6355587D01*
X6803136Y6450837D02*
G01*
X6789420Y6446265D01*
X6780275Y6432804D01*
X6775704Y6409944D01*
X6775704Y6396481D01*
X6780275Y6373621D01*
X6789420Y6359905D01*
X6803136Y6355587D01*
X6812025Y6355587D01*
X6825741Y6359905D01*
X6834886Y6373621D01*
X6839458Y6396481D01*
X6839458Y6409944D01*
X6834886Y6432804D01*
X6825741Y6446265D01*
X6812025Y6450837D01*
X6803136Y6450837D01*
X6932929Y6450837D02*
G01*
X6887718Y6355587D01*
X6869429Y6450837D02*
G01*
X6932929Y6450837D01*
X6629400Y7377937D02*
G01*
X6629400Y7282687D01*
X6629400Y7377937D02*
G01*
X6661150Y7377937D01*
X6674865Y7373365D01*
X6684009Y7364476D01*
X6688581Y7355331D01*
X6693154Y7341615D01*
X6693154Y7319010D01*
X6688581Y7305294D01*
X6684009Y7296150D01*
X6674865Y7287005D01*
X6661150Y7282687D01*
X6629400Y7282687D01*
X6723125Y7359904D02*
G01*
X6732015Y7364476D01*
X6745731Y7377937D01*
X6745731Y7282687D01*
X6803136Y7377937D02*
G01*
X6789420Y7373365D01*
X6780275Y7359904D01*
X6775704Y7337044D01*
X6775704Y7323581D01*
X6780275Y7300721D01*
X6789420Y7287005D01*
X6803136Y7282687D01*
X6812025Y7282687D01*
X6825741Y7287005D01*
X6834886Y7300721D01*
X6839458Y7323581D01*
X6839458Y7337044D01*
X6834886Y7359904D01*
X6825741Y7373365D01*
X6812025Y7377937D01*
X6803136Y7377937D01*
X6924040Y7364476D02*
G01*
X6919468Y7373365D01*
X6905752Y7377937D01*
X6896608Y7377937D01*
X6883145Y7373365D01*
X6874002Y7359904D01*
X6869429Y7337044D01*
X6869429Y7314437D01*
X6874002Y7296150D01*
X6883145Y7287005D01*
X6896608Y7282687D01*
X6901179Y7282687D01*
X6914895Y7287005D01*
X6924040Y7296150D01*
X6928611Y7309865D01*
X6928611Y7314437D01*
X6924040Y7327900D01*
X6914895Y7337044D01*
X6901179Y7341615D01*
X6896608Y7341615D01*
X6883145Y7337044D01*
X6874002Y7327900D01*
X6869429Y7314437D01*
X3403600Y7377937D02*
G01*
X3403600Y7282687D01*
X3403600Y7377937D02*
G01*
X3435350Y7377937D01*
X3449065Y7373365D01*
X3458209Y7364476D01*
X3462781Y7355331D01*
X3467354Y7341615D01*
X3467354Y7319010D01*
X3462781Y7305294D01*
X3458209Y7296150D01*
X3449065Y7287005D01*
X3435350Y7282687D01*
X3403600Y7282687D01*
X3497325Y7359904D02*
G01*
X3506215Y7364476D01*
X3519931Y7377937D01*
X3519931Y7282687D01*
X3549904Y7359904D02*
G01*
X3559047Y7364476D01*
X3572763Y7377937D01*
X3572763Y7282687D01*
X3602736Y7359904D02*
G01*
X3611879Y7364476D01*
X3625341Y7377937D01*
X3625341Y7282687D01*
X4368800Y7377937D02*
G01*
X4368800Y7282687D01*
X4368800Y7377937D02*
G01*
X4400550Y7377937D01*
X4414265Y7373365D01*
X4423409Y7364476D01*
X4427981Y7355331D01*
X4432554Y7341615D01*
X4432554Y7319010D01*
X4427981Y7305294D01*
X4423409Y7296150D01*
X4414265Y7287005D01*
X4400550Y7282687D01*
X4368800Y7282687D01*
X4462525Y7359904D02*
G01*
X4471415Y7364476D01*
X4485131Y7377937D01*
X4485131Y7282687D01*
X4515104Y7359904D02*
G01*
X4524247Y7364476D01*
X4537963Y7377937D01*
X4537963Y7282687D01*
X4595113Y7377937D02*
G01*
X4581652Y7373365D01*
X4572508Y7359904D01*
X4567936Y7337044D01*
X4567936Y7323581D01*
X4572508Y7300721D01*
X4581652Y7287005D01*
X4595113Y7282687D01*
X4604258Y7282687D01*
X4617974Y7287005D01*
X4627118Y7300721D01*
X4631436Y7323581D01*
X4631436Y7337044D01*
X4627118Y7359904D01*
X4617974Y7373365D01*
X4604258Y7377937D01*
X4595113Y7377937D01*
X5321300Y7377937D02*
G01*
X5321300Y7282687D01*
X5321300Y7377937D02*
G01*
X5353050Y7377937D01*
X5366765Y7373365D01*
X5375909Y7364476D01*
X5380481Y7355331D01*
X5385054Y7341615D01*
X5385054Y7319010D01*
X5380481Y7305294D01*
X5375909Y7296150D01*
X5366765Y7287005D01*
X5353050Y7282687D01*
X5321300Y7282687D01*
X5415025Y7359904D02*
G01*
X5423915Y7364476D01*
X5437631Y7377937D01*
X5437631Y7282687D01*
X5495036Y7377937D02*
G01*
X5481320Y7373365D01*
X5472175Y7359904D01*
X5467604Y7337044D01*
X5467604Y7323581D01*
X5472175Y7300721D01*
X5481320Y7287005D01*
X5495036Y7282687D01*
X5503925Y7282687D01*
X5517641Y7287005D01*
X5526786Y7300721D01*
X5531358Y7323581D01*
X5531358Y7337044D01*
X5526786Y7359904D01*
X5517641Y7373365D01*
X5503925Y7377937D01*
X5495036Y7377937D01*
X5620511Y7346187D02*
G01*
X5615940Y7332471D01*
X5606795Y7323581D01*
X5593079Y7319010D01*
X5588508Y7319010D01*
X5575045Y7323581D01*
X5565902Y7332471D01*
X5561329Y7346187D01*
X5561329Y7350760D01*
X5565902Y7364476D01*
X5575045Y7373365D01*
X5588508Y7377937D01*
X5593079Y7377937D01*
X5606795Y7373365D01*
X5615940Y7364476D01*
X5620511Y7346187D01*
X5620511Y7323581D01*
X5615940Y7300721D01*
X5606795Y7287005D01*
X5593079Y7282687D01*
X5583936Y7282687D01*
X5570474Y7287005D01*
X5565902Y7296150D01*
X3403600Y5091937D02*
G01*
X3403600Y4996687D01*
X3403600Y5091937D02*
G01*
X3435350Y5091937D01*
X3449065Y5087365D01*
X3458209Y5078476D01*
X3462781Y5069331D01*
X3467354Y5055615D01*
X3467354Y5033010D01*
X3462781Y5019294D01*
X3458209Y5010150D01*
X3449065Y5001005D01*
X3435350Y4996687D01*
X3403600Y4996687D01*
X3497325Y5073904D02*
G01*
X3506215Y5078476D01*
X3519931Y5091937D01*
X3519931Y4996687D01*
X3549904Y5073904D02*
G01*
X3559047Y5078476D01*
X3572763Y5091937D01*
X3572763Y4996687D01*
X3648202Y5091937D02*
G01*
X3602736Y5028437D01*
X3670808Y5028437D01*
X3648202Y5091937D02*
G01*
X3648202Y4996687D01*
X3509772Y5475731D02*
G01*
X3505454Y5484876D01*
X3496309Y5493765D01*
X3487165Y5498337D01*
X3468877Y5498337D01*
X3459988Y5493765D01*
X3450843Y5484876D01*
X3446272Y5475731D01*
X3441700Y5462015D01*
X3441700Y5439410D01*
X3446272Y5425694D01*
X3450843Y5416550D01*
X3459988Y5407405D01*
X3468877Y5402834D01*
X3487165Y5402834D01*
X3496309Y5407405D01*
X3505454Y5416550D01*
X3509772Y5425694D01*
X3548888Y5498337D02*
G01*
X3598925Y5498337D01*
X3571747Y5462015D01*
X3585209Y5462015D01*
X3594354Y5457444D01*
X3598925Y5452871D01*
X3603497Y5439410D01*
X3603497Y5430265D01*
X3598925Y5416550D01*
X3589781Y5407405D01*
X3576320Y5402834D01*
X3562604Y5402834D01*
X3548888Y5407405D01*
X3544315Y5411978D01*
X3539997Y5421121D01*
X3688079Y5498337D02*
G01*
X3642613Y5498337D01*
X3638041Y5457444D01*
X3642613Y5462015D01*
X3656329Y5466587D01*
X3669791Y5466587D01*
X3683508Y5462015D01*
X3692652Y5452871D01*
X3697224Y5439410D01*
X3697224Y5430265D01*
X3692652Y5416550D01*
X3683508Y5407405D01*
X3669791Y5402834D01*
X3656329Y5402834D01*
X3642613Y5407405D01*
X3638041Y5411978D01*
X3633470Y5421121D01*
X4368800Y5091937D02*
G01*
X4368800Y4996687D01*
X4368800Y5091937D02*
G01*
X4400550Y5091937D01*
X4414265Y5087365D01*
X4423409Y5078476D01*
X4427981Y5069331D01*
X4432554Y5055615D01*
X4432554Y5033010D01*
X4427981Y5019294D01*
X4423409Y5010150D01*
X4414265Y5001005D01*
X4400550Y4996687D01*
X4368800Y4996687D01*
X4462525Y5073904D02*
G01*
X4471415Y5078476D01*
X4485131Y5091937D01*
X4485131Y4996687D01*
X4515104Y5073904D02*
G01*
X4524247Y5078476D01*
X4537963Y5091937D01*
X4537963Y4996687D01*
X4577079Y5091937D02*
G01*
X4627118Y5091937D01*
X4599686Y5055615D01*
X4613402Y5055615D01*
X4622545Y5051044D01*
X4627118Y5046471D01*
X4631436Y5033010D01*
X4631436Y5023865D01*
X4627118Y5010150D01*
X4617974Y5001005D01*
X4604258Y4996687D01*
X4590541Y4996687D01*
X4577079Y5001005D01*
X4572508Y5005578D01*
X4567936Y5014721D01*
X5321300Y5091937D02*
G01*
X5321300Y4996687D01*
X5321300Y5091937D02*
G01*
X5353050Y5091937D01*
X5366765Y5087365D01*
X5375909Y5078476D01*
X5380481Y5069331D01*
X5385054Y5055615D01*
X5385054Y5033010D01*
X5380481Y5019294D01*
X5375909Y5010150D01*
X5366765Y5001005D01*
X5353050Y4996687D01*
X5321300Y4996687D01*
X5415025Y5073904D02*
G01*
X5423915Y5078476D01*
X5437631Y5091937D01*
X5437631Y4996687D01*
X5467604Y5073904D02*
G01*
X5476747Y5078476D01*
X5490463Y5091937D01*
X5490463Y4996687D01*
X5525008Y5069331D02*
G01*
X5525008Y5073904D01*
X5529579Y5083047D01*
X5534152Y5087365D01*
X5543041Y5091937D01*
X5561329Y5091937D01*
X5570474Y5087365D01*
X5575045Y5083047D01*
X5579618Y5073904D01*
X5579618Y5064760D01*
X5575045Y5055615D01*
X5565902Y5041900D01*
X5520436Y4996687D01*
X5583936Y4996687D01*
X3509772Y7761731D02*
G01*
X3505454Y7770876D01*
X3496309Y7779765D01*
X3487165Y7784337D01*
X3468877Y7784337D01*
X3459988Y7779765D01*
X3450843Y7770876D01*
X3446272Y7761731D01*
X3441700Y7748015D01*
X3441700Y7725410D01*
X3446272Y7711694D01*
X3450843Y7702550D01*
X3459988Y7693405D01*
X3468877Y7688834D01*
X3487165Y7688834D01*
X3496309Y7693405D01*
X3505454Y7702550D01*
X3509772Y7711694D01*
X3548888Y7784337D02*
G01*
X3598925Y7784337D01*
X3571747Y7748015D01*
X3585209Y7748015D01*
X3594354Y7743444D01*
X3598925Y7738871D01*
X3603497Y7725410D01*
X3603497Y7716265D01*
X3598925Y7702550D01*
X3589781Y7693405D01*
X3576320Y7688834D01*
X3562604Y7688834D01*
X3548888Y7693405D01*
X3544315Y7697978D01*
X3539997Y7707121D01*
X3678936Y7784337D02*
G01*
X3633470Y7720837D01*
X3701795Y7720837D01*
X3678936Y7784337D02*
G01*
X3678936Y7688834D01*
X6583172Y5932931D02*
G01*
X6578854Y5942076D01*
X6569709Y5950965D01*
X6560565Y5955537D01*
X6542277Y5955537D01*
X6533388Y5950965D01*
X6524243Y5942076D01*
X6519672Y5932931D01*
X6515100Y5919215D01*
X6515100Y5896610D01*
X6519672Y5882894D01*
X6524243Y5873750D01*
X6533388Y5864605D01*
X6542277Y5860034D01*
X6560565Y5860034D01*
X6569709Y5864605D01*
X6578854Y5873750D01*
X6583172Y5882894D01*
X6622288Y5955537D02*
G01*
X6672325Y5955537D01*
X6645147Y5919215D01*
X6658609Y5919215D01*
X6667754Y5914644D01*
X6672325Y5910071D01*
X6676897Y5896610D01*
X6676897Y5887465D01*
X6672325Y5873750D01*
X6663181Y5864605D01*
X6649720Y5860034D01*
X6636004Y5860034D01*
X6622288Y5864605D01*
X6617715Y5869178D01*
X6613397Y5878321D01*
X6716013Y5955537D02*
G01*
X6766052Y5955537D01*
X6738620Y5919215D01*
X6752336Y5919215D01*
X6761479Y5914644D01*
X6766052Y5910071D01*
X6770624Y5896610D01*
X6770624Y5887465D01*
X6766052Y5873750D01*
X6756908Y5864605D01*
X6743191Y5860034D01*
X6729729Y5860034D01*
X6716013Y5864605D01*
X6711441Y5869178D01*
X6706870Y5878321D01*
D12*
X13753401Y6047077D02*
G01*
X13753401Y5967074D01*
X13642426Y6078062D02*
G01*
X13722423Y6078062D01*
X13642426Y5936096D02*
G01*
X13722423Y5936096D01*
X13584836Y6078644D02*
G01*
X13504837Y6078644D01*
X13473854Y6047661D02*
G01*
X13473854Y5967663D01*
X13584836Y5936683D02*
G01*
X13504837Y5936683D01*
X14413801Y6047077D02*
G01*
X14413801Y5967074D01*
X14302826Y6078062D02*
G01*
X14382823Y6078062D01*
X14302826Y5936096D02*
G01*
X14382823Y5936096D01*
X14245236Y6078644D02*
G01*
X14165237Y6078644D01*
X14134254Y6047661D02*
G01*
X14134254Y5967663D01*
X14245236Y5936683D02*
G01*
X14165237Y5936683D01*
X15556801Y5945477D02*
G01*
X15556801Y5865474D01*
X15445826Y5976462D02*
G01*
X15525823Y5976462D01*
X15445826Y5834496D02*
G01*
X15525823Y5834496D01*
X15388236Y5977044D02*
G01*
X15308237Y5977044D01*
X15277254Y5946061D02*
G01*
X15277254Y5866063D01*
X15388236Y5835083D02*
G01*
X15308237Y5835083D01*
X15455894Y6248394D02*
G01*
X15457076Y6248394D01*
X15671794Y6364254D02*
G01*
X15671794Y6437348D01*
X15468594Y6364254D02*
G01*
X15468594Y6437340D01*
X15455894Y7175494D02*
G01*
X15457076Y7175494D01*
X15671794Y7291354D02*
G01*
X15671794Y7364448D01*
X15468594Y7291354D02*
G01*
X15468594Y7364440D01*
X15392394Y7861294D02*
G01*
X15393576Y7861294D01*
X15608294Y7977154D02*
G01*
X15608294Y8050248D01*
X15405094Y7977154D02*
G01*
X15405094Y8050240D01*
X15455894Y5321294D02*
G01*
X15457076Y5321294D01*
X15671794Y5437154D02*
G01*
X15671794Y5510248D01*
X15468594Y5437154D02*
G01*
X15468594Y5510240D01*
X19399999Y5945477D02*
G01*
X19399999Y5865474D01*
X19289024Y5976462D02*
G01*
X19369021Y5976462D01*
X19289024Y5834496D02*
G01*
X19369021Y5834496D01*
X19231434Y5977044D02*
G01*
X19151434Y5977044D01*
X19120451Y5946061D02*
G01*
X19120451Y5866063D01*
X19231434Y5835083D02*
G01*
X19151434Y5835083D01*
X19299092Y6248394D02*
G01*
X19300273Y6248394D01*
X19514992Y6364254D02*
G01*
X19514992Y6437348D01*
X19311792Y6364254D02*
G01*
X19311792Y6437340D01*
X19299092Y7175494D02*
G01*
X19300273Y7175494D01*
X19514992Y7291354D02*
G01*
X19514992Y7364448D01*
X19311792Y7291354D02*
G01*
X19311792Y7364440D01*
X19235592Y7861294D02*
G01*
X19236773Y7861294D01*
X19451492Y7977154D02*
G01*
X19451492Y8050248D01*
X19248292Y7977154D02*
G01*
X19248292Y8050240D01*
X19299092Y5321294D02*
G01*
X19300273Y5321294D01*
X19514992Y5437154D02*
G01*
X19514992Y5510248D01*
X19311792Y5437154D02*
G01*
X19311792Y5510240D01*
X17868894Y7175494D02*
G01*
X17870076Y7175494D01*
X18084794Y7291354D02*
G01*
X18084794Y7364448D01*
X17881594Y7291354D02*
G01*
X17881594Y7364440D01*
X17868894Y6248394D02*
G01*
X17870076Y6248394D01*
X18084794Y6364254D02*
G01*
X18084794Y6437348D01*
X17881594Y6364254D02*
G01*
X17881594Y6437340D01*
X17868894Y5321294D02*
G01*
X17870076Y5321294D01*
X18084794Y5437154D02*
G01*
X18084794Y5510248D01*
X17881594Y5437154D02*
G01*
X17881594Y5510240D01*
X17969801Y5945477D02*
G01*
X17969801Y5865474D01*
X17858826Y5976462D02*
G01*
X17938823Y5976462D01*
X17858826Y5834496D02*
G01*
X17938823Y5834496D01*
X17801236Y5977044D02*
G01*
X17721237Y5977044D01*
X17690254Y5946061D02*
G01*
X17690254Y5866063D01*
X17801236Y5835083D02*
G01*
X17721237Y5835083D01*
X21702288Y5321294D02*
G01*
X21703469Y5321294D01*
X21918188Y5437154D02*
G01*
X21918188Y5510248D01*
X21714988Y5437154D02*
G01*
X21714988Y5510240D01*
X21702288Y6248394D02*
G01*
X21703469Y6248394D01*
X21918188Y6364254D02*
G01*
X21918188Y6437348D01*
X21714988Y6364254D02*
G01*
X21714988Y6437340D01*
X21702288Y7175494D02*
G01*
X21703469Y7175494D01*
X21918188Y7291354D02*
G01*
X21918188Y7364448D01*
X21714988Y7291354D02*
G01*
X21714988Y7364440D01*
X21803194Y5945477D02*
G01*
X21803194Y5865474D01*
X21692219Y5976462D02*
G01*
X21772217Y5976462D01*
X21692219Y5834496D02*
G01*
X21772217Y5834496D01*
X21634630Y5977044D02*
G01*
X21554630Y5977044D01*
X21523647Y5946061D02*
G01*
X21523647Y5866063D01*
X21634630Y5835083D02*
G01*
X21554630Y5835083D01*
X21155494Y6047077D02*
G01*
X21155494Y5967074D01*
X21044519Y6078062D02*
G01*
X21124517Y6078062D01*
X21044519Y5936096D02*
G01*
X21124517Y5936096D01*
X20986930Y6078644D02*
G01*
X20906930Y6078644D01*
X20875947Y6047661D02*
G01*
X20875947Y5967663D01*
X20986930Y5936683D02*
G01*
X20906930Y5936683D01*
X20507794Y6047077D02*
G01*
X20507794Y5967074D01*
X20396819Y6078062D02*
G01*
X20476817Y6078062D01*
X20396819Y5936096D02*
G01*
X20476817Y5936096D01*
X20339230Y6078644D02*
G01*
X20259230Y6078644D01*
X20228247Y6047661D02*
G01*
X20228247Y5967663D01*
X20339230Y5936683D02*
G01*
X20259230Y5936683D01*
X21054588Y7277094D02*
G01*
X21055769Y7277094D01*
X21270488Y7392954D02*
G01*
X21270488Y7466048D01*
X21067288Y7392954D02*
G01*
X21067288Y7466040D01*
X21054588Y6362694D02*
G01*
X21055769Y6362694D01*
X21270488Y6478554D02*
G01*
X21270488Y6551648D01*
X21067288Y6478554D02*
G01*
X21067288Y6551640D01*
X21054588Y5422894D02*
G01*
X21055769Y5422894D01*
X21270488Y5538754D02*
G01*
X21270488Y5611848D01*
X21067288Y5538754D02*
G01*
X21067288Y5611840D01*
X20406888Y7277094D02*
G01*
X20408069Y7277094D01*
X20622788Y7392954D02*
G01*
X20622788Y7466048D01*
X20419588Y7392954D02*
G01*
X20419588Y7466040D01*
X20406888Y6362694D02*
G01*
X20408069Y6362694D01*
X20622788Y6478554D02*
G01*
X20622788Y6551648D01*
X20419588Y6478554D02*
G01*
X20419588Y6551640D01*
X20406888Y5422894D02*
G01*
X20408069Y5422894D01*
X20622788Y5538754D02*
G01*
X20622788Y5611848D01*
X20419588Y5538754D02*
G01*
X20419588Y5611840D01*
X23142315Y5321294D02*
G01*
X23143497Y5321294D01*
X23358215Y5437154D02*
G01*
X23358215Y5510248D01*
X23155015Y5437154D02*
G01*
X23155015Y5510240D01*
X23078815Y7861294D02*
G01*
X23079997Y7861294D01*
X23294715Y7977154D02*
G01*
X23294715Y8050248D01*
X23091515Y7977154D02*
G01*
X23091515Y8050240D01*
X23142315Y7175494D02*
G01*
X23143497Y7175494D01*
X23358215Y7291354D02*
G01*
X23358215Y7364448D01*
X23155015Y7291354D02*
G01*
X23155015Y7364440D01*
X23142315Y6248394D02*
G01*
X23143497Y6248394D01*
X23358215Y6364254D02*
G01*
X23358215Y6437348D01*
X23155015Y6364254D02*
G01*
X23155015Y6437340D01*
X23243222Y5945477D02*
G01*
X23243222Y5865474D01*
X23132247Y5976462D02*
G01*
X23212244Y5976462D01*
X23132247Y5834496D02*
G01*
X23212244Y5834496D01*
X23074657Y5977044D02*
G01*
X22994658Y5977044D01*
X22963675Y5946061D02*
G01*
X22963675Y5866063D01*
X23074657Y5835083D02*
G01*
X22994658Y5835083D01*
X26985513Y5321294D02*
G01*
X26986694Y5321294D01*
X27201413Y5437154D02*
G01*
X27201413Y5510248D01*
X26998213Y5437154D02*
G01*
X26998213Y5510240D01*
X26922013Y7861294D02*
G01*
X26923194Y7861294D01*
X27137913Y7977154D02*
G01*
X27137913Y8050248D01*
X26934713Y7977154D02*
G01*
X26934713Y8050240D01*
X26985513Y7175494D02*
G01*
X26986694Y7175494D01*
X27201413Y7291354D02*
G01*
X27201413Y7364448D01*
X26998213Y7291354D02*
G01*
X26998213Y7364440D01*
X26985513Y6248394D02*
G01*
X26986694Y6248394D01*
X27201413Y6364254D02*
G01*
X27201413Y6437348D01*
X26998213Y6364254D02*
G01*
X26998213Y6437340D01*
X27086420Y5945477D02*
G01*
X27086420Y5865474D01*
X26975445Y5976462D02*
G01*
X27055442Y5976462D01*
X26975445Y5834496D02*
G01*
X27055442Y5834496D01*
X26917855Y5977044D02*
G01*
X26837855Y5977044D01*
X26806872Y5946061D02*
G01*
X26806872Y5866063D01*
X26917855Y5835083D02*
G01*
X26837855Y5835083D01*
X24648020Y5945477D02*
G01*
X24648020Y5865474D01*
X24537045Y5976462D02*
G01*
X24617042Y5976462D01*
X24537045Y5834496D02*
G01*
X24617042Y5834496D01*
X24479455Y5977044D02*
G01*
X24399455Y5977044D01*
X24368472Y5946061D02*
G01*
X24368472Y5866063D01*
X24479455Y5835083D02*
G01*
X24399455Y5835083D01*
X24547113Y7175494D02*
G01*
X24548294Y7175494D01*
X24763013Y7291354D02*
G01*
X24763013Y7364448D01*
X24559813Y7291354D02*
G01*
X24559813Y7364440D01*
X24547113Y6248394D02*
G01*
X24548294Y6248394D01*
X24763013Y6364254D02*
G01*
X24763013Y6437348D01*
X24559813Y6364254D02*
G01*
X24559813Y6437340D01*
X24547113Y5321294D02*
G01*
X24548294Y5321294D01*
X24763013Y5437154D02*
G01*
X24763013Y5510248D01*
X24559813Y5437154D02*
G01*
X24559813Y5510240D01*
X25842513Y5422894D02*
G01*
X25843694Y5422894D01*
X26058413Y5538754D02*
G01*
X26058413Y5611848D01*
X25855213Y5538754D02*
G01*
X25855213Y5611840D01*
X25842513Y6362694D02*
G01*
X25843694Y6362694D01*
X26058413Y6478554D02*
G01*
X26058413Y6551648D01*
X25855213Y6478554D02*
G01*
X25855213Y6551640D01*
X25842513Y7277094D02*
G01*
X25843694Y7277094D01*
X26058413Y7392954D02*
G01*
X26058413Y7466048D01*
X25855213Y7392954D02*
G01*
X25855213Y7466040D01*
X25182113Y5422894D02*
G01*
X25183294Y5422894D01*
X25398013Y5538754D02*
G01*
X25398013Y5611848D01*
X25194813Y5538754D02*
G01*
X25194813Y5611840D01*
X25182113Y6362694D02*
G01*
X25183294Y6362694D01*
X25398013Y6478554D02*
G01*
X25398013Y6551648D01*
X25194813Y6478554D02*
G01*
X25194813Y6551640D01*
X25182113Y7277094D02*
G01*
X25183294Y7277094D01*
X25398013Y7392954D02*
G01*
X25398013Y7466048D01*
X25194813Y7392954D02*
G01*
X25194813Y7466040D01*
X25943420Y6047077D02*
G01*
X25943420Y5967074D01*
X25832445Y6078062D02*
G01*
X25912442Y6078062D01*
X25832445Y5936096D02*
G01*
X25912442Y5936096D01*
X25774855Y6078644D02*
G01*
X25694855Y6078644D01*
X25663872Y6047661D02*
G01*
X25663872Y5967663D01*
X25774855Y5936683D02*
G01*
X25694855Y5936683D01*
X25283020Y6047077D02*
G01*
X25283020Y5967074D01*
X25172045Y6078062D02*
G01*
X25252042Y6078062D01*
X25172045Y5936096D02*
G01*
X25252042Y5936096D01*
X25114455Y6078644D02*
G01*
X25034455Y6078644D01*
X25003472Y6047661D02*
G01*
X25003472Y5967663D01*
X25114455Y5936683D02*
G01*
X25034455Y5936683D01*
X28520605Y5945477D02*
G01*
X28520605Y5865474D01*
X28409630Y5976462D02*
G01*
X28489628Y5976462D01*
X28409630Y5834496D02*
G01*
X28489628Y5834496D01*
X28352041Y5977044D02*
G01*
X28272041Y5977044D01*
X28241058Y5946061D02*
G01*
X28241058Y5866063D01*
X28352041Y5835083D02*
G01*
X28272041Y5835083D01*
X28419699Y5321294D02*
G01*
X28420880Y5321294D01*
X28635599Y5437154D02*
G01*
X28635599Y5510248D01*
X28432399Y5437154D02*
G01*
X28432399Y5510240D01*
X28419699Y6248394D02*
G01*
X28420880Y6248394D01*
X28635599Y6364254D02*
G01*
X28635599Y6437348D01*
X28432399Y6364254D02*
G01*
X28432399Y6437340D01*
X28419699Y7175494D02*
G01*
X28420880Y7175494D01*
X28635599Y7291354D02*
G01*
X28635599Y7364448D01*
X28432399Y7291354D02*
G01*
X28432399Y7364440D01*
X30828711Y5321294D02*
G01*
X30829892Y5321294D01*
X31044611Y5437154D02*
G01*
X31044611Y5510248D01*
X30841411Y5437154D02*
G01*
X30841411Y5510240D01*
X30765211Y7861294D02*
G01*
X30766392Y7861294D01*
X30981111Y7977154D02*
G01*
X30981111Y8050248D01*
X30777911Y7977154D02*
G01*
X30777911Y8050240D01*
X30828711Y7175494D02*
G01*
X30829892Y7175494D01*
X31044611Y7291354D02*
G01*
X31044611Y7364448D01*
X30841411Y7291354D02*
G01*
X30841411Y7364440D01*
X30828711Y6248394D02*
G01*
X30829892Y6248394D01*
X31044611Y6364254D02*
G01*
X31044611Y6437348D01*
X30841411Y6364254D02*
G01*
X30841411Y6437340D01*
X30929618Y5945477D02*
G01*
X30929618Y5865474D01*
X30818642Y5976462D02*
G01*
X30898640Y5976462D01*
X30818642Y5834496D02*
G01*
X30898640Y5834496D01*
X30761053Y5977044D02*
G01*
X30681053Y5977044D01*
X30650070Y5946061D02*
G01*
X30650070Y5866063D01*
X30761053Y5835083D02*
G01*
X30681053Y5835083D01*
X31936507Y5422894D02*
G01*
X31937688Y5422894D01*
X32152407Y5538754D02*
G01*
X32152407Y5611848D01*
X31949207Y5538754D02*
G01*
X31949207Y5611840D01*
X31936507Y6362694D02*
G01*
X31937688Y6362694D01*
X32152407Y6478554D02*
G01*
X32152407Y6551648D01*
X31949207Y6478554D02*
G01*
X31949207Y6551640D01*
X31936507Y7277094D02*
G01*
X31937688Y7277094D01*
X32152407Y7392954D02*
G01*
X32152407Y7466048D01*
X31949207Y7392954D02*
G01*
X31949207Y7466040D01*
X32584207Y5422894D02*
G01*
X32585388Y5422894D01*
X32800107Y5538754D02*
G01*
X32800107Y5611848D01*
X32596907Y5538754D02*
G01*
X32596907Y5611840D01*
X32584207Y6362694D02*
G01*
X32585388Y6362694D01*
X32800107Y6478554D02*
G01*
X32800107Y6551648D01*
X32596907Y6478554D02*
G01*
X32596907Y6551640D01*
X32584207Y7277094D02*
G01*
X32585388Y7277094D01*
X32800107Y7392954D02*
G01*
X32800107Y7466048D01*
X32596907Y7392954D02*
G01*
X32596907Y7466040D01*
X32037413Y6047077D02*
G01*
X32037413Y5967074D01*
X31926438Y6078062D02*
G01*
X32006435Y6078062D01*
X31926438Y5936096D02*
G01*
X32006435Y5936096D01*
X31868849Y6078644D02*
G01*
X31788849Y6078644D01*
X31757866Y6047661D02*
G01*
X31757866Y5967663D01*
X31868849Y5936683D02*
G01*
X31788849Y5936683D01*
X32685113Y6047077D02*
G01*
X32685113Y5967074D01*
X32574138Y6078062D02*
G01*
X32654135Y6078062D01*
X32574138Y5936096D02*
G01*
X32654135Y5936096D01*
X32516549Y6078644D02*
G01*
X32436549Y6078644D01*
X32405566Y6047661D02*
G01*
X32405566Y5967663D01*
X32516549Y5936683D02*
G01*
X32436549Y5936683D01*
X33332813Y5945477D02*
G01*
X33332813Y5865474D01*
X33221838Y5976462D02*
G01*
X33301835Y5976462D01*
X33221838Y5834496D02*
G01*
X33301835Y5834496D01*
X33164249Y5977044D02*
G01*
X33084249Y5977044D01*
X33053266Y5946061D02*
G01*
X33053266Y5866063D01*
X33164249Y5835083D02*
G01*
X33084249Y5835083D01*
X33231907Y7175494D02*
G01*
X33233088Y7175494D01*
X33447807Y7291354D02*
G01*
X33447807Y7364448D01*
X33244607Y7291354D02*
G01*
X33244607Y7364440D01*
X33231907Y6248394D02*
G01*
X33233088Y6248394D01*
X33447807Y6364254D02*
G01*
X33447807Y6437348D01*
X33244607Y6364254D02*
G01*
X33244607Y6437340D01*
X33231907Y5321294D02*
G01*
X33233088Y5321294D01*
X33447807Y5437154D02*
G01*
X33447807Y5510248D01*
X33244607Y5437154D02*
G01*
X33244607Y5510240D01*
X34772815Y5945477D02*
G01*
X34772815Y5865474D01*
X34661840Y5976462D02*
G01*
X34741838Y5976462D01*
X34661840Y5834496D02*
G01*
X34741838Y5834496D01*
X34604251Y5977044D02*
G01*
X34524251Y5977044D01*
X34493268Y5946061D02*
G01*
X34493268Y5866063D01*
X34604251Y5835083D02*
G01*
X34524251Y5835083D01*
X34671909Y6248394D02*
G01*
X34673090Y6248394D01*
X34887809Y6364254D02*
G01*
X34887809Y6437348D01*
X34684609Y6364254D02*
G01*
X34684609Y6437340D01*
X34671909Y7175494D02*
G01*
X34673090Y7175494D01*
X34887809Y7291354D02*
G01*
X34887809Y7364448D01*
X34684609Y7291354D02*
G01*
X34684609Y7364440D01*
X34608409Y7861294D02*
G01*
X34609590Y7861294D01*
X34824309Y7977154D02*
G01*
X34824309Y8050248D01*
X34621109Y7977154D02*
G01*
X34621109Y8050240D01*
X34671909Y5321294D02*
G01*
X34673090Y5321294D01*
X34887809Y5437154D02*
G01*
X34887809Y5510248D01*
X34684609Y5437154D02*
G01*
X34684609Y5510240D01*
X36076707Y5321294D02*
G01*
X36077888Y5321294D01*
X36292607Y5437154D02*
G01*
X36292607Y5510248D01*
X36089407Y5437154D02*
G01*
X36089407Y5510240D01*
X36076707Y6248394D02*
G01*
X36077888Y6248394D01*
X36292607Y6364254D02*
G01*
X36292607Y6437348D01*
X36089407Y6364254D02*
G01*
X36089407Y6437340D01*
X36076707Y7175494D02*
G01*
X36077888Y7175494D01*
X36292607Y7291354D02*
G01*
X36292607Y7364448D01*
X36089407Y7291354D02*
G01*
X36089407Y7364440D01*
X36177613Y5945477D02*
G01*
X36177613Y5865474D01*
X36066638Y5976462D02*
G01*
X36146635Y5976462D01*
X36066638Y5834496D02*
G01*
X36146635Y5834496D01*
X36009049Y5977044D02*
G01*
X35929049Y5977044D01*
X35898066Y5946061D02*
G01*
X35898066Y5866063D01*
X36009049Y5835083D02*
G01*
X35929049Y5835083D01*
X36812613Y6047077D02*
G01*
X36812613Y5967074D01*
X36701638Y6078062D02*
G01*
X36781635Y6078062D01*
X36701638Y5936096D02*
G01*
X36781635Y5936096D01*
X36644049Y6078644D02*
G01*
X36564049Y6078644D01*
X36533066Y6047661D02*
G01*
X36533066Y5967663D01*
X36644049Y5936683D02*
G01*
X36564049Y5936683D01*
X37473013Y6047077D02*
G01*
X37473013Y5967074D01*
X37362038Y6078062D02*
G01*
X37442035Y6078062D01*
X37362038Y5936096D02*
G01*
X37442035Y5936096D01*
X37304449Y6078644D02*
G01*
X37224449Y6078644D01*
X37193466Y6047661D02*
G01*
X37193466Y5967663D01*
X37304449Y5936683D02*
G01*
X37224449Y5936683D01*
X36711707Y7277094D02*
G01*
X36712888Y7277094D01*
X36927607Y7392954D02*
G01*
X36927607Y7466048D01*
X36724407Y7392954D02*
G01*
X36724407Y7466040D01*
X36711707Y6362694D02*
G01*
X36712888Y6362694D01*
X36927607Y6478554D02*
G01*
X36927607Y6551648D01*
X36724407Y6478554D02*
G01*
X36724407Y6551640D01*
X36711707Y5422894D02*
G01*
X36712888Y5422894D01*
X36927607Y5538754D02*
G01*
X36927607Y5611848D01*
X36724407Y5538754D02*
G01*
X36724407Y5611840D01*
X37372107Y7277094D02*
G01*
X37373288Y7277094D01*
X37588007Y7392954D02*
G01*
X37588007Y7466048D01*
X37384807Y7392954D02*
G01*
X37384807Y7466040D01*
X37372107Y6362694D02*
G01*
X37373288Y6362694D01*
X37588007Y6478554D02*
G01*
X37588007Y6551648D01*
X37384807Y6478554D02*
G01*
X37384807Y6551640D01*
X37372107Y5422894D02*
G01*
X37373288Y5422894D01*
X37588007Y5538754D02*
G01*
X37588007Y5611848D01*
X37384807Y5538754D02*
G01*
X37384807Y5611840D01*
X38515107Y5321294D02*
G01*
X38516288Y5321294D01*
X38731007Y5437154D02*
G01*
X38731007Y5510248D01*
X38527807Y5437154D02*
G01*
X38527807Y5510240D01*
X38451607Y7861294D02*
G01*
X38452788Y7861294D01*
X38667507Y7977154D02*
G01*
X38667507Y8050248D01*
X38464307Y7977154D02*
G01*
X38464307Y8050240D01*
X38515107Y7175494D02*
G01*
X38516288Y7175494D01*
X38731007Y7291354D02*
G01*
X38731007Y7364448D01*
X38527807Y7291354D02*
G01*
X38527807Y7364440D01*
X38515107Y6248394D02*
G01*
X38516288Y6248394D01*
X38731007Y6364254D02*
G01*
X38731007Y6437348D01*
X38527807Y6364254D02*
G01*
X38527807Y6437340D01*
X38616013Y5945477D02*
G01*
X38616013Y5865474D01*
X38505038Y5976462D02*
G01*
X38585035Y5976462D01*
X38505038Y5834496D02*
G01*
X38585035Y5834496D01*
X38447449Y5977044D02*
G01*
X38367449Y5977044D01*
X38336466Y5946061D02*
G01*
X38336466Y5866063D01*
X38447449Y5835083D02*
G01*
X38367449Y5835083D01*
X40050199Y5945477D02*
G01*
X40050199Y5865474D01*
X39939224Y5976462D02*
G01*
X40019221Y5976462D01*
X39939224Y5834496D02*
G01*
X40019221Y5834496D01*
X39881634Y5977044D02*
G01*
X39801634Y5977044D01*
X39770651Y5946061D02*
G01*
X39770651Y5866063D01*
X39881634Y5835083D02*
G01*
X39801634Y5835083D01*
X39949292Y5321294D02*
G01*
X39950473Y5321294D01*
X40165192Y5437154D02*
G01*
X40165192Y5510248D01*
X39961992Y5437154D02*
G01*
X39961992Y5510240D01*
X39949292Y6248394D02*
G01*
X39950473Y6248394D01*
X40165192Y6364254D02*
G01*
X40165192Y6437348D01*
X39961992Y6364254D02*
G01*
X39961992Y6437340D01*
X39949292Y7175494D02*
G01*
X39950473Y7175494D01*
X40165192Y7291354D02*
G01*
X40165192Y7364448D01*
X39961992Y7291354D02*
G01*
X39961992Y7364440D01*
X43486598Y4889494D02*
G01*
X43487779Y4889494D01*
X43702498Y5005354D02*
G01*
X43702498Y5078448D01*
X43499298Y5005354D02*
G01*
X43499298Y5078440D01*
X42534098Y4889494D02*
G01*
X42535279Y4889494D01*
X42749998Y5005354D02*
G01*
X42749998Y5078448D01*
X42546798Y5005354D02*
G01*
X42546798Y5078440D01*
X41822204Y5488277D02*
G01*
X41822204Y5408274D01*
X41711229Y5519262D02*
G01*
X41791227Y5519262D01*
X41711229Y5377296D02*
G01*
X41791227Y5377296D01*
X41653640Y5519844D02*
G01*
X41573640Y5519844D01*
X41542657Y5488861D02*
G01*
X41542657Y5408863D01*
X41653640Y5377883D02*
G01*
X41573640Y5377883D01*
X41568898Y4889494D02*
G01*
X41570079Y4889494D01*
X41784798Y5005354D02*
G01*
X41784798Y5078448D01*
X41581598Y5005354D02*
G01*
X41581598Y5078440D01*
X41822204Y7774277D02*
G01*
X41822204Y7694274D01*
X41711229Y7805262D02*
G01*
X41791227Y7805262D01*
X41711229Y7663296D02*
G01*
X41791227Y7663296D01*
X41653640Y7805844D02*
G01*
X41573640Y7805844D01*
X41542657Y7774861D02*
G01*
X41542657Y7694863D01*
X41653640Y7663883D02*
G01*
X41573640Y7663883D01*
X43486598Y7175494D02*
G01*
X43487779Y7175494D01*
X43702498Y7291354D02*
G01*
X43702498Y7364448D01*
X43499298Y7291354D02*
G01*
X43499298Y7364440D01*
X42534098Y7175494D02*
G01*
X42535279Y7175494D01*
X42749998Y7291354D02*
G01*
X42749998Y7364448D01*
X42546798Y7291354D02*
G01*
X42546798Y7364440D01*
X41568898Y7175494D02*
G01*
X41570079Y7175494D01*
X41784798Y7291354D02*
G01*
X41784798Y7364448D01*
X41581598Y7291354D02*
G01*
X41581598Y7364440D01*
X13017494Y5321294D02*
G01*
X13018676Y5321294D01*
X13233394Y5437154D02*
G01*
X13233394Y5510248D01*
X13030194Y5437154D02*
G01*
X13030194Y5510240D01*
X13017494Y6248394D02*
G01*
X13018676Y6248394D01*
X13233394Y6364254D02*
G01*
X13233394Y6437348D01*
X13030194Y6364254D02*
G01*
X13030194Y6437340D01*
X13017494Y7175494D02*
G01*
X13018676Y7175494D01*
X13233394Y7291354D02*
G01*
X13233394Y7364448D01*
X13030194Y7291354D02*
G01*
X13030194Y7364440D01*
X13118401Y5945477D02*
G01*
X13118401Y5865474D01*
X13007426Y5976462D02*
G01*
X13087423Y5976462D01*
X13007426Y5834496D02*
G01*
X13087423Y5834496D01*
X12949836Y5977044D02*
G01*
X12869837Y5977044D01*
X12838854Y5946061D02*
G01*
X12838854Y5866063D01*
X12949836Y5835083D02*
G01*
X12869837Y5835083D01*
X13652494Y7277094D02*
G01*
X13653676Y7277094D01*
X13868394Y7392954D02*
G01*
X13868394Y7466048D01*
X13665194Y7392954D02*
G01*
X13665194Y7466040D01*
X13652494Y6362694D02*
G01*
X13653676Y6362694D01*
X13868394Y6478554D02*
G01*
X13868394Y6551648D01*
X13665194Y6478554D02*
G01*
X13665194Y6551640D01*
X13652494Y5422894D02*
G01*
X13653676Y5422894D01*
X13868394Y5538754D02*
G01*
X13868394Y5611848D01*
X13665194Y5538754D02*
G01*
X13665194Y5611840D01*
X14312894Y7277094D02*
G01*
X14314076Y7277094D01*
X14528794Y7392954D02*
G01*
X14528794Y7466048D01*
X14325594Y7392954D02*
G01*
X14325594Y7466040D01*
X14312894Y6362694D02*
G01*
X14314076Y6362694D01*
X14528794Y6478554D02*
G01*
X14528794Y6551648D01*
X14325594Y6478554D02*
G01*
X14325594Y6551640D01*
X14312894Y5422894D02*
G01*
X14314076Y5422894D01*
X14528794Y5538754D02*
G01*
X14528794Y5611848D01*
X14325594Y5538754D02*
G01*
X14325594Y5611840D01*
X11607794Y5321294D02*
G01*
X11608976Y5321294D01*
X11823694Y5437154D02*
G01*
X11823694Y5510248D01*
X11620494Y5437154D02*
G01*
X11620494Y5510240D01*
X11544294Y7861294D02*
G01*
X11545476Y7861294D01*
X11760194Y7977154D02*
G01*
X11760194Y8050248D01*
X11556994Y7977154D02*
G01*
X11556994Y8050240D01*
X11607794Y7175494D02*
G01*
X11608976Y7175494D01*
X11823694Y7291354D02*
G01*
X11823694Y7364448D01*
X11620494Y7291354D02*
G01*
X11620494Y7364440D01*
X11607794Y6248394D02*
G01*
X11608976Y6248394D01*
X11823694Y6364254D02*
G01*
X11823694Y6437348D01*
X11620494Y6364254D02*
G01*
X11620494Y6437340D01*
X11708701Y5945477D02*
G01*
X11708701Y5865474D01*
X11597726Y5976462D02*
G01*
X11677723Y5976462D01*
X11597726Y5834496D02*
G01*
X11677723Y5834496D01*
X11540136Y5977044D02*
G01*
X11460137Y5977044D01*
X11429154Y5946061D02*
G01*
X11429154Y5866063D01*
X11540136Y5835083D02*
G01*
X11460137Y5835083D01*
X8877294Y5422894D02*
G01*
X8878476Y5422894D01*
X9093194Y5538754D02*
G01*
X9093194Y5611848D01*
X8889994Y5538754D02*
G01*
X8889994Y5611840D01*
X8877294Y6362694D02*
G01*
X8878476Y6362694D01*
X9093194Y6478554D02*
G01*
X9093194Y6551648D01*
X8889994Y6478554D02*
G01*
X8889994Y6551640D01*
X8877294Y7277094D02*
G01*
X8878476Y7277094D01*
X9093194Y7392954D02*
G01*
X9093194Y7466048D01*
X8889994Y7392954D02*
G01*
X8889994Y7466040D01*
X9524994Y5422894D02*
G01*
X9526176Y5422894D01*
X9740894Y5538754D02*
G01*
X9740894Y5611848D01*
X9537694Y5538754D02*
G01*
X9537694Y5611840D01*
X9524994Y6362694D02*
G01*
X9526176Y6362694D01*
X9740894Y6478554D02*
G01*
X9740894Y6551648D01*
X9537694Y6478554D02*
G01*
X9537694Y6551640D01*
X9524994Y7277094D02*
G01*
X9526176Y7277094D01*
X9740894Y7392954D02*
G01*
X9740894Y7466048D01*
X9537694Y7392954D02*
G01*
X9537694Y7466040D01*
X8978201Y6047077D02*
G01*
X8978201Y5967074D01*
X8867226Y6078062D02*
G01*
X8947223Y6078062D01*
X8867226Y5936096D02*
G01*
X8947223Y5936096D01*
X8809636Y6078644D02*
G01*
X8729637Y6078644D01*
X8698654Y6047661D02*
G01*
X8698654Y5967663D01*
X8809636Y5936683D02*
G01*
X8729637Y5936683D01*
X9625901Y6047077D02*
G01*
X9625901Y5967074D01*
X9514926Y6078062D02*
G01*
X9594923Y6078062D01*
X9514926Y5936096D02*
G01*
X9594923Y5936096D01*
X9457336Y6078644D02*
G01*
X9377337Y6078644D01*
X9346354Y6047661D02*
G01*
X9346354Y5967663D01*
X9457336Y5936683D02*
G01*
X9377337Y5936683D01*
X7860601Y5945477D02*
G01*
X7860601Y5865474D01*
X7749626Y5976462D02*
G01*
X7829623Y5976462D01*
X7749626Y5834496D02*
G01*
X7829623Y5834496D01*
X7692036Y5977044D02*
G01*
X7612037Y5977044D01*
X7581054Y5946061D02*
G01*
X7581054Y5866063D01*
X7692036Y5835083D02*
G01*
X7612037Y5835083D01*
X7759694Y6248394D02*
G01*
X7760876Y6248394D01*
X7975594Y6364254D02*
G01*
X7975594Y6437348D01*
X7772394Y6364254D02*
G01*
X7772394Y6437340D01*
X7759694Y7175494D02*
G01*
X7760876Y7175494D01*
X7975594Y7291354D02*
G01*
X7975594Y7364448D01*
X7772394Y7291354D02*
G01*
X7772394Y7364440D01*
X7696194Y7861294D02*
G01*
X7697376Y7861294D01*
X7912094Y7977154D02*
G01*
X7912094Y8050248D01*
X7708894Y7977154D02*
G01*
X7708894Y8050240D01*
X10273601Y5945477D02*
G01*
X10273601Y5865474D01*
X10162626Y5976462D02*
G01*
X10242623Y5976462D01*
X10162626Y5834496D02*
G01*
X10242623Y5834496D01*
X10105036Y5977044D02*
G01*
X10025037Y5977044D01*
X9994054Y5946061D02*
G01*
X9994054Y5866063D01*
X10105036Y5835083D02*
G01*
X10025037Y5835083D01*
X10172694Y7175494D02*
G01*
X10173876Y7175494D01*
X10388594Y7291354D02*
G01*
X10388594Y7364448D01*
X10185394Y7291354D02*
G01*
X10185394Y7364440D01*
X10172694Y6248394D02*
G01*
X10173876Y6248394D01*
X10388594Y6364254D02*
G01*
X10388594Y6437348D01*
X10185394Y6364254D02*
G01*
X10185394Y6437340D01*
X10172694Y5321294D02*
G01*
X10173876Y5321294D01*
X10388594Y5437154D02*
G01*
X10388594Y5510248D01*
X10185394Y5437154D02*
G01*
X10185394Y5510240D01*
X7759694Y5321294D02*
G01*
X7760876Y5321294D01*
X7975594Y5437154D02*
G01*
X7975594Y5510248D01*
X7772394Y5437154D02*
G01*
X7772394Y5510240D01*
X6362694Y5321294D02*
G01*
X6363876Y5321294D01*
X6578594Y5437154D02*
G01*
X6578594Y5510248D01*
X6375394Y5437154D02*
G01*
X6375394Y5510240D01*
X6362694Y6248394D02*
G01*
X6363876Y6248394D01*
X6578594Y6364254D02*
G01*
X6578594Y6437348D01*
X6375394Y6364254D02*
G01*
X6375394Y6437340D01*
X6362694Y7175494D02*
G01*
X6363876Y7175494D01*
X6578594Y7291354D02*
G01*
X6578594Y7364448D01*
X6375394Y7291354D02*
G01*
X6375394Y7364440D01*
X3136894Y7175494D02*
G01*
X3138076Y7175494D01*
X3352794Y7291354D02*
G01*
X3352794Y7364448D01*
X3149594Y7291354D02*
G01*
X3149594Y7364440D01*
X4102094Y7175494D02*
G01*
X4103276Y7175494D01*
X4317994Y7291354D02*
G01*
X4317994Y7364448D01*
X4114794Y7291354D02*
G01*
X4114794Y7364440D01*
X5054594Y7175494D02*
G01*
X5055776Y7175494D01*
X5270494Y7291354D02*
G01*
X5270494Y7364448D01*
X5067294Y7291354D02*
G01*
X5067294Y7364440D01*
X3136894Y4889494D02*
G01*
X3138076Y4889494D01*
X3352794Y5005354D02*
G01*
X3352794Y5078448D01*
X3149594Y5005354D02*
G01*
X3149594Y5078440D01*
X3390201Y5488277D02*
G01*
X3390201Y5408274D01*
X3279226Y5519262D02*
G01*
X3359223Y5519262D01*
X3279226Y5377296D02*
G01*
X3359223Y5377296D01*
X3221636Y5519844D02*
G01*
X3141637Y5519844D01*
X3110654Y5488861D02*
G01*
X3110654Y5408863D01*
X3221636Y5377883D02*
G01*
X3141637Y5377883D01*
X4102094Y4889494D02*
G01*
X4103276Y4889494D01*
X4317994Y5005354D02*
G01*
X4317994Y5078448D01*
X4114794Y5005354D02*
G01*
X4114794Y5078440D01*
X5054594Y4889494D02*
G01*
X5055776Y4889494D01*
X5270494Y5005354D02*
G01*
X5270494Y5078448D01*
X5067294Y5005354D02*
G01*
X5067294Y5078440D01*
X3390201Y7774277D02*
G01*
X3390201Y7694274D01*
X3279226Y7805262D02*
G01*
X3359223Y7805262D01*
X3279226Y7663296D02*
G01*
X3359223Y7663296D01*
X3221636Y7805844D02*
G01*
X3141637Y7805844D01*
X3110654Y7774861D02*
G01*
X3110654Y7694863D01*
X3221636Y7663883D02*
G01*
X3141637Y7663883D01*
X6463601Y5945477D02*
G01*
X6463601Y5865474D01*
X6352626Y5976462D02*
G01*
X6432623Y5976462D01*
X6352626Y5834496D02*
G01*
X6432623Y5834496D01*
X6295036Y5977044D02*
G01*
X6215037Y5977044D01*
X6184054Y5946061D02*
G01*
X6184054Y5866063D01*
X6295036Y5835083D02*
G01*
X6215037Y5835083D01*
G75*
G01*
X13473849Y6047661D02*
G02*
X13504832Y6078644I30983J0D01*
G75*
G01*
X13504832Y5936678D02*
G02*
X13473849Y5967664I0J30983D01*
G75*
G01*
X13722419Y6078063D02*
G02*
X13753401Y6047077I0J-30983D01*
G75*
G01*
X13753401Y5967080D02*
G02*
X13722419Y5936097I-30982J0D01*
G75*
G01*
X14134249Y6047661D02*
G02*
X14165232Y6078644I30983J0D01*
G75*
G01*
X14165232Y5936678D02*
G02*
X14134249Y5967664I0J30983D01*
G75*
G01*
X14382819Y6078063D02*
G02*
X14413801Y6047077I0J-30983D01*
G75*
G01*
X14413801Y5967080D02*
G02*
X14382819Y5936097I-30982J0D01*
G75*
G01*
X15277249Y5946061D02*
G02*
X15308232Y5977044I30983J0D01*
G75*
G01*
X15308232Y5835078D02*
G02*
X15277249Y5866064I0J30983D01*
G75*
G01*
X15525819Y5976463D02*
G02*
X15556801Y5945477I0J-30983D01*
G75*
G01*
X15556801Y5865480D02*
G02*
X15525819Y5834497I-30982J0D01*
G75*
G01*
X19120447Y5946061D02*
G02*
X19151430Y5977044I30983J0D01*
G75*
G01*
X19151430Y5835078D02*
G02*
X19120447Y5866064I0J30983D01*
G75*
G01*
X19369016Y5976463D02*
G02*
X19399999Y5945477I0J-30983D01*
G75*
G01*
X19399999Y5865480D02*
G02*
X19369016Y5834497I-30983J0D01*
G75*
G01*
X17690249Y5946061D02*
G02*
X17721232Y5977044I30983J0D01*
G75*
G01*
X17721232Y5835078D02*
G02*
X17690249Y5866064I0J30983D01*
G75*
G01*
X17938819Y5976463D02*
G02*
X17969801Y5945477I0J-30983D01*
G75*
G01*
X17969801Y5865480D02*
G02*
X17938819Y5834497I-30982J0D01*
G75*
G01*
X21523642Y5946061D02*
G02*
X21554625Y5977044I30983J0D01*
G75*
G01*
X21554625Y5835078D02*
G02*
X21523642Y5866064I0J30983D01*
G75*
G01*
X21772212Y5976463D02*
G02*
X21803195Y5945477I0J-30983D01*
G75*
G01*
X21803195Y5865480D02*
G02*
X21772212Y5834497I-30983J0D01*
G75*
G01*
X20875942Y6047661D02*
G02*
X20906925Y6078644I30983J0D01*
G75*
G01*
X20906925Y5936678D02*
G02*
X20875942Y5967664I0J30983D01*
G75*
G01*
X21124512Y6078063D02*
G02*
X21155495Y6047077I0J-30983D01*
G75*
G01*
X21155495Y5967080D02*
G02*
X21124512Y5936097I-30983J0D01*
G75*
G01*
X20228242Y6047661D02*
G02*
X20259225Y6078644I30983J0D01*
G75*
G01*
X20259225Y5936678D02*
G02*
X20228242Y5967664I0J30983D01*
G75*
G01*
X20476812Y6078063D02*
G02*
X20507795Y6047077I0J-30983D01*
G75*
G01*
X20507795Y5967080D02*
G02*
X20476812Y5936097I-30983J0D01*
G75*
G01*
X22963670Y5946061D02*
G02*
X22994653Y5977044I30983J0D01*
G75*
G01*
X22994653Y5835078D02*
G02*
X22963670Y5866064I0J30983D01*
G75*
G01*
X23212240Y5976463D02*
G02*
X23243222Y5945477I0J-30983D01*
G75*
G01*
X23243222Y5865480D02*
G02*
X23212240Y5834497I-30982J0D01*
G75*
G01*
X26806868Y5946061D02*
G02*
X26837851Y5977044I30983J0D01*
G75*
G01*
X26837851Y5835078D02*
G02*
X26806868Y5866064I0J30983D01*
G75*
G01*
X27055437Y5976463D02*
G02*
X27086420Y5945477I0J-30983D01*
G75*
G01*
X27086420Y5865480D02*
G02*
X27055437Y5834497I-30983J0D01*
G75*
G01*
X24368468Y5946061D02*
G02*
X24399451Y5977044I30983J0D01*
G75*
G01*
X24399451Y5835078D02*
G02*
X24368468Y5866064I0J30983D01*
G75*
G01*
X24617037Y5976463D02*
G02*
X24648020Y5945477I0J-30983D01*
G75*
G01*
X24648020Y5865480D02*
G02*
X24617037Y5834497I-30983J0D01*
G75*
G01*
X25663868Y6047661D02*
G02*
X25694851Y6078644I30983J0D01*
G75*
G01*
X25694851Y5936678D02*
G02*
X25663868Y5967664I0J30983D01*
G75*
G01*
X25912437Y6078063D02*
G02*
X25943420Y6047077I0J-30983D01*
G75*
G01*
X25943420Y5967080D02*
G02*
X25912437Y5936097I-30983J0D01*
G75*
G01*
X25003468Y6047661D02*
G02*
X25034451Y6078644I30983J0D01*
G75*
G01*
X25034451Y5936678D02*
G02*
X25003468Y5967664I0J30983D01*
G75*
G01*
X25252037Y6078063D02*
G02*
X25283020Y6047077I0J-30983D01*
G75*
G01*
X25283020Y5967080D02*
G02*
X25252037Y5936097I-30983J0D01*
G75*
G01*
X28241053Y5946061D02*
G02*
X28272036Y5977044I30983J0D01*
G75*
G01*
X28272036Y5835078D02*
G02*
X28241053Y5866064I0J30983D01*
G75*
G01*
X28489623Y5976463D02*
G02*
X28520606Y5945477I0J-30983D01*
G75*
G01*
X28520606Y5865480D02*
G02*
X28489623Y5834497I-30983J0D01*
G75*
G01*
X30650066Y5946061D02*
G02*
X30681049Y5977044I30983J0D01*
G75*
G01*
X30681049Y5835078D02*
G02*
X30650066Y5866064I0J30983D01*
G75*
G01*
X30898635Y5976463D02*
G02*
X30929618Y5945477I0J-30983D01*
G75*
G01*
X30929618Y5865480D02*
G02*
X30898635Y5834497I-30983J0D01*
G75*
G01*
X31757861Y6047661D02*
G02*
X31788844Y6078644I30983J0D01*
G75*
G01*
X31788844Y5936678D02*
G02*
X31757861Y5967664I0J30983D01*
G75*
G01*
X32006431Y6078063D02*
G02*
X32037414Y6047077I0J-30983D01*
G75*
G01*
X32037414Y5967080D02*
G02*
X32006431Y5936097I-30983J0D01*
G75*
G01*
X32405561Y6047661D02*
G02*
X32436544Y6078644I30983J0D01*
G75*
G01*
X32436544Y5936678D02*
G02*
X32405561Y5967664I0J30983D01*
G75*
G01*
X32654131Y6078063D02*
G02*
X32685114Y6047077I0J-30983D01*
G75*
G01*
X32685114Y5967080D02*
G02*
X32654131Y5936097I-30983J0D01*
G75*
G01*
X33053261Y5946061D02*
G02*
X33084244Y5977044I30983J0D01*
G75*
G01*
X33084244Y5835078D02*
G02*
X33053261Y5866064I0J30983D01*
G75*
G01*
X33301831Y5976463D02*
G02*
X33332814Y5945477I0J-30983D01*
G75*
G01*
X33332814Y5865480D02*
G02*
X33301831Y5834497I-30983J0D01*
G75*
G01*
X34493263Y5946061D02*
G02*
X34524246Y5977044I30983J0D01*
G75*
G01*
X34524246Y5835078D02*
G02*
X34493263Y5866064I0J30983D01*
G75*
G01*
X34741833Y5976463D02*
G02*
X34772816Y5945477I0J-30983D01*
G75*
G01*
X34772816Y5865480D02*
G02*
X34741833Y5834497I-30983J0D01*
G75*
G01*
X35898061Y5946061D02*
G02*
X35929044Y5977044I30983J0D01*
G75*
G01*
X35929044Y5835078D02*
G02*
X35898061Y5866064I0J30983D01*
G75*
G01*
X36146631Y5976463D02*
G02*
X36177614Y5945477I0J-30983D01*
G75*
G01*
X36177614Y5865480D02*
G02*
X36146631Y5834497I-30983J0D01*
G75*
G01*
X36533061Y6047661D02*
G02*
X36564044Y6078644I30983J0D01*
G75*
G01*
X36564044Y5936678D02*
G02*
X36533061Y5967664I0J30983D01*
G75*
G01*
X36781631Y6078063D02*
G02*
X36812614Y6047077I0J-30983D01*
G75*
G01*
X36812614Y5967080D02*
G02*
X36781631Y5936097I-30983J0D01*
G75*
G01*
X37193461Y6047661D02*
G02*
X37224444Y6078644I30983J0D01*
G75*
G01*
X37224444Y5936678D02*
G02*
X37193461Y5967664I0J30983D01*
G75*
G01*
X37442031Y6078063D02*
G02*
X37473014Y6047077I0J-30983D01*
G75*
G01*
X37473014Y5967080D02*
G02*
X37442031Y5936097I-30983J0D01*
G75*
G01*
X38336461Y5946061D02*
G02*
X38367444Y5977044I30983J0D01*
G75*
G01*
X38367444Y5835078D02*
G02*
X38336461Y5866064I0J30983D01*
G75*
G01*
X38585031Y5976463D02*
G02*
X38616014Y5945477I0J-30983D01*
G75*
G01*
X38616014Y5865480D02*
G02*
X38585031Y5834497I-30983J0D01*
G75*
G01*
X39770647Y5946061D02*
G02*
X39801630Y5977044I30983J0D01*
G75*
G01*
X39801630Y5835078D02*
G02*
X39770647Y5866064I0J30983D01*
G75*
G01*
X40019216Y5976463D02*
G02*
X40050199Y5945477I0J-30983D01*
G75*
G01*
X40050199Y5865480D02*
G02*
X40019216Y5834497I-30983J0D01*
G75*
G01*
X41542653Y5488861D02*
G02*
X41573635Y5519844I30982J0D01*
G75*
G01*
X41573635Y5377878D02*
G02*
X41542653Y5408864I0J30983D01*
G75*
G01*
X41791222Y5519263D02*
G02*
X41822205Y5488277I0J-30983D01*
G75*
G01*
X41822205Y5408280D02*
G02*
X41791222Y5377297I-30983J0D01*
G75*
G01*
X41542653Y7774861D02*
G02*
X41573635Y7805844I30982J0D01*
G75*
G01*
X41573635Y7663878D02*
G02*
X41542653Y7694864I0J30983D01*
G75*
G01*
X41791222Y7805263D02*
G02*
X41822205Y7774277I0J-30983D01*
G75*
G01*
X41822205Y7694280D02*
G02*
X41791222Y7663297I-30983J0D01*
G75*
G01*
X12838849Y5946061D02*
G02*
X12869832Y5977044I30983J0D01*
G75*
G01*
X12869832Y5835078D02*
G02*
X12838849Y5866064I0J30983D01*
G75*
G01*
X13087419Y5976463D02*
G02*
X13118401Y5945477I0J-30983D01*
G75*
G01*
X13118401Y5865480D02*
G02*
X13087419Y5834497I-30982J0D01*
G75*
G01*
X11429149Y5946061D02*
G02*
X11460132Y5977044I30983J0D01*
G75*
G01*
X11460132Y5835078D02*
G02*
X11429149Y5866064I0J30983D01*
G75*
G01*
X11677719Y5976463D02*
G02*
X11708701Y5945477I0J-30983D01*
G75*
G01*
X11708701Y5865480D02*
G02*
X11677719Y5834497I-30982J0D01*
G75*
G01*
X8698649Y6047661D02*
G02*
X8729632Y6078644I30983J0D01*
G75*
G01*
X8729632Y5936678D02*
G02*
X8698649Y5967664I0J30983D01*
G75*
G01*
X8947219Y6078063D02*
G02*
X8978201Y6047077I0J-30983D01*
G75*
G01*
X8978201Y5967080D02*
G02*
X8947219Y5936097I-30982J0D01*
G75*
G01*
X9346349Y6047661D02*
G02*
X9377332Y6078644I30983J0D01*
G75*
G01*
X9377332Y5936678D02*
G02*
X9346349Y5967664I0J30983D01*
G75*
G01*
X9594919Y6078063D02*
G02*
X9625901Y6047077I0J-30983D01*
G75*
G01*
X9625901Y5967080D02*
G02*
X9594919Y5936097I-30982J0D01*
G75*
G01*
X7581049Y5946061D02*
G02*
X7612032Y5977044I30983J0D01*
G75*
G01*
X7612032Y5835078D02*
G02*
X7581049Y5866064I0J30983D01*
G75*
G01*
X7829619Y5976463D02*
G02*
X7860601Y5945477I0J-30983D01*
G75*
G01*
X7860601Y5865480D02*
G02*
X7829619Y5834497I-30982J0D01*
G75*
G01*
X9994049Y5946061D02*
G02*
X10025032Y5977044I30983J0D01*
G75*
G01*
X10025032Y5835078D02*
G02*
X9994049Y5866064I0J30983D01*
G75*
G01*
X10242619Y5976463D02*
G02*
X10273601Y5945477I0J-30983D01*
G75*
G01*
X10273601Y5865480D02*
G02*
X10242619Y5834497I-30982J0D01*
G75*
G01*
X3110649Y5488861D02*
G02*
X3141632Y5519844I30983J0D01*
G75*
G01*
X3141632Y5377878D02*
G02*
X3110649Y5408864I0J30983D01*
G75*
G01*
X3359219Y5519263D02*
G02*
X3390201Y5488277I0J-30983D01*
G75*
G01*
X3390201Y5408280D02*
G02*
X3359219Y5377297I-30982J0D01*
G75*
G01*
X3110649Y7774861D02*
G02*
X3141632Y7805844I30983J0D01*
G75*
G01*
X3141632Y7663878D02*
G02*
X3110649Y7694864I0J30983D01*
G75*
G01*
X3359219Y7805263D02*
G02*
X3390201Y7774277I0J-30983D01*
G75*
G01*
X3390201Y7694280D02*
G02*
X3359219Y7663297I-30982J0D01*
G75*
G01*
X6184049Y5946061D02*
G02*
X6215032Y5977044I30983J0D01*
G75*
G01*
X6215032Y5835078D02*
G02*
X6184049Y5866064I0J30983D01*
G75*
G01*
X6432619Y5976463D02*
G02*
X6463601Y5945477I0J-30983D01*
G75*
G01*
X6463601Y5865480D02*
G02*
X6432619Y5834497I-30982J0D01*
M02*
