G04 Layer: TopLayer*
G04 EasyEDA v6.5.34, 2023-08-21 18:11:39*
G04 960434acb54549deb8d315a4818e8252,5a6b42c53f6a479593ecc07194224c93,10*
G04 Gerber Generator version 0.2*
G04 Scale: 100 percent, Rotated: No, Reflected: No *
G04 Dimensions in millimeters *
G04 leading zeros omitted , absolute positions ,4 integer and 5 decimal *
%FSLAX45Y45*%
%MOMM*%

%ADD10C,0.2540*%
%ADD11C,3.0000*%

%LPD*%
G36*
X36068Y22860D02*
G01*
X32156Y23622D01*
X28905Y25806D01*
X26670Y29108D01*
X25908Y33020D01*
X25908Y13260832D01*
X26670Y13264743D01*
X28905Y13267994D01*
X32156Y13270230D01*
X36068Y13270992D01*
X48223932Y13270992D01*
X48227843Y13270230D01*
X48231094Y13267994D01*
X48233330Y13264743D01*
X48234092Y13260832D01*
X48234092Y36068D01*
X48233330Y32156D01*
X48231094Y28905D01*
X48227843Y26670D01*
X48223932Y25908D01*
X4302760Y23114D01*
X4298848Y23876D01*
X4295546Y26111D01*
X4293362Y29362D01*
X4292600Y33274D01*
X4291838Y29362D01*
X4289602Y26060D01*
X4286300Y23876D01*
X4282440Y23114D01*
G37*

%LPC*%
G36*
X20345349Y4826000D02*
G01*
X23901349Y4826000D01*
X23901349Y8382000D01*
X20345349Y8382000D01*
G37*
G36*
X4292600Y751840D02*
G01*
X4293362Y755700D01*
X4295546Y759002D01*
X4298848Y761238D01*
X4302760Y762000D01*
X7848600Y762000D01*
X7848600Y4318000D01*
X4292600Y4318000D01*
G37*
G36*
X8305800Y762000D02*
G01*
X11861800Y762000D01*
X11861800Y4318000D01*
X8305800Y4318000D01*
G37*
G36*
X12318949Y762000D02*
G01*
X15874949Y762000D01*
X15874949Y4318000D01*
X12318949Y4318000D01*
G37*
G36*
X16332149Y762000D02*
G01*
X19888149Y762000D01*
X19888149Y4318000D01*
X16332149Y4318000D01*
G37*
G36*
X20345349Y762000D02*
G01*
X23901349Y762000D01*
X23901349Y4318000D01*
X20345349Y4318000D01*
G37*
G36*
X24358549Y762000D02*
G01*
X27914549Y762000D01*
X27914549Y4318000D01*
X24358549Y4318000D01*
G37*
G36*
X28371749Y762000D02*
G01*
X31927749Y762000D01*
X31927749Y4318000D01*
X28371749Y4318000D01*
G37*
G36*
X32384949Y762000D02*
G01*
X35940949Y762000D01*
X35940949Y4318000D01*
X32384949Y4318000D01*
G37*
G36*
X36398149Y762000D02*
G01*
X39954098Y762000D01*
X39954098Y4318000D01*
X36398149Y4318000D01*
G37*
G36*
X40411298Y762000D02*
G01*
X43966333Y762000D01*
X43967298Y763016D01*
X43967298Y4318000D01*
X40411298Y4318000D01*
G37*
G36*
X47233687Y3458921D02*
G01*
X47238513Y3459073D01*
X47686061Y3459073D01*
X47690887Y3458921D01*
X47717151Y3459886D01*
X47743211Y3462832D01*
X47769018Y3467709D01*
X47794367Y3474516D01*
X47819157Y3483152D01*
X47843236Y3493668D01*
X47866452Y3505962D01*
X47888652Y3519932D01*
X47909784Y3535476D01*
X47929698Y3552647D01*
X47948291Y3571189D01*
X47965410Y3591102D01*
X47981006Y3612235D01*
X47994976Y3634435D01*
X48007219Y3657650D01*
X48017734Y3681729D01*
X48026421Y3706520D01*
X48033178Y3731869D01*
X48038054Y3757676D01*
X48041001Y3783787D01*
X48042017Y3810000D01*
X48041001Y3836212D01*
X48038054Y3862324D01*
X48033178Y3888130D01*
X48026421Y3913479D01*
X48017734Y3938270D01*
X48007219Y3962349D01*
X47994976Y3985564D01*
X47981006Y4007764D01*
X47965410Y4028897D01*
X47948291Y4048810D01*
X47929698Y4067352D01*
X47909784Y4084523D01*
X47888652Y4100068D01*
X47866452Y4114037D01*
X47843236Y4126331D01*
X47819157Y4136847D01*
X47794367Y4145483D01*
X47769018Y4152290D01*
X47743211Y4157167D01*
X47717151Y4160113D01*
X47690887Y4161078D01*
X47685401Y4160875D01*
X47239174Y4160875D01*
X47233687Y4161078D01*
X47207474Y4160113D01*
X47181363Y4157167D01*
X47155557Y4152290D01*
X47130208Y4145483D01*
X47105417Y4136847D01*
X47081338Y4126331D01*
X47058122Y4114037D01*
X47035923Y4100068D01*
X47014790Y4084523D01*
X46994876Y4067352D01*
X46976334Y4048810D01*
X46959215Y4028897D01*
X46943619Y4007764D01*
X46929649Y3985564D01*
X46917356Y3962349D01*
X46906891Y3938270D01*
X46898204Y3913479D01*
X46891397Y3888130D01*
X46886520Y3862324D01*
X46883574Y3836212D01*
X46882608Y3810000D01*
X46883574Y3783787D01*
X46886520Y3757676D01*
X46891397Y3731869D01*
X46898204Y3706520D01*
X46906891Y3681729D01*
X46917356Y3657650D01*
X46929649Y3634435D01*
X46943619Y3612235D01*
X46959215Y3591102D01*
X46976334Y3571189D01*
X46994876Y3552647D01*
X47014790Y3535476D01*
X47035923Y3519932D01*
X47058122Y3505962D01*
X47081338Y3493668D01*
X47105417Y3483152D01*
X47130208Y3474516D01*
X47155557Y3467709D01*
X47181363Y3462832D01*
X47207474Y3459886D01*
G37*
G36*
X579221Y9135821D02*
G01*
X583996Y9135973D01*
X1031595Y9135973D01*
X1036421Y9135821D01*
X1062634Y9136786D01*
X1088745Y9139732D01*
X1114501Y9144609D01*
X1139901Y9151416D01*
X1164691Y9160052D01*
X1188720Y9170568D01*
X1211935Y9182862D01*
X1234186Y9196832D01*
X1255318Y9212376D01*
X1275232Y9229547D01*
X1293774Y9248089D01*
X1310894Y9268002D01*
X1326489Y9289135D01*
X1340459Y9311335D01*
X1352753Y9334550D01*
X1363218Y9358630D01*
X1371904Y9383420D01*
X1378712Y9408769D01*
X1383588Y9434576D01*
X1386535Y9460687D01*
X1387500Y9486900D01*
X1386535Y9513112D01*
X1383588Y9539224D01*
X1378712Y9565030D01*
X1371904Y9590379D01*
X1363218Y9615170D01*
X1352753Y9639249D01*
X1340459Y9662464D01*
X1326489Y9684664D01*
X1310894Y9705797D01*
X1293774Y9725710D01*
X1275232Y9744252D01*
X1255318Y9761423D01*
X1234186Y9776968D01*
X1211935Y9790938D01*
X1188720Y9803231D01*
X1164691Y9813747D01*
X1139901Y9822383D01*
X1114501Y9829190D01*
X1088745Y9834067D01*
X1062634Y9837013D01*
X1036421Y9837978D01*
X1030884Y9837775D01*
X584708Y9837775D01*
X579221Y9837978D01*
X552958Y9837013D01*
X526846Y9834067D01*
X501091Y9829190D01*
X475691Y9822383D01*
X450951Y9813747D01*
X426872Y9803231D01*
X403656Y9790938D01*
X381406Y9776968D01*
X360273Y9761423D01*
X340410Y9744252D01*
X321818Y9725710D01*
X304698Y9705797D01*
X289102Y9684664D01*
X275132Y9662464D01*
X262890Y9639249D01*
X252374Y9615170D01*
X243687Y9590379D01*
X236880Y9565030D01*
X232003Y9539224D01*
X229057Y9513112D01*
X228092Y9486900D01*
X229057Y9460687D01*
X232003Y9434576D01*
X236880Y9408769D01*
X243687Y9383420D01*
X252374Y9358630D01*
X262890Y9334550D01*
X275132Y9311335D01*
X289102Y9289135D01*
X304698Y9268002D01*
X321818Y9248089D01*
X340410Y9229547D01*
X360273Y9212376D01*
X381406Y9196832D01*
X403656Y9182862D01*
X426872Y9170568D01*
X450951Y9160052D01*
X475691Y9151416D01*
X501091Y9144609D01*
X526846Y9139732D01*
X552958Y9136786D01*
G37*
G36*
X579221Y3458921D02*
G01*
X583996Y3459073D01*
X1031595Y3459073D01*
X1036421Y3458921D01*
X1062634Y3459886D01*
X1088745Y3462832D01*
X1114501Y3467709D01*
X1139901Y3474516D01*
X1164691Y3483152D01*
X1188720Y3493668D01*
X1211935Y3505962D01*
X1234186Y3519932D01*
X1255318Y3535476D01*
X1275232Y3552647D01*
X1293774Y3571189D01*
X1310894Y3591102D01*
X1326489Y3612235D01*
X1340459Y3634435D01*
X1352753Y3657650D01*
X1363218Y3681729D01*
X1371904Y3706520D01*
X1378712Y3731869D01*
X1383588Y3757676D01*
X1386535Y3783787D01*
X1387500Y3810000D01*
X1386535Y3836212D01*
X1383588Y3862324D01*
X1378712Y3888130D01*
X1371904Y3913479D01*
X1363218Y3938270D01*
X1352753Y3962349D01*
X1340459Y3985564D01*
X1326489Y4007764D01*
X1310894Y4028897D01*
X1293774Y4048810D01*
X1275232Y4067352D01*
X1255318Y4084523D01*
X1234186Y4100068D01*
X1211935Y4114037D01*
X1188720Y4126331D01*
X1164691Y4136847D01*
X1139901Y4145483D01*
X1114501Y4152290D01*
X1088745Y4157167D01*
X1062634Y4160113D01*
X1036421Y4161078D01*
X1030884Y4160875D01*
X584708Y4160875D01*
X579221Y4161078D01*
X552958Y4160113D01*
X526846Y4157167D01*
X501091Y4152290D01*
X475691Y4145483D01*
X450951Y4136847D01*
X426872Y4126331D01*
X403656Y4114037D01*
X381406Y4100068D01*
X360273Y4084523D01*
X340410Y4067352D01*
X321818Y4048810D01*
X304698Y4028897D01*
X289102Y4007764D01*
X275132Y3985564D01*
X262890Y3962349D01*
X252374Y3938270D01*
X243687Y3913479D01*
X236880Y3888130D01*
X232003Y3862324D01*
X229057Y3836212D01*
X228092Y3810000D01*
X229057Y3783787D01*
X232003Y3757676D01*
X236880Y3731869D01*
X243687Y3706520D01*
X252374Y3681729D01*
X262890Y3657650D01*
X275132Y3634435D01*
X289102Y3612235D01*
X304698Y3591102D01*
X321818Y3571189D01*
X340410Y3552647D01*
X360273Y3535476D01*
X381406Y3519932D01*
X403656Y3505962D01*
X426872Y3493668D01*
X450951Y3483152D01*
X475691Y3474516D01*
X501091Y3467709D01*
X526846Y3462832D01*
X552958Y3459886D01*
G37*
G36*
X47233687Y9135821D02*
G01*
X47238513Y9135973D01*
X47686061Y9135973D01*
X47690887Y9135821D01*
X47717151Y9136786D01*
X47743211Y9139732D01*
X47769018Y9144609D01*
X47794367Y9151416D01*
X47819157Y9160052D01*
X47843236Y9170568D01*
X47866452Y9182862D01*
X47888652Y9196832D01*
X47909784Y9212376D01*
X47929698Y9229547D01*
X47948291Y9248089D01*
X47965410Y9268002D01*
X47981006Y9289135D01*
X47994976Y9311335D01*
X48007219Y9334550D01*
X48017734Y9358630D01*
X48026421Y9383420D01*
X48033178Y9408769D01*
X48038054Y9434576D01*
X48041001Y9460687D01*
X48042017Y9486900D01*
X48041001Y9513112D01*
X48038054Y9539224D01*
X48033178Y9565030D01*
X48026421Y9590379D01*
X48017734Y9615170D01*
X48007219Y9639249D01*
X47994976Y9662464D01*
X47981006Y9684664D01*
X47965410Y9705797D01*
X47948291Y9725710D01*
X47929698Y9744252D01*
X47909784Y9761423D01*
X47888652Y9776968D01*
X47866452Y9790938D01*
X47843236Y9803231D01*
X47819157Y9813747D01*
X47794367Y9822383D01*
X47769018Y9829190D01*
X47743211Y9834067D01*
X47717151Y9837013D01*
X47690887Y9837978D01*
X47685401Y9837775D01*
X47239174Y9837775D01*
X47233687Y9837978D01*
X47207474Y9837013D01*
X47181363Y9834067D01*
X47155557Y9829190D01*
X47130208Y9822383D01*
X47105417Y9813747D01*
X47081338Y9803231D01*
X47058122Y9790938D01*
X47035923Y9776968D01*
X47014790Y9761423D01*
X46994876Y9744252D01*
X46976334Y9725710D01*
X46959215Y9705797D01*
X46943619Y9684664D01*
X46929649Y9662464D01*
X46917356Y9639249D01*
X46906891Y9615170D01*
X46898204Y9590379D01*
X46891397Y9565030D01*
X46886520Y9539224D01*
X46883574Y9513112D01*
X46882608Y9486900D01*
X46883574Y9460687D01*
X46886520Y9434576D01*
X46891397Y9408769D01*
X46898204Y9383420D01*
X46906891Y9358630D01*
X46917356Y9334550D01*
X46929649Y9311335D01*
X46943619Y9289135D01*
X46959215Y9268002D01*
X46976334Y9248089D01*
X46994876Y9229547D01*
X47014790Y9212376D01*
X47035923Y9196832D01*
X47058122Y9182862D01*
X47081338Y9170568D01*
X47105417Y9160052D01*
X47130208Y9151416D01*
X47155557Y9144609D01*
X47181363Y9139732D01*
X47207474Y9136786D01*
G37*
G36*
X40411298Y8890000D02*
G01*
X43967298Y8890000D01*
X43967298Y12444984D01*
X43966333Y12445949D01*
X40411298Y12445949D01*
G37*
G36*
X36398149Y8890000D02*
G01*
X39954098Y8890000D01*
X39954098Y12445949D01*
X36398149Y12445949D01*
G37*
G36*
X4292600Y4826000D02*
G01*
X7848600Y4826000D01*
X7848600Y8382000D01*
X4292600Y8382000D01*
G37*
G36*
X8305800Y4826000D02*
G01*
X11861800Y4826000D01*
X11861800Y8382000D01*
X8305800Y8382000D01*
G37*
G36*
X12318949Y4826000D02*
G01*
X15874949Y4826000D01*
X15874949Y8382000D01*
X12318949Y8382000D01*
G37*
G36*
X16332149Y4826000D02*
G01*
X19888149Y4826000D01*
X19888149Y8382000D01*
X16332149Y8382000D01*
G37*
G36*
X32384949Y8890000D02*
G01*
X35940949Y8890000D01*
X35940949Y12445949D01*
X32384949Y12445949D01*
G37*
G36*
X24358549Y4826000D02*
G01*
X27914549Y4826000D01*
X27914549Y8382000D01*
X24358549Y8382000D01*
G37*
G36*
X28371749Y4826000D02*
G01*
X31927749Y4826000D01*
X31927749Y8382000D01*
X28371749Y8382000D01*
G37*
G36*
X32384949Y4826000D02*
G01*
X35940949Y4826000D01*
X35940949Y8382000D01*
X32384949Y8382000D01*
G37*
G36*
X36398149Y4826000D02*
G01*
X39954098Y4826000D01*
X39954098Y8382000D01*
X36398149Y8382000D01*
G37*
G36*
X40411298Y4826000D02*
G01*
X43967298Y4826000D01*
X43967298Y8382000D01*
X40411298Y8382000D01*
G37*
G36*
X4292600Y8890000D02*
G01*
X7848600Y8890000D01*
X7848600Y12445949D01*
X4293616Y12445949D01*
X4292600Y12444984D01*
G37*
G36*
X8305800Y8890000D02*
G01*
X11861800Y8890000D01*
X11861800Y12445949D01*
X8305800Y12445949D01*
G37*
G36*
X12318949Y8890000D02*
G01*
X15874949Y8890000D01*
X15874949Y12445949D01*
X12318949Y12445949D01*
G37*
G36*
X16332149Y8890000D02*
G01*
X19888149Y8890000D01*
X19888149Y12445949D01*
X16332149Y12445949D01*
G37*
G36*
X20345349Y8890000D02*
G01*
X23901349Y8890000D01*
X23901349Y12445949D01*
X20345349Y12445949D01*
G37*
G36*
X24358549Y8890000D02*
G01*
X27914549Y8890000D01*
X27914549Y12445949D01*
X24358549Y12445949D01*
G37*
G36*
X28371749Y8890000D02*
G01*
X31927749Y8890000D01*
X31927749Y12445949D01*
X28371749Y12445949D01*
G37*

%LPD*%
D10*
X8102584Y12877774D02*
G01*
X8102584Y12014177D01*
X12115774Y12877774D02*
G01*
X12115774Y12014177D01*
X16103566Y12877774D02*
G01*
X16103566Y12014177D01*
X20142159Y12903174D02*
G01*
X20142159Y12039577D01*
X28143146Y12877772D02*
G01*
X28143146Y12014174D01*
X32181736Y12903174D02*
G01*
X32181736Y12039577D01*
X36194928Y13004774D02*
G01*
X36194928Y12141177D01*
X40131923Y12953974D02*
G01*
X40131923Y12090377D01*
X43687913Y8610582D02*
G01*
X44526111Y8610582D01*
X43687913Y4571989D02*
G01*
X44526111Y4571989D01*
D11*
G01*
X2794000Y635000D03*
G01*
X2794000Y12573000D03*
G01*
X2794000Y6604000D03*
G01*
X45466000Y635000D03*
G01*
X45466000Y6604000D03*
G01*
X45466000Y12573000D03*
G01*
X24130000Y635000D03*
G01*
X24130000Y6604000D03*
G01*
X24130000Y12573000D03*
G01*
X2794000Y3810000D03*
G01*
X2794000Y9398000D03*
G01*
X45466000Y3810000D03*
G01*
X45466000Y9398000D03*
M02*
