G04 Layer: BottomSilkscreenLayer*
G04 EasyEDA v6.5.34, 2023-08-21 18:11:39*
G04 960434acb54549deb8d315a4818e8252,5a6b42c53f6a479593ecc07194224c93,10*
G04 Gerber Generator version 0.2*
G04 Scale: 100 percent, Rotated: No, Reflected: No *
G04 Dimensions in millimeters *
G04 leading zeros omitted , absolute positions ,4 integer and 5 decimal *
%FSLAX45Y45*%
%MOMM*%

%ADD10C,0.2032*%
%ADD11C,0.1520*%
%ADD12C,0.2540*%

%LPD*%
D10*
X43954522Y209938D02*
G01*
X43954522Y95394D01*
X43954522Y209938D02*
G01*
X43905431Y209938D01*
X43889068Y204485D01*
X43883613Y199031D01*
X43878159Y188122D01*
X43878159Y171757D01*
X43883613Y160849D01*
X43889068Y155394D01*
X43905431Y149938D01*
X43954522Y149938D01*
X43798523Y209938D02*
G01*
X43842157Y95394D01*
X43798523Y209938D02*
G01*
X43754885Y95394D01*
X43825795Y133576D02*
G01*
X43771251Y133576D01*
X43718886Y209938D02*
G01*
X43718886Y95394D01*
X43718886Y209938D02*
G01*
X43669795Y209938D01*
X43653433Y204485D01*
X43647977Y199031D01*
X43642522Y188122D01*
X43642522Y177213D01*
X43647977Y166303D01*
X43653433Y160849D01*
X43669795Y155394D01*
X43718886Y155394D01*
X43680705Y155394D02*
G01*
X43642522Y95394D01*
X43568340Y209938D02*
G01*
X43568340Y95394D01*
X43606521Y209938D02*
G01*
X43530159Y209938D01*
X43410159Y209938D02*
G01*
X43410159Y95394D01*
X43410159Y209938D02*
G01*
X43333797Y95394D01*
X43333797Y209938D02*
G01*
X43333797Y95394D01*
X43297795Y209938D02*
G01*
X43297795Y128122D01*
X43292341Y111757D01*
X43281432Y100849D01*
X43265069Y95394D01*
X43254160Y95394D01*
X43237795Y100849D01*
X43226888Y111757D01*
X43221432Y128122D01*
X43221432Y209938D01*
X43185433Y209938D02*
G01*
X43185433Y95394D01*
X43185433Y209938D02*
G01*
X43141795Y95394D01*
X43098161Y209938D02*
G01*
X43141795Y95394D01*
X43098161Y209938D02*
G01*
X43098161Y95394D01*
X43062159Y209938D02*
G01*
X43062159Y95394D01*
X43062159Y209938D02*
G01*
X43013068Y209938D01*
X42996705Y204485D01*
X42991252Y199031D01*
X42985796Y188122D01*
X42985796Y177213D01*
X42991252Y166303D01*
X42996705Y160849D01*
X43013068Y155394D01*
X43062159Y155394D02*
G01*
X43013068Y155394D01*
X42996705Y149938D01*
X42991252Y144485D01*
X42985796Y133576D01*
X42985796Y117213D01*
X42991252Y106304D01*
X42996705Y100849D01*
X43013068Y95394D01*
X43062159Y95394D01*
X42949797Y209938D02*
G01*
X42949797Y95394D01*
X42949797Y209938D02*
G01*
X42878888Y209938D01*
X42949797Y155394D02*
G01*
X42906160Y155394D01*
X42949797Y95394D02*
G01*
X42878888Y95394D01*
X42842888Y209938D02*
G01*
X42842888Y95394D01*
X42842888Y209938D02*
G01*
X42793798Y209938D01*
X42777432Y204485D01*
X42771979Y199031D01*
X42766523Y188122D01*
X42766523Y177213D01*
X42771979Y166303D01*
X42777432Y160849D01*
X42793798Y155394D01*
X42842888Y155394D01*
X42804707Y155394D02*
G01*
X42766523Y95394D01*
X42646523Y188122D02*
G01*
X42635614Y193575D01*
X42619251Y209938D01*
X42619251Y95394D01*
X42555980Y209938D02*
G01*
X42572343Y204485D01*
X42577796Y193575D01*
X42577796Y182666D01*
X42572343Y171757D01*
X42561433Y166303D01*
X42539615Y160849D01*
X42523252Y155394D01*
X42512343Y144485D01*
X42506889Y133576D01*
X42506889Y117213D01*
X42512343Y106304D01*
X42517796Y100849D01*
X42534161Y95394D01*
X42555980Y95394D01*
X42572343Y100849D01*
X42577796Y106304D01*
X42583252Y117213D01*
X42583252Y133576D01*
X42577796Y144485D01*
X42566889Y155394D01*
X42550524Y160849D01*
X42528705Y166303D01*
X42517796Y171757D01*
X42512343Y182666D01*
X42512343Y193575D01*
X42517796Y204485D01*
X42534161Y209938D01*
X42555980Y209938D01*
X42394525Y209938D02*
G01*
X42449071Y95394D01*
X42470887Y209938D02*
G01*
X42394525Y209938D01*
X42325798Y209938D02*
G01*
X42342160Y204485D01*
X42353069Y188122D01*
X42358525Y160849D01*
X42358525Y144485D01*
X42353069Y117213D01*
X42342160Y100849D01*
X42325798Y95394D01*
X42314888Y95394D01*
X42298526Y100849D01*
X42287616Y117213D01*
X42282160Y144485D01*
X42282160Y160849D01*
X42287616Y188122D01*
X42298526Y204485D01*
X42314888Y209938D01*
X42325798Y209938D01*
X42246161Y144485D02*
G01*
X42147980Y144485D01*
X42079252Y209938D02*
G01*
X42095615Y204485D01*
X42106524Y188122D01*
X42111980Y160849D01*
X42111980Y144485D01*
X42106524Y117213D01*
X42095615Y100849D01*
X42079252Y95394D01*
X42068343Y95394D01*
X42051980Y100849D01*
X42041071Y117213D01*
X42035615Y144485D01*
X42035615Y160849D01*
X42041071Y188122D01*
X42051980Y204485D01*
X42068343Y209938D01*
X42079252Y209938D01*
X41999616Y188122D02*
G01*
X41988706Y193575D01*
X41972344Y209938D01*
X41972344Y95394D01*
X41903616Y209938D02*
G01*
X41919979Y204485D01*
X41930888Y188122D01*
X41936344Y160849D01*
X41936344Y144485D01*
X41930888Y117213D01*
X41919979Y100849D01*
X41903616Y95394D01*
X41892707Y95394D01*
X41876345Y100849D01*
X41865435Y117213D01*
X41859979Y144485D01*
X41859979Y160849D01*
X41865435Y188122D01*
X41876345Y204485D01*
X41892707Y209938D01*
X41903616Y209938D01*
X41823980Y188122D02*
G01*
X41813071Y193575D01*
X41796708Y209938D01*
X41796708Y95394D01*
X41676708Y209938D02*
G01*
X41633071Y95394D01*
X41589436Y209938D02*
G01*
X41633071Y95394D01*
X41520709Y209938D02*
G01*
X41537072Y204485D01*
X41547981Y188122D01*
X41553437Y160849D01*
X41553437Y144485D01*
X41547981Y117213D01*
X41537072Y100849D01*
X41520709Y95394D01*
X41509800Y95394D01*
X41493437Y100849D01*
X41482528Y117213D01*
X41477072Y144485D01*
X41477072Y160849D01*
X41482528Y188122D01*
X41493437Y204485D01*
X41509800Y209938D01*
X41520709Y209938D01*
X41435616Y122666D02*
G01*
X41441072Y117213D01*
X41435616Y111757D01*
X41430163Y117213D01*
X41435616Y122666D01*
X41394164Y188122D02*
G01*
X41383254Y193575D01*
X41366892Y209938D01*
X41366892Y95394D01*
X43890773Y422150D02*
G01*
X43901682Y433059D01*
X43918045Y438513D01*
X43939863Y438513D01*
X43956226Y433059D01*
X43967135Y422150D01*
X43967135Y411241D01*
X43961682Y400331D01*
X43956226Y394878D01*
X43945317Y389423D01*
X43912589Y378513D01*
X43901682Y373059D01*
X43896226Y367606D01*
X43890773Y356697D01*
X43890773Y340332D01*
X43901682Y329423D01*
X43918045Y323969D01*
X43939863Y323969D01*
X43956226Y329423D01*
X43967135Y340332D01*
X43854771Y438513D02*
G01*
X43854771Y356697D01*
X43849317Y340332D01*
X43838408Y329423D01*
X43822045Y323969D01*
X43811136Y323969D01*
X43794771Y329423D01*
X43783864Y340332D01*
X43778408Y356697D01*
X43778408Y438513D01*
X43742409Y438513D02*
G01*
X43742409Y323969D01*
X43742409Y438513D02*
G01*
X43693318Y438513D01*
X43676953Y433059D01*
X43671500Y427606D01*
X43666046Y416697D01*
X43666046Y405787D01*
X43671500Y394878D01*
X43676953Y389423D01*
X43693318Y383969D01*
X43742409Y383969D02*
G01*
X43693318Y383969D01*
X43676953Y378513D01*
X43671500Y373059D01*
X43666046Y362150D01*
X43666046Y345787D01*
X43671500Y334878D01*
X43676953Y329423D01*
X43693318Y323969D01*
X43742409Y323969D01*
X43553682Y422150D02*
G01*
X43564591Y433059D01*
X43580954Y438513D01*
X43602772Y438513D01*
X43619136Y433059D01*
X43630044Y422150D01*
X43630044Y411241D01*
X43624591Y400331D01*
X43619136Y394878D01*
X43608226Y389423D01*
X43575500Y378513D01*
X43564591Y373059D01*
X43559135Y367606D01*
X43553682Y356697D01*
X43553682Y340332D01*
X43564591Y329423D01*
X43580954Y323969D01*
X43602772Y323969D01*
X43619136Y329423D01*
X43630044Y340332D01*
X43479501Y438513D02*
G01*
X43479501Y323969D01*
X43517682Y438513D02*
G01*
X43441317Y438513D01*
X43361683Y438513D02*
G01*
X43405318Y323969D01*
X43361683Y438513D02*
G01*
X43318046Y323969D01*
X43388955Y362150D02*
G01*
X43334409Y362150D01*
X43243865Y438513D02*
G01*
X43243865Y323969D01*
X43282047Y438513D02*
G01*
X43205681Y438513D01*
X43169682Y438513D02*
G01*
X43169682Y323969D01*
X43100955Y438513D02*
G01*
X43111864Y433059D01*
X43122773Y422150D01*
X43128227Y411241D01*
X43133683Y394878D01*
X43133683Y367606D01*
X43128227Y351241D01*
X43122773Y340332D01*
X43111864Y329423D01*
X43100955Y323969D01*
X43079136Y323969D01*
X43068227Y329423D01*
X43057320Y340332D01*
X43051864Y351241D01*
X43046411Y367606D01*
X43046411Y394878D01*
X43051864Y411241D01*
X43057320Y422150D01*
X43068227Y433059D01*
X43079136Y438513D01*
X43100955Y438513D01*
X43010409Y438513D02*
G01*
X43010409Y323969D01*
X43010409Y438513D02*
G01*
X42934046Y323969D01*
X42934046Y438513D02*
G01*
X42934046Y323969D01*
X42803137Y438513D02*
G01*
X42743137Y438513D01*
X42775865Y394878D01*
X42759502Y394878D01*
X42748593Y389423D01*
X42743137Y383969D01*
X42737684Y367606D01*
X42737684Y356697D01*
X42743137Y340332D01*
X42754047Y329423D01*
X42770409Y323969D01*
X42786774Y323969D01*
X42803137Y329423D01*
X42808593Y334878D01*
X42814046Y345787D01*
X42701684Y438513D02*
G01*
X42701684Y356697D01*
X42696229Y340332D01*
X42685319Y329423D01*
X42668957Y323969D01*
X42658047Y323969D01*
X42641685Y329423D01*
X42630775Y340332D01*
X42625319Y356697D01*
X42625319Y438513D01*
X42461685Y438513D02*
G01*
X42505320Y323969D01*
X42461685Y438513D02*
G01*
X42418048Y323969D01*
X42488957Y362150D02*
G01*
X42434410Y362150D01*
X42382048Y438513D02*
G01*
X42382048Y323969D01*
X42382048Y438513D02*
G01*
X42305683Y323969D01*
X42305683Y438513D02*
G01*
X42305683Y323969D01*
X42269684Y438513D02*
G01*
X42269684Y323969D01*
X42269684Y438513D02*
G01*
X42193321Y323969D01*
X42193321Y438513D02*
G01*
X42193321Y323969D01*
X42157322Y438513D02*
G01*
X42157322Y356697D01*
X42151866Y340332D01*
X42140957Y329423D01*
X42124594Y323969D01*
X42113685Y323969D01*
X42097322Y329423D01*
X42086413Y340332D01*
X42080957Y356697D01*
X42080957Y438513D01*
X42044957Y438513D02*
G01*
X42044957Y323969D01*
X42044957Y438513D02*
G01*
X41968595Y323969D01*
X41968595Y438513D02*
G01*
X41968595Y323969D01*
X41850777Y411241D02*
G01*
X41856230Y422150D01*
X41867140Y433059D01*
X41878049Y438513D01*
X41899867Y438513D01*
X41910777Y433059D01*
X41921686Y422150D01*
X41927139Y411241D01*
X41932593Y394878D01*
X41932593Y367606D01*
X41927139Y351241D01*
X41921686Y340332D01*
X41910777Y329423D01*
X41899867Y323969D01*
X41878049Y323969D01*
X41867140Y329423D01*
X41856230Y340332D01*
X41850777Y351241D01*
X41814775Y438513D02*
G01*
X41814775Y323969D01*
X41735141Y438513D02*
G01*
X41778775Y323969D01*
X41735141Y438513D02*
G01*
X41691504Y323969D01*
X41762413Y362150D02*
G01*
X41707866Y362150D01*
X41617323Y438513D02*
G01*
X41617323Y323969D01*
X41655504Y438513D02*
G01*
X41579139Y438513D01*
X41510412Y438513D02*
G01*
X41521321Y433059D01*
X41532230Y422150D01*
X41537686Y411241D01*
X41543140Y394878D01*
X41543140Y367606D01*
X41537686Y351241D01*
X41532230Y340332D01*
X41521321Y329423D01*
X41510412Y323969D01*
X41488596Y323969D01*
X41477686Y329423D01*
X41466777Y340332D01*
X41461321Y351241D01*
X41455868Y367606D01*
X41455868Y394878D01*
X41461321Y411241D01*
X41466777Y422150D01*
X41477686Y433059D01*
X41488596Y438513D01*
X41510412Y438513D01*
X41419868Y438513D02*
G01*
X41419868Y323969D01*
X41419868Y438513D02*
G01*
X41370778Y438513D01*
X41354413Y433059D01*
X41348959Y427606D01*
X41343503Y416697D01*
X41343503Y405787D01*
X41348959Y394878D01*
X41354413Y389423D01*
X41370778Y383969D01*
X41419868Y383969D01*
X41381687Y383969D02*
G01*
X41343503Y323969D01*
X41223504Y438513D02*
G01*
X41223504Y323969D01*
X41223504Y438513D02*
G01*
X41152594Y438513D01*
X41223504Y383969D02*
G01*
X41179869Y383969D01*
X41116595Y438513D02*
G01*
X41116595Y323969D01*
X41116595Y438513D02*
G01*
X41067504Y438513D01*
X41051142Y433059D01*
X41045686Y427606D01*
X41040232Y416697D01*
X41040232Y405787D01*
X41045686Y394878D01*
X41051142Y389423D01*
X41067504Y383969D01*
X41116595Y383969D01*
X41078414Y383969D02*
G01*
X41040232Y323969D01*
X40971505Y438513D02*
G01*
X40982414Y433059D01*
X40993324Y422150D01*
X40998777Y411241D01*
X41004233Y394878D01*
X41004233Y367606D01*
X40998777Y351241D01*
X40993324Y340332D01*
X40982414Y329423D01*
X40971505Y323969D01*
X40949686Y323969D01*
X40938777Y329423D01*
X40927868Y340332D01*
X40922414Y351241D01*
X40916959Y367606D01*
X40916959Y394878D01*
X40922414Y411241D01*
X40927868Y422150D01*
X40938777Y433059D01*
X40949686Y438513D01*
X40971505Y438513D01*
X40880959Y438513D02*
G01*
X40880959Y323969D01*
X40880959Y438513D02*
G01*
X40804597Y323969D01*
X40804597Y438513D02*
G01*
X40804597Y323969D01*
X40730413Y438513D02*
G01*
X40730413Y323969D01*
X40768597Y438513D02*
G01*
X40692232Y438513D01*
X40572232Y438513D02*
G01*
X40572232Y323969D01*
X40572232Y438513D02*
G01*
X40523142Y438513D01*
X40506779Y433059D01*
X40501323Y427606D01*
X40495870Y416697D01*
X40495870Y400331D01*
X40501323Y389423D01*
X40506779Y383969D01*
X40523142Y378513D01*
X40572232Y378513D01*
X40416233Y438513D02*
G01*
X40459870Y323969D01*
X40416233Y438513D02*
G01*
X40372596Y323969D01*
X40443505Y362150D02*
G01*
X40388961Y362150D01*
X40336597Y438513D02*
G01*
X40336597Y323969D01*
X40336597Y438513D02*
G01*
X40260234Y323969D01*
X40260234Y438513D02*
G01*
X40260234Y323969D01*
X40224235Y438513D02*
G01*
X40224235Y323969D01*
X40224235Y438513D02*
G01*
X40153325Y438513D01*
X40224235Y383969D02*
G01*
X40180597Y383969D01*
X40224235Y323969D02*
G01*
X40153325Y323969D01*
X40117326Y438513D02*
G01*
X40117326Y323969D01*
X40117326Y323969D02*
G01*
X40051870Y323969D01*
X39931870Y373059D02*
G01*
X39833689Y373059D01*
X39713689Y438513D02*
G01*
X39713689Y323969D01*
X39713689Y438513D02*
G01*
X39664599Y438513D01*
X39648234Y433059D01*
X39642780Y427606D01*
X39637327Y416697D01*
X39637327Y405787D01*
X39642780Y394878D01*
X39648234Y389423D01*
X39664599Y383969D01*
X39713689Y383969D02*
G01*
X39664599Y383969D01*
X39648234Y378513D01*
X39642780Y373059D01*
X39637327Y362150D01*
X39637327Y345787D01*
X39642780Y334878D01*
X39648234Y329423D01*
X39664599Y323969D01*
X39713689Y323969D01*
X39568600Y438513D02*
G01*
X39579509Y433059D01*
X39590416Y422150D01*
X39595872Y411241D01*
X39601325Y394878D01*
X39601325Y367606D01*
X39595872Y351241D01*
X39590416Y340332D01*
X39579509Y329423D01*
X39568600Y323969D01*
X39546781Y323969D01*
X39535872Y329423D01*
X39524962Y340332D01*
X39519509Y351241D01*
X39514053Y367606D01*
X39514053Y394878D01*
X39519509Y411241D01*
X39524962Y422150D01*
X39535872Y433059D01*
X39546781Y438513D01*
X39568600Y438513D01*
X39439872Y438513D02*
G01*
X39439872Y323969D01*
X39478054Y438513D02*
G01*
X39401691Y438513D01*
X39327508Y438513D02*
G01*
X39327508Y323969D01*
X39365689Y438513D02*
G01*
X39289327Y438513D01*
X39220599Y438513D02*
G01*
X39231509Y433059D01*
X39242418Y422150D01*
X39247871Y411241D01*
X39253327Y394878D01*
X39253327Y367606D01*
X39247871Y351241D01*
X39242418Y340332D01*
X39231509Y329423D01*
X39220599Y323969D01*
X39198781Y323969D01*
X39187871Y329423D01*
X39176962Y340332D01*
X39171509Y351241D01*
X39166055Y367606D01*
X39166055Y394878D01*
X39171509Y411241D01*
X39176962Y422150D01*
X39187871Y433059D01*
X39198781Y438513D01*
X39220599Y438513D01*
X39130053Y438513D02*
G01*
X39130053Y323969D01*
X39130053Y438513D02*
G01*
X39086419Y323969D01*
X39042781Y438513D02*
G01*
X39086419Y323969D01*
X39042781Y438513D02*
G01*
X39042781Y323969D01*
D11*
X47974143Y191551D02*
G01*
X47974143Y108424D01*
X47979340Y92837D01*
X47984534Y87642D01*
X47994925Y82448D01*
X48005316Y82448D01*
X48015707Y87642D01*
X48020904Y92837D01*
X48026099Y108424D01*
X48026099Y118816D01*
X47939853Y191551D02*
G01*
X47939853Y82448D01*
X47939853Y82448D02*
G01*
X47877509Y82448D01*
X47765286Y165574D02*
G01*
X47770483Y175966D01*
X47780874Y186357D01*
X47791263Y191551D01*
X47812045Y191551D01*
X47822436Y186357D01*
X47832827Y175966D01*
X47838024Y165574D01*
X47843219Y149987D01*
X47843219Y124010D01*
X47838024Y108424D01*
X47832827Y98033D01*
X47822436Y87642D01*
X47812045Y82448D01*
X47791263Y82448D01*
X47780874Y87642D01*
X47770483Y98033D01*
X47765286Y108424D01*
X47679043Y191551D02*
G01*
X47679043Y108424D01*
X47684237Y92837D01*
X47689434Y87642D01*
X47699823Y82448D01*
X47710214Y82448D01*
X47720605Y87642D01*
X47725802Y92837D01*
X47730996Y108424D01*
X47730996Y118816D01*
X47644753Y191551D02*
G01*
X47644753Y82448D01*
X47644753Y82448D02*
G01*
X47582406Y82448D01*
X47470184Y165574D02*
G01*
X47475381Y175966D01*
X47485772Y186357D01*
X47496163Y191551D01*
X47516943Y191551D01*
X47527334Y186357D01*
X47537725Y175966D01*
X47542922Y165574D01*
X47548116Y149987D01*
X47548116Y124010D01*
X47542922Y108424D01*
X47537725Y98033D01*
X47527334Y87642D01*
X47516943Y82448D01*
X47496163Y82448D01*
X47485772Y87642D01*
X47475381Y98033D01*
X47470184Y108424D01*
X47383941Y191551D02*
G01*
X47383941Y108424D01*
X47389135Y92837D01*
X47394332Y87642D01*
X47404723Y82448D01*
X47415114Y82448D01*
X47425503Y87642D01*
X47430700Y92837D01*
X47435894Y108424D01*
X47435894Y118816D01*
X47349651Y191551D02*
G01*
X47349651Y82448D01*
X47349651Y82448D02*
G01*
X47287304Y82448D01*
X47175084Y165574D02*
G01*
X47180279Y175966D01*
X47190670Y186357D01*
X47201061Y191551D01*
X47221843Y191551D01*
X47232234Y186357D01*
X47242623Y175966D01*
X47247820Y165574D01*
X47253014Y149987D01*
X47253014Y124010D01*
X47247820Y108424D01*
X47242623Y98033D01*
X47232234Y87642D01*
X47221843Y82448D01*
X47201061Y82448D01*
X47190670Y87642D01*
X47180279Y98033D01*
X47175084Y108424D01*
X47088839Y191551D02*
G01*
X47088839Y108424D01*
X47094033Y92837D01*
X47099230Y87642D01*
X47109621Y82448D01*
X47120012Y82448D01*
X47130403Y87642D01*
X47135597Y92837D01*
X47140794Y108424D01*
X47140794Y118816D01*
X47054549Y191551D02*
G01*
X47054549Y82448D01*
X47054549Y82448D02*
G01*
X46992204Y82448D01*
X46879982Y165574D02*
G01*
X46885176Y175966D01*
X46895567Y186357D01*
X46905959Y191551D01*
X46926741Y191551D01*
X46937132Y186357D01*
X46947523Y175966D01*
X46952717Y165574D01*
X46957914Y149987D01*
X46957914Y124010D01*
X46952717Y108424D01*
X46947523Y98033D01*
X46937132Y87642D01*
X46926741Y82448D01*
X46905959Y82448D01*
X46895567Y87642D01*
X46885176Y98033D01*
X46879982Y108424D01*
D12*
X0Y13299973D02*
G01*
X1799996Y13299973D01*
X1799996Y0D01*
X0Y0D01*
X0Y13299973D01*
X46463991Y13296900D02*
G01*
X48263987Y13296900D01*
X48263987Y-3073D01*
X46463991Y-3073D01*
X46463991Y13296900D01*
M02*
