G04 Layer: TopLayer*
G04 EasyEDA v6.5.34, 2023-08-21 18:11:39*
G04 7281ce948e4441dfa34a971b937f5717,5a6b42c53f6a479593ecc07194224c93,10*
G04 Gerber Generator version 0.2*
G04 Scale: 100 percent, Rotated: No, Reflected: No *
G04 Dimensions in millimeters *
G04 leading zeros omitted , absolute positions ,4 integer and 5 decimal *
%FSLAX45Y45*%
%MOMM*%

%ADD10C,3.0000*%

%LPD*%
G36*
X22098Y0D02*
G01*
X18186Y762D01*
X14935Y2997D01*
X12700Y6248D01*
X11938Y10160D01*
X11938Y13277850D01*
X12700Y13281761D01*
X14935Y13285063D01*
X18186Y13287248D01*
X22098Y13288010D01*
X48241915Y13288010D01*
X48245776Y13287248D01*
X48249078Y13285063D01*
X48251262Y13281761D01*
X48252075Y13277850D01*
X48252075Y10160D01*
X48251262Y6248D01*
X48249078Y2997D01*
X48245776Y762D01*
X48241915Y0D01*
G37*

%LPC*%
G36*
X36398758Y4800092D02*
G01*
X39953641Y4800092D01*
X39959940Y4800803D01*
X39965426Y4802733D01*
X39970303Y4805781D01*
X39974418Y4809896D01*
X39977466Y4814773D01*
X39979396Y4820259D01*
X39980108Y4826558D01*
X39980108Y8381441D01*
X39979396Y8387740D01*
X39977466Y8393226D01*
X39974418Y8398103D01*
X39970303Y8402218D01*
X39965426Y8405266D01*
X39959940Y8407196D01*
X39953641Y8407908D01*
X36398758Y8407908D01*
X36392459Y8407196D01*
X36386973Y8405266D01*
X36382096Y8402218D01*
X36377981Y8398103D01*
X36374933Y8393226D01*
X36373003Y8387740D01*
X36372292Y8381441D01*
X36372292Y4826558D01*
X36373003Y4820259D01*
X36374933Y4814773D01*
X36377981Y4809896D01*
X36382096Y4805781D01*
X36386973Y4802733D01*
X36392459Y4800803D01*
G37*
G36*
X20345958Y736092D02*
G01*
X23900841Y736092D01*
X23907140Y736803D01*
X23912626Y738682D01*
X23917503Y741781D01*
X23921618Y745896D01*
X23924666Y750773D01*
X23926596Y756259D01*
X23927308Y762558D01*
X23927308Y4317441D01*
X23926596Y4323740D01*
X23924666Y4329226D01*
X23921618Y4334103D01*
X23917503Y4338218D01*
X23912626Y4341266D01*
X23907140Y4343196D01*
X23900841Y4343908D01*
X20345958Y4343908D01*
X20339659Y4343196D01*
X20334173Y4341266D01*
X20329296Y4338218D01*
X20325181Y4334103D01*
X20322133Y4329226D01*
X20320203Y4323740D01*
X20319492Y4317441D01*
X20319492Y762558D01*
X20320203Y756259D01*
X20322133Y750773D01*
X20325181Y745896D01*
X20329296Y741781D01*
X20334173Y738682D01*
X20339659Y736803D01*
G37*
G36*
X28372358Y736092D02*
G01*
X31927241Y736092D01*
X31933540Y736803D01*
X31939026Y738733D01*
X31943903Y741781D01*
X31948018Y745896D01*
X31951066Y750773D01*
X31952996Y756259D01*
X31953708Y762558D01*
X31953708Y4317441D01*
X31952996Y4323740D01*
X31951066Y4329226D01*
X31948018Y4334103D01*
X31943903Y4338218D01*
X31939026Y4341266D01*
X31933540Y4343196D01*
X31927241Y4343908D01*
X28372358Y4343908D01*
X28366059Y4343196D01*
X28360573Y4341266D01*
X28355696Y4338218D01*
X28351581Y4334103D01*
X28348533Y4329226D01*
X28346603Y4323740D01*
X28345892Y4317441D01*
X28345892Y762558D01*
X28346603Y756259D01*
X28348533Y750773D01*
X28351581Y745896D01*
X28355696Y741781D01*
X28360573Y738733D01*
X28366059Y736803D01*
G37*
G36*
X16332758Y736092D02*
G01*
X19887641Y736092D01*
X19893940Y736803D01*
X19899426Y738682D01*
X19904303Y741781D01*
X19908418Y745896D01*
X19911466Y750773D01*
X19913396Y756259D01*
X19914108Y762558D01*
X19914108Y4317441D01*
X19913396Y4323740D01*
X19911466Y4329226D01*
X19908418Y4334103D01*
X19904303Y4338218D01*
X19899426Y4341266D01*
X19893940Y4343196D01*
X19887641Y4343908D01*
X16332758Y4343908D01*
X16326459Y4343196D01*
X16320973Y4341266D01*
X16316096Y4338218D01*
X16311981Y4334103D01*
X16308933Y4329226D01*
X16307003Y4323740D01*
X16306292Y4317441D01*
X16306292Y762558D01*
X16307003Y756259D01*
X16308933Y750773D01*
X16311981Y745896D01*
X16316096Y741781D01*
X16320973Y738682D01*
X16326459Y736803D01*
G37*
G36*
X32385558Y736092D02*
G01*
X35940441Y736092D01*
X35946740Y736803D01*
X35952226Y738733D01*
X35957103Y741781D01*
X35961218Y745896D01*
X35964266Y750773D01*
X35966196Y756259D01*
X35966908Y762558D01*
X35966908Y4317441D01*
X35966196Y4323740D01*
X35964266Y4329226D01*
X35961218Y4334103D01*
X35957103Y4338218D01*
X35952226Y4341266D01*
X35946740Y4343196D01*
X35940441Y4343908D01*
X32385558Y4343908D01*
X32379259Y4343196D01*
X32373773Y4341266D01*
X32368896Y4338218D01*
X32364781Y4334103D01*
X32361733Y4329226D01*
X32359803Y4323740D01*
X32359092Y4317441D01*
X32359092Y762558D01*
X32359803Y756259D01*
X32361733Y750773D01*
X32364781Y745896D01*
X32368896Y741781D01*
X32373773Y738733D01*
X32379259Y736803D01*
G37*
G36*
X12319558Y736092D02*
G01*
X15874441Y736092D01*
X15880740Y736803D01*
X15886226Y738682D01*
X15891103Y741781D01*
X15895218Y745896D01*
X15898266Y750773D01*
X15900196Y756259D01*
X15900907Y762558D01*
X15900907Y4317441D01*
X15900196Y4323740D01*
X15898266Y4329226D01*
X15895218Y4334103D01*
X15891103Y4338218D01*
X15886226Y4341266D01*
X15880740Y4343196D01*
X15874441Y4343908D01*
X12319558Y4343908D01*
X12313259Y4343196D01*
X12307773Y4341266D01*
X12302896Y4338218D01*
X12298781Y4334103D01*
X12295733Y4329226D01*
X12293803Y4323740D01*
X12293092Y4317441D01*
X12293092Y762558D01*
X12293803Y756259D01*
X12295733Y750773D01*
X12298781Y745896D01*
X12302896Y741781D01*
X12307773Y738682D01*
X12313259Y736803D01*
G37*
G36*
X36398758Y736092D02*
G01*
X39953641Y736092D01*
X39959940Y736803D01*
X39965426Y738733D01*
X39970303Y741781D01*
X39974418Y745896D01*
X39977466Y750773D01*
X39979396Y756259D01*
X39980108Y762558D01*
X39980108Y4317441D01*
X39979396Y4323740D01*
X39977466Y4329226D01*
X39974418Y4334103D01*
X39970303Y4338218D01*
X39965426Y4341266D01*
X39959940Y4343196D01*
X39953641Y4343908D01*
X36398758Y4343908D01*
X36392459Y4343196D01*
X36386973Y4341266D01*
X36382096Y4338218D01*
X36377981Y4334103D01*
X36374933Y4329226D01*
X36373003Y4323740D01*
X36372292Y4317441D01*
X36372292Y762558D01*
X36373003Y756259D01*
X36374933Y750773D01*
X36377981Y745896D01*
X36382096Y741781D01*
X36386973Y738733D01*
X36392459Y736803D01*
G37*
G36*
X8306358Y736092D02*
G01*
X11861241Y736092D01*
X11867540Y736803D01*
X11873026Y738682D01*
X11877903Y741781D01*
X11882018Y745896D01*
X11885066Y750773D01*
X11886996Y756259D01*
X11887708Y762558D01*
X11887708Y4317441D01*
X11886996Y4323740D01*
X11885066Y4329226D01*
X11882018Y4334103D01*
X11877903Y4338218D01*
X11873026Y4341266D01*
X11867540Y4343196D01*
X11861241Y4343908D01*
X8306358Y4343908D01*
X8300059Y4343196D01*
X8294573Y4341266D01*
X8289696Y4338218D01*
X8285581Y4334103D01*
X8282533Y4329226D01*
X8280603Y4323740D01*
X8279892Y4317441D01*
X8279892Y762558D01*
X8280603Y756259D01*
X8282533Y750773D01*
X8285581Y745896D01*
X8289696Y741781D01*
X8294573Y738682D01*
X8300059Y736803D01*
G37*
G36*
X40411958Y736092D02*
G01*
X43966841Y736092D01*
X43973140Y736803D01*
X43978626Y738733D01*
X43983503Y741781D01*
X43987618Y745896D01*
X43990666Y750773D01*
X43992596Y756259D01*
X43993308Y762558D01*
X43993308Y4317441D01*
X43992596Y4323740D01*
X43990666Y4329226D01*
X43987618Y4334103D01*
X43983503Y4338218D01*
X43978626Y4341266D01*
X43973140Y4343196D01*
X43966841Y4343908D01*
X40411958Y4343908D01*
X40405659Y4343196D01*
X40400173Y4341266D01*
X40395296Y4338218D01*
X40391181Y4334103D01*
X40388133Y4329226D01*
X40386203Y4323740D01*
X40385492Y4317441D01*
X40385492Y762558D01*
X40386203Y756259D01*
X40388133Y750773D01*
X40391181Y745896D01*
X40395296Y741781D01*
X40400173Y738733D01*
X40405659Y736803D01*
G37*
G36*
X4293158Y736092D02*
G01*
X7848041Y736092D01*
X7854340Y736803D01*
X7859826Y738682D01*
X7864703Y741781D01*
X7868818Y745896D01*
X7871866Y750773D01*
X7873796Y756259D01*
X7874508Y762558D01*
X7874508Y4317441D01*
X7873796Y4323740D01*
X7871866Y4329226D01*
X7868818Y4334103D01*
X7864703Y4338218D01*
X7859826Y4341266D01*
X7854340Y4343196D01*
X7848041Y4343908D01*
X4293158Y4343908D01*
X4286859Y4343196D01*
X4281373Y4341266D01*
X4276496Y4338218D01*
X4272381Y4334103D01*
X4269333Y4329226D01*
X4267403Y4323740D01*
X4266692Y4317441D01*
X4266692Y762558D01*
X4267403Y756259D01*
X4269333Y750773D01*
X4272381Y745896D01*
X4276496Y741781D01*
X4281373Y738682D01*
X4286859Y736803D01*
G37*
G36*
X47233687Y3458921D02*
G01*
X47238513Y3459073D01*
X47686061Y3459073D01*
X47690887Y3458921D01*
X47717151Y3459886D01*
X47743211Y3462832D01*
X47769018Y3467709D01*
X47794367Y3474516D01*
X47819157Y3483152D01*
X47843236Y3493668D01*
X47866452Y3505962D01*
X47888652Y3519932D01*
X47909784Y3535476D01*
X47929698Y3552647D01*
X47948291Y3571189D01*
X47965410Y3591102D01*
X47981006Y3612235D01*
X47994976Y3634435D01*
X48007219Y3657650D01*
X48017734Y3681729D01*
X48026421Y3706520D01*
X48033178Y3731869D01*
X48038054Y3757676D01*
X48041001Y3783787D01*
X48042017Y3810000D01*
X48041001Y3836212D01*
X48038054Y3862324D01*
X48033178Y3888130D01*
X48026421Y3913479D01*
X48017734Y3938270D01*
X48007219Y3962349D01*
X47994976Y3985564D01*
X47981006Y4007764D01*
X47965410Y4028897D01*
X47948291Y4048810D01*
X47929698Y4067352D01*
X47909784Y4084523D01*
X47888652Y4100068D01*
X47866452Y4114037D01*
X47843236Y4126331D01*
X47819157Y4136847D01*
X47794367Y4145483D01*
X47769018Y4152290D01*
X47743211Y4157167D01*
X47717151Y4160113D01*
X47690887Y4161078D01*
X47685401Y4160875D01*
X47239174Y4160875D01*
X47233687Y4161078D01*
X47207474Y4160113D01*
X47181363Y4157167D01*
X47155557Y4152290D01*
X47130208Y4145483D01*
X47105417Y4136847D01*
X47081338Y4126331D01*
X47058122Y4114037D01*
X47035923Y4100068D01*
X47014790Y4084523D01*
X46994876Y4067352D01*
X46976334Y4048810D01*
X46959215Y4028897D01*
X46943619Y4007764D01*
X46929649Y3985564D01*
X46917356Y3962349D01*
X46906891Y3938270D01*
X46898204Y3913479D01*
X46891397Y3888130D01*
X46886520Y3862324D01*
X46883574Y3836212D01*
X46882608Y3810000D01*
X46883574Y3783787D01*
X46886520Y3757676D01*
X46891397Y3731869D01*
X46898204Y3706520D01*
X46906891Y3681729D01*
X46917356Y3657650D01*
X46929649Y3634435D01*
X46943619Y3612235D01*
X46959215Y3591102D01*
X46976334Y3571189D01*
X46994876Y3552647D01*
X47014790Y3535476D01*
X47035923Y3519932D01*
X47058122Y3505962D01*
X47081338Y3493668D01*
X47105417Y3483152D01*
X47130208Y3474516D01*
X47155557Y3467709D01*
X47181363Y3462832D01*
X47207474Y3459886D01*
G37*
G36*
X579221Y9135821D02*
G01*
X583996Y9135973D01*
X1031951Y9135973D01*
X1036421Y9135821D01*
X1062634Y9136786D01*
X1088745Y9139732D01*
X1114501Y9144609D01*
X1139901Y9151416D01*
X1164691Y9160052D01*
X1188720Y9170568D01*
X1211935Y9182862D01*
X1234186Y9196832D01*
X1255318Y9212376D01*
X1275232Y9229547D01*
X1293774Y9248089D01*
X1310894Y9268002D01*
X1326489Y9289135D01*
X1340459Y9311335D01*
X1352753Y9334550D01*
X1363218Y9358630D01*
X1371904Y9383420D01*
X1378712Y9408769D01*
X1383588Y9434576D01*
X1386535Y9460687D01*
X1387500Y9486900D01*
X1386535Y9513112D01*
X1383588Y9539224D01*
X1378712Y9565030D01*
X1371904Y9590379D01*
X1363218Y9615170D01*
X1352753Y9639249D01*
X1340459Y9662464D01*
X1326489Y9684664D01*
X1310894Y9705797D01*
X1293774Y9725710D01*
X1275232Y9744252D01*
X1255318Y9761423D01*
X1234186Y9776968D01*
X1211935Y9790938D01*
X1188720Y9803231D01*
X1164691Y9813747D01*
X1139901Y9822383D01*
X1114501Y9829190D01*
X1088745Y9834067D01*
X1062634Y9837013D01*
X1036421Y9837978D01*
X1030884Y9837775D01*
X584708Y9837775D01*
X579221Y9837978D01*
X552958Y9837013D01*
X526846Y9834067D01*
X501091Y9829190D01*
X475691Y9822383D01*
X450951Y9813747D01*
X426872Y9803231D01*
X403656Y9790938D01*
X381406Y9776968D01*
X360273Y9761423D01*
X340410Y9744252D01*
X321818Y9725710D01*
X304698Y9705797D01*
X289102Y9684664D01*
X275132Y9662464D01*
X262890Y9639249D01*
X252374Y9615170D01*
X243687Y9590379D01*
X236880Y9565030D01*
X232003Y9539224D01*
X229057Y9513112D01*
X228092Y9486900D01*
X229057Y9460687D01*
X232003Y9434576D01*
X236880Y9408769D01*
X243687Y9383420D01*
X252374Y9358630D01*
X262890Y9334550D01*
X275132Y9311335D01*
X289102Y9289135D01*
X304698Y9268002D01*
X321818Y9248089D01*
X340410Y9229547D01*
X360273Y9212376D01*
X381406Y9196832D01*
X403656Y9182862D01*
X426872Y9170568D01*
X450951Y9160052D01*
X475691Y9151416D01*
X501091Y9144609D01*
X526846Y9139732D01*
X552958Y9136786D01*
G37*
G36*
X579221Y3458921D02*
G01*
X583996Y3459073D01*
X1031595Y3459073D01*
X1036421Y3458921D01*
X1062634Y3459886D01*
X1088745Y3462832D01*
X1114501Y3467709D01*
X1139901Y3474516D01*
X1164691Y3483152D01*
X1188720Y3493668D01*
X1211935Y3505962D01*
X1234186Y3519932D01*
X1255318Y3535476D01*
X1275232Y3552647D01*
X1293774Y3571189D01*
X1310894Y3591102D01*
X1326489Y3612235D01*
X1340459Y3634435D01*
X1352753Y3657650D01*
X1363218Y3681729D01*
X1371904Y3706520D01*
X1378712Y3731869D01*
X1383588Y3757676D01*
X1386535Y3783787D01*
X1387500Y3810000D01*
X1386535Y3836212D01*
X1383588Y3862324D01*
X1378712Y3888130D01*
X1371904Y3913479D01*
X1363218Y3938270D01*
X1352753Y3962349D01*
X1340459Y3985564D01*
X1326489Y4007764D01*
X1310894Y4028897D01*
X1293774Y4048810D01*
X1275232Y4067352D01*
X1255318Y4084523D01*
X1234186Y4100068D01*
X1211935Y4114037D01*
X1188720Y4126331D01*
X1164691Y4136847D01*
X1139901Y4145483D01*
X1114501Y4152290D01*
X1088745Y4157167D01*
X1062634Y4160113D01*
X1036421Y4161078D01*
X1030884Y4160875D01*
X584708Y4160875D01*
X579221Y4161078D01*
X552958Y4160113D01*
X526846Y4157167D01*
X501091Y4152290D01*
X475691Y4145483D01*
X450951Y4136847D01*
X426872Y4126331D01*
X403656Y4114037D01*
X381406Y4100068D01*
X360273Y4084523D01*
X340410Y4067352D01*
X321818Y4048810D01*
X304698Y4028897D01*
X289102Y4007764D01*
X275132Y3985564D01*
X262890Y3962349D01*
X252374Y3938270D01*
X243687Y3913479D01*
X236880Y3888130D01*
X232003Y3862324D01*
X229057Y3836212D01*
X228092Y3810000D01*
X229057Y3783787D01*
X232003Y3757676D01*
X236880Y3731869D01*
X243687Y3706520D01*
X252374Y3681729D01*
X262890Y3657650D01*
X275132Y3634435D01*
X289102Y3612235D01*
X304698Y3591102D01*
X321818Y3571189D01*
X340410Y3552647D01*
X360273Y3535476D01*
X381406Y3519932D01*
X403656Y3505962D01*
X426872Y3493668D01*
X450951Y3483152D01*
X475691Y3474516D01*
X501091Y3467709D01*
X526846Y3462832D01*
X552958Y3459886D01*
G37*
G36*
X47233687Y9135821D02*
G01*
X47238513Y9135973D01*
X47686061Y9135973D01*
X47690887Y9135821D01*
X47717151Y9136786D01*
X47743211Y9139732D01*
X47769018Y9144609D01*
X47794367Y9151416D01*
X47819157Y9160052D01*
X47843236Y9170568D01*
X47866452Y9182862D01*
X47888652Y9196832D01*
X47909784Y9212376D01*
X47929698Y9229547D01*
X47948291Y9248089D01*
X47965410Y9268002D01*
X47981006Y9289135D01*
X47994976Y9311335D01*
X48007219Y9334550D01*
X48017734Y9358630D01*
X48026421Y9383420D01*
X48033178Y9408769D01*
X48038054Y9434576D01*
X48041001Y9460687D01*
X48042017Y9486900D01*
X48041001Y9513112D01*
X48038054Y9539224D01*
X48033178Y9565030D01*
X48026421Y9590379D01*
X48017734Y9615170D01*
X48007219Y9639249D01*
X47994976Y9662464D01*
X47981006Y9684664D01*
X47965410Y9705797D01*
X47948291Y9725710D01*
X47929698Y9744252D01*
X47909784Y9761423D01*
X47888652Y9776968D01*
X47866452Y9790938D01*
X47843236Y9803231D01*
X47819157Y9813747D01*
X47794367Y9822383D01*
X47769018Y9829190D01*
X47743211Y9834067D01*
X47717151Y9837013D01*
X47690887Y9837978D01*
X47685401Y9837775D01*
X47239174Y9837775D01*
X47233687Y9837978D01*
X47207474Y9837013D01*
X47181363Y9834067D01*
X47155557Y9829190D01*
X47130208Y9822383D01*
X47105417Y9813747D01*
X47081338Y9803231D01*
X47058122Y9790938D01*
X47035923Y9776968D01*
X47014790Y9761423D01*
X46994876Y9744252D01*
X46976334Y9725710D01*
X46959215Y9705797D01*
X46943619Y9684664D01*
X46929649Y9662464D01*
X46917356Y9639249D01*
X46906891Y9615170D01*
X46898204Y9590379D01*
X46891397Y9565030D01*
X46886520Y9539224D01*
X46883574Y9513112D01*
X46882608Y9486900D01*
X46883574Y9460687D01*
X46886520Y9434576D01*
X46891397Y9408769D01*
X46898204Y9383420D01*
X46906891Y9358630D01*
X46917356Y9334550D01*
X46929649Y9311335D01*
X46943619Y9289135D01*
X46959215Y9268002D01*
X46976334Y9248089D01*
X46994876Y9229547D01*
X47014790Y9212376D01*
X47035923Y9196832D01*
X47058122Y9182862D01*
X47081338Y9170568D01*
X47105417Y9160052D01*
X47130208Y9151416D01*
X47155557Y9144609D01*
X47181363Y9139732D01*
X47207474Y9136786D01*
G37*
G36*
X24359158Y8864092D02*
G01*
X27914041Y8864092D01*
X27920340Y8864803D01*
X27925826Y8866733D01*
X27930703Y8869781D01*
X27934818Y8873896D01*
X27937866Y8878773D01*
X27939796Y8884259D01*
X27940508Y8890558D01*
X27940508Y12445441D01*
X27939796Y12451740D01*
X27937866Y12457226D01*
X27934818Y12462103D01*
X27930703Y12466218D01*
X27925826Y12469266D01*
X27920340Y12471196D01*
X27914041Y12471908D01*
X24359158Y12471908D01*
X24352859Y12471196D01*
X24347373Y12469266D01*
X24342496Y12466218D01*
X24338381Y12462103D01*
X24335333Y12457226D01*
X24333403Y12451740D01*
X24332692Y12445441D01*
X24332692Y8890558D01*
X24333403Y8884259D01*
X24335333Y8878773D01*
X24338381Y8873896D01*
X24342496Y8869781D01*
X24347373Y8866733D01*
X24352859Y8864803D01*
G37*
G36*
X20345958Y8864092D02*
G01*
X23900841Y8864092D01*
X23907140Y8864803D01*
X23912626Y8866682D01*
X23917503Y8869781D01*
X23921618Y8873896D01*
X23924666Y8878773D01*
X23926596Y8884259D01*
X23927308Y8890558D01*
X23927308Y12445441D01*
X23926596Y12451740D01*
X23924666Y12457226D01*
X23921618Y12462103D01*
X23917503Y12466218D01*
X23912626Y12469266D01*
X23907140Y12471196D01*
X23900841Y12471908D01*
X20345958Y12471908D01*
X20339659Y12471196D01*
X20334173Y12469266D01*
X20329296Y12466218D01*
X20325181Y12462103D01*
X20322133Y12457226D01*
X20320203Y12451740D01*
X20319492Y12445441D01*
X20319492Y8890558D01*
X20320203Y8884259D01*
X20322133Y8878773D01*
X20325181Y8873896D01*
X20329296Y8869781D01*
X20334173Y8866682D01*
X20339659Y8864803D01*
G37*
G36*
X28372358Y4800092D02*
G01*
X31927241Y4800092D01*
X31933540Y4800803D01*
X31939026Y4802733D01*
X31943903Y4805781D01*
X31948018Y4809896D01*
X31951066Y4814773D01*
X31952996Y4820259D01*
X31953708Y4826558D01*
X31953708Y8381441D01*
X31952996Y8387740D01*
X31951066Y8393226D01*
X31948018Y8398103D01*
X31943903Y8402218D01*
X31939026Y8405266D01*
X31933540Y8407196D01*
X31927241Y8407908D01*
X28372358Y8407908D01*
X28366059Y8407196D01*
X28360573Y8405266D01*
X28355696Y8402218D01*
X28351581Y8398103D01*
X28348533Y8393226D01*
X28346603Y8387740D01*
X28345892Y8381441D01*
X28345892Y4826558D01*
X28346603Y4820259D01*
X28348533Y4814773D01*
X28351581Y4809896D01*
X28355696Y4805781D01*
X28360573Y4802733D01*
X28366059Y4800803D01*
G37*
G36*
X16332758Y4800092D02*
G01*
X19887641Y4800092D01*
X19893940Y4800803D01*
X19899426Y4802682D01*
X19904303Y4805781D01*
X19908418Y4809896D01*
X19911466Y4814773D01*
X19913396Y4820259D01*
X19914108Y4826558D01*
X19914108Y8381441D01*
X19913396Y8387740D01*
X19911466Y8393226D01*
X19908418Y8398103D01*
X19904303Y8402218D01*
X19899426Y8405266D01*
X19893940Y8407196D01*
X19887641Y8407908D01*
X16332758Y8407908D01*
X16326459Y8407196D01*
X16320973Y8405266D01*
X16316096Y8402218D01*
X16311981Y8398103D01*
X16308933Y8393226D01*
X16307003Y8387740D01*
X16306292Y8381441D01*
X16306292Y4826558D01*
X16307003Y4820259D01*
X16308933Y4814773D01*
X16311981Y4809896D01*
X16316096Y4805781D01*
X16320973Y4802682D01*
X16326459Y4800803D01*
G37*
G36*
X32385558Y4800092D02*
G01*
X35940441Y4800092D01*
X35946740Y4800803D01*
X35952226Y4802733D01*
X35957103Y4805781D01*
X35961218Y4809896D01*
X35964266Y4814773D01*
X35966196Y4820259D01*
X35966908Y4826558D01*
X35966908Y8381441D01*
X35966196Y8387740D01*
X35964266Y8393226D01*
X35961218Y8398103D01*
X35957103Y8402218D01*
X35952226Y8405266D01*
X35946740Y8407196D01*
X35940441Y8407908D01*
X32385558Y8407908D01*
X32379259Y8407196D01*
X32373773Y8405266D01*
X32368896Y8402218D01*
X32364781Y8398103D01*
X32361733Y8393226D01*
X32359803Y8387740D01*
X32359092Y8381441D01*
X32359092Y4826558D01*
X32359803Y4820259D01*
X32361733Y4814773D01*
X32364781Y4809896D01*
X32368896Y4805781D01*
X32373773Y4802733D01*
X32379259Y4800803D01*
G37*
G36*
X12319558Y4800092D02*
G01*
X15874441Y4800092D01*
X15880740Y4800803D01*
X15886226Y4802682D01*
X15891103Y4805781D01*
X15895218Y4809896D01*
X15898266Y4814773D01*
X15900196Y4820259D01*
X15900907Y4826558D01*
X15900907Y8381441D01*
X15900196Y8387740D01*
X15898266Y8393226D01*
X15895218Y8398103D01*
X15891103Y8402218D01*
X15886226Y8405266D01*
X15880740Y8407196D01*
X15874441Y8407908D01*
X12319558Y8407908D01*
X12313259Y8407196D01*
X12307773Y8405266D01*
X12302896Y8402218D01*
X12298781Y8398103D01*
X12295733Y8393226D01*
X12293803Y8387740D01*
X12293092Y8381441D01*
X12293092Y4826558D01*
X12293803Y4820259D01*
X12295733Y4814773D01*
X12298781Y4809896D01*
X12302896Y4805781D01*
X12307773Y4802682D01*
X12313259Y4800803D01*
G37*
G36*
X24359158Y736092D02*
G01*
X27914041Y736092D01*
X27920340Y736803D01*
X27925826Y738733D01*
X27930703Y741781D01*
X27934818Y745896D01*
X27937866Y750773D01*
X27939796Y756259D01*
X27940508Y762558D01*
X27940508Y4317441D01*
X27939796Y4323740D01*
X27937866Y4329226D01*
X27934818Y4334103D01*
X27930703Y4338218D01*
X27925826Y4341266D01*
X27920340Y4343196D01*
X27914041Y4343908D01*
X24359158Y4343908D01*
X24352859Y4343196D01*
X24347373Y4341266D01*
X24342496Y4338218D01*
X24338381Y4334103D01*
X24335333Y4329226D01*
X24333403Y4323740D01*
X24332692Y4317441D01*
X24332692Y762558D01*
X24333403Y756259D01*
X24335333Y750773D01*
X24338381Y745896D01*
X24342496Y741781D01*
X24347373Y738733D01*
X24352859Y736803D01*
G37*
G36*
X8306358Y4800092D02*
G01*
X11861241Y4800092D01*
X11867540Y4800803D01*
X11873026Y4802682D01*
X11877903Y4805781D01*
X11882018Y4809896D01*
X11885066Y4814773D01*
X11886996Y4820259D01*
X11887708Y4826558D01*
X11887708Y8381441D01*
X11886996Y8387740D01*
X11885066Y8393226D01*
X11882018Y8398103D01*
X11877903Y8402218D01*
X11873026Y8405266D01*
X11867540Y8407196D01*
X11861241Y8407908D01*
X8306358Y8407908D01*
X8300059Y8407196D01*
X8294573Y8405266D01*
X8289696Y8402218D01*
X8285581Y8398103D01*
X8282533Y8393226D01*
X8280603Y8387740D01*
X8279892Y8381441D01*
X8279892Y4826558D01*
X8280603Y4820259D01*
X8282533Y4814773D01*
X8285581Y4809896D01*
X8289696Y4805781D01*
X8294573Y4802682D01*
X8300059Y4800803D01*
G37*
G36*
X20345958Y4800092D02*
G01*
X23900841Y4800092D01*
X23907140Y4800803D01*
X23912626Y4802682D01*
X23917503Y4805781D01*
X23921618Y4809896D01*
X23924666Y4814773D01*
X23926596Y4820259D01*
X23927308Y4826558D01*
X23927308Y8381441D01*
X23926596Y8387740D01*
X23924666Y8393226D01*
X23921618Y8398103D01*
X23917503Y8402218D01*
X23912626Y8405266D01*
X23907140Y8407196D01*
X23900841Y8407908D01*
X20345958Y8407908D01*
X20339659Y8407196D01*
X20334173Y8405266D01*
X20329296Y8402218D01*
X20325181Y8398103D01*
X20322133Y8393226D01*
X20320203Y8387740D01*
X20319492Y8381441D01*
X20319492Y4826558D01*
X20320203Y4820259D01*
X20322133Y4814773D01*
X20325181Y4809896D01*
X20329296Y4805781D01*
X20334173Y4802682D01*
X20339659Y4800803D01*
G37*
G36*
X24359158Y4800092D02*
G01*
X27914041Y4800092D01*
X27920340Y4800803D01*
X27925826Y4802733D01*
X27930703Y4805781D01*
X27934818Y4809896D01*
X27937866Y4814773D01*
X27939796Y4820259D01*
X27940508Y4826558D01*
X27940508Y8381441D01*
X27939796Y8387740D01*
X27937866Y8393226D01*
X27934818Y8398103D01*
X27930703Y8402218D01*
X27925826Y8405266D01*
X27920340Y8407196D01*
X27914041Y8407908D01*
X24359158Y8407908D01*
X24352859Y8407196D01*
X24347373Y8405266D01*
X24342496Y8402218D01*
X24338381Y8398103D01*
X24335333Y8393226D01*
X24333403Y8387740D01*
X24332692Y8381441D01*
X24332692Y4826558D01*
X24333403Y4820259D01*
X24335333Y4814773D01*
X24338381Y4809896D01*
X24342496Y4805781D01*
X24347373Y4802733D01*
X24352859Y4800803D01*
G37*
G36*
X40411958Y4800092D02*
G01*
X43966841Y4800092D01*
X43973140Y4800803D01*
X43978626Y4802733D01*
X43983503Y4805781D01*
X43987618Y4809896D01*
X43990666Y4814773D01*
X43992596Y4820259D01*
X43993308Y4826558D01*
X43993308Y8381441D01*
X43992596Y8387740D01*
X43990666Y8393226D01*
X43987618Y8398103D01*
X43983503Y8402218D01*
X43978626Y8405266D01*
X43973140Y8407196D01*
X43966841Y8407908D01*
X40411958Y8407908D01*
X40405659Y8407196D01*
X40400173Y8405266D01*
X40395296Y8402218D01*
X40391181Y8398103D01*
X40388133Y8393226D01*
X40386203Y8387740D01*
X40385492Y8381441D01*
X40385492Y4826558D01*
X40386203Y4820259D01*
X40388133Y4814773D01*
X40391181Y4809896D01*
X40395296Y4805781D01*
X40400173Y4802733D01*
X40405659Y4800803D01*
G37*
G36*
X4293158Y4800092D02*
G01*
X7848041Y4800092D01*
X7854340Y4800803D01*
X7859826Y4802682D01*
X7864703Y4805781D01*
X7868818Y4809896D01*
X7871866Y4814773D01*
X7873796Y4820259D01*
X7874508Y4826558D01*
X7874508Y8381441D01*
X7873796Y8387740D01*
X7871866Y8393226D01*
X7868818Y8398103D01*
X7864703Y8402218D01*
X7859826Y8405266D01*
X7854340Y8407196D01*
X7848041Y8407908D01*
X4293158Y8407908D01*
X4286859Y8407196D01*
X4281373Y8405266D01*
X4276496Y8402218D01*
X4272381Y8398103D01*
X4269333Y8393226D01*
X4267403Y8387740D01*
X4266692Y8381441D01*
X4266692Y4826558D01*
X4267403Y4820259D01*
X4269333Y4814773D01*
X4272381Y4809896D01*
X4276496Y4805781D01*
X4281373Y4802682D01*
X4286859Y4800803D01*
G37*
G36*
X28372358Y8864092D02*
G01*
X31927241Y8864092D01*
X31933540Y8864803D01*
X31939026Y8866733D01*
X31943903Y8869781D01*
X31948018Y8873896D01*
X31951066Y8878773D01*
X31952996Y8884259D01*
X31953708Y8890558D01*
X31953708Y12445441D01*
X31952996Y12451740D01*
X31951066Y12457226D01*
X31948018Y12462103D01*
X31943903Y12466218D01*
X31939026Y12469266D01*
X31933540Y12471196D01*
X31927241Y12471908D01*
X28372358Y12471908D01*
X28366059Y12471196D01*
X28360573Y12469266D01*
X28355696Y12466218D01*
X28351581Y12462103D01*
X28348533Y12457226D01*
X28346603Y12451740D01*
X28345892Y12445441D01*
X28345892Y8890558D01*
X28346603Y8884259D01*
X28348533Y8878773D01*
X28351581Y8873896D01*
X28355696Y8869781D01*
X28360573Y8866733D01*
X28366059Y8864803D01*
G37*
G36*
X16332758Y8864092D02*
G01*
X19887641Y8864092D01*
X19893940Y8864803D01*
X19899426Y8866682D01*
X19904303Y8869781D01*
X19908418Y8873896D01*
X19911466Y8878773D01*
X19913396Y8884259D01*
X19914108Y8890558D01*
X19914108Y12445441D01*
X19913396Y12451740D01*
X19911466Y12457226D01*
X19908418Y12462103D01*
X19904303Y12466218D01*
X19899426Y12469266D01*
X19893940Y12471196D01*
X19887641Y12471908D01*
X16332758Y12471908D01*
X16326459Y12471196D01*
X16320973Y12469266D01*
X16316096Y12466218D01*
X16311981Y12462103D01*
X16308933Y12457226D01*
X16307003Y12451740D01*
X16306292Y12445441D01*
X16306292Y8890558D01*
X16307003Y8884259D01*
X16308933Y8878773D01*
X16311981Y8873896D01*
X16316096Y8869781D01*
X16320973Y8866682D01*
X16326459Y8864803D01*
G37*
G36*
X32385558Y8864092D02*
G01*
X35940441Y8864092D01*
X35946740Y8864803D01*
X35952226Y8866733D01*
X35957103Y8869781D01*
X35961218Y8873896D01*
X35964266Y8878773D01*
X35966196Y8884259D01*
X35966908Y8890558D01*
X35966908Y12445441D01*
X35966196Y12451740D01*
X35964266Y12457226D01*
X35961218Y12462103D01*
X35957103Y12466218D01*
X35952226Y12469266D01*
X35946740Y12471196D01*
X35940441Y12471908D01*
X32385558Y12471908D01*
X32379259Y12471196D01*
X32373773Y12469266D01*
X32368896Y12466218D01*
X32364781Y12462103D01*
X32361733Y12457226D01*
X32359803Y12451740D01*
X32359092Y12445441D01*
X32359092Y8890558D01*
X32359803Y8884259D01*
X32361733Y8878773D01*
X32364781Y8873896D01*
X32368896Y8869781D01*
X32373773Y8866733D01*
X32379259Y8864803D01*
G37*
G36*
X12319558Y8864092D02*
G01*
X15874441Y8864092D01*
X15880740Y8864803D01*
X15886226Y8866682D01*
X15891103Y8869781D01*
X15895218Y8873896D01*
X15898266Y8878773D01*
X15900196Y8884259D01*
X15900907Y8890558D01*
X15900907Y12445441D01*
X15900196Y12451740D01*
X15898266Y12457226D01*
X15895218Y12462103D01*
X15891103Y12466218D01*
X15886226Y12469266D01*
X15880740Y12471196D01*
X15874441Y12471908D01*
X12319558Y12471908D01*
X12313259Y12471196D01*
X12307773Y12469266D01*
X12302896Y12466218D01*
X12298781Y12462103D01*
X12295733Y12457226D01*
X12293803Y12451740D01*
X12293092Y12445441D01*
X12293092Y8890558D01*
X12293803Y8884259D01*
X12295733Y8878773D01*
X12298781Y8873896D01*
X12302896Y8869781D01*
X12307773Y8866682D01*
X12313259Y8864803D01*
G37*
G36*
X36398758Y8864092D02*
G01*
X39953641Y8864092D01*
X39959940Y8864803D01*
X39965426Y8866733D01*
X39970303Y8869781D01*
X39974418Y8873896D01*
X39977466Y8878773D01*
X39979396Y8884259D01*
X39980108Y8890558D01*
X39980108Y12445441D01*
X39979396Y12451740D01*
X39977466Y12457226D01*
X39974418Y12462103D01*
X39970303Y12466218D01*
X39965426Y12469266D01*
X39959940Y12471196D01*
X39953641Y12471908D01*
X36398758Y12471908D01*
X36392459Y12471196D01*
X36386973Y12469266D01*
X36382096Y12466218D01*
X36377981Y12462103D01*
X36374933Y12457226D01*
X36373003Y12451740D01*
X36372292Y12445441D01*
X36372292Y8890558D01*
X36373003Y8884259D01*
X36374933Y8878773D01*
X36377981Y8873896D01*
X36382096Y8869781D01*
X36386973Y8866733D01*
X36392459Y8864803D01*
G37*
G36*
X8306358Y8864092D02*
G01*
X11861241Y8864092D01*
X11867540Y8864803D01*
X11873026Y8866682D01*
X11877903Y8869781D01*
X11882018Y8873896D01*
X11885066Y8878773D01*
X11886996Y8884259D01*
X11887708Y8890558D01*
X11887708Y12445441D01*
X11886996Y12451740D01*
X11885066Y12457226D01*
X11882018Y12462103D01*
X11877903Y12466218D01*
X11873026Y12469266D01*
X11867540Y12471196D01*
X11861241Y12471908D01*
X8306358Y12471908D01*
X8300059Y12471196D01*
X8294573Y12469266D01*
X8289696Y12466218D01*
X8285581Y12462103D01*
X8282533Y12457226D01*
X8280603Y12451740D01*
X8279892Y12445441D01*
X8279892Y8890558D01*
X8280603Y8884259D01*
X8282533Y8878773D01*
X8285581Y8873896D01*
X8289696Y8869781D01*
X8294573Y8866682D01*
X8300059Y8864803D01*
G37*
G36*
X40411958Y8864092D02*
G01*
X43966841Y8864092D01*
X43973140Y8864803D01*
X43978626Y8866733D01*
X43983503Y8869781D01*
X43987618Y8873896D01*
X43990666Y8878773D01*
X43992596Y8884259D01*
X43993308Y8890558D01*
X43993308Y12445441D01*
X43992596Y12451740D01*
X43990666Y12457226D01*
X43987618Y12462103D01*
X43983503Y12466218D01*
X43978626Y12469266D01*
X43973140Y12471196D01*
X43966841Y12471908D01*
X40411958Y12471908D01*
X40405659Y12471196D01*
X40400173Y12469266D01*
X40395296Y12466218D01*
X40391181Y12462103D01*
X40388133Y12457226D01*
X40386203Y12451740D01*
X40385492Y12445441D01*
X40385492Y8890558D01*
X40386203Y8884259D01*
X40388133Y8878773D01*
X40391181Y8873896D01*
X40395296Y8869781D01*
X40400173Y8866733D01*
X40405659Y8864803D01*
G37*
G36*
X4293158Y8864092D02*
G01*
X7848041Y8864092D01*
X7854340Y8864803D01*
X7859826Y8866682D01*
X7864703Y8869781D01*
X7868818Y8873896D01*
X7871866Y8878773D01*
X7873796Y8884259D01*
X7874508Y8890558D01*
X7874508Y12445441D01*
X7873796Y12451740D01*
X7871866Y12457226D01*
X7868818Y12462103D01*
X7864703Y12466218D01*
X7859826Y12469266D01*
X7854340Y12471196D01*
X7848041Y12471908D01*
X4293158Y12471908D01*
X4286859Y12471196D01*
X4281373Y12469266D01*
X4276496Y12466218D01*
X4272381Y12462103D01*
X4269333Y12457226D01*
X4267403Y12451740D01*
X4266692Y12445441D01*
X4266692Y8890558D01*
X4267403Y8884259D01*
X4269333Y8878773D01*
X4272381Y8873896D01*
X4276496Y8869781D01*
X4281373Y8866682D01*
X4286859Y8864803D01*
G37*

%LPD*%
D10*
G01*
X2794000Y279400D03*
G01*
X2794000Y13004774D03*
G01*
X45466010Y279400D03*
G01*
X45466000Y13004774D03*
G01*
X24129951Y13004774D03*
G01*
X24129951Y279400D03*
G01*
X45465908Y8191489D03*
G01*
X45465908Y5016489D03*
G01*
X2793898Y5016489D03*
G01*
X2793900Y8191489D03*
M02*
