G04 Layer: TopLayer*
G04 EasyEDA v6.5.34, 2023-10-02 19:34:43*
G04 cf508b81bd2f4e7eb0796556658b0c03,5a6b42c53f6a479593ecc07194224c93,10*
G04 Gerber Generator version 0.2*
G04 Scale: 100 percent, Rotated: No, Reflected: No *
G04 Dimensions in millimeters *
G04 leading zeros omitted , absolute positions ,4 integer and 5 decimal *
%FSLAX45Y45*%
%MOMM*%

%ADD10C,3.0000*%

%LPD*%
G36*
X2068068Y25908D02*
G01*
X2064156Y26670D01*
X2060854Y28905D01*
X2058670Y32156D01*
X2057907Y36068D01*
X2057907Y13260832D01*
X2058670Y13264743D01*
X2060905Y13267994D01*
X2064156Y13270230D01*
X2068068Y13270992D01*
X46191932Y13270992D01*
X46195843Y13270230D01*
X46199094Y13267994D01*
X46201330Y13264743D01*
X46202092Y13260832D01*
X46201990Y36068D01*
X46201228Y32156D01*
X46199044Y28905D01*
X46195742Y26670D01*
X46191830Y25908D01*
G37*

%LPC*%
G36*
X36398708Y8864092D02*
G01*
X43966739Y8864092D01*
X43973038Y8864803D01*
X43978525Y8866682D01*
X43983402Y8869781D01*
X43987516Y8873896D01*
X43990615Y8878773D01*
X43992495Y8884208D01*
X43993206Y8890558D01*
X43993206Y12445390D01*
X43992495Y12451740D01*
X43990615Y12457176D01*
X43987516Y12462103D01*
X43983402Y12466167D01*
X43978525Y12469266D01*
X43973038Y12471196D01*
X43966739Y12471908D01*
X36398708Y12471908D01*
X36392358Y12471196D01*
X36386922Y12469266D01*
X36381994Y12466167D01*
X36377930Y12462103D01*
X36374832Y12457176D01*
X36372952Y12451740D01*
X36372241Y12445390D01*
X36372241Y8890558D01*
X36372952Y8884208D01*
X36374832Y8878773D01*
X36377930Y8873896D01*
X36381994Y8869781D01*
X36386922Y8866682D01*
X36392358Y8864803D01*
G37*
G36*
X28372308Y736092D02*
G01*
X35940339Y736092D01*
X35946689Y736803D01*
X35952125Y738733D01*
X35957052Y741781D01*
X35961116Y745896D01*
X35964215Y750773D01*
X35966146Y756259D01*
X35966857Y762558D01*
X35966857Y4317441D01*
X35966146Y4323740D01*
X35964215Y4329226D01*
X35961116Y4334103D01*
X35957052Y4338218D01*
X35952125Y4341266D01*
X35946689Y4343196D01*
X35940339Y4343908D01*
X28372308Y4343908D01*
X28366008Y4343196D01*
X28360522Y4341266D01*
X28355645Y4338218D01*
X28351530Y4334103D01*
X28348482Y4329226D01*
X28346552Y4323740D01*
X28345841Y4317441D01*
X28345841Y762558D01*
X28346552Y756259D01*
X28348482Y750773D01*
X28351530Y745896D01*
X28355645Y741781D01*
X28360522Y738733D01*
X28366008Y736803D01*
G37*
G36*
X20345908Y736092D02*
G01*
X27913990Y736092D01*
X27920289Y736803D01*
X27925776Y738733D01*
X27930652Y741781D01*
X27934767Y745896D01*
X27937815Y750773D01*
X27939746Y756259D01*
X27940457Y762558D01*
X27940457Y4317441D01*
X27939746Y4323740D01*
X27937815Y4329226D01*
X27934767Y4334103D01*
X27930652Y4338218D01*
X27925776Y4341266D01*
X27920289Y4343196D01*
X27913990Y4343908D01*
X20345908Y4343908D01*
X20339608Y4343196D01*
X20334173Y4341266D01*
X20329245Y4338218D01*
X20325181Y4334103D01*
X20322082Y4329226D01*
X20320152Y4323740D01*
X20319441Y4317441D01*
X20319441Y762558D01*
X20320152Y756259D01*
X20322082Y750773D01*
X20325181Y745896D01*
X20329245Y741781D01*
X20334173Y738733D01*
X20339608Y736803D01*
G37*
G36*
X36398708Y736092D02*
G01*
X43966739Y736092D01*
X43973038Y736803D01*
X43978525Y738733D01*
X43983402Y741781D01*
X43987516Y745896D01*
X43990615Y750773D01*
X43992495Y756259D01*
X43993206Y762558D01*
X43993206Y4317441D01*
X43992495Y4323740D01*
X43990615Y4329226D01*
X43987516Y4334103D01*
X43983402Y4338218D01*
X43978525Y4341266D01*
X43973038Y4343196D01*
X43966739Y4343908D01*
X36398708Y4343908D01*
X36392358Y4343196D01*
X36386922Y4341266D01*
X36381994Y4338218D01*
X36377930Y4334103D01*
X36374832Y4329226D01*
X36372952Y4323740D01*
X36372241Y4317441D01*
X36372241Y762558D01*
X36372952Y756259D01*
X36374832Y750773D01*
X36377930Y745896D01*
X36381994Y741781D01*
X36386922Y738733D01*
X36392358Y736803D01*
G37*
G36*
X12319558Y736092D02*
G01*
X19887590Y736092D01*
X19893889Y736803D01*
X19899376Y738733D01*
X19904252Y741781D01*
X19908367Y745896D01*
X19911466Y750773D01*
X19913346Y756259D01*
X19914057Y762558D01*
X19914057Y4317441D01*
X19913346Y4323740D01*
X19911466Y4329226D01*
X19908367Y4334103D01*
X19904252Y4338218D01*
X19899376Y4341266D01*
X19893889Y4343196D01*
X19887590Y4343908D01*
X12319558Y4343908D01*
X12313208Y4343196D01*
X12307773Y4341266D01*
X12302845Y4338218D01*
X12298781Y4334103D01*
X12295682Y4329226D01*
X12293803Y4323740D01*
X12293092Y4317441D01*
X12293092Y762558D01*
X12293803Y756259D01*
X12295682Y750773D01*
X12298781Y745896D01*
X12302845Y741781D01*
X12307773Y738733D01*
X12313208Y736803D01*
G37*
G36*
X28372308Y4800092D02*
G01*
X35940339Y4800092D01*
X35946689Y4800803D01*
X35952125Y4802682D01*
X35957052Y4805781D01*
X35961116Y4809896D01*
X35964215Y4814773D01*
X35966146Y4820259D01*
X35966857Y4826558D01*
X35966857Y8381390D01*
X35966146Y8387740D01*
X35964215Y8393176D01*
X35961116Y8398103D01*
X35957052Y8402167D01*
X35952125Y8405266D01*
X35946689Y8407196D01*
X35940339Y8407908D01*
X28372308Y8407908D01*
X28366008Y8407196D01*
X28360522Y8405266D01*
X28355645Y8402167D01*
X28351530Y8398103D01*
X28348482Y8393176D01*
X28346552Y8387740D01*
X28345841Y8381390D01*
X28345841Y4826558D01*
X28346552Y4820259D01*
X28348482Y4814773D01*
X28351530Y4809896D01*
X28355645Y4805781D01*
X28360522Y4802682D01*
X28366008Y4800803D01*
G37*
G36*
X12319558Y4800092D02*
G01*
X19887590Y4800092D01*
X19893889Y4800803D01*
X19899376Y4802682D01*
X19904252Y4805781D01*
X19908367Y4809896D01*
X19911466Y4814773D01*
X19913346Y4820259D01*
X19914057Y4826558D01*
X19914057Y8381390D01*
X19913346Y8387740D01*
X19911466Y8393176D01*
X19908367Y8398103D01*
X19904252Y8402167D01*
X19899376Y8405266D01*
X19893889Y8407196D01*
X19887590Y8407908D01*
X12319558Y8407908D01*
X12313208Y8407196D01*
X12307773Y8405266D01*
X12302845Y8402167D01*
X12298781Y8398103D01*
X12295682Y8393176D01*
X12293803Y8387740D01*
X12293092Y8381390D01*
X12293092Y4826558D01*
X12293803Y4820259D01*
X12295682Y4814773D01*
X12298781Y4809896D01*
X12302845Y4805781D01*
X12307773Y4802682D01*
X12313208Y4800803D01*
G37*
G36*
X4293158Y736092D02*
G01*
X11861190Y736092D01*
X11867540Y736803D01*
X11872976Y738733D01*
X11877903Y741781D01*
X11881967Y745896D01*
X11885066Y750773D01*
X11886946Y756259D01*
X11887708Y762558D01*
X11887708Y4317441D01*
X11886946Y4323740D01*
X11885066Y4329226D01*
X11881967Y4334103D01*
X11877903Y4338218D01*
X11872976Y4341266D01*
X11867540Y4343196D01*
X11861190Y4343908D01*
X4293158Y4343908D01*
X4286859Y4343196D01*
X4281373Y4341266D01*
X4276496Y4338218D01*
X4272381Y4334103D01*
X4269282Y4329226D01*
X4267403Y4323740D01*
X4266692Y4317441D01*
X4266692Y762558D01*
X4267403Y756259D01*
X4269282Y750773D01*
X4272381Y745896D01*
X4276496Y741781D01*
X4281373Y738733D01*
X4286859Y736803D01*
G37*
G36*
X20345908Y4800092D02*
G01*
X27913990Y4800092D01*
X27920289Y4800803D01*
X27925776Y4802682D01*
X27930652Y4805781D01*
X27934767Y4809896D01*
X27937815Y4814773D01*
X27939746Y4820259D01*
X27940457Y4826558D01*
X27940457Y8381390D01*
X27939746Y8387740D01*
X27937815Y8393176D01*
X27934767Y8398103D01*
X27930652Y8402167D01*
X27925776Y8405266D01*
X27920289Y8407196D01*
X27913990Y8407908D01*
X20345908Y8407908D01*
X20339608Y8407196D01*
X20334173Y8405266D01*
X20329245Y8402167D01*
X20325181Y8398103D01*
X20322082Y8393176D01*
X20320152Y8387740D01*
X20319441Y8381390D01*
X20319441Y4826558D01*
X20320152Y4820259D01*
X20322082Y4814773D01*
X20325181Y4809896D01*
X20329245Y4805781D01*
X20334173Y4802682D01*
X20339608Y4800803D01*
G37*
G36*
X4293158Y4800092D02*
G01*
X11861241Y4800092D01*
X11867540Y4800803D01*
X11873026Y4802682D01*
X11877903Y4805781D01*
X11882018Y4809896D01*
X11885066Y4814773D01*
X11886996Y4820259D01*
X11887708Y4826558D01*
X11887708Y8381390D01*
X11886996Y8387740D01*
X11885066Y8393176D01*
X11882018Y8398103D01*
X11877903Y8402167D01*
X11873026Y8405266D01*
X11867540Y8407196D01*
X11861241Y8407908D01*
X4293158Y8407908D01*
X4286859Y8407196D01*
X4281373Y8405266D01*
X4276496Y8402167D01*
X4272381Y8398103D01*
X4269333Y8393176D01*
X4267403Y8387740D01*
X4266692Y8381390D01*
X4266692Y4826558D01*
X4267403Y4820259D01*
X4269333Y4814773D01*
X4272381Y4809896D01*
X4276496Y4805781D01*
X4281373Y4802682D01*
X4286859Y4800803D01*
G37*
G36*
X45314057Y5498592D02*
G01*
X45617739Y5498592D01*
X45624038Y5499303D01*
X45629525Y5501182D01*
X45634402Y5504281D01*
X45638516Y5508396D01*
X45641615Y5513273D01*
X45643495Y5518759D01*
X45644206Y5525058D01*
X45644206Y7682941D01*
X45643495Y7689240D01*
X45641615Y7694726D01*
X45638516Y7699603D01*
X45634402Y7703718D01*
X45629525Y7706766D01*
X45624038Y7708696D01*
X45617739Y7709408D01*
X45314057Y7709408D01*
X45307758Y7708696D01*
X45302271Y7706766D01*
X45297394Y7703718D01*
X45293280Y7699603D01*
X45290232Y7694726D01*
X45288301Y7689240D01*
X45287590Y7682941D01*
X45287590Y5525058D01*
X45288301Y5518759D01*
X45290232Y5513273D01*
X45293280Y5508396D01*
X45297394Y5504281D01*
X45302271Y5501182D01*
X45307758Y5499303D01*
G37*
G36*
X4293158Y8864092D02*
G01*
X11861190Y8864092D01*
X11867540Y8864803D01*
X11872976Y8866682D01*
X11877903Y8869781D01*
X11881967Y8873845D01*
X11885066Y8878773D01*
X11886996Y8884208D01*
X11887708Y8890558D01*
X11887708Y12445390D01*
X11886996Y12451740D01*
X11885066Y12457176D01*
X11881967Y12462103D01*
X11877903Y12466167D01*
X11872976Y12469266D01*
X11867540Y12471146D01*
X11861190Y12471857D01*
X4293158Y12471857D01*
X4286859Y12471146D01*
X4281373Y12469266D01*
X4276496Y12466167D01*
X4272381Y12462103D01*
X4269282Y12457176D01*
X4267403Y12451740D01*
X4266692Y12445390D01*
X4266692Y8890558D01*
X4267403Y8884208D01*
X4269282Y8878773D01*
X4272381Y8873845D01*
X4276496Y8869781D01*
X4281373Y8866682D01*
X4286859Y8864803D01*
G37*
G36*
X28372308Y8864092D02*
G01*
X35940339Y8864092D01*
X35946689Y8864803D01*
X35952125Y8866682D01*
X35957052Y8869781D01*
X35961116Y8873845D01*
X35964215Y8878773D01*
X35966146Y8884208D01*
X35966857Y8890558D01*
X35966857Y12445390D01*
X35966146Y12451740D01*
X35964215Y12457176D01*
X35961116Y12462103D01*
X35957052Y12466167D01*
X35952125Y12469266D01*
X35946689Y12471146D01*
X35940339Y12471857D01*
X28372308Y12471857D01*
X28366008Y12471146D01*
X28360522Y12469266D01*
X28355645Y12466167D01*
X28351530Y12462103D01*
X28348482Y12457176D01*
X28346552Y12451740D01*
X28345841Y12445390D01*
X28345841Y8890558D01*
X28346552Y8884208D01*
X28348482Y8878773D01*
X28351530Y8873845D01*
X28355645Y8869781D01*
X28360522Y8866682D01*
X28366008Y8864803D01*
G37*
G36*
X12319558Y8864092D02*
G01*
X19887590Y8864092D01*
X19893889Y8864803D01*
X19899376Y8866682D01*
X19904252Y8869781D01*
X19908367Y8873845D01*
X19911466Y8878773D01*
X19913346Y8884208D01*
X19914057Y8890558D01*
X19914057Y12445390D01*
X19913346Y12451740D01*
X19911466Y12457176D01*
X19908367Y12462103D01*
X19904252Y12466167D01*
X19899376Y12469266D01*
X19893889Y12471146D01*
X19887590Y12471857D01*
X12319558Y12471857D01*
X12313208Y12471146D01*
X12307773Y12469266D01*
X12302845Y12466167D01*
X12298781Y12462103D01*
X12295682Y12457176D01*
X12293803Y12451740D01*
X12293092Y12445390D01*
X12293092Y8890558D01*
X12293803Y8884208D01*
X12295682Y8878773D01*
X12298781Y8873845D01*
X12302845Y8869781D01*
X12307773Y8866682D01*
X12313208Y8864803D01*
G37*
G36*
X20345908Y8864092D02*
G01*
X27913990Y8864092D01*
X27920289Y8864803D01*
X27925776Y8866682D01*
X27930652Y8869781D01*
X27934767Y8873896D01*
X27937815Y8878773D01*
X27939746Y8884208D01*
X27940457Y8890558D01*
X27940457Y12445390D01*
X27939746Y12451740D01*
X27937815Y12457176D01*
X27934767Y12462103D01*
X27930652Y12466167D01*
X27925776Y12469266D01*
X27920289Y12471196D01*
X27913990Y12471908D01*
X20345908Y12471908D01*
X20339608Y12471196D01*
X20334173Y12469266D01*
X20329245Y12466167D01*
X20325181Y12462103D01*
X20322082Y12457176D01*
X20320152Y12451740D01*
X20319441Y12445390D01*
X20319441Y8890558D01*
X20320152Y8884208D01*
X20322082Y8878773D01*
X20325181Y8873896D01*
X20329245Y8869781D01*
X20334173Y8866682D01*
X20339608Y8864803D01*
G37*
G36*
X36398708Y4800092D02*
G01*
X43966739Y4800092D01*
X43973038Y4800803D01*
X43978525Y4802682D01*
X43983402Y4805781D01*
X43987516Y4809896D01*
X43990615Y4814773D01*
X43992495Y4820259D01*
X43993206Y4826558D01*
X43993206Y8381390D01*
X43992495Y8387740D01*
X43990615Y8393176D01*
X43987516Y8398103D01*
X43983402Y8402167D01*
X43978525Y8405266D01*
X43973038Y8407196D01*
X43966739Y8407908D01*
X36398708Y8407908D01*
X36392358Y8407196D01*
X36386922Y8405266D01*
X36381994Y8402167D01*
X36377930Y8398103D01*
X36374832Y8393176D01*
X36372952Y8387740D01*
X36372241Y8381390D01*
X36372241Y4826558D01*
X36372952Y4820259D01*
X36374832Y4814773D01*
X36377930Y4809896D01*
X36381994Y4805781D01*
X36386922Y4802682D01*
X36392358Y4800803D01*
G37*

%LPD*%
D10*
G01*
X2794000Y279400D03*
G01*
X2794000Y13004774D03*
G01*
X45466000Y279400D03*
G01*
X45466000Y13004774D03*
G01*
X24129949Y13004774D03*
G01*
X24129949Y279400D03*
G01*
X45465898Y8191500D03*
G01*
X45465898Y5016500D03*
G01*
X2793898Y5016500D03*
G01*
X2793898Y8191500D03*
M02*
