G04 Layer: BoardOutlineLayer*
G04 EasyEDA v6.5.34, 2023-08-21 18:11:39*
G04 32b375108a2c43bb8d569144ed7c1066,5a6b42c53f6a479593ecc07194224c93,10*
G04 Gerber Generator version 0.2*
G04 Scale: 100 percent, Rotated: No, Reflected: No *
G04 Dimensions in millimeters *
G04 leading zeros omitted , absolute positions ,4 integer and 5 decimal *
%FSLAX45Y45*%
%MOMM*%

%ADD10C,0.2540*%
D10*
X0Y13296900D02*
G01*
X48260000Y13296900D01*
X48260000Y0D01*
X0Y-3070D01*
X0Y13296900D01*
X3500414Y12104298D02*
G01*
X3500414Y9304304D01*
X3500414Y9304304D02*
G01*
X6300409Y9304304D01*
X6300409Y9304304D02*
G01*
X6300409Y12104298D01*
X6300409Y12104298D02*
G01*
X3500414Y12104298D01*
X7343614Y12104298D02*
G01*
X7343614Y9304304D01*
X7343614Y9304304D02*
G01*
X10143609Y9304304D01*
X10143609Y9304304D02*
G01*
X10143609Y12104298D01*
X10143609Y12104298D02*
G01*
X7343614Y12104298D01*
X11186815Y12104298D02*
G01*
X11186815Y9304304D01*
X11186815Y9304304D02*
G01*
X13986809Y9304304D01*
X13986809Y9304304D02*
G01*
X13986809Y12104298D01*
X13986809Y12104298D02*
G01*
X11186815Y12104298D01*
X15030015Y12104298D02*
G01*
X15030015Y9304304D01*
X15030015Y9304304D02*
G01*
X17830010Y9304304D01*
X17830010Y9304304D02*
G01*
X17830010Y12104298D01*
X17830010Y12104298D02*
G01*
X15030015Y12104298D01*
X18873216Y12104298D02*
G01*
X18873216Y9304304D01*
X18873216Y9304304D02*
G01*
X21673210Y9304304D01*
X21673210Y9304304D02*
G01*
X21673210Y12104298D01*
X21673210Y12104298D02*
G01*
X18873216Y12104298D01*
X22716416Y12104298D02*
G01*
X22716416Y9304304D01*
X22716416Y9304304D02*
G01*
X25516410Y9304304D01*
X25516410Y9304304D02*
G01*
X25516410Y12104298D01*
X25516410Y12104298D02*
G01*
X22716416Y12104298D01*
X26559616Y12104298D02*
G01*
X26559616Y9304304D01*
X26559616Y9304304D02*
G01*
X29359611Y9304304D01*
X29359611Y9304304D02*
G01*
X29359611Y12104298D01*
X29359611Y12104298D02*
G01*
X26559616Y12104298D01*
X30402817Y12104298D02*
G01*
X30402817Y9304304D01*
X30402817Y9304304D02*
G01*
X33202811Y9304304D01*
X33202811Y9304304D02*
G01*
X33202811Y12104298D01*
X33202811Y12104298D02*
G01*
X30402817Y12104298D01*
X34246017Y12104298D02*
G01*
X34246017Y9304304D01*
X34246017Y9304304D02*
G01*
X37046011Y9304304D01*
X37046011Y9304304D02*
G01*
X37046011Y12104298D01*
X37046011Y12104298D02*
G01*
X34246017Y12104298D01*
X38089217Y12104298D02*
G01*
X38089217Y9304304D01*
X38089217Y9304304D02*
G01*
X40889212Y9304304D01*
X40889212Y9304304D02*
G01*
X40889212Y12104298D01*
X40889212Y12104298D02*
G01*
X38089217Y12104298D01*
X41932418Y12104298D02*
G01*
X41932418Y9304304D01*
X41932418Y9304304D02*
G01*
X44732412Y9304304D01*
X44732412Y9304304D02*
G01*
X44732412Y12104298D01*
X44732412Y12104298D02*
G01*
X41932418Y12104298D01*
G75*
G01*
X711200Y9486900D02*
G02*
X1361597Y9486900I325199J0D01*
G75*
G01*
X1361597Y9486900D02*
G02*
X711200Y9486900I-325198J0D01*
X711200Y9486900D02*
G01*
X711200Y9486900D01*
X579198Y9811893D02*
G01*
X579198Y9161881D01*
X579198Y9161881D02*
G01*
X1036398Y9161881D01*
X1036398Y9161881D02*
G01*
X1036398Y9811893D01*
X1036398Y9811893D02*
G01*
X579198Y9811893D01*
G75*
G01*
X254000Y9486900D02*
G02*
X904397Y9486900I325199J0D01*
G75*
G01*
X904397Y9486900D02*
G02*
X254000Y9486900I-325198J0D01*
X254000Y9486900D02*
G01*
X254000Y9486900D01*
G75*
G01*
X254000Y3810000D02*
G02*
X904397Y3810000I325199J0D01*
G75*
G01*
X904397Y3810000D02*
G02*
X254000Y3810000I-325198J0D01*
X254000Y3810000D02*
G01*
X254000Y3810000D01*
X579198Y4134993D02*
G01*
X579198Y3484981D01*
X579198Y3484981D02*
G01*
X1036398Y3484981D01*
X1036398Y3484981D02*
G01*
X1036398Y4134993D01*
X1036398Y4134993D02*
G01*
X579198Y4134993D01*
G75*
G01*
X711200Y3810000D02*
G02*
X1361597Y3810000I325199J0D01*
G75*
G01*
X1361597Y3810000D02*
G02*
X711200Y3810000I-325198J0D01*
X711200Y3810000D02*
G01*
X711200Y3810000D01*
G75*
G01*
X47365696Y3810000D02*
G02*
X48016094Y3810000I325199J0D01*
G75*
G01*
X48016094Y3810000D02*
G02*
X47365696Y3810000I-325199J0D01*
X47365696Y3810000D02*
G01*
X47365696Y3810000D01*
X47233695Y4134993D02*
G01*
X47233695Y3484981D01*
X47233695Y3484981D02*
G01*
X47690895Y3484981D01*
X47690895Y3484981D02*
G01*
X47690895Y4134993D01*
X47690895Y4134993D02*
G01*
X47233695Y4134993D01*
G75*
G01*
X46908496Y3810000D02*
G02*
X47558894Y3810000I325199J0D01*
G75*
G01*
X47558894Y3810000D02*
G02*
X46908496Y3810000I-325199J0D01*
X46908496Y3810000D02*
G01*
X46908496Y3810000D01*
G75*
G01*
X46908496Y9486900D02*
G02*
X47558894Y9486900I325199J0D01*
G75*
G01*
X47558894Y9486900D02*
G02*
X46908496Y9486900I-325199J0D01*
X46908496Y9486900D02*
G01*
X46908496Y9486900D01*
X47233695Y9811893D02*
G01*
X47233695Y9161881D01*
X47233695Y9161881D02*
G01*
X47690895Y9161881D01*
X47690895Y9161881D02*
G01*
X47690895Y9811893D01*
X47690895Y9811893D02*
G01*
X47233695Y9811893D01*
G75*
G01*
X47365696Y9486900D02*
G02*
X48016094Y9486900I325199J0D01*
G75*
G01*
X48016094Y9486900D02*
G02*
X47365696Y9486900I-325199J0D01*
X47365696Y9486900D02*
G01*
X47365696Y9486900D01*
X9122295Y3848100D02*
G01*
X9122295Y2828099D01*
X9122295Y2828099D02*
G01*
X10142296Y2828099D01*
X10142296Y2828099D02*
G01*
X10142296Y3848100D01*
X10142296Y3848100D02*
G01*
X9122295Y3848100D01*
X7344295Y3848100D02*
G01*
X7344295Y2828099D01*
X7344295Y2828099D02*
G01*
X8364296Y2828099D01*
X8364296Y2828099D02*
G01*
X8364296Y3848100D01*
X8364296Y3848100D02*
G01*
X7344295Y3848100D01*
X7344295Y2070100D02*
G01*
X7344295Y1050099D01*
X7344295Y1050099D02*
G01*
X8364296Y1050099D01*
X8364296Y1050099D02*
G01*
X8364296Y2070100D01*
X8364296Y2070100D02*
G01*
X7344295Y2070100D01*
X9122295Y2070100D02*
G01*
X9122295Y1050099D01*
X9122295Y1050099D02*
G01*
X10142296Y1050099D01*
X10142296Y1050099D02*
G01*
X10142296Y2070100D01*
X10142296Y2070100D02*
G01*
X9122295Y2070100D01*
X16808691Y3848100D02*
G01*
X16808691Y2828099D01*
X16808691Y2828099D02*
G01*
X17828691Y2828099D01*
X17828691Y2828099D02*
G01*
X17828691Y3848100D01*
X17828691Y3848100D02*
G01*
X16808691Y3848100D01*
X15030691Y3848100D02*
G01*
X15030691Y2828099D01*
X15030691Y2828099D02*
G01*
X16050691Y2828099D01*
X16050691Y2828099D02*
G01*
X16050691Y3848100D01*
X16050691Y3848100D02*
G01*
X15030691Y3848100D01*
X15030691Y2070100D02*
G01*
X15030691Y1050099D01*
X15030691Y1050099D02*
G01*
X16050691Y1050099D01*
X16050691Y1050099D02*
G01*
X16050691Y2070100D01*
X16050691Y2070100D02*
G01*
X15030691Y2070100D01*
X16808691Y2070100D02*
G01*
X16808691Y1050099D01*
X16808691Y1050099D02*
G01*
X17828691Y1050099D01*
X17828691Y1050099D02*
G01*
X17828691Y2070100D01*
X17828691Y2070100D02*
G01*
X16808691Y2070100D01*
X20651889Y3848100D02*
G01*
X20651889Y2828099D01*
X20651889Y2828099D02*
G01*
X21671889Y2828099D01*
X21671889Y2828099D02*
G01*
X21671889Y3848100D01*
X21671889Y3848100D02*
G01*
X20651889Y3848100D01*
X18873889Y3848100D02*
G01*
X18873889Y2828099D01*
X18873889Y2828099D02*
G01*
X19893889Y2828099D01*
X19893889Y2828099D02*
G01*
X19893889Y3848100D01*
X19893889Y3848100D02*
G01*
X18873889Y3848100D01*
X18873889Y2070100D02*
G01*
X18873889Y1050099D01*
X18873889Y1050099D02*
G01*
X19893889Y1050099D01*
X19893889Y1050099D02*
G01*
X19893889Y2070100D01*
X19893889Y2070100D02*
G01*
X18873889Y2070100D01*
X20651889Y2070100D02*
G01*
X20651889Y1050099D01*
X20651889Y1050099D02*
G01*
X21671889Y1050099D01*
X21671889Y1050099D02*
G01*
X21671889Y2070100D01*
X21671889Y2070100D02*
G01*
X20651889Y2070100D01*
X32181507Y3848100D02*
G01*
X32181507Y2828099D01*
X32181507Y2828099D02*
G01*
X33201508Y2828099D01*
X33201508Y2828099D02*
G01*
X33201508Y3848100D01*
X33201508Y3848100D02*
G01*
X32181507Y3848100D01*
X30403507Y3848100D02*
G01*
X30403507Y2828099D01*
X30403507Y2828099D02*
G01*
X31423508Y2828099D01*
X31423508Y2828099D02*
G01*
X31423508Y3848100D01*
X31423508Y3848100D02*
G01*
X30403507Y3848100D01*
X30403507Y2070100D02*
G01*
X30403507Y1050099D01*
X30403507Y1050099D02*
G01*
X31423508Y1050099D01*
X31423508Y1050099D02*
G01*
X31423508Y2070100D01*
X31423508Y2070100D02*
G01*
X30403507Y2070100D01*
X32181507Y2070100D02*
G01*
X32181507Y1050099D01*
X32181507Y1050099D02*
G01*
X33201508Y1050099D01*
X33201508Y1050099D02*
G01*
X33201508Y2070100D01*
X33201508Y2070100D02*
G01*
X32181507Y2070100D01*
X39867903Y3848100D02*
G01*
X39867903Y2828099D01*
X39867903Y2828099D02*
G01*
X40887904Y2828099D01*
X40887904Y2828099D02*
G01*
X40887904Y3848100D01*
X40887904Y3848100D02*
G01*
X39867903Y3848100D01*
X38089903Y3848100D02*
G01*
X38089903Y2828099D01*
X38089903Y2828099D02*
G01*
X39109904Y2828099D01*
X39109904Y2828099D02*
G01*
X39109904Y3848100D01*
X39109904Y3848100D02*
G01*
X38089903Y3848100D01*
X38089903Y2070100D02*
G01*
X38089903Y1050099D01*
X38089903Y1050099D02*
G01*
X39109904Y1050099D01*
X39109904Y1050099D02*
G01*
X39109904Y2070100D01*
X39109904Y2070100D02*
G01*
X38089903Y2070100D01*
X39867903Y2070100D02*
G01*
X39867903Y1050099D01*
X39867903Y1050099D02*
G01*
X40887904Y1050099D01*
X40887904Y1050099D02*
G01*
X40887904Y2070100D01*
X40887904Y2070100D02*
G01*
X39867903Y2070100D01*
X12965493Y3848100D02*
G01*
X12965493Y2828099D01*
X12965493Y2828099D02*
G01*
X13985493Y2828099D01*
X13985493Y2828099D02*
G01*
X13985493Y3848100D01*
X13985493Y3848100D02*
G01*
X12965493Y3848100D01*
X11187493Y3848100D02*
G01*
X11187493Y2828099D01*
X11187493Y2828099D02*
G01*
X12207493Y2828099D01*
X12207493Y2828099D02*
G01*
X12207493Y3848100D01*
X12207493Y3848100D02*
G01*
X11187493Y3848100D01*
X11187493Y2070100D02*
G01*
X11187493Y1050099D01*
X11187493Y1050099D02*
G01*
X12207493Y1050099D01*
X12207493Y1050099D02*
G01*
X12207493Y2070100D01*
X12207493Y2070100D02*
G01*
X11187493Y2070100D01*
X12965493Y2070100D02*
G01*
X12965493Y1050099D01*
X12965493Y1050099D02*
G01*
X13985493Y1050099D01*
X13985493Y1050099D02*
G01*
X13985493Y2070100D01*
X13985493Y2070100D02*
G01*
X12965493Y2070100D01*
X36024705Y2070100D02*
G01*
X36024705Y1050099D01*
X36024705Y1050099D02*
G01*
X37044706Y1050099D01*
X37044706Y1050099D02*
G01*
X37044706Y2070100D01*
X37044706Y2070100D02*
G01*
X36024705Y2070100D01*
X34246705Y2070100D02*
G01*
X34246705Y1050099D01*
X34246705Y1050099D02*
G01*
X35266706Y1050099D01*
X35266706Y1050099D02*
G01*
X35266706Y2070100D01*
X35266706Y2070100D02*
G01*
X34246705Y2070100D01*
X34246705Y3848100D02*
G01*
X34246705Y2828099D01*
X34246705Y2828099D02*
G01*
X35266706Y2828099D01*
X35266706Y2828099D02*
G01*
X35266706Y3848100D01*
X35266706Y3848100D02*
G01*
X34246705Y3848100D01*
X36024705Y3848100D02*
G01*
X36024705Y2828099D01*
X36024705Y2828099D02*
G01*
X37044706Y2828099D01*
X37044706Y2828099D02*
G01*
X37044706Y3848100D01*
X37044706Y3848100D02*
G01*
X36024705Y3848100D01*
X28338310Y2070100D02*
G01*
X28338310Y1050099D01*
X28338310Y1050099D02*
G01*
X29358310Y1050099D01*
X29358310Y1050099D02*
G01*
X29358310Y2070100D01*
X29358310Y2070100D02*
G01*
X28338310Y2070100D01*
X26560310Y2070100D02*
G01*
X26560310Y1050099D01*
X26560310Y1050099D02*
G01*
X27580310Y1050099D01*
X27580310Y1050099D02*
G01*
X27580310Y2070100D01*
X27580310Y2070100D02*
G01*
X26560310Y2070100D01*
X26560310Y3848100D02*
G01*
X26560310Y2828099D01*
X26560310Y2828099D02*
G01*
X27580310Y2828099D01*
X27580310Y2828099D02*
G01*
X27580310Y3848100D01*
X27580310Y3848100D02*
G01*
X26560310Y3848100D01*
X28338310Y3848100D02*
G01*
X28338310Y2828099D01*
X28338310Y2828099D02*
G01*
X29358310Y2828099D01*
X29358310Y2828099D02*
G01*
X29358310Y3848100D01*
X29358310Y3848100D02*
G01*
X28338310Y3848100D01*
X24495112Y3848100D02*
G01*
X24495112Y2828099D01*
X24495112Y2828099D02*
G01*
X25515112Y2828099D01*
X25515112Y2828099D02*
G01*
X25515112Y3848100D01*
X25515112Y3848100D02*
G01*
X24495112Y3848100D01*
X22717112Y3848100D02*
G01*
X22717112Y2828099D01*
X22717112Y2828099D02*
G01*
X23737112Y2828099D01*
X23737112Y2828099D02*
G01*
X23737112Y3848100D01*
X23737112Y3848100D02*
G01*
X22717112Y3848100D01*
X22717112Y2070100D02*
G01*
X22717112Y1050099D01*
X22717112Y1050099D02*
G01*
X23737112Y1050099D01*
X23737112Y1050099D02*
G01*
X23737112Y2070100D01*
X23737112Y2070100D02*
G01*
X22717112Y2070100D01*
X24495112Y2070100D02*
G01*
X24495112Y1050099D01*
X24495112Y1050099D02*
G01*
X25515112Y1050099D01*
X25515112Y1050099D02*
G01*
X25515112Y2070100D01*
X25515112Y2070100D02*
G01*
X24495112Y2070100D01*
X3500117Y3853080D02*
G01*
X3500117Y1053086D01*
X3500117Y1053086D02*
G01*
X6300111Y1053086D01*
X6300111Y1053086D02*
G01*
X6300111Y3853080D01*
X6300111Y3853080D02*
G01*
X3500117Y3853080D01*
X41932120Y3853080D02*
G01*
X41932120Y1053086D01*
X41932120Y1053086D02*
G01*
X44732115Y1053086D01*
X44732115Y1053086D02*
G01*
X44732115Y3853080D01*
X44732115Y3853080D02*
G01*
X41932120Y3853080D01*

%LPD*%
M02*
