G04 Layer: TopSilkscreenLayer*
G04 EasyEDA v6.5.34, 2023-08-21 18:11:39*
G04 32b375108a2c43bb8d569144ed7c1066,5a6b42c53f6a479593ecc07194224c93,10*
G04 Gerber Generator version 0.2*
G04 Scale: 100 percent, Rotated: No, Reflected: No *
G04 Dimensions in millimeters *
G04 leading zeros omitted , absolute positions ,4 integer and 5 decimal *
%FSLAX45Y45*%
%MOMM*%

%ADD10C,0.2032*%
%ADD11C,0.2540*%
%ADD12C,0.5000*%
%ADD13C,1.0000*%

%LPD*%
D10*
X7542679Y890831D02*
G01*
X7524137Y881687D01*
X7505595Y863145D01*
X7496451Y844603D01*
X7487307Y816917D01*
X7487307Y770689D01*
X7496451Y743003D01*
X7505595Y724715D01*
X7524137Y706173D01*
X7542679Y696775D01*
X7579509Y696775D01*
X7598051Y706173D01*
X7616593Y724715D01*
X7625737Y743003D01*
X7634881Y770689D01*
X7634881Y816917D01*
X7625737Y844603D01*
X7616593Y863145D01*
X7598051Y881687D01*
X7579509Y890831D01*
X7542679Y890831D01*
X7695841Y890831D02*
G01*
X7695841Y696775D01*
X7695841Y890831D02*
G01*
X7779153Y890831D01*
X7806839Y881687D01*
X7815983Y872289D01*
X7825127Y854001D01*
X7825127Y826315D01*
X7815983Y807773D01*
X7806839Y798375D01*
X7779153Y789231D01*
X7695841Y789231D01*
X7886087Y890831D02*
G01*
X7886087Y696775D01*
X7886087Y890831D02*
G01*
X8006229Y890831D01*
X7886087Y798375D02*
G01*
X7960001Y798375D01*
X7886087Y696775D02*
G01*
X8006229Y696775D01*
X8067189Y890831D02*
G01*
X8067189Y696775D01*
X8067189Y890831D02*
G01*
X8196475Y696775D01*
X8196475Y890831D02*
G01*
X8196475Y696775D01*
X9508512Y2622382D02*
G01*
X9499368Y2640924D01*
X9480826Y2659466D01*
X9462538Y2668610D01*
X9425454Y2668610D01*
X9406912Y2659466D01*
X9388624Y2640924D01*
X9379226Y2622382D01*
X9370082Y2594696D01*
X9370082Y2548722D01*
X9379226Y2520782D01*
X9388624Y2502494D01*
X9406912Y2483952D01*
X9425454Y2474808D01*
X9462538Y2474808D01*
X9480826Y2483952D01*
X9499368Y2502494D01*
X9508512Y2520782D01*
X9508512Y2548722D01*
X9462538Y2548722D02*
G01*
X9508512Y2548722D01*
X9569472Y2668610D02*
G01*
X9569472Y2474808D01*
X9569472Y2668610D02*
G01*
X9699012Y2474808D01*
X9699012Y2668610D02*
G01*
X9699012Y2474808D01*
X9759972Y2668610D02*
G01*
X9759972Y2474808D01*
X9759972Y2668610D02*
G01*
X9824488Y2668610D01*
X9852174Y2659466D01*
X9870716Y2640924D01*
X9879860Y2622382D01*
X9889258Y2594696D01*
X9889258Y2548722D01*
X9879860Y2520782D01*
X9870716Y2502494D01*
X9852174Y2483952D01*
X9824488Y2474808D01*
X9759972Y2474808D01*
X7730109Y2622550D02*
G01*
X7720965Y2641092D01*
X7702422Y2659634D01*
X7684134Y2668778D01*
X7647050Y2668778D01*
X7628509Y2659634D01*
X7610220Y2641092D01*
X7600822Y2622550D01*
X7591679Y2594863D01*
X7591679Y2548889D01*
X7600822Y2520950D01*
X7610220Y2502662D01*
X7628509Y2484120D01*
X7647050Y2474976D01*
X7684134Y2474976D01*
X7702422Y2484120D01*
X7720965Y2502662D01*
X7730109Y2520950D01*
X7730109Y2548889D01*
X7684134Y2548889D02*
G01*
X7730109Y2548889D01*
X7791068Y2668778D02*
G01*
X7791068Y2474976D01*
X7791068Y2668778D02*
G01*
X7920609Y2474976D01*
X7920609Y2668778D02*
G01*
X7920609Y2474976D01*
X7981568Y2668778D02*
G01*
X7981568Y2474976D01*
X7981568Y2668778D02*
G01*
X8046084Y2668778D01*
X8073770Y2659634D01*
X8092313Y2641092D01*
X8101456Y2622550D01*
X8110854Y2594863D01*
X8110854Y2548889D01*
X8101456Y2520950D01*
X8092313Y2502662D01*
X8073770Y2484120D01*
X8046084Y2474976D01*
X7981568Y2474976D01*
X15229075Y890831D02*
G01*
X15210533Y881687D01*
X15191991Y863145D01*
X15182847Y844603D01*
X15173703Y816917D01*
X15173703Y770689D01*
X15182847Y743003D01*
X15191991Y724715D01*
X15210533Y706173D01*
X15229075Y696775D01*
X15265905Y696775D01*
X15284447Y706173D01*
X15302989Y724715D01*
X15312133Y743003D01*
X15321277Y770689D01*
X15321277Y816917D01*
X15312133Y844603D01*
X15302989Y863145D01*
X15284447Y881687D01*
X15265905Y890831D01*
X15229075Y890831D01*
X15382237Y890831D02*
G01*
X15382237Y696775D01*
X15382237Y890831D02*
G01*
X15465549Y890831D01*
X15493235Y881687D01*
X15502379Y872289D01*
X15511523Y854001D01*
X15511523Y826315D01*
X15502379Y807773D01*
X15493235Y798375D01*
X15465549Y789231D01*
X15382237Y789231D01*
X15572483Y890831D02*
G01*
X15572483Y696775D01*
X15572483Y890831D02*
G01*
X15692625Y890831D01*
X15572483Y798375D02*
G01*
X15646397Y798375D01*
X15572483Y696775D02*
G01*
X15692625Y696775D01*
X15753585Y890831D02*
G01*
X15753585Y696775D01*
X15753585Y890831D02*
G01*
X15882871Y696775D01*
X15882871Y890831D02*
G01*
X15882871Y696775D01*
X17194908Y2622382D02*
G01*
X17185764Y2640924D01*
X17167222Y2659466D01*
X17148934Y2668610D01*
X17111850Y2668610D01*
X17093308Y2659466D01*
X17075020Y2640924D01*
X17065622Y2622382D01*
X17056478Y2594696D01*
X17056478Y2548722D01*
X17065622Y2520782D01*
X17075020Y2502494D01*
X17093308Y2483952D01*
X17111850Y2474808D01*
X17148934Y2474808D01*
X17167222Y2483952D01*
X17185764Y2502494D01*
X17194908Y2520782D01*
X17194908Y2548722D01*
X17148934Y2548722D02*
G01*
X17194908Y2548722D01*
X17255868Y2668610D02*
G01*
X17255868Y2474808D01*
X17255868Y2668610D02*
G01*
X17385408Y2474808D01*
X17385408Y2668610D02*
G01*
X17385408Y2474808D01*
X17446368Y2668610D02*
G01*
X17446368Y2474808D01*
X17446368Y2668610D02*
G01*
X17510884Y2668610D01*
X17538570Y2659466D01*
X17557112Y2640924D01*
X17566256Y2622382D01*
X17575654Y2594696D01*
X17575654Y2548722D01*
X17566256Y2520782D01*
X17557112Y2502494D01*
X17538570Y2483952D01*
X17510884Y2474808D01*
X17446368Y2474808D01*
X15416504Y2622550D02*
G01*
X15407360Y2641092D01*
X15388818Y2659634D01*
X15370530Y2668778D01*
X15333446Y2668778D01*
X15314904Y2659634D01*
X15296616Y2641092D01*
X15287218Y2622550D01*
X15278074Y2594863D01*
X15278074Y2548889D01*
X15287218Y2520950D01*
X15296616Y2502662D01*
X15314904Y2484120D01*
X15333446Y2474976D01*
X15370530Y2474976D01*
X15388818Y2484120D01*
X15407360Y2502662D01*
X15416504Y2520950D01*
X15416504Y2548889D01*
X15370530Y2548889D02*
G01*
X15416504Y2548889D01*
X15477464Y2668778D02*
G01*
X15477464Y2474976D01*
X15477464Y2668778D02*
G01*
X15607004Y2474976D01*
X15607004Y2668778D02*
G01*
X15607004Y2474976D01*
X15667964Y2668778D02*
G01*
X15667964Y2474976D01*
X15667964Y2668778D02*
G01*
X15732480Y2668778D01*
X15760166Y2659634D01*
X15778708Y2641092D01*
X15787852Y2622550D01*
X15797250Y2594863D01*
X15797250Y2548889D01*
X15787852Y2520950D01*
X15778708Y2502662D01*
X15760166Y2484120D01*
X15732480Y2474976D01*
X15667964Y2474976D01*
X19072273Y890831D02*
G01*
X19053731Y881687D01*
X19035189Y863145D01*
X19026045Y844603D01*
X19016901Y816917D01*
X19016901Y770689D01*
X19026045Y743003D01*
X19035189Y724715D01*
X19053731Y706173D01*
X19072273Y696775D01*
X19109103Y696775D01*
X19127645Y706173D01*
X19146187Y724715D01*
X19155331Y743003D01*
X19164475Y770689D01*
X19164475Y816917D01*
X19155331Y844603D01*
X19146187Y863145D01*
X19127645Y881687D01*
X19109103Y890831D01*
X19072273Y890831D01*
X19225435Y890831D02*
G01*
X19225435Y696775D01*
X19225435Y890831D02*
G01*
X19308747Y890831D01*
X19336433Y881687D01*
X19345577Y872289D01*
X19354721Y854001D01*
X19354721Y826315D01*
X19345577Y807773D01*
X19336433Y798375D01*
X19308747Y789231D01*
X19225435Y789231D01*
X19415681Y890831D02*
G01*
X19415681Y696775D01*
X19415681Y890831D02*
G01*
X19535823Y890831D01*
X19415681Y798375D02*
G01*
X19489595Y798375D01*
X19415681Y696775D02*
G01*
X19535823Y696775D01*
X19596783Y890831D02*
G01*
X19596783Y696775D01*
X19596783Y890831D02*
G01*
X19726069Y696775D01*
X19726069Y890831D02*
G01*
X19726069Y696775D01*
X21038106Y2622382D02*
G01*
X21028962Y2640924D01*
X21010420Y2659466D01*
X20992132Y2668610D01*
X20955048Y2668610D01*
X20936506Y2659466D01*
X20918218Y2640924D01*
X20908820Y2622382D01*
X20899676Y2594696D01*
X20899676Y2548722D01*
X20908820Y2520782D01*
X20918218Y2502494D01*
X20936506Y2483952D01*
X20955048Y2474808D01*
X20992132Y2474808D01*
X21010420Y2483952D01*
X21028962Y2502494D01*
X21038106Y2520782D01*
X21038106Y2548722D01*
X20992132Y2548722D02*
G01*
X21038106Y2548722D01*
X21099066Y2668610D02*
G01*
X21099066Y2474808D01*
X21099066Y2668610D02*
G01*
X21228606Y2474808D01*
X21228606Y2668610D02*
G01*
X21228606Y2474808D01*
X21289566Y2668610D02*
G01*
X21289566Y2474808D01*
X21289566Y2668610D02*
G01*
X21354082Y2668610D01*
X21381768Y2659466D01*
X21400310Y2640924D01*
X21409454Y2622382D01*
X21418852Y2594696D01*
X21418852Y2548722D01*
X21409454Y2520782D01*
X21400310Y2502494D01*
X21381768Y2483952D01*
X21354082Y2474808D01*
X21289566Y2474808D01*
X19259702Y2622550D02*
G01*
X19250558Y2641092D01*
X19232016Y2659634D01*
X19213728Y2668778D01*
X19176644Y2668778D01*
X19158102Y2659634D01*
X19139814Y2641092D01*
X19130416Y2622550D01*
X19121272Y2594863D01*
X19121272Y2548889D01*
X19130416Y2520950D01*
X19139814Y2502662D01*
X19158102Y2484120D01*
X19176644Y2474976D01*
X19213728Y2474976D01*
X19232016Y2484120D01*
X19250558Y2502662D01*
X19259702Y2520950D01*
X19259702Y2548889D01*
X19213728Y2548889D02*
G01*
X19259702Y2548889D01*
X19320662Y2668778D02*
G01*
X19320662Y2474976D01*
X19320662Y2668778D02*
G01*
X19450202Y2474976D01*
X19450202Y2668778D02*
G01*
X19450202Y2474976D01*
X19511162Y2668778D02*
G01*
X19511162Y2474976D01*
X19511162Y2668778D02*
G01*
X19575678Y2668778D01*
X19603364Y2659634D01*
X19621906Y2641092D01*
X19631050Y2622550D01*
X19640448Y2594863D01*
X19640448Y2548889D01*
X19631050Y2520950D01*
X19621906Y2502662D01*
X19603364Y2484120D01*
X19575678Y2474976D01*
X19511162Y2474976D01*
X30601892Y890831D02*
G01*
X30583350Y881687D01*
X30564808Y863145D01*
X30555664Y844603D01*
X30546520Y816917D01*
X30546520Y770689D01*
X30555664Y743003D01*
X30564808Y724715D01*
X30583350Y706173D01*
X30601892Y696775D01*
X30638722Y696775D01*
X30657264Y706173D01*
X30675806Y724715D01*
X30684950Y743003D01*
X30694094Y770689D01*
X30694094Y816917D01*
X30684950Y844603D01*
X30675806Y863145D01*
X30657264Y881687D01*
X30638722Y890831D01*
X30601892Y890831D01*
X30755054Y890831D02*
G01*
X30755054Y696775D01*
X30755054Y890831D02*
G01*
X30838366Y890831D01*
X30866052Y881687D01*
X30875196Y872289D01*
X30884340Y854001D01*
X30884340Y826315D01*
X30875196Y807773D01*
X30866052Y798375D01*
X30838366Y789231D01*
X30755054Y789231D01*
X30945300Y890831D02*
G01*
X30945300Y696775D01*
X30945300Y890831D02*
G01*
X31065442Y890831D01*
X30945300Y798375D02*
G01*
X31019214Y798375D01*
X30945300Y696775D02*
G01*
X31065442Y696775D01*
X31126402Y890831D02*
G01*
X31126402Y696775D01*
X31126402Y890831D02*
G01*
X31255688Y696775D01*
X31255688Y890831D02*
G01*
X31255688Y696775D01*
X32567725Y2622382D02*
G01*
X32558581Y2640924D01*
X32540039Y2659466D01*
X32521751Y2668610D01*
X32484667Y2668610D01*
X32466125Y2659466D01*
X32447837Y2640924D01*
X32438439Y2622382D01*
X32429295Y2594696D01*
X32429295Y2548722D01*
X32438439Y2520782D01*
X32447837Y2502494D01*
X32466125Y2483952D01*
X32484667Y2474808D01*
X32521751Y2474808D01*
X32540039Y2483952D01*
X32558581Y2502494D01*
X32567725Y2520782D01*
X32567725Y2548722D01*
X32521751Y2548722D02*
G01*
X32567725Y2548722D01*
X32628685Y2668610D02*
G01*
X32628685Y2474808D01*
X32628685Y2668610D02*
G01*
X32758225Y2474808D01*
X32758225Y2668610D02*
G01*
X32758225Y2474808D01*
X32819185Y2668610D02*
G01*
X32819185Y2474808D01*
X32819185Y2668610D02*
G01*
X32883701Y2668610D01*
X32911387Y2659466D01*
X32929929Y2640924D01*
X32939073Y2622382D01*
X32948471Y2594696D01*
X32948471Y2548722D01*
X32939073Y2520782D01*
X32929929Y2502494D01*
X32911387Y2483952D01*
X32883701Y2474808D01*
X32819185Y2474808D01*
X30789321Y2622550D02*
G01*
X30780177Y2641092D01*
X30761635Y2659634D01*
X30743347Y2668778D01*
X30706263Y2668778D01*
X30687721Y2659634D01*
X30669433Y2641092D01*
X30660035Y2622550D01*
X30650891Y2594863D01*
X30650891Y2548889D01*
X30660035Y2520950D01*
X30669433Y2502662D01*
X30687721Y2484120D01*
X30706263Y2474976D01*
X30743347Y2474976D01*
X30761635Y2484120D01*
X30780177Y2502662D01*
X30789321Y2520950D01*
X30789321Y2548889D01*
X30743347Y2548889D02*
G01*
X30789321Y2548889D01*
X30850281Y2668778D02*
G01*
X30850281Y2474976D01*
X30850281Y2668778D02*
G01*
X30979821Y2474976D01*
X30979821Y2668778D02*
G01*
X30979821Y2474976D01*
X31040781Y2668778D02*
G01*
X31040781Y2474976D01*
X31040781Y2668778D02*
G01*
X31105297Y2668778D01*
X31132983Y2659634D01*
X31151525Y2641092D01*
X31160669Y2622550D01*
X31170067Y2594863D01*
X31170067Y2548889D01*
X31160669Y2520950D01*
X31151525Y2502662D01*
X31132983Y2484120D01*
X31105297Y2474976D01*
X31040781Y2474976D01*
X40067270Y844603D02*
G01*
X40058126Y863145D01*
X40039584Y881687D01*
X40021042Y890831D01*
X39984212Y890831D01*
X39965670Y881687D01*
X39947382Y863145D01*
X39937984Y844603D01*
X39928840Y816917D01*
X39928840Y770689D01*
X39937984Y743003D01*
X39947382Y724715D01*
X39965670Y706173D01*
X39984212Y696775D01*
X40021042Y696775D01*
X40039584Y706173D01*
X40058126Y724715D01*
X40067270Y743003D01*
X40128230Y890831D02*
G01*
X40128230Y696775D01*
X40128230Y696775D02*
G01*
X40239228Y696775D01*
X40355560Y890831D02*
G01*
X40337018Y881687D01*
X40318476Y863145D01*
X40309332Y844603D01*
X40300188Y816917D01*
X40300188Y770689D01*
X40309332Y743003D01*
X40318476Y724715D01*
X40337018Y706173D01*
X40355560Y696775D01*
X40392390Y696775D01*
X40410932Y706173D01*
X40429474Y724715D01*
X40438618Y743003D01*
X40447762Y770689D01*
X40447762Y816917D01*
X40438618Y844603D01*
X40429474Y863145D01*
X40410932Y881687D01*
X40392390Y890831D01*
X40355560Y890831D01*
X40638262Y863145D02*
G01*
X40619720Y881687D01*
X40592034Y890831D01*
X40554950Y890831D01*
X40527264Y881687D01*
X40508722Y863145D01*
X40508722Y844603D01*
X40518120Y826315D01*
X40527264Y816917D01*
X40545806Y807773D01*
X40601178Y789231D01*
X40619720Y780087D01*
X40628864Y770689D01*
X40638262Y752401D01*
X40638262Y724715D01*
X40619720Y706173D01*
X40592034Y696775D01*
X40554950Y696775D01*
X40527264Y706173D01*
X40508722Y724715D01*
X40699222Y890831D02*
G01*
X40699222Y696775D01*
X40699222Y890831D02*
G01*
X40819110Y890831D01*
X40699222Y798375D02*
G01*
X40772882Y798375D01*
X40699222Y696775D02*
G01*
X40819110Y696775D01*
X38288287Y890831D02*
G01*
X38269745Y881687D01*
X38251203Y863145D01*
X38242059Y844603D01*
X38232915Y816917D01*
X38232915Y770689D01*
X38242059Y743003D01*
X38251203Y724715D01*
X38269745Y706173D01*
X38288287Y696775D01*
X38325117Y696775D01*
X38343659Y706173D01*
X38362201Y724715D01*
X38371345Y743003D01*
X38380489Y770689D01*
X38380489Y816917D01*
X38371345Y844603D01*
X38362201Y863145D01*
X38343659Y881687D01*
X38325117Y890831D01*
X38288287Y890831D01*
X38441449Y890831D02*
G01*
X38441449Y696775D01*
X38441449Y890831D02*
G01*
X38524761Y890831D01*
X38552447Y881687D01*
X38561591Y872289D01*
X38570735Y854001D01*
X38570735Y826315D01*
X38561591Y807773D01*
X38552447Y798375D01*
X38524761Y789231D01*
X38441449Y789231D01*
X38631695Y890831D02*
G01*
X38631695Y696775D01*
X38631695Y890831D02*
G01*
X38751837Y890831D01*
X38631695Y798375D02*
G01*
X38705609Y798375D01*
X38631695Y696775D02*
G01*
X38751837Y696775D01*
X38812797Y890831D02*
G01*
X38812797Y696775D01*
X38812797Y890831D02*
G01*
X38942083Y696775D01*
X38942083Y890831D02*
G01*
X38942083Y696775D01*
X40254120Y2622382D02*
G01*
X40244976Y2640924D01*
X40226434Y2659466D01*
X40208146Y2668610D01*
X40171062Y2668610D01*
X40152520Y2659466D01*
X40134232Y2640924D01*
X40124834Y2622382D01*
X40115690Y2594696D01*
X40115690Y2548722D01*
X40124834Y2520782D01*
X40134232Y2502494D01*
X40152520Y2483952D01*
X40171062Y2474808D01*
X40208146Y2474808D01*
X40226434Y2483952D01*
X40244976Y2502494D01*
X40254120Y2520782D01*
X40254120Y2548722D01*
X40208146Y2548722D02*
G01*
X40254120Y2548722D01*
X40315080Y2668610D02*
G01*
X40315080Y2474808D01*
X40315080Y2668610D02*
G01*
X40444620Y2474808D01*
X40444620Y2668610D02*
G01*
X40444620Y2474808D01*
X40505580Y2668610D02*
G01*
X40505580Y2474808D01*
X40505580Y2668610D02*
G01*
X40570096Y2668610D01*
X40597782Y2659466D01*
X40616324Y2640924D01*
X40625468Y2622382D01*
X40634866Y2594696D01*
X40634866Y2548722D01*
X40625468Y2520782D01*
X40616324Y2502494D01*
X40597782Y2483952D01*
X40570096Y2474808D01*
X40505580Y2474808D01*
X38475716Y2622550D02*
G01*
X38466572Y2641092D01*
X38448030Y2659634D01*
X38429742Y2668778D01*
X38392658Y2668778D01*
X38374116Y2659634D01*
X38355828Y2641092D01*
X38346430Y2622550D01*
X38337286Y2594863D01*
X38337286Y2548889D01*
X38346430Y2520950D01*
X38355828Y2502662D01*
X38374116Y2484120D01*
X38392658Y2474976D01*
X38429742Y2474976D01*
X38448030Y2484120D01*
X38466572Y2502662D01*
X38475716Y2520950D01*
X38475716Y2548889D01*
X38429742Y2548889D02*
G01*
X38475716Y2548889D01*
X38536676Y2668778D02*
G01*
X38536676Y2474976D01*
X38536676Y2668778D02*
G01*
X38666216Y2474976D01*
X38666216Y2668778D02*
G01*
X38666216Y2474976D01*
X38727176Y2668778D02*
G01*
X38727176Y2474976D01*
X38727176Y2668778D02*
G01*
X38791692Y2668778D01*
X38819378Y2659634D01*
X38837920Y2641092D01*
X38847064Y2622550D01*
X38856462Y2594863D01*
X38856462Y2548889D01*
X38847064Y2520950D01*
X38837920Y2502662D01*
X38819378Y2484120D01*
X38791692Y2474976D01*
X38727176Y2474976D01*
X11385877Y890831D02*
G01*
X11367335Y881687D01*
X11348793Y863145D01*
X11339649Y844603D01*
X11330505Y816917D01*
X11330505Y770689D01*
X11339649Y743003D01*
X11348793Y724715D01*
X11367335Y706173D01*
X11385877Y696775D01*
X11422707Y696775D01*
X11441249Y706173D01*
X11459791Y724715D01*
X11468935Y743003D01*
X11478079Y770689D01*
X11478079Y816917D01*
X11468935Y844603D01*
X11459791Y863145D01*
X11441249Y881687D01*
X11422707Y890831D01*
X11385877Y890831D01*
X11539039Y890831D02*
G01*
X11539039Y696775D01*
X11539039Y890831D02*
G01*
X11622351Y890831D01*
X11650037Y881687D01*
X11659181Y872289D01*
X11668325Y854001D01*
X11668325Y826315D01*
X11659181Y807773D01*
X11650037Y798375D01*
X11622351Y789231D01*
X11539039Y789231D01*
X11729285Y890831D02*
G01*
X11729285Y696775D01*
X11729285Y890831D02*
G01*
X11849427Y890831D01*
X11729285Y798375D02*
G01*
X11803199Y798375D01*
X11729285Y696775D02*
G01*
X11849427Y696775D01*
X11910387Y890831D02*
G01*
X11910387Y696775D01*
X11910387Y890831D02*
G01*
X12039673Y696775D01*
X12039673Y890831D02*
G01*
X12039673Y696775D01*
X13082983Y2668945D02*
G01*
X13082983Y2474889D01*
X13082983Y2668945D02*
G01*
X13156897Y2474889D01*
X13230811Y2668945D02*
G01*
X13156897Y2474889D01*
X13230811Y2668945D02*
G01*
X13230811Y2474889D01*
X13365685Y2668945D02*
G01*
X13291771Y2474889D01*
X13365685Y2668945D02*
G01*
X13439599Y2474889D01*
X13319457Y2539659D02*
G01*
X13411913Y2539659D01*
X13500559Y2668945D02*
G01*
X13500559Y2474889D01*
X13561519Y2668945D02*
G01*
X13561519Y2474889D01*
X13561519Y2668945D02*
G01*
X13690805Y2474889D01*
X13690805Y2668945D02*
G01*
X13690805Y2474889D01*
X13816281Y2668945D02*
G01*
X13816281Y2474889D01*
X13751765Y2668945D02*
G01*
X13881051Y2668945D01*
X11471249Y2668778D02*
G01*
X11471249Y2474976D01*
X11406479Y2668778D02*
G01*
X11535765Y2668778D01*
X11596725Y2668778D02*
G01*
X11596725Y2474976D01*
X11596725Y2668778D02*
G01*
X11680037Y2668778D01*
X11707723Y2659634D01*
X11716867Y2650489D01*
X11726265Y2631947D01*
X11726265Y2613405D01*
X11716867Y2594863D01*
X11707723Y2585720D01*
X11680037Y2576576D01*
X11596725Y2576576D01*
X11661495Y2576576D02*
G01*
X11726265Y2474976D01*
X11787225Y2668778D02*
G01*
X11787225Y2474976D01*
X11848185Y2668778D02*
G01*
X11848185Y2474976D01*
X11848185Y2668778D02*
G01*
X11931243Y2668778D01*
X11958929Y2659634D01*
X11968073Y2650489D01*
X11977471Y2631947D01*
X11977471Y2604262D01*
X11968073Y2585720D01*
X11958929Y2576576D01*
X11931243Y2567178D01*
X11848185Y2567178D01*
X34530461Y2668778D02*
G01*
X34530461Y2474976D01*
X34465691Y2668778D02*
G01*
X34594977Y2668778D01*
X34655937Y2668778D02*
G01*
X34655937Y2474976D01*
X34655937Y2668778D02*
G01*
X34739249Y2668778D01*
X34766935Y2659634D01*
X34776079Y2650489D01*
X34785477Y2631947D01*
X34785477Y2613405D01*
X34776079Y2594863D01*
X34766935Y2585720D01*
X34739249Y2576576D01*
X34655937Y2576576D01*
X34720707Y2576576D02*
G01*
X34785477Y2474976D01*
X34846437Y2668778D02*
G01*
X34846437Y2474976D01*
X34907397Y2668778D02*
G01*
X34907397Y2474976D01*
X34907397Y2668778D02*
G01*
X34990455Y2668778D01*
X35018141Y2659634D01*
X35027285Y2650489D01*
X35036683Y2631947D01*
X35036683Y2604262D01*
X35027285Y2585720D01*
X35018141Y2576576D01*
X34990455Y2567178D01*
X34907397Y2567178D01*
X36142195Y2668945D02*
G01*
X36142195Y2474889D01*
X36142195Y2668945D02*
G01*
X36216109Y2474889D01*
X36290023Y2668945D02*
G01*
X36216109Y2474889D01*
X36290023Y2668945D02*
G01*
X36290023Y2474889D01*
X36424897Y2668945D02*
G01*
X36350983Y2474889D01*
X36424897Y2668945D02*
G01*
X36498811Y2474889D01*
X36378669Y2539659D02*
G01*
X36471125Y2539659D01*
X36559771Y2668945D02*
G01*
X36559771Y2474889D01*
X36620731Y2668945D02*
G01*
X36620731Y2474889D01*
X36620731Y2668945D02*
G01*
X36750017Y2474889D01*
X36750017Y2668945D02*
G01*
X36750017Y2474889D01*
X36875493Y2668945D02*
G01*
X36875493Y2474889D01*
X36810977Y2668945D02*
G01*
X36940263Y2668945D01*
X34445089Y890831D02*
G01*
X34426547Y881687D01*
X34408005Y863145D01*
X34398861Y844603D01*
X34389717Y816917D01*
X34389717Y770689D01*
X34398861Y743003D01*
X34408005Y724715D01*
X34426547Y706173D01*
X34445089Y696775D01*
X34481919Y696775D01*
X34500461Y706173D01*
X34519003Y724715D01*
X34528147Y743003D01*
X34537291Y770689D01*
X34537291Y816917D01*
X34528147Y844603D01*
X34519003Y863145D01*
X34500461Y881687D01*
X34481919Y890831D01*
X34445089Y890831D01*
X34598251Y890831D02*
G01*
X34598251Y696775D01*
X34598251Y890831D02*
G01*
X34681563Y890831D01*
X34709249Y881687D01*
X34718393Y872289D01*
X34727537Y854001D01*
X34727537Y826315D01*
X34718393Y807773D01*
X34709249Y798375D01*
X34681563Y789231D01*
X34598251Y789231D01*
X34788497Y890831D02*
G01*
X34788497Y696775D01*
X34788497Y890831D02*
G01*
X34908639Y890831D01*
X34788497Y798375D02*
G01*
X34862411Y798375D01*
X34788497Y696775D02*
G01*
X34908639Y696775D01*
X34969599Y890831D02*
G01*
X34969599Y696775D01*
X34969599Y890831D02*
G01*
X35098885Y696775D01*
X35098885Y890831D02*
G01*
X35098885Y696775D01*
X4474095Y8920734D02*
G01*
X4640465Y8920734D01*
X4701425Y9031478D02*
G01*
X4747399Y8837676D01*
X4793627Y9031478D02*
G01*
X4747399Y8837676D01*
X4793627Y9031478D02*
G01*
X4839855Y8837676D01*
X4886083Y9031478D02*
G01*
X4839855Y8837676D01*
X5002415Y9031478D02*
G01*
X4974729Y9022334D01*
X4956187Y8994647D01*
X4947043Y8948420D01*
X4947043Y8920734D01*
X4956187Y8874505D01*
X4974729Y8846820D01*
X5002415Y8837676D01*
X5020957Y8837676D01*
X5048643Y8846820D01*
X5067185Y8874505D01*
X5076329Y8920734D01*
X5076329Y8948420D01*
X5067185Y8994647D01*
X5048643Y9022334D01*
X5020957Y9031478D01*
X5002415Y9031478D01*
X5137289Y8994647D02*
G01*
X5155831Y9003792D01*
X5183517Y9031478D01*
X5183517Y8837676D01*
X8373071Y8920734D02*
G01*
X8539187Y8920734D01*
X8655519Y9031478D02*
G01*
X8637231Y9022334D01*
X8618689Y9003792D01*
X8609545Y8985250D01*
X8600147Y8957563D01*
X8600147Y8911589D01*
X8609545Y8883650D01*
X8618689Y8865362D01*
X8637231Y8846820D01*
X8655519Y8837676D01*
X8692603Y8837676D01*
X8711145Y8846820D01*
X8729433Y8865362D01*
X8738831Y8883650D01*
X8747975Y8911589D01*
X8747975Y8957563D01*
X8738831Y8985250D01*
X8729433Y9003792D01*
X8711145Y9022334D01*
X8692603Y9031478D01*
X8655519Y9031478D01*
X8683459Y8874505D02*
G01*
X8738831Y8819134D01*
X8808935Y8994647D02*
G01*
X8827477Y9003792D01*
X8855163Y9031478D01*
X8855163Y8837676D01*
X8916123Y8994647D02*
G01*
X8934665Y9003792D01*
X8962351Y9031478D01*
X8962351Y8837676D01*
X12182894Y8920734D02*
G01*
X12349264Y8920734D01*
X12465596Y9031478D02*
G01*
X12447054Y9022334D01*
X12428766Y9003792D01*
X12419368Y8985250D01*
X12410224Y8957563D01*
X12410224Y8911589D01*
X12419368Y8883650D01*
X12428766Y8865362D01*
X12447054Y8846820D01*
X12465596Y8837676D01*
X12502680Y8837676D01*
X12520968Y8846820D01*
X12539510Y8865362D01*
X12548654Y8883650D01*
X12558052Y8911589D01*
X12558052Y8957563D01*
X12548654Y8985250D01*
X12539510Y9003792D01*
X12520968Y9022334D01*
X12502680Y9031478D01*
X12465596Y9031478D01*
X12493282Y8874505D02*
G01*
X12548654Y8819134D01*
X12619012Y8994647D02*
G01*
X12637300Y9003792D01*
X12665240Y9031478D01*
X12665240Y8837676D01*
X12781572Y9031478D02*
G01*
X12753886Y9022334D01*
X12735344Y8994647D01*
X12726200Y8948420D01*
X12726200Y8920734D01*
X12735344Y8874505D01*
X12753886Y8846820D01*
X12781572Y8837676D01*
X12799860Y8837676D01*
X12827800Y8846820D01*
X12846088Y8874505D01*
X12855486Y8920734D01*
X12855486Y8948420D01*
X12846088Y8994647D01*
X12827800Y9022334D01*
X12799860Y9031478D01*
X12781572Y9031478D01*
X16056470Y8920734D02*
G01*
X16222840Y8920734D01*
X16339172Y9031478D02*
G01*
X16320630Y9022334D01*
X16302088Y9003792D01*
X16292944Y8985250D01*
X16283800Y8957563D01*
X16283800Y8911589D01*
X16292944Y8883650D01*
X16302088Y8865362D01*
X16320630Y8846820D01*
X16339172Y8837676D01*
X16376002Y8837676D01*
X16394544Y8846820D01*
X16413086Y8865362D01*
X16422230Y8883650D01*
X16431374Y8911589D01*
X16431374Y8957563D01*
X16422230Y8985250D01*
X16413086Y9003792D01*
X16394544Y9022334D01*
X16376002Y9031478D01*
X16339172Y9031478D01*
X16366858Y8874505D02*
G01*
X16422230Y8819134D01*
X16492334Y8994647D02*
G01*
X16510876Y9003792D01*
X16538562Y9031478D01*
X16538562Y8837676D01*
X16608920Y8985250D02*
G01*
X16608920Y8994647D01*
X16618064Y9013189D01*
X16627208Y9022334D01*
X16645750Y9031478D01*
X16682834Y9031478D01*
X16701122Y9022334D01*
X16710520Y9013189D01*
X16719664Y8994647D01*
X16719664Y8976105D01*
X16710520Y8957563D01*
X16691978Y8929878D01*
X16599522Y8837676D01*
X16728808Y8837676D01*
X19917295Y8920734D02*
G01*
X20083665Y8920734D01*
X20199997Y9031478D02*
G01*
X20181455Y9022334D01*
X20162913Y9003792D01*
X20153769Y8985250D01*
X20144625Y8957563D01*
X20144625Y8911589D01*
X20153769Y8883650D01*
X20162913Y8865362D01*
X20181455Y8846820D01*
X20199997Y8837676D01*
X20236827Y8837676D01*
X20255369Y8846820D01*
X20273911Y8865362D01*
X20283055Y8883650D01*
X20292199Y8911589D01*
X20292199Y8957563D01*
X20283055Y8985250D01*
X20273911Y9003792D01*
X20255369Y9022334D01*
X20236827Y9031478D01*
X20199997Y9031478D01*
X20227683Y8874505D02*
G01*
X20283055Y8819134D01*
X20371701Y9031478D02*
G01*
X20473301Y9031478D01*
X20417929Y8957563D01*
X20445615Y8957563D01*
X20464157Y8948420D01*
X20473301Y8939276D01*
X20482445Y8911589D01*
X20482445Y8893047D01*
X20473301Y8865362D01*
X20454759Y8846820D01*
X20427073Y8837676D01*
X20399387Y8837676D01*
X20371701Y8846820D01*
X20362557Y8855963D01*
X20353159Y8874505D01*
X20543405Y8994647D02*
G01*
X20561947Y9003792D01*
X20589633Y9031478D01*
X20589633Y8837676D01*
X42942395Y8920734D02*
G01*
X43108765Y8920734D01*
X43169725Y9031478D02*
G01*
X43215699Y8837676D01*
X43261927Y9031478D02*
G01*
X43215699Y8837676D01*
X43261927Y9031478D02*
G01*
X43308155Y8837676D01*
X43354383Y9031478D02*
G01*
X43308155Y8837676D01*
X43470715Y9031478D02*
G01*
X43443029Y9022334D01*
X43424487Y8994647D01*
X43415343Y8948420D01*
X43415343Y8920734D01*
X43424487Y8874505D01*
X43443029Y8846820D01*
X43470715Y8837676D01*
X43489257Y8837676D01*
X43516943Y8846820D01*
X43535485Y8874505D01*
X43544629Y8920734D01*
X43544629Y8948420D01*
X43535485Y8994647D01*
X43516943Y9022334D01*
X43489257Y9031478D01*
X43470715Y9031478D01*
X43614733Y8985250D02*
G01*
X43614733Y8994647D01*
X43624131Y9013189D01*
X43633275Y9022334D01*
X43651817Y9031478D01*
X43688647Y9031478D01*
X43707189Y9022334D01*
X43716333Y9013189D01*
X43725731Y8994647D01*
X43725731Y8976105D01*
X43716333Y8957563D01*
X43698045Y8929878D01*
X43605589Y8837676D01*
X43734875Y8837676D01*
X23760569Y8920734D02*
G01*
X23926685Y8920734D01*
X24043271Y9031478D02*
G01*
X24024729Y9022334D01*
X24006187Y9003792D01*
X23997043Y8985250D01*
X23987645Y8957563D01*
X23987645Y8911589D01*
X23997043Y8883650D01*
X24006187Y8865362D01*
X24024729Y8846820D01*
X24043271Y8837676D01*
X24080101Y8837676D01*
X24098643Y8846820D01*
X24116931Y8865362D01*
X24126329Y8883650D01*
X24135473Y8911589D01*
X24135473Y8957563D01*
X24126329Y8985250D01*
X24116931Y9003792D01*
X24098643Y9022334D01*
X24080101Y9031478D01*
X24043271Y9031478D01*
X24070957Y8874505D02*
G01*
X24126329Y8819134D01*
X24214975Y9031478D02*
G01*
X24316575Y9031478D01*
X24261203Y8957563D01*
X24288889Y8957563D01*
X24307431Y8948420D01*
X24316575Y8939276D01*
X24325719Y8911589D01*
X24325719Y8893047D01*
X24316575Y8865362D01*
X24298033Y8846820D01*
X24270347Y8837676D01*
X24242661Y8837676D01*
X24214975Y8846820D01*
X24205831Y8855963D01*
X24196433Y8874505D01*
X24442051Y9031478D02*
G01*
X24414365Y9022334D01*
X24396077Y8994647D01*
X24386679Y8948420D01*
X24386679Y8920734D01*
X24396077Y8874505D01*
X24414365Y8846820D01*
X24442051Y8837676D01*
X24460593Y8837676D01*
X24488279Y8846820D01*
X24506821Y8874505D01*
X24515965Y8920734D01*
X24515965Y8948420D01*
X24506821Y8994647D01*
X24488279Y9022334D01*
X24460593Y9031478D01*
X24442051Y9031478D01*
X27603843Y8920734D02*
G01*
X27769959Y8920734D01*
X27886291Y9031478D02*
G01*
X27868003Y9022334D01*
X27849461Y9003792D01*
X27840063Y8985250D01*
X27830919Y8957563D01*
X27830919Y8911589D01*
X27840063Y8883650D01*
X27849461Y8865362D01*
X27868003Y8846820D01*
X27886291Y8837676D01*
X27923375Y8837676D01*
X27941663Y8846820D01*
X27960205Y8865362D01*
X27969603Y8883650D01*
X27978747Y8911589D01*
X27978747Y8957563D01*
X27969603Y8985250D01*
X27960205Y9003792D01*
X27941663Y9022334D01*
X27923375Y9031478D01*
X27886291Y9031478D01*
X27913977Y8874505D02*
G01*
X27969603Y8819134D01*
X28058249Y9031478D02*
G01*
X28159849Y9031478D01*
X28104223Y8957563D01*
X28132163Y8957563D01*
X28150451Y8948420D01*
X28159849Y8939276D01*
X28168993Y8911589D01*
X28168993Y8893047D01*
X28159849Y8865362D01*
X28141307Y8846820D01*
X28113621Y8837676D01*
X28085935Y8837676D01*
X28058249Y8846820D01*
X28048851Y8855963D01*
X28039707Y8874505D01*
X28239097Y8985250D02*
G01*
X28239097Y8994647D01*
X28248495Y9013189D01*
X28257639Y9022334D01*
X28276181Y9031478D01*
X28313011Y9031478D01*
X28331553Y9022334D01*
X28340697Y9013189D01*
X28350095Y8994647D01*
X28350095Y8976105D01*
X28340697Y8957563D01*
X28322409Y8929878D01*
X28229953Y8837676D01*
X28359239Y8837676D01*
X31446863Y8920734D02*
G01*
X31613233Y8920734D01*
X31729565Y9031478D02*
G01*
X31711023Y9022334D01*
X31692481Y9003792D01*
X31683337Y8985250D01*
X31674193Y8957563D01*
X31674193Y8911589D01*
X31683337Y8883650D01*
X31692481Y8865362D01*
X31711023Y8846820D01*
X31729565Y8837676D01*
X31766395Y8837676D01*
X31784937Y8846820D01*
X31803479Y8865362D01*
X31812623Y8883650D01*
X31822021Y8911589D01*
X31822021Y8957563D01*
X31812623Y8985250D01*
X31803479Y9003792D01*
X31784937Y9022334D01*
X31766395Y9031478D01*
X31729565Y9031478D01*
X31757251Y8874505D02*
G01*
X31812623Y8819134D01*
X31892125Y8985250D02*
G01*
X31892125Y8994647D01*
X31901269Y9013189D01*
X31910667Y9022334D01*
X31928955Y9031478D01*
X31966039Y9031478D01*
X31984581Y9022334D01*
X31993725Y9013189D01*
X32002869Y8994647D01*
X32002869Y8976105D01*
X31993725Y8957563D01*
X31975183Y8929878D01*
X31882981Y8837676D01*
X32012267Y8837676D01*
X32082371Y8985250D02*
G01*
X32082371Y8994647D01*
X32091515Y9013189D01*
X32100913Y9022334D01*
X32119201Y9031478D01*
X32156285Y9031478D01*
X32174827Y9022334D01*
X32183971Y9013189D01*
X32193115Y8994647D01*
X32193115Y8976105D01*
X32183971Y8957563D01*
X32165429Y8929878D01*
X32073227Y8837676D01*
X32202513Y8837676D01*
X35271621Y8920734D02*
G01*
X35437737Y8920734D01*
X35554323Y9031478D02*
G01*
X35535781Y9022334D01*
X35517239Y9003792D01*
X35508095Y8985250D01*
X35498697Y8957563D01*
X35498697Y8911589D01*
X35508095Y8883650D01*
X35517239Y8865362D01*
X35535781Y8846820D01*
X35554323Y8837676D01*
X35591153Y8837676D01*
X35609695Y8846820D01*
X35628237Y8865362D01*
X35637381Y8883650D01*
X35646525Y8911589D01*
X35646525Y8957563D01*
X35637381Y8985250D01*
X35628237Y9003792D01*
X35609695Y9022334D01*
X35591153Y9031478D01*
X35554323Y9031478D01*
X35582009Y8874505D02*
G01*
X35637381Y8819134D01*
X35716883Y8985250D02*
G01*
X35716883Y8994647D01*
X35726027Y9013189D01*
X35735171Y9022334D01*
X35753713Y9031478D01*
X35790797Y9031478D01*
X35809085Y9022334D01*
X35818483Y9013189D01*
X35827627Y8994647D01*
X35827627Y8976105D01*
X35818483Y8957563D01*
X35799941Y8929878D01*
X35707485Y8837676D01*
X35836771Y8837676D01*
X35953357Y9031478D02*
G01*
X35925417Y9022334D01*
X35907129Y8994647D01*
X35897731Y8948420D01*
X35897731Y8920734D01*
X35907129Y8874505D01*
X35925417Y8846820D01*
X35953357Y8837676D01*
X35971645Y8837676D01*
X35999331Y8846820D01*
X36017873Y8874505D01*
X36027017Y8920734D01*
X36027017Y8948420D01*
X36017873Y8994647D01*
X35999331Y9022334D01*
X35971645Y9031478D01*
X35953357Y9031478D01*
X39133411Y8920734D02*
G01*
X39299527Y8920734D01*
X39415859Y9031478D02*
G01*
X39397571Y9022334D01*
X39379029Y9003792D01*
X39369885Y8985250D01*
X39360487Y8957563D01*
X39360487Y8911589D01*
X39369885Y8883650D01*
X39379029Y8865362D01*
X39397571Y8846820D01*
X39415859Y8837676D01*
X39452943Y8837676D01*
X39471485Y8846820D01*
X39489773Y8865362D01*
X39499171Y8883650D01*
X39508315Y8911589D01*
X39508315Y8957563D01*
X39499171Y8985250D01*
X39489773Y9003792D01*
X39471485Y9022334D01*
X39452943Y9031478D01*
X39415859Y9031478D01*
X39443545Y8874505D02*
G01*
X39499171Y8819134D01*
X39578419Y8985250D02*
G01*
X39578419Y8994647D01*
X39587817Y9013189D01*
X39596961Y9022334D01*
X39615503Y9031478D01*
X39652333Y9031478D01*
X39670875Y9022334D01*
X39680019Y9013189D01*
X39689417Y8994647D01*
X39689417Y8976105D01*
X39680019Y8957563D01*
X39661731Y8929878D01*
X39569275Y8837676D01*
X39698561Y8837676D01*
X39759521Y8994647D02*
G01*
X39778063Y9003792D01*
X39805749Y9031478D01*
X39805749Y8837676D01*
X26946123Y2622550D02*
G01*
X26936979Y2641092D01*
X26918437Y2659634D01*
X26900149Y2668778D01*
X26863065Y2668778D01*
X26844523Y2659634D01*
X26826235Y2641092D01*
X26816837Y2622550D01*
X26807693Y2594863D01*
X26807693Y2548889D01*
X26816837Y2520950D01*
X26826235Y2502662D01*
X26844523Y2484120D01*
X26863065Y2474976D01*
X26900149Y2474976D01*
X26918437Y2484120D01*
X26936979Y2502662D01*
X26946123Y2520950D01*
X26946123Y2548889D01*
X26900149Y2548889D02*
G01*
X26946123Y2548889D01*
X27007083Y2668778D02*
G01*
X27007083Y2474976D01*
X27007083Y2668778D02*
G01*
X27136623Y2474976D01*
X27136623Y2668778D02*
G01*
X27136623Y2474976D01*
X27197583Y2668778D02*
G01*
X27197583Y2474976D01*
X27197583Y2668778D02*
G01*
X27262099Y2668778D01*
X27289785Y2659634D01*
X27308327Y2641092D01*
X27317471Y2622550D01*
X27326869Y2594863D01*
X27326869Y2548889D01*
X27317471Y2520950D01*
X27308327Y2502662D01*
X27289785Y2484120D01*
X27262099Y2474976D01*
X27197583Y2474976D01*
X28724527Y2622382D02*
G01*
X28715383Y2640924D01*
X28696841Y2659466D01*
X28678553Y2668610D01*
X28641469Y2668610D01*
X28622927Y2659466D01*
X28604639Y2640924D01*
X28595241Y2622382D01*
X28586097Y2594696D01*
X28586097Y2548722D01*
X28595241Y2520782D01*
X28604639Y2502494D01*
X28622927Y2483952D01*
X28641469Y2474808D01*
X28678553Y2474808D01*
X28696841Y2483952D01*
X28715383Y2502494D01*
X28724527Y2520782D01*
X28724527Y2548722D01*
X28678553Y2548722D02*
G01*
X28724527Y2548722D01*
X28785487Y2668610D02*
G01*
X28785487Y2474808D01*
X28785487Y2668610D02*
G01*
X28915027Y2474808D01*
X28915027Y2668610D02*
G01*
X28915027Y2474808D01*
X28975987Y2668610D02*
G01*
X28975987Y2474808D01*
X28975987Y2668610D02*
G01*
X29040503Y2668610D01*
X29068189Y2659466D01*
X29086731Y2640924D01*
X29095875Y2622382D01*
X29105273Y2594696D01*
X29105273Y2548722D01*
X29095875Y2520782D01*
X29086731Y2502494D01*
X29068189Y2483952D01*
X29040503Y2474808D01*
X28975987Y2474808D01*
X26758694Y890831D02*
G01*
X26740152Y881687D01*
X26721610Y863145D01*
X26712466Y844603D01*
X26703322Y816917D01*
X26703322Y770689D01*
X26712466Y743003D01*
X26721610Y724715D01*
X26740152Y706173D01*
X26758694Y696775D01*
X26795524Y696775D01*
X26814066Y706173D01*
X26832608Y724715D01*
X26841752Y743003D01*
X26850896Y770689D01*
X26850896Y816917D01*
X26841752Y844603D01*
X26832608Y863145D01*
X26814066Y881687D01*
X26795524Y890831D01*
X26758694Y890831D01*
X26911856Y890831D02*
G01*
X26911856Y696775D01*
X26911856Y890831D02*
G01*
X26995168Y890831D01*
X27022854Y881687D01*
X27031998Y872289D01*
X27041142Y854001D01*
X27041142Y826315D01*
X27031998Y807773D01*
X27022854Y798375D01*
X26995168Y789231D01*
X26911856Y789231D01*
X27102102Y890831D02*
G01*
X27102102Y696775D01*
X27102102Y890831D02*
G01*
X27222244Y890831D01*
X27102102Y798375D02*
G01*
X27176016Y798375D01*
X27102102Y696775D02*
G01*
X27222244Y696775D01*
X27283204Y890831D02*
G01*
X27283204Y696775D01*
X27283204Y890831D02*
G01*
X27412490Y696775D01*
X27412490Y890831D02*
G01*
X27412490Y696775D01*
X24700270Y844603D02*
G01*
X24691126Y863145D01*
X24672584Y881687D01*
X24654042Y890831D01*
X24617212Y890831D01*
X24598670Y881687D01*
X24580382Y863145D01*
X24570984Y844603D01*
X24561840Y816917D01*
X24561840Y770689D01*
X24570984Y743003D01*
X24580382Y724715D01*
X24598670Y706173D01*
X24617212Y696775D01*
X24654042Y696775D01*
X24672584Y706173D01*
X24691126Y724715D01*
X24700270Y743003D01*
X24761230Y890831D02*
G01*
X24761230Y696775D01*
X24761230Y696775D02*
G01*
X24872228Y696775D01*
X24988560Y890831D02*
G01*
X24970018Y881687D01*
X24951476Y863145D01*
X24942332Y844603D01*
X24933188Y816917D01*
X24933188Y770689D01*
X24942332Y743003D01*
X24951476Y724715D01*
X24970018Y706173D01*
X24988560Y696775D01*
X25025390Y696775D01*
X25043932Y706173D01*
X25062474Y724715D01*
X25071618Y743003D01*
X25080762Y770689D01*
X25080762Y816917D01*
X25071618Y844603D01*
X25062474Y863145D01*
X25043932Y881687D01*
X25025390Y890831D01*
X24988560Y890831D01*
X25271262Y863145D02*
G01*
X25252720Y881687D01*
X25225034Y890831D01*
X25187950Y890831D01*
X25160264Y881687D01*
X25141722Y863145D01*
X25141722Y844603D01*
X25151120Y826315D01*
X25160264Y816917D01*
X25178806Y807773D01*
X25234178Y789231D01*
X25252720Y780087D01*
X25261864Y770689D01*
X25271262Y752401D01*
X25271262Y724715D01*
X25252720Y706173D01*
X25225034Y696775D01*
X25187950Y696775D01*
X25160264Y706173D01*
X25141722Y724715D01*
X25332222Y890831D02*
G01*
X25332222Y696775D01*
X25332222Y890831D02*
G01*
X25452110Y890831D01*
X25332222Y798375D02*
G01*
X25405882Y798375D01*
X25332222Y696775D02*
G01*
X25452110Y696775D01*
X22915496Y890831D02*
G01*
X22896954Y881687D01*
X22878412Y863145D01*
X22869268Y844603D01*
X22860124Y816917D01*
X22860124Y770689D01*
X22869268Y743003D01*
X22878412Y724715D01*
X22896954Y706173D01*
X22915496Y696775D01*
X22952326Y696775D01*
X22970868Y706173D01*
X22989410Y724715D01*
X22998554Y743003D01*
X23007698Y770689D01*
X23007698Y816917D01*
X22998554Y844603D01*
X22989410Y863145D01*
X22970868Y881687D01*
X22952326Y890831D01*
X22915496Y890831D01*
X23068658Y890831D02*
G01*
X23068658Y696775D01*
X23068658Y890831D02*
G01*
X23151970Y890831D01*
X23179656Y881687D01*
X23188800Y872289D01*
X23197944Y854001D01*
X23197944Y826315D01*
X23188800Y807773D01*
X23179656Y798375D01*
X23151970Y789231D01*
X23068658Y789231D01*
X23258904Y890831D02*
G01*
X23258904Y696775D01*
X23258904Y890831D02*
G01*
X23379046Y890831D01*
X23258904Y798375D02*
G01*
X23332818Y798375D01*
X23258904Y696775D02*
G01*
X23379046Y696775D01*
X23440006Y890831D02*
G01*
X23440006Y696775D01*
X23440006Y890831D02*
G01*
X23569292Y696775D01*
X23569292Y890831D02*
G01*
X23569292Y696775D01*
X24612602Y2668945D02*
G01*
X24612602Y2474889D01*
X24612602Y2668945D02*
G01*
X24686516Y2474889D01*
X24760430Y2668945D02*
G01*
X24686516Y2474889D01*
X24760430Y2668945D02*
G01*
X24760430Y2474889D01*
X24895304Y2668945D02*
G01*
X24821390Y2474889D01*
X24895304Y2668945D02*
G01*
X24969218Y2474889D01*
X24849076Y2539659D02*
G01*
X24941532Y2539659D01*
X25030178Y2668945D02*
G01*
X25030178Y2474889D01*
X25091138Y2668945D02*
G01*
X25091138Y2474889D01*
X25091138Y2668945D02*
G01*
X25220424Y2474889D01*
X25220424Y2668945D02*
G01*
X25220424Y2474889D01*
X25345900Y2668945D02*
G01*
X25345900Y2474889D01*
X25281384Y2668945D02*
G01*
X25410670Y2668945D01*
X23000868Y2668778D02*
G01*
X23000868Y2474976D01*
X22936098Y2668778D02*
G01*
X23065384Y2668778D01*
X23126344Y2668778D02*
G01*
X23126344Y2474976D01*
X23126344Y2668778D02*
G01*
X23209656Y2668778D01*
X23237342Y2659634D01*
X23246486Y2650489D01*
X23255884Y2631947D01*
X23255884Y2613405D01*
X23246486Y2594863D01*
X23237342Y2585720D01*
X23209656Y2576576D01*
X23126344Y2576576D01*
X23191114Y2576576D02*
G01*
X23255884Y2474976D01*
X23316844Y2668778D02*
G01*
X23316844Y2474976D01*
X23377804Y2668778D02*
G01*
X23377804Y2474976D01*
X23377804Y2668778D02*
G01*
X23460862Y2668778D01*
X23488548Y2659634D01*
X23497692Y2650489D01*
X23507090Y2631947D01*
X23507090Y2604262D01*
X23497692Y2585720D01*
X23488548Y2576576D01*
X23460862Y2567178D01*
X23377804Y2567178D01*
X7827327Y4586478D02*
G01*
X7735125Y4586478D01*
X7725727Y4503420D01*
X7735125Y4512563D01*
X7762811Y4521962D01*
X7790497Y4521962D01*
X7818183Y4512563D01*
X7836725Y4494276D01*
X7845869Y4466589D01*
X7845869Y4448047D01*
X7836725Y4420362D01*
X7818183Y4401820D01*
X7790497Y4392676D01*
X7762811Y4392676D01*
X7735125Y4401820D01*
X7725727Y4410963D01*
X7716583Y4429505D01*
X8036115Y4586478D02*
G01*
X7943913Y4392676D01*
X7906829Y4586478D02*
G01*
X8036115Y4586478D01*
X9618027Y4586478D02*
G01*
X9525825Y4586478D01*
X9516427Y4503420D01*
X9525825Y4512563D01*
X9553511Y4521962D01*
X9581197Y4521962D01*
X9608883Y4512563D01*
X9627425Y4494276D01*
X9636569Y4466589D01*
X9636569Y4448047D01*
X9627425Y4420362D01*
X9608883Y4401820D01*
X9581197Y4392676D01*
X9553511Y4392676D01*
X9525825Y4401820D01*
X9516427Y4410963D01*
X9507283Y4429505D01*
X9826815Y4586478D02*
G01*
X9734613Y4392676D01*
X9697529Y4586478D02*
G01*
X9826815Y4586478D01*
X12551727Y4586478D02*
G01*
X12459525Y4586478D01*
X12450127Y4503420D01*
X12459525Y4512563D01*
X12487211Y4521962D01*
X12514897Y4521962D01*
X12542583Y4512563D01*
X12561125Y4494276D01*
X12570269Y4466589D01*
X12570269Y4448047D01*
X12561125Y4420362D01*
X12542583Y4401820D01*
X12514897Y4392676D01*
X12487211Y4392676D01*
X12459525Y4401820D01*
X12450127Y4410963D01*
X12440983Y4429505D01*
X12640373Y4540250D02*
G01*
X12640373Y4549647D01*
X12649771Y4568189D01*
X12658915Y4577334D01*
X12677457Y4586478D01*
X12714287Y4586478D01*
X12732829Y4577334D01*
X12741973Y4568189D01*
X12751371Y4549647D01*
X12751371Y4531105D01*
X12741973Y4512563D01*
X12723685Y4484878D01*
X12631229Y4392676D01*
X12760515Y4392676D01*
X8602027Y4540250D02*
G01*
X8602027Y4549647D01*
X8611425Y4568189D01*
X8620569Y4577334D01*
X8639111Y4586478D01*
X8675941Y4586478D01*
X8694483Y4577334D01*
X8703627Y4568189D01*
X8713025Y4549647D01*
X8713025Y4531105D01*
X8703627Y4512563D01*
X8685339Y4484878D01*
X8592883Y4392676D01*
X8722169Y4392676D01*
X8903271Y4521962D02*
G01*
X8893873Y4494276D01*
X8875585Y4475734D01*
X8847899Y4466589D01*
X8838501Y4466589D01*
X8810815Y4475734D01*
X8792273Y4494276D01*
X8783129Y4521962D01*
X8783129Y4531105D01*
X8792273Y4558792D01*
X8810815Y4577334D01*
X8838501Y4586478D01*
X8847899Y4586478D01*
X8875585Y4577334D01*
X8893873Y4558792D01*
X8903271Y4521962D01*
X8903271Y4475734D01*
X8893873Y4429505D01*
X8875585Y4401820D01*
X8847899Y4392676D01*
X8829357Y4392676D01*
X8801671Y4401820D01*
X8792273Y4420362D01*
X16288423Y4540250D02*
G01*
X16288423Y4549647D01*
X16297821Y4568189D01*
X16306965Y4577334D01*
X16325507Y4586478D01*
X16362337Y4586478D01*
X16380879Y4577334D01*
X16390023Y4568189D01*
X16399421Y4549647D01*
X16399421Y4531105D01*
X16390023Y4512563D01*
X16371735Y4484878D01*
X16279279Y4392676D01*
X16408565Y4392676D01*
X16589667Y4521962D02*
G01*
X16580269Y4494276D01*
X16561981Y4475734D01*
X16534295Y4466589D01*
X16524897Y4466589D01*
X16497211Y4475734D01*
X16478669Y4494276D01*
X16469525Y4521962D01*
X16469525Y4531105D01*
X16478669Y4558792D01*
X16497211Y4577334D01*
X16524897Y4586478D01*
X16534295Y4586478D01*
X16561981Y4577334D01*
X16580269Y4558792D01*
X16589667Y4521962D01*
X16589667Y4475734D01*
X16580269Y4429505D01*
X16561981Y4401820D01*
X16534295Y4392676D01*
X16515753Y4392676D01*
X16488067Y4401820D01*
X16478669Y4420362D01*
X17304423Y4586478D02*
G01*
X17212221Y4586478D01*
X17202823Y4503420D01*
X17212221Y4512563D01*
X17239907Y4521962D01*
X17267593Y4521962D01*
X17295279Y4512563D01*
X17313821Y4494276D01*
X17322965Y4466589D01*
X17322965Y4448047D01*
X17313821Y4420362D01*
X17295279Y4401820D01*
X17267593Y4392676D01*
X17239907Y4392676D01*
X17212221Y4401820D01*
X17202823Y4410963D01*
X17193679Y4429505D01*
X17513211Y4586478D02*
G01*
X17421009Y4392676D01*
X17383925Y4586478D02*
G01*
X17513211Y4586478D01*
X15513723Y4586478D02*
G01*
X15421521Y4586478D01*
X15412123Y4503420D01*
X15421521Y4512563D01*
X15449207Y4521962D01*
X15476893Y4521962D01*
X15504579Y4512563D01*
X15523121Y4494276D01*
X15532265Y4466589D01*
X15532265Y4448047D01*
X15523121Y4420362D01*
X15504579Y4401820D01*
X15476893Y4392676D01*
X15449207Y4392676D01*
X15421521Y4401820D01*
X15412123Y4410963D01*
X15402979Y4429505D01*
X15722511Y4586478D02*
G01*
X15630309Y4392676D01*
X15593225Y4586478D02*
G01*
X15722511Y4586478D01*
X20131620Y4540250D02*
G01*
X20131620Y4549647D01*
X20141018Y4568189D01*
X20150162Y4577334D01*
X20168704Y4586478D01*
X20205534Y4586478D01*
X20224076Y4577334D01*
X20233220Y4568189D01*
X20242618Y4549647D01*
X20242618Y4531105D01*
X20233220Y4512563D01*
X20214932Y4484878D01*
X20122476Y4392676D01*
X20251762Y4392676D01*
X20432864Y4521962D02*
G01*
X20423466Y4494276D01*
X20405178Y4475734D01*
X20377492Y4466589D01*
X20368094Y4466589D01*
X20340408Y4475734D01*
X20321866Y4494276D01*
X20312722Y4521962D01*
X20312722Y4531105D01*
X20321866Y4558792D01*
X20340408Y4577334D01*
X20368094Y4586478D01*
X20377492Y4586478D01*
X20405178Y4577334D01*
X20423466Y4558792D01*
X20432864Y4521962D01*
X20432864Y4475734D01*
X20423466Y4429505D01*
X20405178Y4401820D01*
X20377492Y4392676D01*
X20358950Y4392676D01*
X20331264Y4401820D01*
X20321866Y4420362D01*
X21147620Y4586478D02*
G01*
X21055418Y4586478D01*
X21046020Y4503420D01*
X21055418Y4512563D01*
X21083104Y4521962D01*
X21110790Y4521962D01*
X21138476Y4512563D01*
X21157018Y4494276D01*
X21166162Y4466589D01*
X21166162Y4448047D01*
X21157018Y4420362D01*
X21138476Y4401820D01*
X21110790Y4392676D01*
X21083104Y4392676D01*
X21055418Y4401820D01*
X21046020Y4410963D01*
X21036876Y4429505D01*
X21356408Y4586478D02*
G01*
X21264206Y4392676D01*
X21227122Y4586478D02*
G01*
X21356408Y4586478D01*
X19356920Y4586478D02*
G01*
X19264718Y4586478D01*
X19255320Y4503420D01*
X19264718Y4512563D01*
X19292404Y4521962D01*
X19320090Y4521962D01*
X19347776Y4512563D01*
X19366318Y4494276D01*
X19375462Y4466589D01*
X19375462Y4448047D01*
X19366318Y4420362D01*
X19347776Y4401820D01*
X19320090Y4392676D01*
X19292404Y4392676D01*
X19264718Y4401820D01*
X19255320Y4410963D01*
X19246176Y4429505D01*
X19565708Y4586478D02*
G01*
X19473506Y4392676D01*
X19436422Y4586478D02*
G01*
X19565708Y4586478D01*
X27818041Y4540250D02*
G01*
X27818041Y4549647D01*
X27827439Y4568189D01*
X27836583Y4577334D01*
X27855125Y4586478D01*
X27891955Y4586478D01*
X27910497Y4577334D01*
X27919641Y4568189D01*
X27929039Y4549647D01*
X27929039Y4531105D01*
X27919641Y4512563D01*
X27901353Y4484878D01*
X27808897Y4392676D01*
X27938183Y4392676D01*
X28119285Y4521962D02*
G01*
X28109887Y4494276D01*
X28091599Y4475734D01*
X28063913Y4466589D01*
X28054515Y4466589D01*
X28026829Y4475734D01*
X28008287Y4494276D01*
X27999143Y4521962D01*
X27999143Y4531105D01*
X28008287Y4558792D01*
X28026829Y4577334D01*
X28054515Y4586478D01*
X28063913Y4586478D01*
X28091599Y4577334D01*
X28109887Y4558792D01*
X28119285Y4521962D01*
X28119285Y4475734D01*
X28109887Y4429505D01*
X28091599Y4401820D01*
X28063913Y4392676D01*
X28045371Y4392676D01*
X28017685Y4401820D01*
X28008287Y4420362D01*
X28834041Y4586478D02*
G01*
X28741839Y4586478D01*
X28732441Y4503420D01*
X28741839Y4512563D01*
X28769525Y4521962D01*
X28797211Y4521962D01*
X28824897Y4512563D01*
X28843439Y4494276D01*
X28852583Y4466589D01*
X28852583Y4448047D01*
X28843439Y4420362D01*
X28824897Y4401820D01*
X28797211Y4392676D01*
X28769525Y4392676D01*
X28741839Y4401820D01*
X28732441Y4410963D01*
X28723297Y4429505D01*
X29042829Y4586478D02*
G01*
X28950627Y4392676D01*
X28913543Y4586478D02*
G01*
X29042829Y4586478D01*
X27043341Y4586478D02*
G01*
X26951139Y4586478D01*
X26941741Y4503420D01*
X26951139Y4512563D01*
X26978825Y4521962D01*
X27006511Y4521962D01*
X27034197Y4512563D01*
X27052739Y4494276D01*
X27061883Y4466589D01*
X27061883Y4448047D01*
X27052739Y4420362D01*
X27034197Y4401820D01*
X27006511Y4392676D01*
X26978825Y4392676D01*
X26951139Y4401820D01*
X26941741Y4410963D01*
X26932597Y4429505D01*
X27252129Y4586478D02*
G01*
X27159927Y4392676D01*
X27122843Y4586478D02*
G01*
X27252129Y4586478D01*
X31661239Y4540250D02*
G01*
X31661239Y4549647D01*
X31670637Y4568189D01*
X31679781Y4577334D01*
X31698323Y4586478D01*
X31735153Y4586478D01*
X31753695Y4577334D01*
X31762839Y4568189D01*
X31772237Y4549647D01*
X31772237Y4531105D01*
X31762839Y4512563D01*
X31744551Y4484878D01*
X31652095Y4392676D01*
X31781381Y4392676D01*
X31962483Y4521962D02*
G01*
X31953085Y4494276D01*
X31934797Y4475734D01*
X31907111Y4466589D01*
X31897713Y4466589D01*
X31870027Y4475734D01*
X31851485Y4494276D01*
X31842341Y4521962D01*
X31842341Y4531105D01*
X31851485Y4558792D01*
X31870027Y4577334D01*
X31897713Y4586478D01*
X31907111Y4586478D01*
X31934797Y4577334D01*
X31953085Y4558792D01*
X31962483Y4521962D01*
X31962483Y4475734D01*
X31953085Y4429505D01*
X31934797Y4401820D01*
X31907111Y4392676D01*
X31888569Y4392676D01*
X31860883Y4401820D01*
X31851485Y4420362D01*
X32677239Y4586478D02*
G01*
X32585037Y4586478D01*
X32575639Y4503420D01*
X32585037Y4512563D01*
X32612723Y4521962D01*
X32640409Y4521962D01*
X32668095Y4512563D01*
X32686637Y4494276D01*
X32695781Y4466589D01*
X32695781Y4448047D01*
X32686637Y4420362D01*
X32668095Y4401820D01*
X32640409Y4392676D01*
X32612723Y4392676D01*
X32585037Y4401820D01*
X32575639Y4410963D01*
X32566495Y4429505D01*
X32886027Y4586478D02*
G01*
X32793825Y4392676D01*
X32756741Y4586478D02*
G01*
X32886027Y4586478D01*
X30886539Y4586478D02*
G01*
X30794337Y4586478D01*
X30784939Y4503420D01*
X30794337Y4512563D01*
X30822023Y4521962D01*
X30849709Y4521962D01*
X30877395Y4512563D01*
X30895937Y4494276D01*
X30905081Y4466589D01*
X30905081Y4448047D01*
X30895937Y4420362D01*
X30877395Y4401820D01*
X30849709Y4392676D01*
X30822023Y4392676D01*
X30794337Y4401820D01*
X30784939Y4410963D01*
X30775795Y4429505D01*
X31095327Y4586478D02*
G01*
X31003125Y4392676D01*
X30966041Y4586478D02*
G01*
X31095327Y4586478D01*
X39347635Y4540250D02*
G01*
X39347635Y4549647D01*
X39357033Y4568189D01*
X39366177Y4577334D01*
X39384719Y4586478D01*
X39421549Y4586478D01*
X39440091Y4577334D01*
X39449235Y4568189D01*
X39458633Y4549647D01*
X39458633Y4531105D01*
X39449235Y4512563D01*
X39430947Y4484878D01*
X39338491Y4392676D01*
X39467777Y4392676D01*
X39648879Y4521962D02*
G01*
X39639481Y4494276D01*
X39621193Y4475734D01*
X39593507Y4466589D01*
X39584109Y4466589D01*
X39556423Y4475734D01*
X39537881Y4494276D01*
X39528737Y4521962D01*
X39528737Y4531105D01*
X39537881Y4558792D01*
X39556423Y4577334D01*
X39584109Y4586478D01*
X39593507Y4586478D01*
X39621193Y4577334D01*
X39639481Y4558792D01*
X39648879Y4521962D01*
X39648879Y4475734D01*
X39639481Y4429505D01*
X39621193Y4401820D01*
X39593507Y4392676D01*
X39574965Y4392676D01*
X39547279Y4401820D01*
X39537881Y4420362D01*
X40363635Y4586478D02*
G01*
X40271433Y4586478D01*
X40262035Y4503420D01*
X40271433Y4512563D01*
X40299119Y4521962D01*
X40326805Y4521962D01*
X40354491Y4512563D01*
X40373033Y4494276D01*
X40382177Y4466589D01*
X40382177Y4448047D01*
X40373033Y4420362D01*
X40354491Y4401820D01*
X40326805Y4392676D01*
X40299119Y4392676D01*
X40271433Y4401820D01*
X40262035Y4410963D01*
X40252891Y4429505D01*
X40572423Y4586478D02*
G01*
X40480221Y4392676D01*
X40443137Y4586478D02*
G01*
X40572423Y4586478D01*
X38572935Y4586478D02*
G01*
X38480733Y4586478D01*
X38471335Y4503420D01*
X38480733Y4512563D01*
X38508419Y4521962D01*
X38536105Y4521962D01*
X38563791Y4512563D01*
X38582333Y4494276D01*
X38591477Y4466589D01*
X38591477Y4448047D01*
X38582333Y4420362D01*
X38563791Y4401820D01*
X38536105Y4392676D01*
X38508419Y4392676D01*
X38480733Y4401820D01*
X38471335Y4410963D01*
X38462191Y4429505D01*
X38781723Y4586478D02*
G01*
X38689521Y4392676D01*
X38652437Y4586478D02*
G01*
X38781723Y4586478D01*
X24081346Y4586478D02*
G01*
X23989144Y4586478D01*
X23979746Y4503420D01*
X23989144Y4512563D01*
X24016830Y4521962D01*
X24044516Y4521962D01*
X24072202Y4512563D01*
X24090744Y4494276D01*
X24099888Y4466589D01*
X24099888Y4448047D01*
X24090744Y4420362D01*
X24072202Y4401820D01*
X24044516Y4392676D01*
X24016830Y4392676D01*
X23989144Y4401820D01*
X23979746Y4410963D01*
X23970602Y4429505D01*
X24169992Y4540250D02*
G01*
X24169992Y4549647D01*
X24179390Y4568189D01*
X24188534Y4577334D01*
X24207076Y4586478D01*
X24243906Y4586478D01*
X24262448Y4577334D01*
X24271592Y4568189D01*
X24280990Y4549647D01*
X24280990Y4531105D01*
X24271592Y4512563D01*
X24253304Y4484878D01*
X24160848Y4392676D01*
X24290134Y4392676D01*
X35610939Y4586478D02*
G01*
X35518737Y4586478D01*
X35509339Y4503420D01*
X35518737Y4512563D01*
X35546423Y4521962D01*
X35574109Y4521962D01*
X35601795Y4512563D01*
X35620337Y4494276D01*
X35629481Y4466589D01*
X35629481Y4448047D01*
X35620337Y4420362D01*
X35601795Y4401820D01*
X35574109Y4392676D01*
X35546423Y4392676D01*
X35518737Y4401820D01*
X35509339Y4410963D01*
X35500195Y4429505D01*
X35699585Y4540250D02*
G01*
X35699585Y4549647D01*
X35708983Y4568189D01*
X35718127Y4577334D01*
X35736669Y4586478D01*
X35773499Y4586478D01*
X35792041Y4577334D01*
X35801185Y4568189D01*
X35810583Y4549647D01*
X35810583Y4531105D01*
X35801185Y4512563D01*
X35782897Y4484878D01*
X35690441Y4392676D01*
X35819727Y4392676D01*
X939800Y4958334D02*
G01*
X1106170Y4958334D01*
X1167129Y5069078D02*
G01*
X1213104Y4875276D01*
X1259331Y5069078D02*
G01*
X1213104Y4875276D01*
X1259331Y5069078D02*
G01*
X1305560Y4875276D01*
X1351787Y5069078D02*
G01*
X1305560Y4875276D01*
X1412747Y5032247D02*
G01*
X1431289Y5041392D01*
X1458976Y5069078D01*
X1458976Y4875276D01*
X1519936Y5032247D02*
G01*
X1538223Y5041392D01*
X1565910Y5069078D01*
X1565910Y4875276D01*
X4461446Y665759D02*
G01*
X4627562Y665759D01*
X4688522Y776503D02*
G01*
X4734750Y582701D01*
X4780978Y776503D02*
G01*
X4734750Y582701D01*
X4780978Y776503D02*
G01*
X4827206Y582701D01*
X4873434Y776503D02*
G01*
X4827206Y582701D01*
X4989766Y776503D02*
G01*
X4962080Y767359D01*
X4943538Y739673D01*
X4934394Y693445D01*
X4934394Y665759D01*
X4943538Y619531D01*
X4962080Y591845D01*
X4989766Y582701D01*
X5008308Y582701D01*
X5035994Y591845D01*
X5054282Y619531D01*
X5063680Y665759D01*
X5063680Y693445D01*
X5054282Y739673D01*
X5035994Y767359D01*
X5008308Y776503D01*
X4989766Y776503D01*
X5124640Y739673D02*
G01*
X5142928Y748817D01*
X5170868Y776503D01*
X5170868Y582701D01*
X42904321Y665759D02*
G01*
X43070437Y665759D01*
X43131397Y776503D02*
G01*
X43177625Y582701D01*
X43223853Y776503D02*
G01*
X43177625Y582701D01*
X43223853Y776503D02*
G01*
X43270081Y582701D01*
X43316309Y776503D02*
G01*
X43270081Y582701D01*
X43432641Y776503D02*
G01*
X43404955Y767359D01*
X43386413Y739673D01*
X43377269Y693445D01*
X43377269Y665759D01*
X43386413Y619531D01*
X43404955Y591845D01*
X43432641Y582701D01*
X43451183Y582701D01*
X43478869Y591845D01*
X43497157Y619531D01*
X43506555Y665759D01*
X43506555Y693445D01*
X43497157Y739673D01*
X43478869Y767359D01*
X43451183Y776503D01*
X43432641Y776503D01*
X43576659Y730275D02*
G01*
X43576659Y739673D01*
X43586057Y757961D01*
X43595201Y767359D01*
X43613743Y776503D01*
X43650573Y776503D01*
X43669115Y767359D01*
X43678259Y757961D01*
X43687657Y739673D01*
X43687657Y721131D01*
X43678259Y702589D01*
X43659717Y674903D01*
X43567515Y582701D01*
X43696801Y582701D01*
X46685200Y4920234D02*
G01*
X46851570Y4920234D01*
X46912529Y5030978D02*
G01*
X46958504Y4837176D01*
X47004732Y5030978D02*
G01*
X46958504Y4837176D01*
X47004732Y5030978D02*
G01*
X47050959Y4837176D01*
X47097188Y5030978D02*
G01*
X47050959Y4837176D01*
X47158148Y4994147D02*
G01*
X47176690Y5003292D01*
X47204375Y5030978D01*
X47204375Y4837176D01*
X47274479Y4984750D02*
G01*
X47274479Y4994147D01*
X47283624Y5012689D01*
X47293022Y5021834D01*
X47311309Y5030978D01*
X47348393Y5030978D01*
X47366936Y5021834D01*
X47376079Y5012689D01*
X47385224Y4994147D01*
X47385224Y4975605D01*
X47376079Y4957063D01*
X47357538Y4929378D01*
X47265336Y4837176D01*
X47394622Y4837176D01*
X12182995Y12834620D02*
G01*
X12349365Y12834620D01*
X12182995Y12779247D02*
G01*
X12349365Y12779247D01*
X12410325Y12917678D02*
G01*
X12410325Y12723876D01*
X12410325Y12917678D02*
G01*
X12474841Y12917678D01*
X12502527Y12908534D01*
X12521069Y12889992D01*
X12530213Y12871450D01*
X12539611Y12843763D01*
X12539611Y12797789D01*
X12530213Y12769850D01*
X12521069Y12751562D01*
X12502527Y12733020D01*
X12474841Y12723876D01*
X12410325Y12723876D01*
X12674485Y12917678D02*
G01*
X12600571Y12723876D01*
X12674485Y12917678D02*
G01*
X12748145Y12723876D01*
X12628257Y12788392D02*
G01*
X12720459Y12788392D01*
X12809105Y12880847D02*
G01*
X12827647Y12889992D01*
X12855333Y12917678D01*
X12855333Y12723876D01*
X12916293Y12880847D02*
G01*
X12934835Y12889992D01*
X12962521Y12917678D01*
X12962521Y12723876D01*
X23689144Y12834620D02*
G01*
X23855514Y12834620D01*
X23689144Y12779247D02*
G01*
X23855514Y12779247D01*
X23916474Y12917678D02*
G01*
X23916474Y12723876D01*
X23916474Y12917678D02*
G01*
X23980990Y12917678D01*
X24008676Y12908534D01*
X24027218Y12889992D01*
X24036362Y12871450D01*
X24045760Y12843763D01*
X24045760Y12797789D01*
X24036362Y12769850D01*
X24027218Y12751562D01*
X24008676Y12733020D01*
X23980990Y12723876D01*
X23916474Y12723876D01*
X24180634Y12917678D02*
G01*
X24106720Y12723876D01*
X24180634Y12917678D02*
G01*
X24254548Y12723876D01*
X24134406Y12788392D02*
G01*
X24226862Y12788392D01*
X24315508Y12880847D02*
G01*
X24333796Y12889992D01*
X24361482Y12917678D01*
X24361482Y12723876D01*
X24440984Y12917678D02*
G01*
X24542584Y12917678D01*
X24487212Y12843763D01*
X24514898Y12843763D01*
X24533440Y12834620D01*
X24542584Y12825476D01*
X24551982Y12797789D01*
X24551982Y12779247D01*
X24542584Y12751562D01*
X24524042Y12733020D01*
X24496356Y12723876D01*
X24468670Y12723876D01*
X24440984Y12733020D01*
X24431840Y12742163D01*
X24422442Y12760705D01*
X35246119Y12834620D02*
G01*
X35412489Y12834620D01*
X35246119Y12779247D02*
G01*
X35412489Y12779247D01*
X35473449Y12917678D02*
G01*
X35473449Y12723876D01*
X35473449Y12917678D02*
G01*
X35537965Y12917678D01*
X35565651Y12908534D01*
X35584193Y12889992D01*
X35593591Y12871450D01*
X35602735Y12843763D01*
X35602735Y12797789D01*
X35593591Y12769850D01*
X35584193Y12751562D01*
X35565651Y12733020D01*
X35537965Y12723876D01*
X35473449Y12723876D01*
X35737609Y12917678D02*
G01*
X35663695Y12723876D01*
X35737609Y12917678D02*
G01*
X35811523Y12723876D01*
X35691381Y12788392D02*
G01*
X35783837Y12788392D01*
X35872483Y12880847D02*
G01*
X35890771Y12889992D01*
X35918711Y12917678D01*
X35918711Y12723876D01*
X35988815Y12871450D02*
G01*
X35988815Y12880847D01*
X35997959Y12899389D01*
X36007357Y12908534D01*
X36025645Y12917678D01*
X36062729Y12917678D01*
X36081271Y12908534D01*
X36090415Y12899389D01*
X36099559Y12880847D01*
X36099559Y12862305D01*
X36090415Y12843763D01*
X36071873Y12816078D01*
X35979671Y12723876D01*
X36108957Y12723876D01*
X17013849Y844603D02*
G01*
X17004705Y863145D01*
X16986163Y881687D01*
X16967621Y890831D01*
X16930791Y890831D01*
X16912249Y881687D01*
X16893961Y863145D01*
X16884563Y844603D01*
X16875419Y816917D01*
X16875419Y770689D01*
X16884563Y743003D01*
X16893961Y724715D01*
X16912249Y706173D01*
X16930791Y696775D01*
X16967621Y696775D01*
X16986163Y706173D01*
X17004705Y724715D01*
X17013849Y743003D01*
X17074809Y890831D02*
G01*
X17074809Y696775D01*
X17074809Y696775D02*
G01*
X17185807Y696775D01*
X17302139Y890831D02*
G01*
X17283597Y881687D01*
X17265055Y863145D01*
X17255911Y844603D01*
X17246767Y816917D01*
X17246767Y770689D01*
X17255911Y743003D01*
X17265055Y724715D01*
X17283597Y706173D01*
X17302139Y696775D01*
X17338969Y696775D01*
X17357511Y706173D01*
X17376053Y724715D01*
X17385197Y743003D01*
X17394341Y770689D01*
X17394341Y816917D01*
X17385197Y844603D01*
X17376053Y863145D01*
X17357511Y881687D01*
X17338969Y890831D01*
X17302139Y890831D01*
X17584841Y863145D02*
G01*
X17566299Y881687D01*
X17538613Y890831D01*
X17501529Y890831D01*
X17473843Y881687D01*
X17455301Y863145D01*
X17455301Y844603D01*
X17464699Y826315D01*
X17473843Y816917D01*
X17492385Y807773D01*
X17547757Y789231D01*
X17566299Y780087D01*
X17575443Y770689D01*
X17584841Y752401D01*
X17584841Y724715D01*
X17566299Y706173D01*
X17538613Y696775D01*
X17501529Y696775D01*
X17473843Y706173D01*
X17455301Y724715D01*
X17645801Y890831D02*
G01*
X17645801Y696775D01*
X17645801Y890831D02*
G01*
X17765689Y890831D01*
X17645801Y798375D02*
G01*
X17719461Y798375D01*
X17645801Y696775D02*
G01*
X17765689Y696775D01*
X9327454Y844603D02*
G01*
X9318310Y863145D01*
X9299768Y881687D01*
X9281226Y890831D01*
X9244396Y890831D01*
X9225854Y881687D01*
X9207566Y863145D01*
X9198168Y844603D01*
X9189024Y816917D01*
X9189024Y770689D01*
X9198168Y743003D01*
X9207566Y724715D01*
X9225854Y706173D01*
X9244396Y696775D01*
X9281226Y696775D01*
X9299768Y706173D01*
X9318310Y724715D01*
X9327454Y743003D01*
X9388414Y890831D02*
G01*
X9388414Y696775D01*
X9388414Y696775D02*
G01*
X9499412Y696775D01*
X9615744Y890831D02*
G01*
X9597202Y881687D01*
X9578660Y863145D01*
X9569516Y844603D01*
X9560372Y816917D01*
X9560372Y770689D01*
X9569516Y743003D01*
X9578660Y724715D01*
X9597202Y706173D01*
X9615744Y696775D01*
X9652574Y696775D01*
X9671116Y706173D01*
X9689658Y724715D01*
X9698802Y743003D01*
X9707946Y770689D01*
X9707946Y816917D01*
X9698802Y844603D01*
X9689658Y863145D01*
X9671116Y881687D01*
X9652574Y890831D01*
X9615744Y890831D01*
X9898446Y863145D02*
G01*
X9879904Y881687D01*
X9852218Y890831D01*
X9815134Y890831D01*
X9787448Y881687D01*
X9768906Y863145D01*
X9768906Y844603D01*
X9778304Y826315D01*
X9787448Y816917D01*
X9805990Y807773D01*
X9861362Y789231D01*
X9879904Y780087D01*
X9889048Y770689D01*
X9898446Y752401D01*
X9898446Y724715D01*
X9879904Y706173D01*
X9852218Y696775D01*
X9815134Y696775D01*
X9787448Y706173D01*
X9768906Y724715D01*
X9959406Y890831D02*
G01*
X9959406Y696775D01*
X9959406Y890831D02*
G01*
X10079294Y890831D01*
X9959406Y798375D02*
G01*
X10033066Y798375D01*
X9959406Y696775D02*
G01*
X10079294Y696775D01*
X13170651Y844603D02*
G01*
X13161507Y863145D01*
X13142965Y881687D01*
X13124423Y890831D01*
X13087593Y890831D01*
X13069051Y881687D01*
X13050763Y863145D01*
X13041365Y844603D01*
X13032221Y816917D01*
X13032221Y770689D01*
X13041365Y743003D01*
X13050763Y724715D01*
X13069051Y706173D01*
X13087593Y696775D01*
X13124423Y696775D01*
X13142965Y706173D01*
X13161507Y724715D01*
X13170651Y743003D01*
X13231611Y890831D02*
G01*
X13231611Y696775D01*
X13231611Y696775D02*
G01*
X13342609Y696775D01*
X13458941Y890831D02*
G01*
X13440399Y881687D01*
X13421857Y863145D01*
X13412713Y844603D01*
X13403569Y816917D01*
X13403569Y770689D01*
X13412713Y743003D01*
X13421857Y724715D01*
X13440399Y706173D01*
X13458941Y696775D01*
X13495771Y696775D01*
X13514313Y706173D01*
X13532855Y724715D01*
X13541999Y743003D01*
X13551143Y770689D01*
X13551143Y816917D01*
X13541999Y844603D01*
X13532855Y863145D01*
X13514313Y881687D01*
X13495771Y890831D01*
X13458941Y890831D01*
X13741643Y863145D02*
G01*
X13723101Y881687D01*
X13695415Y890831D01*
X13658331Y890831D01*
X13630645Y881687D01*
X13612103Y863145D01*
X13612103Y844603D01*
X13621501Y826315D01*
X13630645Y816917D01*
X13649187Y807773D01*
X13704559Y789231D01*
X13723101Y780087D01*
X13732245Y770689D01*
X13741643Y752401D01*
X13741643Y724715D01*
X13723101Y706173D01*
X13695415Y696775D01*
X13658331Y696775D01*
X13630645Y706173D01*
X13612103Y724715D01*
X13802603Y890831D02*
G01*
X13802603Y696775D01*
X13802603Y890831D02*
G01*
X13922491Y890831D01*
X13802603Y798375D02*
G01*
X13876263Y798375D01*
X13802603Y696775D02*
G01*
X13922491Y696775D01*
X20857047Y844603D02*
G01*
X20847903Y863145D01*
X20829361Y881687D01*
X20810819Y890831D01*
X20773989Y890831D01*
X20755447Y881687D01*
X20737159Y863145D01*
X20727761Y844603D01*
X20718617Y816917D01*
X20718617Y770689D01*
X20727761Y743003D01*
X20737159Y724715D01*
X20755447Y706173D01*
X20773989Y696775D01*
X20810819Y696775D01*
X20829361Y706173D01*
X20847903Y724715D01*
X20857047Y743003D01*
X20918007Y890831D02*
G01*
X20918007Y696775D01*
X20918007Y696775D02*
G01*
X21029005Y696775D01*
X21145337Y890831D02*
G01*
X21126795Y881687D01*
X21108253Y863145D01*
X21099109Y844603D01*
X21089965Y816917D01*
X21089965Y770689D01*
X21099109Y743003D01*
X21108253Y724715D01*
X21126795Y706173D01*
X21145337Y696775D01*
X21182167Y696775D01*
X21200709Y706173D01*
X21219251Y724715D01*
X21228395Y743003D01*
X21237539Y770689D01*
X21237539Y816917D01*
X21228395Y844603D01*
X21219251Y863145D01*
X21200709Y881687D01*
X21182167Y890831D01*
X21145337Y890831D01*
X21428039Y863145D02*
G01*
X21409497Y881687D01*
X21381811Y890831D01*
X21344727Y890831D01*
X21317041Y881687D01*
X21298499Y863145D01*
X21298499Y844603D01*
X21307897Y826315D01*
X21317041Y816917D01*
X21335583Y807773D01*
X21390955Y789231D01*
X21409497Y780087D01*
X21418641Y770689D01*
X21428039Y752401D01*
X21428039Y724715D01*
X21409497Y706173D01*
X21381811Y696775D01*
X21344727Y696775D01*
X21317041Y706173D01*
X21298499Y724715D01*
X21488999Y890831D02*
G01*
X21488999Y696775D01*
X21488999Y890831D02*
G01*
X21608887Y890831D01*
X21488999Y798375D02*
G01*
X21562659Y798375D01*
X21488999Y696775D02*
G01*
X21608887Y696775D01*
X28543468Y844603D02*
G01*
X28534324Y863145D01*
X28515782Y881687D01*
X28497240Y890831D01*
X28460410Y890831D01*
X28441868Y881687D01*
X28423580Y863145D01*
X28414182Y844603D01*
X28405038Y816917D01*
X28405038Y770689D01*
X28414182Y743003D01*
X28423580Y724715D01*
X28441868Y706173D01*
X28460410Y696775D01*
X28497240Y696775D01*
X28515782Y706173D01*
X28534324Y724715D01*
X28543468Y743003D01*
X28604428Y890831D02*
G01*
X28604428Y696775D01*
X28604428Y696775D02*
G01*
X28715426Y696775D01*
X28831758Y890831D02*
G01*
X28813216Y881687D01*
X28794674Y863145D01*
X28785530Y844603D01*
X28776386Y816917D01*
X28776386Y770689D01*
X28785530Y743003D01*
X28794674Y724715D01*
X28813216Y706173D01*
X28831758Y696775D01*
X28868588Y696775D01*
X28887130Y706173D01*
X28905672Y724715D01*
X28914816Y743003D01*
X28923960Y770689D01*
X28923960Y816917D01*
X28914816Y844603D01*
X28905672Y863145D01*
X28887130Y881687D01*
X28868588Y890831D01*
X28831758Y890831D01*
X29114460Y863145D02*
G01*
X29095918Y881687D01*
X29068232Y890831D01*
X29031148Y890831D01*
X29003462Y881687D01*
X28984920Y863145D01*
X28984920Y844603D01*
X28994318Y826315D01*
X29003462Y816917D01*
X29022004Y807773D01*
X29077376Y789231D01*
X29095918Y780087D01*
X29105062Y770689D01*
X29114460Y752401D01*
X29114460Y724715D01*
X29095918Y706173D01*
X29068232Y696775D01*
X29031148Y696775D01*
X29003462Y706173D01*
X28984920Y724715D01*
X29175420Y890831D02*
G01*
X29175420Y696775D01*
X29175420Y890831D02*
G01*
X29295308Y890831D01*
X29175420Y798375D02*
G01*
X29249080Y798375D01*
X29175420Y696775D02*
G01*
X29295308Y696775D01*
X32386666Y844603D02*
G01*
X32377522Y863145D01*
X32358980Y881687D01*
X32340438Y890831D01*
X32303608Y890831D01*
X32285066Y881687D01*
X32266778Y863145D01*
X32257380Y844603D01*
X32248236Y816917D01*
X32248236Y770689D01*
X32257380Y743003D01*
X32266778Y724715D01*
X32285066Y706173D01*
X32303608Y696775D01*
X32340438Y696775D01*
X32358980Y706173D01*
X32377522Y724715D01*
X32386666Y743003D01*
X32447626Y890831D02*
G01*
X32447626Y696775D01*
X32447626Y696775D02*
G01*
X32558624Y696775D01*
X32674956Y890831D02*
G01*
X32656414Y881687D01*
X32637872Y863145D01*
X32628728Y844603D01*
X32619584Y816917D01*
X32619584Y770689D01*
X32628728Y743003D01*
X32637872Y724715D01*
X32656414Y706173D01*
X32674956Y696775D01*
X32711786Y696775D01*
X32730328Y706173D01*
X32748870Y724715D01*
X32758014Y743003D01*
X32767158Y770689D01*
X32767158Y816917D01*
X32758014Y844603D01*
X32748870Y863145D01*
X32730328Y881687D01*
X32711786Y890831D01*
X32674956Y890831D01*
X32957658Y863145D02*
G01*
X32939116Y881687D01*
X32911430Y890831D01*
X32874346Y890831D01*
X32846660Y881687D01*
X32828118Y863145D01*
X32828118Y844603D01*
X32837516Y826315D01*
X32846660Y816917D01*
X32865202Y807773D01*
X32920574Y789231D01*
X32939116Y780087D01*
X32948260Y770689D01*
X32957658Y752401D01*
X32957658Y724715D01*
X32939116Y706173D01*
X32911430Y696775D01*
X32874346Y696775D01*
X32846660Y706173D01*
X32828118Y724715D01*
X33018618Y890831D02*
G01*
X33018618Y696775D01*
X33018618Y890831D02*
G01*
X33138506Y890831D01*
X33018618Y798375D02*
G01*
X33092278Y798375D01*
X33018618Y696775D02*
G01*
X33138506Y696775D01*
X36229864Y844603D02*
G01*
X36220720Y863145D01*
X36202178Y881687D01*
X36183636Y890831D01*
X36146806Y890831D01*
X36128264Y881687D01*
X36109976Y863145D01*
X36100578Y844603D01*
X36091434Y816917D01*
X36091434Y770689D01*
X36100578Y743003D01*
X36109976Y724715D01*
X36128264Y706173D01*
X36146806Y696775D01*
X36183636Y696775D01*
X36202178Y706173D01*
X36220720Y724715D01*
X36229864Y743003D01*
X36290824Y890831D02*
G01*
X36290824Y696775D01*
X36290824Y696775D02*
G01*
X36401822Y696775D01*
X36518154Y890831D02*
G01*
X36499612Y881687D01*
X36481070Y863145D01*
X36471926Y844603D01*
X36462782Y816917D01*
X36462782Y770689D01*
X36471926Y743003D01*
X36481070Y724715D01*
X36499612Y706173D01*
X36518154Y696775D01*
X36554984Y696775D01*
X36573526Y706173D01*
X36592068Y724715D01*
X36601212Y743003D01*
X36610356Y770689D01*
X36610356Y816917D01*
X36601212Y844603D01*
X36592068Y863145D01*
X36573526Y881687D01*
X36554984Y890831D01*
X36518154Y890831D01*
X36800856Y863145D02*
G01*
X36782314Y881687D01*
X36754628Y890831D01*
X36717544Y890831D01*
X36689858Y881687D01*
X36671316Y863145D01*
X36671316Y844603D01*
X36680714Y826315D01*
X36689858Y816917D01*
X36708400Y807773D01*
X36763772Y789231D01*
X36782314Y780087D01*
X36791458Y770689D01*
X36800856Y752401D01*
X36800856Y724715D01*
X36782314Y706173D01*
X36754628Y696775D01*
X36717544Y696775D01*
X36689858Y706173D01*
X36671316Y724715D01*
X36861816Y890831D02*
G01*
X36861816Y696775D01*
X36861816Y890831D02*
G01*
X36981704Y890831D01*
X36861816Y798375D02*
G01*
X36935476Y798375D01*
X36861816Y696775D02*
G01*
X36981704Y696775D01*
G36*
X584200Y6718300D02*
G01*
X463550Y6584950D01*
X584200Y6451600D01*
X609600Y6477000D01*
X514350Y6584950D01*
X609600Y6692900D01*
G37*
G36*
X2082800Y6718300D02*
G01*
X1962150Y6584950D01*
X2082800Y6451600D01*
X2108200Y6477000D01*
X2012950Y6584950D01*
X2108200Y6692900D01*
G37*
G36*
X2082800Y7632700D02*
G01*
X1962150Y7499350D01*
X2082800Y7366000D01*
X2108200Y7391400D01*
X2012950Y7499350D01*
X2108200Y7607300D01*
G37*
G36*
X581050Y7626350D02*
G01*
X460400Y7493000D01*
X581050Y7359650D01*
X606450Y7385050D01*
X511200Y7493000D01*
X606450Y7600950D01*
G37*
G36*
X581050Y5772150D02*
G01*
X460400Y5638800D01*
X581050Y5505450D01*
X606450Y5530850D01*
X511200Y5638800D01*
X606450Y5746750D01*
G37*
G36*
X2079599Y5772150D02*
G01*
X1958949Y5638800D01*
X2079599Y5505450D01*
X2104999Y5530850D01*
X2009749Y5638800D01*
X2104999Y5746750D01*
G37*
G36*
X17771008Y7632700D02*
G01*
X17650358Y7499350D01*
X17771008Y7366000D01*
X17796408Y7391400D01*
X17701158Y7499350D01*
X17796408Y7607300D01*
G37*
G36*
X17771008Y6718300D02*
G01*
X17650358Y6584950D01*
X17771008Y6451600D01*
X17796408Y6477000D01*
X17701158Y6584950D01*
X17796408Y6692900D01*
G37*
G36*
X17771008Y5778500D02*
G01*
X17650358Y5645150D01*
X17771008Y5511800D01*
X17796408Y5537200D01*
X17701158Y5645150D01*
X17796408Y5753100D01*
G37*
G36*
X30496408Y5778500D02*
G01*
X30471008Y5753100D01*
X30566258Y5645150D01*
X30471008Y5537200D01*
X30496408Y5511800D01*
X30617058Y5645150D01*
G37*
G36*
X30499558Y6711950D02*
G01*
X30474158Y6686550D01*
X30569408Y6578600D01*
X30474158Y6470650D01*
X30499558Y6445250D01*
X30620208Y6578600D01*
G37*
G36*
X30496408Y7632700D02*
G01*
X30471008Y7607300D01*
X30566258Y7499350D01*
X30471008Y7391400D01*
X30496408Y7366000D01*
X30617058Y7499350D01*
G37*
G36*
X46248116Y7632700D02*
G01*
X46222716Y7607300D01*
X46317966Y7499350D01*
X46222716Y7391400D01*
X46248116Y7366000D01*
X46368766Y7499350D01*
G37*
G36*
X47746716Y7632700D02*
G01*
X47721316Y7607300D01*
X47816566Y7499350D01*
X47721316Y7391400D01*
X47746716Y7366000D01*
X47867366Y7499350D01*
G37*
G36*
X47749866Y5772150D02*
G01*
X47724466Y5746750D01*
X47819716Y5638800D01*
X47724466Y5530850D01*
X47749866Y5505450D01*
X47870516Y5638800D01*
G37*
G36*
X46251266Y5772150D02*
G01*
X46225866Y5746750D01*
X46321116Y5638800D01*
X46225866Y5530850D01*
X46251266Y5505450D01*
X46371916Y5638800D01*
G37*
G36*
X46251266Y6724650D02*
G01*
X46225866Y6699250D01*
X46321116Y6591300D01*
X46225866Y6483350D01*
X46251266Y6457950D01*
X46371916Y6591300D01*
G37*
G36*
X47749866Y6724650D02*
G01*
X47724466Y6699250D01*
X47819716Y6591300D01*
X47724466Y6483350D01*
X47749866Y6457950D01*
X47870516Y6591300D01*
G37*
D11*
X45444295Y355600D02*
G01*
X45444295Y228600D01*
X45456995Y12446000D02*
G01*
X45456995Y12573000D01*
X45444295Y228600D02*
G01*
X44453695Y228600D01*
X42167695Y228600D02*
G01*
X29882726Y228600D01*
X45456995Y12573000D02*
G01*
X44466395Y12573000D01*
X29882726Y12573000D02*
G01*
X42174045Y12573000D01*
X18355195Y228600D02*
G01*
X6023495Y225610D01*
X2734195Y355600D02*
G01*
X2734195Y228600D01*
X3724795Y228600D01*
X2734195Y12446000D02*
G01*
X2734195Y12573000D01*
X3724795Y12573000D01*
X29884786Y228600D02*
G01*
X18353186Y228600D01*
X29378795Y355600D02*
G01*
X29378795Y228600D01*
X29378795Y12573000D02*
G01*
X29378795Y12446000D01*
X18863195Y12573000D02*
G01*
X18863195Y12446000D01*
X18863195Y355600D02*
G01*
X18863195Y228600D01*
X18353186Y12573000D02*
G01*
X29884786Y12573000D01*
X6023495Y12573000D02*
G01*
X18355195Y12573000D01*
D12*
X39753603Y8013700D02*
G01*
X40261603Y8013700D01*
X38737603Y8013700D02*
G01*
X39245603Y8013700D01*
X39753603Y8013700D02*
G01*
X39359903Y7759700D01*
X39245603Y8140700D02*
G01*
X39245603Y7874000D01*
X32067202Y8013700D02*
G01*
X32575202Y8013700D01*
X31051202Y8013700D02*
G01*
X31559202Y8013700D01*
X32067202Y8013700D02*
G01*
X31673502Y7759700D01*
X31559202Y8140700D02*
G01*
X31559202Y7874000D01*
X28224012Y8013700D02*
G01*
X28732012Y8013700D01*
X27208012Y8013700D02*
G01*
X27716012Y8013700D01*
X28224012Y8013700D02*
G01*
X27830312Y7759700D01*
X27716012Y8140700D02*
G01*
X27716012Y7874000D01*
X20537586Y8013700D02*
G01*
X21045586Y8013700D01*
X19521586Y8013700D02*
G01*
X20029586Y8013700D01*
X20537586Y8013700D02*
G01*
X20143886Y7759700D01*
X20029586Y8140700D02*
G01*
X20029586Y7874000D01*
X35458102Y7962900D02*
G01*
X35356502Y8064500D01*
X35356502Y7962900D02*
G01*
X35458102Y8064500D01*
X35910403Y8013700D02*
G01*
X36418403Y8013700D01*
X34894403Y8013700D02*
G01*
X35402403Y8013700D01*
X35910403Y8013700D02*
G01*
X35516703Y7759700D01*
X23928511Y7962900D02*
G01*
X23826911Y8064500D01*
X23826911Y7962900D02*
G01*
X23928511Y8064500D01*
X24380812Y8013700D02*
G01*
X24888812Y8013700D01*
X23364812Y8013700D02*
G01*
X23872812Y8013700D01*
X24380812Y8013700D02*
G01*
X23987112Y7759700D01*
X12398895Y7962900D02*
G01*
X12297295Y8064500D01*
X12297295Y7962900D02*
G01*
X12398895Y8064500D01*
X12851196Y8013700D02*
G01*
X13359196Y8013700D01*
X11835196Y8013700D02*
G01*
X12343196Y8013700D01*
X12851196Y8013700D02*
G01*
X12457496Y7759700D01*
X16694386Y8013700D02*
G01*
X17202386Y8013700D01*
X15678386Y8013700D02*
G01*
X16186386Y8013700D01*
X16694386Y8013700D02*
G01*
X16300686Y7759700D01*
X16186386Y8140700D02*
G01*
X16186386Y7874000D01*
X9007995Y8013700D02*
G01*
X9515995Y8013700D01*
X7991995Y8013700D02*
G01*
X8499995Y8013700D01*
X9007995Y8013700D02*
G01*
X8614295Y7759700D01*
X8499995Y8140700D02*
G01*
X8499995Y7874000D01*
D13*
X29610497Y7124700D02*
G01*
X29978797Y7493000D01*
X29610497Y6210300D02*
G01*
X29978797Y6578600D01*
X29610497Y5270500D02*
G01*
X29978797Y5638800D01*
X18659995Y7124700D02*
G01*
X18291695Y7493000D01*
X18659995Y6210300D02*
G01*
X18291695Y6578600D01*
X18659995Y5270500D02*
G01*
X18291695Y5638800D01*
D11*
X37937503Y5499100D02*
G01*
X37937503Y5295900D01*
X37937503Y6438900D02*
G01*
X37937503Y6235700D01*
X37937503Y7353300D02*
G01*
X37937503Y7150100D01*
X37937503Y6591300D02*
G01*
X37937503Y6883400D01*
X37937503Y5651500D02*
G01*
X37937503Y5943600D01*
X38229603Y5410200D02*
G01*
X38229603Y5943600D01*
X38229603Y6350000D02*
G01*
X38229603Y6883400D01*
X37937503Y7505700D02*
G01*
X37937503Y7797800D01*
X38229603Y7264400D02*
G01*
X38229603Y7797800D01*
X33362602Y5499100D02*
G01*
X33362602Y5295900D01*
X33362602Y6438900D02*
G01*
X33362602Y6235700D01*
X33362602Y7353300D02*
G01*
X33362602Y7150100D01*
X33362602Y6591300D02*
G01*
X33362602Y6883400D01*
X33362602Y5651500D02*
G01*
X33362602Y5943600D01*
X33362602Y7505700D02*
G01*
X33362602Y7797800D01*
X33070502Y5410200D02*
G01*
X33070502Y5943600D01*
X33070502Y6350000D02*
G01*
X33070502Y6883400D01*
X33070502Y7264400D02*
G01*
X33070502Y7797800D01*
X26407912Y5499100D02*
G01*
X26407912Y5295900D01*
X26407912Y6438900D02*
G01*
X26407912Y6235700D01*
X26407912Y7353300D02*
G01*
X26407912Y7150100D01*
X26407912Y6591300D02*
G01*
X26407912Y6883400D01*
X26407912Y5651500D02*
G01*
X26407912Y5943600D01*
X26700012Y5410200D02*
G01*
X26700012Y5943600D01*
X26700012Y6350000D02*
G01*
X26700012Y6883400D01*
X26407912Y7505700D02*
G01*
X26407912Y7797800D01*
X26700012Y7264400D02*
G01*
X26700012Y7797800D01*
X21832986Y5499100D02*
G01*
X21832986Y5295900D01*
X21832986Y6438900D02*
G01*
X21832986Y6235700D01*
X21832986Y7353300D02*
G01*
X21832986Y7150100D01*
X21832986Y6591300D02*
G01*
X21832986Y6883400D01*
X21832986Y5651500D02*
G01*
X21832986Y5943600D01*
X21832986Y7505700D02*
G01*
X21832986Y7797800D01*
X21540886Y5410200D02*
G01*
X21540886Y5943600D01*
X21540886Y6350000D02*
G01*
X21540886Y6883400D01*
X21540886Y7264400D02*
G01*
X21540886Y7797800D01*
X14878286Y5499100D02*
G01*
X14878286Y5295900D01*
X14878286Y6438900D02*
G01*
X14878286Y6235700D01*
X14878286Y7353300D02*
G01*
X14878286Y7150100D01*
X14878286Y6591300D02*
G01*
X14878286Y6883400D01*
X14878286Y5651500D02*
G01*
X14878286Y5943600D01*
X15170386Y5410200D02*
G01*
X15170386Y5943600D01*
X15170386Y6350000D02*
G01*
X15170386Y6883400D01*
X14878286Y7505700D02*
G01*
X14878286Y7797800D01*
X15170386Y7264400D02*
G01*
X15170386Y7797800D01*
X10303395Y5499100D02*
G01*
X10303395Y5295900D01*
X10303395Y6438900D02*
G01*
X10303395Y6235700D01*
X10303395Y7353300D02*
G01*
X10303395Y7150100D01*
X10303395Y6591300D02*
G01*
X10303395Y6883400D01*
X10303395Y5651500D02*
G01*
X10303395Y5943600D01*
X10303395Y7505700D02*
G01*
X10303395Y7797800D01*
X10011295Y5410200D02*
G01*
X10011295Y5943600D01*
X10011295Y6350000D02*
G01*
X10011295Y6883400D01*
X10011295Y7264400D02*
G01*
X10011295Y7797800D01*
G75*
G01*
X9909696Y5410200D02*
G03*
X10009696Y5410200I50000J0D01*
G75*
G01*
X10011296Y5410200D02*
G03*
X10111296Y5410200I50000J0D01*
G75*
G01*
X9909696Y6350000D02*
G03*
X10009696Y6350000I50000J0D01*
G75*
G01*
X10011296Y6350000D02*
G03*
X10111296Y6350000I50000J0D01*
G75*
G01*
X10011296Y7264400D02*
G03*
X10111296Y7264400I50000J0D01*
G75*
G01*
X9909696Y7264400D02*
G03*
X10009696Y7264400I50000J0D01*
G75*
G01*
X10201796Y5651500D02*
G03*
X10301796Y5651500I50000J0D01*
G75*
G01*
X10404996Y5499100D02*
G03*
X10304996Y5499100I-50000J0D01*
G75*
G01*
X10303396Y5499100D02*
G03*
X10203396Y5499100I-50000J0D01*
G75*
G01*
X10201796Y6591300D02*
G03*
X10301796Y6591300I50000J0D01*
G75*
G01*
X10404996Y6438900D02*
G03*
X10304996Y6438900I-50000J0D01*
G75*
G01*
X10303396Y6438900D02*
G03*
X10203396Y6438900I-50000J0D01*
G75*
G01*
X10303396Y7353300D02*
G03*
X10203396Y7353300I-50000J0D01*
G75*
G01*
X10404996Y7353300D02*
G03*
X10304996Y7353300I-50000J0D01*
G75*
G01*
X10201796Y7505700D02*
G03*
X10301796Y7505700I50000J0D01*
G75*
G01*
X15068791Y5410200D02*
G03*
X15168791Y5410200I50000J0D01*
G75*
G01*
X15170391Y5410200D02*
G03*
X15270391Y5410200I50000J0D01*
G75*
G01*
X14979891Y5499100D02*
G03*
X14879892Y5499100I-50000J0D01*
G75*
G01*
X14878291Y5499100D02*
G03*
X14778292Y5499100I-50000J0D01*
G75*
G01*
X15068791Y6350000D02*
G03*
X15168791Y6350000I50000J0D01*
G75*
G01*
X15170391Y6350000D02*
G03*
X15270391Y6350000I50000J0D01*
G75*
G01*
X14979891Y6438900D02*
G03*
X14879892Y6438900I-50000J0D01*
G75*
G01*
X14878291Y6438900D02*
G03*
X14778292Y6438900I-50000J0D01*
G75*
G01*
X14878291Y7353300D02*
G03*
X14778292Y7353300I-50000J0D01*
G75*
G01*
X14979891Y7353300D02*
G03*
X14879892Y7353300I-50000J0D01*
G75*
G01*
X15170391Y7264400D02*
G03*
X15270391Y7264400I50000J0D01*
G75*
G01*
X15068791Y7264400D02*
G03*
X15168791Y7264400I50000J0D01*
G75*
G01*
X21832989Y7505700D02*
G03*
X21932989Y7505700I50000J0D01*
G75*
G01*
X21731389Y7505700D02*
G03*
X21831389Y7505700I50000J0D01*
G75*
G01*
X21934589Y7353300D02*
G03*
X21834589Y7353300I-50000J0D01*
G75*
G01*
X21832989Y7353300D02*
G03*
X21732989Y7353300I-50000J0D01*
G75*
G01*
X21832989Y6438900D02*
G03*
X21732989Y6438900I-50000J0D01*
G75*
G01*
X21934589Y6438900D02*
G03*
X21834589Y6438900I-50000J0D01*
G75*
G01*
X21731389Y6591300D02*
G03*
X21831389Y6591300I50000J0D01*
G75*
G01*
X21832989Y6591300D02*
G03*
X21932989Y6591300I50000J0D01*
G75*
G01*
X21832989Y5499100D02*
G03*
X21732989Y5499100I-50000J0D01*
G75*
G01*
X21934589Y5499100D02*
G03*
X21834589Y5499100I-50000J0D01*
G75*
G01*
X21731389Y5651500D02*
G03*
X21831389Y5651500I50000J0D01*
G75*
G01*
X21832989Y5651500D02*
G03*
X21932989Y5651500I50000J0D01*
G75*
G01*
X21439289Y7264400D02*
G03*
X21539289Y7264400I50000J0D01*
G75*
G01*
X21540889Y7264400D02*
G03*
X21640889Y7264400I50000J0D01*
G75*
G01*
X21540889Y6350000D02*
G03*
X21640889Y6350000I50000J0D01*
G75*
G01*
X21439289Y6350000D02*
G03*
X21539289Y6350000I50000J0D01*
G75*
G01*
X21540889Y5410200D02*
G03*
X21640889Y5410200I50000J0D01*
G75*
G01*
X21439289Y5410200D02*
G03*
X21539289Y5410200I50000J0D01*
G75*
G01*
X26598410Y7264400D02*
G03*
X26698410Y7264400I50000J0D01*
G75*
G01*
X26700010Y7264400D02*
G03*
X26800010Y7264400I50000J0D01*
G75*
G01*
X26407910Y7505700D02*
G03*
X26507910Y7505700I50000J0D01*
G75*
G01*
X26306310Y7505700D02*
G03*
X26406310Y7505700I50000J0D01*
G75*
G01*
X26509510Y7353300D02*
G03*
X26409510Y7353300I-50000J0D01*
G75*
G01*
X26407910Y7353300D02*
G03*
X26307910Y7353300I-50000J0D01*
G75*
G01*
X26407910Y6438900D02*
G03*
X26307910Y6438900I-50000J0D01*
G75*
G01*
X26509510Y6438900D02*
G03*
X26409510Y6438900I-50000J0D01*
G75*
G01*
X26306310Y6591300D02*
G03*
X26406310Y6591300I50000J0D01*
G75*
G01*
X26407910Y6591300D02*
G03*
X26507910Y6591300I50000J0D01*
G75*
G01*
X26700010Y6350000D02*
G03*
X26800010Y6350000I50000J0D01*
G75*
G01*
X26598410Y6350000D02*
G03*
X26698410Y6350000I50000J0D01*
G75*
G01*
X26407910Y5499100D02*
G03*
X26307910Y5499100I-50000J0D01*
G75*
G01*
X26509510Y5499100D02*
G03*
X26409510Y5499100I-50000J0D01*
G75*
G01*
X26306310Y5651500D02*
G03*
X26406310Y5651500I50000J0D01*
G75*
G01*
X26407910Y5651500D02*
G03*
X26507910Y5651500I50000J0D01*
G75*
G01*
X26700010Y5410200D02*
G03*
X26800010Y5410200I50000J0D01*
G75*
G01*
X26598410Y5410200D02*
G03*
X26698410Y5410200I50000J0D01*
G75*
G01*
X32968908Y5410200D02*
G03*
X33068908Y5410200I50000J0D01*
G75*
G01*
X33070508Y5410200D02*
G03*
X33170508Y5410200I50000J0D01*
G75*
G01*
X32968908Y6350000D02*
G03*
X33068908Y6350000I50000J0D01*
G75*
G01*
X33070508Y6350000D02*
G03*
X33170508Y6350000I50000J0D01*
G75*
G01*
X33070508Y7264400D02*
G03*
X33170508Y7264400I50000J0D01*
G75*
G01*
X32968908Y7264400D02*
G03*
X33068908Y7264400I50000J0D01*
G75*
G01*
X33362608Y5651500D02*
G03*
X33462608Y5651500I50000J0D01*
G75*
G01*
X33261008Y5651500D02*
G03*
X33361008Y5651500I50000J0D01*
G75*
G01*
X33464208Y5499100D02*
G03*
X33364208Y5499100I-50000J0D01*
G75*
G01*
X33362608Y5499100D02*
G03*
X33262608Y5499100I-50000J0D01*
G75*
G01*
X33362608Y6591300D02*
G03*
X33462608Y6591300I50000J0D01*
G75*
G01*
X33261008Y6591300D02*
G03*
X33361008Y6591300I50000J0D01*
G75*
G01*
X33464208Y6438900D02*
G03*
X33364208Y6438900I-50000J0D01*
G75*
G01*
X33362608Y6438900D02*
G03*
X33262608Y6438900I-50000J0D01*
G75*
G01*
X33362608Y7353300D02*
G03*
X33262608Y7353300I-50000J0D01*
G75*
G01*
X33464208Y7353300D02*
G03*
X33364208Y7353300I-50000J0D01*
G75*
G01*
X33261008Y7505700D02*
G03*
X33361008Y7505700I50000J0D01*
G75*
G01*
X33362608Y7505700D02*
G03*
X33462608Y7505700I50000J0D01*
G75*
G01*
X38128004Y7264400D02*
G03*
X38228003Y7264400I49999J0D01*
G75*
G01*
X38229604Y7264400D02*
G03*
X38329603Y7264400I49999J0D01*
G75*
G01*
X37937504Y7505700D02*
G03*
X38037503Y7505700I49999J0D01*
G75*
G01*
X37835904Y7505700D02*
G03*
X37935903Y7505700I49999J0D01*
G75*
G01*
X38039104Y7353300D02*
G03*
X37939104Y7353300I-50000J0D01*
G75*
G01*
X37937504Y7353300D02*
G03*
X37837504Y7353300I-50000J0D01*
G75*
G01*
X37937504Y6438900D02*
G03*
X37837504Y6438900I-50000J0D01*
G75*
G01*
X38039104Y6438900D02*
G03*
X37939104Y6438900I-50000J0D01*
G75*
G01*
X37835904Y6591300D02*
G03*
X37935903Y6591300I49999J0D01*
G75*
G01*
X37937504Y6591300D02*
G03*
X38037503Y6591300I49999J0D01*
G75*
G01*
X38229604Y6350000D02*
G03*
X38329603Y6350000I49999J0D01*
G75*
G01*
X38128004Y6350000D02*
G03*
X38228003Y6350000I49999J0D01*
G75*
G01*
X37937504Y5499100D02*
G03*
X37837504Y5499100I-50000J0D01*
G75*
G01*
X38039104Y5499100D02*
G03*
X37939104Y5499100I-50000J0D01*
G75*
G01*
X37835904Y5651500D02*
G03*
X37935903Y5651500I49999J0D01*
G75*
G01*
X37937504Y5651500D02*
G03*
X38037503Y5651500I49999J0D01*
G75*
G01*
X38229604Y5410200D02*
G03*
X38329603Y5410200I49999J0D01*
G75*
G01*
X38128004Y5410200D02*
G03*
X38228003Y5410200I49999J0D01*
G75*
G01*
X10303396Y6591300D02*
G03*
X10403396Y6591300I50000J0D01*
G75*
G01*
X10303396Y5651500D02*
G03*
X10403396Y5651500I50000J0D01*
G75*
G01*
X10303396Y7505700D02*
G03*
X10403396Y7505700I50000J0D01*
G75*
G01*
X14776691Y7505700D02*
G03*
X14876691Y7505700I50000J0D01*
G75*
G01*
X14776691Y6591300D02*
G03*
X14876691Y6591300I50000J0D01*
G75*
G01*
X14776691Y5651500D02*
G03*
X14876691Y5651500I50000J0D01*
G75*
G01*
X14878291Y7505700D02*
G03*
X14978291Y7505700I50000J0D01*
G75*
G01*
X14878291Y6591300D02*
G03*
X14978291Y6591300I50000J0D01*
G75*
G01*
X14878291Y5651500D02*
G03*
X14978291Y5651500I50000J0D01*
G75*
G01
X8186496Y4483100D02*
G03X8186496Y4483100I-317500J0D01*
G75*
G01
X9977196Y4483100D02*
G03X9977196Y4483100I-317500J0D01*
G75*
G01
X12910896Y4483100D02*
G03X12910896Y4483100I-317500J0D01*
G75*
G01
X9062796Y4483100D02*
G03X9062796Y4483100I-317500J0D01*
G75*
G01
X16749192Y4483100D02*
G03X16749192Y4483100I-317500J0D01*
G75*
G01
X17663592Y4483100D02*
G03X17663592Y4483100I-317500J0D01*
G75*
G01
X15872892Y4483100D02*
G03X15872892Y4483100I-317500J0D01*
G75*
G01
X20592390Y4483100D02*
G03X20592390Y4483100I-317500J0D01*
G75*
G01
X21506790Y4483100D02*
G03X21506790Y4483100I-317500J0D01*
G75*
G01
X19716090Y4483100D02*
G03X19716090Y4483100I-317500J0D01*
G75*
G01
X28278811Y4483100D02*
G03X28278811Y4483100I-317500J0D01*
G75*
G01
X29193211Y4483100D02*
G03X29193211Y4483100I-317500J0D01*
G75*
G01
X27402511Y4483100D02*
G03X27402511Y4483100I-317500J0D01*
G75*
G01
X32122008Y4483100D02*
G03X32122008Y4483100I-317500J0D01*
G75*
G01
X33036408Y4483100D02*
G03X33036408Y4483100I-317500J0D01*
G75*
G01
X31245708Y4483100D02*
G03X31245708Y4483100I-317500J0D01*
G75*
G01
X39808404Y4483100D02*
G03X39808404Y4483100I-317500J0D01*
G75*
G01
X40722804Y4483100D02*
G03X40722804Y4483100I-317500J0D01*
G75*
G01
X38932104Y4483100D02*
G03X38932104Y4483100I-317500J0D01*
G75*
G01
X24440515Y4483100D02*
G03X24440515Y4483100I-317500J0D01*
G75*
G01
X35970108Y4483100D02*
G03X35970108Y4483100I-317500J0D01*
G36*
X3877183Y8636000D02*
G01*
X3966083Y8636000D01*
X3966083Y4136009D01*
X3877183Y4136009D01*
G37*
G36*
X5794908Y8636000D02*
G01*
X5883808Y8636000D01*
X5883808Y4136009D01*
X5794908Y4136009D01*
G37*
G36*
X4836058Y8636000D02*
G01*
X4924958Y8636000D01*
X4924958Y4136009D01*
X4836058Y4136009D01*
G37*
G36*
X3914114Y7156373D02*
G01*
X42314037Y7156373D01*
X42314037Y7067473D01*
X3914114Y7067473D01*
G37*
D12*
X7814208Y7493000D02*
G01*
X9693808Y7493000D01*
X9693808Y5003800D01*
X7814208Y5003800D01*
X7814208Y7493000D01*
G36*
X4880508Y6235700D02*
G01*
X43280431Y6235700D01*
X43280431Y6146800D01*
X4880508Y6146800D01*
G37*
G36*
X5814034Y5299633D02*
G01*
X44233947Y5299633D01*
X44233947Y5210733D01*
X5814034Y5210733D01*
G37*
G36*
X43268061Y8636000D02*
G01*
X43356961Y8636000D01*
X43356961Y4136009D01*
X43268061Y4136009D01*
G37*
G36*
X44226911Y8636000D02*
G01*
X44315811Y8636000D01*
X44315811Y4136009D01*
X44226911Y4136009D01*
G37*
G36*
X42309211Y8636000D02*
G01*
X42398111Y8636000D01*
X42398111Y4136009D01*
X42309211Y4136009D01*
G37*
G36*
X4836058Y13179374D02*
G01*
X4924958Y13179374D01*
X4924958Y12379375D01*
X4836058Y12379375D01*
G37*
G36*
X5794908Y13179374D02*
G01*
X5883808Y13179374D01*
X5883808Y12379375D01*
X5794908Y12379375D01*
G37*
G36*
X3877183Y13179374D02*
G01*
X3966083Y13179374D01*
X3966083Y12379375D01*
X3877183Y12379375D01*
G37*
G36*
X17694808Y5689600D02*
G01*
X18294807Y5689600D01*
X18294807Y5600700D01*
X17694808Y5600700D01*
G37*
G36*
X17694808Y6629400D02*
G01*
X18294807Y6629400D01*
X18294807Y6540500D01*
X17694808Y6540500D01*
G37*
G36*
X17694808Y7543800D02*
G01*
X18294807Y7543800D01*
X18294807Y7454900D01*
X17694808Y7454900D01*
G37*
G36*
X508000Y7539989D02*
G01*
X2007997Y7539989D01*
X2007997Y7451089D01*
X508000Y7451089D01*
G37*
G36*
X508000Y6629984D02*
G01*
X2007997Y6629984D01*
X2007997Y6541084D01*
X508000Y6541084D01*
G37*
G36*
X508000Y5679998D02*
G01*
X2007997Y5679998D01*
X2007997Y5591098D01*
X508000Y5591098D01*
G37*
G36*
X29975708Y7543800D02*
G01*
X30575707Y7543800D01*
X30575707Y7454900D01*
X29975708Y7454900D01*
G37*
G36*
X29975708Y6629400D02*
G01*
X30575707Y6629400D01*
X30575707Y6540500D01*
X29975708Y6540500D01*
G37*
G36*
X29975708Y5689600D02*
G01*
X30575707Y5689600D01*
X30575707Y5600700D01*
X29975708Y5600700D01*
G37*
G36*
X46324291Y5683808D02*
G01*
X47824288Y5683808D01*
X47824288Y5594908D01*
X46324291Y5594908D01*
G37*
G36*
X46324291Y6633794D02*
G01*
X47824288Y6633794D01*
X47824288Y6544894D01*
X46324291Y6544894D01*
G37*
G36*
X46324291Y7543800D02*
G01*
X47824288Y7543800D01*
X47824288Y7454900D01*
X46324291Y7454900D01*
G37*
G36*
X3876903Y399999D02*
G01*
X3965803Y399999D01*
X3965803Y99999D01*
X3876903Y99999D01*
G37*
G36*
X5794603Y399999D02*
G01*
X5883503Y399999D01*
X5883503Y99999D01*
X5794603Y99999D01*
G37*
G36*
X4835753Y399999D02*
G01*
X4924653Y399999D01*
X4924653Y99999D01*
X4835753Y99999D01*
G37*
G36*
X43267757Y399999D02*
G01*
X43356657Y399999D01*
X43356657Y99999D01*
X43267757Y99999D01*
G37*
G36*
X44226607Y399999D02*
G01*
X44315507Y399999D01*
X44315507Y99999D01*
X44226607Y99999D01*
G37*
G36*
X42308907Y399999D02*
G01*
X42397807Y399999D01*
X42397807Y99999D01*
X42308907Y99999D01*
G37*
G36*
X42313758Y13258800D02*
G01*
X42402658Y13258800D01*
X42402658Y12458801D01*
X42313758Y12458801D01*
G37*
G36*
X44231458Y13258800D02*
G01*
X44320358Y13258800D01*
X44320358Y12458801D01*
X44231458Y12458801D01*
G37*
G36*
X43272608Y13258800D02*
G01*
X43361508Y13258800D01*
X43361508Y12458801D01*
X43272608Y12458801D01*
G37*
X11657406Y7493000D02*
G01*
X13537006Y7493000D01*
X13537006Y5003800D01*
X11657406Y5003800D01*
X11657406Y7493000D01*
X15500604Y7493000D02*
G01*
X17380204Y7493000D01*
X17380204Y5003800D01*
X15500604Y5003800D01*
X15500604Y7493000D01*
X19343801Y7493000D02*
G01*
X21223401Y7493000D01*
X21223401Y5003800D01*
X19343801Y5003800D01*
X19343801Y7493000D01*
X23187025Y7493000D02*
G01*
X25066625Y7493000D01*
X25066625Y5003800D01*
X23187025Y5003800D01*
X23187025Y7493000D01*
X27030222Y7493000D02*
G01*
X28909822Y7493000D01*
X28909822Y5003800D01*
X27030222Y5003800D01*
X27030222Y7493000D01*
X30873420Y7493000D02*
G01*
X32753020Y7493000D01*
X32753020Y5003800D01*
X30873420Y5003800D01*
X30873420Y7493000D01*
X34716618Y7493000D02*
G01*
X36596218Y7493000D01*
X36596218Y5003800D01*
X34716618Y5003800D01*
X34716618Y7493000D01*
X38559816Y7493000D02*
G01*
X40439416Y7493000D01*
X40439416Y5003800D01*
X38559816Y5003800D01*
X38559816Y7493000D01*
M02*
