G04 Layer: BottomSilkscreenLayer*
G04 EasyEDA v6.5.34, 2023-10-02 19:34:43*
G04 01cc4f0829a142ab81c1f63eef754985,5a6b42c53f6a479593ecc07194224c93,10*
G04 Gerber Generator version 0.2*
G04 Scale: 100 percent, Rotated: No, Reflected: No *
G04 Dimensions in millimeters *
G04 leading zeros omitted , absolute positions ,4 integer and 5 decimal *
%FSLAX45Y45*%
%MOMM*%

%ADD10C,0.2032*%
%ADD11C,0.1520*%

%LPD*%
D10*
X43954522Y209938D02*
G01*
X43954522Y95394D01*
X43954522Y209938D02*
G01*
X43905431Y209938D01*
X43889068Y204485D01*
X43883613Y199031D01*
X43878159Y188122D01*
X43878159Y171757D01*
X43883613Y160849D01*
X43889068Y155394D01*
X43905431Y149938D01*
X43954522Y149938D01*
X43798523Y209938D02*
G01*
X43842157Y95394D01*
X43798523Y209938D02*
G01*
X43754885Y95394D01*
X43825795Y133576D02*
G01*
X43771251Y133576D01*
X43718886Y209938D02*
G01*
X43718886Y95394D01*
X43718886Y209938D02*
G01*
X43669795Y209938D01*
X43653433Y204485D01*
X43647977Y199031D01*
X43642522Y188122D01*
X43642522Y177213D01*
X43647977Y166303D01*
X43653433Y160849D01*
X43669795Y155394D01*
X43718886Y155394D01*
X43680705Y155394D02*
G01*
X43642522Y95394D01*
X43568340Y209938D02*
G01*
X43568340Y95394D01*
X43606521Y209938D02*
G01*
X43530159Y209938D01*
X43410159Y209938D02*
G01*
X43410159Y95394D01*
X43410159Y209938D02*
G01*
X43333797Y95394D01*
X43333797Y209938D02*
G01*
X43333797Y95394D01*
X43297795Y209938D02*
G01*
X43297795Y128122D01*
X43292341Y111757D01*
X43281432Y100849D01*
X43265069Y95394D01*
X43254160Y95394D01*
X43237795Y100849D01*
X43226888Y111757D01*
X43221432Y128122D01*
X43221432Y209938D01*
X43185433Y209938D02*
G01*
X43185433Y95394D01*
X43185433Y209938D02*
G01*
X43141795Y95394D01*
X43098161Y209938D02*
G01*
X43141795Y95394D01*
X43098161Y209938D02*
G01*
X43098161Y95394D01*
X43062159Y209938D02*
G01*
X43062159Y95394D01*
X43062159Y209938D02*
G01*
X43013068Y209938D01*
X42996705Y204485D01*
X42991252Y199031D01*
X42985796Y188122D01*
X42985796Y177213D01*
X42991252Y166303D01*
X42996705Y160849D01*
X43013068Y155394D01*
X43062159Y155394D02*
G01*
X43013068Y155394D01*
X42996705Y149938D01*
X42991252Y144485D01*
X42985796Y133576D01*
X42985796Y117213D01*
X42991252Y106304D01*
X42996705Y100849D01*
X43013068Y95394D01*
X43062159Y95394D01*
X42949797Y209938D02*
G01*
X42949797Y95394D01*
X42949797Y209938D02*
G01*
X42878888Y209938D01*
X42949797Y155394D02*
G01*
X42906160Y155394D01*
X42949797Y95394D02*
G01*
X42878888Y95394D01*
X42842888Y209938D02*
G01*
X42842888Y95394D01*
X42842888Y209938D02*
G01*
X42793798Y209938D01*
X42777432Y204485D01*
X42771979Y199031D01*
X42766523Y188122D01*
X42766523Y177213D01*
X42771979Y166303D01*
X42777432Y160849D01*
X42793798Y155394D01*
X42842888Y155394D01*
X42804707Y155394D02*
G01*
X42766523Y95394D01*
X42646523Y188122D02*
G01*
X42635614Y193575D01*
X42619251Y209938D01*
X42619251Y95394D01*
X42555980Y209938D02*
G01*
X42572343Y204485D01*
X42577796Y193575D01*
X42577796Y182666D01*
X42572343Y171757D01*
X42561433Y166303D01*
X42539615Y160849D01*
X42523252Y155394D01*
X42512343Y144485D01*
X42506889Y133576D01*
X42506889Y117213D01*
X42512343Y106304D01*
X42517796Y100849D01*
X42534161Y95394D01*
X42555980Y95394D01*
X42572343Y100849D01*
X42577796Y106304D01*
X42583252Y117213D01*
X42583252Y133576D01*
X42577796Y144485D01*
X42566889Y155394D01*
X42550524Y160849D01*
X42528705Y166303D01*
X42517796Y171757D01*
X42512343Y182666D01*
X42512343Y193575D01*
X42517796Y204485D01*
X42534161Y209938D01*
X42555980Y209938D01*
X42394525Y209938D02*
G01*
X42449071Y95394D01*
X42470887Y209938D02*
G01*
X42394525Y209938D01*
X42325798Y209938D02*
G01*
X42342160Y204485D01*
X42353069Y188122D01*
X42358525Y160849D01*
X42358525Y144485D01*
X42353069Y117213D01*
X42342160Y100849D01*
X42325798Y95394D01*
X42314888Y95394D01*
X42298526Y100849D01*
X42287616Y117213D01*
X42282160Y144485D01*
X42282160Y160849D01*
X42287616Y188122D01*
X42298526Y204485D01*
X42314888Y209938D01*
X42325798Y209938D01*
X42246161Y144485D02*
G01*
X42147980Y144485D01*
X42079252Y209938D02*
G01*
X42095615Y204485D01*
X42106524Y188122D01*
X42111980Y160849D01*
X42111980Y144485D01*
X42106524Y117213D01*
X42095615Y100849D01*
X42079252Y95394D01*
X42068343Y95394D01*
X42051980Y100849D01*
X42041071Y117213D01*
X42035615Y144485D01*
X42035615Y160849D01*
X42041071Y188122D01*
X42051980Y204485D01*
X42068343Y209938D01*
X42079252Y209938D01*
X41999616Y188122D02*
G01*
X41988706Y193575D01*
X41972344Y209938D01*
X41972344Y95394D01*
X41903616Y209938D02*
G01*
X41919979Y204485D01*
X41930888Y188122D01*
X41936344Y160849D01*
X41936344Y144485D01*
X41930888Y117213D01*
X41919979Y100849D01*
X41903616Y95394D01*
X41892707Y95394D01*
X41876345Y100849D01*
X41865435Y117213D01*
X41859979Y144485D01*
X41859979Y160849D01*
X41865435Y188122D01*
X41876345Y204485D01*
X41892707Y209938D01*
X41903616Y209938D01*
X41818526Y182666D02*
G01*
X41818526Y188122D01*
X41813071Y199031D01*
X41807617Y204485D01*
X41796708Y209938D01*
X41774889Y209938D01*
X41763980Y204485D01*
X41758527Y199031D01*
X41753071Y188122D01*
X41753071Y177213D01*
X41758527Y166303D01*
X41769436Y149938D01*
X41823980Y95394D01*
X41747617Y95394D01*
X41627618Y209938D02*
G01*
X41583980Y95394D01*
X41540346Y209938D02*
G01*
X41583980Y95394D01*
X41471618Y209938D02*
G01*
X41487981Y204485D01*
X41498890Y188122D01*
X41504344Y160849D01*
X41504344Y144485D01*
X41498890Y117213D01*
X41487981Y100849D01*
X41471618Y95394D01*
X41460709Y95394D01*
X41444344Y100849D01*
X41433437Y117213D01*
X41427981Y144485D01*
X41427981Y160849D01*
X41433437Y188122D01*
X41444344Y204485D01*
X41460709Y209938D01*
X41471618Y209938D01*
X41386526Y122666D02*
G01*
X41391982Y117213D01*
X41386526Y111757D01*
X41381072Y117213D01*
X41386526Y122666D01*
X41334164Y209938D02*
G01*
X41274164Y209938D01*
X41306892Y166303D01*
X41290527Y166303D01*
X41279617Y160849D01*
X41274164Y155394D01*
X41268708Y139031D01*
X41268708Y128122D01*
X41274164Y111757D01*
X41285073Y100849D01*
X41301436Y95394D01*
X41317799Y95394D01*
X41334164Y100849D01*
X41339617Y106304D01*
X41345073Y117213D01*
X43890783Y422150D02*
G01*
X43901692Y433059D01*
X43918055Y438513D01*
X43939874Y438513D01*
X43956236Y433059D01*
X43967146Y422150D01*
X43967146Y411241D01*
X43961692Y400331D01*
X43956236Y394878D01*
X43945327Y389423D01*
X43912599Y378513D01*
X43901692Y373059D01*
X43896236Y367606D01*
X43890783Y356697D01*
X43890783Y340332D01*
X43901692Y329423D01*
X43918055Y323969D01*
X43939874Y323969D01*
X43956236Y329423D01*
X43967146Y340332D01*
X43854781Y438513D02*
G01*
X43854781Y356697D01*
X43849328Y340332D01*
X43838418Y329423D01*
X43822056Y323969D01*
X43811146Y323969D01*
X43794781Y329423D01*
X43783874Y340332D01*
X43778418Y356697D01*
X43778418Y438513D01*
X43742419Y438513D02*
G01*
X43742419Y323969D01*
X43742419Y438513D02*
G01*
X43693328Y438513D01*
X43676963Y433059D01*
X43671510Y427606D01*
X43666056Y416697D01*
X43666056Y405787D01*
X43671510Y394878D01*
X43676963Y389423D01*
X43693328Y383969D01*
X43742419Y383969D02*
G01*
X43693328Y383969D01*
X43676963Y378513D01*
X43671510Y373059D01*
X43666056Y362150D01*
X43666056Y345787D01*
X43671510Y334878D01*
X43676963Y329423D01*
X43693328Y323969D01*
X43742419Y323969D01*
X43553692Y422150D02*
G01*
X43564601Y433059D01*
X43580964Y438513D01*
X43602783Y438513D01*
X43619146Y433059D01*
X43630054Y422150D01*
X43630054Y411241D01*
X43624601Y400331D01*
X43619146Y394878D01*
X43608236Y389423D01*
X43575511Y378513D01*
X43564601Y373059D01*
X43559145Y367606D01*
X43553692Y356697D01*
X43553692Y340332D01*
X43564601Y329423D01*
X43580964Y323969D01*
X43602783Y323969D01*
X43619146Y329423D01*
X43630054Y340332D01*
X43479511Y438513D02*
G01*
X43479511Y323969D01*
X43517693Y438513D02*
G01*
X43441327Y438513D01*
X43361693Y438513D02*
G01*
X43405328Y323969D01*
X43361693Y438513D02*
G01*
X43318056Y323969D01*
X43388965Y362150D02*
G01*
X43334419Y362150D01*
X43243875Y438513D02*
G01*
X43243875Y323969D01*
X43282057Y438513D02*
G01*
X43205692Y438513D01*
X43169692Y438513D02*
G01*
X43169692Y323969D01*
X43100965Y438513D02*
G01*
X43111874Y433059D01*
X43122783Y422150D01*
X43128237Y411241D01*
X43133693Y394878D01*
X43133693Y367606D01*
X43128237Y351241D01*
X43122783Y340332D01*
X43111874Y329423D01*
X43100965Y323969D01*
X43079146Y323969D01*
X43068237Y329423D01*
X43057330Y340332D01*
X43051874Y351241D01*
X43046421Y367606D01*
X43046421Y394878D01*
X43051874Y411241D01*
X43057330Y422150D01*
X43068237Y433059D01*
X43079146Y438513D01*
X43100965Y438513D01*
X43010419Y438513D02*
G01*
X43010419Y323969D01*
X43010419Y438513D02*
G01*
X42934056Y323969D01*
X42934056Y438513D02*
G01*
X42934056Y323969D01*
X42803147Y438513D02*
G01*
X42743147Y438513D01*
X42775875Y394878D01*
X42759513Y394878D01*
X42748603Y389423D01*
X42743147Y383969D01*
X42737694Y367606D01*
X42737694Y356697D01*
X42743147Y340332D01*
X42754057Y329423D01*
X42770419Y323969D01*
X42786785Y323969D01*
X42803147Y329423D01*
X42808603Y334878D01*
X42814057Y345787D01*
X42701695Y438513D02*
G01*
X42701695Y356697D01*
X42696239Y340332D01*
X42685329Y329423D01*
X42668967Y323969D01*
X42658057Y323969D01*
X42641695Y329423D01*
X42630785Y340332D01*
X42625330Y356697D01*
X42625330Y438513D01*
X42461695Y438513D02*
G01*
X42505330Y323969D01*
X42461695Y438513D02*
G01*
X42418058Y323969D01*
X42488967Y362150D02*
G01*
X42434421Y362150D01*
X42382059Y438513D02*
G01*
X42382059Y323969D01*
X42382059Y438513D02*
G01*
X42305693Y323969D01*
X42305693Y438513D02*
G01*
X42305693Y323969D01*
X42269694Y438513D02*
G01*
X42269694Y323969D01*
X42269694Y438513D02*
G01*
X42193331Y323969D01*
X42193331Y438513D02*
G01*
X42193331Y323969D01*
X42157332Y438513D02*
G01*
X42157332Y356697D01*
X42151876Y340332D01*
X42140967Y329423D01*
X42124604Y323969D01*
X42113695Y323969D01*
X42097332Y329423D01*
X42086423Y340332D01*
X42080967Y356697D01*
X42080967Y438513D01*
X42044967Y438513D02*
G01*
X42044967Y323969D01*
X42044967Y438513D02*
G01*
X41968605Y323969D01*
X41968605Y438513D02*
G01*
X41968605Y323969D01*
X41850787Y411241D02*
G01*
X41856240Y422150D01*
X41867150Y433059D01*
X41878059Y438513D01*
X41899878Y438513D01*
X41910787Y433059D01*
X41921696Y422150D01*
X41927150Y411241D01*
X41932603Y394878D01*
X41932603Y367606D01*
X41927150Y351241D01*
X41921696Y340332D01*
X41910787Y329423D01*
X41899878Y323969D01*
X41878059Y323969D01*
X41867150Y329423D01*
X41856240Y340332D01*
X41850787Y351241D01*
X41814785Y438513D02*
G01*
X41814785Y323969D01*
X41735151Y438513D02*
G01*
X41778786Y323969D01*
X41735151Y438513D02*
G01*
X41691514Y323969D01*
X41762423Y362150D02*
G01*
X41707876Y362150D01*
X41617333Y438513D02*
G01*
X41617333Y323969D01*
X41655514Y438513D02*
G01*
X41579149Y438513D01*
X41510422Y438513D02*
G01*
X41521331Y433059D01*
X41532241Y422150D01*
X41537696Y411241D01*
X41543150Y394878D01*
X41543150Y367606D01*
X41537696Y351241D01*
X41532241Y340332D01*
X41521331Y329423D01*
X41510422Y323969D01*
X41488606Y323969D01*
X41477697Y329423D01*
X41466787Y340332D01*
X41461331Y351241D01*
X41455878Y367606D01*
X41455878Y394878D01*
X41461331Y411241D01*
X41466787Y422150D01*
X41477697Y433059D01*
X41488606Y438513D01*
X41510422Y438513D01*
X41419879Y438513D02*
G01*
X41419879Y323969D01*
X41419879Y438513D02*
G01*
X41370788Y438513D01*
X41354423Y433059D01*
X41348969Y427606D01*
X41343513Y416697D01*
X41343513Y405787D01*
X41348969Y394878D01*
X41354423Y389423D01*
X41370788Y383969D01*
X41419879Y383969D01*
X41381697Y383969D02*
G01*
X41343513Y323969D01*
X41179879Y438513D02*
G01*
X41223514Y323969D01*
X41179879Y438513D02*
G01*
X41136242Y323969D01*
X41207151Y362150D02*
G01*
X41152605Y362150D01*
X41100242Y438513D02*
G01*
X41100242Y323969D01*
X41100242Y323969D02*
G01*
X41034787Y323969D01*
X40914787Y438513D02*
G01*
X40914787Y323969D01*
X40914787Y438513D02*
G01*
X40843880Y438513D01*
X40914787Y383969D02*
G01*
X40871152Y383969D01*
X40807878Y438513D02*
G01*
X40807878Y323969D01*
X40807878Y438513D02*
G01*
X40758788Y438513D01*
X40742425Y433059D01*
X40736969Y427606D01*
X40731516Y416697D01*
X40731516Y405787D01*
X40736969Y394878D01*
X40742425Y389423D01*
X40758788Y383969D01*
X40807878Y383969D01*
X40769697Y383969D02*
G01*
X40731516Y323969D01*
X40662788Y438513D02*
G01*
X40673698Y433059D01*
X40684607Y422150D01*
X40690060Y411241D01*
X40695516Y394878D01*
X40695516Y367606D01*
X40690060Y351241D01*
X40684607Y340332D01*
X40673698Y329423D01*
X40662788Y323969D01*
X40640970Y323969D01*
X40630060Y329423D01*
X40619151Y340332D01*
X40613698Y351241D01*
X40608242Y367606D01*
X40608242Y394878D01*
X40613698Y411241D01*
X40619151Y422150D01*
X40630060Y433059D01*
X40640970Y438513D01*
X40662788Y438513D01*
X40572242Y438513D02*
G01*
X40572242Y323969D01*
X40572242Y438513D02*
G01*
X40495880Y323969D01*
X40495880Y438513D02*
G01*
X40495880Y323969D01*
X40421699Y438513D02*
G01*
X40421699Y323969D01*
X40459880Y438513D02*
G01*
X40383515Y438513D01*
X40263516Y438513D02*
G01*
X40263516Y323969D01*
X40263516Y438513D02*
G01*
X40214425Y438513D01*
X40198062Y433059D01*
X40192606Y427606D01*
X40187153Y416697D01*
X40187153Y400331D01*
X40192606Y389423D01*
X40198062Y383969D01*
X40214425Y378513D01*
X40263516Y378513D01*
X40107516Y438513D02*
G01*
X40151154Y323969D01*
X40107516Y438513D02*
G01*
X40063882Y323969D01*
X40134788Y362150D02*
G01*
X40080244Y362150D01*
X40027880Y438513D02*
G01*
X40027880Y323969D01*
X40027880Y438513D02*
G01*
X39951517Y323969D01*
X39951517Y438513D02*
G01*
X39951517Y323969D01*
X39915518Y438513D02*
G01*
X39915518Y323969D01*
X39915518Y438513D02*
G01*
X39844609Y438513D01*
X39915518Y383969D02*
G01*
X39871881Y383969D01*
X39915518Y323969D02*
G01*
X39844609Y323969D01*
X39808609Y438513D02*
G01*
X39808609Y323969D01*
X39808609Y323969D02*
G01*
X39743153Y323969D01*
X39623154Y373059D02*
G01*
X39524973Y373059D01*
X39404973Y438513D02*
G01*
X39404973Y323969D01*
X39404973Y438513D02*
G01*
X39355882Y438513D01*
X39339520Y433059D01*
X39334064Y427606D01*
X39328610Y416697D01*
X39328610Y405787D01*
X39334064Y394878D01*
X39339520Y389423D01*
X39355882Y383969D01*
X39404973Y383969D02*
G01*
X39355882Y383969D01*
X39339520Y378513D01*
X39334064Y373059D01*
X39328610Y362150D01*
X39328610Y345787D01*
X39334064Y334878D01*
X39339520Y329423D01*
X39355882Y323969D01*
X39404973Y323969D01*
X39259883Y438513D02*
G01*
X39270792Y433059D01*
X39281701Y422150D01*
X39287155Y411241D01*
X39292608Y394878D01*
X39292608Y367606D01*
X39287155Y351241D01*
X39281701Y340332D01*
X39270792Y329423D01*
X39259883Y323969D01*
X39238064Y323969D01*
X39227155Y329423D01*
X39216246Y340332D01*
X39210792Y351241D01*
X39205336Y367606D01*
X39205336Y394878D01*
X39210792Y411241D01*
X39216246Y422150D01*
X39227155Y433059D01*
X39238064Y438513D01*
X39259883Y438513D01*
X39131156Y438513D02*
G01*
X39131156Y323969D01*
X39169337Y438513D02*
G01*
X39092974Y438513D01*
X39018791Y438513D02*
G01*
X39018791Y323969D01*
X39056972Y438513D02*
G01*
X38980610Y438513D01*
X38911883Y438513D02*
G01*
X38922792Y433059D01*
X38933701Y422150D01*
X38939155Y411241D01*
X38944610Y394878D01*
X38944610Y367606D01*
X38939155Y351241D01*
X38933701Y340332D01*
X38922792Y329423D01*
X38911883Y323969D01*
X38890064Y323969D01*
X38879155Y329423D01*
X38868245Y340332D01*
X38862792Y351241D01*
X38857339Y367606D01*
X38857339Y394878D01*
X38862792Y411241D01*
X38868245Y422150D01*
X38879155Y433059D01*
X38890064Y438513D01*
X38911883Y438513D01*
X38821337Y438513D02*
G01*
X38821337Y323969D01*
X38821337Y438513D02*
G01*
X38777702Y323969D01*
X38734065Y438513D02*
G01*
X38777702Y323969D01*
X38734065Y438513D02*
G01*
X38734065Y323969D01*
D11*
X47974143Y191551D02*
G01*
X47974143Y108424D01*
X47979340Y92837D01*
X47984534Y87642D01*
X47994925Y82448D01*
X48005316Y82448D01*
X48015707Y87642D01*
X48020904Y92837D01*
X48026099Y108424D01*
X48026099Y118816D01*
X47939853Y191551D02*
G01*
X47939853Y82448D01*
X47939853Y82448D02*
G01*
X47877509Y82448D01*
X47765286Y165574D02*
G01*
X47770483Y175966D01*
X47780874Y186357D01*
X47791263Y191551D01*
X47812045Y191551D01*
X47822436Y186357D01*
X47832827Y175966D01*
X47838024Y165574D01*
X47843219Y149987D01*
X47843219Y124010D01*
X47838024Y108424D01*
X47832827Y98033D01*
X47822436Y87642D01*
X47812045Y82448D01*
X47791263Y82448D01*
X47780874Y87642D01*
X47770483Y98033D01*
X47765286Y108424D01*
X47679043Y191551D02*
G01*
X47679043Y108424D01*
X47684237Y92837D01*
X47689434Y87642D01*
X47699823Y82448D01*
X47710214Y82448D01*
X47720605Y87642D01*
X47725802Y92837D01*
X47730996Y108424D01*
X47730996Y118816D01*
X47644753Y191551D02*
G01*
X47644753Y82448D01*
X47644753Y82448D02*
G01*
X47582406Y82448D01*
X47470184Y165574D02*
G01*
X47475381Y175966D01*
X47485772Y186357D01*
X47496163Y191551D01*
X47516943Y191551D01*
X47527334Y186357D01*
X47537725Y175966D01*
X47542922Y165574D01*
X47548116Y149987D01*
X47548116Y124010D01*
X47542922Y108424D01*
X47537725Y98033D01*
X47527334Y87642D01*
X47516943Y82448D01*
X47496163Y82448D01*
X47485772Y87642D01*
X47475381Y98033D01*
X47470184Y108424D01*
X47383941Y191551D02*
G01*
X47383941Y108424D01*
X47389135Y92837D01*
X47394332Y87642D01*
X47404723Y82448D01*
X47415114Y82448D01*
X47425503Y87642D01*
X47430700Y92837D01*
X47435894Y108424D01*
X47435894Y118816D01*
X47349651Y191551D02*
G01*
X47349651Y82448D01*
X47349651Y82448D02*
G01*
X47287304Y82448D01*
X47175084Y165574D02*
G01*
X47180279Y175966D01*
X47190670Y186357D01*
X47201061Y191551D01*
X47221843Y191551D01*
X47232234Y186357D01*
X47242623Y175966D01*
X47247820Y165574D01*
X47253014Y149987D01*
X47253014Y124010D01*
X47247820Y108424D01*
X47242623Y98033D01*
X47232234Y87642D01*
X47221843Y82448D01*
X47201061Y82448D01*
X47190670Y87642D01*
X47180279Y98033D01*
X47175084Y108424D01*
X47088839Y191551D02*
G01*
X47088839Y108424D01*
X47094033Y92837D01*
X47099230Y87642D01*
X47109621Y82448D01*
X47120012Y82448D01*
X47130403Y87642D01*
X47135597Y92837D01*
X47140794Y108424D01*
X47140794Y118816D01*
X47054549Y191551D02*
G01*
X47054549Y82448D01*
X47054549Y82448D02*
G01*
X46992204Y82448D01*
X46879982Y165574D02*
G01*
X46885176Y175966D01*
X46895567Y186357D01*
X46905959Y191551D01*
X46926741Y191551D01*
X46937132Y186357D01*
X46947523Y175966D01*
X46952717Y165574D01*
X46957914Y149987D01*
X46957914Y124010D01*
X46952717Y108424D01*
X46947523Y98033D01*
X46937132Y87642D01*
X46926741Y82448D01*
X46905959Y82448D01*
X46895567Y87642D01*
X46885176Y98033D01*
X46879982Y108424D01*
M02*
