G04 Layer: TopSolderMaskLayer*
G04 EasyEDA v6.5.34, 2023-08-21 18:11:39*
G04 7820172c1e5c4a8f996b360b20b43df3,5a6b42c53f6a479593ecc07194224c93,10*
G04 Gerber Generator version 0.2*
G04 Scale: 100 percent, Rotated: No, Reflected: No *
G04 Dimensions in millimeters *
G04 leading zeros omitted , absolute positions ,4 integer and 5 decimal *
%FSLAX45Y45*%
%MOMM*%

%ADD10C,0.0001*%

%LPD*%
G36*
X33240878Y6517741D02*
G01*
X33231683Y6517131D01*
X33222590Y6515709D01*
X33213598Y6513474D01*
X33209230Y6512102D01*
X33200644Y6508699D01*
X33192364Y6504584D01*
X33184541Y6499707D01*
X33177124Y6494221D01*
X33170266Y6488074D01*
X33163967Y6481318D01*
X33158277Y6474053D01*
X33153248Y6466281D01*
X33148930Y6458153D01*
X33145374Y6449669D01*
X33143850Y6445300D01*
X33141462Y6436360D01*
X33139837Y6427317D01*
X33139024Y6418122D01*
X33139024Y6408877D01*
X33139837Y6399682D01*
X33141462Y6390640D01*
X33143850Y6381699D01*
X33147050Y6373063D01*
X33151013Y6364732D01*
X33155686Y6356756D01*
X33161071Y6349238D01*
X33167065Y6342227D01*
X33173619Y6335776D01*
X33180782Y6329934D01*
X33188402Y6324752D01*
X33196479Y6320282D01*
X33204912Y6316522D01*
X33209230Y6314897D01*
X33218069Y6312306D01*
X33227111Y6310477D01*
X33236255Y6309461D01*
X33245501Y6309258D01*
X33254696Y6309868D01*
X33263839Y6311290D01*
X33272780Y6313525D01*
X33281518Y6316522D01*
X33289900Y6320282D01*
X33297977Y6324752D01*
X33305597Y6329934D01*
X33312760Y6335776D01*
X33319313Y6342227D01*
X33325358Y6349238D01*
X33330692Y6356756D01*
X33335366Y6364732D01*
X33339328Y6373063D01*
X33342529Y6381699D01*
X33344916Y6390640D01*
X33346542Y6399682D01*
X33347355Y6408877D01*
X33347355Y6418122D01*
X33346542Y6427317D01*
X33344916Y6436360D01*
X33342529Y6445300D01*
X33339328Y6453936D01*
X33335366Y6462268D01*
X33330692Y6470243D01*
X33325358Y6477762D01*
X33319313Y6484772D01*
X33312760Y6491224D01*
X33305597Y6497066D01*
X33297977Y6502247D01*
X33289900Y6506718D01*
X33281518Y6510477D01*
X33272780Y6513474D01*
X33263839Y6515709D01*
X33254696Y6517131D01*
X33245501Y6517741D01*
G37*
G36*
X33240878Y7432141D02*
G01*
X33231683Y7431531D01*
X33222590Y7430109D01*
X33213598Y7427874D01*
X33209230Y7426502D01*
X33200644Y7423099D01*
X33192364Y7418984D01*
X33184541Y7414107D01*
X33177124Y7408621D01*
X33170266Y7402474D01*
X33163967Y7395718D01*
X33158277Y7388453D01*
X33153248Y7380681D01*
X33148930Y7372553D01*
X33145374Y7364069D01*
X33143850Y7359700D01*
X33141462Y7350759D01*
X33139837Y7341717D01*
X33139024Y7332522D01*
X33139024Y7323277D01*
X33139837Y7314082D01*
X33141462Y7305040D01*
X33143850Y7296099D01*
X33147050Y7287463D01*
X33151013Y7279131D01*
X33155686Y7271156D01*
X33161071Y7263638D01*
X33167065Y7256627D01*
X33173619Y7250175D01*
X33180782Y7244334D01*
X33188402Y7239152D01*
X33196479Y7234681D01*
X33204912Y7230922D01*
X33209230Y7229297D01*
X33218069Y7226706D01*
X33227111Y7224877D01*
X33236255Y7223861D01*
X33245501Y7223658D01*
X33254696Y7224268D01*
X33263839Y7225690D01*
X33272780Y7227925D01*
X33281518Y7230922D01*
X33289900Y7234681D01*
X33297977Y7239152D01*
X33305597Y7244334D01*
X33312760Y7250175D01*
X33319313Y7256627D01*
X33325358Y7263638D01*
X33330692Y7271156D01*
X33335366Y7279131D01*
X33339328Y7287463D01*
X33342529Y7296099D01*
X33344916Y7305040D01*
X33346542Y7314082D01*
X33347355Y7323277D01*
X33347355Y7332522D01*
X33346542Y7341717D01*
X33344916Y7350759D01*
X33342529Y7359700D01*
X33339328Y7368336D01*
X33335366Y7376668D01*
X33330692Y7384643D01*
X33325358Y7392162D01*
X33319313Y7399172D01*
X33312760Y7405624D01*
X33305597Y7411466D01*
X33297977Y7416647D01*
X33289900Y7421118D01*
X33281518Y7424877D01*
X33272780Y7427874D01*
X33263839Y7430109D01*
X33254696Y7431531D01*
X33245501Y7432141D01*
G37*
G36*
X33240878Y5577941D02*
G01*
X33231683Y5577332D01*
X33222590Y5575909D01*
X33213598Y5573674D01*
X33209230Y5572302D01*
X33200644Y5568899D01*
X33192364Y5564784D01*
X33184541Y5559907D01*
X33177124Y5554421D01*
X33170266Y5548274D01*
X33163967Y5541518D01*
X33158277Y5534253D01*
X33153248Y5526481D01*
X33148930Y5518353D01*
X33145374Y5509869D01*
X33143850Y5505500D01*
X33141462Y5496560D01*
X33139837Y5487517D01*
X33139024Y5478322D01*
X33139024Y5469077D01*
X33139837Y5459882D01*
X33141462Y5450840D01*
X33143850Y5441899D01*
X33147050Y5433263D01*
X33151013Y5424932D01*
X33155686Y5416956D01*
X33161071Y5409438D01*
X33167065Y5402427D01*
X33173619Y5395976D01*
X33180782Y5390134D01*
X33188402Y5384952D01*
X33196479Y5380482D01*
X33204912Y5376722D01*
X33209230Y5375097D01*
X33218069Y5372506D01*
X33227111Y5370677D01*
X33236255Y5369661D01*
X33245501Y5369458D01*
X33254696Y5370068D01*
X33263839Y5371490D01*
X33272780Y5373725D01*
X33281518Y5376722D01*
X33289900Y5380482D01*
X33297977Y5384952D01*
X33305597Y5390134D01*
X33312760Y5395976D01*
X33319313Y5402427D01*
X33325358Y5409438D01*
X33330692Y5416956D01*
X33335366Y5424932D01*
X33339328Y5433263D01*
X33342529Y5441899D01*
X33344916Y5450840D01*
X33346542Y5459882D01*
X33347355Y5469077D01*
X33347355Y5478322D01*
X33346542Y5487517D01*
X33344916Y5496560D01*
X33342529Y5505500D01*
X33339328Y5514136D01*
X33335366Y5522468D01*
X33330692Y5530443D01*
X33325358Y5537962D01*
X33319313Y5544972D01*
X33312760Y5551424D01*
X33305597Y5557266D01*
X33297977Y5562447D01*
X33289900Y5566918D01*
X33281518Y5570677D01*
X33272780Y5573674D01*
X33263839Y5575909D01*
X33254696Y5577332D01*
X33245501Y5577941D01*
G37*
G36*
X31813601Y6505041D02*
G01*
X31804356Y6504431D01*
X31795262Y6503009D01*
X31786322Y6500774D01*
X31781902Y6499402D01*
X31773317Y6495999D01*
X31765087Y6491884D01*
X31757213Y6487007D01*
X31749847Y6481521D01*
X31742989Y6475374D01*
X31736690Y6468618D01*
X31731000Y6461353D01*
X31725971Y6453581D01*
X31721653Y6445453D01*
X31718097Y6436969D01*
X31715252Y6428181D01*
X31713220Y6419138D01*
X31712001Y6409994D01*
X31711595Y6400800D01*
X31712001Y6391605D01*
X31713220Y6382461D01*
X31715252Y6373418D01*
X31718097Y6364630D01*
X31721653Y6356146D01*
X31725971Y6348018D01*
X31731000Y6340246D01*
X31736690Y6332982D01*
X31742989Y6326225D01*
X31749847Y6320078D01*
X31757213Y6314592D01*
X31765087Y6309715D01*
X31773317Y6305600D01*
X31781902Y6302197D01*
X31790741Y6299606D01*
X31799784Y6297777D01*
X31808978Y6296761D01*
X31818173Y6296558D01*
X31827419Y6297168D01*
X31836512Y6298590D01*
X31845453Y6300825D01*
X31849872Y6302197D01*
X31858458Y6305600D01*
X31866687Y6309715D01*
X31874561Y6314592D01*
X31881927Y6320078D01*
X31888785Y6326225D01*
X31895135Y6332982D01*
X31900774Y6340246D01*
X31905803Y6348018D01*
X31910121Y6356146D01*
X31913728Y6364630D01*
X31916522Y6373418D01*
X31918554Y6382461D01*
X31919773Y6391605D01*
X31920180Y6400800D01*
X31919773Y6409994D01*
X31918554Y6419138D01*
X31916522Y6428181D01*
X31913728Y6436969D01*
X31910121Y6445453D01*
X31905803Y6453581D01*
X31900774Y6461353D01*
X31895135Y6468618D01*
X31888785Y6475374D01*
X31881927Y6481521D01*
X31874561Y6487007D01*
X31866687Y6491884D01*
X31858458Y6495999D01*
X31849872Y6499402D01*
X31841033Y6501993D01*
X31831991Y6503822D01*
X31822796Y6504838D01*
G37*
G36*
X31813601Y7432141D02*
G01*
X31804356Y7431531D01*
X31795262Y7430109D01*
X31786322Y7427874D01*
X31781902Y7426502D01*
X31773317Y7423099D01*
X31765087Y7418984D01*
X31757213Y7414107D01*
X31749847Y7408621D01*
X31742989Y7402474D01*
X31736690Y7395718D01*
X31731000Y7388453D01*
X31725971Y7380681D01*
X31721653Y7372553D01*
X31718097Y7364069D01*
X31715252Y7355281D01*
X31713220Y7346238D01*
X31712001Y7337094D01*
X31711595Y7327900D01*
X31712001Y7318705D01*
X31713220Y7309561D01*
X31715252Y7300518D01*
X31718097Y7291730D01*
X31721653Y7283246D01*
X31725971Y7275118D01*
X31731000Y7267346D01*
X31736690Y7260081D01*
X31742989Y7253325D01*
X31749847Y7247178D01*
X31757213Y7241692D01*
X31765087Y7236815D01*
X31773317Y7232700D01*
X31781902Y7229297D01*
X31790741Y7226706D01*
X31799784Y7224877D01*
X31808978Y7223861D01*
X31818173Y7223658D01*
X31827419Y7224268D01*
X31836512Y7225690D01*
X31845453Y7227925D01*
X31849872Y7229297D01*
X31858458Y7232700D01*
X31866687Y7236815D01*
X31874561Y7241692D01*
X31881927Y7247178D01*
X31888785Y7253325D01*
X31895135Y7260081D01*
X31900774Y7267346D01*
X31905803Y7275118D01*
X31910121Y7283246D01*
X31913728Y7291730D01*
X31916522Y7300518D01*
X31918554Y7309561D01*
X31919773Y7318705D01*
X31920180Y7327900D01*
X31919773Y7337094D01*
X31918554Y7346238D01*
X31916522Y7355281D01*
X31913728Y7364069D01*
X31910121Y7372553D01*
X31905803Y7380681D01*
X31900774Y7388453D01*
X31895135Y7395718D01*
X31888785Y7402474D01*
X31881927Y7408621D01*
X31874561Y7414107D01*
X31866687Y7418984D01*
X31858458Y7423099D01*
X31849872Y7426502D01*
X31841033Y7429093D01*
X31831991Y7430922D01*
X31822796Y7431938D01*
G37*
G36*
X31813601Y5577941D02*
G01*
X31804356Y5577332D01*
X31795262Y5575909D01*
X31786322Y5573674D01*
X31781902Y5572302D01*
X31773317Y5568899D01*
X31765087Y5564784D01*
X31757213Y5559907D01*
X31749847Y5554421D01*
X31742989Y5548274D01*
X31736690Y5541518D01*
X31731000Y5534253D01*
X31725971Y5526481D01*
X31721653Y5518353D01*
X31718097Y5509869D01*
X31715252Y5501081D01*
X31713220Y5492038D01*
X31712001Y5482894D01*
X31711595Y5473700D01*
X31712001Y5464505D01*
X31713220Y5455361D01*
X31715252Y5446318D01*
X31718097Y5437530D01*
X31721653Y5429046D01*
X31725971Y5420918D01*
X31731000Y5413146D01*
X31736690Y5405882D01*
X31742989Y5399125D01*
X31749847Y5392978D01*
X31757213Y5387492D01*
X31765087Y5382615D01*
X31773317Y5378500D01*
X31781902Y5375097D01*
X31790741Y5372506D01*
X31799784Y5370677D01*
X31808978Y5369661D01*
X31818173Y5369458D01*
X31827419Y5370068D01*
X31836512Y5371490D01*
X31845453Y5373725D01*
X31849872Y5375097D01*
X31858458Y5378500D01*
X31866687Y5382615D01*
X31874561Y5387492D01*
X31881927Y5392978D01*
X31888785Y5399125D01*
X31895135Y5405882D01*
X31900774Y5413146D01*
X31905803Y5420918D01*
X31910121Y5429046D01*
X31913728Y5437530D01*
X31916522Y5446318D01*
X31918554Y5455361D01*
X31919773Y5464505D01*
X31920180Y5473700D01*
X31919773Y5482894D01*
X31918554Y5492038D01*
X31916522Y5501081D01*
X31913728Y5509869D01*
X31910121Y5518353D01*
X31905803Y5526481D01*
X31900774Y5534253D01*
X31895135Y5541518D01*
X31888785Y5548274D01*
X31881927Y5554421D01*
X31874561Y5559907D01*
X31866687Y5564784D01*
X31858458Y5568899D01*
X31849872Y5572302D01*
X31841033Y5574893D01*
X31831991Y5576722D01*
X31822796Y5577738D01*
G37*
G36*
X16369487Y8117941D02*
G01*
X16360241Y8117331D01*
X16351148Y8115909D01*
X16342207Y8113674D01*
X16337788Y8112302D01*
X16329202Y8108899D01*
X16320973Y8104784D01*
X16313099Y8099907D01*
X16305733Y8094421D01*
X16298875Y8088274D01*
X16292576Y8081518D01*
X16286886Y8074253D01*
X16281857Y8066481D01*
X16277539Y8058353D01*
X16273983Y8049869D01*
X16271138Y8041081D01*
X16269106Y8032038D01*
X16267887Y8022894D01*
X16267480Y8013700D01*
X16267887Y8004505D01*
X16269106Y7995361D01*
X16271138Y7986318D01*
X16273983Y7977530D01*
X16277539Y7969046D01*
X16281857Y7960918D01*
X16286886Y7953146D01*
X16292576Y7945881D01*
X16298875Y7939125D01*
X16305733Y7932978D01*
X16313099Y7927492D01*
X16320973Y7922615D01*
X16329202Y7918500D01*
X16337788Y7915097D01*
X16346627Y7912506D01*
X16355669Y7910677D01*
X16364864Y7909661D01*
X16374059Y7909458D01*
X16383304Y7910068D01*
X16392398Y7911490D01*
X16401338Y7913725D01*
X16405758Y7915097D01*
X16414343Y7918500D01*
X16422573Y7922615D01*
X16430447Y7927492D01*
X16437813Y7932978D01*
X16444671Y7939125D01*
X16451021Y7945881D01*
X16456660Y7953146D01*
X16461689Y7960918D01*
X16466007Y7969046D01*
X16469613Y7977530D01*
X16472407Y7986318D01*
X16474440Y7995361D01*
X16475659Y8004505D01*
X16476065Y8013700D01*
X16475659Y8022894D01*
X16474440Y8032038D01*
X16472407Y8041081D01*
X16469613Y8049869D01*
X16466007Y8058353D01*
X16461689Y8066481D01*
X16456660Y8074253D01*
X16451021Y8081518D01*
X16444671Y8088274D01*
X16437813Y8094421D01*
X16430447Y8099907D01*
X16422573Y8104784D01*
X16414343Y8108899D01*
X16405758Y8112302D01*
X16396919Y8114893D01*
X16387876Y8116722D01*
X16378682Y8117738D01*
G37*
G36*
X24055882Y8117941D02*
G01*
X24046637Y8117331D01*
X24037544Y8115909D01*
X24028603Y8113674D01*
X24024183Y8112302D01*
X24015598Y8108899D01*
X24007368Y8104784D01*
X23999494Y8099907D01*
X23992128Y8094421D01*
X23985270Y8088274D01*
X23978971Y8081518D01*
X23973282Y8074253D01*
X23968252Y8066481D01*
X23963934Y8058353D01*
X23960378Y8049869D01*
X23957534Y8041081D01*
X23955502Y8032038D01*
X23954282Y8022894D01*
X23953876Y8013700D01*
X23954282Y8004505D01*
X23955502Y7995361D01*
X23957534Y7986318D01*
X23960378Y7977530D01*
X23963934Y7969046D01*
X23968252Y7960918D01*
X23973282Y7953146D01*
X23978971Y7945881D01*
X23985270Y7939125D01*
X23992128Y7932978D01*
X23999494Y7927492D01*
X24007368Y7922615D01*
X24015598Y7918500D01*
X24024183Y7915097D01*
X24033022Y7912506D01*
X24042065Y7910677D01*
X24051260Y7909661D01*
X24060454Y7909458D01*
X24069700Y7910068D01*
X24078793Y7911490D01*
X24087734Y7913725D01*
X24092154Y7915097D01*
X24100739Y7918500D01*
X24108968Y7922615D01*
X24116842Y7927492D01*
X24124208Y7932978D01*
X24131066Y7939125D01*
X24137416Y7945881D01*
X24143055Y7953146D01*
X24148084Y7960918D01*
X24152402Y7969046D01*
X24156009Y7977530D01*
X24158803Y7986318D01*
X24160835Y7995361D01*
X24162054Y8004505D01*
X24162461Y8013700D01*
X24162054Y8022894D01*
X24160835Y8032038D01*
X24158803Y8041081D01*
X24156009Y8049869D01*
X24152402Y8058353D01*
X24148084Y8066481D01*
X24143055Y8074253D01*
X24137416Y8081518D01*
X24131066Y8088274D01*
X24124208Y8094421D01*
X24116842Y8099907D01*
X24108968Y8104784D01*
X24100739Y8108899D01*
X24092154Y8112302D01*
X24083314Y8114893D01*
X24074272Y8116722D01*
X24065077Y8117738D01*
G37*
G36*
X11200587Y5577941D02*
G01*
X11191341Y5577332D01*
X11182248Y5575909D01*
X11173307Y5573674D01*
X11168888Y5572302D01*
X11160302Y5568899D01*
X11152073Y5564784D01*
X11144199Y5559907D01*
X11136833Y5554421D01*
X11129975Y5548274D01*
X11123676Y5541518D01*
X11117986Y5534253D01*
X11112957Y5526481D01*
X11108639Y5518353D01*
X11105083Y5509869D01*
X11102238Y5501081D01*
X11100206Y5492038D01*
X11098987Y5482894D01*
X11098580Y5473700D01*
X11098987Y5464505D01*
X11100206Y5455361D01*
X11102238Y5446318D01*
X11105083Y5437530D01*
X11108639Y5429046D01*
X11112957Y5420918D01*
X11117986Y5413146D01*
X11123676Y5405882D01*
X11129975Y5399125D01*
X11136833Y5392978D01*
X11144199Y5387492D01*
X11152073Y5382615D01*
X11160302Y5378500D01*
X11168888Y5375097D01*
X11177727Y5372506D01*
X11186769Y5370677D01*
X11195964Y5369661D01*
X11205159Y5369458D01*
X11214404Y5370068D01*
X11223498Y5371490D01*
X11232438Y5373725D01*
X11236858Y5375097D01*
X11245443Y5378500D01*
X11253673Y5382615D01*
X11261547Y5387492D01*
X11268913Y5392978D01*
X11275771Y5399125D01*
X11282121Y5405882D01*
X11287760Y5413146D01*
X11292789Y5420918D01*
X11297107Y5429046D01*
X11300714Y5437530D01*
X11303508Y5446318D01*
X11305540Y5455361D01*
X11306759Y5464505D01*
X11307165Y5473700D01*
X11306759Y5482894D01*
X11305540Y5492038D01*
X11303508Y5501081D01*
X11300714Y5509869D01*
X11297107Y5518353D01*
X11292789Y5526481D01*
X11287760Y5534253D01*
X11282121Y5541518D01*
X11275771Y5548274D01*
X11268913Y5554421D01*
X11261547Y5559907D01*
X11253673Y5564784D01*
X11245443Y5568899D01*
X11236858Y5572302D01*
X11228019Y5574893D01*
X11218976Y5576722D01*
X11209782Y5577738D01*
G37*
G36*
X14362887Y5679541D02*
G01*
X14353641Y5678932D01*
X14344548Y5677509D01*
X14335607Y5675274D01*
X14331188Y5673902D01*
X14322602Y5670499D01*
X14314373Y5666384D01*
X14306499Y5661507D01*
X14299133Y5656021D01*
X14292275Y5649874D01*
X14285976Y5643118D01*
X14280286Y5635853D01*
X14275257Y5628081D01*
X14270939Y5619953D01*
X14267383Y5611469D01*
X14264538Y5602681D01*
X14262506Y5593638D01*
X14261287Y5584494D01*
X14260880Y5575300D01*
X14261287Y5566105D01*
X14262506Y5556961D01*
X14264538Y5547918D01*
X14267383Y5539130D01*
X14270939Y5530646D01*
X14275257Y5522518D01*
X14280286Y5514746D01*
X14285976Y5507482D01*
X14292275Y5500725D01*
X14299133Y5494578D01*
X14306499Y5489092D01*
X14314373Y5484215D01*
X14322602Y5480100D01*
X14331188Y5476697D01*
X14340027Y5474106D01*
X14349069Y5472277D01*
X14358264Y5471261D01*
X14367459Y5471058D01*
X14376704Y5471668D01*
X14385798Y5473090D01*
X14394738Y5475325D01*
X14399158Y5476697D01*
X14407743Y5480100D01*
X14415973Y5484215D01*
X14423847Y5489092D01*
X14431213Y5494578D01*
X14438071Y5500725D01*
X14444421Y5507482D01*
X14450060Y5514746D01*
X14455089Y5522518D01*
X14459407Y5530646D01*
X14463013Y5539130D01*
X14465807Y5547918D01*
X14467840Y5556961D01*
X14469059Y5566105D01*
X14469465Y5575300D01*
X14469059Y5584494D01*
X14467840Y5593638D01*
X14465807Y5602681D01*
X14463013Y5611469D01*
X14459407Y5619953D01*
X14455089Y5628081D01*
X14450060Y5635853D01*
X14444421Y5643118D01*
X14438071Y5649874D01*
X14431213Y5656021D01*
X14423847Y5661507D01*
X14415973Y5666384D01*
X14407743Y5670499D01*
X14399158Y5673902D01*
X14390319Y5676493D01*
X14381276Y5678322D01*
X14372082Y5679338D01*
G37*
G36*
X13715187Y5679541D02*
G01*
X13705941Y5678932D01*
X13696848Y5677509D01*
X13687907Y5675274D01*
X13683488Y5673902D01*
X13674902Y5670499D01*
X13666673Y5666384D01*
X13658799Y5661507D01*
X13651433Y5656021D01*
X13644575Y5649874D01*
X13638276Y5643118D01*
X13632586Y5635853D01*
X13627557Y5628081D01*
X13623239Y5619953D01*
X13619683Y5611469D01*
X13616838Y5602681D01*
X13614806Y5593638D01*
X13613587Y5584494D01*
X13613180Y5575300D01*
X13613587Y5566105D01*
X13614806Y5556961D01*
X13616838Y5547918D01*
X13619683Y5539130D01*
X13623239Y5530646D01*
X13627557Y5522518D01*
X13632586Y5514746D01*
X13638276Y5507482D01*
X13644575Y5500725D01*
X13651433Y5494578D01*
X13658799Y5489092D01*
X13666673Y5484215D01*
X13674902Y5480100D01*
X13683488Y5476697D01*
X13692327Y5474106D01*
X13701369Y5472277D01*
X13710564Y5471261D01*
X13719759Y5471058D01*
X13729004Y5471668D01*
X13738098Y5473090D01*
X13747038Y5475325D01*
X13751458Y5476697D01*
X13760043Y5480100D01*
X13768273Y5484215D01*
X13776147Y5489092D01*
X13783513Y5494578D01*
X13790371Y5500725D01*
X13796721Y5507482D01*
X13802360Y5514746D01*
X13807389Y5522518D01*
X13811707Y5530646D01*
X13815313Y5539130D01*
X13818107Y5547918D01*
X13820140Y5556961D01*
X13821359Y5566105D01*
X13821765Y5575300D01*
X13821359Y5584494D01*
X13820140Y5593638D01*
X13818107Y5602681D01*
X13815313Y5611469D01*
X13811707Y5619953D01*
X13807389Y5628081D01*
X13802360Y5635853D01*
X13796721Y5643118D01*
X13790371Y5649874D01*
X13783513Y5656021D01*
X13776147Y5661507D01*
X13768273Y5666384D01*
X13760043Y5670499D01*
X13751458Y5673902D01*
X13742619Y5676493D01*
X13733576Y5678322D01*
X13724382Y5679338D01*
G37*
G36*
X15010587Y5577941D02*
G01*
X15001341Y5577332D01*
X14992248Y5575909D01*
X14983307Y5573674D01*
X14978888Y5572302D01*
X14970302Y5568899D01*
X14962073Y5564784D01*
X14954199Y5559907D01*
X14946833Y5554421D01*
X14939975Y5548274D01*
X14933676Y5541518D01*
X14927986Y5534253D01*
X14922957Y5526481D01*
X14918639Y5518353D01*
X14915083Y5509869D01*
X14912238Y5501081D01*
X14910206Y5492038D01*
X14908987Y5482894D01*
X14908580Y5473700D01*
X14908987Y5464505D01*
X14910206Y5455361D01*
X14912238Y5446318D01*
X14915083Y5437530D01*
X14918639Y5429046D01*
X14922957Y5420918D01*
X14927986Y5413146D01*
X14933676Y5405882D01*
X14939975Y5399125D01*
X14946833Y5392978D01*
X14954199Y5387492D01*
X14962073Y5382615D01*
X14970302Y5378500D01*
X14978888Y5375097D01*
X14987727Y5372506D01*
X14996769Y5370677D01*
X15005964Y5369661D01*
X15015159Y5369458D01*
X15024404Y5370068D01*
X15033498Y5371490D01*
X15042438Y5373725D01*
X15046858Y5375097D01*
X15055443Y5378500D01*
X15063673Y5382615D01*
X15071547Y5387492D01*
X15078913Y5392978D01*
X15085771Y5399125D01*
X15092121Y5405882D01*
X15097760Y5413146D01*
X15102789Y5420918D01*
X15107107Y5429046D01*
X15110713Y5437530D01*
X15113507Y5446318D01*
X15115540Y5455361D01*
X15116759Y5464505D01*
X15117165Y5473700D01*
X15116759Y5482894D01*
X15115540Y5492038D01*
X15113507Y5501081D01*
X15110713Y5509869D01*
X15107107Y5518353D01*
X15102789Y5526481D01*
X15097760Y5534253D01*
X15092121Y5541518D01*
X15085771Y5548274D01*
X15078913Y5554421D01*
X15071547Y5559907D01*
X15063673Y5564784D01*
X15055443Y5568899D01*
X15046858Y5572302D01*
X15038019Y5574893D01*
X15028976Y5576722D01*
X15019782Y5577738D01*
G37*
G36*
X14362887Y7533741D02*
G01*
X14353641Y7533131D01*
X14344548Y7531709D01*
X14335607Y7529474D01*
X14331188Y7528102D01*
X14322602Y7524699D01*
X14314373Y7520584D01*
X14306499Y7515707D01*
X14299133Y7510221D01*
X14292275Y7504074D01*
X14285976Y7497318D01*
X14280286Y7490053D01*
X14275257Y7482281D01*
X14270939Y7474153D01*
X14267383Y7465669D01*
X14264538Y7456881D01*
X14262506Y7447838D01*
X14261287Y7438694D01*
X14260880Y7429500D01*
X14261287Y7420305D01*
X14262506Y7411161D01*
X14264538Y7402118D01*
X14267383Y7393330D01*
X14270939Y7384846D01*
X14275257Y7376718D01*
X14280286Y7368946D01*
X14285976Y7361681D01*
X14292275Y7354925D01*
X14299133Y7348778D01*
X14306499Y7343292D01*
X14314373Y7338415D01*
X14322602Y7334300D01*
X14331188Y7330897D01*
X14340027Y7328306D01*
X14349069Y7326477D01*
X14358264Y7325461D01*
X14367459Y7325258D01*
X14376704Y7325868D01*
X14385798Y7327290D01*
X14394738Y7329525D01*
X14399158Y7330897D01*
X14407743Y7334300D01*
X14415973Y7338415D01*
X14423847Y7343292D01*
X14431213Y7348778D01*
X14438071Y7354925D01*
X14444421Y7361681D01*
X14450060Y7368946D01*
X14455089Y7376718D01*
X14459407Y7384846D01*
X14463013Y7393330D01*
X14465807Y7402118D01*
X14467840Y7411161D01*
X14469059Y7420305D01*
X14469465Y7429500D01*
X14469059Y7438694D01*
X14467840Y7447838D01*
X14465807Y7456881D01*
X14463013Y7465669D01*
X14459407Y7474153D01*
X14455089Y7482281D01*
X14450060Y7490053D01*
X14444421Y7497318D01*
X14438071Y7504074D01*
X14431213Y7510221D01*
X14423847Y7515707D01*
X14415973Y7520584D01*
X14407743Y7524699D01*
X14399158Y7528102D01*
X14390319Y7530693D01*
X14381276Y7532522D01*
X14372082Y7533538D01*
G37*
G36*
X13715187Y7533741D02*
G01*
X13705941Y7533131D01*
X13696848Y7531709D01*
X13687907Y7529474D01*
X13683488Y7528102D01*
X13674902Y7524699D01*
X13666673Y7520584D01*
X13658799Y7515707D01*
X13651433Y7510221D01*
X13644575Y7504074D01*
X13638276Y7497318D01*
X13632586Y7490053D01*
X13627557Y7482281D01*
X13623239Y7474153D01*
X13619683Y7465669D01*
X13616838Y7456881D01*
X13614806Y7447838D01*
X13613587Y7438694D01*
X13613180Y7429500D01*
X13613587Y7420305D01*
X13614806Y7411161D01*
X13616838Y7402118D01*
X13619683Y7393330D01*
X13623239Y7384846D01*
X13627557Y7376718D01*
X13632586Y7368946D01*
X13638276Y7361681D01*
X13644575Y7354925D01*
X13651433Y7348778D01*
X13658799Y7343292D01*
X13666673Y7338415D01*
X13674902Y7334300D01*
X13683488Y7330897D01*
X13692327Y7328306D01*
X13701369Y7326477D01*
X13710564Y7325461D01*
X13719759Y7325258D01*
X13729004Y7325868D01*
X13738098Y7327290D01*
X13747038Y7329525D01*
X13751458Y7330897D01*
X13760043Y7334300D01*
X13768273Y7338415D01*
X13776147Y7343292D01*
X13783513Y7348778D01*
X13790371Y7354925D01*
X13796721Y7361681D01*
X13802360Y7368946D01*
X13807389Y7376718D01*
X13811707Y7384846D01*
X13815313Y7393330D01*
X13818107Y7402118D01*
X13820140Y7411161D01*
X13821359Y7420305D01*
X13821765Y7429500D01*
X13821359Y7438694D01*
X13820140Y7447838D01*
X13818107Y7456881D01*
X13815313Y7465669D01*
X13811707Y7474153D01*
X13807389Y7482281D01*
X13802360Y7490053D01*
X13796721Y7497318D01*
X13790371Y7504074D01*
X13783513Y7510221D01*
X13776147Y7515707D01*
X13768273Y7520584D01*
X13760043Y7524699D01*
X13751458Y7528102D01*
X13742619Y7530693D01*
X13733576Y7532522D01*
X13724382Y7533538D01*
G37*
G36*
X15010587Y7432141D02*
G01*
X15001341Y7431531D01*
X14992248Y7430109D01*
X14983307Y7427874D01*
X14978888Y7426502D01*
X14970302Y7423099D01*
X14962073Y7418984D01*
X14954199Y7414107D01*
X14946833Y7408621D01*
X14939975Y7402474D01*
X14933676Y7395718D01*
X14927986Y7388453D01*
X14922957Y7380681D01*
X14918639Y7372553D01*
X14915083Y7364069D01*
X14912238Y7355281D01*
X14910206Y7346238D01*
X14908987Y7337094D01*
X14908580Y7327900D01*
X14908987Y7318705D01*
X14910206Y7309561D01*
X14912238Y7300518D01*
X14915083Y7291730D01*
X14918639Y7283246D01*
X14922957Y7275118D01*
X14927986Y7267346D01*
X14933676Y7260081D01*
X14939975Y7253325D01*
X14946833Y7247178D01*
X14954199Y7241692D01*
X14962073Y7236815D01*
X14970302Y7232700D01*
X14978888Y7229297D01*
X14987727Y7226706D01*
X14996769Y7224877D01*
X15005964Y7223861D01*
X15015159Y7223658D01*
X15024404Y7224268D01*
X15033498Y7225690D01*
X15042438Y7227925D01*
X15046858Y7229297D01*
X15055443Y7232700D01*
X15063673Y7236815D01*
X15071547Y7241692D01*
X15078913Y7247178D01*
X15085771Y7253325D01*
X15092121Y7260081D01*
X15097760Y7267346D01*
X15102789Y7275118D01*
X15107107Y7283246D01*
X15110713Y7291730D01*
X15113507Y7300518D01*
X15115540Y7309561D01*
X15116759Y7318705D01*
X15117165Y7327900D01*
X15116759Y7337094D01*
X15115540Y7346238D01*
X15113507Y7355281D01*
X15110713Y7364069D01*
X15107107Y7372553D01*
X15102789Y7380681D01*
X15097760Y7388453D01*
X15092121Y7395718D01*
X15085771Y7402474D01*
X15078913Y7408621D01*
X15071547Y7414107D01*
X15063673Y7418984D01*
X15055443Y7423099D01*
X15046858Y7426502D01*
X15038019Y7429093D01*
X15028976Y7430922D01*
X15019782Y7431938D01*
G37*
G36*
X11200587Y6505041D02*
G01*
X11191341Y6504431D01*
X11182248Y6503009D01*
X11173307Y6500774D01*
X11168888Y6499402D01*
X11160302Y6495999D01*
X11152073Y6491884D01*
X11144199Y6487007D01*
X11136833Y6481521D01*
X11129975Y6475374D01*
X11123676Y6468618D01*
X11117986Y6461353D01*
X11112957Y6453581D01*
X11108639Y6445453D01*
X11105083Y6436969D01*
X11102238Y6428181D01*
X11100206Y6419138D01*
X11098987Y6409994D01*
X11098580Y6400800D01*
X11098987Y6391605D01*
X11100206Y6382461D01*
X11102238Y6373418D01*
X11105083Y6364630D01*
X11108639Y6356146D01*
X11112957Y6348018D01*
X11117986Y6340246D01*
X11123676Y6332982D01*
X11129975Y6326225D01*
X11136833Y6320078D01*
X11144199Y6314592D01*
X11152073Y6309715D01*
X11160302Y6305600D01*
X11168888Y6302197D01*
X11177727Y6299606D01*
X11186769Y6297777D01*
X11195964Y6296761D01*
X11205159Y6296558D01*
X11214404Y6297168D01*
X11223498Y6298590D01*
X11232438Y6300825D01*
X11236858Y6302197D01*
X11245443Y6305600D01*
X11253673Y6309715D01*
X11261547Y6314592D01*
X11268913Y6320078D01*
X11275771Y6326225D01*
X11282121Y6332982D01*
X11287760Y6340246D01*
X11292789Y6348018D01*
X11297107Y6356146D01*
X11300714Y6364630D01*
X11303508Y6373418D01*
X11305540Y6382461D01*
X11306759Y6391605D01*
X11307165Y6400800D01*
X11306759Y6409994D01*
X11305540Y6419138D01*
X11303508Y6428181D01*
X11300714Y6436969D01*
X11297107Y6445453D01*
X11292789Y6453581D01*
X11287760Y6461353D01*
X11282121Y6468618D01*
X11275771Y6475374D01*
X11268913Y6481521D01*
X11261547Y6487007D01*
X11253673Y6491884D01*
X11245443Y6495999D01*
X11236858Y6499402D01*
X11228019Y6501993D01*
X11218976Y6503822D01*
X11209782Y6504838D01*
G37*
G36*
X12597587Y5577941D02*
G01*
X12588341Y5577332D01*
X12579248Y5575909D01*
X12570307Y5573674D01*
X12565888Y5572302D01*
X12557302Y5568899D01*
X12549073Y5564784D01*
X12541199Y5559907D01*
X12533833Y5554421D01*
X12526975Y5548274D01*
X12520676Y5541518D01*
X12514986Y5534253D01*
X12509957Y5526481D01*
X12505639Y5518353D01*
X12502083Y5509869D01*
X12499238Y5501081D01*
X12497206Y5492038D01*
X12495987Y5482894D01*
X12495580Y5473700D01*
X12495987Y5464505D01*
X12497206Y5455361D01*
X12499238Y5446318D01*
X12502083Y5437530D01*
X12505639Y5429046D01*
X12509957Y5420918D01*
X12514986Y5413146D01*
X12520676Y5405882D01*
X12526975Y5399125D01*
X12533833Y5392978D01*
X12541199Y5387492D01*
X12549073Y5382615D01*
X12557302Y5378500D01*
X12565888Y5375097D01*
X12574727Y5372506D01*
X12583769Y5370677D01*
X12592964Y5369661D01*
X12602159Y5369458D01*
X12611404Y5370068D01*
X12620498Y5371490D01*
X12629438Y5373725D01*
X12633858Y5375097D01*
X12642443Y5378500D01*
X12650673Y5382615D01*
X12658547Y5387492D01*
X12665913Y5392978D01*
X12672771Y5399125D01*
X12679121Y5405882D01*
X12684760Y5413146D01*
X12689789Y5420918D01*
X12694107Y5429046D01*
X12697714Y5437530D01*
X12700508Y5446318D01*
X12702540Y5455361D01*
X12703759Y5464505D01*
X12704165Y5473700D01*
X12703759Y5482894D01*
X12702540Y5492038D01*
X12700508Y5501081D01*
X12697714Y5509869D01*
X12694107Y5518353D01*
X12689789Y5526481D01*
X12684760Y5534253D01*
X12679121Y5541518D01*
X12672771Y5548274D01*
X12665913Y5554421D01*
X12658547Y5559907D01*
X12650673Y5564784D01*
X12642443Y5568899D01*
X12633858Y5572302D01*
X12625019Y5574893D01*
X12615976Y5576722D01*
X12606782Y5577738D01*
G37*
G36*
X12597587Y6505041D02*
G01*
X12588341Y6504431D01*
X12579248Y6503009D01*
X12570307Y6500774D01*
X12565888Y6499402D01*
X12557302Y6495999D01*
X12549073Y6491884D01*
X12541199Y6487007D01*
X12533833Y6481521D01*
X12526975Y6475374D01*
X12520676Y6468618D01*
X12514986Y6461353D01*
X12509957Y6453581D01*
X12505639Y6445453D01*
X12502083Y6436969D01*
X12499238Y6428181D01*
X12497206Y6419138D01*
X12495987Y6409994D01*
X12495580Y6400800D01*
X12495987Y6391605D01*
X12497206Y6382461D01*
X12499238Y6373418D01*
X12502083Y6364630D01*
X12505639Y6356146D01*
X12509957Y6348018D01*
X12514986Y6340246D01*
X12520676Y6332982D01*
X12526975Y6326225D01*
X12533833Y6320078D01*
X12541199Y6314592D01*
X12549073Y6309715D01*
X12557302Y6305600D01*
X12565888Y6302197D01*
X12574727Y6299606D01*
X12583769Y6297777D01*
X12592964Y6296761D01*
X12602159Y6296558D01*
X12611404Y6297168D01*
X12620498Y6298590D01*
X12629438Y6300825D01*
X12633858Y6302197D01*
X12642443Y6305600D01*
X12650673Y6309715D01*
X12658547Y6314592D01*
X12665913Y6320078D01*
X12672771Y6326225D01*
X12679121Y6332982D01*
X12684760Y6340246D01*
X12689789Y6348018D01*
X12694107Y6356146D01*
X12697714Y6364630D01*
X12700508Y6373418D01*
X12702540Y6382461D01*
X12703759Y6391605D01*
X12704165Y6400800D01*
X12703759Y6409994D01*
X12702540Y6419138D01*
X12700508Y6428181D01*
X12697714Y6436969D01*
X12694107Y6445453D01*
X12689789Y6453581D01*
X12684760Y6461353D01*
X12679121Y6468618D01*
X12672771Y6475374D01*
X12665913Y6481521D01*
X12658547Y6487007D01*
X12650673Y6491884D01*
X12642443Y6495999D01*
X12633858Y6499402D01*
X12625019Y6501993D01*
X12615976Y6503822D01*
X12606782Y6504838D01*
G37*
G36*
X40927274Y5577941D02*
G01*
X40918079Y5577332D01*
X40908986Y5575909D01*
X40899994Y5573674D01*
X40895625Y5572302D01*
X40887040Y5568899D01*
X40878760Y5564784D01*
X40870936Y5559907D01*
X40863520Y5554421D01*
X40856662Y5548274D01*
X40850362Y5541518D01*
X40844673Y5534253D01*
X40839644Y5526481D01*
X40835326Y5518353D01*
X40831770Y5509869D01*
X40830246Y5505500D01*
X40827858Y5496560D01*
X40826232Y5487517D01*
X40825420Y5478322D01*
X40825420Y5469077D01*
X40826232Y5459882D01*
X40827858Y5450840D01*
X40830246Y5441899D01*
X40833446Y5433263D01*
X40837408Y5424932D01*
X40842082Y5416956D01*
X40847467Y5409438D01*
X40853461Y5402427D01*
X40860014Y5395976D01*
X40867177Y5390134D01*
X40874797Y5384952D01*
X40882874Y5380482D01*
X40891307Y5376722D01*
X40895625Y5375097D01*
X40904464Y5372506D01*
X40913507Y5370677D01*
X40922651Y5369661D01*
X40931896Y5369458D01*
X40941091Y5370068D01*
X40950235Y5371490D01*
X40959176Y5373725D01*
X40967914Y5376722D01*
X40976296Y5380482D01*
X40984373Y5384952D01*
X40991993Y5390134D01*
X40999156Y5395976D01*
X41005709Y5402427D01*
X41011754Y5409438D01*
X41017088Y5416956D01*
X41021762Y5424932D01*
X41025724Y5433263D01*
X41028924Y5441899D01*
X41031312Y5450840D01*
X41032938Y5459882D01*
X41033750Y5469077D01*
X41033750Y5478322D01*
X41032938Y5487517D01*
X41031312Y5496560D01*
X41028924Y5505500D01*
X41025724Y5514136D01*
X41021762Y5522468D01*
X41017088Y5530443D01*
X41011754Y5537962D01*
X41005709Y5544972D01*
X40999156Y5551424D01*
X40991993Y5557266D01*
X40984373Y5562447D01*
X40976296Y5566918D01*
X40967914Y5570677D01*
X40959176Y5573674D01*
X40950235Y5575909D01*
X40941091Y5577332D01*
X40931896Y5577941D01*
G37*
G36*
X40927274Y7432141D02*
G01*
X40918079Y7431531D01*
X40908986Y7430109D01*
X40899994Y7427874D01*
X40895625Y7426502D01*
X40887040Y7423099D01*
X40878760Y7418984D01*
X40870936Y7414107D01*
X40863520Y7408621D01*
X40856662Y7402474D01*
X40850362Y7395718D01*
X40844673Y7388453D01*
X40839644Y7380681D01*
X40835326Y7372553D01*
X40831770Y7364069D01*
X40830246Y7359700D01*
X40827858Y7350759D01*
X40826232Y7341717D01*
X40825420Y7332522D01*
X40825420Y7323277D01*
X40826232Y7314082D01*
X40827858Y7305040D01*
X40830246Y7296099D01*
X40833446Y7287463D01*
X40837408Y7279131D01*
X40842082Y7271156D01*
X40847467Y7263638D01*
X40853461Y7256627D01*
X40860014Y7250175D01*
X40867177Y7244334D01*
X40874797Y7239152D01*
X40882874Y7234681D01*
X40891307Y7230922D01*
X40895625Y7229297D01*
X40904464Y7226706D01*
X40913507Y7224877D01*
X40922651Y7223861D01*
X40931896Y7223658D01*
X40941091Y7224268D01*
X40950235Y7225690D01*
X40959176Y7227925D01*
X40967914Y7230922D01*
X40976296Y7234681D01*
X40984373Y7239152D01*
X40991993Y7244334D01*
X40999156Y7250175D01*
X41005709Y7256627D01*
X41011754Y7263638D01*
X41017088Y7271156D01*
X41021762Y7279131D01*
X41025724Y7287463D01*
X41028924Y7296099D01*
X41031312Y7305040D01*
X41032938Y7314082D01*
X41033750Y7323277D01*
X41033750Y7332522D01*
X41032938Y7341717D01*
X41031312Y7350759D01*
X41028924Y7359700D01*
X41025724Y7368336D01*
X41021762Y7376668D01*
X41017088Y7384643D01*
X41011754Y7392162D01*
X41005709Y7399172D01*
X40999156Y7405624D01*
X40991993Y7411466D01*
X40984373Y7416647D01*
X40976296Y7421118D01*
X40967914Y7424877D01*
X40959176Y7427874D01*
X40950235Y7430109D01*
X40941091Y7431531D01*
X40931896Y7432141D01*
G37*
G36*
X40927274Y6517741D02*
G01*
X40918079Y6517131D01*
X40908986Y6515709D01*
X40899994Y6513474D01*
X40895625Y6512102D01*
X40887040Y6508699D01*
X40878760Y6504584D01*
X40870936Y6499707D01*
X40863520Y6494221D01*
X40856662Y6488074D01*
X40850362Y6481318D01*
X40844673Y6474053D01*
X40839644Y6466281D01*
X40835326Y6458153D01*
X40831770Y6449669D01*
X40830246Y6445300D01*
X40827858Y6436360D01*
X40826232Y6427317D01*
X40825420Y6418122D01*
X40825420Y6408877D01*
X40826232Y6399682D01*
X40827858Y6390640D01*
X40830246Y6381699D01*
X40833446Y6373063D01*
X40837408Y6364732D01*
X40842082Y6356756D01*
X40847467Y6349238D01*
X40853461Y6342227D01*
X40860014Y6335776D01*
X40867177Y6329934D01*
X40874797Y6324752D01*
X40882874Y6320282D01*
X40891307Y6316522D01*
X40895625Y6314897D01*
X40904464Y6312306D01*
X40913507Y6310477D01*
X40922651Y6309461D01*
X40931896Y6309258D01*
X40941091Y6309868D01*
X40950235Y6311290D01*
X40959176Y6313525D01*
X40967914Y6316522D01*
X40976296Y6320282D01*
X40984373Y6324752D01*
X40991993Y6329934D01*
X40999156Y6335776D01*
X41005709Y6342227D01*
X41011754Y6349238D01*
X41017088Y6356756D01*
X41021762Y6364732D01*
X41025724Y6373063D01*
X41028924Y6381699D01*
X41031312Y6390640D01*
X41032938Y6399682D01*
X41033750Y6408877D01*
X41033750Y6418122D01*
X41032938Y6427317D01*
X41031312Y6436360D01*
X41028924Y6445300D01*
X41025724Y6453936D01*
X41021762Y6462268D01*
X41017088Y6470243D01*
X41011754Y6477762D01*
X41005709Y6484772D01*
X40999156Y6491224D01*
X40991993Y6497066D01*
X40984373Y6502247D01*
X40976296Y6506718D01*
X40967914Y6510477D01*
X40959176Y6513474D01*
X40950235Y6515709D01*
X40941091Y6517131D01*
X40931896Y6517741D01*
G37*
G36*
X29397706Y5577941D02*
G01*
X29388460Y5577332D01*
X29379367Y5575909D01*
X29370426Y5573674D01*
X29366006Y5572302D01*
X29357421Y5568899D01*
X29349192Y5564784D01*
X29341318Y5559907D01*
X29333952Y5554421D01*
X29327094Y5548274D01*
X29320794Y5541518D01*
X29315105Y5534253D01*
X29310076Y5526481D01*
X29305758Y5518353D01*
X29302202Y5509869D01*
X29299357Y5501081D01*
X29297325Y5492038D01*
X29296106Y5482894D01*
X29295699Y5473700D01*
X29296106Y5464505D01*
X29297325Y5455361D01*
X29299357Y5446318D01*
X29302202Y5437530D01*
X29305758Y5429046D01*
X29310076Y5420918D01*
X29315105Y5413146D01*
X29320794Y5405882D01*
X29327094Y5399125D01*
X29333952Y5392978D01*
X29341318Y5387492D01*
X29349192Y5382615D01*
X29357421Y5378500D01*
X29366006Y5375097D01*
X29374846Y5372506D01*
X29383888Y5370677D01*
X29393083Y5369661D01*
X29402277Y5369458D01*
X29411523Y5370068D01*
X29420616Y5371490D01*
X29429557Y5373725D01*
X29433977Y5375097D01*
X29442562Y5378500D01*
X29450792Y5382615D01*
X29458665Y5387492D01*
X29466032Y5392978D01*
X29472889Y5399125D01*
X29479239Y5405882D01*
X29484878Y5413146D01*
X29489908Y5420918D01*
X29494226Y5429046D01*
X29497832Y5437530D01*
X29500626Y5446318D01*
X29502658Y5455361D01*
X29503877Y5464505D01*
X29504284Y5473700D01*
X29503877Y5482894D01*
X29502658Y5492038D01*
X29500626Y5501081D01*
X29497832Y5509869D01*
X29494226Y5518353D01*
X29489908Y5526481D01*
X29484878Y5534253D01*
X29479239Y5541518D01*
X29472889Y5548274D01*
X29466032Y5554421D01*
X29458665Y5559907D01*
X29450792Y5564784D01*
X29442562Y5568899D01*
X29433977Y5572302D01*
X29425138Y5574893D01*
X29416095Y5576722D01*
X29406900Y5577738D01*
G37*
G36*
X29397706Y7432141D02*
G01*
X29388460Y7431531D01*
X29379367Y7430109D01*
X29370426Y7427874D01*
X29366006Y7426502D01*
X29357421Y7423099D01*
X29349192Y7418984D01*
X29341318Y7414107D01*
X29333952Y7408621D01*
X29327094Y7402474D01*
X29320794Y7395718D01*
X29315105Y7388453D01*
X29310076Y7380681D01*
X29305758Y7372553D01*
X29302202Y7364069D01*
X29299357Y7355281D01*
X29297325Y7346238D01*
X29296106Y7337094D01*
X29295699Y7327900D01*
X29296106Y7318705D01*
X29297325Y7309561D01*
X29299357Y7300518D01*
X29302202Y7291730D01*
X29305758Y7283246D01*
X29310076Y7275118D01*
X29315105Y7267346D01*
X29320794Y7260081D01*
X29327094Y7253325D01*
X29333952Y7247178D01*
X29341318Y7241692D01*
X29349192Y7236815D01*
X29357421Y7232700D01*
X29366006Y7229297D01*
X29374846Y7226706D01*
X29383888Y7224877D01*
X29393083Y7223861D01*
X29402277Y7223658D01*
X29411523Y7224268D01*
X29420616Y7225690D01*
X29429557Y7227925D01*
X29433977Y7229297D01*
X29442562Y7232700D01*
X29450792Y7236815D01*
X29458665Y7241692D01*
X29466032Y7247178D01*
X29472889Y7253325D01*
X29479239Y7260081D01*
X29484878Y7267346D01*
X29489908Y7275118D01*
X29494226Y7283246D01*
X29497832Y7291730D01*
X29500626Y7300518D01*
X29502658Y7309561D01*
X29503877Y7318705D01*
X29504284Y7327900D01*
X29503877Y7337094D01*
X29502658Y7346238D01*
X29500626Y7355281D01*
X29497832Y7364069D01*
X29494226Y7372553D01*
X29489908Y7380681D01*
X29484878Y7388453D01*
X29479239Y7395718D01*
X29472889Y7402474D01*
X29466032Y7408621D01*
X29458665Y7414107D01*
X29450792Y7418984D01*
X29442562Y7423099D01*
X29433977Y7426502D01*
X29425138Y7429093D01*
X29416095Y7430922D01*
X29406900Y7431938D01*
G37*
G36*
X29397706Y6517741D02*
G01*
X29388460Y6517131D01*
X29379367Y6515709D01*
X29370426Y6513474D01*
X29366006Y6512102D01*
X29357421Y6508699D01*
X29349192Y6504584D01*
X29341318Y6499707D01*
X29333952Y6494221D01*
X29327094Y6488074D01*
X29320794Y6481318D01*
X29315105Y6474053D01*
X29310076Y6466281D01*
X29305758Y6458153D01*
X29302202Y6449669D01*
X29299357Y6440881D01*
X29297325Y6431838D01*
X29296106Y6422694D01*
X29295699Y6413500D01*
X29296106Y6404305D01*
X29297325Y6395161D01*
X29299357Y6386118D01*
X29302202Y6377330D01*
X29305758Y6368846D01*
X29310076Y6360718D01*
X29315105Y6352946D01*
X29320794Y6345682D01*
X29327094Y6338925D01*
X29333952Y6332778D01*
X29341318Y6327292D01*
X29349192Y6322415D01*
X29357421Y6318300D01*
X29366006Y6314897D01*
X29374846Y6312306D01*
X29383888Y6310477D01*
X29393083Y6309461D01*
X29402277Y6309258D01*
X29411523Y6309868D01*
X29420616Y6311290D01*
X29429557Y6313525D01*
X29433977Y6314897D01*
X29442562Y6318300D01*
X29450792Y6322415D01*
X29458665Y6327292D01*
X29466032Y6332778D01*
X29472889Y6338925D01*
X29479239Y6345682D01*
X29484878Y6352946D01*
X29489908Y6360718D01*
X29494226Y6368846D01*
X29497832Y6377330D01*
X29500626Y6386118D01*
X29502658Y6395161D01*
X29503877Y6404305D01*
X29504284Y6413500D01*
X29503877Y6422694D01*
X29502658Y6431838D01*
X29500626Y6440881D01*
X29497832Y6449669D01*
X29494226Y6458153D01*
X29489908Y6466281D01*
X29484878Y6474053D01*
X29479239Y6481318D01*
X29472889Y6488074D01*
X29466032Y6494221D01*
X29458665Y6499707D01*
X29450792Y6504584D01*
X29442562Y6508699D01*
X29433977Y6512102D01*
X29425138Y6514693D01*
X29416095Y6516522D01*
X29406900Y6517538D01*
G37*
G36*
X17868087Y6517741D02*
G01*
X17858841Y6517131D01*
X17849748Y6515709D01*
X17840807Y6513474D01*
X17836388Y6512102D01*
X17827802Y6508699D01*
X17819573Y6504584D01*
X17811699Y6499707D01*
X17804333Y6494221D01*
X17797475Y6488074D01*
X17791176Y6481318D01*
X17785486Y6474053D01*
X17780457Y6466281D01*
X17776139Y6458153D01*
X17772583Y6449669D01*
X17769738Y6440881D01*
X17767706Y6431838D01*
X17766487Y6422694D01*
X17766080Y6413500D01*
X17766487Y6404305D01*
X17767706Y6395161D01*
X17769738Y6386118D01*
X17772583Y6377330D01*
X17776139Y6368846D01*
X17780457Y6360718D01*
X17785486Y6352946D01*
X17791176Y6345682D01*
X17797475Y6338925D01*
X17804333Y6332778D01*
X17811699Y6327292D01*
X17819573Y6322415D01*
X17827802Y6318300D01*
X17836388Y6314897D01*
X17845227Y6312306D01*
X17854269Y6310477D01*
X17863464Y6309461D01*
X17872659Y6309258D01*
X17881904Y6309868D01*
X17890998Y6311290D01*
X17899938Y6313525D01*
X17904358Y6314897D01*
X17912943Y6318300D01*
X17921173Y6322415D01*
X17929047Y6327292D01*
X17936413Y6332778D01*
X17943271Y6338925D01*
X17949621Y6345682D01*
X17955260Y6352946D01*
X17960289Y6360718D01*
X17964607Y6368846D01*
X17968214Y6377330D01*
X17971008Y6386118D01*
X17973040Y6395161D01*
X17974259Y6404305D01*
X17974665Y6413500D01*
X17974259Y6422694D01*
X17973040Y6431838D01*
X17971008Y6440881D01*
X17968214Y6449669D01*
X17964607Y6458153D01*
X17960289Y6466281D01*
X17955260Y6474053D01*
X17949621Y6481318D01*
X17943271Y6488074D01*
X17936413Y6494221D01*
X17929047Y6499707D01*
X17921173Y6504584D01*
X17912943Y6508699D01*
X17904358Y6512102D01*
X17895519Y6514693D01*
X17886476Y6516522D01*
X17877282Y6517538D01*
G37*
G36*
X17868087Y7432141D02*
G01*
X17858841Y7431531D01*
X17849748Y7430109D01*
X17840807Y7427874D01*
X17836388Y7426502D01*
X17827802Y7423099D01*
X17819573Y7418984D01*
X17811699Y7414107D01*
X17804333Y7408621D01*
X17797475Y7402474D01*
X17791176Y7395718D01*
X17785486Y7388453D01*
X17780457Y7380681D01*
X17776139Y7372553D01*
X17772583Y7364069D01*
X17769738Y7355281D01*
X17767706Y7346238D01*
X17766487Y7337094D01*
X17766080Y7327900D01*
X17766487Y7318705D01*
X17767706Y7309561D01*
X17769738Y7300518D01*
X17772583Y7291730D01*
X17776139Y7283246D01*
X17780457Y7275118D01*
X17785486Y7267346D01*
X17791176Y7260081D01*
X17797475Y7253325D01*
X17804333Y7247178D01*
X17811699Y7241692D01*
X17819573Y7236815D01*
X17827802Y7232700D01*
X17836388Y7229297D01*
X17845227Y7226706D01*
X17854269Y7224877D01*
X17863464Y7223861D01*
X17872659Y7223658D01*
X17881904Y7224268D01*
X17890998Y7225690D01*
X17899938Y7227925D01*
X17904358Y7229297D01*
X17912943Y7232700D01*
X17921173Y7236815D01*
X17929047Y7241692D01*
X17936413Y7247178D01*
X17943271Y7253325D01*
X17949621Y7260081D01*
X17955260Y7267346D01*
X17960289Y7275118D01*
X17964607Y7283246D01*
X17968214Y7291730D01*
X17971008Y7300518D01*
X17973040Y7309561D01*
X17974259Y7318705D01*
X17974665Y7327900D01*
X17974259Y7337094D01*
X17973040Y7346238D01*
X17971008Y7355281D01*
X17968214Y7364069D01*
X17964607Y7372553D01*
X17960289Y7380681D01*
X17955260Y7388453D01*
X17949621Y7395718D01*
X17943271Y7402474D01*
X17936413Y7408621D01*
X17929047Y7414107D01*
X17921173Y7418984D01*
X17912943Y7423099D01*
X17904358Y7426502D01*
X17895519Y7429093D01*
X17886476Y7430922D01*
X17877282Y7431938D01*
G37*
G36*
X17868087Y5577941D02*
G01*
X17858841Y5577332D01*
X17849748Y5575909D01*
X17840807Y5573674D01*
X17836388Y5572302D01*
X17827802Y5568899D01*
X17819573Y5564784D01*
X17811699Y5559907D01*
X17804333Y5554421D01*
X17797475Y5548274D01*
X17791176Y5541518D01*
X17785486Y5534253D01*
X17780457Y5526481D01*
X17776139Y5518353D01*
X17772583Y5509869D01*
X17769738Y5501081D01*
X17767706Y5492038D01*
X17766487Y5482894D01*
X17766080Y5473700D01*
X17766487Y5464505D01*
X17767706Y5455361D01*
X17769738Y5446318D01*
X17772583Y5437530D01*
X17776139Y5429046D01*
X17780457Y5420918D01*
X17785486Y5413146D01*
X17791176Y5405882D01*
X17797475Y5399125D01*
X17804333Y5392978D01*
X17811699Y5387492D01*
X17819573Y5382615D01*
X17827802Y5378500D01*
X17836388Y5375097D01*
X17845227Y5372506D01*
X17854269Y5370677D01*
X17863464Y5369661D01*
X17872659Y5369458D01*
X17881904Y5370068D01*
X17890998Y5371490D01*
X17899938Y5373725D01*
X17904358Y5375097D01*
X17912943Y5378500D01*
X17921173Y5382615D01*
X17929047Y5387492D01*
X17936413Y5392978D01*
X17943271Y5399125D01*
X17949621Y5405882D01*
X17955260Y5413146D01*
X17960289Y5420918D01*
X17964607Y5429046D01*
X17968214Y5437530D01*
X17971008Y5446318D01*
X17973040Y5455361D01*
X17974259Y5464505D01*
X17974665Y5473700D01*
X17974259Y5482894D01*
X17973040Y5492038D01*
X17971008Y5501081D01*
X17968214Y5509869D01*
X17964607Y5518353D01*
X17960289Y5526481D01*
X17955260Y5534253D01*
X17949621Y5541518D01*
X17943271Y5548274D01*
X17936413Y5554421D01*
X17929047Y5559907D01*
X17921173Y5564784D01*
X17912943Y5568899D01*
X17904358Y5572302D01*
X17895519Y5574893D01*
X17886476Y5576722D01*
X17877282Y5577738D01*
G37*
G36*
X38069774Y6517741D02*
G01*
X38060579Y6517131D01*
X38051486Y6515709D01*
X38042494Y6513474D01*
X38038125Y6512102D01*
X38029540Y6508699D01*
X38021260Y6504584D01*
X38013436Y6499707D01*
X38006020Y6494221D01*
X37999162Y6488074D01*
X37992862Y6481318D01*
X37987173Y6474053D01*
X37982144Y6466281D01*
X37977826Y6458153D01*
X37974270Y6449669D01*
X37972746Y6445300D01*
X37970358Y6436360D01*
X37968732Y6427317D01*
X37967920Y6418122D01*
X37967920Y6408877D01*
X37968732Y6399682D01*
X37970358Y6390640D01*
X37972746Y6381699D01*
X37975946Y6373063D01*
X37979908Y6364732D01*
X37984582Y6356756D01*
X37989967Y6349238D01*
X37995961Y6342227D01*
X38002514Y6335776D01*
X38009677Y6329934D01*
X38017297Y6324752D01*
X38025374Y6320282D01*
X38033807Y6316522D01*
X38038125Y6314897D01*
X38046964Y6312306D01*
X38056007Y6310477D01*
X38065151Y6309461D01*
X38074396Y6309258D01*
X38083591Y6309868D01*
X38092735Y6311290D01*
X38101676Y6313525D01*
X38110414Y6316522D01*
X38118796Y6320282D01*
X38126873Y6324752D01*
X38134493Y6329934D01*
X38141656Y6335776D01*
X38148209Y6342227D01*
X38154254Y6349238D01*
X38159588Y6356756D01*
X38164262Y6364732D01*
X38168224Y6373063D01*
X38171424Y6381699D01*
X38173812Y6390640D01*
X38175438Y6399682D01*
X38176250Y6408877D01*
X38176250Y6418122D01*
X38175438Y6427317D01*
X38173812Y6436360D01*
X38171424Y6445300D01*
X38168224Y6453936D01*
X38164262Y6462268D01*
X38159588Y6470243D01*
X38154254Y6477762D01*
X38148209Y6484772D01*
X38141656Y6491224D01*
X38134493Y6497066D01*
X38126873Y6502247D01*
X38118796Y6506718D01*
X38110414Y6510477D01*
X38101676Y6513474D01*
X38092735Y6515709D01*
X38083591Y6517131D01*
X38074396Y6517741D01*
G37*
G36*
X38069774Y7432141D02*
G01*
X38060579Y7431531D01*
X38051486Y7430109D01*
X38042494Y7427874D01*
X38038125Y7426502D01*
X38029540Y7423099D01*
X38021260Y7418984D01*
X38013436Y7414107D01*
X38006020Y7408621D01*
X37999162Y7402474D01*
X37992862Y7395718D01*
X37987173Y7388453D01*
X37982144Y7380681D01*
X37977826Y7372553D01*
X37974270Y7364069D01*
X37972746Y7359700D01*
X37970358Y7350759D01*
X37968732Y7341717D01*
X37967920Y7332522D01*
X37967920Y7323277D01*
X37968732Y7314082D01*
X37970358Y7305040D01*
X37972746Y7296099D01*
X37975946Y7287463D01*
X37979908Y7279131D01*
X37984582Y7271156D01*
X37989967Y7263638D01*
X37995961Y7256627D01*
X38002514Y7250175D01*
X38009677Y7244334D01*
X38017297Y7239152D01*
X38025374Y7234681D01*
X38033807Y7230922D01*
X38038125Y7229297D01*
X38046964Y7226706D01*
X38056007Y7224877D01*
X38065151Y7223861D01*
X38074396Y7223658D01*
X38083591Y7224268D01*
X38092735Y7225690D01*
X38101676Y7227925D01*
X38110414Y7230922D01*
X38118796Y7234681D01*
X38126873Y7239152D01*
X38134493Y7244334D01*
X38141656Y7250175D01*
X38148209Y7256627D01*
X38154254Y7263638D01*
X38159588Y7271156D01*
X38164262Y7279131D01*
X38168224Y7287463D01*
X38171424Y7296099D01*
X38173812Y7305040D01*
X38175438Y7314082D01*
X38176250Y7323277D01*
X38176250Y7332522D01*
X38175438Y7341717D01*
X38173812Y7350759D01*
X38171424Y7359700D01*
X38168224Y7368336D01*
X38164262Y7376668D01*
X38159588Y7384643D01*
X38154254Y7392162D01*
X38148209Y7399172D01*
X38141656Y7405624D01*
X38134493Y7411466D01*
X38126873Y7416647D01*
X38118796Y7421118D01*
X38110414Y7424877D01*
X38101676Y7427874D01*
X38092735Y7430109D01*
X38083591Y7431531D01*
X38074396Y7432141D01*
G37*
G36*
X38069774Y5577941D02*
G01*
X38060579Y5577332D01*
X38051486Y5575909D01*
X38042494Y5573674D01*
X38038125Y5572302D01*
X38029540Y5568899D01*
X38021260Y5564784D01*
X38013436Y5559907D01*
X38006020Y5554421D01*
X37999162Y5548274D01*
X37992862Y5541518D01*
X37987173Y5534253D01*
X37982144Y5526481D01*
X37977826Y5518353D01*
X37974270Y5509869D01*
X37972746Y5505500D01*
X37970358Y5496560D01*
X37968732Y5487517D01*
X37967920Y5478322D01*
X37967920Y5469077D01*
X37968732Y5459882D01*
X37970358Y5450840D01*
X37972746Y5441899D01*
X37975946Y5433263D01*
X37979908Y5424932D01*
X37984582Y5416956D01*
X37989967Y5409438D01*
X37995961Y5402427D01*
X38002514Y5395976D01*
X38009677Y5390134D01*
X38017297Y5384952D01*
X38025374Y5380482D01*
X38033807Y5376722D01*
X38038125Y5375097D01*
X38046964Y5372506D01*
X38056007Y5370677D01*
X38065151Y5369661D01*
X38074396Y5369458D01*
X38083591Y5370068D01*
X38092735Y5371490D01*
X38101676Y5373725D01*
X38110414Y5376722D01*
X38118796Y5380482D01*
X38126873Y5384952D01*
X38134493Y5390134D01*
X38141656Y5395976D01*
X38148209Y5402427D01*
X38154254Y5409438D01*
X38159588Y5416956D01*
X38164262Y5424932D01*
X38168224Y5433263D01*
X38171424Y5441899D01*
X38173812Y5450840D01*
X38175438Y5459882D01*
X38176250Y5469077D01*
X38176250Y5478322D01*
X38175438Y5487517D01*
X38173812Y5496560D01*
X38171424Y5505500D01*
X38168224Y5514136D01*
X38164262Y5522468D01*
X38159588Y5530443D01*
X38154254Y5537962D01*
X38148209Y5544972D01*
X38141656Y5551424D01*
X38134493Y5557266D01*
X38126873Y5562447D01*
X38118796Y5566918D01*
X38110414Y5570677D01*
X38101676Y5573674D01*
X38092735Y5575909D01*
X38083591Y5577332D01*
X38074396Y5577941D01*
G37*
G36*
X26540206Y6517741D02*
G01*
X26530960Y6517131D01*
X26521867Y6515709D01*
X26512926Y6513474D01*
X26508506Y6512102D01*
X26499921Y6508699D01*
X26491692Y6504584D01*
X26483818Y6499707D01*
X26476452Y6494221D01*
X26469594Y6488074D01*
X26463294Y6481318D01*
X26457605Y6474053D01*
X26452576Y6466281D01*
X26448258Y6458153D01*
X26444702Y6449669D01*
X26441857Y6440881D01*
X26439825Y6431838D01*
X26438606Y6422694D01*
X26438199Y6413500D01*
X26438606Y6404305D01*
X26439825Y6395161D01*
X26441857Y6386118D01*
X26444702Y6377330D01*
X26448258Y6368846D01*
X26452576Y6360718D01*
X26457605Y6352946D01*
X26463294Y6345682D01*
X26469594Y6338925D01*
X26476452Y6332778D01*
X26483818Y6327292D01*
X26491692Y6322415D01*
X26499921Y6318300D01*
X26508506Y6314897D01*
X26517346Y6312306D01*
X26526388Y6310477D01*
X26535583Y6309461D01*
X26544777Y6309258D01*
X26554023Y6309868D01*
X26563116Y6311290D01*
X26572057Y6313525D01*
X26576477Y6314897D01*
X26585062Y6318300D01*
X26593292Y6322415D01*
X26601165Y6327292D01*
X26608532Y6332778D01*
X26615389Y6338925D01*
X26621739Y6345682D01*
X26627378Y6352946D01*
X26632408Y6360718D01*
X26636726Y6368846D01*
X26640332Y6377330D01*
X26643126Y6386118D01*
X26645158Y6395161D01*
X26646377Y6404305D01*
X26646784Y6413500D01*
X26646377Y6422694D01*
X26645158Y6431838D01*
X26643126Y6440881D01*
X26640332Y6449669D01*
X26636726Y6458153D01*
X26632408Y6466281D01*
X26627378Y6474053D01*
X26621739Y6481318D01*
X26615389Y6488074D01*
X26608532Y6494221D01*
X26601165Y6499707D01*
X26593292Y6504584D01*
X26585062Y6508699D01*
X26576477Y6512102D01*
X26567638Y6514693D01*
X26558595Y6516522D01*
X26549400Y6517538D01*
G37*
G36*
X26540206Y7432141D02*
G01*
X26530960Y7431531D01*
X26521867Y7430109D01*
X26512926Y7427874D01*
X26508506Y7426502D01*
X26499921Y7423099D01*
X26491692Y7418984D01*
X26483818Y7414107D01*
X26476452Y7408621D01*
X26469594Y7402474D01*
X26463294Y7395718D01*
X26457605Y7388453D01*
X26452576Y7380681D01*
X26448258Y7372553D01*
X26444702Y7364069D01*
X26441857Y7355281D01*
X26439825Y7346238D01*
X26438606Y7337094D01*
X26438199Y7327900D01*
X26438606Y7318705D01*
X26439825Y7309561D01*
X26441857Y7300518D01*
X26444702Y7291730D01*
X26448258Y7283246D01*
X26452576Y7275118D01*
X26457605Y7267346D01*
X26463294Y7260081D01*
X26469594Y7253325D01*
X26476452Y7247178D01*
X26483818Y7241692D01*
X26491692Y7236815D01*
X26499921Y7232700D01*
X26508506Y7229297D01*
X26517346Y7226706D01*
X26526388Y7224877D01*
X26535583Y7223861D01*
X26544777Y7223658D01*
X26554023Y7224268D01*
X26563116Y7225690D01*
X26572057Y7227925D01*
X26576477Y7229297D01*
X26585062Y7232700D01*
X26593292Y7236815D01*
X26601165Y7241692D01*
X26608532Y7247178D01*
X26615389Y7253325D01*
X26621739Y7260081D01*
X26627378Y7267346D01*
X26632408Y7275118D01*
X26636726Y7283246D01*
X26640332Y7291730D01*
X26643126Y7300518D01*
X26645158Y7309561D01*
X26646377Y7318705D01*
X26646784Y7327900D01*
X26646377Y7337094D01*
X26645158Y7346238D01*
X26643126Y7355281D01*
X26640332Y7364069D01*
X26636726Y7372553D01*
X26632408Y7380681D01*
X26627378Y7388453D01*
X26621739Y7395718D01*
X26615389Y7402474D01*
X26608532Y7408621D01*
X26601165Y7414107D01*
X26593292Y7418984D01*
X26585062Y7423099D01*
X26576477Y7426502D01*
X26567638Y7429093D01*
X26558595Y7430922D01*
X26549400Y7431938D01*
G37*
G36*
X26540206Y5577941D02*
G01*
X26530960Y5577332D01*
X26521867Y5575909D01*
X26512926Y5573674D01*
X26508506Y5572302D01*
X26499921Y5568899D01*
X26491692Y5564784D01*
X26483818Y5559907D01*
X26476452Y5554421D01*
X26469594Y5548274D01*
X26463294Y5541518D01*
X26457605Y5534253D01*
X26452576Y5526481D01*
X26448258Y5518353D01*
X26444702Y5509869D01*
X26441857Y5501081D01*
X26439825Y5492038D01*
X26438606Y5482894D01*
X26438199Y5473700D01*
X26438606Y5464505D01*
X26439825Y5455361D01*
X26441857Y5446318D01*
X26444702Y5437530D01*
X26448258Y5429046D01*
X26452576Y5420918D01*
X26457605Y5413146D01*
X26463294Y5405882D01*
X26469594Y5399125D01*
X26476452Y5392978D01*
X26483818Y5387492D01*
X26491692Y5382615D01*
X26499921Y5378500D01*
X26508506Y5375097D01*
X26517346Y5372506D01*
X26526388Y5370677D01*
X26535583Y5369661D01*
X26544777Y5369458D01*
X26554023Y5370068D01*
X26563116Y5371490D01*
X26572057Y5373725D01*
X26576477Y5375097D01*
X26585062Y5378500D01*
X26593292Y5382615D01*
X26601165Y5387492D01*
X26608532Y5392978D01*
X26615389Y5399125D01*
X26621739Y5405882D01*
X26627378Y5413146D01*
X26632408Y5420918D01*
X26636726Y5429046D01*
X26640332Y5437530D01*
X26643126Y5446318D01*
X26645158Y5455361D01*
X26646377Y5464505D01*
X26646784Y5473700D01*
X26646377Y5482894D01*
X26645158Y5492038D01*
X26643126Y5501081D01*
X26640332Y5509869D01*
X26636726Y5518353D01*
X26632408Y5526481D01*
X26627378Y5534253D01*
X26621739Y5541518D01*
X26615389Y5548274D01*
X26608532Y5554421D01*
X26601165Y5559907D01*
X26593292Y5564784D01*
X26585062Y5568899D01*
X26576477Y5572302D01*
X26567638Y5574893D01*
X26558595Y5576722D01*
X26549400Y5577738D01*
G37*
G36*
X22696982Y6517741D02*
G01*
X22687737Y6517131D01*
X22678644Y6515709D01*
X22669703Y6513474D01*
X22665283Y6512102D01*
X22656698Y6508699D01*
X22648468Y6504584D01*
X22640594Y6499707D01*
X22633228Y6494221D01*
X22626370Y6488074D01*
X22620071Y6481318D01*
X22614382Y6474053D01*
X22609352Y6466281D01*
X22605034Y6458153D01*
X22601478Y6449669D01*
X22598634Y6440881D01*
X22596602Y6431838D01*
X22595382Y6422694D01*
X22594976Y6413500D01*
X22595382Y6404305D01*
X22596602Y6395161D01*
X22598634Y6386118D01*
X22601478Y6377330D01*
X22605034Y6368846D01*
X22609352Y6360718D01*
X22614382Y6352946D01*
X22620071Y6345682D01*
X22626370Y6338925D01*
X22633228Y6332778D01*
X22640594Y6327292D01*
X22648468Y6322415D01*
X22656698Y6318300D01*
X22665283Y6314897D01*
X22674122Y6312306D01*
X22683165Y6310477D01*
X22692360Y6309461D01*
X22701554Y6309258D01*
X22710800Y6309868D01*
X22719893Y6311290D01*
X22728834Y6313525D01*
X22733254Y6314897D01*
X22741839Y6318300D01*
X22750068Y6322415D01*
X22757942Y6327292D01*
X22765308Y6332778D01*
X22772166Y6338925D01*
X22778516Y6345682D01*
X22784155Y6352946D01*
X22789184Y6360718D01*
X22793502Y6368846D01*
X22797109Y6377330D01*
X22799903Y6386118D01*
X22801935Y6395161D01*
X22803154Y6404305D01*
X22803561Y6413500D01*
X22803154Y6422694D01*
X22801935Y6431838D01*
X22799903Y6440881D01*
X22797109Y6449669D01*
X22793502Y6458153D01*
X22789184Y6466281D01*
X22784155Y6474053D01*
X22778516Y6481318D01*
X22772166Y6488074D01*
X22765308Y6494221D01*
X22757942Y6499707D01*
X22750068Y6504584D01*
X22741839Y6508699D01*
X22733254Y6512102D01*
X22724414Y6514693D01*
X22715372Y6516522D01*
X22706177Y6517538D01*
G37*
G36*
X22696982Y7432141D02*
G01*
X22687737Y7431531D01*
X22678644Y7430109D01*
X22669703Y7427874D01*
X22665283Y7426502D01*
X22656698Y7423099D01*
X22648468Y7418984D01*
X22640594Y7414107D01*
X22633228Y7408621D01*
X22626370Y7402474D01*
X22620071Y7395718D01*
X22614382Y7388453D01*
X22609352Y7380681D01*
X22605034Y7372553D01*
X22601478Y7364069D01*
X22598634Y7355281D01*
X22596602Y7346238D01*
X22595382Y7337094D01*
X22594976Y7327900D01*
X22595382Y7318705D01*
X22596602Y7309561D01*
X22598634Y7300518D01*
X22601478Y7291730D01*
X22605034Y7283246D01*
X22609352Y7275118D01*
X22614382Y7267346D01*
X22620071Y7260081D01*
X22626370Y7253325D01*
X22633228Y7247178D01*
X22640594Y7241692D01*
X22648468Y7236815D01*
X22656698Y7232700D01*
X22665283Y7229297D01*
X22674122Y7226706D01*
X22683165Y7224877D01*
X22692360Y7223861D01*
X22701554Y7223658D01*
X22710800Y7224268D01*
X22719893Y7225690D01*
X22728834Y7227925D01*
X22733254Y7229297D01*
X22741839Y7232700D01*
X22750068Y7236815D01*
X22757942Y7241692D01*
X22765308Y7247178D01*
X22772166Y7253325D01*
X22778516Y7260081D01*
X22784155Y7267346D01*
X22789184Y7275118D01*
X22793502Y7283246D01*
X22797109Y7291730D01*
X22799903Y7300518D01*
X22801935Y7309561D01*
X22803154Y7318705D01*
X22803561Y7327900D01*
X22803154Y7337094D01*
X22801935Y7346238D01*
X22799903Y7355281D01*
X22797109Y7364069D01*
X22793502Y7372553D01*
X22789184Y7380681D01*
X22784155Y7388453D01*
X22778516Y7395718D01*
X22772166Y7402474D01*
X22765308Y7408621D01*
X22757942Y7414107D01*
X22750068Y7418984D01*
X22741839Y7423099D01*
X22733254Y7426502D01*
X22724414Y7429093D01*
X22715372Y7430922D01*
X22706177Y7431938D01*
G37*
G36*
X22696982Y5577941D02*
G01*
X22687737Y5577332D01*
X22678644Y5575909D01*
X22669703Y5573674D01*
X22665283Y5572302D01*
X22656698Y5568899D01*
X22648468Y5564784D01*
X22640594Y5559907D01*
X22633228Y5554421D01*
X22626370Y5548274D01*
X22620071Y5541518D01*
X22614382Y5534253D01*
X22609352Y5526481D01*
X22605034Y5518353D01*
X22601478Y5509869D01*
X22598634Y5501081D01*
X22596602Y5492038D01*
X22595382Y5482894D01*
X22594976Y5473700D01*
X22595382Y5464505D01*
X22596602Y5455361D01*
X22598634Y5446318D01*
X22601478Y5437530D01*
X22605034Y5429046D01*
X22609352Y5420918D01*
X22614382Y5413146D01*
X22620071Y5405882D01*
X22626370Y5399125D01*
X22633228Y5392978D01*
X22640594Y5387492D01*
X22648468Y5382615D01*
X22656698Y5378500D01*
X22665283Y5375097D01*
X22674122Y5372506D01*
X22683165Y5370677D01*
X22692360Y5369661D01*
X22701554Y5369458D01*
X22710800Y5370068D01*
X22719893Y5371490D01*
X22728834Y5373725D01*
X22733254Y5375097D01*
X22741839Y5378500D01*
X22750068Y5382615D01*
X22757942Y5387492D01*
X22765308Y5392978D01*
X22772166Y5399125D01*
X22778516Y5405882D01*
X22784155Y5413146D01*
X22789184Y5420918D01*
X22793502Y5429046D01*
X22797109Y5437530D01*
X22799903Y5446318D01*
X22801935Y5455361D01*
X22803154Y5464505D01*
X22803561Y5473700D01*
X22803154Y5482894D01*
X22801935Y5492038D01*
X22799903Y5501081D01*
X22797109Y5509869D01*
X22793502Y5518353D01*
X22789184Y5526481D01*
X22784155Y5534253D01*
X22778516Y5541518D01*
X22772166Y5548274D01*
X22765308Y5554421D01*
X22757942Y5559907D01*
X22750068Y5564784D01*
X22741839Y5568899D01*
X22733254Y5572302D01*
X22724414Y5574893D01*
X22715372Y5576722D01*
X22706177Y5577738D01*
G37*
G36*
X39499997Y5577941D02*
G01*
X39490751Y5577332D01*
X39481658Y5575909D01*
X39472717Y5573674D01*
X39468298Y5572302D01*
X39459712Y5568899D01*
X39451483Y5564784D01*
X39443609Y5559907D01*
X39436243Y5554421D01*
X39429385Y5548274D01*
X39423086Y5541518D01*
X39417396Y5534253D01*
X39412367Y5526481D01*
X39408049Y5518353D01*
X39404493Y5509869D01*
X39401648Y5501081D01*
X39399616Y5492038D01*
X39398397Y5482894D01*
X39397990Y5473700D01*
X39398397Y5464505D01*
X39399616Y5455361D01*
X39401648Y5446318D01*
X39404493Y5437530D01*
X39408049Y5429046D01*
X39412367Y5420918D01*
X39417396Y5413146D01*
X39423086Y5405882D01*
X39429385Y5399125D01*
X39436243Y5392978D01*
X39443609Y5387492D01*
X39451483Y5382615D01*
X39459712Y5378500D01*
X39468298Y5375097D01*
X39477137Y5372506D01*
X39486179Y5370677D01*
X39495374Y5369661D01*
X39504569Y5369458D01*
X39513814Y5370068D01*
X39522908Y5371490D01*
X39531848Y5373725D01*
X39536268Y5375097D01*
X39544853Y5378500D01*
X39553083Y5382615D01*
X39560957Y5387492D01*
X39568323Y5392978D01*
X39575181Y5399125D01*
X39581531Y5405882D01*
X39587170Y5413146D01*
X39592199Y5420918D01*
X39596517Y5429046D01*
X39600124Y5437530D01*
X39602918Y5446318D01*
X39604950Y5455361D01*
X39606169Y5464505D01*
X39606575Y5473700D01*
X39606169Y5482894D01*
X39604950Y5492038D01*
X39602918Y5501081D01*
X39600124Y5509869D01*
X39596517Y5518353D01*
X39592199Y5526481D01*
X39587170Y5534253D01*
X39581531Y5541518D01*
X39575181Y5548274D01*
X39568323Y5554421D01*
X39560957Y5559907D01*
X39553083Y5564784D01*
X39544853Y5568899D01*
X39536268Y5572302D01*
X39527429Y5574893D01*
X39518386Y5576722D01*
X39509192Y5577738D01*
G37*
G36*
X39499997Y7432141D02*
G01*
X39490751Y7431531D01*
X39481658Y7430109D01*
X39472717Y7427874D01*
X39468298Y7426502D01*
X39459712Y7423099D01*
X39451483Y7418984D01*
X39443609Y7414107D01*
X39436243Y7408621D01*
X39429385Y7402474D01*
X39423086Y7395718D01*
X39417396Y7388453D01*
X39412367Y7380681D01*
X39408049Y7372553D01*
X39404493Y7364069D01*
X39401648Y7355281D01*
X39399616Y7346238D01*
X39398397Y7337094D01*
X39397990Y7327900D01*
X39398397Y7318705D01*
X39399616Y7309561D01*
X39401648Y7300518D01*
X39404493Y7291730D01*
X39408049Y7283246D01*
X39412367Y7275118D01*
X39417396Y7267346D01*
X39423086Y7260081D01*
X39429385Y7253325D01*
X39436243Y7247178D01*
X39443609Y7241692D01*
X39451483Y7236815D01*
X39459712Y7232700D01*
X39468298Y7229297D01*
X39477137Y7226706D01*
X39486179Y7224877D01*
X39495374Y7223861D01*
X39504569Y7223658D01*
X39513814Y7224268D01*
X39522908Y7225690D01*
X39531848Y7227925D01*
X39536268Y7229297D01*
X39544853Y7232700D01*
X39553083Y7236815D01*
X39560957Y7241692D01*
X39568323Y7247178D01*
X39575181Y7253325D01*
X39581531Y7260081D01*
X39587170Y7267346D01*
X39592199Y7275118D01*
X39596517Y7283246D01*
X39600124Y7291730D01*
X39602918Y7300518D01*
X39604950Y7309561D01*
X39606169Y7318705D01*
X39606575Y7327900D01*
X39606169Y7337094D01*
X39604950Y7346238D01*
X39602918Y7355281D01*
X39600124Y7364069D01*
X39596517Y7372553D01*
X39592199Y7380681D01*
X39587170Y7388453D01*
X39581531Y7395718D01*
X39575181Y7402474D01*
X39568323Y7408621D01*
X39560957Y7414107D01*
X39553083Y7418984D01*
X39544853Y7423099D01*
X39536268Y7426502D01*
X39527429Y7429093D01*
X39518386Y7430922D01*
X39509192Y7431938D01*
G37*
G36*
X39499997Y6505041D02*
G01*
X39490751Y6504431D01*
X39481658Y6503009D01*
X39472717Y6500774D01*
X39468298Y6499402D01*
X39459712Y6495999D01*
X39451483Y6491884D01*
X39443609Y6487007D01*
X39436243Y6481521D01*
X39429385Y6475374D01*
X39423086Y6468618D01*
X39417396Y6461353D01*
X39412367Y6453581D01*
X39408049Y6445453D01*
X39404493Y6436969D01*
X39401648Y6428181D01*
X39399616Y6419138D01*
X39398397Y6409994D01*
X39397990Y6400800D01*
X39398397Y6391605D01*
X39399616Y6382461D01*
X39401648Y6373418D01*
X39404493Y6364630D01*
X39408049Y6356146D01*
X39412367Y6348018D01*
X39417396Y6340246D01*
X39423086Y6332982D01*
X39429385Y6326225D01*
X39436243Y6320078D01*
X39443609Y6314592D01*
X39451483Y6309715D01*
X39459712Y6305600D01*
X39468298Y6302197D01*
X39477137Y6299606D01*
X39486179Y6297777D01*
X39495374Y6296761D01*
X39504569Y6296558D01*
X39513814Y6297168D01*
X39522908Y6298590D01*
X39531848Y6300825D01*
X39536268Y6302197D01*
X39544853Y6305600D01*
X39553083Y6309715D01*
X39560957Y6314592D01*
X39568323Y6320078D01*
X39575181Y6326225D01*
X39581531Y6332982D01*
X39587170Y6340246D01*
X39592199Y6348018D01*
X39596517Y6356146D01*
X39600124Y6364630D01*
X39602918Y6373418D01*
X39604950Y6382461D01*
X39606169Y6391605D01*
X39606575Y6400800D01*
X39606169Y6409994D01*
X39604950Y6419138D01*
X39602918Y6428181D01*
X39600124Y6436969D01*
X39596517Y6445453D01*
X39592199Y6453581D01*
X39587170Y6461353D01*
X39581531Y6468618D01*
X39575181Y6475374D01*
X39568323Y6481521D01*
X39560957Y6487007D01*
X39553083Y6491884D01*
X39544853Y6495999D01*
X39536268Y6499402D01*
X39527429Y6501993D01*
X39518386Y6503822D01*
X39509192Y6504838D01*
G37*
G36*
X35656774Y5577941D02*
G01*
X35647579Y5577332D01*
X35638486Y5575909D01*
X35629494Y5573674D01*
X35625125Y5572302D01*
X35616540Y5568899D01*
X35608260Y5564784D01*
X35600436Y5559907D01*
X35593020Y5554421D01*
X35586162Y5548274D01*
X35579862Y5541518D01*
X35574173Y5534253D01*
X35569144Y5526481D01*
X35564826Y5518353D01*
X35561270Y5509869D01*
X35559746Y5505500D01*
X35557358Y5496560D01*
X35555732Y5487517D01*
X35554920Y5478322D01*
X35554920Y5469077D01*
X35555732Y5459882D01*
X35557358Y5450840D01*
X35559746Y5441899D01*
X35562946Y5433263D01*
X35566908Y5424932D01*
X35571582Y5416956D01*
X35576967Y5409438D01*
X35582961Y5402427D01*
X35589514Y5395976D01*
X35596677Y5390134D01*
X35604297Y5384952D01*
X35612374Y5380482D01*
X35620807Y5376722D01*
X35625125Y5375097D01*
X35633964Y5372506D01*
X35643007Y5370677D01*
X35652151Y5369661D01*
X35661396Y5369458D01*
X35670591Y5370068D01*
X35679735Y5371490D01*
X35688676Y5373725D01*
X35697414Y5376722D01*
X35705796Y5380482D01*
X35713873Y5384952D01*
X35721493Y5390134D01*
X35728656Y5395976D01*
X35735209Y5402427D01*
X35741254Y5409438D01*
X35746588Y5416956D01*
X35751262Y5424932D01*
X35755224Y5433263D01*
X35758424Y5441899D01*
X35760812Y5450840D01*
X35762438Y5459882D01*
X35763250Y5469077D01*
X35763250Y5478322D01*
X35762438Y5487517D01*
X35760812Y5496560D01*
X35758424Y5505500D01*
X35755224Y5514136D01*
X35751262Y5522468D01*
X35746588Y5530443D01*
X35741254Y5537962D01*
X35735209Y5544972D01*
X35728656Y5551424D01*
X35721493Y5557266D01*
X35713873Y5562447D01*
X35705796Y5566918D01*
X35697414Y5570677D01*
X35688676Y5573674D01*
X35679735Y5575909D01*
X35670591Y5577332D01*
X35661396Y5577941D01*
G37*
G36*
X35656774Y7432141D02*
G01*
X35647579Y7431531D01*
X35638486Y7430109D01*
X35629494Y7427874D01*
X35625125Y7426502D01*
X35616540Y7423099D01*
X35608260Y7418984D01*
X35600436Y7414107D01*
X35593020Y7408621D01*
X35586162Y7402474D01*
X35579862Y7395718D01*
X35574173Y7388453D01*
X35569144Y7380681D01*
X35564826Y7372553D01*
X35561270Y7364069D01*
X35559746Y7359700D01*
X35557358Y7350759D01*
X35555732Y7341717D01*
X35554920Y7332522D01*
X35554920Y7323277D01*
X35555732Y7314082D01*
X35557358Y7305040D01*
X35559746Y7296099D01*
X35562946Y7287463D01*
X35566908Y7279131D01*
X35571582Y7271156D01*
X35576967Y7263638D01*
X35582961Y7256627D01*
X35589514Y7250175D01*
X35596677Y7244334D01*
X35604297Y7239152D01*
X35612374Y7234681D01*
X35620807Y7230922D01*
X35625125Y7229297D01*
X35633964Y7226706D01*
X35643007Y7224877D01*
X35652151Y7223861D01*
X35661396Y7223658D01*
X35670591Y7224268D01*
X35679735Y7225690D01*
X35688676Y7227925D01*
X35697414Y7230922D01*
X35705796Y7234681D01*
X35713873Y7239152D01*
X35721493Y7244334D01*
X35728656Y7250175D01*
X35735209Y7256627D01*
X35741254Y7263638D01*
X35746588Y7271156D01*
X35751262Y7279131D01*
X35755224Y7287463D01*
X35758424Y7296099D01*
X35760812Y7305040D01*
X35762438Y7314082D01*
X35763250Y7323277D01*
X35763250Y7332522D01*
X35762438Y7341717D01*
X35760812Y7350759D01*
X35758424Y7359700D01*
X35755224Y7368336D01*
X35751262Y7376668D01*
X35746588Y7384643D01*
X35741254Y7392162D01*
X35735209Y7399172D01*
X35728656Y7405624D01*
X35721493Y7411466D01*
X35713873Y7416647D01*
X35705796Y7421118D01*
X35697414Y7424877D01*
X35688676Y7427874D01*
X35679735Y7430109D01*
X35670591Y7431531D01*
X35661396Y7432141D01*
G37*
G36*
X35656774Y6505041D02*
G01*
X35647579Y6504431D01*
X35638486Y6503009D01*
X35629494Y6500774D01*
X35625125Y6499402D01*
X35616540Y6495999D01*
X35608260Y6491884D01*
X35600436Y6487007D01*
X35593020Y6481521D01*
X35586162Y6475374D01*
X35579862Y6468618D01*
X35574173Y6461353D01*
X35569144Y6453581D01*
X35564826Y6445453D01*
X35561270Y6436969D01*
X35559746Y6432600D01*
X35557358Y6423660D01*
X35555732Y6414617D01*
X35554920Y6405422D01*
X35554920Y6396177D01*
X35555732Y6386982D01*
X35557358Y6377940D01*
X35559746Y6368999D01*
X35562946Y6360363D01*
X35566908Y6352032D01*
X35571582Y6344056D01*
X35576967Y6336538D01*
X35582961Y6329527D01*
X35589514Y6323076D01*
X35596677Y6317234D01*
X35604297Y6312052D01*
X35612374Y6307582D01*
X35620807Y6303822D01*
X35625125Y6302197D01*
X35633964Y6299606D01*
X35643007Y6297777D01*
X35652151Y6296761D01*
X35661396Y6296558D01*
X35670591Y6297168D01*
X35679735Y6298590D01*
X35688676Y6300825D01*
X35697414Y6303822D01*
X35705796Y6307582D01*
X35713873Y6312052D01*
X35721493Y6317234D01*
X35728656Y6323076D01*
X35735209Y6329527D01*
X35741254Y6336538D01*
X35746588Y6344056D01*
X35751262Y6352032D01*
X35755224Y6360363D01*
X35758424Y6368999D01*
X35760812Y6377940D01*
X35762438Y6386982D01*
X35763250Y6396177D01*
X35763250Y6405422D01*
X35762438Y6414617D01*
X35760812Y6423660D01*
X35758424Y6432600D01*
X35755224Y6441236D01*
X35751262Y6449568D01*
X35746588Y6457543D01*
X35741254Y6465062D01*
X35735209Y6472072D01*
X35728656Y6478524D01*
X35721493Y6484366D01*
X35713873Y6489547D01*
X35705796Y6494018D01*
X35697414Y6497777D01*
X35688676Y6500774D01*
X35679735Y6503009D01*
X35670591Y6504431D01*
X35661396Y6505041D01*
G37*
G36*
X27970378Y5577941D02*
G01*
X27961183Y5577332D01*
X27952090Y5575909D01*
X27943098Y5573674D01*
X27938730Y5572302D01*
X27930144Y5568899D01*
X27921864Y5564784D01*
X27914041Y5559907D01*
X27906624Y5554421D01*
X27899766Y5548274D01*
X27893467Y5541518D01*
X27887777Y5534253D01*
X27882748Y5526481D01*
X27878430Y5518353D01*
X27874874Y5509869D01*
X27873350Y5505500D01*
X27870962Y5496560D01*
X27869337Y5487517D01*
X27868524Y5478322D01*
X27868524Y5469077D01*
X27869337Y5459882D01*
X27870962Y5450840D01*
X27873350Y5441899D01*
X27876550Y5433263D01*
X27880513Y5424932D01*
X27885186Y5416956D01*
X27890571Y5409438D01*
X27896565Y5402427D01*
X27903119Y5395976D01*
X27910282Y5390134D01*
X27917902Y5384952D01*
X27925979Y5380482D01*
X27934412Y5376722D01*
X27938730Y5375097D01*
X27947569Y5372506D01*
X27956611Y5370677D01*
X27965755Y5369661D01*
X27975001Y5369458D01*
X27984196Y5370068D01*
X27993339Y5371490D01*
X28002280Y5373725D01*
X28011018Y5376722D01*
X28019400Y5380482D01*
X28027477Y5384952D01*
X28035097Y5390134D01*
X28042260Y5395976D01*
X28048813Y5402427D01*
X28054858Y5409438D01*
X28060192Y5416956D01*
X28064866Y5424932D01*
X28068828Y5433263D01*
X28072029Y5441899D01*
X28074416Y5450840D01*
X28076042Y5459882D01*
X28076855Y5469077D01*
X28076855Y5478322D01*
X28076042Y5487517D01*
X28074416Y5496560D01*
X28072029Y5505500D01*
X28068828Y5514136D01*
X28064866Y5522468D01*
X28060192Y5530443D01*
X28054858Y5537962D01*
X28048813Y5544972D01*
X28042260Y5551424D01*
X28035097Y5557266D01*
X28027477Y5562447D01*
X28019400Y5566918D01*
X28011018Y5570677D01*
X28002280Y5573674D01*
X27993339Y5575909D01*
X27984196Y5577332D01*
X27975001Y5577941D01*
G37*
G36*
X27970378Y7432141D02*
G01*
X27961183Y7431531D01*
X27952090Y7430109D01*
X27943098Y7427874D01*
X27938730Y7426502D01*
X27930144Y7423099D01*
X27921864Y7418984D01*
X27914041Y7414107D01*
X27906624Y7408621D01*
X27899766Y7402474D01*
X27893467Y7395718D01*
X27887777Y7388453D01*
X27882748Y7380681D01*
X27878430Y7372553D01*
X27874874Y7364069D01*
X27873350Y7359700D01*
X27870962Y7350759D01*
X27869337Y7341717D01*
X27868524Y7332522D01*
X27868524Y7323277D01*
X27869337Y7314082D01*
X27870962Y7305040D01*
X27873350Y7296099D01*
X27876550Y7287463D01*
X27880513Y7279131D01*
X27885186Y7271156D01*
X27890571Y7263638D01*
X27896565Y7256627D01*
X27903119Y7250175D01*
X27910282Y7244334D01*
X27917902Y7239152D01*
X27925979Y7234681D01*
X27934412Y7230922D01*
X27938730Y7229297D01*
X27947569Y7226706D01*
X27956611Y7224877D01*
X27965755Y7223861D01*
X27975001Y7223658D01*
X27984196Y7224268D01*
X27993339Y7225690D01*
X28002280Y7227925D01*
X28011018Y7230922D01*
X28019400Y7234681D01*
X28027477Y7239152D01*
X28035097Y7244334D01*
X28042260Y7250175D01*
X28048813Y7256627D01*
X28054858Y7263638D01*
X28060192Y7271156D01*
X28064866Y7279131D01*
X28068828Y7287463D01*
X28072029Y7296099D01*
X28074416Y7305040D01*
X28076042Y7314082D01*
X28076855Y7323277D01*
X28076855Y7332522D01*
X28076042Y7341717D01*
X28074416Y7350759D01*
X28072029Y7359700D01*
X28068828Y7368336D01*
X28064866Y7376668D01*
X28060192Y7384643D01*
X28054858Y7392162D01*
X28048813Y7399172D01*
X28042260Y7405624D01*
X28035097Y7411466D01*
X28027477Y7416647D01*
X28019400Y7421118D01*
X28011018Y7424877D01*
X28002280Y7427874D01*
X27993339Y7430109D01*
X27984196Y7431531D01*
X27975001Y7432141D01*
G37*
G36*
X27970378Y6505041D02*
G01*
X27961183Y6504431D01*
X27952090Y6503009D01*
X27943098Y6500774D01*
X27938730Y6499402D01*
X27930144Y6495999D01*
X27921864Y6491884D01*
X27914041Y6487007D01*
X27906624Y6481521D01*
X27899766Y6475374D01*
X27893467Y6468618D01*
X27887777Y6461353D01*
X27882748Y6453581D01*
X27878430Y6445453D01*
X27874874Y6436969D01*
X27873350Y6432600D01*
X27870962Y6423660D01*
X27869337Y6414617D01*
X27868524Y6405422D01*
X27868524Y6396177D01*
X27869337Y6386982D01*
X27870962Y6377940D01*
X27873350Y6368999D01*
X27876550Y6360363D01*
X27880513Y6352032D01*
X27885186Y6344056D01*
X27890571Y6336538D01*
X27896565Y6329527D01*
X27903119Y6323076D01*
X27910282Y6317234D01*
X27917902Y6312052D01*
X27925979Y6307582D01*
X27934412Y6303822D01*
X27938730Y6302197D01*
X27947569Y6299606D01*
X27956611Y6297777D01*
X27965755Y6296761D01*
X27975001Y6296558D01*
X27984196Y6297168D01*
X27993339Y6298590D01*
X28002280Y6300825D01*
X28011018Y6303822D01*
X28019400Y6307582D01*
X28027477Y6312052D01*
X28035097Y6317234D01*
X28042260Y6323076D01*
X28048813Y6329527D01*
X28054858Y6336538D01*
X28060192Y6344056D01*
X28064866Y6352032D01*
X28068828Y6360363D01*
X28072029Y6368999D01*
X28074416Y6377940D01*
X28076042Y6386982D01*
X28076855Y6396177D01*
X28076855Y6405422D01*
X28076042Y6414617D01*
X28074416Y6423660D01*
X28072029Y6432600D01*
X28068828Y6441236D01*
X28064866Y6449568D01*
X28060192Y6457543D01*
X28054858Y6465062D01*
X28048813Y6472072D01*
X28042260Y6478524D01*
X28035097Y6484366D01*
X28027477Y6489547D01*
X28019400Y6494018D01*
X28011018Y6497777D01*
X28002280Y6500774D01*
X27993339Y6503009D01*
X27984196Y6504431D01*
X27975001Y6505041D01*
G37*
G36*
X24127155Y5577941D02*
G01*
X24117960Y5577332D01*
X24108867Y5575909D01*
X24099875Y5573674D01*
X24095506Y5572302D01*
X24086921Y5568899D01*
X24078641Y5564784D01*
X24070818Y5559907D01*
X24063401Y5554421D01*
X24056543Y5548274D01*
X24050244Y5541518D01*
X24044554Y5534253D01*
X24039525Y5526481D01*
X24035207Y5518353D01*
X24031651Y5509869D01*
X24030127Y5505500D01*
X24027739Y5496560D01*
X24026114Y5487517D01*
X24025301Y5478322D01*
X24025301Y5469077D01*
X24026114Y5459882D01*
X24027739Y5450840D01*
X24030127Y5441899D01*
X24033327Y5433263D01*
X24037290Y5424932D01*
X24041963Y5416956D01*
X24047348Y5409438D01*
X24053342Y5402427D01*
X24059896Y5395976D01*
X24067058Y5390134D01*
X24074678Y5384952D01*
X24082756Y5380482D01*
X24091188Y5376722D01*
X24095506Y5375097D01*
X24104346Y5372506D01*
X24113388Y5370677D01*
X24122532Y5369661D01*
X24131778Y5369458D01*
X24140972Y5370068D01*
X24150116Y5371490D01*
X24159057Y5373725D01*
X24167795Y5376722D01*
X24176177Y5380482D01*
X24184254Y5384952D01*
X24191874Y5390134D01*
X24199037Y5395976D01*
X24205590Y5402427D01*
X24211635Y5409438D01*
X24216969Y5416956D01*
X24221643Y5424932D01*
X24225605Y5433263D01*
X24228806Y5441899D01*
X24231193Y5450840D01*
X24232819Y5459882D01*
X24233632Y5469077D01*
X24233632Y5478322D01*
X24232819Y5487517D01*
X24231193Y5496560D01*
X24228806Y5505500D01*
X24225605Y5514136D01*
X24221643Y5522468D01*
X24216969Y5530443D01*
X24211635Y5537962D01*
X24205590Y5544972D01*
X24199037Y5551424D01*
X24191874Y5557266D01*
X24184254Y5562447D01*
X24176177Y5566918D01*
X24167795Y5570677D01*
X24159057Y5573674D01*
X24150116Y5575909D01*
X24140972Y5577332D01*
X24131778Y5577941D01*
G37*
G36*
X24127155Y7432141D02*
G01*
X24117960Y7431531D01*
X24108867Y7430109D01*
X24099875Y7427874D01*
X24095506Y7426502D01*
X24086921Y7423099D01*
X24078641Y7418984D01*
X24070818Y7414107D01*
X24063401Y7408621D01*
X24056543Y7402474D01*
X24050244Y7395718D01*
X24044554Y7388453D01*
X24039525Y7380681D01*
X24035207Y7372553D01*
X24031651Y7364069D01*
X24030127Y7359700D01*
X24027739Y7350759D01*
X24026114Y7341717D01*
X24025301Y7332522D01*
X24025301Y7323277D01*
X24026114Y7314082D01*
X24027739Y7305040D01*
X24030127Y7296099D01*
X24033327Y7287463D01*
X24037290Y7279131D01*
X24041963Y7271156D01*
X24047348Y7263638D01*
X24053342Y7256627D01*
X24059896Y7250175D01*
X24067058Y7244334D01*
X24074678Y7239152D01*
X24082756Y7234681D01*
X24091188Y7230922D01*
X24095506Y7229297D01*
X24104346Y7226706D01*
X24113388Y7224877D01*
X24122532Y7223861D01*
X24131778Y7223658D01*
X24140972Y7224268D01*
X24150116Y7225690D01*
X24159057Y7227925D01*
X24167795Y7230922D01*
X24176177Y7234681D01*
X24184254Y7239152D01*
X24191874Y7244334D01*
X24199037Y7250175D01*
X24205590Y7256627D01*
X24211635Y7263638D01*
X24216969Y7271156D01*
X24221643Y7279131D01*
X24225605Y7287463D01*
X24228806Y7296099D01*
X24231193Y7305040D01*
X24232819Y7314082D01*
X24233632Y7323277D01*
X24233632Y7332522D01*
X24232819Y7341717D01*
X24231193Y7350759D01*
X24228806Y7359700D01*
X24225605Y7368336D01*
X24221643Y7376668D01*
X24216969Y7384643D01*
X24211635Y7392162D01*
X24205590Y7399172D01*
X24199037Y7405624D01*
X24191874Y7411466D01*
X24184254Y7416647D01*
X24176177Y7421118D01*
X24167795Y7424877D01*
X24159057Y7427874D01*
X24150116Y7430109D01*
X24140972Y7431531D01*
X24131778Y7432141D01*
G37*
G36*
X24127155Y6505041D02*
G01*
X24117960Y6504431D01*
X24108867Y6503009D01*
X24099875Y6500774D01*
X24095506Y6499402D01*
X24086921Y6495999D01*
X24078641Y6491884D01*
X24070818Y6487007D01*
X24063401Y6481521D01*
X24056543Y6475374D01*
X24050244Y6468618D01*
X24044554Y6461353D01*
X24039525Y6453581D01*
X24035207Y6445453D01*
X24031651Y6436969D01*
X24030127Y6432600D01*
X24027739Y6423660D01*
X24026114Y6414617D01*
X24025301Y6405422D01*
X24025301Y6396177D01*
X24026114Y6386982D01*
X24027739Y6377940D01*
X24030127Y6368999D01*
X24033327Y6360363D01*
X24037290Y6352032D01*
X24041963Y6344056D01*
X24047348Y6336538D01*
X24053342Y6329527D01*
X24059896Y6323076D01*
X24067058Y6317234D01*
X24074678Y6312052D01*
X24082756Y6307582D01*
X24091188Y6303822D01*
X24095506Y6302197D01*
X24104346Y6299606D01*
X24113388Y6297777D01*
X24122532Y6296761D01*
X24131778Y6296558D01*
X24140972Y6297168D01*
X24150116Y6298590D01*
X24159057Y6300825D01*
X24167795Y6303822D01*
X24176177Y6307582D01*
X24184254Y6312052D01*
X24191874Y6317234D01*
X24199037Y6323076D01*
X24205590Y6329527D01*
X24211635Y6336538D01*
X24216969Y6344056D01*
X24221643Y6352032D01*
X24225605Y6360363D01*
X24228806Y6368999D01*
X24231193Y6377940D01*
X24232819Y6386982D01*
X24233632Y6396177D01*
X24233632Y6405422D01*
X24232819Y6414617D01*
X24231193Y6423660D01*
X24228806Y6432600D01*
X24225605Y6441236D01*
X24221643Y6449568D01*
X24216969Y6457543D01*
X24211635Y6465062D01*
X24205590Y6472072D01*
X24199037Y6478524D01*
X24191874Y6484366D01*
X24184254Y6489547D01*
X24176177Y6494018D01*
X24167795Y6497777D01*
X24159057Y6500774D01*
X24150116Y6503009D01*
X24140972Y6504431D01*
X24131778Y6505041D01*
G37*
G36*
X20283982Y5577941D02*
G01*
X20274737Y5577332D01*
X20265644Y5575909D01*
X20256703Y5573674D01*
X20252283Y5572302D01*
X20243698Y5568899D01*
X20235468Y5564784D01*
X20227594Y5559907D01*
X20220228Y5554421D01*
X20213370Y5548274D01*
X20207071Y5541518D01*
X20201382Y5534253D01*
X20196352Y5526481D01*
X20192034Y5518353D01*
X20188478Y5509869D01*
X20185634Y5501081D01*
X20183602Y5492038D01*
X20182382Y5482894D01*
X20181976Y5473700D01*
X20182382Y5464505D01*
X20183602Y5455361D01*
X20185634Y5446318D01*
X20188478Y5437530D01*
X20192034Y5429046D01*
X20196352Y5420918D01*
X20201382Y5413146D01*
X20207071Y5405882D01*
X20213370Y5399125D01*
X20220228Y5392978D01*
X20227594Y5387492D01*
X20235468Y5382615D01*
X20243698Y5378500D01*
X20252283Y5375097D01*
X20261122Y5372506D01*
X20270165Y5370677D01*
X20279360Y5369661D01*
X20288554Y5369458D01*
X20297800Y5370068D01*
X20306893Y5371490D01*
X20315834Y5373725D01*
X20320254Y5375097D01*
X20328839Y5378500D01*
X20337068Y5382615D01*
X20344942Y5387492D01*
X20352308Y5392978D01*
X20359166Y5399125D01*
X20365516Y5405882D01*
X20371155Y5413146D01*
X20376184Y5420918D01*
X20380502Y5429046D01*
X20384109Y5437530D01*
X20386903Y5446318D01*
X20388935Y5455361D01*
X20390154Y5464505D01*
X20390561Y5473700D01*
X20390154Y5482894D01*
X20388935Y5492038D01*
X20386903Y5501081D01*
X20384109Y5509869D01*
X20380502Y5518353D01*
X20376184Y5526481D01*
X20371155Y5534253D01*
X20365516Y5541518D01*
X20359166Y5548274D01*
X20352308Y5554421D01*
X20344942Y5559907D01*
X20337068Y5564784D01*
X20328839Y5568899D01*
X20320254Y5572302D01*
X20311414Y5574893D01*
X20302372Y5576722D01*
X20293177Y5577738D01*
G37*
G36*
X20283982Y7432141D02*
G01*
X20274737Y7431531D01*
X20265644Y7430109D01*
X20256703Y7427874D01*
X20252283Y7426502D01*
X20243698Y7423099D01*
X20235468Y7418984D01*
X20227594Y7414107D01*
X20220228Y7408621D01*
X20213370Y7402474D01*
X20207071Y7395718D01*
X20201382Y7388453D01*
X20196352Y7380681D01*
X20192034Y7372553D01*
X20188478Y7364069D01*
X20185634Y7355281D01*
X20183602Y7346238D01*
X20182382Y7337094D01*
X20181976Y7327900D01*
X20182382Y7318705D01*
X20183602Y7309561D01*
X20185634Y7300518D01*
X20188478Y7291730D01*
X20192034Y7283246D01*
X20196352Y7275118D01*
X20201382Y7267346D01*
X20207071Y7260081D01*
X20213370Y7253325D01*
X20220228Y7247178D01*
X20227594Y7241692D01*
X20235468Y7236815D01*
X20243698Y7232700D01*
X20252283Y7229297D01*
X20261122Y7226706D01*
X20270165Y7224877D01*
X20279360Y7223861D01*
X20288554Y7223658D01*
X20297800Y7224268D01*
X20306893Y7225690D01*
X20315834Y7227925D01*
X20320254Y7229297D01*
X20328839Y7232700D01*
X20337068Y7236815D01*
X20344942Y7241692D01*
X20352308Y7247178D01*
X20359166Y7253325D01*
X20365516Y7260081D01*
X20371155Y7267346D01*
X20376184Y7275118D01*
X20380502Y7283246D01*
X20384109Y7291730D01*
X20386903Y7300518D01*
X20388935Y7309561D01*
X20390154Y7318705D01*
X20390561Y7327900D01*
X20390154Y7337094D01*
X20388935Y7346238D01*
X20386903Y7355281D01*
X20384109Y7364069D01*
X20380502Y7372553D01*
X20376184Y7380681D01*
X20371155Y7388453D01*
X20365516Y7395718D01*
X20359166Y7402474D01*
X20352308Y7408621D01*
X20344942Y7414107D01*
X20337068Y7418984D01*
X20328839Y7423099D01*
X20320254Y7426502D01*
X20311414Y7429093D01*
X20302372Y7430922D01*
X20293177Y7431938D01*
G37*
G36*
X20283982Y6505041D02*
G01*
X20274737Y6504431D01*
X20265644Y6503009D01*
X20256703Y6500774D01*
X20252283Y6499402D01*
X20243698Y6495999D01*
X20235468Y6491884D01*
X20227594Y6487007D01*
X20220228Y6481521D01*
X20213370Y6475374D01*
X20207071Y6468618D01*
X20201382Y6461353D01*
X20196352Y6453581D01*
X20192034Y6445453D01*
X20188478Y6436969D01*
X20185634Y6428181D01*
X20183602Y6419138D01*
X20182382Y6409994D01*
X20181976Y6400800D01*
X20182382Y6391605D01*
X20183602Y6382461D01*
X20185634Y6373418D01*
X20188478Y6364630D01*
X20192034Y6356146D01*
X20196352Y6348018D01*
X20201382Y6340246D01*
X20207071Y6332982D01*
X20213370Y6326225D01*
X20220228Y6320078D01*
X20227594Y6314592D01*
X20235468Y6309715D01*
X20243698Y6305600D01*
X20252283Y6302197D01*
X20261122Y6299606D01*
X20270165Y6297777D01*
X20279360Y6296761D01*
X20288554Y6296558D01*
X20297800Y6297168D01*
X20306893Y6298590D01*
X20315834Y6300825D01*
X20320254Y6302197D01*
X20328839Y6305600D01*
X20337068Y6309715D01*
X20344942Y6314592D01*
X20352308Y6320078D01*
X20359166Y6326225D01*
X20365516Y6332982D01*
X20371155Y6340246D01*
X20376184Y6348018D01*
X20380502Y6356146D01*
X20384109Y6364630D01*
X20386903Y6373418D01*
X20388935Y6382461D01*
X20390154Y6391605D01*
X20390561Y6400800D01*
X20390154Y6409994D01*
X20388935Y6419138D01*
X20386903Y6428181D01*
X20384109Y6436969D01*
X20380502Y6445453D01*
X20376184Y6453581D01*
X20371155Y6461353D01*
X20365516Y6468618D01*
X20359166Y6475374D01*
X20352308Y6481521D01*
X20344942Y6487007D01*
X20337068Y6491884D01*
X20328839Y6495999D01*
X20320254Y6499402D01*
X20311414Y6501993D01*
X20302372Y6503822D01*
X20293177Y6504838D01*
G37*
G36*
X16440759Y5577941D02*
G01*
X16431564Y5577332D01*
X16422471Y5575909D01*
X16413480Y5573674D01*
X16409111Y5572302D01*
X16400526Y5568899D01*
X16392245Y5564784D01*
X16384422Y5559907D01*
X16377005Y5554421D01*
X16370147Y5548274D01*
X16363848Y5541518D01*
X16358158Y5534253D01*
X16353129Y5526481D01*
X16348811Y5518353D01*
X16345255Y5509869D01*
X16343731Y5505500D01*
X16341344Y5496560D01*
X16339718Y5487517D01*
X16338905Y5478322D01*
X16338905Y5469077D01*
X16339718Y5459882D01*
X16341344Y5450840D01*
X16343731Y5441899D01*
X16346932Y5433263D01*
X16350894Y5424932D01*
X16355568Y5416956D01*
X16360952Y5409438D01*
X16366947Y5402427D01*
X16373500Y5395976D01*
X16380663Y5390134D01*
X16388283Y5384952D01*
X16396360Y5380482D01*
X16404793Y5376722D01*
X16409111Y5375097D01*
X16417950Y5372506D01*
X16426992Y5370677D01*
X16436136Y5369661D01*
X16445382Y5369458D01*
X16454577Y5370068D01*
X16463721Y5371490D01*
X16472662Y5373725D01*
X16481399Y5376722D01*
X16489781Y5380482D01*
X16497858Y5384952D01*
X16505478Y5390134D01*
X16512641Y5395976D01*
X16519194Y5402427D01*
X16525240Y5409438D01*
X16530574Y5416956D01*
X16535247Y5424932D01*
X16539210Y5433263D01*
X16542410Y5441899D01*
X16544798Y5450840D01*
X16546423Y5459882D01*
X16547236Y5469077D01*
X16547236Y5478322D01*
X16546423Y5487517D01*
X16544798Y5496560D01*
X16542410Y5505500D01*
X16539210Y5514136D01*
X16535247Y5522468D01*
X16530574Y5530443D01*
X16525240Y5537962D01*
X16519194Y5544972D01*
X16512641Y5551424D01*
X16505478Y5557266D01*
X16497858Y5562447D01*
X16489781Y5566918D01*
X16481399Y5570677D01*
X16472662Y5573674D01*
X16463721Y5575909D01*
X16454577Y5577332D01*
X16445382Y5577941D01*
G37*
G36*
X16440759Y7432141D02*
G01*
X16431564Y7431531D01*
X16422471Y7430109D01*
X16413480Y7427874D01*
X16409111Y7426502D01*
X16400526Y7423099D01*
X16392245Y7418984D01*
X16384422Y7414107D01*
X16377005Y7408621D01*
X16370147Y7402474D01*
X16363848Y7395718D01*
X16358158Y7388453D01*
X16353129Y7380681D01*
X16348811Y7372553D01*
X16345255Y7364069D01*
X16343731Y7359700D01*
X16341344Y7350759D01*
X16339718Y7341717D01*
X16338905Y7332522D01*
X16338905Y7323277D01*
X16339718Y7314082D01*
X16341344Y7305040D01*
X16343731Y7296099D01*
X16346932Y7287463D01*
X16350894Y7279131D01*
X16355568Y7271156D01*
X16360952Y7263638D01*
X16366947Y7256627D01*
X16373500Y7250175D01*
X16380663Y7244334D01*
X16388283Y7239152D01*
X16396360Y7234681D01*
X16404793Y7230922D01*
X16409111Y7229297D01*
X16417950Y7226706D01*
X16426992Y7224877D01*
X16436136Y7223861D01*
X16445382Y7223658D01*
X16454577Y7224268D01*
X16463721Y7225690D01*
X16472662Y7227925D01*
X16481399Y7230922D01*
X16489781Y7234681D01*
X16497858Y7239152D01*
X16505478Y7244334D01*
X16512641Y7250175D01*
X16519194Y7256627D01*
X16525240Y7263638D01*
X16530574Y7271156D01*
X16535247Y7279131D01*
X16539210Y7287463D01*
X16542410Y7296099D01*
X16544798Y7305040D01*
X16546423Y7314082D01*
X16547236Y7323277D01*
X16547236Y7332522D01*
X16546423Y7341717D01*
X16544798Y7350759D01*
X16542410Y7359700D01*
X16539210Y7368336D01*
X16535247Y7376668D01*
X16530574Y7384643D01*
X16525240Y7392162D01*
X16519194Y7399172D01*
X16512641Y7405624D01*
X16505478Y7411466D01*
X16497858Y7416647D01*
X16489781Y7421118D01*
X16481399Y7424877D01*
X16472662Y7427874D01*
X16463721Y7430109D01*
X16454577Y7431531D01*
X16445382Y7432141D01*
G37*
G36*
X16440759Y6505041D02*
G01*
X16431564Y6504431D01*
X16422471Y6503009D01*
X16413480Y6500774D01*
X16409111Y6499402D01*
X16400526Y6495999D01*
X16392245Y6491884D01*
X16384422Y6487007D01*
X16377005Y6481521D01*
X16370147Y6475374D01*
X16363848Y6468618D01*
X16358158Y6461353D01*
X16353129Y6453581D01*
X16348811Y6445453D01*
X16345255Y6436969D01*
X16343731Y6432600D01*
X16341344Y6423660D01*
X16339718Y6414617D01*
X16338905Y6405422D01*
X16338905Y6396177D01*
X16339718Y6386982D01*
X16341344Y6377940D01*
X16343731Y6368999D01*
X16346932Y6360363D01*
X16350894Y6352032D01*
X16355568Y6344056D01*
X16360952Y6336538D01*
X16366947Y6329527D01*
X16373500Y6323076D01*
X16380663Y6317234D01*
X16388283Y6312052D01*
X16396360Y6307582D01*
X16404793Y6303822D01*
X16409111Y6302197D01*
X16417950Y6299606D01*
X16426992Y6297777D01*
X16436136Y6296761D01*
X16445382Y6296558D01*
X16454577Y6297168D01*
X16463721Y6298590D01*
X16472662Y6300825D01*
X16481399Y6303822D01*
X16489781Y6307582D01*
X16497858Y6312052D01*
X16505478Y6317234D01*
X16512641Y6323076D01*
X16519194Y6329527D01*
X16525240Y6336538D01*
X16530574Y6344056D01*
X16535247Y6352032D01*
X16539210Y6360363D01*
X16542410Y6368999D01*
X16544798Y6377940D01*
X16546423Y6386982D01*
X16547236Y6396177D01*
X16547236Y6405422D01*
X16546423Y6414617D01*
X16544798Y6423660D01*
X16542410Y6432600D01*
X16539210Y6441236D01*
X16535247Y6449568D01*
X16530574Y6457543D01*
X16525240Y6465062D01*
X16519194Y6472072D01*
X16512641Y6478524D01*
X16505478Y6484366D01*
X16497858Y6489547D01*
X16489781Y6494018D01*
X16481399Y6497777D01*
X16472662Y6500774D01*
X16463721Y6503009D01*
X16454577Y6504431D01*
X16445382Y6505041D01*
G37*
G36*
X15010587Y6517741D02*
G01*
X15001341Y6517131D01*
X14992248Y6515709D01*
X14983307Y6513474D01*
X14978888Y6512102D01*
X14970302Y6508699D01*
X14962073Y6504584D01*
X14954199Y6499707D01*
X14946833Y6494221D01*
X14939975Y6488074D01*
X14933676Y6481318D01*
X14927986Y6474053D01*
X14922957Y6466281D01*
X14918639Y6458153D01*
X14915083Y6449669D01*
X14912238Y6440881D01*
X14910206Y6431838D01*
X14908987Y6422694D01*
X14908580Y6413500D01*
X14908987Y6404305D01*
X14910206Y6395161D01*
X14912238Y6386118D01*
X14915083Y6377330D01*
X14918639Y6368846D01*
X14922957Y6360718D01*
X14927986Y6352946D01*
X14933676Y6345682D01*
X14939975Y6338925D01*
X14946833Y6332778D01*
X14954199Y6327292D01*
X14962073Y6322415D01*
X14970302Y6318300D01*
X14978888Y6314897D01*
X14987727Y6312306D01*
X14996769Y6310477D01*
X15005964Y6309461D01*
X15015159Y6309258D01*
X15024404Y6309868D01*
X15033498Y6311290D01*
X15042438Y6313525D01*
X15046858Y6314897D01*
X15055443Y6318300D01*
X15063673Y6322415D01*
X15071547Y6327292D01*
X15078913Y6332778D01*
X15085771Y6338925D01*
X15092121Y6345682D01*
X15097760Y6352946D01*
X15102789Y6360718D01*
X15107107Y6368846D01*
X15110713Y6377330D01*
X15113507Y6386118D01*
X15115540Y6395161D01*
X15116759Y6404305D01*
X15117165Y6413500D01*
X15116759Y6422694D01*
X15115540Y6431838D01*
X15113507Y6440881D01*
X15110713Y6449669D01*
X15107107Y6458153D01*
X15102789Y6466281D01*
X15097760Y6474053D01*
X15092121Y6481318D01*
X15085771Y6488074D01*
X15078913Y6494221D01*
X15071547Y6499707D01*
X15063673Y6504584D01*
X15055443Y6508699D01*
X15046858Y6512102D01*
X15038019Y6514693D01*
X15028976Y6516522D01*
X15019782Y6517538D01*
G37*
G36*
X19150787Y5679541D02*
G01*
X19141541Y5678932D01*
X19132448Y5677509D01*
X19123507Y5675274D01*
X19119088Y5673902D01*
X19110502Y5670499D01*
X19102273Y5666384D01*
X19094399Y5661507D01*
X19087033Y5656021D01*
X19080175Y5649874D01*
X19073876Y5643118D01*
X19068186Y5635853D01*
X19063157Y5628081D01*
X19058839Y5619953D01*
X19055283Y5611469D01*
X19052438Y5602681D01*
X19050406Y5593638D01*
X19049187Y5584494D01*
X19048780Y5575300D01*
X19049187Y5566105D01*
X19050406Y5556961D01*
X19052438Y5547918D01*
X19055283Y5539130D01*
X19058839Y5530646D01*
X19063157Y5522518D01*
X19068186Y5514746D01*
X19073876Y5507482D01*
X19080175Y5500725D01*
X19087033Y5494578D01*
X19094399Y5489092D01*
X19102273Y5484215D01*
X19110502Y5480100D01*
X19119088Y5476697D01*
X19127927Y5474106D01*
X19136969Y5472277D01*
X19146164Y5471261D01*
X19155359Y5471058D01*
X19164604Y5471668D01*
X19173698Y5473090D01*
X19182638Y5475325D01*
X19187058Y5476697D01*
X19195643Y5480100D01*
X19203873Y5484215D01*
X19211747Y5489092D01*
X19219113Y5494578D01*
X19225971Y5500725D01*
X19232321Y5507482D01*
X19237960Y5514746D01*
X19242989Y5522518D01*
X19247307Y5530646D01*
X19250914Y5539130D01*
X19253708Y5547918D01*
X19255740Y5556961D01*
X19256959Y5566105D01*
X19257365Y5575300D01*
X19256959Y5584494D01*
X19255740Y5593638D01*
X19253708Y5602681D01*
X19250914Y5611469D01*
X19247307Y5619953D01*
X19242989Y5628081D01*
X19237960Y5635853D01*
X19232321Y5643118D01*
X19225971Y5649874D01*
X19219113Y5656021D01*
X19211747Y5661507D01*
X19203873Y5666384D01*
X19195643Y5670499D01*
X19187058Y5673902D01*
X19178219Y5676493D01*
X19169176Y5678322D01*
X19159982Y5679338D01*
G37*
G36*
X19150787Y6619341D02*
G01*
X19141541Y6618731D01*
X19132448Y6617309D01*
X19123507Y6615074D01*
X19119088Y6613702D01*
X19110502Y6610299D01*
X19102273Y6606184D01*
X19094399Y6601307D01*
X19087033Y6595821D01*
X19080175Y6589674D01*
X19073876Y6582918D01*
X19068186Y6575653D01*
X19063157Y6567881D01*
X19058839Y6559753D01*
X19055283Y6551269D01*
X19052438Y6542481D01*
X19050406Y6533438D01*
X19049187Y6524294D01*
X19048780Y6515100D01*
X19049187Y6505905D01*
X19050406Y6496761D01*
X19052438Y6487718D01*
X19055283Y6478930D01*
X19058839Y6470446D01*
X19063157Y6462318D01*
X19068186Y6454546D01*
X19073876Y6447282D01*
X19080175Y6440525D01*
X19087033Y6434378D01*
X19094399Y6428892D01*
X19102273Y6424015D01*
X19110502Y6419900D01*
X19119088Y6416497D01*
X19127927Y6413906D01*
X19136969Y6412077D01*
X19146164Y6411061D01*
X19155359Y6410858D01*
X19164604Y6411468D01*
X19173698Y6412890D01*
X19182638Y6415125D01*
X19187058Y6416497D01*
X19195643Y6419900D01*
X19203873Y6424015D01*
X19211747Y6428892D01*
X19219113Y6434378D01*
X19225971Y6440525D01*
X19232321Y6447282D01*
X19237960Y6454546D01*
X19242989Y6462318D01*
X19247307Y6470446D01*
X19250914Y6478930D01*
X19253708Y6487718D01*
X19255740Y6496761D01*
X19256959Y6505905D01*
X19257365Y6515100D01*
X19256959Y6524294D01*
X19255740Y6533438D01*
X19253708Y6542481D01*
X19250914Y6551269D01*
X19247307Y6559753D01*
X19242989Y6567881D01*
X19237960Y6575653D01*
X19232321Y6582918D01*
X19225971Y6589674D01*
X19219113Y6595821D01*
X19211747Y6601307D01*
X19203873Y6606184D01*
X19195643Y6610299D01*
X19187058Y6613702D01*
X19178219Y6616293D01*
X19169176Y6618122D01*
X19159982Y6619138D01*
G37*
G36*
X18490387Y5679541D02*
G01*
X18481141Y5678932D01*
X18472048Y5677509D01*
X18463107Y5675274D01*
X18458688Y5673902D01*
X18450102Y5670499D01*
X18441873Y5666384D01*
X18433999Y5661507D01*
X18426633Y5656021D01*
X18419775Y5649874D01*
X18413476Y5643118D01*
X18407786Y5635853D01*
X18402757Y5628081D01*
X18398439Y5619953D01*
X18394883Y5611469D01*
X18392038Y5602681D01*
X18390006Y5593638D01*
X18388787Y5584494D01*
X18388380Y5575300D01*
X18388787Y5566105D01*
X18390006Y5556961D01*
X18392038Y5547918D01*
X18394883Y5539130D01*
X18398439Y5530646D01*
X18402757Y5522518D01*
X18407786Y5514746D01*
X18413476Y5507482D01*
X18419775Y5500725D01*
X18426633Y5494578D01*
X18433999Y5489092D01*
X18441873Y5484215D01*
X18450102Y5480100D01*
X18458688Y5476697D01*
X18467527Y5474106D01*
X18476569Y5472277D01*
X18485764Y5471261D01*
X18494959Y5471058D01*
X18504204Y5471668D01*
X18513298Y5473090D01*
X18522238Y5475325D01*
X18526658Y5476697D01*
X18535243Y5480100D01*
X18543473Y5484215D01*
X18551347Y5489092D01*
X18558713Y5494578D01*
X18565571Y5500725D01*
X18571921Y5507482D01*
X18577560Y5514746D01*
X18582589Y5522518D01*
X18586907Y5530646D01*
X18590514Y5539130D01*
X18593308Y5547918D01*
X18595340Y5556961D01*
X18596559Y5566105D01*
X18596965Y5575300D01*
X18596559Y5584494D01*
X18595340Y5593638D01*
X18593308Y5602681D01*
X18590514Y5611469D01*
X18586907Y5619953D01*
X18582589Y5628081D01*
X18577560Y5635853D01*
X18571921Y5643118D01*
X18565571Y5649874D01*
X18558713Y5656021D01*
X18551347Y5661507D01*
X18543473Y5666384D01*
X18535243Y5670499D01*
X18526658Y5673902D01*
X18517819Y5676493D01*
X18508776Y5678322D01*
X18499582Y5679338D01*
G37*
G36*
X18490387Y6619341D02*
G01*
X18481141Y6618731D01*
X18472048Y6617309D01*
X18463107Y6615074D01*
X18458688Y6613702D01*
X18450102Y6610299D01*
X18441873Y6606184D01*
X18433999Y6601307D01*
X18426633Y6595821D01*
X18419775Y6589674D01*
X18413476Y6582918D01*
X18407786Y6575653D01*
X18402757Y6567881D01*
X18398439Y6559753D01*
X18394883Y6551269D01*
X18392038Y6542481D01*
X18390006Y6533438D01*
X18388787Y6524294D01*
X18388380Y6515100D01*
X18388787Y6505905D01*
X18390006Y6496761D01*
X18392038Y6487718D01*
X18394883Y6478930D01*
X18398439Y6470446D01*
X18402757Y6462318D01*
X18407786Y6454546D01*
X18413476Y6447282D01*
X18419775Y6440525D01*
X18426633Y6434378D01*
X18433999Y6428892D01*
X18441873Y6424015D01*
X18450102Y6419900D01*
X18458688Y6416497D01*
X18467527Y6413906D01*
X18476569Y6412077D01*
X18485764Y6411061D01*
X18494959Y6410858D01*
X18504204Y6411468D01*
X18513298Y6412890D01*
X18522238Y6415125D01*
X18526658Y6416497D01*
X18535243Y6419900D01*
X18543473Y6424015D01*
X18551347Y6428892D01*
X18558713Y6434378D01*
X18565571Y6440525D01*
X18571921Y6447282D01*
X18577560Y6454546D01*
X18582589Y6462318D01*
X18586907Y6470446D01*
X18590514Y6478930D01*
X18593308Y6487718D01*
X18595340Y6496761D01*
X18596559Y6505905D01*
X18596965Y6515100D01*
X18596559Y6524294D01*
X18595340Y6533438D01*
X18593308Y6542481D01*
X18590514Y6551269D01*
X18586907Y6559753D01*
X18582589Y6567881D01*
X18577560Y6575653D01*
X18571921Y6582918D01*
X18565571Y6589674D01*
X18558713Y6595821D01*
X18551347Y6601307D01*
X18543473Y6606184D01*
X18535243Y6610299D01*
X18526658Y6613702D01*
X18517819Y6616293D01*
X18508776Y6618122D01*
X18499582Y6619138D01*
G37*
G36*
X19150787Y7533741D02*
G01*
X19141541Y7533131D01*
X19132448Y7531709D01*
X19123507Y7529474D01*
X19119088Y7528102D01*
X19110502Y7524699D01*
X19102273Y7520584D01*
X19094399Y7515707D01*
X19087033Y7510221D01*
X19080175Y7504074D01*
X19073876Y7497318D01*
X19068186Y7490053D01*
X19063157Y7482281D01*
X19058839Y7474153D01*
X19055283Y7465669D01*
X19052438Y7456881D01*
X19050406Y7447838D01*
X19049187Y7438694D01*
X19048780Y7429500D01*
X19049187Y7420305D01*
X19050406Y7411161D01*
X19052438Y7402118D01*
X19055283Y7393330D01*
X19058839Y7384846D01*
X19063157Y7376718D01*
X19068186Y7368946D01*
X19073876Y7361681D01*
X19080175Y7354925D01*
X19087033Y7348778D01*
X19094399Y7343292D01*
X19102273Y7338415D01*
X19110502Y7334300D01*
X19119088Y7330897D01*
X19127927Y7328306D01*
X19136969Y7326477D01*
X19146164Y7325461D01*
X19155359Y7325258D01*
X19164604Y7325868D01*
X19173698Y7327290D01*
X19182638Y7329525D01*
X19187058Y7330897D01*
X19195643Y7334300D01*
X19203873Y7338415D01*
X19211747Y7343292D01*
X19219113Y7348778D01*
X19225971Y7354925D01*
X19232321Y7361681D01*
X19237960Y7368946D01*
X19242989Y7376718D01*
X19247307Y7384846D01*
X19250914Y7393330D01*
X19253708Y7402118D01*
X19255740Y7411161D01*
X19256959Y7420305D01*
X19257365Y7429500D01*
X19256959Y7438694D01*
X19255740Y7447838D01*
X19253708Y7456881D01*
X19250914Y7465669D01*
X19247307Y7474153D01*
X19242989Y7482281D01*
X19237960Y7490053D01*
X19232321Y7497318D01*
X19225971Y7504074D01*
X19219113Y7510221D01*
X19211747Y7515707D01*
X19203873Y7520584D01*
X19195643Y7524699D01*
X19187058Y7528102D01*
X19178219Y7530693D01*
X19169176Y7532522D01*
X19159982Y7533538D01*
G37*
G36*
X18490387Y7533741D02*
G01*
X18481141Y7533131D01*
X18472048Y7531709D01*
X18463107Y7529474D01*
X18458688Y7528102D01*
X18450102Y7524699D01*
X18441873Y7520584D01*
X18433999Y7515707D01*
X18426633Y7510221D01*
X18419775Y7504074D01*
X18413476Y7497318D01*
X18407786Y7490053D01*
X18402757Y7482281D01*
X18398439Y7474153D01*
X18394883Y7465669D01*
X18392038Y7456881D01*
X18390006Y7447838D01*
X18388787Y7438694D01*
X18388380Y7429500D01*
X18388787Y7420305D01*
X18390006Y7411161D01*
X18392038Y7402118D01*
X18394883Y7393330D01*
X18398439Y7384846D01*
X18402757Y7376718D01*
X18407786Y7368946D01*
X18413476Y7361681D01*
X18419775Y7354925D01*
X18426633Y7348778D01*
X18433999Y7343292D01*
X18441873Y7338415D01*
X18450102Y7334300D01*
X18458688Y7330897D01*
X18467527Y7328306D01*
X18476569Y7326477D01*
X18485764Y7325461D01*
X18494959Y7325258D01*
X18504204Y7325868D01*
X18513298Y7327290D01*
X18522238Y7329525D01*
X18526658Y7330897D01*
X18535243Y7334300D01*
X18543473Y7338415D01*
X18551347Y7343292D01*
X18558713Y7348778D01*
X18565571Y7354925D01*
X18571921Y7361681D01*
X18577560Y7368946D01*
X18582589Y7376718D01*
X18586907Y7384846D01*
X18590514Y7393330D01*
X18593308Y7402118D01*
X18595340Y7411161D01*
X18596559Y7420305D01*
X18596965Y7429500D01*
X18596559Y7438694D01*
X18595340Y7447838D01*
X18593308Y7456881D01*
X18590514Y7465669D01*
X18586907Y7474153D01*
X18582589Y7482281D01*
X18577560Y7490053D01*
X18571921Y7497318D01*
X18565571Y7504074D01*
X18558713Y7510221D01*
X18551347Y7515707D01*
X18543473Y7520584D01*
X18535243Y7524699D01*
X18526658Y7528102D01*
X18517819Y7530693D01*
X18508776Y7532522D01*
X18499582Y7533538D01*
G37*
G36*
X37422074Y7533741D02*
G01*
X37412879Y7533131D01*
X37403786Y7531709D01*
X37394794Y7529474D01*
X37390425Y7528102D01*
X37381840Y7524699D01*
X37373560Y7520584D01*
X37365736Y7515707D01*
X37358320Y7510221D01*
X37351462Y7504074D01*
X37345162Y7497318D01*
X37339473Y7490053D01*
X37334444Y7482281D01*
X37330126Y7474153D01*
X37326570Y7465669D01*
X37325046Y7461300D01*
X37322658Y7452359D01*
X37321032Y7443317D01*
X37320220Y7434122D01*
X37320220Y7424877D01*
X37321032Y7415682D01*
X37322658Y7406640D01*
X37325046Y7397699D01*
X37328246Y7389063D01*
X37332208Y7380731D01*
X37336882Y7372756D01*
X37342267Y7365238D01*
X37348261Y7358227D01*
X37354814Y7351775D01*
X37361977Y7345934D01*
X37369597Y7340752D01*
X37377674Y7336281D01*
X37386107Y7332522D01*
X37390425Y7330897D01*
X37399264Y7328306D01*
X37408307Y7326477D01*
X37417451Y7325461D01*
X37426696Y7325258D01*
X37435891Y7325868D01*
X37445035Y7327290D01*
X37453976Y7329525D01*
X37462714Y7332522D01*
X37471096Y7336281D01*
X37479173Y7340752D01*
X37486793Y7345934D01*
X37493956Y7351775D01*
X37500509Y7358227D01*
X37506554Y7365238D01*
X37511888Y7372756D01*
X37516562Y7380731D01*
X37520524Y7389063D01*
X37523724Y7397699D01*
X37526112Y7406640D01*
X37527738Y7415682D01*
X37528550Y7424877D01*
X37528550Y7434122D01*
X37527738Y7443317D01*
X37526112Y7452359D01*
X37523724Y7461300D01*
X37520524Y7469936D01*
X37516562Y7478268D01*
X37511888Y7486243D01*
X37506554Y7493762D01*
X37500509Y7500772D01*
X37493956Y7507224D01*
X37486793Y7513066D01*
X37479173Y7518247D01*
X37471096Y7522718D01*
X37462714Y7526477D01*
X37453976Y7529474D01*
X37445035Y7531709D01*
X37435891Y7533131D01*
X37426696Y7533741D01*
G37*
G36*
X37422074Y6619341D02*
G01*
X37412879Y6618731D01*
X37403786Y6617309D01*
X37394794Y6615074D01*
X37390425Y6613702D01*
X37381840Y6610299D01*
X37373560Y6606184D01*
X37365736Y6601307D01*
X37358320Y6595821D01*
X37351462Y6589674D01*
X37345162Y6582918D01*
X37339473Y6575653D01*
X37334444Y6567881D01*
X37330126Y6559753D01*
X37326570Y6551269D01*
X37325046Y6546900D01*
X37322658Y6537959D01*
X37321032Y6528917D01*
X37320220Y6519722D01*
X37320220Y6510477D01*
X37321032Y6501282D01*
X37322658Y6492240D01*
X37325046Y6483299D01*
X37328246Y6474663D01*
X37332208Y6466332D01*
X37336882Y6458356D01*
X37342267Y6450838D01*
X37348261Y6443827D01*
X37354814Y6437376D01*
X37361977Y6431534D01*
X37369597Y6426352D01*
X37377674Y6421882D01*
X37386107Y6418122D01*
X37390425Y6416497D01*
X37399264Y6413906D01*
X37408307Y6412077D01*
X37417451Y6411061D01*
X37426696Y6410858D01*
X37435891Y6411468D01*
X37445035Y6412890D01*
X37453976Y6415125D01*
X37462714Y6418122D01*
X37471096Y6421882D01*
X37479173Y6426352D01*
X37486793Y6431534D01*
X37493956Y6437376D01*
X37500509Y6443827D01*
X37506554Y6450838D01*
X37511888Y6458356D01*
X37516562Y6466332D01*
X37520524Y6474663D01*
X37523724Y6483299D01*
X37526112Y6492240D01*
X37527738Y6501282D01*
X37528550Y6510477D01*
X37528550Y6519722D01*
X37527738Y6528917D01*
X37526112Y6537959D01*
X37523724Y6546900D01*
X37520524Y6555536D01*
X37516562Y6563868D01*
X37511888Y6571843D01*
X37506554Y6579362D01*
X37500509Y6586372D01*
X37493956Y6592824D01*
X37486793Y6598666D01*
X37479173Y6603847D01*
X37471096Y6608318D01*
X37462714Y6612077D01*
X37453976Y6615074D01*
X37445035Y6617309D01*
X37435891Y6618731D01*
X37426696Y6619341D01*
G37*
G36*
X37422074Y5679541D02*
G01*
X37412879Y5678932D01*
X37403786Y5677509D01*
X37394794Y5675274D01*
X37390425Y5673902D01*
X37381840Y5670499D01*
X37373560Y5666384D01*
X37365736Y5661507D01*
X37358320Y5656021D01*
X37351462Y5649874D01*
X37345162Y5643118D01*
X37339473Y5635853D01*
X37334444Y5628081D01*
X37330126Y5619953D01*
X37326570Y5611469D01*
X37325046Y5607100D01*
X37322658Y5598160D01*
X37321032Y5589117D01*
X37320220Y5579922D01*
X37320220Y5570677D01*
X37321032Y5561482D01*
X37322658Y5552440D01*
X37325046Y5543499D01*
X37328246Y5534863D01*
X37332208Y5526532D01*
X37336882Y5518556D01*
X37342267Y5511038D01*
X37348261Y5504027D01*
X37354814Y5497576D01*
X37361977Y5491734D01*
X37369597Y5486552D01*
X37377674Y5482082D01*
X37386107Y5478322D01*
X37390425Y5476697D01*
X37399264Y5474106D01*
X37408307Y5472277D01*
X37417451Y5471261D01*
X37426696Y5471058D01*
X37435891Y5471668D01*
X37445035Y5473090D01*
X37453976Y5475325D01*
X37462714Y5478322D01*
X37471096Y5482082D01*
X37479173Y5486552D01*
X37486793Y5491734D01*
X37493956Y5497576D01*
X37500509Y5504027D01*
X37506554Y5511038D01*
X37511888Y5518556D01*
X37516562Y5526532D01*
X37520524Y5534863D01*
X37523724Y5543499D01*
X37526112Y5552440D01*
X37527738Y5561482D01*
X37528550Y5570677D01*
X37528550Y5579922D01*
X37527738Y5589117D01*
X37526112Y5598160D01*
X37523724Y5607100D01*
X37520524Y5615736D01*
X37516562Y5624068D01*
X37511888Y5632043D01*
X37506554Y5639562D01*
X37500509Y5646572D01*
X37493956Y5653024D01*
X37486793Y5658866D01*
X37479173Y5664047D01*
X37471096Y5668518D01*
X37462714Y5672277D01*
X37453976Y5675274D01*
X37445035Y5677509D01*
X37435891Y5678932D01*
X37426696Y5679541D01*
G37*
G36*
X25892455Y7533741D02*
G01*
X25883260Y7533131D01*
X25874167Y7531709D01*
X25865175Y7529474D01*
X25860806Y7528102D01*
X25852221Y7524699D01*
X25843941Y7520584D01*
X25836118Y7515707D01*
X25828701Y7510221D01*
X25821843Y7504074D01*
X25815544Y7497318D01*
X25809854Y7490053D01*
X25804825Y7482281D01*
X25800507Y7474153D01*
X25796951Y7465669D01*
X25795427Y7461300D01*
X25793039Y7452359D01*
X25791414Y7443317D01*
X25790601Y7434122D01*
X25790601Y7424877D01*
X25791414Y7415682D01*
X25793039Y7406640D01*
X25795427Y7397699D01*
X25798627Y7389063D01*
X25802590Y7380731D01*
X25807263Y7372756D01*
X25812648Y7365238D01*
X25818642Y7358227D01*
X25825196Y7351775D01*
X25832358Y7345934D01*
X25839978Y7340752D01*
X25848056Y7336281D01*
X25856488Y7332522D01*
X25860806Y7330897D01*
X25869646Y7328306D01*
X25878688Y7326477D01*
X25887832Y7325461D01*
X25897078Y7325258D01*
X25906272Y7325868D01*
X25915416Y7327290D01*
X25924357Y7329525D01*
X25933095Y7332522D01*
X25941477Y7336281D01*
X25949554Y7340752D01*
X25957174Y7345934D01*
X25964337Y7351775D01*
X25970890Y7358227D01*
X25976935Y7365238D01*
X25982269Y7372756D01*
X25986943Y7380731D01*
X25990905Y7389063D01*
X25994106Y7397699D01*
X25996493Y7406640D01*
X25998119Y7415682D01*
X25998932Y7424877D01*
X25998932Y7434122D01*
X25998119Y7443317D01*
X25996493Y7452359D01*
X25994106Y7461300D01*
X25990905Y7469936D01*
X25986943Y7478268D01*
X25982269Y7486243D01*
X25976935Y7493762D01*
X25970890Y7500772D01*
X25964337Y7507224D01*
X25957174Y7513066D01*
X25949554Y7518247D01*
X25941477Y7522718D01*
X25933095Y7526477D01*
X25924357Y7529474D01*
X25915416Y7531709D01*
X25906272Y7533131D01*
X25897078Y7533741D01*
G37*
G36*
X25892455Y6619341D02*
G01*
X25883260Y6618731D01*
X25874167Y6617309D01*
X25865175Y6615074D01*
X25860806Y6613702D01*
X25852221Y6610299D01*
X25843941Y6606184D01*
X25836118Y6601307D01*
X25828701Y6595821D01*
X25821843Y6589674D01*
X25815544Y6582918D01*
X25809854Y6575653D01*
X25804825Y6567881D01*
X25800507Y6559753D01*
X25796951Y6551269D01*
X25795427Y6546900D01*
X25793039Y6537959D01*
X25791414Y6528917D01*
X25790601Y6519722D01*
X25790601Y6510477D01*
X25791414Y6501282D01*
X25793039Y6492240D01*
X25795427Y6483299D01*
X25798627Y6474663D01*
X25802590Y6466332D01*
X25807263Y6458356D01*
X25812648Y6450838D01*
X25818642Y6443827D01*
X25825196Y6437376D01*
X25832358Y6431534D01*
X25839978Y6426352D01*
X25848056Y6421882D01*
X25856488Y6418122D01*
X25860806Y6416497D01*
X25869646Y6413906D01*
X25878688Y6412077D01*
X25887832Y6411061D01*
X25897078Y6410858D01*
X25906272Y6411468D01*
X25915416Y6412890D01*
X25924357Y6415125D01*
X25933095Y6418122D01*
X25941477Y6421882D01*
X25949554Y6426352D01*
X25957174Y6431534D01*
X25964337Y6437376D01*
X25970890Y6443827D01*
X25976935Y6450838D01*
X25982269Y6458356D01*
X25986943Y6466332D01*
X25990905Y6474663D01*
X25994106Y6483299D01*
X25996493Y6492240D01*
X25998119Y6501282D01*
X25998932Y6510477D01*
X25998932Y6519722D01*
X25998119Y6528917D01*
X25996493Y6537959D01*
X25994106Y6546900D01*
X25990905Y6555536D01*
X25986943Y6563868D01*
X25982269Y6571843D01*
X25976935Y6579362D01*
X25970890Y6586372D01*
X25964337Y6592824D01*
X25957174Y6598666D01*
X25949554Y6603847D01*
X25941477Y6608318D01*
X25933095Y6612077D01*
X25924357Y6615074D01*
X25915416Y6617309D01*
X25906272Y6618731D01*
X25897078Y6619341D01*
G37*
G36*
X25892455Y5679541D02*
G01*
X25883260Y5678932D01*
X25874167Y5677509D01*
X25865175Y5675274D01*
X25860806Y5673902D01*
X25852221Y5670499D01*
X25843941Y5666384D01*
X25836118Y5661507D01*
X25828701Y5656021D01*
X25821843Y5649874D01*
X25815544Y5643118D01*
X25809854Y5635853D01*
X25804825Y5628081D01*
X25800507Y5619953D01*
X25796951Y5611469D01*
X25795427Y5607100D01*
X25793039Y5598160D01*
X25791414Y5589117D01*
X25790601Y5579922D01*
X25790601Y5570677D01*
X25791414Y5561482D01*
X25793039Y5552440D01*
X25795427Y5543499D01*
X25798627Y5534863D01*
X25802590Y5526532D01*
X25807263Y5518556D01*
X25812648Y5511038D01*
X25818642Y5504027D01*
X25825196Y5497576D01*
X25832358Y5491734D01*
X25839978Y5486552D01*
X25848056Y5482082D01*
X25856488Y5478322D01*
X25860806Y5476697D01*
X25869646Y5474106D01*
X25878688Y5472277D01*
X25887832Y5471261D01*
X25897078Y5471058D01*
X25906272Y5471668D01*
X25915416Y5473090D01*
X25924357Y5475325D01*
X25933095Y5478322D01*
X25941477Y5482082D01*
X25949554Y5486552D01*
X25957174Y5491734D01*
X25964337Y5497576D01*
X25970890Y5504027D01*
X25976935Y5511038D01*
X25982269Y5518556D01*
X25986943Y5526532D01*
X25990905Y5534863D01*
X25994106Y5543499D01*
X25996493Y5552440D01*
X25998119Y5561482D01*
X25998932Y5570677D01*
X25998932Y5579922D01*
X25998119Y5589117D01*
X25996493Y5598160D01*
X25994106Y5607100D01*
X25990905Y5615736D01*
X25986943Y5624068D01*
X25982269Y5632043D01*
X25976935Y5639562D01*
X25970890Y5646572D01*
X25964337Y5653024D01*
X25957174Y5658866D01*
X25949554Y5664047D01*
X25941477Y5668518D01*
X25933095Y5672277D01*
X25924357Y5675274D01*
X25915416Y5677509D01*
X25906272Y5678932D01*
X25897078Y5679541D01*
G37*
G36*
X36774374Y7533741D02*
G01*
X36765179Y7533131D01*
X36756086Y7531709D01*
X36747094Y7529474D01*
X36742725Y7528102D01*
X36734140Y7524699D01*
X36725860Y7520584D01*
X36718036Y7515707D01*
X36710620Y7510221D01*
X36703762Y7504074D01*
X36697462Y7497318D01*
X36691773Y7490053D01*
X36686744Y7482281D01*
X36682426Y7474153D01*
X36678870Y7465669D01*
X36677346Y7461300D01*
X36674958Y7452359D01*
X36673332Y7443317D01*
X36672520Y7434122D01*
X36672520Y7424877D01*
X36673332Y7415682D01*
X36674958Y7406640D01*
X36677346Y7397699D01*
X36680546Y7389063D01*
X36684508Y7380731D01*
X36689182Y7372756D01*
X36694567Y7365238D01*
X36700561Y7358227D01*
X36707114Y7351775D01*
X36714277Y7345934D01*
X36721897Y7340752D01*
X36729974Y7336281D01*
X36738407Y7332522D01*
X36742725Y7330897D01*
X36751564Y7328306D01*
X36760607Y7326477D01*
X36769751Y7325461D01*
X36778996Y7325258D01*
X36788191Y7325868D01*
X36797335Y7327290D01*
X36806276Y7329525D01*
X36815014Y7332522D01*
X36823396Y7336281D01*
X36831473Y7340752D01*
X36839093Y7345934D01*
X36846256Y7351775D01*
X36852809Y7358227D01*
X36858854Y7365238D01*
X36864188Y7372756D01*
X36868862Y7380731D01*
X36872824Y7389063D01*
X36876024Y7397699D01*
X36878412Y7406640D01*
X36880038Y7415682D01*
X36880850Y7424877D01*
X36880850Y7434122D01*
X36880038Y7443317D01*
X36878412Y7452359D01*
X36876024Y7461300D01*
X36872824Y7469936D01*
X36868862Y7478268D01*
X36864188Y7486243D01*
X36858854Y7493762D01*
X36852809Y7500772D01*
X36846256Y7507224D01*
X36839093Y7513066D01*
X36831473Y7518247D01*
X36823396Y7522718D01*
X36815014Y7526477D01*
X36806276Y7529474D01*
X36797335Y7531709D01*
X36788191Y7533131D01*
X36778996Y7533741D01*
G37*
G36*
X36774374Y6619341D02*
G01*
X36765179Y6618731D01*
X36756086Y6617309D01*
X36747094Y6615074D01*
X36742725Y6613702D01*
X36734140Y6610299D01*
X36725860Y6606184D01*
X36718036Y6601307D01*
X36710620Y6595821D01*
X36703762Y6589674D01*
X36697462Y6582918D01*
X36691773Y6575653D01*
X36686744Y6567881D01*
X36682426Y6559753D01*
X36678870Y6551269D01*
X36677346Y6546900D01*
X36674958Y6537959D01*
X36673332Y6528917D01*
X36672520Y6519722D01*
X36672520Y6510477D01*
X36673332Y6501282D01*
X36674958Y6492240D01*
X36677346Y6483299D01*
X36680546Y6474663D01*
X36684508Y6466332D01*
X36689182Y6458356D01*
X36694567Y6450838D01*
X36700561Y6443827D01*
X36707114Y6437376D01*
X36714277Y6431534D01*
X36721897Y6426352D01*
X36729974Y6421882D01*
X36738407Y6418122D01*
X36742725Y6416497D01*
X36751564Y6413906D01*
X36760607Y6412077D01*
X36769751Y6411061D01*
X36778996Y6410858D01*
X36788191Y6411468D01*
X36797335Y6412890D01*
X36806276Y6415125D01*
X36815014Y6418122D01*
X36823396Y6421882D01*
X36831473Y6426352D01*
X36839093Y6431534D01*
X36846256Y6437376D01*
X36852809Y6443827D01*
X36858854Y6450838D01*
X36864188Y6458356D01*
X36868862Y6466332D01*
X36872824Y6474663D01*
X36876024Y6483299D01*
X36878412Y6492240D01*
X36880038Y6501282D01*
X36880850Y6510477D01*
X36880850Y6519722D01*
X36880038Y6528917D01*
X36878412Y6537959D01*
X36876024Y6546900D01*
X36872824Y6555536D01*
X36868862Y6563868D01*
X36864188Y6571843D01*
X36858854Y6579362D01*
X36852809Y6586372D01*
X36846256Y6592824D01*
X36839093Y6598666D01*
X36831473Y6603847D01*
X36823396Y6608318D01*
X36815014Y6612077D01*
X36806276Y6615074D01*
X36797335Y6617309D01*
X36788191Y6618731D01*
X36778996Y6619341D01*
G37*
G36*
X36774374Y5679541D02*
G01*
X36765179Y5678932D01*
X36756086Y5677509D01*
X36747094Y5675274D01*
X36742725Y5673902D01*
X36734140Y5670499D01*
X36725860Y5666384D01*
X36718036Y5661507D01*
X36710620Y5656021D01*
X36703762Y5649874D01*
X36697462Y5643118D01*
X36691773Y5635853D01*
X36686744Y5628081D01*
X36682426Y5619953D01*
X36678870Y5611469D01*
X36677346Y5607100D01*
X36674958Y5598160D01*
X36673332Y5589117D01*
X36672520Y5579922D01*
X36672520Y5570677D01*
X36673332Y5561482D01*
X36674958Y5552440D01*
X36677346Y5543499D01*
X36680546Y5534863D01*
X36684508Y5526532D01*
X36689182Y5518556D01*
X36694567Y5511038D01*
X36700561Y5504027D01*
X36707114Y5497576D01*
X36714277Y5491734D01*
X36721897Y5486552D01*
X36729974Y5482082D01*
X36738407Y5478322D01*
X36742725Y5476697D01*
X36751564Y5474106D01*
X36760607Y5472277D01*
X36769751Y5471261D01*
X36778996Y5471058D01*
X36788191Y5471668D01*
X36797335Y5473090D01*
X36806276Y5475325D01*
X36815014Y5478322D01*
X36823396Y5482082D01*
X36831473Y5486552D01*
X36839093Y5491734D01*
X36846256Y5497576D01*
X36852809Y5504027D01*
X36858854Y5511038D01*
X36864188Y5518556D01*
X36868862Y5526532D01*
X36872824Y5534863D01*
X36876024Y5543499D01*
X36878412Y5552440D01*
X36880038Y5561482D01*
X36880850Y5570677D01*
X36880850Y5579922D01*
X36880038Y5589117D01*
X36878412Y5598160D01*
X36876024Y5607100D01*
X36872824Y5615736D01*
X36868862Y5624068D01*
X36864188Y5632043D01*
X36858854Y5639562D01*
X36852809Y5646572D01*
X36846256Y5653024D01*
X36839093Y5658866D01*
X36831473Y5664047D01*
X36823396Y5668518D01*
X36815014Y5672277D01*
X36806276Y5675274D01*
X36797335Y5677509D01*
X36788191Y5678932D01*
X36778996Y5679541D01*
G37*
G36*
X25244755Y7533741D02*
G01*
X25235560Y7533131D01*
X25226467Y7531709D01*
X25217475Y7529474D01*
X25213106Y7528102D01*
X25204521Y7524699D01*
X25196241Y7520584D01*
X25188418Y7515707D01*
X25181001Y7510221D01*
X25174143Y7504074D01*
X25167844Y7497318D01*
X25162154Y7490053D01*
X25157125Y7482281D01*
X25152807Y7474153D01*
X25149251Y7465669D01*
X25147727Y7461300D01*
X25145339Y7452359D01*
X25143714Y7443317D01*
X25142901Y7434122D01*
X25142901Y7424877D01*
X25143714Y7415682D01*
X25145339Y7406640D01*
X25147727Y7397699D01*
X25150927Y7389063D01*
X25154890Y7380731D01*
X25159563Y7372756D01*
X25164948Y7365238D01*
X25170942Y7358227D01*
X25177496Y7351775D01*
X25184658Y7345934D01*
X25192278Y7340752D01*
X25200356Y7336281D01*
X25208788Y7332522D01*
X25213106Y7330897D01*
X25221946Y7328306D01*
X25230988Y7326477D01*
X25240132Y7325461D01*
X25249378Y7325258D01*
X25258572Y7325868D01*
X25267716Y7327290D01*
X25276657Y7329525D01*
X25285395Y7332522D01*
X25293777Y7336281D01*
X25301854Y7340752D01*
X25309474Y7345934D01*
X25316637Y7351775D01*
X25323190Y7358227D01*
X25329235Y7365238D01*
X25334569Y7372756D01*
X25339243Y7380731D01*
X25343205Y7389063D01*
X25346406Y7397699D01*
X25348793Y7406640D01*
X25350419Y7415682D01*
X25351232Y7424877D01*
X25351232Y7434122D01*
X25350419Y7443317D01*
X25348793Y7452359D01*
X25346406Y7461300D01*
X25343205Y7469936D01*
X25339243Y7478268D01*
X25334569Y7486243D01*
X25329235Y7493762D01*
X25323190Y7500772D01*
X25316637Y7507224D01*
X25309474Y7513066D01*
X25301854Y7518247D01*
X25293777Y7522718D01*
X25285395Y7526477D01*
X25276657Y7529474D01*
X25267716Y7531709D01*
X25258572Y7533131D01*
X25249378Y7533741D01*
G37*
G36*
X25244755Y6619341D02*
G01*
X25235560Y6618731D01*
X25226467Y6617309D01*
X25217475Y6615074D01*
X25213106Y6613702D01*
X25204521Y6610299D01*
X25196241Y6606184D01*
X25188418Y6601307D01*
X25181001Y6595821D01*
X25174143Y6589674D01*
X25167844Y6582918D01*
X25162154Y6575653D01*
X25157125Y6567881D01*
X25152807Y6559753D01*
X25149251Y6551269D01*
X25147727Y6546900D01*
X25145339Y6537959D01*
X25143714Y6528917D01*
X25142901Y6519722D01*
X25142901Y6510477D01*
X25143714Y6501282D01*
X25145339Y6492240D01*
X25147727Y6483299D01*
X25150927Y6474663D01*
X25154890Y6466332D01*
X25159563Y6458356D01*
X25164948Y6450838D01*
X25170942Y6443827D01*
X25177496Y6437376D01*
X25184658Y6431534D01*
X25192278Y6426352D01*
X25200356Y6421882D01*
X25208788Y6418122D01*
X25213106Y6416497D01*
X25221946Y6413906D01*
X25230988Y6412077D01*
X25240132Y6411061D01*
X25249378Y6410858D01*
X25258572Y6411468D01*
X25267716Y6412890D01*
X25276657Y6415125D01*
X25285395Y6418122D01*
X25293777Y6421882D01*
X25301854Y6426352D01*
X25309474Y6431534D01*
X25316637Y6437376D01*
X25323190Y6443827D01*
X25329235Y6450838D01*
X25334569Y6458356D01*
X25339243Y6466332D01*
X25343205Y6474663D01*
X25346406Y6483299D01*
X25348793Y6492240D01*
X25350419Y6501282D01*
X25351232Y6510477D01*
X25351232Y6519722D01*
X25350419Y6528917D01*
X25348793Y6537959D01*
X25346406Y6546900D01*
X25343205Y6555536D01*
X25339243Y6563868D01*
X25334569Y6571843D01*
X25329235Y6579362D01*
X25323190Y6586372D01*
X25316637Y6592824D01*
X25309474Y6598666D01*
X25301854Y6603847D01*
X25293777Y6608318D01*
X25285395Y6612077D01*
X25276657Y6615074D01*
X25267716Y6617309D01*
X25258572Y6618731D01*
X25249378Y6619341D01*
G37*
G36*
X25244755Y5679541D02*
G01*
X25235560Y5678932D01*
X25226467Y5677509D01*
X25217475Y5675274D01*
X25213106Y5673902D01*
X25204521Y5670499D01*
X25196241Y5666384D01*
X25188418Y5661507D01*
X25181001Y5656021D01*
X25174143Y5649874D01*
X25167844Y5643118D01*
X25162154Y5635853D01*
X25157125Y5628081D01*
X25152807Y5619953D01*
X25149251Y5611469D01*
X25147727Y5607100D01*
X25145339Y5598160D01*
X25143714Y5589117D01*
X25142901Y5579922D01*
X25142901Y5570677D01*
X25143714Y5561482D01*
X25145339Y5552440D01*
X25147727Y5543499D01*
X25150927Y5534863D01*
X25154890Y5526532D01*
X25159563Y5518556D01*
X25164948Y5511038D01*
X25170942Y5504027D01*
X25177496Y5497576D01*
X25184658Y5491734D01*
X25192278Y5486552D01*
X25200356Y5482082D01*
X25208788Y5478322D01*
X25213106Y5476697D01*
X25221946Y5474106D01*
X25230988Y5472277D01*
X25240132Y5471261D01*
X25249378Y5471058D01*
X25258572Y5471668D01*
X25267716Y5473090D01*
X25276657Y5475325D01*
X25285395Y5478322D01*
X25293777Y5482082D01*
X25301854Y5486552D01*
X25309474Y5491734D01*
X25316637Y5497576D01*
X25323190Y5504027D01*
X25329235Y5511038D01*
X25334569Y5518556D01*
X25339243Y5526532D01*
X25343205Y5534863D01*
X25346406Y5543499D01*
X25348793Y5552440D01*
X25350419Y5561482D01*
X25351232Y5570677D01*
X25351232Y5579922D01*
X25350419Y5589117D01*
X25348793Y5598160D01*
X25346406Y5607100D01*
X25343205Y5615736D01*
X25339243Y5624068D01*
X25334569Y5632043D01*
X25329235Y5639562D01*
X25323190Y5646572D01*
X25316637Y5653024D01*
X25309474Y5658866D01*
X25301854Y5664047D01*
X25293777Y5668518D01*
X25285395Y5672277D01*
X25276657Y5675274D01*
X25267716Y5677509D01*
X25258572Y5678932D01*
X25249378Y5679541D01*
G37*
G36*
X13715187Y6619341D02*
G01*
X13705941Y6618731D01*
X13696848Y6617309D01*
X13687907Y6615074D01*
X13683488Y6613702D01*
X13674902Y6610299D01*
X13666673Y6606184D01*
X13658799Y6601307D01*
X13651433Y6595821D01*
X13644575Y6589674D01*
X13638276Y6582918D01*
X13632586Y6575653D01*
X13627557Y6567881D01*
X13623239Y6559753D01*
X13619683Y6551269D01*
X13616838Y6542481D01*
X13614806Y6533438D01*
X13613587Y6524294D01*
X13613180Y6515100D01*
X13613587Y6505905D01*
X13614806Y6496761D01*
X13616838Y6487718D01*
X13619683Y6478930D01*
X13623239Y6470446D01*
X13627557Y6462318D01*
X13632586Y6454546D01*
X13638276Y6447282D01*
X13644575Y6440525D01*
X13651433Y6434378D01*
X13658799Y6428892D01*
X13666673Y6424015D01*
X13674902Y6419900D01*
X13683488Y6416497D01*
X13692327Y6413906D01*
X13701369Y6412077D01*
X13710564Y6411061D01*
X13719759Y6410858D01*
X13729004Y6411468D01*
X13738098Y6412890D01*
X13747038Y6415125D01*
X13751458Y6416497D01*
X13760043Y6419900D01*
X13768273Y6424015D01*
X13776147Y6428892D01*
X13783513Y6434378D01*
X13790371Y6440525D01*
X13796721Y6447282D01*
X13802360Y6454546D01*
X13807389Y6462318D01*
X13811707Y6470446D01*
X13815313Y6478930D01*
X13818107Y6487718D01*
X13820140Y6496761D01*
X13821359Y6505905D01*
X13821765Y6515100D01*
X13821359Y6524294D01*
X13820140Y6533438D01*
X13818107Y6542481D01*
X13815313Y6551269D01*
X13811707Y6559753D01*
X13807389Y6567881D01*
X13802360Y6575653D01*
X13796721Y6582918D01*
X13790371Y6589674D01*
X13783513Y6595821D01*
X13776147Y6601307D01*
X13768273Y6606184D01*
X13760043Y6610299D01*
X13751458Y6613702D01*
X13742619Y6616293D01*
X13733576Y6618122D01*
X13724382Y6619138D01*
G37*
G36*
X14362887Y6619341D02*
G01*
X14353641Y6618731D01*
X14344548Y6617309D01*
X14335607Y6615074D01*
X14331188Y6613702D01*
X14322602Y6610299D01*
X14314373Y6606184D01*
X14306499Y6601307D01*
X14299133Y6595821D01*
X14292275Y6589674D01*
X14285976Y6582918D01*
X14280286Y6575653D01*
X14275257Y6567881D01*
X14270939Y6559753D01*
X14267383Y6551269D01*
X14264538Y6542481D01*
X14262506Y6533438D01*
X14261287Y6524294D01*
X14260880Y6515100D01*
X14261287Y6505905D01*
X14262506Y6496761D01*
X14264538Y6487718D01*
X14267383Y6478930D01*
X14270939Y6470446D01*
X14275257Y6462318D01*
X14280286Y6454546D01*
X14285976Y6447282D01*
X14292275Y6440525D01*
X14299133Y6434378D01*
X14306499Y6428892D01*
X14314373Y6424015D01*
X14322602Y6419900D01*
X14331188Y6416497D01*
X14340027Y6413906D01*
X14349069Y6412077D01*
X14358264Y6411061D01*
X14367459Y6410858D01*
X14376704Y6411468D01*
X14385798Y6412890D01*
X14394738Y6415125D01*
X14399158Y6416497D01*
X14407743Y6419900D01*
X14415973Y6424015D01*
X14423847Y6428892D01*
X14431213Y6434378D01*
X14438071Y6440525D01*
X14444421Y6447282D01*
X14450060Y6454546D01*
X14455089Y6462318D01*
X14459407Y6470446D01*
X14463013Y6478930D01*
X14465807Y6487718D01*
X14467840Y6496761D01*
X14469059Y6505905D01*
X14469465Y6515100D01*
X14469059Y6524294D01*
X14467840Y6533438D01*
X14465807Y6542481D01*
X14463013Y6551269D01*
X14459407Y6559753D01*
X14455089Y6567881D01*
X14450060Y6575653D01*
X14444421Y6582918D01*
X14438071Y6589674D01*
X14431213Y6595821D01*
X14423847Y6601307D01*
X14415973Y6606184D01*
X14407743Y6610299D01*
X14399158Y6613702D01*
X14390319Y6616293D01*
X14381276Y6618122D01*
X14372082Y6619138D01*
G37*
G36*
X39428674Y8117941D02*
G01*
X39419479Y8117331D01*
X39410386Y8115909D01*
X39401394Y8113674D01*
X39397025Y8112302D01*
X39388440Y8108899D01*
X39380160Y8104784D01*
X39372336Y8099907D01*
X39364920Y8094421D01*
X39358062Y8088274D01*
X39351762Y8081518D01*
X39346073Y8074253D01*
X39341044Y8066481D01*
X39336726Y8058353D01*
X39333170Y8049869D01*
X39331646Y8045500D01*
X39329258Y8036559D01*
X39327632Y8027517D01*
X39326820Y8018322D01*
X39326820Y8009077D01*
X39327632Y7999882D01*
X39329258Y7990840D01*
X39331646Y7981899D01*
X39334846Y7973263D01*
X39338808Y7964931D01*
X39343482Y7956956D01*
X39348867Y7949438D01*
X39354861Y7942427D01*
X39361414Y7935975D01*
X39368577Y7930134D01*
X39376197Y7924952D01*
X39384274Y7920481D01*
X39392707Y7916722D01*
X39397025Y7915097D01*
X39405864Y7912506D01*
X39414907Y7910677D01*
X39424051Y7909661D01*
X39433296Y7909458D01*
X39442491Y7910068D01*
X39451635Y7911490D01*
X39460576Y7913725D01*
X39469314Y7916722D01*
X39477696Y7920481D01*
X39485773Y7924952D01*
X39493393Y7930134D01*
X39500556Y7935975D01*
X39507109Y7942427D01*
X39513154Y7949438D01*
X39518488Y7956956D01*
X39523162Y7964931D01*
X39527124Y7973263D01*
X39530324Y7981899D01*
X39532712Y7990840D01*
X39534338Y7999882D01*
X39535150Y8009077D01*
X39535150Y8018322D01*
X39534338Y8027517D01*
X39532712Y8036559D01*
X39530324Y8045500D01*
X39527124Y8054136D01*
X39523162Y8062468D01*
X39518488Y8070443D01*
X39513154Y8077962D01*
X39507109Y8084972D01*
X39500556Y8091424D01*
X39493393Y8097266D01*
X39485773Y8102447D01*
X39477696Y8106918D01*
X39469314Y8110677D01*
X39460576Y8113674D01*
X39451635Y8115909D01*
X39442491Y8117331D01*
X39433296Y8117941D01*
G37*
G36*
X35585501Y8117941D02*
G01*
X35576256Y8117331D01*
X35567162Y8115909D01*
X35558222Y8113674D01*
X35553802Y8112302D01*
X35545217Y8108899D01*
X35536987Y8104784D01*
X35529113Y8099907D01*
X35521747Y8094421D01*
X35514889Y8088274D01*
X35508590Y8081518D01*
X35502900Y8074253D01*
X35497871Y8066481D01*
X35493553Y8058353D01*
X35489997Y8049869D01*
X35487152Y8041081D01*
X35485120Y8032038D01*
X35483901Y8022894D01*
X35483495Y8013700D01*
X35483901Y8004505D01*
X35485120Y7995361D01*
X35487152Y7986318D01*
X35489997Y7977530D01*
X35493553Y7969046D01*
X35497871Y7960918D01*
X35502900Y7953146D01*
X35508590Y7945881D01*
X35514889Y7939125D01*
X35521747Y7932978D01*
X35529113Y7927492D01*
X35536987Y7922615D01*
X35545217Y7918500D01*
X35553802Y7915097D01*
X35562641Y7912506D01*
X35571684Y7910677D01*
X35580878Y7909661D01*
X35590073Y7909458D01*
X35599319Y7910068D01*
X35608412Y7911490D01*
X35617353Y7913725D01*
X35621772Y7915097D01*
X35630358Y7918500D01*
X35638587Y7922615D01*
X35646461Y7927492D01*
X35653827Y7932978D01*
X35660685Y7939125D01*
X35667035Y7945881D01*
X35672674Y7953146D01*
X35677703Y7960918D01*
X35682021Y7969046D01*
X35685628Y7977530D01*
X35688422Y7986318D01*
X35690454Y7995361D01*
X35691673Y8004505D01*
X35692080Y8013700D01*
X35691673Y8022894D01*
X35690454Y8032038D01*
X35688422Y8041081D01*
X35685628Y8049869D01*
X35682021Y8058353D01*
X35677703Y8066481D01*
X35672674Y8074253D01*
X35667035Y8081518D01*
X35660685Y8088274D01*
X35653827Y8094421D01*
X35646461Y8099907D01*
X35638587Y8104784D01*
X35630358Y8108899D01*
X35621772Y8112302D01*
X35612933Y8114893D01*
X35603891Y8116722D01*
X35594696Y8117738D01*
G37*
G36*
X27899106Y8117941D02*
G01*
X27889860Y8117331D01*
X27880767Y8115909D01*
X27871826Y8113674D01*
X27867406Y8112302D01*
X27858821Y8108899D01*
X27850592Y8104784D01*
X27842718Y8099907D01*
X27835352Y8094421D01*
X27828494Y8088274D01*
X27822194Y8081518D01*
X27816505Y8074253D01*
X27811476Y8066481D01*
X27807158Y8058353D01*
X27803602Y8049869D01*
X27800757Y8041081D01*
X27798725Y8032038D01*
X27797506Y8022894D01*
X27797099Y8013700D01*
X27797506Y8004505D01*
X27798725Y7995361D01*
X27800757Y7986318D01*
X27803602Y7977530D01*
X27807158Y7969046D01*
X27811476Y7960918D01*
X27816505Y7953146D01*
X27822194Y7945881D01*
X27828494Y7939125D01*
X27835352Y7932978D01*
X27842718Y7927492D01*
X27850592Y7922615D01*
X27858821Y7918500D01*
X27867406Y7915097D01*
X27876246Y7912506D01*
X27885288Y7910677D01*
X27894483Y7909661D01*
X27903677Y7909458D01*
X27912923Y7910068D01*
X27922016Y7911490D01*
X27930957Y7913725D01*
X27935377Y7915097D01*
X27943962Y7918500D01*
X27952192Y7922615D01*
X27960065Y7927492D01*
X27967432Y7932978D01*
X27974289Y7939125D01*
X27980639Y7945881D01*
X27986278Y7953146D01*
X27991308Y7960918D01*
X27995626Y7969046D01*
X27999232Y7977530D01*
X28002026Y7986318D01*
X28004058Y7995361D01*
X28005277Y8004505D01*
X28005684Y8013700D01*
X28005277Y8022894D01*
X28004058Y8032038D01*
X28002026Y8041081D01*
X27999232Y8049869D01*
X27995626Y8058353D01*
X27991308Y8066481D01*
X27986278Y8074253D01*
X27980639Y8081518D01*
X27974289Y8088274D01*
X27967432Y8094421D01*
X27960065Y8099907D01*
X27952192Y8104784D01*
X27943962Y8108899D01*
X27935377Y8112302D01*
X27926538Y8114893D01*
X27917495Y8116722D01*
X27908300Y8117738D01*
G37*
G36*
X20212659Y8117941D02*
G01*
X20203464Y8117331D01*
X20194371Y8115909D01*
X20185380Y8113674D01*
X20181011Y8112302D01*
X20172426Y8108899D01*
X20164145Y8104784D01*
X20156322Y8099907D01*
X20148905Y8094421D01*
X20142047Y8088274D01*
X20135748Y8081518D01*
X20130058Y8074253D01*
X20125029Y8066481D01*
X20120711Y8058353D01*
X20117155Y8049869D01*
X20115631Y8045500D01*
X20113244Y8036559D01*
X20111618Y8027517D01*
X20110805Y8018322D01*
X20110805Y8009077D01*
X20111618Y7999882D01*
X20113244Y7990840D01*
X20115631Y7981899D01*
X20118832Y7973263D01*
X20122794Y7964931D01*
X20127468Y7956956D01*
X20132852Y7949438D01*
X20138847Y7942427D01*
X20145400Y7935975D01*
X20152563Y7930134D01*
X20160183Y7924952D01*
X20168260Y7920481D01*
X20176693Y7916722D01*
X20181011Y7915097D01*
X20189850Y7912506D01*
X20198892Y7910677D01*
X20208036Y7909661D01*
X20217282Y7909458D01*
X20226477Y7910068D01*
X20235621Y7911490D01*
X20244562Y7913725D01*
X20253299Y7916722D01*
X20261681Y7920481D01*
X20269758Y7924952D01*
X20277378Y7930134D01*
X20284541Y7935975D01*
X20291094Y7942427D01*
X20297140Y7949438D01*
X20302474Y7956956D01*
X20307147Y7964931D01*
X20311110Y7973263D01*
X20314310Y7981899D01*
X20316698Y7990840D01*
X20318323Y7999882D01*
X20319136Y8009077D01*
X20319136Y8018322D01*
X20318323Y8027517D01*
X20316698Y8036559D01*
X20314310Y8045500D01*
X20311110Y8054136D01*
X20307147Y8062468D01*
X20302474Y8070443D01*
X20297140Y8077962D01*
X20291094Y8084972D01*
X20284541Y8091424D01*
X20277378Y8097266D01*
X20269758Y8102447D01*
X20261681Y8106918D01*
X20253299Y8110677D01*
X20244562Y8113674D01*
X20235621Y8115909D01*
X20226477Y8117331D01*
X20217282Y8117941D01*
G37*
M02*
