G04 Layer: BottomSilkscreenLayer*
G04 EasyEDA v6.5.34, 2023-08-21 18:11:39*
G04 7820172c1e5c4a8f996b360b20b43df3,5a6b42c53f6a479593ecc07194224c93,10*
G04 Gerber Generator version 0.2*
G04 Scale: 100 percent, Rotated: No, Reflected: No *
G04 Dimensions in millimeters *
G04 leading zeros omitted , absolute positions ,4 integer and 5 decimal *
%FSLAX45Y45*%
%MOMM*%

%ADD10C,0.2032*%
%ADD11C,0.1520*%
%ADD12C,0.2540*%

%LPD*%
D10*
X40872308Y197289D02*
G01*
X40872308Y82745D01*
X40872308Y197289D02*
G01*
X40823217Y197289D01*
X40806855Y191836D01*
X40801399Y186382D01*
X40795945Y175473D01*
X40795945Y159108D01*
X40801399Y148199D01*
X40806855Y142745D01*
X40823217Y137289D01*
X40872308Y137289D01*
X40716308Y197289D02*
G01*
X40759943Y82745D01*
X40716308Y197289D02*
G01*
X40672672Y82745D01*
X40743581Y120926D02*
G01*
X40689037Y120926D01*
X40636672Y197289D02*
G01*
X40636672Y82745D01*
X40636672Y197289D02*
G01*
X40587582Y197289D01*
X40571219Y191836D01*
X40565763Y186382D01*
X40560309Y175473D01*
X40560309Y164564D01*
X40565763Y153654D01*
X40571219Y148199D01*
X40587582Y142745D01*
X40636672Y142745D01*
X40598491Y142745D02*
G01*
X40560309Y82745D01*
X40486126Y197289D02*
G01*
X40486126Y82745D01*
X40524309Y197289D02*
G01*
X40447945Y197289D01*
X40327945Y197289D02*
G01*
X40327945Y82745D01*
X40327945Y197289D02*
G01*
X40251583Y82745D01*
X40251583Y197289D02*
G01*
X40251583Y82745D01*
X40215581Y197289D02*
G01*
X40215581Y115473D01*
X40210127Y99108D01*
X40199218Y88199D01*
X40182855Y82745D01*
X40171946Y82745D01*
X40155581Y88199D01*
X40144674Y99108D01*
X40139218Y115473D01*
X40139218Y197289D01*
X40103219Y197289D02*
G01*
X40103219Y82745D01*
X40103219Y197289D02*
G01*
X40059582Y82745D01*
X40015947Y197289D02*
G01*
X40059582Y82745D01*
X40015947Y197289D02*
G01*
X40015947Y82745D01*
X39979945Y197289D02*
G01*
X39979945Y82745D01*
X39979945Y197289D02*
G01*
X39930854Y197289D01*
X39914492Y191836D01*
X39909038Y186382D01*
X39903582Y175473D01*
X39903582Y164564D01*
X39909038Y153654D01*
X39914492Y148199D01*
X39930854Y142745D01*
X39979945Y142745D02*
G01*
X39930854Y142745D01*
X39914492Y137289D01*
X39909038Y131836D01*
X39903582Y120926D01*
X39903582Y104564D01*
X39909038Y93654D01*
X39914492Y88199D01*
X39930854Y82745D01*
X39979945Y82745D01*
X39867583Y197289D02*
G01*
X39867583Y82745D01*
X39867583Y197289D02*
G01*
X39796674Y197289D01*
X39867583Y142745D02*
G01*
X39823946Y142745D01*
X39867583Y82745D02*
G01*
X39796674Y82745D01*
X39760674Y197289D02*
G01*
X39760674Y82745D01*
X39760674Y197289D02*
G01*
X39711584Y197289D01*
X39695219Y191836D01*
X39689765Y186382D01*
X39684309Y175473D01*
X39684309Y164564D01*
X39689765Y153654D01*
X39695219Y148199D01*
X39711584Y142745D01*
X39760674Y142745D01*
X39722493Y142745D02*
G01*
X39684309Y82745D01*
X39564309Y175473D02*
G01*
X39553400Y180926D01*
X39537038Y197289D01*
X39537038Y82745D01*
X39473766Y197289D02*
G01*
X39490129Y191836D01*
X39495582Y180926D01*
X39495582Y170017D01*
X39490129Y159108D01*
X39479220Y153654D01*
X39457401Y148199D01*
X39441038Y142745D01*
X39430129Y131836D01*
X39424676Y120926D01*
X39424676Y104564D01*
X39430129Y93654D01*
X39435582Y88199D01*
X39451948Y82745D01*
X39473766Y82745D01*
X39490129Y88199D01*
X39495582Y93654D01*
X39501038Y104564D01*
X39501038Y120926D01*
X39495582Y131836D01*
X39484675Y142745D01*
X39468310Y148199D01*
X39446492Y153654D01*
X39435582Y159108D01*
X39430129Y170017D01*
X39430129Y180926D01*
X39435582Y191836D01*
X39451948Y197289D01*
X39473766Y197289D01*
X39323220Y197289D02*
G01*
X39377764Y197289D01*
X39383220Y148199D01*
X39377764Y153654D01*
X39361402Y159108D01*
X39345039Y159108D01*
X39328674Y153654D01*
X39317764Y142745D01*
X39312311Y126382D01*
X39312311Y115473D01*
X39317764Y99108D01*
X39328674Y88199D01*
X39345039Y82745D01*
X39361402Y82745D01*
X39377764Y88199D01*
X39383220Y93654D01*
X39388674Y104564D01*
X39221765Y197289D02*
G01*
X39276312Y120926D01*
X39194493Y120926D01*
X39221765Y197289D02*
G01*
X39221765Y82745D01*
X39158494Y131836D02*
G01*
X39060313Y131836D01*
X38991585Y197289D02*
G01*
X39007948Y191836D01*
X39018857Y175473D01*
X39024311Y148199D01*
X39024311Y131836D01*
X39018857Y104564D01*
X39007948Y88199D01*
X38991585Y82745D01*
X38980676Y82745D01*
X38964311Y88199D01*
X38953401Y104564D01*
X38947948Y131836D01*
X38947948Y148199D01*
X38953401Y175473D01*
X38964311Y191836D01*
X38980676Y197289D01*
X38991585Y197289D01*
X38911949Y175473D02*
G01*
X38901039Y180926D01*
X38884677Y197289D01*
X38884677Y82745D01*
X38815949Y197289D02*
G01*
X38832312Y191836D01*
X38843221Y175473D01*
X38848675Y148199D01*
X38848675Y131836D01*
X38843221Y104564D01*
X38832312Y88199D01*
X38815949Y82745D01*
X38805040Y82745D01*
X38788675Y88199D01*
X38777765Y104564D01*
X38772312Y131836D01*
X38772312Y148199D01*
X38777765Y175473D01*
X38788675Y191836D01*
X38805040Y197289D01*
X38815949Y197289D01*
X38736313Y175473D02*
G01*
X38725403Y180926D01*
X38709041Y197289D01*
X38709041Y82745D01*
X38589041Y197289D02*
G01*
X38545404Y82745D01*
X38501767Y197289D02*
G01*
X38545404Y82745D01*
X38433039Y197289D02*
G01*
X38449404Y191836D01*
X38460314Y175473D01*
X38465767Y148199D01*
X38465767Y131836D01*
X38460314Y104564D01*
X38449404Y88199D01*
X38433039Y82745D01*
X38422130Y82745D01*
X38405767Y88199D01*
X38394858Y104564D01*
X38389405Y131836D01*
X38389405Y148199D01*
X38394858Y175473D01*
X38405767Y191836D01*
X38422130Y197289D01*
X38433039Y197289D01*
X38347949Y110017D02*
G01*
X38353403Y104564D01*
X38347949Y99108D01*
X38342496Y104564D01*
X38347949Y110017D01*
X38301041Y170017D02*
G01*
X38301041Y175473D01*
X38295585Y186382D01*
X38290131Y191836D01*
X38279222Y197289D01*
X38257403Y197289D01*
X38246494Y191836D01*
X38241041Y186382D01*
X38235585Y175473D01*
X38235585Y164564D01*
X38241041Y153654D01*
X38251950Y137289D01*
X38306494Y82745D01*
X38230131Y82745D01*
X40790489Y373217D02*
G01*
X40795945Y384126D01*
X40806855Y395036D01*
X40817761Y400489D01*
X40839580Y400489D01*
X40850489Y395036D01*
X40861399Y384126D01*
X40866855Y373217D01*
X40872308Y356854D01*
X40872308Y329582D01*
X40866855Y313217D01*
X40861399Y302308D01*
X40850489Y291399D01*
X40839580Y285945D01*
X40817761Y285945D01*
X40806855Y291399D01*
X40795945Y302308D01*
X40790489Y313217D01*
X40790489Y329582D01*
X40817761Y329582D02*
G01*
X40790489Y329582D01*
X40754490Y400489D02*
G01*
X40754490Y285945D01*
X40754490Y400489D02*
G01*
X40683581Y400489D01*
X40754490Y345945D02*
G01*
X40710853Y345945D01*
X40754490Y285945D02*
G01*
X40683581Y285945D01*
X40647581Y400489D02*
G01*
X40647581Y285945D01*
X40647581Y400489D02*
G01*
X40571219Y285945D01*
X40571219Y400489D02*
G01*
X40571219Y285945D01*
X40535217Y400489D02*
G01*
X40535217Y285945D01*
X40535217Y400489D02*
G01*
X40464309Y400489D01*
X40535217Y345945D02*
G01*
X40491582Y345945D01*
X40535217Y285945D02*
G01*
X40464309Y285945D01*
X40428308Y400489D02*
G01*
X40428308Y285945D01*
X40428308Y400489D02*
G01*
X40379218Y400489D01*
X40362855Y395036D01*
X40357399Y389582D01*
X40351946Y378673D01*
X40351946Y367764D01*
X40357399Y356854D01*
X40362855Y351399D01*
X40379218Y345945D01*
X40428308Y345945D01*
X40390127Y345945D02*
G01*
X40351946Y285945D01*
X40272309Y400489D02*
G01*
X40315946Y285945D01*
X40272309Y400489D02*
G01*
X40228672Y285945D01*
X40299581Y324126D02*
G01*
X40245037Y324126D01*
X40154491Y400489D02*
G01*
X40154491Y285945D01*
X40192672Y400489D02*
G01*
X40116310Y400489D01*
X40047583Y400489D02*
G01*
X40058492Y395036D01*
X40069401Y384126D01*
X40074855Y373217D01*
X40080311Y356854D01*
X40080311Y329582D01*
X40074855Y313217D01*
X40069401Y302308D01*
X40058492Y291399D01*
X40047583Y285945D01*
X40025764Y285945D01*
X40014855Y291399D01*
X40003945Y302308D01*
X39998492Y313217D01*
X39993036Y329582D01*
X39993036Y356854D01*
X39998492Y373217D01*
X40003945Y384126D01*
X40014855Y395036D01*
X40025764Y400489D01*
X40047583Y400489D01*
X39957037Y400489D02*
G01*
X39957037Y285945D01*
X39957037Y400489D02*
G01*
X39907946Y400489D01*
X39891583Y395036D01*
X39886127Y389582D01*
X39880674Y378673D01*
X39880674Y367764D01*
X39886127Y356854D01*
X39891583Y351399D01*
X39907946Y345945D01*
X39957037Y345945D01*
X39918855Y345945D02*
G01*
X39880674Y285945D01*
X39760674Y400489D02*
G01*
X39760674Y285945D01*
X39760674Y400489D02*
G01*
X39689765Y400489D01*
X39760674Y345945D02*
G01*
X39717037Y345945D01*
X39653766Y400489D02*
G01*
X39653766Y285945D01*
X39653766Y400489D02*
G01*
X39604675Y400489D01*
X39588310Y395036D01*
X39582857Y389582D01*
X39577401Y378673D01*
X39577401Y367764D01*
X39582857Y356854D01*
X39588310Y351399D01*
X39604675Y345945D01*
X39653766Y345945D01*
X39615582Y345945D02*
G01*
X39577401Y285945D01*
X39508673Y400489D02*
G01*
X39519583Y395036D01*
X39530492Y384126D01*
X39535948Y373217D01*
X39541401Y356854D01*
X39541401Y329582D01*
X39535948Y313217D01*
X39530492Y302308D01*
X39519583Y291399D01*
X39508673Y285945D01*
X39486857Y285945D01*
X39475948Y291399D01*
X39465039Y302308D01*
X39459583Y313217D01*
X39454129Y329582D01*
X39454129Y356854D01*
X39459583Y373217D01*
X39465039Y384126D01*
X39475948Y395036D01*
X39486857Y400489D01*
X39508673Y400489D01*
X39418130Y400489D02*
G01*
X39418130Y285945D01*
X39418130Y400489D02*
G01*
X39341765Y285945D01*
X39341765Y400489D02*
G01*
X39341765Y285945D01*
X39267584Y400489D02*
G01*
X39267584Y285945D01*
X39305765Y400489D02*
G01*
X39229403Y400489D01*
X39109403Y400489D02*
G01*
X39109403Y285945D01*
X39109403Y400489D02*
G01*
X39060313Y400489D01*
X39043947Y395036D01*
X39038494Y389582D01*
X39033038Y378673D01*
X39033038Y362308D01*
X39038494Y351399D01*
X39043947Y345945D01*
X39060313Y340489D01*
X39109403Y340489D01*
X38953401Y400489D02*
G01*
X38997039Y285945D01*
X38953401Y400489D02*
G01*
X38909767Y285945D01*
X38980676Y324126D02*
G01*
X38926129Y324126D01*
X38873767Y400489D02*
G01*
X38873767Y285945D01*
X38873767Y400489D02*
G01*
X38797402Y285945D01*
X38797402Y400489D02*
G01*
X38797402Y285945D01*
X38761403Y400489D02*
G01*
X38761403Y285945D01*
X38761403Y400489D02*
G01*
X38690494Y400489D01*
X38761403Y345945D02*
G01*
X38717766Y345945D01*
X38761403Y285945D02*
G01*
X38690494Y285945D01*
X38654494Y400489D02*
G01*
X38654494Y285945D01*
X38654494Y285945D02*
G01*
X38589041Y285945D01*
D11*
X47974143Y191551D02*
G01*
X47974143Y108424D01*
X47979340Y92837D01*
X47984534Y87642D01*
X47994925Y82448D01*
X48005316Y82448D01*
X48015707Y87642D01*
X48020904Y92837D01*
X48026099Y108424D01*
X48026099Y118816D01*
X47939853Y191551D02*
G01*
X47939853Y82448D01*
X47939853Y82448D02*
G01*
X47877509Y82448D01*
X47765286Y165574D02*
G01*
X47770483Y175966D01*
X47780874Y186357D01*
X47791263Y191551D01*
X47812045Y191551D01*
X47822436Y186357D01*
X47832827Y175966D01*
X47838024Y165574D01*
X47843219Y149987D01*
X47843219Y124010D01*
X47838024Y108424D01*
X47832827Y98033D01*
X47822436Y87642D01*
X47812045Y82448D01*
X47791263Y82448D01*
X47780874Y87642D01*
X47770483Y98033D01*
X47765286Y108424D01*
X47679043Y191551D02*
G01*
X47679043Y108424D01*
X47684237Y92837D01*
X47689434Y87642D01*
X47699823Y82448D01*
X47710214Y82448D01*
X47720605Y87642D01*
X47725802Y92837D01*
X47730996Y108424D01*
X47730996Y118816D01*
X47644753Y191551D02*
G01*
X47644753Y82448D01*
X47644753Y82448D02*
G01*
X47582406Y82448D01*
X47470184Y165574D02*
G01*
X47475381Y175966D01*
X47485772Y186357D01*
X47496163Y191551D01*
X47516943Y191551D01*
X47527334Y186357D01*
X47537725Y175966D01*
X47542922Y165574D01*
X47548116Y149987D01*
X47548116Y124010D01*
X47542922Y108424D01*
X47537725Y98033D01*
X47527334Y87642D01*
X47516943Y82448D01*
X47496163Y82448D01*
X47485772Y87642D01*
X47475381Y98033D01*
X47470184Y108424D01*
X47383941Y191551D02*
G01*
X47383941Y108424D01*
X47389135Y92837D01*
X47394332Y87642D01*
X47404723Y82448D01*
X47415114Y82448D01*
X47425503Y87642D01*
X47430700Y92837D01*
X47435894Y108424D01*
X47435894Y118816D01*
X47349651Y191551D02*
G01*
X47349651Y82448D01*
X47349651Y82448D02*
G01*
X47287304Y82448D01*
X47175084Y165574D02*
G01*
X47180279Y175966D01*
X47190670Y186357D01*
X47201061Y191551D01*
X47221843Y191551D01*
X47232234Y186357D01*
X47242623Y175966D01*
X47247820Y165574D01*
X47253014Y149987D01*
X47253014Y124010D01*
X47247820Y108424D01*
X47242623Y98033D01*
X47232234Y87642D01*
X47221843Y82448D01*
X47201061Y82448D01*
X47190670Y87642D01*
X47180279Y98033D01*
X47175084Y108424D01*
X47088839Y191551D02*
G01*
X47088839Y108424D01*
X47094033Y92837D01*
X47099230Y87642D01*
X47109621Y82448D01*
X47120012Y82448D01*
X47130403Y87642D01*
X47135597Y92837D01*
X47140794Y108424D01*
X47140794Y118816D01*
X47054549Y191551D02*
G01*
X47054549Y82448D01*
X47054549Y82448D02*
G01*
X46992204Y82448D01*
X46879982Y165574D02*
G01*
X46885176Y175966D01*
X46895567Y186357D01*
X46905959Y191551D01*
X46926741Y191551D01*
X46937132Y186357D01*
X46947523Y175966D01*
X46952717Y165574D01*
X46957914Y149987D01*
X46957914Y124010D01*
X46952717Y108424D01*
X46947523Y98033D01*
X46937132Y87642D01*
X46926741Y82448D01*
X46905959Y82448D01*
X46895567Y87642D01*
X46885176Y98033D01*
X46879982Y108424D01*
D12*
X3255192Y13115317D02*
G01*
X6557192Y13115317D01*
X6811192Y12861317D01*
X6811192Y8543317D01*
X6557192Y8289317D01*
X3255192Y8289317D01*
X3001192Y8543317D01*
X3001192Y12861317D01*
X3255192Y13115317D01*
X7098390Y13115317D02*
G01*
X10400390Y13115317D01*
X10654390Y12861317D01*
X10654390Y8543317D01*
X10400390Y8289317D01*
X7098390Y8289317D01*
X6844390Y8543317D01*
X6844390Y12861317D01*
X7098390Y13115317D01*
X37844001Y13115317D02*
G01*
X41146001Y13115317D01*
X41400001Y12861317D01*
X41400001Y8543317D01*
X41146001Y8289317D01*
X37844001Y8289317D01*
X37590001Y8543317D01*
X37590001Y12861317D01*
X37844001Y13115317D01*
X34000798Y13115317D02*
G01*
X37302798Y13115317D01*
X37556798Y12861317D01*
X37556798Y8543317D01*
X37302798Y8289317D01*
X34000798Y8289317D01*
X33746798Y8543317D01*
X33746798Y12861317D01*
X34000798Y13115317D01*
X30157597Y13115317D02*
G01*
X33459597Y13115317D01*
X33713597Y12861317D01*
X33713597Y8543317D01*
X33459597Y8289317D01*
X30157597Y8289317D01*
X29903597Y8543317D01*
X29903597Y12861317D01*
X30157597Y13115317D01*
X26314397Y13115317D02*
G01*
X29616397Y13115317D01*
X29870397Y12861317D01*
X29870397Y8543317D01*
X29616397Y8289317D01*
X26314397Y8289317D01*
X26060397Y8543317D01*
X26060397Y12861317D01*
X26314397Y13115317D01*
X22471194Y13115317D02*
G01*
X25773194Y13115317D01*
X26027194Y12861317D01*
X26027194Y8543317D01*
X25773194Y8289317D01*
X22471194Y8289317D01*
X22217194Y8543317D01*
X22217194Y12861317D01*
X22471194Y13115317D01*
X18627994Y13115317D02*
G01*
X21929994Y13115317D01*
X22183994Y12861317D01*
X22183994Y8543317D01*
X21929994Y8289317D01*
X18627994Y8289317D01*
X18373994Y8543317D01*
X18373994Y12861317D01*
X18627994Y13115317D01*
X14784793Y13115317D02*
G01*
X18086793Y13115317D01*
X18340793Y12861317D01*
X18340793Y8543317D01*
X18086793Y8289317D01*
X14784793Y8289317D01*
X14530793Y8543317D01*
X14530793Y12861317D01*
X14784793Y13115317D01*
X10941591Y13115317D02*
G01*
X14243591Y13115317D01*
X14497591Y12861317D01*
X14497591Y8543317D01*
X14243591Y8289317D01*
X10941591Y8289317D01*
X10687591Y8543317D01*
X10687591Y12861317D01*
X10941591Y13115317D01*
X0Y13299973D02*
G01*
X1799996Y13299973D01*
X1799996Y0D01*
X0Y0D01*
X0Y13299973D01*
X46463991Y13296900D02*
G01*
X48263987Y13296900D01*
X48263987Y-3073D01*
X46463991Y-3073D01*
X46463991Y13296900D01*
X7149211Y13102615D02*
G01*
X10349204Y13102615D01*
X10349204Y8702624D01*
X7149211Y8702624D01*
X7149211Y13102615D01*
X37894818Y13102615D02*
G01*
X41094812Y13102615D01*
X41094812Y8702624D01*
X37894818Y8702624D01*
X37894818Y13102615D01*
X34051621Y13102615D02*
G01*
X37251614Y13102615D01*
X37251614Y8702624D01*
X34051621Y8702624D01*
X34051621Y13102615D01*
X30208423Y13102615D02*
G01*
X33408416Y13102615D01*
X33408416Y8702624D01*
X30208423Y8702624D01*
X30208423Y13102615D01*
X26365225Y13102615D02*
G01*
X29565219Y13102615D01*
X29565219Y8702624D01*
X26365225Y8702624D01*
X26365225Y13102615D01*
X22522002Y13102615D02*
G01*
X25721995Y13102615D01*
X25721995Y8702624D01*
X22522002Y8702624D01*
X22522002Y13102615D01*
X18678804Y13102615D02*
G01*
X21878798Y13102615D01*
X21878798Y8702624D01*
X18678804Y8702624D01*
X18678804Y13102615D01*
X14835606Y13102615D02*
G01*
X18035600Y13102615D01*
X18035600Y8702624D01*
X14835606Y8702624D01*
X14835606Y13102615D01*
X10992408Y13102615D02*
G01*
X14192402Y13102615D01*
X14192402Y8702624D01*
X10992408Y8702624D01*
X10992408Y13102615D01*
X3306013Y13102615D02*
G01*
X6506006Y13102615D01*
X6506006Y8702624D01*
X3306013Y8702624D01*
X3306013Y13102615D01*
M02*
