G04 Layer: TopSilkscreenLayer*
G04 EasyEDA v6.5.34, 2023-10-02 19:34:43*
G04 cf508b81bd2f4e7eb0796556658b0c03,5a6b42c53f6a479593ecc07194224c93,10*
G04 Gerber Generator version 0.2*
G04 Scale: 100 percent, Rotated: No, Reflected: No *
G04 Dimensions in millimeters *
G04 leading zeros omitted , absolute positions ,4 integer and 5 decimal *
%FSLAX45Y45*%
%MOMM*%

%ADD10C,0.2032*%

%LPD*%
D10*
X40005000Y409447D02*
G01*
X39994077Y420370D01*
X39977822Y425957D01*
X39955977Y425957D01*
X39939722Y420370D01*
X39928800Y409447D01*
X39928800Y398526D01*
X39934134Y387604D01*
X39939722Y382270D01*
X39950643Y376681D01*
X39983156Y366013D01*
X39994077Y360426D01*
X39999666Y355092D01*
X40005000Y344170D01*
X40005000Y327660D01*
X39994077Y316737D01*
X39977822Y311404D01*
X39955977Y311404D01*
X39939722Y316737D01*
X39928800Y327660D01*
X40041068Y425957D02*
G01*
X40041068Y344170D01*
X40046656Y327660D01*
X40057324Y316737D01*
X40073834Y311404D01*
X40084756Y311404D01*
X40101011Y316737D01*
X40111934Y327660D01*
X40117522Y344170D01*
X40117522Y425957D01*
X40153336Y425957D02*
G01*
X40153336Y311404D01*
X40153336Y425957D02*
G01*
X40202611Y425957D01*
X40218868Y420370D01*
X40224456Y415036D01*
X40229790Y404113D01*
X40229790Y393192D01*
X40224456Y382270D01*
X40218868Y376681D01*
X40202611Y371347D01*
X40153336Y371347D02*
G01*
X40202611Y371347D01*
X40218868Y366013D01*
X40224456Y360426D01*
X40229790Y349504D01*
X40229790Y333247D01*
X40224456Y322326D01*
X40218868Y316737D01*
X40202611Y311404D01*
X40153336Y311404D01*
X40342058Y409447D02*
G01*
X40331390Y420370D01*
X40314879Y425957D01*
X40293036Y425957D01*
X40276779Y420370D01*
X40265858Y409447D01*
X40265858Y398526D01*
X40271191Y387604D01*
X40276779Y382270D01*
X40287702Y376681D01*
X40320468Y366013D01*
X40331390Y360426D01*
X40336724Y355092D01*
X40342058Y344170D01*
X40342058Y327660D01*
X40331390Y316737D01*
X40314879Y311404D01*
X40293036Y311404D01*
X40276779Y316737D01*
X40265858Y327660D01*
X40416479Y425957D02*
G01*
X40416479Y311404D01*
X40378125Y425957D02*
G01*
X40454579Y425957D01*
X40534082Y425957D02*
G01*
X40490648Y311404D01*
X40534082Y425957D02*
G01*
X40577770Y311404D01*
X40506904Y349504D02*
G01*
X40561513Y349504D01*
X40651938Y425957D02*
G01*
X40651938Y311404D01*
X40613838Y425957D02*
G01*
X40690291Y425957D01*
X40726106Y425957D02*
G01*
X40726106Y311404D01*
X40794940Y425957D02*
G01*
X40784018Y420370D01*
X40773096Y409447D01*
X40767508Y398526D01*
X40762174Y382270D01*
X40762174Y355092D01*
X40767508Y338581D01*
X40773096Y327660D01*
X40784018Y316737D01*
X40794940Y311404D01*
X40816784Y311404D01*
X40827706Y316737D01*
X40838627Y327660D01*
X40843961Y338581D01*
X40849550Y355092D01*
X40849550Y382270D01*
X40843961Y398526D01*
X40838627Y409447D01*
X40827706Y420370D01*
X40816784Y425957D01*
X40794940Y425957D01*
X40885363Y425957D02*
G01*
X40885363Y311404D01*
X40885363Y425957D02*
G01*
X40961818Y311404D01*
X40961818Y425957D02*
G01*
X40961818Y311404D01*
X41092627Y425957D02*
G01*
X41152825Y425957D01*
X41120059Y382270D01*
X41136316Y382270D01*
X41147238Y376681D01*
X41152825Y371347D01*
X41158159Y355092D01*
X41158159Y344170D01*
X41152825Y327660D01*
X41141904Y316737D01*
X41125393Y311404D01*
X41109138Y311404D01*
X41092627Y316737D01*
X41087293Y322326D01*
X41081706Y333247D01*
X41194227Y425957D02*
G01*
X41194227Y344170D01*
X41199561Y327660D01*
X41210484Y316737D01*
X41226993Y311404D01*
X41237916Y311404D01*
X41254172Y316737D01*
X41265093Y327660D01*
X41270427Y344170D01*
X41270427Y425957D01*
X41434258Y425957D02*
G01*
X41390570Y311404D01*
X41434258Y425957D02*
G01*
X41477691Y311404D01*
X41406825Y349504D02*
G01*
X41461436Y349504D01*
X41513759Y425957D02*
G01*
X41513759Y311404D01*
X41513759Y425957D02*
G01*
X41590213Y311404D01*
X41590213Y425957D02*
G01*
X41590213Y311404D01*
X41626282Y425957D02*
G01*
X41626282Y311404D01*
X41626282Y425957D02*
G01*
X41702482Y311404D01*
X41702482Y425957D02*
G01*
X41702482Y311404D01*
X41738550Y425957D02*
G01*
X41738550Y344170D01*
X41743884Y327660D01*
X41754806Y316737D01*
X41771316Y311404D01*
X41782238Y311404D01*
X41798493Y316737D01*
X41809416Y327660D01*
X41815004Y344170D01*
X41815004Y425957D01*
X41850818Y425957D02*
G01*
X41850818Y311404D01*
X41850818Y425957D02*
G01*
X41927272Y311404D01*
X41927272Y425957D02*
G01*
X41927272Y311404D01*
X42045127Y398526D02*
G01*
X42039540Y409447D01*
X42028618Y420370D01*
X42017696Y425957D01*
X41996106Y425957D01*
X41985184Y420370D01*
X41974261Y409447D01*
X41968674Y398526D01*
X41963340Y382270D01*
X41963340Y355092D01*
X41968674Y338581D01*
X41974261Y327660D01*
X41985184Y316737D01*
X41996106Y311404D01*
X42017696Y311404D01*
X42028618Y316737D01*
X42039540Y327660D01*
X42045127Y338581D01*
X42081196Y425957D02*
G01*
X42081196Y311404D01*
X42160698Y425957D02*
G01*
X42117009Y311404D01*
X42160698Y425957D02*
G01*
X42204386Y311404D01*
X42133520Y349504D02*
G01*
X42187875Y349504D01*
X42278554Y425957D02*
G01*
X42278554Y311404D01*
X42240454Y425957D02*
G01*
X42316654Y425957D01*
X42385488Y425957D02*
G01*
X42374566Y420370D01*
X42363643Y409447D01*
X42358056Y398526D01*
X42352722Y382270D01*
X42352722Y355092D01*
X42358056Y338581D01*
X42363643Y327660D01*
X42374566Y316737D01*
X42385488Y311404D01*
X42407332Y311404D01*
X42418254Y316737D01*
X42429175Y327660D01*
X42434509Y338581D01*
X42440098Y355092D01*
X42440098Y382270D01*
X42434509Y398526D01*
X42429175Y409447D01*
X42418254Y420370D01*
X42407332Y425957D01*
X42385488Y425957D01*
X42475911Y425957D02*
G01*
X42475911Y311404D01*
X42475911Y425957D02*
G01*
X42525188Y425957D01*
X42541443Y420370D01*
X42546777Y415036D01*
X42552366Y404113D01*
X42552366Y393192D01*
X42546777Y382270D01*
X42541443Y376681D01*
X42525188Y371347D01*
X42475911Y371347D01*
X42514266Y371347D02*
G01*
X42552366Y311404D01*
X42748708Y409447D02*
G01*
X42737786Y420370D01*
X42721529Y425957D01*
X42699686Y425957D01*
X42683175Y420370D01*
X42672254Y409447D01*
X42672254Y398526D01*
X42677841Y387604D01*
X42683175Y382270D01*
X42694098Y376681D01*
X42726863Y366013D01*
X42737786Y360426D01*
X42743374Y355092D01*
X42748708Y344170D01*
X42748708Y327660D01*
X42737786Y316737D01*
X42721529Y311404D01*
X42699686Y311404D01*
X42683175Y316737D01*
X42672254Y327660D01*
X42784775Y425957D02*
G01*
X42784775Y311404D01*
X42784775Y425957D02*
G01*
X42833798Y425957D01*
X42850054Y420370D01*
X42855641Y415036D01*
X42860975Y404113D01*
X42860975Y387604D01*
X42855641Y376681D01*
X42850054Y371347D01*
X42833798Y366013D01*
X42784775Y366013D01*
X42940732Y425957D02*
G01*
X42897043Y311404D01*
X42940732Y425957D02*
G01*
X42984420Y311404D01*
X42913554Y349504D02*
G01*
X42967909Y349504D01*
X43102275Y398526D02*
G01*
X43096688Y409447D01*
X43085766Y420370D01*
X43074843Y425957D01*
X43053000Y425957D01*
X43042077Y420370D01*
X43031156Y409447D01*
X43025822Y398526D01*
X43020234Y382270D01*
X43020234Y355092D01*
X43025822Y338581D01*
X43031156Y327660D01*
X43042077Y316737D01*
X43053000Y311404D01*
X43074843Y311404D01*
X43085766Y316737D01*
X43096688Y327660D01*
X43102275Y338581D01*
X43138090Y425957D02*
G01*
X43138090Y311404D01*
X43138090Y425957D02*
G01*
X43208956Y425957D01*
X43138090Y371347D02*
G01*
X43181777Y371347D01*
X43138090Y311404D02*
G01*
X43208956Y311404D01*
X43245024Y425957D02*
G01*
X43245024Y311404D01*
X43245024Y425957D02*
G01*
X43294046Y425957D01*
X43310556Y420370D01*
X43315890Y415036D01*
X43321477Y404113D01*
X43321477Y393192D01*
X43315890Y382270D01*
X43310556Y376681D01*
X43294046Y371347D01*
X43245024Y371347D01*
X43283377Y371347D02*
G01*
X43321477Y311404D01*
X43441366Y360426D02*
G01*
X43539663Y360426D01*
X43697906Y425957D02*
G01*
X43697906Y311404D01*
X43659552Y425957D02*
G01*
X43736006Y425957D01*
X43804586Y425957D02*
G01*
X43793918Y420370D01*
X43782996Y409447D01*
X43777408Y398526D01*
X43772074Y382270D01*
X43772074Y355092D01*
X43777408Y338581D01*
X43782996Y327660D01*
X43793918Y316737D01*
X43804586Y311404D01*
X43826429Y311404D01*
X43837352Y316737D01*
X43848274Y327660D01*
X43853861Y338581D01*
X43859196Y355092D01*
X43859196Y382270D01*
X43853861Y398526D01*
X43848274Y409447D01*
X43837352Y420370D01*
X43826429Y425957D01*
X43804586Y425957D01*
X43895263Y425957D02*
G01*
X43895263Y311404D01*
X43895263Y425957D02*
G01*
X43944286Y425957D01*
X43960796Y420370D01*
X43966129Y415036D01*
X43971718Y404113D01*
X43971718Y387604D01*
X43966129Y376681D01*
X43960796Y371347D01*
X43944286Y366013D01*
X43895263Y366013D01*
X41275000Y222757D02*
G01*
X41275000Y108204D01*
X41275000Y222757D02*
G01*
X41324022Y222757D01*
X41340277Y217170D01*
X41345866Y211836D01*
X41351200Y200913D01*
X41351200Y184404D01*
X41345866Y173481D01*
X41340277Y168147D01*
X41324022Y162813D01*
X41275000Y162813D01*
X41430956Y222757D02*
G01*
X41387268Y108204D01*
X41430956Y222757D02*
G01*
X41474643Y108204D01*
X41403524Y146304D02*
G01*
X41458134Y146304D01*
X41510458Y222757D02*
G01*
X41510458Y108204D01*
X41510458Y222757D02*
G01*
X41559734Y222757D01*
X41575990Y217170D01*
X41581577Y211836D01*
X41586911Y200913D01*
X41586911Y189992D01*
X41581577Y179070D01*
X41575990Y173481D01*
X41559734Y168147D01*
X41510458Y168147D01*
X41548811Y168147D02*
G01*
X41586911Y108204D01*
X41661079Y222757D02*
G01*
X41661079Y108204D01*
X41622979Y222757D02*
G01*
X41699179Y222757D01*
X41819322Y222757D02*
G01*
X41819322Y108204D01*
X41819322Y222757D02*
G01*
X41895522Y108204D01*
X41895522Y222757D02*
G01*
X41895522Y108204D01*
X41931590Y222757D02*
G01*
X41931590Y140970D01*
X41937177Y124460D01*
X41948100Y113537D01*
X41964356Y108204D01*
X41975277Y108204D01*
X41991534Y113537D01*
X42002456Y124460D01*
X42008043Y140970D01*
X42008043Y222757D01*
X42044111Y222757D02*
G01*
X42044111Y108204D01*
X42044111Y222757D02*
G01*
X42087546Y108204D01*
X42131234Y222757D02*
G01*
X42087546Y108204D01*
X42131234Y222757D02*
G01*
X42131234Y108204D01*
X42167302Y222757D02*
G01*
X42167302Y108204D01*
X42167302Y222757D02*
G01*
X42216324Y222757D01*
X42232834Y217170D01*
X42238168Y211836D01*
X42243756Y200913D01*
X42243756Y189992D01*
X42238168Y179070D01*
X42232834Y173481D01*
X42216324Y168147D01*
X42167302Y168147D02*
G01*
X42216324Y168147D01*
X42232834Y162813D01*
X42238168Y157226D01*
X42243756Y146304D01*
X42243756Y130047D01*
X42238168Y119126D01*
X42232834Y113537D01*
X42216324Y108204D01*
X42167302Y108204D01*
X42279570Y222757D02*
G01*
X42279570Y108204D01*
X42279570Y222757D02*
G01*
X42350436Y222757D01*
X42279570Y168147D02*
G01*
X42323258Y168147D01*
X42279570Y108204D02*
G01*
X42350436Y108204D01*
X42386504Y222757D02*
G01*
X42386504Y108204D01*
X42386504Y222757D02*
G01*
X42435525Y222757D01*
X42452036Y217170D01*
X42457370Y211836D01*
X42462958Y200913D01*
X42462958Y189992D01*
X42457370Y179070D01*
X42452036Y173481D01*
X42435525Y168147D01*
X42386504Y168147D01*
X42424858Y168147D02*
G01*
X42462958Y108204D01*
X42582846Y200913D02*
G01*
X42593768Y206247D01*
X42610277Y222757D01*
X42610277Y108204D01*
X42673524Y222757D02*
G01*
X42657013Y217170D01*
X42651679Y206247D01*
X42651679Y195326D01*
X42657013Y184404D01*
X42667936Y179070D01*
X42689779Y173481D01*
X42706290Y168147D01*
X42717211Y157226D01*
X42722546Y146304D01*
X42722546Y130047D01*
X42717211Y119126D01*
X42711624Y113537D01*
X42695368Y108204D01*
X42673524Y108204D01*
X42657013Y113537D01*
X42651679Y119126D01*
X42646091Y130047D01*
X42646091Y146304D01*
X42651679Y157226D01*
X42662602Y168147D01*
X42678858Y173481D01*
X42700702Y179070D01*
X42711624Y184404D01*
X42717211Y195326D01*
X42717211Y206247D01*
X42711624Y217170D01*
X42695368Y222757D01*
X42673524Y222757D01*
X42834813Y222757D02*
G01*
X42780458Y108204D01*
X42758613Y222757D02*
G01*
X42834813Y222757D01*
X42903648Y222757D02*
G01*
X42887391Y217170D01*
X42876470Y200913D01*
X42870882Y173481D01*
X42870882Y157226D01*
X42876470Y130047D01*
X42887391Y113537D01*
X42903648Y108204D01*
X42914570Y108204D01*
X42930825Y113537D01*
X42941748Y130047D01*
X42947336Y157226D01*
X42947336Y173481D01*
X42941748Y200913D01*
X42930825Y217170D01*
X42914570Y222757D01*
X42903648Y222757D01*
X42983150Y157226D02*
G01*
X43081448Y157226D01*
X43150282Y222757D02*
G01*
X43133772Y217170D01*
X43122850Y200913D01*
X43117516Y173481D01*
X43117516Y157226D01*
X43122850Y130047D01*
X43133772Y113537D01*
X43150282Y108204D01*
X43161204Y108204D01*
X43177459Y113537D01*
X43188382Y130047D01*
X43193716Y157226D01*
X43193716Y173481D01*
X43188382Y200913D01*
X43177459Y217170D01*
X43161204Y222757D01*
X43150282Y222757D01*
X43235372Y195326D02*
G01*
X43235372Y200913D01*
X43240706Y211836D01*
X43246293Y217170D01*
X43257216Y222757D01*
X43278806Y222757D01*
X43289727Y217170D01*
X43295316Y211836D01*
X43300650Y200913D01*
X43300650Y189992D01*
X43295316Y179070D01*
X43284393Y162813D01*
X43229784Y108204D01*
X43306238Y108204D01*
X43374818Y222757D02*
G01*
X43358561Y217170D01*
X43347640Y200913D01*
X43342306Y173481D01*
X43342306Y157226D01*
X43347640Y130047D01*
X43358561Y113537D01*
X43374818Y108204D01*
X43385740Y108204D01*
X43402250Y113537D01*
X43413172Y130047D01*
X43418506Y157226D01*
X43418506Y173481D01*
X43413172Y200913D01*
X43402250Y217170D01*
X43385740Y222757D01*
X43374818Y222757D01*
X43465496Y222757D02*
G01*
X43525440Y222757D01*
X43492674Y179070D01*
X43509184Y179070D01*
X43520106Y173481D01*
X43525440Y168147D01*
X43531027Y151892D01*
X43531027Y140970D01*
X43525440Y124460D01*
X43514518Y113537D01*
X43498261Y108204D01*
X43481752Y108204D01*
X43465496Y113537D01*
X43459908Y119126D01*
X43454574Y130047D01*
X43650916Y222757D02*
G01*
X43694604Y108204D01*
X43738291Y222757D02*
G01*
X43694604Y108204D01*
X43806872Y222757D02*
G01*
X43790616Y217170D01*
X43779693Y200913D01*
X43774106Y173481D01*
X43774106Y157226D01*
X43779693Y130047D01*
X43790616Y113537D01*
X43806872Y108204D01*
X43817793Y108204D01*
X43834304Y113537D01*
X43844972Y130047D01*
X43850559Y157226D01*
X43850559Y173481D01*
X43844972Y200913D01*
X43834304Y217170D01*
X43817793Y222757D01*
X43806872Y222757D01*
X43891961Y135381D02*
G01*
X43886627Y130047D01*
X43891961Y124460D01*
X43897550Y130047D01*
X43891961Y135381D01*
X43933363Y200913D02*
G01*
X43944286Y206247D01*
X43960796Y222757D01*
X43960796Y108204D01*
M02*
